<svg width="18" height="18" viewBox="0 0 18 18" fill="none" xmlns="http://www.w3.org/2000/svg">
<path fill-rule="evenodd" clip-rule="evenodd" d="M2.25 0C1.00736 0 0 1.00736 0 2.25V15.75C0 16.9926 1.00736 18 2.25 18H15.75C16.9926 18 18 16.9926 18 15.75V2.25C18 1.00736 16.9926 0 15.75 0H2.25Z" fill="white"/>
<path fill-rule="evenodd" clip-rule="evenodd" d="M15.75 1.125H2.25C1.62868 1.125 1.125 1.62868 1.125 2.25V15.75C1.125 16.3713 1.62868 16.875 2.25 16.875H15.75C16.3713 16.875 16.875 16.3713 16.875 15.75V2.25C16.875 1.62868 16.3713 1.125 15.75 1.125ZM2.25 0C1.00736 0 0 1.00736 0 2.25V15.75C0 16.9926 1.00736 18 2.25 18H15.75C16.9926 18 18 16.9926 18 15.75V2.25C18 1.00736 16.9926 0 15.75 0H2.25Z" fill="white"/>
<path d="M12.375 9C12.375 10.864 10.864 12.375 9 12.375C7.13604 12.375 5.625 10.864 5.625 9C5.625 7.13604 7.13604 5.625 9 5.625C10.864 5.625 12.375 7.13604 12.375 9Z" fill="#C22356"/>
</svg>
