<svg width="30" height="30" viewBox="0 0 30 30" fill="none" xmlns="http://www.w3.org/2000/svg">
<g clip-path="url(#clip0_1465_50607)">
<path d="M29.9556 16.1168C30.5725 7.8555 24.3749 0.658378 16.113 0.0415598C7.85104 -0.575259 0.653333 5.6218 0.0364646 13.8831C-0.580404 22.1443 5.61716 29.3415 13.8791 29.9583C22.1411 30.5751 29.3388 24.378 29.9556 16.1168Z" fill="white"/>
<path d="M29.9556 16.1168C30.5725 7.8555 24.3749 0.658378 16.113 0.0415598C7.85104 -0.575259 0.653333 5.6218 0.0364646 13.8831C-0.580404 22.1443 5.61716 29.3415 13.8791 29.9583C22.1411 30.5751 29.3388 24.378 29.9556 16.1168Z" fill="url(#paint0_linear_1465_50607)" fill-opacity="0.5"/>
<path fill-rule="evenodd" clip-rule="evenodd" d="M14.916 15.4872H14.894L14.9135 15.4677H14.8892V15.4482L14.8721 15.4628V15.436V15.4628L14.8551 15.4482V15.4677H14.8307L14.8502 15.4872H14.8307H14.8502L14.8331 15.5067H14.8551H14.8892H14.9135L14.894 15.4872H14.916ZM14.916 15.4872H14.894L14.9135 15.4677H14.8892V15.4482L14.8721 15.4628V15.436V15.4628L14.8551 15.4482V15.4677H14.8307L14.8502 15.4872H14.8307H14.8502L14.8331 15.5067H14.8551H14.8892H14.9135L14.894 15.4872H14.916ZM14.916 15.4872H14.894L14.9135 15.4677H14.8892V15.4482L14.8721 15.4628V15.436V15.4628L14.8551 15.4482V15.4677H14.8307L14.8502 15.4872H14.8307H14.8502L14.8331 15.5067H14.8551H14.8892H14.9135L14.894 15.4872H14.916ZM14.916 15.4872H14.894L14.9135 15.4677H14.8892V15.4482L14.8721 15.4628V15.436V15.4628L14.8551 15.4482V15.4677H14.8307L14.8502 15.4872H14.8307H14.8502L14.8331 15.5067H14.8551H14.8892H14.9135L14.894 15.4872H14.916ZM14.916 15.4872H14.894L14.9135 15.4677H14.8892V15.4482L14.8721 15.4628V15.436V15.4628L14.8551 15.4482V15.4677H14.8307L14.8502 15.4872H14.8307H14.8502L14.8331 15.5067H14.8551H14.8892H14.9135L14.894 15.4872H14.916ZM14.916 15.4872H14.894L14.9135 15.4677H14.8892V15.4482L14.8721 15.4628V15.436V15.4628L14.8551 15.4482V15.4677H14.8307L14.8502 15.4872H14.8307H14.8502L14.8331 15.5067H14.8551H14.8892H14.9135L14.894 15.4872H14.916ZM29.4568 10.9906C28.4406 7.31136 26.0646 4.1555 22.8096 2.16159C19.5545 0.167682 15.6635 -0.515375 11.9239 0.250636C8.18431 1.01665 4.87533 3.17452 2.66657 6.28762C0.457813 9.40071 -0.485794 13.2366 0.0266884 17.019C0.53917 20.8014 2.46947 24.2479 5.427 26.6611C8.38453 29.0743 12.1484 30.2741 15.9571 30.0175C19.7657 29.761 23.3347 28.0673 25.9418 25.2793C28.5489 22.4912 29.9995 18.817 30 15C30.0013 13.6451 29.8185 12.2963 29.4568 10.9906ZM22.6358 23.1333C20.6578 24.9825 18.0724 26.0453 15.3656 26.122C12.6589 26.1986 10.0174 25.2839 7.93785 23.5497C5.85833 21.8155 4.48408 19.3814 4.07353 16.7051C3.66299 14.0287 4.24444 11.2947 5.70853 9.01697C7.17263 6.73927 9.41849 5.0749 12.0238 4.33684C14.6291 3.59878 17.4143 3.83789 19.8556 5.00921C22.2969 6.18052 24.2262 8.20333 25.2806 10.6972C26.3349 13.1912 26.4418 15.9843 25.581 18.5515C24.9997 20.2966 23.9954 21.8707 22.6578 23.1333H22.6358ZM14.8843 15.4799L14.9038 15.4604H14.8794V15.4409L14.8624 15.4555V15.4287V15.4555L14.8453 15.4409V15.4604H14.821L14.8405 15.4799H14.821H14.8405L14.8234 15.4994H14.8453H14.8794H14.9038L14.8843 15.4799H14.9062H14.8843ZM14.9062 15.4799H14.8843L14.9038 15.4604H14.8794V15.4409L14.8624 15.4555V15.4287V15.4555L14.8453 15.4409V15.4604H14.821L14.8405 15.4799H14.821H14.8405L14.8234 15.4994H14.8453H14.8794H14.9038L14.8843 15.4799H14.9062ZM14.9062 15.4799H14.8843L14.9038 15.4604H14.8794V15.4409L14.8624 15.4555V15.4287V15.4555L14.8453 15.4409V15.4604H14.821L14.8405 15.4799H14.821H14.8405L14.8234 15.4994H14.8453H14.8794H14.9038L14.8843 15.4799H14.9062ZM14.9062 15.4799H14.8843L14.9038 15.4604H14.8794V15.4409L14.8624 15.4555V15.4287V15.4555L14.8453 15.4409V15.4604H14.821L14.8405 15.4799H14.821H14.8405L14.8234 15.4994H14.8453H14.8794H14.9038L14.8843 15.4799H14.9062ZM14.9062 15.4799H14.8843L14.9038 15.4604H14.8794V15.4409L14.8624 15.4555V15.4287V15.4555L14.8453 15.4409V15.4604H14.821L14.8405 15.4799H14.821H14.8405L14.8234 15.4994H14.8453H14.8794H14.9038L14.8843 15.4799H14.9062Z" fill="#901AB9"/>
<path fill-rule="evenodd" clip-rule="evenodd" d="M15.0402 15.5091L15.0158 15.5018L15.0207 15.5213L15.0037 15.5066L14.9988 15.5334L14.9939 15.5091L14.9769 15.5237L14.9817 15.5042L14.9598 15.5091L14.9769 15.492L14.9574 15.4847L14.9769 15.4799L14.9574 15.4604L14.9817 15.4701L14.9769 15.4506L14.9939 15.4628L14.9988 15.4384L15.0037 15.4628L15.0207 15.4506L15.0158 15.4701L15.0402 15.4604L15.0207 15.4799L15.0426 15.4847L15.0207 15.492L15.0402 15.5091Z" fill="url(#paint1_linear_1465_50607)"/>
<path style="mix-blend-mode:multiply" opacity="0.88" fill-rule="evenodd" clip-rule="evenodd" d="M14.9988 4.25299C12.8732 4.25347 10.7954 4.88418 9.02826 6.06537C7.2611 7.24656 5.8839 8.92518 5.0708 10.889C4.25769 12.8528 4.04519 15.0136 4.46018 17.0981C4.87516 19.1827 5.89898 21.0974 7.4022 22.6001C8.90541 24.1029 10.8205 25.1262 12.9053 25.5407C14.9901 25.9551 17.151 25.7422 19.1148 24.9287C21.0786 24.1152 22.757 22.7377 23.9379 20.9704C25.1188 19.2032 25.7491 17.1254 25.7491 15C25.7491 13.5885 25.471 12.1908 24.9307 10.8867C24.3905 9.58268 23.5986 8.39784 22.6003 7.39985C21.602 6.40187 20.4168 5.6103 19.1126 5.07036C17.8083 4.53041 16.4104 4.25267 14.9988 4.25299ZM14.9988 24.7751C13.0653 24.7751 11.1752 24.2018 9.5676 23.1277C7.95996 22.0536 6.70697 20.5269 5.96705 18.7408C5.22714 16.9546 5.03354 14.9891 5.41075 13.093C5.78795 11.1968 6.71902 9.45503 8.0862 8.08796C9.45338 6.72088 11.1953 5.7899 13.0916 5.41272C14.9879 5.03555 16.9536 5.22913 18.7399 5.96898C20.5262 6.70884 22.053 7.96173 23.1271 9.56924C24.2013 11.1767 24.7747 13.0667 24.7747 15C24.7747 17.5925 23.7447 20.0788 21.9114 21.912C20.0781 23.7452 17.5915 24.7751 14.9988 24.7751Z" fill="url(#paint2_linear_1465_50607)"/>
<g style="mix-blend-mode:screen" opacity="0.5">
<path fill-rule="evenodd" clip-rule="evenodd" d="M14.9988 4.71826C9.06455 4.71826 4.25092 9.06383 4.25092 15C4.29341 17.8226 5.4446 20.5152 7.45582 22.4962C9.46704 24.4772 12.1769 25.5876 15 25.5876C17.8231 25.5876 20.533 24.4772 22.5442 22.4962C24.5554 20.5152 25.7066 17.8226 25.7491 15C25.7491 9.06626 20.9354 4.71826 14.9988 4.71826ZM14.9135 25.0309C9.51522 25.0309 5.2229 20.4027 5.2229 15C5.2229 12.4075 6.25286 9.92116 8.08619 8.08798C9.91952 6.25479 12.4061 5.22492 14.9988 5.22492C17.5915 5.22492 20.078 6.25479 21.9114 8.08798C23.7447 9.92116 24.7747 12.4075 24.7747 15C24.7747 20.3979 20.3142 25.0309 14.9135 25.0309Z" fill="url(#paint3_linear_1465_50607)"/>
</g>
<g style="mix-blend-mode:multiply" opacity="0.88">
<path fill-rule="evenodd" clip-rule="evenodd" d="M5.02313 10.5278C5.02313 10.5278 8.06333 4.71337 14.8015 4.71337C21.5396 4.71337 24.9744 11.5338 24.9744 11.5338C24.9744 11.5338 22.6577 4.25299 14.8015 4.25299C6.94518 4.25299 5.02313 10.5278 5.02313 10.5278Z" fill="#FFB4C2"/>
</g>
<path fill-rule="evenodd" clip-rule="evenodd" d="M10.8697 0.577307V2.29459C10.8697 2.29459 12.3313 2.80368 14.9988 2.80368C17.7564 2.80368 19.1401 2.29459 19.1401 2.29459V0.589486C16.4386 -0.187289 13.5734 -0.191508 10.8697 0.577307Z" fill="url(#paint4_linear_1465_50607)"/>
<path fill-rule="evenodd" clip-rule="evenodd" d="M19.1303 29.4227V27.7176C19.1303 27.7176 17.6687 27.2085 14.989 27.2085C12.2339 27.2085 10.8599 27.7176 10.8599 27.7176V29.4227C13.5627 30.1943 16.4275 30.1943 19.1303 29.4227Z" fill="url(#paint5_linear_1465_50607)"/>
<path fill-rule="evenodd" clip-rule="evenodd" d="M25.1961 3.99237L23.7345 4.88389C23.7345 4.88389 24.0633 6.40387 25.4397 8.67896C26.8599 11.0369 28.0171 11.9503 28.0171 11.9503L29.4787 11.0588C28.7368 8.35063 27.2536 5.90332 25.1961 3.99237Z" fill="url(#paint6_linear_1465_50607)"/>
<path fill-rule="evenodd" clip-rule="evenodd" d="M4.80388 26.0076L6.26552 25.1161C6.26552 25.1161 5.93665 23.5961 4.56028 21.321C3.13275 18.9631 1.98537 18.0521 1.98537 18.0521L0.523743 18.9412C1.26494 21.6491 2.74726 24.0964 4.80388 26.0076Z" fill="url(#paint7_linear_1465_50607)"/>
<path fill-rule="evenodd" clip-rule="evenodd" d="M29.5323 18.7317L28.0512 17.8621C28.0512 17.8621 26.8672 18.8754 25.5225 21.17C24.1194 23.5474 23.8758 24.9894 23.8758 24.9894L25.3569 25.8566C27.3861 23.9176 28.8324 21.4496 29.5323 18.7317Z" fill="url(#paint8_linear_1465_50607)"/>
<path fill-rule="evenodd" clip-rule="evenodd" d="M0.467712 11.2585L1.95127 12.1379C1.95127 12.1379 3.13519 11.127 4.47989 8.83243C5.87332 6.45503 6.13154 5.01057 6.13154 5.01057L4.65041 4.1434C2.62008 6.07884 1.17133 8.54331 0.467712 11.2585Z" fill="url(#paint9_linear_1465_50607)"/>
<g style="mix-blend-mode:multiply" opacity="0.5">
<path fill-rule="evenodd" clip-rule="evenodd" d="M0.489655 18.8365C0.489655 18.8365 3.486 29.5275 14.9988 29.4227C27.1133 29.3131 29.5225 18.705 29.5225 18.705C29.5225 18.705 26.9939 30.0122 14.9793 30.0122C2.96469 30.0122 0.489655 18.8365 0.489655 18.8365Z" fill="#22006B"/>
</g>
<path fill-rule="evenodd" clip-rule="evenodd" d="M21.9805 3.31032C21.981 3.38365 21.9597 3.45547 21.9193 3.51668C21.8789 3.57789 21.8212 3.62572 21.7536 3.65412C21.686 3.68251 21.6115 3.6902 21.5395 3.67619C21.4675 3.66218 21.4013 3.62711 21.3493 3.57542C21.2973 3.52374 21.2617 3.45777 21.2473 3.38589C21.2328 3.314 21.24 3.23943 21.2679 3.17163C21.2959 3.10384 21.3433 3.04587 21.4043 3.00508C21.4652 2.96428 21.5369 2.94251 21.6102 2.9425C21.708 2.9425 21.8018 2.98118 21.8712 3.05009C21.9406 3.11899 21.9799 3.21255 21.9805 3.31032Z" fill="#FFA700"/>
<path fill-rule="evenodd" clip-rule="evenodd" d="M8.92571 3.31033C8.92619 3.38376 8.90482 3.45568 8.86431 3.51694C8.82381 3.5782 8.76601 3.62603 8.69826 3.65435C8.6305 3.68268 8.55585 3.69022 8.48379 3.67601C8.41174 3.6618 8.34553 3.62649 8.2936 3.57456C8.24167 3.52263 8.20636 3.45644 8.19215 3.38439C8.17794 3.31234 8.18548 3.2377 8.2138 3.16995C8.24213 3.10219 8.28997 3.04439 8.35123 3.0039C8.4125 2.9634 8.48442 2.94203 8.55786 2.94251C8.65522 2.94315 8.74842 2.98211 8.81726 3.05095C8.88611 3.11979 8.92507 3.21297 8.92571 3.31033Z" fill="#FFA700"/>
<path fill-rule="evenodd" clip-rule="evenodd" d="M21.9805 26.0076C21.9791 26.0805 21.9561 26.1514 21.9146 26.2113C21.873 26.2712 21.8147 26.3175 21.7469 26.3444C21.6792 26.3713 21.605 26.3776 21.5336 26.3625C21.4623 26.3474 21.397 26.3116 21.3459 26.2596C21.2949 26.2075 21.2603 26.1415 21.2466 26.0699C21.2329 25.9983 21.2407 25.9242 21.2689 25.857C21.2971 25.7898 21.3446 25.7324 21.4053 25.692C21.466 25.6516 21.5373 25.6301 21.6102 25.6301C21.6595 25.6301 21.7082 25.6399 21.7536 25.6589C21.799 25.678 21.8402 25.7059 21.8747 25.7411C21.9092 25.7762 21.9363 25.8179 21.9545 25.8637C21.9726 25.9095 21.9815 25.9584 21.9805 26.0076Z" fill="#FFA700"/>
<path fill-rule="evenodd" clip-rule="evenodd" d="M28.7479 14.9123C28.7484 14.9856 28.7271 15.0575 28.6867 15.1187C28.6463 15.1799 28.5886 15.2277 28.521 15.2561C28.4534 15.2845 28.3788 15.2922 28.3069 15.2782C28.2349 15.2642 28.1687 15.2291 28.1166 15.1774C28.0646 15.1257 28.0291 15.0598 28.0146 14.9879C28.0001 14.916 28.0073 14.8414 28.0353 14.7736C28.0632 14.7058 28.1107 14.6479 28.1716 14.6071C28.2326 14.5663 28.3043 14.5445 28.3776 14.5445C28.4754 14.5445 28.5692 14.5832 28.6386 14.6521C28.7079 14.721 28.7472 14.8145 28.7479 14.9123Z" fill="#FFA700"/>
<path fill-rule="evenodd" clip-rule="evenodd" d="M2.10963 14.9123C2.11011 14.9856 2.08881 15.0575 2.04842 15.1187C2.00802 15.1799 1.95036 15.2277 1.88274 15.2561C1.81513 15.2845 1.7406 15.2922 1.66862 15.2782C1.59663 15.2642 1.53042 15.2291 1.4784 15.1774C1.42637 15.1257 1.39086 15.0598 1.37638 14.9879C1.36189 14.916 1.36908 14.8414 1.39703 14.7736C1.42498 14.7058 1.47244 14.6479 1.53339 14.6071C1.59433 14.5663 1.66601 14.5445 1.73935 14.5445C1.83714 14.5445 1.93095 14.5832 2.00032 14.6521C2.0697 14.721 2.10899 14.8145 2.10963 14.9123Z" fill="#FFA700"/>
<path d="M8.55784 26.3779C8.76234 26.3779 8.92812 26.2121 8.92812 26.0076C8.92812 25.8032 8.76234 25.6374 8.55784 25.6374C8.35334 25.6374 8.18756 25.8032 8.18756 26.0076C8.18756 26.2121 8.35334 26.3779 8.55784 26.3779Z" fill="#FFA700"/>
</g>
<defs>
<linearGradient id="paint0_linear_1465_50607" x1="13.8791" y1="29.9583" x2="16.1126" y2="0.0415329" gradientUnits="userSpaceOnUse">
<stop stop-color="white"/>
<stop offset="0.08" stop-color="#FFD0D1"/>
<stop offset="0.3" stop-color="#FFA3A7"/>
<stop offset="0.41" stop-color="#FF888D"/>
<stop offset="0.46" stop-color="#FF9498"/>
<stop offset="0.53" stop-color="#FF9BA0"/>
<stop offset="0.63" stop-color="#EEC1C3"/>
<stop offset="0.67" stop-color="#F5D9DA"/>
<stop offset="0.72" stop-color="#FAEEEF"/>
<stop offset="0.77" stop-color="#FEFBFB"/>
<stop offset="1" stop-color="white"/>
</linearGradient>
<linearGradient id="paint1_linear_1465_50607" x1="14.9793" y1="15.5261" x2="15.0158" y2="15.4482" gradientUnits="userSpaceOnUse">
<stop stop-color="#13001D"/>
<stop offset="1" stop-color="#2F042F"/>
</linearGradient>
<linearGradient id="paint2_linear_1465_50607" x1="14.9988" y1="25.747" x2="14.9988" y2="4.25299" gradientUnits="userSpaceOnUse">
<stop offset="0.45" stop-color="white"/>
<stop offset="0.99" stop-color="#D16845"/>
</linearGradient>
<linearGradient id="paint3_linear_1465_50607" x1="4.25092" y1="15.1529" x2="25.7491" y2="15.1529" gradientUnits="userSpaceOnUse">
<stop stop-color="#F4D4D5"/>
<stop offset="0.08" stop-color="#EEBFC0"/>
<stop offset="0.3" stop-color="#DE8286"/>
<stop offset="0.41" stop-color="#D76A6F"/>
<stop offset="0.46" stop-color="#DA767A"/>
<stop offset="0.53" stop-color="#E29498"/>
<stop offset="0.63" stop-color="#EEC1C3"/>
<stop offset="0.67" stop-color="#F5D9DA"/>
<stop offset="0.72" stop-color="#FAEEEF"/>
<stop offset="0.77" stop-color="#FEFBFB"/>
<stop offset="0.82" stop-color="white"/>
<stop offset="0.87" stop-color="#FDF8F8"/>
<stop offset="0.95" stop-color="#F8E5E6"/>
<stop offset="1" stop-color="#F4D4D5"/>
</linearGradient>
<linearGradient id="paint4_linear_1465_50607" x1="14.9988" y1="2.80368" x2="14.9988" y2="9.12502e-06" gradientUnits="userSpaceOnUse">
<stop stop-color="#F9D5D1"/>
<stop offset="0.06" stop-color="#FAD7D2"/>
<stop offset="0.53" stop-color="#FEE3DB"/>
<stop offset="1" stop-color="#FFE7DE"/>
</linearGradient>
<linearGradient id="paint5_linear_1465_50607" x1="-4212.38" y1="-432.411" x2="-4212.38" y2="-400.293" gradientUnits="userSpaceOnUse">
<stop stop-color="#F9D5D1"/>
<stop offset="0.06" stop-color="#FAD7D2"/>
<stop offset="0.53" stop-color="#FEE3DB"/>
<stop offset="1" stop-color="#FFE7DE"/>
</linearGradient>
<linearGradient id="paint6_linear_1465_50607" x1="1143.62" y1="2777.8" x2="1222.4" y2="2730.17" gradientUnits="userSpaceOnUse">
<stop stop-color="#F9D5D1"/>
<stop offset="0.06" stop-color="#FAD7D2"/>
<stop offset="0.53" stop-color="#FEE3DB"/>
<stop offset="1" stop-color="#FFE7DE"/>
</linearGradient>
<linearGradient id="paint7_linear_1465_50607" x1="-396.965" y1="-3156.88" x2="-475.648" y2="-3109.3" gradientUnits="userSpaceOnUse">
<stop stop-color="#F9D5D1"/>
<stop offset="0.06" stop-color="#FAD7D2"/>
<stop offset="0.53" stop-color="#FEE3DB"/>
<stop offset="1" stop-color="#FFE7DE"/>
</linearGradient>
<linearGradient id="paint8_linear_1465_50607" x1="-1860.58" y1="2273.65" x2="-1781.44" y2="2320.59" gradientUnits="userSpaceOnUse">
<stop stop-color="#F9D5D1"/>
<stop offset="0.06" stop-color="#FAD7D2"/>
<stop offset="0.53" stop-color="#FEE3DB"/>
<stop offset="1" stop-color="#FFE7DE"/>
</linearGradient>
<linearGradient id="paint9_linear_1465_50607" x1="2568.86" y1="-1789.01" x2="2489.73" y2="-1835.95" gradientUnits="userSpaceOnUse">
<stop stop-color="#F9D5D1"/>
<stop offset="0.06" stop-color="#FAD7D2"/>
<stop offset="0.53" stop-color="#FEE3DB"/>
<stop offset="1" stop-color="#FFE7DE"/>
</linearGradient>
<clipPath id="clip0_1465_50607">
<rect width="30" height="30" fill="white"/>
</clipPath>
</defs>
</svg>
