<?xml version="1.0" encoding="UTF-8"?><svg id="_圖層_1" xmlns="http://www.w3.org/2000/svg" xmlns:xlink="http://www.w3.org/1999/xlink" viewBox="0 0 68 68"><defs><style>.cls-1{fill:#fff;}.cls-2{fill:#63707c;filter:url(#drop-shadow-1);stroke:#fff;stroke-miterlimit:10;stroke-width:3px;}</style><filter id="drop-shadow-1" filterUnits="userSpaceOnUse"><feOffset dx="0" dy="2"/><feGaussianBlur result="blur" stdDeviation="1"/><feFlood flood-color="#000" flood-opacity=".3"/><feComposite in2="blur" operator="in"/><feComposite in="SourceGraphic"/></filter></defs><circle class="cls-2" cx="34" cy="32" r="28.71"/><path class="cls-1" d="m36.83,34l9.16-9.16c.78-.78.78-2.05,0-2.83-.78-.78-2.05-.78-2.83,0l-9.16,9.16-9.16-9.16c-.78-.78-2.05-.78-2.83,0-.78.78-.78,2.05,0,2.83l9.16,9.16-9.16,9.16c-.78.78-.78,2.05,0,2.83.39.39.9.59,1.41.59s1.02-.2,1.41-.59l9.16-9.16,9.16,9.16c.39.39.9.59,1.41.59s1.02-.2,1.41-.59c.78-.78.78-2.05,0-2.83l-9.16-9.16Z"/></svg>