<svg width="20" height="20" viewBox="0 0 20 20" fill="none" xmlns="http://www.w3.org/2000/svg">
<g clip-path="url(#clip0_1424_27342)">
<path fill-rule="evenodd" clip-rule="evenodd" d="M0.570255 13.3356H19.4288C19.7975 12.2925 19.999 11.1692 19.999 10C20 4.47703 15.523 0 10 0C4.47703 0 0 4.47703 0 10C0 11.1701 0.201547 12.2925 0.570255 13.3356Z" fill="#C0282D"/>
<path fill-rule="evenodd" clip-rule="evenodd" d="M19.4298 13.3354H0.570312C1.94389 17.2183 5.64625 19.9999 10.0001 19.9999C14.3539 19.9999 18.0562 17.2183 19.4298 13.3354Z" fill="#379B42"/>
<path fill-rule="evenodd" clip-rule="evenodd" d="M4.39106 18.2796V1.72021C1.74133 3.51886 0 6.55544 0 9.9999C0 13.4444 1.74133 16.4809 4.39106 18.2796Z" fill="#FEFEFE"/>
<path fill-rule="evenodd" clip-rule="evenodd" d="M2.64961 3.22074H2.67922V3.68401H2.8779V4.14347H3.07276V3.68401H3.26953V3.22074H3.46631V2.75651H3.66117V2.29706H3.85698V2.10889C3.65448 2.26649 3.45866 2.43174 3.26953 2.60464V2.75651H3.10619L3.07372 2.78803V3.22074H2.87886V2.98099C2.80149 3.05931 2.72507 3.13955 2.65056 3.22074H2.64961ZM3.85698 17.8907C3.65448 17.7331 3.45866 17.5679 3.26953 17.395V17.2431H3.10619L3.07276 17.2116V16.7836H2.8779V17.0186C2.80149 16.9412 2.72698 16.8629 2.65343 16.7836H2.67922V16.3204H2.8779V15.8609H3.07276V16.3204H3.26953V16.7836H3.46631V17.244H3.66117V17.7073H3.85698V17.8917V17.8907ZM2.08986 16.1179V15.9526H2.28759V16.2277H2.58179V15.9526H2.68113V15.6766H2.77761V15.3059H2.68113V15.0299H2.58179V14.7548H2.28759V15.0299H2.08986V14.7548H1.79661V15.0299H1.69918V15.3059H1.59984V15.4273C1.75363 15.6641 1.91697 15.8943 2.08986 16.1179ZM1.40976 15.1216C1.37441 15.0633 1.34003 15.0041 1.3066 14.9449V14.6621H1.15185L1.10887 14.5809V14.1989H0.922605L0.914963 14.1826V13.7356H0.722013L0.717237 13.7251V13.2761H0.549121L0.51951 13.1902V12.8129H0.717237V12.3525H0.912098V11.893H1.10791V11.4297H1.30564V11.893H1.49955V12.3525H1.69823V12.8129H1.49955V13.3707H1.69823V13.0001H1.89213V12.2608H1.99243V11.8061L1.69823 11.8013V11.4297H1.49955V11.1537H1.30564V10.6942H1.10791V11.1537H0.912098V11.4297H0.717237V11.7087H0.51951V10.8786H0.717237V10.5118H0.912098V10.1832H1.10791V9.81545H0.912098V9.49546H0.717237V9.12388H0.51951V8.29286H0.717237V8.56796H0.912098V8.84401H1.10791V9.30728H1.30564V8.84401H1.49955V8.56796H1.69823V8.20116L1.99243 8.19734V7.74075H1.89213V7.00238H1.69823V6.63081H1.49955V7.18578H1.69823V7.64905H1.49955V8.10755H1.30564V8.567H1.10791V8.10755H0.912098V7.64905H0.717237V7.18578H0.51951V6.80752L0.549121 6.72251H0.717237V6.27356L0.722013 6.26306H0.913053V5.81984L0.922605 5.79978H1.10982V5.4177L1.14994 5.34129H1.3066V5.05473C1.34003 4.9955 1.37537 4.93628 1.40976 4.87801H1.5005V5.34129H1.69918V5.80074H1.89309V6.26401H2.08986V6.72346H2.28759V6.26401H2.48531V5.80074H2.68017V5.34129H2.87886V4.87801H3.07372V5.34129H3.27049V5.80074H3.46726V6.26401H3.66212V6.72346H3.85794V7.18769H3.66212V7.65096H3.46726V8.10946H3.27049V8.56891H3.07372V8.10946H2.87886V7.65096H2.68017V7.18769H2.87886V6.63272H2.68017V7.00429H2.48531V7.74266H2.38597V8.20307H2.68113V8.56987H2.8779V8.84592H3.07276V9.30919H3.26953V8.84592H3.46631V8.56987H3.66308V8.29477H3.85794V9.12579H3.66308V9.49737H3.46631V9.81736H3.26953V10.1851H3.46631V10.5137H3.66308V10.8805H3.85794V11.7106H3.66308V11.4316H3.46631V11.1556H3.26953V10.6961H3.07276V11.1556H2.8779V11.4316H2.68113V11.8032H2.38597V12.2627H2.48531V13.002H2.68017V13.3726H2.87886V12.8148H2.68017V12.3544H2.87886V11.8949H3.07372V11.4316H3.27049V11.8949H3.46726V12.3544H3.66212V12.8148H3.85794V13.2781H3.66212V13.7375H3.46726V14.2008H3.27049V14.664H3.07372V15.1235H2.87886V14.664H2.68209V14.2008H2.48531V13.7375H2.28759V13.2781H2.08986V13.7375H1.89309V14.2008H1.69918V14.664H1.5005V15.1235H1.40976V15.1216ZM1.59984 4.57235C1.75363 4.33546 1.91697 4.1043 2.08986 3.88174V4.04699H2.28759V3.77571H2.58179V4.04699H2.68113V4.32686H2.77761V4.69462H2.68113V4.97353H2.58179V5.24959H2.28759V4.97353H2.08986V5.24959H1.79661V4.97353H1.69918V4.69462H1.59984V4.57235ZM3.66021 3.58754V3.03639H3.85603V3.58754H3.66021ZM3.36219 3.77189H3.6583V4.04699H3.75669V4.32686H3.85316V4.69462H3.75669V4.97067H3.6583V5.24577H3.36219V4.97067H3.26667V4.69462H3.16733V4.32686H3.26667V4.04699H3.36219V3.77189ZM3.36219 4.4157V4.60292H3.46057V4.78727H3.55992V4.60292H3.6583V4.4157H3.55992V4.23516H3.46057V4.4157H3.36219ZM2.28663 4.41856V4.60292H2.38502V4.79109H2.48436V4.60292H2.58179V4.41856H2.48436V4.23516H2.38502V4.41856H2.28663ZM1.79566 4.41856V4.60292H1.89309V4.79109H1.99339V4.60292H2.08891V4.41856H1.99339V4.23516H1.89309V4.41856H1.79566ZM1.30564 10.0074V10.1832H1.49955V10.5118H1.69823V10.8786H1.99243V11.3142H2.08795V11.5224H2.28568V11.3142H2.38406V10.8786H2.67922V10.5118H2.87599V10.1832H3.07085V9.81545H2.87599V9.49546H2.67922V9.12388H2.38406V8.68449H2.28568V8.47626H2.08795V8.68831H1.99243V9.12388H1.69823V9.49546H1.49955V9.81545H1.30564V10.0065V10.0074ZM3.66021 5.98891H3.85603V5.43394H3.66021V5.98891ZM2.08891 5.98891H2.28663V5.43394H2.08891V5.98891ZM3.66021 8.10946H3.85603V7.74171H3.66021V8.10946ZM0.51951 8.10946H0.717237V7.74171H0.51951V8.10946ZM2.08891 9.49164H2.28663V9.03218H2.08891V9.49164ZM2.38502 9.40089V9.58429H2.28663V9.7247H2.08891V9.58429H1.99339V9.40089H1.79566V9.67599H1.89309V9.8164H1.99339V10.1842H1.89309V10.3246H1.79566V10.5997H1.99339V10.4172H2.08891V10.2806H2.28663V10.4172H2.38502V10.5997H2.58083V10.3246H2.4834V10.1842H2.38406V9.8164H2.4834V9.67599H2.58083V9.40089H2.38502ZM3.66021 9.72375V10.2797H3.85603V9.72375H3.66021ZM2.58083 9.72375V10.2797H2.77665V9.72375H2.58083ZM1.59889 9.72375V10.2797H1.7947V9.72375H1.59889ZM0.518555 9.72375V10.2797H0.716281V9.72375H0.518555ZM2.08795 10.9703H2.28568V10.5108H2.08795V10.9703ZM3.65926 12.2598H3.85507V11.893H3.65926V12.2598ZM0.518555 12.2598H0.716281V11.893H0.518555V12.2598ZM3.65926 14.5647H3.85507V14.0136H3.65926V14.5647ZM2.08795 14.5647H2.28568V14.0136H2.08795V14.5647ZM2.28568 15.3957H2.38406V15.2114H2.4834V15.3957H2.58083V15.583H2.4834V15.7673H2.38406V15.583H2.28568V15.3957ZM1.7947 15.3957H1.89213V15.2114H1.99243V15.3957H2.08795V15.583H1.99243V15.7673H1.89213V15.583H1.7947V15.3957ZM3.36123 14.7567V15.027H3.26571V15.3069H3.16637V15.6737H3.26571V15.9497H3.36123V16.2248H3.65735V15.9497H3.75573V15.6737H3.85221V15.3069H3.75573V15.027H3.65735V14.7567H3.36123ZM3.36123 15.3996H3.45962V15.2152H3.55896V15.3996H3.65735V15.582H3.55896V15.7702H3.45962V15.582H3.36123V15.3996ZM3.65926 16.9651H3.85507V16.414H3.65926V16.9651Z" fill="#C0282D"/>
</g>
<defs>
<clipPath id="clip0_1424_27342">
<rect width="20" height="20" fill="white"/>
</clipPath>
</defs>
</svg>
