<svg width="38" height="39" viewBox="0 0 38 39" fill="none" xmlns="http://www.w3.org/2000/svg">
<path d="M17.8396 17.5957C17.2408 17.0472 16.8064 16.3644 16.4682 15.448C16.3344 15.0869 16.2569 14.7305 16.2287 14.3811C15.7614 14.1427 15.2494 13.9622 14.7046 13.8256C14.5919 13.7979 14.5144 13.7493 14.451 13.6706C14.0753 13.2216 13.6385 12.8259 13.0561 12.5528C12.8494 12.4579 12.7344 12.2982 12.6991 12.0992C12.6545 11.8515 12.6099 11.6039 12.5653 11.3563C12.4831 10.9235 12.0745 10.6921 11.5485 10.7823C11.3207 10.8217 11.0929 10.861 10.8674 10.9027C10.3625 10.9952 10.0573 11.3563 10.1277 11.7752C10.17 12.0228 10.2193 12.2704 10.2639 12.518C10.2991 12.7148 10.2522 12.9069 10.0925 13.0665C9.62751 13.534 9.35511 14.071 9.1461 14.6333C9.12262 14.6981 9.06156 14.7653 8.99816 14.8092C8.76098 14.9689 8.53788 15.1402 8.32653 15.3184C8.35941 15.4387 8.36646 15.5521 8.35471 15.7442C8.2326 15.8646 8.12223 16.0034 8.02595 16.1307C8.02595 15.9733 7.99777 15.809 7.96019 15.6493C7.93671 15.6725 7.91323 15.6956 7.88974 15.7211C7.91792 15.8576 7.93436 15.9942 7.93436 16.1214C7.93436 16.4339 7.83573 16.7671 7.68544 16.7671C7.55393 16.7671 7.46235 16.5056 7.44121 16.2302C7.41538 16.2626 7.3919 16.2973 7.36841 16.3297C7.46 16.5172 7.51166 16.7671 7.41538 16.8389C7.39659 16.8551 7.37311 16.8643 7.34258 16.8643C7.27683 16.8643 7.18759 16.8181 7.09601 16.7417C7.08896 16.7556 7.08192 16.7671 7.07252 16.781C7.19229 16.8805 7.28152 16.9986 7.25569 17.0842C7.23456 17.1467 7.13123 17.186 6.98094 17.186C6.95041 17.186 6.91284 17.1791 6.87996 17.1768C6.87057 17.1999 6.86117 17.2207 6.85178 17.2439C6.89405 17.2393 6.93867 17.23 6.98094 17.23C7.13123 17.23 7.23221 17.267 7.25569 17.3318C7.30266 17.4823 6.98798 17.7415 6.77898 17.804C6.7508 17.8132 6.72497 17.8202 6.69679 17.8271C6.69209 17.8572 6.68739 17.885 6.6827 17.915C6.70853 17.9081 6.73436 17.9035 6.76019 17.8942C6.72732 17.9359 6.70148 17.9845 6.6733 18.0331C6.66861 18.1048 6.66626 18.1766 6.66626 18.2483C6.71557 18.1395 6.77428 18.0377 6.84004 17.9544C7.00442 17.7183 7.21577 17.5471 7.34493 17.5471C7.37311 17.5471 7.39659 17.5563 7.41773 17.5725C7.53749 17.6628 7.42712 18.0331 7.29561 18.2113C7.13828 18.4265 6.94102 18.6672 6.72966 18.8061C6.78368 19.0421 6.86822 19.2805 6.98798 19.5235C7.29327 20.1345 7.68544 20.6899 8.28661 21.125C8.49796 21.2777 8.71166 21.3564 9.02164 21.3449C10.3625 21.2939 11.6987 21.1875 13.0514 20.9399C14.3406 20.7269 14.4112 20.7537 15.1637 20.0011C15.5042 19.8993 17.2568 18.7437 17.4212 18.4961C17.4212 18.4961 18.105 18.4057 18.1942 17.841C18.0745 17.7762 17.9594 17.6998 17.849 17.598L17.8396 17.5957ZM9.32223 15.9502C9.26822 16.0983 9.18837 16.2626 9.08505 16.4177C8.92536 16.4339 8.76332 16.4686 8.60833 16.5172C8.71166 16.3876 8.7915 16.2256 8.85021 16.059C9.0099 15.9942 9.16959 15.9525 9.32223 15.9525V15.9502ZM9.59464 16.5172C9.44434 16.7301 9.1555 16.9986 8.81264 17.1004C8.67409 17.1536 8.5191 17.1837 8.38524 17.1837C8.23495 17.1837 8.13397 17.1467 8.11049 17.0819C8.06352 16.9315 8.3782 16.6723 8.5872 16.6098C8.83377 16.5288 9.078 16.4871 9.29405 16.4871C9.40207 16.4871 9.5007 16.4987 9.59229 16.5195L9.59464 16.5172ZM8.07526 16.2001C8.29131 15.9039 8.57781 15.5614 8.87839 15.4966C8.85256 15.7974 8.7281 16.214 8.52849 16.457C8.36411 16.6931 8.15276 16.8643 8.0236 16.8643C7.99542 16.8643 7.97193 16.8551 7.9508 16.8389C7.83103 16.7486 7.94141 16.3783 8.07291 16.2001H8.07526ZM7.37311 17.2045C7.37311 17.0379 7.51166 16.9014 7.68074 16.9014C7.84982 16.9014 7.98837 17.0379 7.98837 17.2045C7.98837 17.3712 7.84982 17.5077 7.68074 17.5077C7.51166 17.5077 7.37311 17.3712 7.37311 17.2045ZM7.07017 19.1995C7.00912 19.0305 6.99268 18.9125 7.00912 18.6649C7.13123 18.5445 7.2416 18.4057 7.33788 18.2784C7.33788 18.4612 7.37076 18.6556 7.42008 18.8361C7.32849 18.9981 7.21577 19.1347 7.07017 19.1972V19.1995ZM7.68074 19.2504C7.53514 19.0097 7.43182 18.6117 7.43182 18.29C7.43182 17.9683 7.53045 17.6443 7.68074 17.6443C7.82869 17.6443 7.92966 17.9775 7.92966 18.29C7.92966 18.6024 7.82634 19.0097 7.68074 19.2504ZM8.29131 19.1995C8.14571 19.137 8.03299 19.0005 7.94141 18.8385C7.99072 18.6579 8.02125 18.4635 8.0236 18.2807C8.11988 18.408 8.23025 18.5468 8.35237 18.6672C8.3688 18.9148 8.35237 19.0305 8.29131 19.2018V19.1995ZM8.07526 18.209C7.94375 18.0308 7.83338 17.6605 7.95315 17.5702C7.97194 17.554 7.99542 17.5447 8.02595 17.5447C8.15511 17.5447 8.36646 17.716 8.53084 17.9521C8.73045 18.1928 8.85491 18.6116 8.88074 18.9125C8.58015 18.8477 8.29366 18.5052 8.07761 18.209H8.07526ZM8.85021 18.3501C8.7915 18.1835 8.71166 18.0192 8.60833 17.8919C8.76332 17.9405 8.92536 17.9752 9.08505 17.9914C9.18837 18.1442 9.26822 18.3108 9.32223 18.4589C9.16959 18.4589 9.0099 18.4172 8.85021 18.3524V18.3501ZM9.29875 17.922C9.0827 17.922 8.83847 17.8803 8.5919 17.7993C8.38289 17.7368 8.06822 17.4776 8.11518 17.3272C8.13632 17.2647 8.23965 17.2254 8.38994 17.2254C8.52379 17.2254 8.67878 17.2555 8.81734 17.3087C9.16254 17.4105 9.44904 17.679 9.59933 17.8919C9.50775 17.9127 9.40912 17.9243 9.30109 17.9243L9.29875 17.922ZM9.27526 17.436C9.16489 17.3434 8.82673 17.2022 8.82673 17.2022C8.82673 17.2022 9.14845 17.0773 9.27526 16.9685C9.45374 17.0125 9.61577 17.0865 9.72614 17.2022C9.61577 17.3179 9.45374 17.392 9.27526 17.436Z" fill="white"/>
<path d="M14.9161 29.5231C14.3854 28.7339 14.0519 27.8429 13.8899 26.7992C13.695 25.5402 13.7255 24.4108 13.9791 23.3485C14.1858 22.476 14.5357 21.6799 15.0218 20.9601C14.1318 21.1846 13.2277 21.3605 12.3165 21.4971C12.2719 21.504 12.2273 21.5133 12.1639 21.5225C12.2132 21.5734 12.2437 21.6058 12.2766 21.6382C12.6993 22.0618 12.9834 22.5524 13.1337 23.1055C13.1736 23.2536 13.1079 23.3647 12.9693 23.3994C12.8237 23.4365 12.7204 23.3624 12.6617 23.2143C12.5654 22.9667 12.4715 22.7167 12.3447 22.483C12.178 22.1775 11.9384 21.916 11.6378 21.6938C11.6237 21.7146 11.6167 21.7262 11.6097 21.7378C11.2762 22.3302 11.0977 22.9481 11.187 23.6031C11.2034 23.7234 11.1705 23.823 11.032 23.8739C10.8746 23.934 10.7337 23.8484 10.7079 23.6772C10.6116 23.0268 10.7572 22.4043 11.0508 21.7956C11.0742 21.7493 11.0954 21.7007 11.1165 21.6568C10.5294 21.6822 9.95643 21.703 9.38578 21.7354C9.26367 21.7424 9.12746 21.7702 9.02649 21.8303C8.6578 22.0479 8.28206 22.2608 7.94155 22.5107C6.58187 23.5059 5.70594 24.7487 5.45232 26.297C5.37717 26.7483 5.36543 27.1926 5.39831 27.6346C5.51572 27.6346 5.72472 27.8846 5.96425 28.2919C6.00652 28.3613 6.04879 28.4377 6.09106 28.5164C6.04645 28.4909 5.99478 28.4724 5.94077 28.4655C5.92198 28.4632 5.9032 28.4609 5.88441 28.4609C5.74821 28.4609 5.62609 28.528 5.5533 28.6298C5.56504 28.6761 5.57678 28.7247 5.58852 28.771C5.59791 28.7432 5.612 28.7154 5.62844 28.6923C5.6848 28.6113 5.77874 28.5581 5.88676 28.5581C5.9032 28.5581 5.91729 28.5581 5.93138 28.5604C6.08167 28.5812 6.19674 28.7108 6.19674 28.8635C6.19674 28.889 6.19439 28.9145 6.18735 28.9376C6.14742 28.9492 6.10985 28.97 6.07932 29.0001C6.0394 29.0394 6.01357 29.0903 6.00652 29.1436C5.99948 29.1459 5.99243 29.1482 5.98539 29.1505C5.94312 29.1181 5.88911 29.0996 5.8304 29.0996C5.79048 29.0996 5.75525 29.1089 5.72238 29.1227C5.70359 29.1112 5.6895 29.0996 5.67306 29.0857C5.68715 29.132 5.70124 29.1783 5.71768 29.2246C5.72472 29.2176 5.73412 29.2107 5.74351 29.2061C5.75056 29.2014 5.7576 29.1991 5.76465 29.1945C5.78578 29.1852 5.80926 29.1806 5.83275 29.1806C5.87032 29.1806 5.9032 29.1922 5.93138 29.2107C5.94782 29.2223 5.96191 29.2362 5.97365 29.2524C5.98069 29.2616 5.98539 29.2709 5.99009 29.2801C5.95486 29.2986 5.92198 29.3218 5.89146 29.3472C5.87032 29.3658 5.85153 29.3843 5.83275 29.4051C5.82101 29.419 5.81161 29.4352 5.80222 29.4491C5.81396 29.4792 5.82805 29.5092 5.83979 29.5393C5.84449 29.5324 5.84684 29.5254 5.85153 29.5162C5.86328 29.4977 5.87737 29.4792 5.89146 29.463C5.91024 29.4421 5.92903 29.4213 5.95016 29.4051C5.9666 29.3912 5.98539 29.3773 6.00418 29.3658C6.01827 29.3565 6.03236 29.3496 6.04645 29.3426C6.05349 29.3403 6.05819 29.338 6.06523 29.3334C6.07228 29.331 6.07932 29.3264 6.08872 29.3241C6.09576 29.3218 6.10046 29.3195 6.1075 29.3172C6.12394 29.3125 6.13803 29.3079 6.15447 29.3033C6.1756 29.2986 6.19909 29.294 6.22022 29.294C6.23431 29.294 6.2484 29.294 6.26249 29.294C6.27658 29.294 6.29067 29.294 6.30476 29.294C6.32825 29.294 6.34938 29.2986 6.37052 29.3033C6.38696 29.3079 6.40339 29.3102 6.41748 29.3172C6.42453 29.3172 6.42923 29.3218 6.43627 29.3241C6.44332 29.3264 6.45271 29.331 6.45975 29.3334C6.4668 29.3357 6.4715 29.338 6.47854 29.3426C6.49263 29.3496 6.50672 29.3565 6.52081 29.3658C6.5396 29.3773 6.55838 29.3912 6.57482 29.4051C6.59596 29.4236 6.61709 29.4421 6.63353 29.463C6.64762 29.4792 6.66171 29.4977 6.67345 29.5162C6.68285 29.5301 6.68989 29.544 6.69694 29.5578C6.69928 29.5648 6.70163 29.5694 6.70633 29.5764C6.70868 29.5833 6.71337 29.5902 6.71572 29.5995C6.71807 29.6064 6.72042 29.6111 6.72277 29.618C6.72746 29.6342 6.73216 29.6481 6.73686 29.6643C6.74155 29.6851 6.74625 29.7083 6.74625 29.7291C6.74625 29.743 6.74625 29.7569 6.74625 29.7708C6.74625 29.7846 6.74625 29.7985 6.74625 29.8124C6.74625 29.8356 6.74155 29.8564 6.73686 29.8772C6.73216 29.8934 6.72981 29.9073 6.72277 29.9235C6.72277 29.9304 6.71807 29.9351 6.71572 29.942C6.71337 29.949 6.70868 29.9582 6.70633 29.9652C6.70398 29.9721 6.70163 29.9767 6.69694 29.9837C6.68989 29.9976 6.6805 30.0114 6.67345 30.0253C6.66171 30.0438 6.64762 30.0624 6.63353 30.0786C6.61474 30.0994 6.59596 30.1202 6.57482 30.1364C6.55838 30.1503 6.5396 30.1642 6.52081 30.1758C6.50672 30.185 6.49263 30.192 6.47854 30.1989C6.4715 30.2012 6.4668 30.2035 6.45975 30.2082C6.45271 30.2105 6.44566 30.2151 6.43627 30.2174C6.42923 30.2197 6.42453 30.222 6.41748 30.2244C6.40105 30.229 6.38696 30.2336 6.37052 30.2383C6.34938 30.2429 6.3259 30.2475 6.30476 30.2475C6.29067 30.2475 6.27658 30.2475 6.26249 30.2475C6.2484 30.2475 6.23431 30.2475 6.22022 30.2475C6.21318 30.2475 6.20848 30.2475 6.20144 30.2452C6.22022 30.2753 6.23901 30.3031 6.2578 30.3331C6.2578 30.3331 6.2578 30.3331 6.26015 30.3331C6.27424 30.3331 6.28833 30.3331 6.30242 30.3331C6.34234 30.3308 6.38226 30.3239 6.42218 30.3123C6.42688 30.3216 6.42923 30.3308 6.43157 30.3424C6.43157 30.3517 6.43392 30.3632 6.43392 30.3748C6.43392 30.3841 6.43392 30.391 6.43392 30.4003C6.42923 30.4373 6.41279 30.4697 6.38461 30.4951C6.38226 30.4975 6.37756 30.4975 6.37521 30.5021C6.39165 30.5252 6.40809 30.5461 6.42453 30.5692C6.43157 30.5646 6.43862 30.5599 6.44332 30.5553C6.48324 30.516 6.50907 30.4651 6.51611 30.4118C6.52316 30.4095 6.5302 30.4072 6.53725 30.4049C6.57952 30.4373 6.63353 30.4558 6.69224 30.4558C6.73216 30.4558 6.76739 30.4465 6.80026 30.4327C6.89185 30.4859 6.95056 30.5854 6.95056 30.6965C6.95056 30.7613 6.92942 30.8191 6.89654 30.8701C6.86602 30.914 6.82375 30.9487 6.77208 30.9719C6.79557 30.995 6.81905 31.0205 6.84253 31.0436C6.89185 31.0135 6.93647 30.9765 6.97169 30.9302C7.00222 30.8863 7.0257 30.8377 7.03744 30.7867C7.06328 30.8724 7.08676 30.9557 7.10789 31.0344C7.13842 31.1478 7.16191 31.2519 7.18069 31.3468C7.86171 31.9022 8.68128 32.2702 9.59948 32.4993C11.201 32.8974 12.8402 32.8905 14.4934 32.6729C15.5337 32.5364 16.5482 32.3003 17.5369 31.9578C17.6026 31.9346 17.666 31.9115 17.7294 31.8884C16.52 31.3144 15.5948 30.5414 14.9138 29.5278L14.9161 29.5231ZM8.43236 28.8983C8.47697 29.007 8.21866 29.2269 7.77013 29.4838C7.69968 29.5254 7.62218 29.5671 7.54234 29.6088C7.56817 29.5648 7.58696 29.5139 7.594 29.4606C7.59635 29.4421 7.5987 29.4236 7.5987 29.4051C7.5987 29.2686 7.5306 29.1505 7.42492 29.0765C7.38265 29.0464 7.33099 29.0232 7.27932 29.0117C7.36621 28.9862 7.45075 28.9631 7.5306 28.9422C7.82179 28.8682 8.05897 28.8288 8.21866 28.8288C8.33607 28.8288 8.41122 28.852 8.43001 28.8983H8.43236ZM6.92238 29.2477C6.97639 29.1575 7.07737 29.0996 7.19009 29.0996C7.25584 29.0996 7.31455 29.1204 7.36621 29.1528C7.4484 29.2084 7.50241 29.301 7.50241 29.4074C7.50241 29.4236 7.50241 29.4375 7.50007 29.4514C7.47893 29.5995 7.34742 29.7129 7.19243 29.7129C7.1666 29.7129 7.14077 29.7106 7.11494 29.7036C7.1032 29.6643 7.08206 29.6296 7.05153 29.5972C7.01161 29.5578 6.95995 29.5324 6.90594 29.5254C6.90359 29.5185 6.90124 29.5116 6.89889 29.5046C6.93177 29.463 6.95056 29.4097 6.95056 29.3519C6.95056 29.3125 6.94116 29.2778 6.92707 29.2454L6.92238 29.2477ZM7.92042 28.1415C7.99791 28.2178 7.87345 28.4794 7.61044 28.8381C7.44605 28.8774 7.26288 28.9283 7.06328 28.9908C7.12903 28.7918 7.18304 28.6067 7.22531 28.44C7.58461 28.1854 7.84527 28.0651 7.92277 28.1415H7.92042ZM7.13842 27.637C7.13842 27.637 7.15721 27.637 7.1666 27.6416C7.27697 27.6879 7.25114 28.0234 7.11964 28.5164C7.09615 28.602 7.07032 28.6923 7.04214 28.7849C7.0304 28.727 7.00692 28.6738 6.97404 28.6275C6.89889 28.5257 6.77678 28.4562 6.64058 28.4562C6.62179 28.4562 6.603 28.4562 6.58422 28.4609C6.5349 28.4678 6.48793 28.484 6.44566 28.5048C6.48559 28.4331 6.52551 28.3637 6.56308 28.2989C6.80966 27.8869 7.02101 27.6346 7.13842 27.6346V27.637ZM5.98304 28.16C6.05349 27.7295 6.15212 27.4634 6.26249 27.4634C6.37287 27.4634 6.4715 27.7342 6.54195 28.1716C6.45271 28.3151 6.35878 28.4794 6.26484 28.6599C6.16856 28.4747 6.07463 28.3058 5.98304 28.1577V28.16ZM6.43157 29.2084C6.43157 29.2084 6.42688 29.2292 6.42218 29.2385C6.38461 29.2269 6.34469 29.2199 6.30242 29.2176C6.28833 29.2176 6.27424 29.2176 6.26015 29.2176C6.24606 29.2176 6.23197 29.2176 6.21788 29.2176C6.17795 29.2199 6.13803 29.2269 6.09811 29.2385C6.09341 29.2292 6.09106 29.2199 6.08872 29.2084C6.08872 29.1991 6.08637 29.1875 6.08637 29.176C6.08637 29.1667 6.08637 29.1598 6.08637 29.1505C6.09106 29.1135 6.1075 29.0811 6.13568 29.0556C6.15682 29.0348 6.1803 29.0209 6.20613 29.014C6.20848 29.014 6.21318 29.014 6.21553 29.0117C6.22727 29.0093 6.23901 29.007 6.2531 29.007C6.2531 29.007 6.25545 29.007 6.2578 29.007C6.26015 29.007 6.26015 29.007 6.26249 29.007C6.27424 29.007 6.28833 29.007 6.30007 29.0117C6.30242 29.0117 6.30711 29.0117 6.30946 29.014C6.33529 29.0209 6.35878 29.0371 6.37991 29.0556C6.40574 29.0811 6.42218 29.1158 6.42923 29.1505C6.42923 29.1598 6.42923 29.1667 6.42923 29.176C6.42923 29.1875 6.42923 29.1968 6.42688 29.2084H6.43157ZM6.51611 29.1436C6.50907 29.088 6.48324 29.0394 6.44332 29.0001C6.41279 28.97 6.37521 28.9492 6.33529 28.9376C6.32825 28.9145 6.3259 28.889 6.3259 28.8635C6.3259 28.7085 6.44097 28.5812 6.59126 28.5604C6.60535 28.5604 6.62179 28.5581 6.63588 28.5581C6.7439 28.5581 6.83784 28.6113 6.8942 28.6923C6.92942 28.7409 6.94821 28.8011 6.94821 28.8659C6.94821 28.9769 6.88715 29.0765 6.79791 29.1297C6.76504 29.1135 6.72746 29.1065 6.68989 29.1065C6.63118 29.1065 6.57952 29.1251 6.5349 29.1575C6.52786 29.1551 6.52081 29.1528 6.51377 29.1505L6.51611 29.1436ZM6.69224 29.4097C6.67345 29.3889 6.65467 29.3704 6.63353 29.3519C6.603 29.3264 6.57013 29.3033 6.5349 29.2848C6.5396 29.2755 6.54429 29.2639 6.55134 29.257C6.56308 29.2408 6.57717 29.2269 6.59361 29.2153C6.62179 29.1968 6.65467 29.1852 6.69224 29.1852C6.71572 29.1852 6.73921 29.1899 6.76034 29.1991C6.76739 29.2014 6.77443 29.2061 6.78148 29.2107C6.79087 29.2176 6.80026 29.2246 6.80966 29.2315C6.812 29.2338 6.8167 29.2361 6.81905 29.2408C6.82609 29.25 6.83549 29.2593 6.84018 29.2686C6.84488 29.2755 6.84723 29.2824 6.85193 29.2894C6.86132 29.3102 6.86602 29.3334 6.86602 29.3565C6.86602 29.3935 6.85427 29.4259 6.83549 29.4537C6.82375 29.4699 6.80966 29.4838 6.79322 29.4954C6.78382 29.5023 6.77443 29.5069 6.76269 29.5116C6.7439 29.4768 6.72042 29.4444 6.69459 29.4144L6.69224 29.4097ZM6.84958 30.2637C6.84958 30.2637 6.84253 30.2776 6.83784 30.2845C6.83079 30.2938 6.82375 30.3031 6.8167 30.3123C6.81435 30.3146 6.812 30.3193 6.80731 30.3216C6.79791 30.3285 6.78852 30.3378 6.77913 30.3424C6.77208 30.347 6.76504 30.3493 6.75799 30.354C6.73686 30.3632 6.71337 30.3679 6.68989 30.3679C6.65232 30.3679 6.61944 30.3563 6.59126 30.3378C6.57482 30.3262 6.56073 30.3123 6.54899 30.2961C6.54195 30.2869 6.53725 30.2776 6.53255 30.266C6.56778 30.2475 6.60065 30.2244 6.63118 30.1989C6.65232 30.1804 6.6711 30.1619 6.68989 30.141C6.71572 30.111 6.73921 30.0786 6.75799 30.0438C6.76739 30.0485 6.77913 30.0531 6.78852 30.06C6.80496 30.0716 6.81905 30.0855 6.83079 30.1017C6.84958 30.1295 6.86132 30.1619 6.86132 30.1989C6.86132 30.222 6.85662 30.2452 6.84723 30.266L6.84958 30.2637ZM6.86836 29.9443C6.86836 29.9443 6.84723 29.9443 6.83549 29.942C6.82609 29.942 6.81435 29.9374 6.80496 29.9328C6.8167 29.8957 6.82375 29.8564 6.82609 29.8147C6.82609 29.8008 6.82609 29.787 6.82609 29.7731C6.82609 29.7592 6.82609 29.7453 6.82609 29.7314C6.82375 29.6921 6.8167 29.6527 6.80496 29.6134C6.81435 29.6088 6.82375 29.6064 6.83549 29.6041C6.84488 29.6041 6.85662 29.6018 6.86836 29.6018C6.87776 29.6018 6.8848 29.6018 6.8942 29.6018C6.93177 29.6064 6.96465 29.6226 6.99048 29.6504C7.01161 29.6712 7.0257 29.6944 7.03275 29.7198C7.03275 29.7222 7.03275 29.7268 7.0351 29.7291C7.03744 29.7407 7.03979 29.7522 7.03979 29.7661C7.03979 29.7684 7.03979 29.7731 7.03979 29.7754C7.03979 29.787 7.03979 29.8008 7.0351 29.8124C7.0351 29.8147 7.0351 29.8194 7.03275 29.8217C7.0257 29.8471 7.01161 29.8703 6.99048 29.8911C6.96465 29.9166 6.92942 29.9328 6.8942 29.9397C6.8848 29.9397 6.87776 29.9397 6.86836 29.9397V29.9443ZM6.92238 30.3031C6.93881 30.2707 6.94586 30.2336 6.94586 30.1966C6.94586 30.1387 6.92707 30.0878 6.8942 30.0438C6.89654 30.0369 6.89889 30.03 6.90124 30.023C6.9576 30.0161 7.00692 29.9906 7.04684 29.9513C7.07737 29.9212 7.0985 29.8842 7.11024 29.8448C7.13373 29.8379 7.15956 29.8356 7.18774 29.8356C7.34508 29.8356 7.47424 29.949 7.49537 30.0971C7.49537 30.111 7.49772 30.1272 7.49772 30.1434C7.49772 30.2498 7.44371 30.3424 7.36151 30.3979C7.3122 30.4327 7.25114 30.4512 7.18539 30.4512C7.07267 30.4512 6.97169 30.391 6.91768 30.3031H6.92238ZM7.92042 31.4093C7.84292 31.4857 7.57756 31.363 7.21357 31.1038C7.17365 30.9395 7.12198 30.759 7.05858 30.5646C7.26054 30.6294 7.4484 30.6826 7.61748 30.7219C7.8758 31.076 7.99791 31.3329 7.92042 31.4093ZM8.42766 30.6641C8.40887 30.7104 8.33607 30.7312 8.22101 30.7312C8.06367 30.7312 7.82883 30.6919 7.53999 30.6155C7.4531 30.5923 7.36151 30.5669 7.26758 30.5391C7.32629 30.5275 7.3803 30.5044 7.42727 30.472C7.5306 30.3979 7.60105 30.2776 7.60105 30.1434C7.60105 30.1248 7.60105 30.1063 7.59635 30.0878C7.5893 30.0392 7.57287 29.9929 7.55173 29.9513C7.62453 29.9906 7.69498 30.03 7.76073 30.067C8.21161 30.3285 8.47697 30.553 8.43001 30.6618L8.42766 30.6641ZM7.88989 30.0508C7.74429 29.9628 7.57756 29.8703 7.39204 29.7777C7.58226 29.6828 7.75369 29.5902 7.90163 29.5C8.33842 29.5694 8.60848 29.6666 8.60848 29.7754C8.60848 29.8842 8.33373 29.9814 7.88989 30.0508Z" fill="white"/>
<path d="M28.1396 25.2906C28.2946 25.3461 28.459 25.4063 28.6257 25.4688C28.7008 25.4966 28.7783 25.5267 28.8558 25.5568L27.3834 24.5801C27.3646 24.7699 27.6793 25.0661 28.1396 25.2906Z" fill="white"/>
<path d="M28.7636 25.2622C28.6298 25.1234 28.503 24.9891 28.3809 24.8595C28.0192 24.554 27.6505 24.392 27.4767 24.4591L28.9045 25.4057C28.8576 25.3571 28.8106 25.3085 28.7636 25.2622Z" fill="white"/>
<path d="M28.947 25.0817C29.001 25.1303 29.0527 25.1812 29.1067 25.2321L28.1368 23.8018C28.057 23.9708 28.2214 24.3411 28.5384 24.7044C28.6699 24.8248 28.8061 24.9498 28.947 25.0817Z" fill="white"/>
<path d="M28.6262 26.6718C28.4571 26.7366 28.2903 26.7968 28.133 26.8546C27.6821 27.0745 27.3698 27.3661 27.3839 27.5559L28.8469 26.5885C28.7718 26.6163 28.699 26.644 28.6262 26.6718Z" fill="white"/>
<path d="M28.5266 26.4361C28.5923 26.4083 28.6581 26.3782 28.7238 26.3504L27.0166 26.6837C27.1387 26.8202 27.5379 26.8156 27.9912 26.6744C28.1602 26.5981 28.3387 26.5171 28.5266 26.4361Z" fill="white"/>
<path d="M28.4798 26.1999C28.2779 26.1953 28.0829 26.1883 27.8998 26.1814C27.4278 26.2207 27.0567 26.3642 26.991 26.5355L28.6865 26.2045C28.616 26.2045 28.5479 26.2022 28.4798 26.1999Z" fill="white"/>
<path d="M28.4775 25.9452C28.5479 25.9452 28.6207 25.9406 28.6935 25.9406L26.9886 25.6096C27.0591 25.7855 27.4513 25.9313 27.9421 25.9637C28.1135 25.9568 28.292 25.9499 28.4775 25.9452Z" fill="white"/>
<path d="M28.5266 25.7046C28.3387 25.6236 28.1579 25.5426 27.9865 25.4639C27.9865 25.4639 27.9841 25.4639 27.9818 25.4639C27.5309 25.3251 27.1364 25.3228 27.0166 25.4593L28.7262 25.7903C28.6604 25.7625 28.5923 25.7324 28.5289 25.7046H28.5266Z" fill="white"/>
<path d="M29.1536 24.9455C29.0832 24.7649 29.0174 24.5914 28.954 24.4247C28.7356 24.0035 28.4538 23.7142 28.2659 23.7189L29.2311 25.1445C29.2053 25.0774 29.1794 25.0126 29.1536 24.9455Z" fill="white"/>
<path d="M30.9103 25.4686C31.0794 25.4038 31.2438 25.3436 31.4035 25.2857C31.8567 25.0659 32.1667 24.7743 32.1526 24.5845L30.6896 25.5519C30.7647 25.5241 30.8375 25.494 30.9103 25.4686Z" fill="white"/>
<path d="M30.7717 25.2622C30.7247 25.3108 30.6778 25.3594 30.6308 25.408L32.0633 24.4615C31.8942 24.3897 31.5302 24.5448 31.1686 24.8457C31.0418 24.9799 30.9103 25.1187 30.7694 25.2622H30.7717Z" fill="white"/>
<path d="M30.5908 25.0844C30.7223 24.9617 30.8515 24.8437 30.9736 24.7326C31.3024 24.3646 31.4761 23.9828 31.401 23.8092L30.4288 25.2371C30.4828 25.1862 30.5368 25.1353 30.5908 25.0867V25.0844Z" fill="white"/>
<path d="M31.0091 25.7045C30.9433 25.7323 30.8776 25.7624 30.8094 25.7902L32.519 25.4569C32.3946 25.3203 31.993 25.325 31.5398 25.4685C31.3707 25.5448 31.1946 25.6235 31.0091 25.7045Z" fill="white"/>
<path d="M29.3934 24.8486C29.4216 24.9088 29.4498 24.9713 29.478 25.0361L29.1375 23.3698C29.0059 23.504 29.0177 23.9044 29.168 24.3556C29.2408 24.513 29.3183 24.6773 29.3958 24.8486H29.3934Z" fill="white"/>
<path d="M29.6398 24.7998C29.6445 24.6123 29.6516 24.4295 29.6586 24.2559C29.621 23.7653 29.4684 23.3788 29.2852 23.3279L29.6351 25.0335C29.6351 24.9548 29.6375 24.8761 29.6398 24.7998Z" fill="white"/>
<path d="M30.3098 25.1402L31.2749 23.7192C31.0918 23.7076 30.8194 23.9807 30.601 24.388C30.601 24.3926 30.5986 24.3973 30.5963 24.3996C30.5305 24.5732 30.4601 24.7583 30.3849 24.9458C30.3591 25.0106 30.3356 25.073 30.3074 25.1378L30.3098 25.1402Z" fill="white"/>
<path d="M30.1473 24.8481C30.2154 24.6954 30.2835 24.5496 30.3516 24.4084C30.53 23.9131 30.5394 23.4641 30.3798 23.3484L30.0392 25.0888C30.0745 25.0078 30.112 24.9268 30.1473 24.8481Z" fill="white"/>
<path d="M29.9025 24.9851L30.2242 23.3396C30.0552 23.4206 29.9166 23.7886 29.879 24.2468C29.8861 24.4227 29.8931 24.6078 29.8978 24.7999C29.8978 24.8601 29.9002 24.9226 29.9025 24.9851Z" fill="white"/>
<path d="M30.7717 26.8805C30.9056 27.017 31.0324 27.1512 31.1521 27.2808C31.5161 27.5886 31.8848 27.7506 32.0609 27.6835L30.6308 26.737C30.6778 26.7856 30.7247 26.8342 30.7717 26.8828V26.8805Z" fill="white"/>
<path d="M31.0091 26.4361C31.1969 26.5171 31.3777 26.5981 31.5492 26.6768C32.0024 26.8179 32.3993 26.8202 32.519 26.6814L30.8094 26.3504C30.8776 26.3782 30.9433 26.4083 31.0091 26.4361Z" fill="white"/>
<path d="M31.3916 26.8479C31.2366 26.7924 31.0769 26.7322 30.9125 26.672C30.835 26.6443 30.7599 26.6142 30.6801 26.5841L32.1525 27.5607C32.1712 27.371 31.8542 27.0701 31.3893 26.8479H31.3916Z" fill="white"/>
<path d="M30.5885 27.0586C30.5344 27.01 30.4828 26.9591 30.4288 26.9082L31.3986 28.3385C31.4785 28.1695 31.3117 27.7946 30.9924 27.4289C30.8632 27.3109 30.7294 27.1882 30.5908 27.0586H30.5885Z" fill="white"/>
<path d="M30.382 27.1947C30.4525 27.3729 30.5182 27.5488 30.5816 27.7131C30.8 28.1366 31.0842 28.4282 31.272 28.4213L30.3045 26.9956C30.3303 27.0628 30.3585 27.1299 30.382 27.1947Z" fill="white"/>
<path d="M31.0587 26.1955C30.9859 26.1955 30.9131 26.2001 30.8403 26.2001L32.5476 26.5311C32.4771 26.3552 32.0826 26.2094 31.5895 26.177C31.4204 26.1839 31.2419 26.1909 31.0587 26.1955Z" fill="white"/>
<path d="M28.7639 26.8783C28.8085 26.8297 28.8555 26.7834 28.9024 26.7348L27.4723 27.6813C27.6414 27.7531 28.003 27.598 28.3623 27.2995C28.4891 27.1652 28.623 27.0241 28.7639 26.8783Z" fill="white"/>
<path d="M32.5477 25.6053L30.8499 25.9362C30.9203 25.9362 30.9884 25.9385 31.0565 25.9408C31.2561 25.9455 31.4487 25.9524 31.6342 25.9593C32.1086 25.9223 32.4796 25.7765 32.5477 25.6053Z" fill="white"/>
<path d="M29.2266 27.0031L28.2615 28.4218C28.4423 28.4334 28.7171 28.1603 28.9354 27.7553C28.9354 27.7506 28.9401 27.746 28.9401 27.7391C29.0059 27.5655 29.0763 27.3803 29.1515 27.1929C29.175 27.1304 29.2008 27.0656 29.2266 27.0008V27.0031Z" fill="white"/>
<path d="M28.9453 27.0586C28.8138 27.1813 28.6846 27.2993 28.5602 27.4127C28.2314 27.7807 28.0576 28.1602 28.1351 28.3361L29.105 26.9082C29.051 26.9591 28.997 27.01 28.9453 27.0586Z" fill="white"/>
<path d="M29.3893 27.2921C29.3189 27.4471 29.2484 27.5952 29.1826 27.7387C29.0065 28.2317 28.9971 28.676 29.1568 28.7917L29.4973 27.0537C29.4621 27.1347 29.4245 27.2134 29.3893 27.2921Z" fill="white"/>
<path d="M29.9479 26.5679C29.9644 26.561 29.9808 26.554 29.9972 26.5471C30.009 26.5425 30.0184 26.5355 30.0301 26.5309C30.0536 26.517 30.0747 26.5031 30.0959 26.4869C30.1053 26.48 30.1147 26.4707 30.1241 26.4638C30.1381 26.4522 30.1499 26.4383 30.1616 26.4267C30.171 26.4175 30.1781 26.4059 30.1875 26.3967C30.2039 26.3758 30.218 26.355 30.2321 26.3319C30.2368 26.3226 30.2438 26.311 30.2485 26.3018C30.2579 26.2856 30.265 26.267 30.272 26.2485C30.2767 26.237 30.279 26.2254 30.2837 26.2138C30.2908 26.1884 30.2955 26.1629 30.3002 26.1374C30.3002 26.1259 30.3025 26.1143 30.3025 26.1004C30.3025 26.0912 30.3025 26.0819 30.3025 26.075C30.3025 26.068 30.3025 26.0564 30.3025 26.0472C30.3025 26.0356 30.3025 26.024 30.3002 26.0102C30.2978 25.9824 30.2908 25.9569 30.2837 25.9315C30.2814 25.9199 30.2767 25.9083 30.272 25.8968C30.265 25.8782 30.2579 25.862 30.2509 25.8435C30.2462 25.832 30.2391 25.8227 30.2344 25.8134C30.2203 25.7903 30.2063 25.7695 30.1898 25.7486C30.1828 25.7394 30.1734 25.7278 30.164 25.7186C30.1522 25.7047 30.1381 25.6931 30.1264 25.6815C30.117 25.6746 30.1076 25.6653 30.0982 25.6584C30.0771 25.6422 30.056 25.6283 30.0325 25.6144C30.0207 25.6075 30.0113 25.6028 29.9996 25.5982C29.9808 25.589 29.962 25.582 29.9432 25.5751C29.9315 25.5704 29.9221 25.5681 29.9104 25.5658C29.8845 25.5589 29.861 25.5542 29.8352 25.5496C29.8211 25.5496 29.807 25.5473 29.7929 25.545C29.7859 25.545 29.7765 25.545 29.7671 25.545C29.7577 25.545 29.7483 25.545 29.7366 25.545C29.7248 25.545 29.7131 25.545 29.7014 25.5473C29.6755 25.5496 29.6497 25.5566 29.6239 25.5635C29.6121 25.5658 29.598 25.5704 29.5863 25.5751C29.5699 25.582 29.5534 25.589 29.537 25.5959C29.5252 25.6005 29.5158 25.6075 29.5041 25.6121C29.4806 25.626 29.4595 25.6399 29.4383 25.6561C29.4289 25.663 29.4196 25.6723 29.4102 25.6792C29.3961 25.6908 29.3843 25.7047 29.3726 25.7162C29.3632 25.7255 29.3562 25.7371 29.3468 25.7463C29.3303 25.7672 29.3162 25.788 29.3021 25.8111C29.2974 25.8204 29.2904 25.832 29.2857 25.8412C29.2763 25.8574 29.2693 25.8759 29.2622 25.8944C29.2575 25.906 29.2552 25.9176 29.2505 25.9292C29.2434 25.9546 29.2387 25.9801 29.234 26.0078C29.234 26.0194 29.2317 26.031 29.2317 26.0449C29.2317 26.0541 29.2317 26.0634 29.2317 26.0703C29.2317 26.0773 29.2317 26.0888 29.2317 26.0981C29.2317 26.1097 29.2317 26.1212 29.234 26.1351C29.2364 26.1629 29.2434 26.1884 29.2505 26.2138C29.2528 26.2254 29.2575 26.237 29.2622 26.2485C29.2693 26.267 29.2763 26.2833 29.2834 26.3018C29.288 26.3133 29.2951 26.3226 29.2998 26.3319C29.3139 26.355 29.328 26.3758 29.3444 26.3967C29.3515 26.4059 29.3608 26.4175 29.3702 26.4267C29.382 26.4406 29.3961 26.4522 29.4078 26.4638C29.4172 26.4707 29.4266 26.48 29.436 26.4869C29.4571 26.5031 29.4806 26.5193 29.5041 26.5309C29.5158 26.5378 29.5252 26.5425 29.537 26.5471C29.5558 26.5563 29.5745 26.5633 29.5933 26.5702C29.6027 26.5749 29.6145 26.5772 29.6262 26.5795C29.652 26.5864 29.6755 26.5911 29.7037 26.5957C29.7178 26.5957 29.7319 26.598 29.746 26.6003C29.753 26.6003 29.7624 26.6003 29.7718 26.6003C29.7812 26.6003 29.7906 26.6003 29.8023 26.6003C29.8141 26.6003 29.8258 26.6003 29.8376 26.598C29.8634 26.5957 29.8892 26.5887 29.9151 26.5818C29.9268 26.5795 29.9409 26.5749 29.9526 26.5702L29.9479 26.5679Z" fill="white"/>
<path d="M29.8957 27.3411C29.891 27.5308 29.8839 27.7137 29.8769 27.8873C29.9145 28.3779 30.0695 28.7621 30.2503 28.813L29.9004 27.1073C29.9004 27.186 29.898 27.2624 29.8957 27.3388V27.3411Z" fill="white"/>
<path d="M30.1429 27.2926C30.1147 27.2301 30.0865 27.1676 30.0583 27.1051L30.4012 28.7714C30.5327 28.6349 30.521 28.2322 30.3683 27.7786C30.2955 27.6235 30.2204 27.4615 30.1452 27.2926H30.1429Z" fill="white"/>
<path d="M29.6327 27.1581L29.311 28.8035C29.4801 28.7225 29.6186 28.3569 29.6562 27.8986C29.6491 27.7204 29.6421 27.5353 29.6374 27.3432C29.6374 27.283 29.635 27.2205 29.6327 27.1604V27.1581Z" fill="white"/>
<path d="M29.0108 11.4924C28.2875 10.6292 27.3012 10.0483 26.174 9.62708C26.0495 9.58079 25.9697 9.51599 25.9039 9.41648C25.5305 8.84715 25.082 8.33569 24.4527 7.9492C24.2319 7.81265 24.1192 7.61362 24.1004 7.37988C24.0769 7.08596 24.0581 6.79204 24.0323 6.49812C23.99 5.98434 23.5532 5.66728 22.9474 5.70662C22.6867 5.72514 22.4237 5.74365 22.163 5.76448C21.5806 5.81308 21.1932 6.19494 21.226 6.69252C21.2448 6.98644 21.273 7.28036 21.2941 7.57428C21.3106 7.80803 21.2378 8.02326 21.0382 8.1922C20.4581 8.68052 20.0894 9.27299 19.7889 9.9048C19.7536 9.97654 19.6785 10.0483 19.601 10.0923C19.345 10.2334 19.1008 10.3862 18.8636 10.5482C18.9223 10.731 18.9388 10.8791 18.9176 11.1568C18.7626 11.3096 18.6241 11.4855 18.502 11.6475C18.4996 11.416 18.4597 11.1684 18.3963 10.9393C18.4151 10.9069 18.4339 10.8768 18.455 10.8467C18.401 10.8884 18.3446 10.93 18.2906 10.974C18.3493 11.1939 18.3846 11.4276 18.3846 11.6359C18.3846 12.0317 18.2577 12.4552 18.0699 12.4552C18.0699 12.4552 18.0699 12.4552 18.0675 12.4552C18.0652 12.4552 18.0675 12.4552 18.0652 12.4552C17.8773 12.4552 17.7505 12.0317 17.7505 11.6359C17.7505 11.5827 17.7529 11.5271 17.7575 11.4693C17.7153 11.5133 17.6754 11.5549 17.6354 11.5989C17.6354 11.6151 17.6354 11.6313 17.6331 11.6475C17.626 11.6405 17.619 11.6313 17.6143 11.622C17.5908 11.6498 17.5673 11.6753 17.5439 11.703C17.5532 11.7146 17.5603 11.7262 17.5697 11.7377C17.7364 11.9622 17.8773 12.4344 17.7247 12.5478C17.7012 12.5686 17.6707 12.5802 17.6331 12.5802C17.5039 12.5802 17.3114 12.4459 17.1329 12.2423C17.1141 12.2723 17.0977 12.3024 17.0789 12.3302C17.3184 12.4598 17.5697 12.7028 17.5227 12.8579C17.4945 12.9389 17.3654 12.9875 17.1752 12.9875C17.0507 12.9875 16.9121 12.9666 16.7759 12.9296C16.7501 12.9944 16.729 13.0592 16.7055 13.124C16.8605 13.0731 17.0272 13.043 17.1728 13.043C17.363 13.043 17.4922 13.0916 17.5204 13.1726C17.5791 13.3647 17.1799 13.691 16.9145 13.772C16.7947 13.8114 16.675 13.8415 16.5575 13.8669C16.5552 13.9039 16.5505 13.9387 16.5482 13.9734C16.6632 13.9502 16.7783 13.9225 16.891 13.8877C16.7595 14.0521 16.6585 14.258 16.5857 14.471C16.581 14.471 16.5763 14.4756 16.5693 14.4779C16.581 14.5774 16.5975 14.6792 16.6186 14.7811C16.6938 14.4848 16.8206 14.1747 16.992 13.9687C17.201 13.6679 17.4687 13.4527 17.6331 13.4527C17.6707 13.4527 17.6988 13.4619 17.7247 13.4851C17.8773 13.5985 17.7364 14.0706 17.5697 14.2951C17.3348 14.6168 17.0343 14.9801 16.7125 15.1305C16.7337 15.2 16.7572 15.2717 16.783 15.3411C17.0577 16.0863 17.4382 16.783 18.0675 17.3615C18.2883 17.5652 18.5231 17.6809 18.8754 17.7041C20.3994 17.8036 21.9212 17.8406 23.4804 17.7156C24.9646 17.6207 26.4487 17.3592 27.9305 17.0699C28.3274 16.9936 28.5716 16.82 28.783 16.5538C29.2973 15.9081 29.5603 15.1861 29.7223 14.4339C29.9525 13.367 29.7505 12.3788 29.0131 11.4994L29.0108 11.4924ZM20.1505 11.4207C20.0824 11.6081 19.9814 11.8187 19.8499 12.0131C19.648 12.034 19.4437 12.0779 19.244 12.1404C19.3756 11.9761 19.4765 11.7701 19.5493 11.5572C19.7513 11.4739 19.9556 11.4207 20.1482 11.4207H20.1505ZM20.4981 12.1404C20.3055 12.4089 19.9415 12.7514 19.5047 12.8787C19.3286 12.9458 19.1313 12.9828 18.9646 12.9828C18.7744 12.9828 18.6452 12.9342 18.617 12.8532C18.5583 12.6612 18.9575 12.3348 19.2229 12.2538C19.5376 12.152 19.8476 12.0965 20.12 12.0965C20.2562 12.0965 20.383 12.1103 20.4981 12.1358V12.1404ZM18.5677 11.7377C18.8425 11.3628 19.2065 10.9277 19.5893 10.8444C19.5587 11.2263 19.399 11.7563 19.1454 12.0617C18.9364 12.3626 18.6687 12.5778 18.5043 12.5778C18.4667 12.5778 18.4386 12.5686 18.4127 12.5454C18.2601 12.432 18.401 11.9599 18.5677 11.7354V11.7377ZM17.6777 13.0129C17.6777 12.8 17.8538 12.6288 18.0675 12.6288C18.2812 12.6288 18.4574 12.8023 18.4574 13.0129C18.4574 13.2235 18.2812 13.3971 18.0675 13.3971C17.8538 13.3971 17.6777 13.2235 17.6777 13.0129ZM17.2949 15.5471C17.2174 15.3319 17.1963 15.1838 17.2174 14.869C17.3724 14.7163 17.511 14.5404 17.6331 14.3784C17.6354 14.6098 17.6754 14.8574 17.7388 15.0866C17.6237 15.2925 17.4781 15.4661 17.2949 15.5471ZM18.0699 15.6119C17.8844 15.3064 17.7529 14.8019 17.7529 14.3923C17.7529 13.9826 17.8797 13.573 18.0675 13.573C18.0675 13.573 18.0675 13.573 18.0699 13.573C18.0722 13.573 18.0699 13.573 18.0722 13.573C18.2601 13.573 18.3869 13.9965 18.3869 14.3923C18.3869 14.788 18.2554 15.3064 18.0699 15.6119ZM18.8448 15.5471C18.6617 15.4661 18.5161 15.2925 18.401 15.0866C18.4644 14.8574 18.5043 14.6098 18.5067 14.3784C18.6288 14.5404 18.7673 14.714 18.9223 14.869C18.9435 15.1814 18.9223 15.3319 18.8448 15.5471ZM18.5701 14.2904C18.4033 14.0659 18.2624 13.5938 18.4151 13.4804C18.4386 13.4596 18.4691 13.448 18.5067 13.448C18.6687 13.448 18.9388 13.6633 19.1478 13.9641C19.4014 14.2719 19.5611 14.7996 19.5916 15.1814C19.2088 15.0981 18.8472 14.663 18.5701 14.2881V14.2904ZM19.5517 14.471C19.4765 14.258 19.3779 14.0521 19.2464 13.8877C19.4437 13.9479 19.6503 13.9919 19.8523 14.015C19.9838 14.2094 20.0848 14.42 20.1529 14.6075C19.9579 14.6075 19.756 14.5543 19.554 14.471H19.5517ZM20.12 13.9271C19.8452 13.9271 19.5352 13.8739 19.2229 13.7697C18.9575 13.6887 18.5583 13.3624 18.617 13.1703C18.6452 13.0893 18.7744 13.0407 18.9646 13.0407C19.1337 13.0407 19.3309 13.0777 19.5047 13.1448C19.9415 13.2744 20.3055 13.6147 20.4981 13.8831C20.383 13.9086 20.2562 13.9225 20.12 13.9225V13.9271ZM20.0894 13.3115C19.9509 13.1934 19.5212 13.0152 19.5212 13.0152C19.5212 13.0152 19.9298 12.8579 20.0894 12.719C20.3172 12.7769 20.5215 12.8694 20.6624 13.0152C20.5215 13.161 20.3172 13.2536 20.0894 13.3115Z" fill="white"/>
<path fill-rule="evenodd" clip-rule="evenodd" d="M32.2917 20.1754C33.1066 21.1474 33.5903 22.2698 33.8134 23.5057L33.8111 23.501C34.006 24.5888 34.0506 25.6788 33.8134 26.7642C33.4565 28.3958 32.5101 29.634 31.1387 30.5759C30.1384 31.2635 29.0371 31.72 27.8791 32.0529C27.8745 31.9773 27.8662 31.901 27.8537 31.8239C27.8015 31.4982 27.7291 31.1757 27.6544 30.8429C27.6181 30.6814 27.5813 30.5175 27.546 30.3497C27.7104 30.2456 27.8067 30.0789 27.7363 29.8452C27.6682 29.6253 27.5155 29.5212 27.283 29.5304C27.1398 29.5374 27.128 29.4564 27.1398 29.3453C27.1578 29.1708 27.1742 28.9964 27.1905 28.8219C27.2151 28.559 27.2397 28.2962 27.2702 28.0333C27.4389 28.0367 27.6556 27.9616 27.8862 27.8242C27.8181 27.8959 27.7571 27.9654 27.7007 28.0302C27.6795 28.0545 27.6588 28.0781 27.6388 28.101C27.5769 28.1717 27.5214 28.2352 27.4753 28.2894C27.4248 28.3465 27.3847 28.3948 27.3539 28.432C27.346 28.4415 27.3387 28.4503 27.332 28.4583C27.2992 28.4977 27.2827 28.5185 27.2827 28.5185C27.2827 28.5185 27.3039 28.5023 27.3438 28.4699C27.355 28.4608 27.368 28.4503 27.3824 28.4387C27.419 28.4092 27.4653 28.3719 27.5175 28.3287C27.5819 28.2772 27.6566 28.2137 27.7402 28.1428C27.7542 28.1309 27.7684 28.1188 27.7829 28.1065C27.823 28.071 27.8661 28.034 27.9109 27.9955C27.9449 27.9662 27.9799 27.9361 28.0154 27.9052C27.7641 28.3009 27.7031 28.6597 27.9168 28.8055C28.1258 28.9397 28.4287 28.7638 28.6988 28.4074C28.6858 28.4447 28.6729 28.4812 28.6603 28.5167C28.6432 28.5648 28.6267 28.6111 28.6119 28.655C28.5982 28.6963 28.5849 28.7357 28.5724 28.7731C28.5462 28.8509 28.5229 28.9204 28.5039 28.9813C28.4936 29.0141 28.4843 29.0444 28.4759 29.072C28.461 29.1206 28.4486 29.161 28.4381 29.192C28.4217 29.2406 28.4146 29.266 28.4146 29.266C28.4146 29.266 28.4264 29.2406 28.4522 29.1966C28.4624 29.1775 28.4753 29.154 28.4902 29.1267C28.5097 29.0912 28.5326 29.0493 28.5579 29.0022C28.5944 28.9356 28.6338 28.8592 28.6782 28.773C28.6909 28.7483 28.704 28.7229 28.7175 28.6967C28.7583 28.6165 28.8009 28.5304 28.8473 28.4369L28.8608 28.4097C28.781 28.8795 28.8631 29.2406 29.1215 29.2938C29.3727 29.3401 29.5864 29.0508 29.6945 28.6064C29.6973 28.6481 29.6998 28.6886 29.7022 28.728C29.7057 28.7848 29.7091 28.8391 29.7132 28.8911C29.7156 28.9235 29.7177 28.9549 29.7198 28.9853C29.7262 29.0786 29.732 29.162 29.7391 29.2336C29.7485 29.3285 29.7555 29.4026 29.7602 29.4535C29.7673 29.5044 29.7696 29.5322 29.7696 29.5322C29.7696 29.5322 29.7743 29.5044 29.779 29.4535C29.7805 29.4368 29.7826 29.4176 29.7849 29.396C29.7896 29.3517 29.7954 29.2974 29.8001 29.2336C29.8095 29.1387 29.8189 29.023 29.8283 28.8911C29.8325 28.838 29.8358 28.7824 29.8393 28.7245C29.8417 28.684 29.8442 28.6423 29.8471 28.5995C29.9551 29.0485 30.1665 29.3378 30.4201 29.2915C30.6737 29.2406 30.7583 28.8888 30.6831 28.4305C30.7982 28.6643 30.8992 28.8587 30.9743 29.0022C30.9995 29.0493 31.0225 29.0912 31.042 29.1267C31.0569 29.154 31.0698 29.1775 31.08 29.1966C31.1035 29.2429 31.1175 29.266 31.1175 29.266C31.1175 29.266 31.1082 29.2406 31.0941 29.192C31.08 29.1434 31.0588 29.0716 31.0283 28.9813C30.979 28.8309 30.9109 28.6249 30.8264 28.3843C31.1011 28.7545 31.4087 28.9397 31.6248 28.8008C31.8361 28.6573 31.7798 28.3033 31.5332 27.9098C31.7305 28.0811 31.8972 28.2246 32.0217 28.3264C32.0796 28.3762 32.1287 28.4157 32.1664 28.446C32.1761 28.4538 32.185 28.461 32.1931 28.4676C32.233 28.5 32.2541 28.5162 32.2541 28.5162C32.2541 28.5162 32.2377 28.4953 32.2048 28.456C32.1981 28.448 32.1909 28.4392 32.183 28.4297C32.1521 28.3925 32.1121 28.3442 32.0616 28.2871C31.9583 28.1644 31.815 28.0001 31.6412 27.808C32.0404 28.0487 32.3974 28.1042 32.543 27.8959C32.6862 27.6807 32.489 27.3683 32.0968 27.0929C32.3551 27.1808 32.5712 27.2502 32.7309 27.2988C32.8224 27.3289 32.8952 27.3498 32.9446 27.3636C32.9939 27.3775 33.0197 27.3845 33.0197 27.3845C33.0197 27.3845 32.9939 27.3706 32.9493 27.3474C32.9387 27.342 32.927 27.3358 32.914 27.3291C32.8723 27.3074 32.8183 27.2792 32.752 27.2456C32.6111 27.1739 32.4209 27.0813 32.1954 26.9725C32.6463 27.0396 32.9892 26.954 33.0408 26.7087C33.0878 26.4564 32.7896 26.2458 32.3269 26.1394C32.5923 26.1232 32.8154 26.107 32.9798 26.0931C33.0445 26.0884 33.0997 26.0827 33.1446 26.0781C33.1665 26.0758 33.1859 26.0738 33.2029 26.0723L33.2005 26.0838C33.2522 26.0769 33.2804 26.0746 33.2804 26.0746C33.2804 26.0746 33.2522 26.0699 33.2005 26.0653C33.1836 26.0638 33.1641 26.0618 33.1422 26.0595C33.0973 26.0549 33.0421 26.0491 32.9774 26.0445C32.8201 26.0306 32.6064 26.0144 32.3504 26.0005C32.7966 25.8917 33.0855 25.6858 33.0385 25.4381C32.9868 25.1905 32.6416 25.1072 32.186 25.1743C32.4138 25.0655 32.6064 24.9706 32.7473 24.8989C32.809 24.8685 32.862 24.8405 32.9035 24.8186C32.9188 24.8105 32.9325 24.8033 32.9446 24.7971C32.9915 24.7739 33.015 24.76 33.015 24.76C33.015 24.76 32.9892 24.767 32.9399 24.7809C32.9084 24.7912 32.8675 24.8034 32.8182 24.8181C32.7901 24.8264 32.7594 24.8356 32.7262 24.8457C32.5688 24.8943 32.3528 24.9637 32.0992 25.0493C32.4866 24.7762 32.6815 24.4661 32.5406 24.2509C32.3974 24.0449 32.0451 24.0981 31.653 24.3319C31.8221 24.1444 31.9606 23.9847 32.0639 23.8644C32.1144 23.8072 32.1545 23.7589 32.1853 23.7217C32.1932 23.7122 32.2005 23.7034 32.2072 23.6954C32.2401 23.6561 32.2565 23.6353 32.2565 23.6353C32.2565 23.6353 32.2354 23.6515 32.1954 23.6839C32.1842 23.693 32.1712 23.7035 32.1568 23.7151C32.1201 23.7446 32.0739 23.7819 32.0217 23.825C31.8948 23.9292 31.7234 24.0727 31.5215 24.2486C31.7727 23.8505 31.8338 23.4918 31.6201 23.346C31.4087 23.2118 31.1058 23.3876 30.8357 23.744C30.9179 23.5126 30.9837 23.3159 31.0307 23.1701C31.0409 23.1374 31.0502 23.1071 31.0586 23.0795C31.0735 23.0309 31.0859 22.9905 31.0964 22.9595C31.1129 22.9109 31.1199 22.8854 31.1199 22.8854C31.1199 22.8854 31.1082 22.9109 31.0823 22.9549C31.0721 22.974 31.0592 22.9975 31.0443 23.0247C31.0249 23.0602 31.0019 23.1022 30.9766 23.1493C30.8992 23.2951 30.7958 23.4987 30.6737 23.7417C30.7559 23.2719 30.6737 22.9086 30.4154 22.8553C30.1618 22.8091 29.9504 23.096 29.8424 23.5427C29.8283 23.2858 29.8119 23.0706 29.7978 22.9132C29.7884 22.8183 29.7813 22.7443 29.7766 22.6933C29.7696 22.6424 29.7673 22.6147 29.7673 22.6147C29.7673 22.6147 29.7626 22.6424 29.7579 22.6933C29.7563 22.71 29.7543 22.7292 29.752 22.7508C29.7473 22.7951 29.7415 22.8494 29.7367 22.9132C29.7226 23.0729 29.7062 23.2881 29.6898 23.5473C29.5817 23.0983 29.368 22.8067 29.1144 22.853C28.8631 22.9063 28.7763 23.2557 28.8514 23.714C28.8385 23.688 28.826 23.6625 28.8138 23.6376C28.7813 23.5714 28.7506 23.5089 28.7199 23.4501C28.6612 23.3321 28.6072 23.228 28.5626 23.1446C28.5373 23.0975 28.5144 23.0556 28.4949 23.0201C28.48 22.9928 28.4671 22.9693 28.4569 22.9502C28.4334 22.9039 28.4193 22.8808 28.4193 22.8808C28.4193 22.8808 28.4287 22.9063 28.4428 22.9549C28.4569 23.0035 28.478 23.0752 28.5085 23.1655C28.5367 23.2557 28.5743 23.3668 28.6166 23.4918C28.6301 23.5318 28.6448 23.5735 28.6599 23.6168C28.6764 23.6635 28.6934 23.7121 28.7105 23.7626C28.4357 23.3923 28.1258 23.2094 27.9121 23.346C27.7007 23.4895 27.7571 23.8436 28.0013 24.2347C27.9238 24.1653 27.8487 24.1004 27.7806 24.0426C27.756 24.0217 27.7321 24.0014 27.7089 23.9818C27.6371 23.9207 27.5726 23.8659 27.5175 23.8204C27.4596 23.7707 27.4105 23.7312 27.3728 23.7008C27.3632 23.693 27.3543 23.6858 27.3461 23.6792C27.3062 23.6468 27.2851 23.6306 27.2851 23.6306C27.2851 23.6306 27.3015 23.6515 27.3344 23.6908C27.3484 23.7066 27.365 23.7266 27.3844 23.75C27.4104 23.7813 27.4413 23.8186 27.4776 23.8598C27.5238 23.914 27.5794 23.9775 27.6413 24.0483C27.6613 24.0711 27.6819 24.0947 27.7031 24.119C27.7155 24.1332 27.7281 24.1477 27.741 24.1624C27.7889 24.2175 27.8401 24.2763 27.8956 24.3365C27.4964 24.0958 27.1395 24.0403 26.9939 24.2486C26.853 24.4638 27.0502 24.7739 27.4401 25.0493C27.3585 25.0214 27.2809 24.996 27.2083 24.9723C27.1848 24.9647 27.1619 24.9572 27.1395 24.9498C27.081 24.9317 27.0255 24.914 26.9737 24.8975C26.9569 24.8922 26.9405 24.887 26.9245 24.8819C26.5784 23.5428 26.0153 22.2806 25.4278 21.0276C25.3967 20.9618 25.3634 20.897 25.3299 20.8317C25.2596 20.6949 25.1883 20.5563 25.1343 20.4028C25.1802 20.4374 25.2252 20.4736 25.2702 20.5097C25.3726 20.5919 25.475 20.674 25.5875 20.7383C25.6665 20.7838 25.7452 20.8298 25.8238 20.8759C26.1618 21.0736 26.4999 21.2713 26.858 21.4234C27.3042 21.6132 27.7879 21.6294 28.2576 21.4604C28.422 21.4026 28.5112 21.4535 28.5746 21.597C28.5801 21.6093 28.5855 21.6217 28.591 21.6342C28.6091 21.6758 28.6276 21.7181 28.6474 21.759C28.7836 22.0251 28.9903 22.0922 29.258 21.9603C29.4834 21.8492 29.5586 21.6456 29.4318 21.4049C29.422 21.386 29.4122 21.3672 29.4025 21.3484C29.2271 21.011 29.0612 20.6917 29.1124 20.2685C29.1586 19.8763 28.8877 19.5591 28.6371 19.2658C28.62 19.2458 28.6031 19.226 28.5864 19.2063C28.0603 18.586 27.3558 18.2366 26.5832 18.019C26.4533 17.9825 26.3231 17.9506 26.1926 17.9231C26.3825 17.8894 26.5721 17.8533 26.7614 17.8148C26.9519 17.7762 27.1416 17.733 27.3315 17.6898C27.4951 17.6525 27.6587 17.6153 27.8228 17.581C27.898 17.5648 27.9825 17.5532 28.053 17.5741C29.7179 18.0416 31.1763 18.8423 32.2917 20.1754ZM22.9366 19.1438C23.352 19.1497 23.6608 19.3505 23.9413 19.6506C24.5096 20.257 24.9394 20.9466 25.2916 21.6918C25.8247 22.8212 26.2216 24.0015 26.548 25.2027C26.5565 25.234 26.5649 25.2653 26.5732 25.2966C26.5354 25.3353 26.5098 25.3816 26.4984 25.4358C26.4732 25.5708 26.547 25.6939 26.6916 25.7955C26.7086 25.8763 26.7245 25.9572 26.7393 26.0382C26.6736 26.0434 26.6132 26.0486 26.5594 26.0537C26.4947 26.0584 26.4396 26.0641 26.3947 26.0688C26.3727 26.071 26.3533 26.073 26.3363 26.0746C26.2847 26.0815 26.2565 26.0838 26.2565 26.0838C26.2565 26.0838 26.2847 26.0884 26.3363 26.0931C26.3533 26.0946 26.3728 26.0966 26.3947 26.0989C26.4396 26.1035 26.4947 26.1092 26.5594 26.1139C26.5952 26.1165 26.634 26.1194 26.6754 26.1225C26.701 26.1244 26.7277 26.1264 26.7553 26.1285C26.7655 26.1877 26.7751 26.247 26.784 26.3064C26.5809 26.4168 26.4703 26.5598 26.5007 26.7203C26.5323 26.8638 26.6636 26.9527 26.8579 26.9883C26.8629 27.0655 26.8667 27.1427 26.8693 27.2201C26.8419 27.2338 26.816 27.2469 26.7919 27.2595C26.7302 27.2899 26.6772 27.3179 26.6357 27.3398C26.6204 27.3478 26.6067 27.3551 26.5947 27.3613C26.5477 27.3845 26.5242 27.3984 26.5242 27.3984C26.5242 27.3984 26.55 27.3914 26.5994 27.3775C26.6308 27.3672 26.6718 27.355 26.7211 27.3403C26.7491 27.3319 26.7799 27.3228 26.813 27.3127C26.8316 27.3066 26.8511 27.3003 26.8714 27.2938C26.8823 27.7648 26.8474 28.2388 26.757 28.7158C26.7327 28.8454 26.7189 28.9783 26.7051 29.1118C26.7028 29.1333 26.7006 29.1548 26.6983 29.1764C26.6795 29.3592 26.6584 29.5189 26.4893 29.6577C26.3977 29.7318 26.3672 29.947 26.4001 30.0789C26.4329 30.2201 26.4001 30.3081 26.3484 30.4238C26.3159 30.4986 26.2824 30.5733 26.2489 30.6481C26.1228 30.9297 25.9961 31.2125 25.9163 31.5069C25.8257 31.8437 25.8521 32.1671 25.9845 32.4779C25.2833 32.5903 24.5752 32.6547 23.8612 32.6727C21.9661 32.719 20.1062 32.5037 18.3356 31.7863C17.0534 31.2679 15.9684 30.4926 15.1935 29.3378C14.6628 28.5486 14.3622 27.6761 14.2189 26.7457C14.0475 25.6325 14.0381 24.5193 14.3011 23.4177C14.7567 21.5038 15.8839 20.055 17.5301 18.9881C17.9148 18.7404 18.3279 18.5328 18.7393 18.3261C18.7699 18.3107 18.8005 18.2953 18.8311 18.2799C18.9508 18.2198 19.1082 18.2036 19.2467 18.2105C19.2562 18.211 19.2657 18.2116 19.2752 18.2121C18.7236 18.4037 18.1981 18.6599 17.7112 19.0072C17.2674 19.3243 16.9715 19.7362 16.8776 20.2894C16.7672 20.9536 17.1664 21.4488 17.8451 21.4373V21.4257C18.1809 21.4211 18.4885 21.3285 18.7656 21.1318C19.3239 20.7354 19.8865 20.3447 20.4489 19.9542C20.5059 19.9146 20.5628 19.875 20.6198 19.8355C20.5507 20.1586 20.5204 20.4912 20.5359 20.8349C20.5453 21.0548 20.6956 21.1798 20.8812 21.1265C21.0432 21.0803 21.0902 20.9599 21.0855 20.8072C21.0742 20.4997 21.1034 20.2032 21.1667 19.9162C21.1343 20.1713 21.1063 20.4286 21.1163 20.6851C21.1539 21.6432 21.5625 22.4741 22.1472 23.2216C22.3694 23.507 22.5962 23.7891 22.8229 24.0712C23.1331 24.4571 23.4433 24.843 23.7417 25.2374C24.0165 25.6007 24.2349 26.0034 24.3617 26.4431C23.8709 26.7047 23.8216 26.9986 24.1926 27.3087C24.1594 27.4082 24.1254 27.5071 24.0915 27.6058C24.0102 27.8421 23.9294 28.0771 23.8615 28.3154C23.7018 28.8824 23.7934 29.424 24.0916 29.9308C24.256 30.2109 24.4322 30.4839 24.6247 30.7455C24.6717 30.8103 24.8126 30.8635 24.883 30.8404C24.9582 30.8172 25.0615 30.683 25.0474 30.6205C24.9319 30.1288 25.1027 29.6864 25.2715 29.2491L25.2799 29.2273C25.5335 28.5769 25.5218 27.9405 25.2658 27.2994C25.2447 27.2439 25.2658 27.1374 25.3104 27.1004C25.5241 26.913 25.5828 26.7394 25.4795 26.5265C25.3856 26.3367 25.2118 26.2696 24.9441 26.3251C24.9159 26.3321 24.8877 26.3413 24.8689 26.3483C24.8102 26.2311 24.7559 26.1121 24.7018 25.9937C24.5828 25.7333 24.4652 25.4757 24.3053 25.2466C23.9034 24.6709 23.4721 24.1161 23.0413 23.5621C22.9561 23.4525 22.8709 23.3429 22.786 23.2332C22.2834 22.5875 21.8419 21.9071 21.6212 21.1156C21.4404 20.4699 21.4404 19.8288 21.8959 19.2711C21.9594 19.1947 22.0885 19.1392 22.1895 19.1322C22.2304 19.1296 22.2715 19.1289 22.3127 19.1296C22.392 19.2664 22.4606 19.409 22.5179 19.5574C22.629 19.8449 22.7057 20.1482 22.7817 20.4491C22.7877 20.4728 22.7937 20.4965 22.7997 20.5202C22.8491 20.7146 22.9594 20.8211 23.1285 20.7956C23.2882 20.7701 23.3774 20.6405 23.3469 20.4461C23.2747 19.9867 23.139 19.552 22.9366 19.1438ZM27.305 27.153C27.3058 27.1714 27.3065 27.1898 27.3071 27.2081C27.3484 27.174 27.3928 27.1401 27.4401 27.1068C27.3937 27.123 27.3487 27.1383 27.305 27.153ZM27.2975 27.0099C27.3157 27.0013 27.3342 26.9927 27.3532 26.9841C27.334 26.9869 27.3151 26.9895 27.2963 26.9918C27.2967 26.9978 27.2971 27.0039 27.2975 27.0099ZM27.1681 26.0078C27.1819 26.0069 27.1958 26.006 27.2099 26.0051C27.195 26.0017 27.1802 25.9981 27.1656 25.9944C27.1664 25.9989 27.1673 26.0033 27.1681 26.0078ZM26.991 25.1519C27.0972 25.1462 27.2162 25.153 27.3438 25.172L27.0972 25.0539C27.0452 25.0288 26.9959 25.0046 26.9498 24.9816C26.964 25.0382 26.9777 25.095 26.991 25.1519ZM23.8521 18.2944C23.8239 18.2991 23.2462 18.4541 23.1781 18.4749H23.1805C23.5633 18.6354 24.0522 19.0369 24.5894 19.478C25.9505 20.5956 27.6216 21.9678 28.6639 20.3218C28.7266 20.0989 28.597 19.8911 28.5067 19.7464C28.4855 19.7123 28.4664 19.6817 28.4525 19.6552C28.22 19.2148 27.8678 19.0508 27.4542 18.8582C27.3832 18.8252 27.3104 18.7913 27.2361 18.755C26.1605 18.2343 25.0239 18.1394 23.8521 18.2944ZM17.5468 19.6992C17.3402 19.933 17.265 20.213 17.258 20.5115L17.2556 20.5092C17.2486 20.7777 17.3895 20.9351 17.6549 20.9883C18.0001 21.06 18.3053 20.9397 18.5848 20.7615C18.8666 20.5833 19.1343 20.3843 19.395 20.1783C19.6544 19.9738 19.9087 19.7605 20.1823 19.531C20.2802 19.4488 20.3806 19.3646 20.4846 19.278C20.4122 19.293 20.3456 19.3073 20.283 19.3208C20.1426 19.351 20.0224 19.3768 19.9022 19.396C19.6486 19.4377 19.4325 19.285 19.3832 19.0327C19.3386 18.8013 19.4537 18.6346 19.7167 18.5675C19.7702 18.5539 19.8238 18.5413 19.8774 18.5287C20.0144 18.4967 20.151 18.4647 20.2826 18.4148C19.2564 18.6045 18.2725 18.8823 17.5468 19.6992Z" fill="white"/>
</svg>
