<svg width="20" height="24" viewBox="0 0 20 24" fill="none" xmlns="http://www.w3.org/2000/svg">
<g clip-path="url(#clip0_597_30789)">
<path fill-rule="evenodd" clip-rule="evenodd" d="M4.51007 10.1832C5.89744 10.1832 7.14286 10.8463 7.97619 11.8694C8.11813 12.0447 8.37912 12.0589 8.41575 12.0589C8.75916 12.0589 9.0293 11.7747 9.0293 11.4242C9.0293 11.0216 8.74542 10.8605 8.663 10.8368C6.82692 10.2448 5.48993 8.46856 5.48993 6.37974C5.48993 3.80779 7.51832 1.71423 10 1.71423C12.4817 1.71423 14.5101 3.81253 14.5101 6.37974C14.5101 8.37383 13.3104 10.1358 11.5797 10.7468C11.3004 10.8463 11.0577 11.0547 11.0577 11.3721C11.0577 11.7226 11.337 12.0068 11.6712 12.0068C11.9231 12.0068 12.0788 11.8126 12.2344 11.6278C13.0082 10.69 14.2125 10.1832 15.4945 10.1832C17.9762 10.1832 20.0046 12.2815 20.0046 14.8487C20.0046 17.4206 17.9808 19.5142 15.4945 19.5142C13.8233 19.5142 12.3626 18.5669 11.5797 17.1649C10.8425 15.8907 10.4945 17.1222 10.6868 18.5716C10.8471 19.77 11.1905 20.632 12.4817 23.905C10.6685 23.1187 9.32692 22.9861 7.51832 23.905C8.79121 20.5136 8.99725 19.6516 9.15751 18.6095C9.41392 16.9423 9.0522 16.0092 8.42033 17.1459C7.66483 18.6095 6.23169 19.5142 4.51007 19.5142C2.02381 19.5142 0 17.4206 0 14.8487C0 12.2815 2.02381 10.1832 4.51007 10.1832Z" fill="url(#paint0_radial_597_30789)"/>
<path fill-rule="evenodd" clip-rule="evenodd" d="M10.7737 11.6043C10.7554 11.5286 10.7462 11.4575 10.7462 11.3722C10.7462 10.9033 11.0759 10.5812 11.4834 10.4391C13.1409 9.85181 14.1986 8.17033 14.1986 6.37992C14.1986 3.98796 12.3121 2.0365 10.0044 2.0365C7.69217 2.0365 5.80572 3.98796 5.80572 6.37992C5.80572 8.27928 7.01451 9.96549 8.7636 10.5291C9.12532 10.6476 9.3451 11.0454 9.3451 11.4243C9.3451 11.9501 8.93301 12.3811 8.42019 12.3811C8.17752 12.3811 7.89821 12.2722 7.74253 12.078C6.93667 11.0881 5.76909 10.5055 4.51909 10.5055C2.20682 10.5055 0.320374 12.4569 0.320374 14.8489C0.320374 15.512 0.466894 16.142 0.723304 16.7009C3.85975 14.8157 7.2114 13.0963 10.7737 11.6043Z" fill="url(#paint1_radial_597_30789)"/>
</g>
<defs>
<radialGradient id="paint0_radial_597_30789" cx="0" cy="0" r="1" gradientUnits="userSpaceOnUse" gradientTransform="translate(9.80137 11.0361) scale(16.09 16.6445)">
<stop stop-color="#808184"/>
<stop offset="0.78"/>
<stop offset="1"/>
</radialGradient>
<radialGradient id="paint1_radial_597_30789" cx="0" cy="0" r="1" gradientUnits="userSpaceOnUse" gradientTransform="translate(9.75233 14.943) scale(13.768 14.2425)">
<stop stop-color="#E6E7E8"/>
<stop offset="0.4916" stop-color="#6E6E6F"/>
<stop offset="0.8409" stop-color="#1F1F1F"/>
<stop offset="1"/>
</radialGradient>
<clipPath id="clip0_597_30789">
<rect width="20" height="24" fill="white"/>
</clipPath>
</defs>
</svg>
