<svg width="20" height="20" viewBox="0 0 20 20" fill="none" xmlns="http://www.w3.org/2000/svg">
<path d="M10 20C15.5228 20 20 15.5228 20 10C20 4.47715 15.5228 0 10 0C4.47715 0 0 4.47715 0 10C0 15.5228 4.47715 20 10 20Z" fill="#D80027"/>
<path d="M5.47266 6.08594L6.33594 8.74219H9.12891L6.87109 10.3867L7.73438 13.043L5.47266 11.4023L3.21094 13.043L4.07812 10.3867L1.81641 8.74219H4.60938L5.47266 6.08594Z" fill="#FFDA44"/>
<path d="M11.8557 15.4878L11.1956 14.6753L10.219 15.0542L10.7854 14.1753L10.1252 13.3589L11.137 13.6284L11.7073 12.7495L11.762 13.7964L12.7776 14.0659L11.7971 14.4409L11.8557 15.4878Z" fill="#FFDA44"/>
<path d="M13.1682 13.105L13.4807 12.105L12.6252 11.4995L13.6721 11.4839L13.9807 10.4839L14.3206 11.4761L15.3674 11.4644L14.5276 12.0894L14.8635 13.0815L14.0081 12.4761L13.1682 13.105Z" fill="#FFDA44"/>
<path d="M14.9373 7.33887L14.4763 8.28027L15.2263 9.01074L14.1912 8.8623L13.7302 9.7998L13.5505 8.76855L12.5115 8.62012L13.4412 8.13184L13.2615 7.09668L14.0115 7.82715L14.9373 7.33887Z" fill="#FFDA44"/>
<path d="M11.8823 4.48779L11.8042 5.53076L12.7769 5.92529L11.7573 6.17529L11.6831 7.22217L11.1323 6.33154L10.1128 6.58154L10.7886 5.78076L10.2339 4.89404L11.2065 5.28857L11.8823 4.48779Z" fill="#FFDA44"/>
</svg>
