<svg width="38" height="39" viewBox="0 0 38 39" fill="none" xmlns="http://www.w3.org/2000/svg">
<path d="M5.23295 22.2757C5.23295 22.2966 5.23108 22.3175 5.2292 22.3403C6.10907 22.4524 6.98705 22.5873 7.86879 22.6709C10.1707 22.8856 12.2325 23.676 14.0166 25.1885C14.4181 25.5286 14.8383 25.8706 15.2998 26.1119C15.8739 26.4102 16.4873 26.7484 17.1083 26.8111C18.2733 26.9308 19.459 26.9023 20.6334 26.8624C21.4964 26.8339 22.2618 26.4406 22.9634 25.9428C23.3555 25.6654 23.7345 25.3709 24.1153 25.0764C25.3535 24.1168 26.6649 23.2979 28.2239 22.9977C29.1 22.8305 29.9836 22.7051 30.8672 22.5778C31.5032 22.4847 32.141 22.4163 32.7789 22.3365C32.6419 22.2339 32.5069 22.2282 32.3737 22.2054C31.5876 22.08 30.7959 21.9812 30.0192 21.8102C29.4939 21.6943 29.0812 21.3941 29.0887 20.7594C28.4846 20.8734 28.4696 20.8582 28.2895 20.0165C27.6704 20.1837 27.5353 20.0792 27.359 19.4959C26.5842 18.7834 25.9726 18.2228 25.2954 17.6015C24.9595 17.7554 24.9033 17.3583 24.7869 17.0752C24.0403 17.3393 24.0984 16.6553 23.8677 16.3247C23.0835 16.8586 22.9503 16.8263 21.8697 15.8364C21.5789 16.2487 21.2637 16.2658 20.9317 15.8364C20.564 16.2202 20.2113 16.0397 19.8605 15.8782C19.3295 15.9428 18.7949 15.9466 18.2621 15.9409C18.1551 15.9409 18.0163 15.8668 17.9488 15.9124C17.6373 16.1214 17.3559 16.0986 17.0576 15.8497C16.7387 16.2487 16.4067 16.2867 16.1478 15.8706C15.7951 16.1347 15.5193 16.4653 15.1779 16.5603C14.8514 16.6515 14.4593 16.5014 14.0597 16.452C13.7577 17.1873 13.7483 17.1968 13.1742 17.0942C13.1142 17.4495 12.9604 17.706 12.6865 17.6072C11.9942 18.238 11.3845 18.7948 10.6341 19.4807C10.4953 20.0374 10.3658 20.1343 9.65103 20.0526C9.57224 20.8221 9.51596 20.8734 8.95315 20.7784C8.82745 21.0311 8.76742 21.3409 8.58356 21.4758C8.29841 21.6867 7.94008 21.8387 7.59114 21.909C6.81258 22.0648 6.02089 22.156 5.23483 22.2738L5.23295 22.2757ZM17.5792 6.58115C17.5379 6.56405 17.4985 6.54885 17.4572 6.53174C16.7837 7.13597 16.1665 7.82949 15.2041 7.99099C15.1628 7.9986 15.1084 8.0366 15.0916 8.0746C14.964 8.36531 14.7576 8.34441 14.4969 8.28551C14.3899 8.2608 14.2286 8.36151 14.1273 8.44511C13.4707 8.99613 13.0298 8.98473 12.3488 8.42801C12.2268 8.32921 11.9886 8.2627 11.8535 8.31401C10.5328 8.82512 9.42403 9.65165 8.51415 10.7423C8.42973 10.843 8.43348 11.1147 8.50665 11.2382C8.76179 11.6638 9.07509 12.0533 9.34899 12.4694C9.54222 12.7621 9.78048 12.8533 10.0769 12.6709C10.741 12.2604 11.4164 11.8633 12.0486 11.4073C12.9923 10.7233 13.9078 9.99746 14.827 9.27924C15.508 8.74912 16.2022 8.2323 16.8382 7.64898C17.1496 7.36397 17.3372 6.94026 17.5792 6.58115ZM20.3989 6.53744C20.6184 6.88896 20.7591 7.26517 21.0217 7.50838C21.6652 8.105 22.3537 8.65222 23.0422 9.19564C24.0084 9.95566 24.9783 10.7119 25.9707 11.4358C26.5617 11.8671 27.1958 12.2357 27.8149 12.6272C28.1788 12.8571 28.4584 12.7792 28.691 12.401C28.9349 12.0058 29.2463 11.6524 29.4695 11.2458C29.5483 11.1033 29.5202 10.7955 29.417 10.672C28.5559 9.65355 27.4978 8.89353 26.2859 8.35201C26.012 8.2285 25.8056 8.2456 25.5655 8.47741C25.0346 8.98853 24.4643 8.95623 23.9033 8.48881C23.7664 8.37481 23.5488 8.35391 23.363 8.30831C23.2767 8.28741 23.1604 8.34061 23.0891 8.30261C22.7346 8.1069 22.3819 7.90549 22.0442 7.68128C21.5208 7.33357 21.0123 6.96496 20.4026 6.53935L20.3989 6.53744ZM25.7062 17.6395C26.1377 18.0081 26.4416 18.2665 26.8431 18.6105C26.8769 18.7853 26.8844 19.1653 27.3871 18.8917C28.7529 18.1487 29.9611 17.2253 30.764 15.8497C30.9835 15.4735 31.1411 15.0611 31.3587 14.5956C30.5183 14.8521 30.4732 14.8255 29.8297 14.3315C29.6647 14.2042 29.4151 14.1719 29.1975 14.1377C28.9893 14.1054 28.7735 14.1301 28.5146 14.1301C28.2239 14.9737 27.8111 15.2815 27.3946 14.8863C27.177 15.1808 26.9725 15.4887 26.738 15.7699C26.5073 16.0473 26.2484 16.3019 25.8826 15.8763C25.5936 16.3741 25.3366 16.8187 25.0121 17.3792C25.3029 17.3146 25.4323 17.2861 25.588 17.2519C25.6443 17.4438 25.695 17.6072 25.7025 17.6376L25.7062 17.6395ZM12.7897 17.345C12.8272 17.3146 12.8666 17.2861 12.9041 17.2557C12.6358 16.7978 12.3657 16.3399 12.0693 15.8326C11.8085 16.2639 11.5571 16.1157 11.3526 15.882C11.0731 15.5628 10.8292 15.2112 10.5684 14.8749C10.1688 15.2815 9.70731 14.9319 9.47093 14.1149C9.20829 14.1149 8.97753 14.1016 8.75053 14.1187C8.58732 14.132 8.37908 14.1377 8.27214 14.2365C7.81814 14.6564 7.35851 14.9851 6.62873 14.5177C7.39791 16.7218 8.89311 18.0062 10.7448 18.9354C10.8198 18.9734 11.0018 18.829 11.1125 18.7416C11.2382 18.6428 11.3357 18.5117 11.452 18.4015C11.5252 18.3312 11.6209 18.2836 11.6922 18.2114C11.8441 18.0575 11.9867 17.8941 12.133 17.7345C12.1631 17.7592 12.1949 17.7839 12.225 17.8067C12.2812 17.6281 12.3375 17.4476 12.3994 17.25C12.5495 17.2861 12.6696 17.3146 12.7878 17.3431L12.7897 17.345ZM28.419 30.541C27.2933 30.921 26.6968 30.2408 26.1865 29.4028C25.194 30.1306 24.8057 31.4207 25.2597 32.5322C25.3141 32.6652 25.5167 32.8172 25.6537 32.8191C26.8825 32.8343 28.1169 31.814 28.419 30.541ZM9.5441 30.5391C9.9587 31.8596 10.9549 32.7165 12.2043 32.8134C12.3675 32.8267 12.6358 32.7336 12.6996 32.6082C13.2305 31.567 12.799 30.085 11.8029 29.4237C10.998 30.5885 10.5928 30.7956 9.5441 30.5391ZM25.9538 27.5541C26.0495 28.6352 26.314 29.4902 27.0513 30.1268C27.4172 30.4422 27.8561 30.5011 28.3102 30.3206C28.6122 30.2009 28.736 29.9805 28.7154 29.6346C28.7041 29.4655 28.8204 29.285 28.8936 29.1159C28.9311 29.0304 29.0249 28.9639 29.0456 28.8765C29.1431 28.4547 28.8673 28.1982 28.5822 27.9987C28.2389 27.7593 27.9143 27.2501 27.4322 27.556C26.9575 27.8562 26.5392 27.936 25.9538 27.5541ZM12.0148 27.5636C11.4483 27.9474 11.0037 27.8961 10.559 27.5484C10.4559 27.4686 10.2101 27.4781 10.0863 27.5484C9.78236 27.7175 9.50845 27.9398 9.22892 28.1526C8.40722 28.7758 9.5985 29.3135 9.32835 29.9387C9.30397 29.9938 9.70356 30.3643 9.90993 30.3662C10.2645 30.37 10.7016 30.2997 10.9624 30.085C11.694 29.4883 11.9567 28.6333 12.0148 27.5655V27.5636ZM8.92876 13.9192C9.39964 13.1288 9.04507 11.7702 8.27965 11.4073C8.16708 11.3541 7.96072 11.3959 7.8444 11.47C7.06585 11.9735 6.63998 12.6937 6.65312 13.6437C6.65874 13.9857 6.69064 14.4056 7.07335 14.4759C7.33412 14.5234 7.68119 14.3752 7.91569 14.208C8.23837 13.9762 8.52166 13.7387 8.92688 13.9192H8.92876ZM29.0474 13.9382C29.5465 13.6722 29.8185 14.0693 30.1731 14.303C30.3776 14.4379 30.7096 14.5519 30.901 14.4721C31.0905 14.3923 31.2537 14.0712 31.2931 13.8337C31.4056 13.1668 31.203 12.5607 30.7809 12.0343C30.0549 11.1299 29.7566 11.1432 29.1319 12.1103C29.0962 12.1635 29.0643 12.2186 29.0268 12.2718C28.6628 12.8134 28.6872 13.3511 29.0437 13.9382H29.0474ZM9.35087 20.5238C9.38651 20.2673 9.42778 19.9804 9.47281 19.6593C9.72608 19.7505 9.91931 19.8189 10.2251 19.9272C9.68855 19.3439 7.61365 18.3084 7.01144 18.2874C6.92514 18.2836 6.80132 18.3502 6.75255 18.4243C6.60622 18.6447 6.48803 18.8841 6.34169 19.1444C6.89137 19.9253 7.68869 20.3623 8.56856 20.7556C8.67737 20.0868 9.03569 20.6701 9.35087 20.5257V20.5238ZM28.509 19.6498C28.5578 19.9842 28.5991 20.2711 28.6328 20.5143C28.9311 20.6891 29.3251 20.0792 29.4414 20.8107C29.9911 20.4668 30.5014 20.1761 30.9779 19.836C31.218 19.665 31.46 19.4313 31.5707 19.1691C31.627 19.0361 31.355 18.7872 31.2968 18.5725C31.2068 18.238 31.0117 18.219 30.7603 18.3331C29.9085 18.7188 29.0587 19.1102 28.2126 19.5092C28.0681 19.5776 27.9462 19.6935 27.8149 19.7885C27.8336 19.8227 27.8524 19.8569 27.8712 19.893C28.0531 19.8227 28.237 19.7543 28.5071 19.6517L28.509 19.6498ZM33.6287 19.9329C33.6456 19.9728 33.6644 20.0146 33.6813 20.0545C33.9814 20.0545 34.2835 20.0279 34.5799 20.0583C35.8631 20.1932 36.7242 19.4104 37.5797 18.6409C37.7279 18.5079 37.7466 18.2247 37.8254 18.0119C37.6003 17.9739 37.3564 17.858 37.1519 17.9093C35.7843 18.2437 34.7225 19.1197 33.6287 19.9348V19.9329ZM4.40187 19.9823C3.27999 19.1102 2.21065 18.2589 0.85427 17.915C0.640401 17.8599 0.383383 17.9891 0.145125 18.0328C0.235176 18.2456 0.27082 18.5136 0.420904 18.6656C1.49963 19.7448 2.7472 20.3623 4.39999 19.9823H4.40187ZM31.7977 16.7693C31.8427 16.813 31.8859 16.8586 31.9309 16.9023C32.1692 16.7845 32.4018 16.6572 32.6457 16.5527C33.8876 16.0226 34.336 14.8996 34.6906 13.7197C34.7337 13.5791 34.6812 13.353 34.5855 13.2485C34.5292 13.1858 34.2666 13.2371 34.154 13.3188C32.9609 14.1947 32.4224 15.5115 31.7977 16.7693ZM6.14846 16.832C6.09406 16.6572 6.06404 16.4672 5.97774 16.3095C5.63067 15.6787 5.29299 15.0402 4.89902 14.4398C4.65701 14.0693 4.34371 13.7349 4.01165 13.4423C3.85781 13.3074 3.58579 13.3093 3.36817 13.2485C3.35128 13.4632 3.25185 13.7159 3.33065 13.8869C3.61956 14.5234 3.96662 15.1333 4.29118 15.7547C4.67389 16.4881 5.47121 16.5185 6.15034 16.832H6.14846ZM29.4996 24.9434C29.4883 25.0137 29.4789 25.0859 29.4677 25.1562C30.4845 25.9124 31.5688 26.5204 32.8839 26.5736C33.0209 26.5793 33.2423 26.4368 33.2817 26.3152C33.3229 26.1898 33.231 25.9618 33.126 25.8535C32.5763 25.293 31.8671 25.0403 31.1167 24.9548C30.5839 24.894 30.0399 24.9434 29.4996 24.9434ZM8.5967 25.0992C7.27034 24.6109 5.50873 25.1505 4.88213 25.8288C4.76957 25.9523 4.65326 26.2221 4.71141 26.3228C4.79396 26.4653 5.04347 26.6002 5.20856 26.5869C6.46364 26.4729 7.52735 25.8972 8.5967 25.1011V25.0992ZM17.2546 5.89522C16.2359 5.2701 13.6639 6.43864 12.3469 8.1183C12.5064 8.2475 12.6508 8.39951 12.8272 8.49831C13.2774 8.75102 13.5157 8.64082 13.6939 8.1392C13.722 8.0594 13.799 7.95489 13.8684 7.94349C14.1498 7.89599 14.2792 7.74969 14.2961 7.46088C14.2999 7.38297 14.3862 7.29177 14.4556 7.23667C14.7051 7.03906 14.9546 6.83766 15.2229 6.66665C15.6075 6.42344 15.9921 6.16693 16.4067 5.99023C16.6505 5.88572 16.9545 5.92372 17.2546 5.89522ZM20.7478 5.89332C21.6933 5.76032 22.3537 6.30184 22.9616 6.87566C23.2523 7.14927 23.8189 7.20437 23.7795 7.78769C24.1435 7.88269 24.3123 8.1373 24.4267 8.48691C24.453 8.56861 24.7607 8.63892 24.8901 8.58952C25.1659 8.48121 25.4098 8.28931 25.7118 8.1069C25.4323 7.86179 25.2447 7.68888 25.0477 7.52738C24.181 6.81675 23.3049 6.11943 22.2074 5.80592C21.7252 5.66722 21.23 5.57791 20.7478 5.89522V5.89332ZM25.346 25.3253C24.9971 25.426 24.4849 25.4222 24.3423 25.654C24.1622 25.9466 24.2448 26.4349 24.286 26.8301C24.3367 27.3033 24.7644 27.1798 25.0421 27.1855C25.9032 27.2026 26.3328 26.8415 26.3253 26.1746C26.3178 25.6274 26.0026 25.3671 25.346 25.3253ZM13.0879 27.1988C13.1817 27.1722 13.4556 27.1665 13.617 27.0259C13.7127 26.9422 13.617 26.6477 13.632 26.4501C13.6433 26.2924 13.7258 26.1347 13.7164 25.9808C13.7089 25.8402 13.6433 25.5989 13.5663 25.5837C13.1367 25.4944 12.694 25.4127 12.2569 25.4203C11.9042 25.4279 11.7034 25.7015 11.6678 26.072C11.5984 26.7883 12.0449 27.1836 13.0861 27.1988H13.0879ZM12.9153 24.7268C11.7428 23.7387 10.3564 23.4651 9.51408 23.9382C9.56474 24.2632 9.60976 24.5596 9.66604 24.9206C10.696 24.8579 11.7522 24.7952 12.9135 24.7249L12.9153 24.7268ZM28.4752 23.9116C27.2821 23.5221 25.8619 23.8546 25.1659 24.7344C26.2634 24.7971 27.329 24.856 28.3233 24.913C28.3852 24.514 28.4283 24.2328 28.4771 23.9116H28.4752ZM8.53666 21.3143C8.52353 21.2554 8.50852 21.1984 8.49539 21.1394C7.80688 21.0387 7.12025 20.9228 6.42799 20.8449C5.57252 20.748 5.58565 20.7651 5.46933 21.6012C5.42431 21.9204 5.52186 22.0211 5.81828 21.9755C6.42987 21.8786 7.04521 21.8045 7.64742 21.6753C7.95509 21.6088 8.24213 21.4397 8.53666 21.3162V21.3143ZM29.4789 21.1299C29.4695 21.1831 29.4602 21.2364 29.4508 21.2877C29.6834 21.3998 29.9048 21.5575 30.1487 21.6145C30.689 21.7399 31.2405 21.8292 31.7902 21.909C32.4787 22.0097 32.4787 21.9983 32.4693 21.3295C32.4693 21.2668 32.4787 21.2003 32.4937 21.1375C32.5575 20.8772 32.4337 20.7556 32.1954 20.7841C31.2893 20.8905 30.3851 21.0121 29.4808 21.128L29.4789 21.1299ZM34.6793 12.916C34.4692 11.8519 33.1972 10.2483 32.4187 10.1191C32.8052 10.9209 33.1616 11.6904 33.5462 12.4466C33.8839 13.1117 33.897 13.1041 34.6793 12.916ZM5.55751 10.1799C5.50873 10.1552 5.45995 10.1305 5.41118 10.1039C4.5088 10.5732 3.36629 12.1274 3.3344 13.0148C3.6158 12.9901 4.05667 13.0642 4.13734 12.9236C4.65513 12.0343 5.09413 11.0995 5.55751 10.1799ZM37.9999 17.7326C38.0018 16.4805 37.8686 15.3195 37.1332 14.303V17.5958C37.4465 17.6452 37.6791 17.6813 37.9999 17.7326ZM0.869278 17.5958V14.2954C0.130117 15.3366 -0.0424788 16.4938 0.00817435 17.7269C0.300837 17.6813 0.535342 17.6452 0.867402 17.5939L0.869278 17.5958ZM4.43564 26.5508C4.16173 27.8049 4.01165 29.0019 4.41312 30.1933C4.45815 30.1971 4.50505 30.2009 4.55007 30.2066C4.74518 29.095 4.94029 27.9816 5.13165 26.8947C4.86713 26.7636 4.68515 26.6743 4.43564 26.5508ZM32.8446 26.9023C33.0453 28.0063 33.2479 29.1159 33.4486 30.2237C33.4993 30.2161 33.5499 30.2104 33.6006 30.2028C33.9345 28.9924 33.8557 27.7897 33.5406 26.5603C33.2948 26.6819 33.1016 26.7769 32.8446 26.9023ZM2.94981 20.2502C2.93855 20.3205 2.92542 20.3908 2.91416 20.4611C3.36254 21.0615 4.00977 21.3485 4.70391 21.5442C4.87088 21.5917 5.05848 21.5613 5.23858 21.567C5.21607 21.3504 5.25547 21.0995 5.15791 20.9285C5.03972 20.7195 4.8296 20.4687 4.61949 20.425C4.07356 20.311 3.50887 20.3015 2.95169 20.2502H2.94981ZM35.092 20.4079C34.3623 20.1381 33.3755 20.254 33.0153 20.6473C32.7601 20.9247 32.5819 21.2383 32.7995 21.6696C33.6888 21.4606 34.5199 21.2116 35.092 20.4079ZM6.21788 18.8138C6.63811 18.4642 6.58558 18.0708 6.43362 17.6851C6.22726 17.1607 5.33426 16.6325 4.72079 16.6553C4.91027 17.5882 5.50873 18.2133 6.21975 18.8138H6.21788ZM33.2573 16.5888C32.2086 16.8567 31.5876 17.3241 31.4807 17.9093C31.4188 18.2456 31.4188 18.5801 31.7902 18.8062C32.4675 18.2057 33.0828 17.5958 33.2573 16.5888ZM26.1527 27.3641C26.3403 27.6111 26.6592 27.727 27.0344 27.5351C27.4265 27.3356 27.5579 26.9726 27.449 26.5622C27.3402 26.1499 27.0663 25.8877 26.6761 25.8858C26.4979 26.3874 26.3384 26.8396 26.1508 27.3641H26.1527ZM11.2944 25.8649C10.8948 25.939 10.5909 26.1822 10.5178 26.6515C10.454 27.0601 10.6116 27.3945 10.9962 27.5579C11.3601 27.7118 11.6678 27.5959 11.8347 27.3584C11.6434 26.832 11.4858 26.3893 11.2944 25.863V25.8649ZM7.37352 24.5691C7.87817 24.6983 8.32842 24.8693 8.78618 24.9035C8.98504 24.9187 9.3246 24.6888 9.38651 24.4969C9.49345 24.1739 9.16514 24.1378 8.92125 24.1321C8.3697 24.1207 7.85191 24.2347 7.37164 24.5691H7.37352ZM30.6046 24.571C30.1374 24.2252 29.6009 24.0998 29.0418 24.1454C28.873 24.1587 28.7191 24.3601 28.5578 24.4741C28.7735 24.6261 28.9987 24.9149 29.2069 24.9035C29.6628 24.8769 30.1112 24.6983 30.6046 24.571ZM22.8678 26.3114C23.0385 26.7009 23.2917 26.9688 23.7045 26.9137C23.8546 26.8928 24.0665 26.6705 24.0872 26.5166C24.1116 26.3342 24.014 26.0302 23.8733 25.9485C23.4475 25.7034 23.1886 26.091 22.8659 26.3114H22.8678ZM15.1047 26.3057C14.7914 26.0701 14.51 25.692 14.0766 25.9656C13.9434 26.0492 13.8684 26.3608 13.9021 26.5432C13.9303 26.6933 14.1479 26.9042 14.2961 26.9175C14.6976 26.9517 14.964 26.7066 15.1047 26.3076V26.3057ZM22.5807 16.186C22.9259 16.5014 23.2017 16.4805 23.3724 16.1024C23.4324 15.9694 23.3855 15.6407 23.318 15.6179C22.8546 15.4659 22.7683 15.8725 22.5807 16.1841V16.186ZM15.403 16.1784C15.2191 15.8687 15.1253 15.464 14.6638 15.6236C14.5982 15.6464 14.5681 16.0074 14.6413 16.1499C14.8214 16.5071 15.0953 16.4767 15.403 16.1765V16.1784Z" fill="white"/>
<path d="M5.23304 22.2758C6.01911 22.158 6.8108 22.0668 7.58935 21.911C7.9383 21.8407 8.29662 21.6887 8.58178 21.4778C8.76563 21.3429 8.82567 21.0332 8.95136 20.7805C9.51417 20.8755 9.57046 20.8242 9.64925 20.0547C10.3659 20.1383 10.4935 20.0395 10.6323 19.4827C11.3827 18.7987 11.9943 18.242 12.6847 17.6093C12.9586 17.7081 13.1105 17.4516 13.1725 17.0963C13.7446 17.1989 13.7559 17.1894 14.0579 16.454C14.4575 16.5034 14.8496 16.6554 15.1761 16.5623C15.5175 16.4654 15.7933 16.1367 16.146 15.8726C16.4049 16.2887 16.7369 16.2507 17.0559 15.8517C17.3542 16.1006 17.6374 16.1215 17.947 15.9144C18.0145 15.8688 18.1533 15.9429 18.2603 15.9429C18.7931 15.9467 19.3259 15.9429 19.8587 15.8802C20.2095 16.0417 20.5622 16.2222 20.9299 15.8384C21.262 16.2678 21.5771 16.2507 21.8679 15.8384C22.9485 16.8283 23.0836 16.8606 23.8659 16.3267C24.0967 16.6573 24.0385 17.3414 24.7852 17.0773C24.9015 17.3604 24.9596 17.7575 25.2936 17.6036C25.9708 18.2249 26.5805 18.7854 27.3572 19.4979C27.5336 20.0832 27.6705 20.1877 28.2877 20.0186C28.4697 20.8603 28.4828 20.8736 29.0869 20.7615C29.0794 21.3961 29.4922 21.6982 30.0174 21.8122C30.7941 21.9813 31.5858 22.0801 32.3719 22.2074C32.5051 22.2283 32.6402 22.2359 32.7771 22.3385C32.1392 22.4183 31.5014 22.4867 30.8654 22.5798C29.9818 22.709 29.0982 22.8325 28.2221 22.9998C26.6631 23.2981 25.3517 24.117 24.1135 25.0784C23.7346 25.3729 23.3537 25.6674 22.9616 25.9449C22.26 26.4408 21.4946 26.836 20.6316 26.8645C19.4572 26.9044 18.2715 26.9329 17.1065 26.8132C16.4855 26.7505 15.8721 26.4123 15.298 26.114C14.8365 25.8727 14.4163 25.5325 14.0148 25.1905C12.2326 23.6762 10.1689 22.8877 7.86701 22.6729C6.98527 22.5893 6.10728 22.4544 5.22742 22.3423C5.22742 22.3214 5.22929 22.3005 5.23117 22.2777L5.23304 22.2758Z" fill="white"/>
<path d="M17.5792 6.58114C17.3353 6.94215 17.1477 7.36397 16.8382 7.64898C16.2041 8.2323 15.508 8.74721 14.827 9.27923C13.9078 9.99746 12.9923 10.7233 12.0486 11.4073C11.4164 11.8652 10.741 12.2604 10.0769 12.6708C9.78049 12.8533 9.54223 12.764 9.349 12.4694C9.0751 12.0533 8.7618 11.6638 8.50666 11.2382C8.43162 11.1147 8.42974 10.843 8.51416 10.7423C9.42404 9.65354 10.5328 8.82512 11.8535 8.314C11.9886 8.2627 12.2268 8.3292 12.3488 8.428C13.0298 8.98472 13.4707 8.99422 14.1273 8.4451C14.2286 8.3596 14.3899 8.2608 14.4969 8.2855C14.7576 8.3444 14.964 8.3653 15.0916 8.07459C15.1085 8.03659 15.1629 7.99859 15.2041 7.99099C16.1665 7.83138 16.7838 7.13786 17.4573 6.53174C17.4985 6.54884 17.5379 6.56404 17.5792 6.58114Z" fill="white"/>
<path d="M20.3971 6.53745C21.0068 6.96307 21.5171 7.33168 22.0387 7.67939C22.3763 7.9036 22.729 8.10501 23.0836 8.30071C23.1549 8.34062 23.2693 8.28551 23.3575 8.30641C23.5432 8.35202 23.7609 8.37292 23.8978 8.48692C24.4606 8.95434 25.0291 8.98664 25.56 8.47552C25.8001 8.24371 26.0065 8.22661 26.2804 8.35012C27.4923 8.89163 28.5504 9.65166 29.4115 10.6701C29.5166 10.7936 29.5428 11.1014 29.464 11.2439C29.2427 11.6505 28.9294 12.0039 28.6855 12.3992C28.4529 12.7773 28.1733 12.8552 27.8094 12.6253C27.1903 12.2338 26.5562 11.8633 25.9652 11.4339C24.9728 10.71 24.0029 9.95567 23.0367 9.19374C22.3482 8.65033 21.6597 8.10311 21.0162 7.50649C20.7536 7.26328 20.6129 6.88707 20.3934 6.53555L20.3971 6.53745Z" fill="white"/>
<path d="M25.7042 17.6416C25.6949 17.613 25.6461 17.4477 25.5898 17.2558C25.4341 17.29 25.3046 17.3185 25.0139 17.3831C25.3384 16.8226 25.5973 16.378 25.8843 15.8802C26.2483 16.3058 26.5091 16.0512 26.7398 15.7738C26.9743 15.4926 27.1788 15.1848 27.3964 14.8903C27.8129 15.2855 28.2256 14.9777 28.5164 14.134C28.7734 14.134 28.9911 14.1093 29.1993 14.1416C29.4169 14.1739 29.6664 14.2081 29.8315 14.3354C30.475 14.8295 30.52 14.8561 31.3605 14.5995C31.1429 15.0651 30.9853 15.4774 30.7658 15.8536C29.9629 17.2292 28.7547 18.1527 27.3889 18.8956C26.8861 19.1692 26.8786 18.7873 26.8449 18.6144C26.4434 18.2724 26.1395 18.0121 25.708 17.6435L25.7042 17.6416Z" fill="white"/>
<path d="M12.7879 17.3471C12.6678 17.3186 12.5496 17.2901 12.3995 17.254C12.3376 17.4516 12.2813 17.6321 12.225 17.8107C12.195 17.786 12.1631 17.7613 12.1331 17.7385C11.9868 17.8981 11.8442 18.0615 11.6923 18.2154C11.621 18.2876 11.5253 18.3351 11.4521 18.4054C11.3358 18.5156 11.2383 18.6486 11.1126 18.7455C11.0019 18.8329 10.8199 18.9773 10.7449 18.9393C8.89132 18.0102 7.39799 16.7238 6.62881 14.5217C7.3586 14.9891 7.81635 14.6604 8.27223 14.2405C8.37916 14.1417 8.5874 14.136 8.75062 14.1227C8.97762 14.1037 9.20837 14.1189 9.47102 14.1189C9.7074 14.9359 10.1689 15.2855 10.5685 14.8789C10.8274 15.2152 11.0732 15.5667 11.3527 15.8859C11.5572 16.1215 11.8086 16.2678 12.0693 15.8365C12.3676 16.3438 12.6359 16.8017 12.9042 17.2597C12.8667 17.2901 12.8273 17.3186 12.7897 17.349L12.7879 17.3471Z" fill="white"/>
<path d="M28.4171 30.543C28.115 31.8161 26.8806 32.8364 25.6518 32.8212C25.5148 32.8212 25.3122 32.6673 25.2578 32.5343C24.8038 31.4228 25.1921 30.1326 26.1846 29.4049C26.6949 30.2428 27.2914 30.9231 28.4171 30.543Z" fill="white"/>
<path d="M9.5423 30.5411C10.591 30.7977 10.9962 30.5906 11.8011 29.4258C12.7972 30.087 13.2306 31.5691 12.6978 32.6103C12.634 32.7357 12.3657 32.8288 12.2025 32.8155C10.9531 32.7186 9.95503 31.8617 9.5423 30.5411Z" fill="white"/>
<path d="M25.952 27.5561C26.5373 27.938 26.9557 27.8582 27.4303 27.558C27.9125 27.252 28.2351 27.7613 28.5803 28.0007C28.8655 28.2002 29.1394 28.4567 29.0437 28.8785C29.0231 28.9659 28.9274 29.0324 28.8918 29.1179C28.8186 29.287 28.7042 29.4675 28.7135 29.6366C28.7342 29.9805 28.6103 30.2009 28.3083 30.3226C27.8562 30.5031 27.4172 30.4442 27.0495 30.1287C26.3122 29.4941 26.0496 28.6372 25.952 27.5561Z" fill="white"/>
<path d="M12.0112 27.5656C11.953 28.6334 11.6904 29.4885 10.9587 30.0851C10.6961 30.2998 10.2608 30.3701 9.90626 30.3663C9.69989 30.3644 9.3003 29.9939 9.32469 29.9388C9.59484 29.3118 8.40355 28.774 9.22526 28.1527C9.50479 27.9418 9.77869 27.7176 10.0826 27.5485C10.2083 27.4782 10.4541 27.4706 10.5554 27.5485C11 27.8962 11.4446 27.9475 12.0112 27.5637V27.5656Z" fill="white"/>
<path d="M8.92866 13.9194C8.52344 13.7389 8.24015 13.9764 7.91747 14.2082C7.68297 14.3754 7.3359 14.5236 7.07513 14.4761C6.69242 14.4077 6.66053 13.9859 6.6549 13.6439C6.64177 12.6938 7.06575 11.9737 7.84618 11.4702C7.96062 11.3961 8.16699 11.3543 8.28143 11.4075C9.04685 11.7704 9.39955 13.129 8.93054 13.9194H8.92866Z" fill="white"/>
<path d="M29.0476 13.9384C28.6911 13.3513 28.6667 12.8116 29.0307 12.272C29.0663 12.2188 29.1001 12.1637 29.1357 12.1105C29.7604 11.1434 30.0587 11.1301 30.7848 12.0345C31.2069 12.5608 31.4095 13.1669 31.2969 13.8339C31.2557 14.0733 31.0943 14.3944 30.9048 14.4723C30.7135 14.5521 30.3795 14.4381 30.1769 14.3032C29.8224 14.0695 29.5503 13.6705 29.0513 13.9384H29.0476Z" fill="white"/>
<path d="M9.35079 20.5239C9.03561 20.6683 8.67729 20.085 8.56848 20.7538C7.69049 20.3605 6.89317 19.9216 6.34161 19.1426C6.48795 18.8823 6.60614 18.6429 6.75247 18.4225C6.80124 18.3484 6.92506 18.2838 7.01136 18.2857C7.61357 18.3066 9.68847 19.3421 10.225 19.9254C9.9211 19.8171 9.72787 19.7487 9.47273 19.6575C9.4277 19.9786 9.38643 20.2655 9.35079 20.522V20.5239Z" fill="white"/>
<path d="M28.5089 19.6517C28.2388 19.7543 28.0549 19.8246 27.8729 19.893C27.8542 19.8588 27.8354 19.8246 27.8167 19.7885C27.948 19.6935 28.0699 19.5776 28.2144 19.5092C29.0605 19.1102 29.9103 18.7188 30.762 18.3331C31.0134 18.2191 31.2067 18.2381 31.2986 18.5725C31.3567 18.7872 31.6269 19.0361 31.5725 19.1691C31.4637 19.4313 31.2198 19.665 30.9797 19.836C30.5031 20.1762 29.9929 20.4669 29.4432 20.8108C29.3269 20.0774 28.931 20.6892 28.6346 20.5144C28.599 20.2731 28.5577 19.9861 28.5108 19.6498L28.5089 19.6517Z" fill="white"/>
<path d="M33.6288 19.9329C34.7244 19.1197 35.7863 18.2419 37.152 17.9074C37.3565 17.858 37.6004 17.972 37.8255 18.01C37.7467 18.2229 37.728 18.506 37.5798 18.639C36.7243 19.4085 35.8613 20.1913 34.58 20.0564C34.2836 20.026 33.9815 20.0526 33.6813 20.0526C33.6645 20.0127 33.6457 19.9709 33.6288 19.931V19.9329Z" fill="white"/>
<path d="M4.40199 19.9824C2.7492 20.3624 1.50163 19.743 0.422903 18.6656C0.27282 18.5155 0.235299 18.2476 0.147125 18.0329C0.385383 17.9892 0.6424 17.86 0.856269 17.9151C2.21265 18.259 3.28012 19.1121 4.40386 19.9824H4.40199Z" fill="white"/>
<path d="M31.7977 16.7694C32.4224 15.5116 32.9608 14.1948 34.154 13.3189C34.2647 13.2372 34.5273 13.1859 34.5855 13.2486C34.6811 13.3531 34.7318 13.5792 34.6905 13.7198C34.3341 14.9017 33.8857 16.0227 32.6456 16.5528C32.4018 16.6573 32.1691 16.7846 31.9309 16.9024C31.8858 16.8587 31.8427 16.8131 31.7977 16.7694Z" fill="white"/>
<path d="M6.14858 16.8321C5.46946 16.5186 4.67214 16.4882 4.28943 15.7548C3.96487 15.1335 3.6178 14.5255 3.32889 13.887C3.25198 13.716 3.34953 13.4633 3.36641 13.2486C3.58404 13.3094 3.85606 13.3075 4.0099 13.4424C4.34196 13.735 4.65338 14.0695 4.89726 14.44C5.29123 15.0404 5.62892 15.6788 5.97599 16.3096C6.06229 16.4673 6.09043 16.6573 6.14671 16.8321H6.14858Z" fill="white"/>
<path d="M29.4995 24.9434C30.0398 24.9434 30.5839 24.894 31.1167 24.9548C31.8671 25.0403 32.5763 25.293 33.1259 25.8536C33.2329 25.9619 33.3229 26.188 33.2816 26.3153C33.2422 26.4369 33.0209 26.5794 32.8839 26.5737C31.5688 26.5224 30.4845 25.9125 29.4677 25.1562C29.4789 25.0859 29.4883 25.0137 29.4995 24.9434Z" fill="white"/>
<path d="M8.59664 25.0993C7.52542 25.8973 6.4617 26.4711 5.20851 26.5851C5.04341 26.6003 4.7939 26.4635 4.71135 26.321C4.6532 26.2203 4.76951 25.9505 4.88207 25.827C5.50867 25.1487 7.27028 24.6091 8.59664 25.0974V25.0993Z" fill="white"/>
<path d="M17.2546 5.89531C16.9545 5.92381 16.6524 5.88581 16.4066 5.99031C15.992 6.16702 15.6056 6.42163 15.2229 6.66673C14.9546 6.83584 14.7051 7.03725 14.4556 7.23675C14.3843 7.29186 14.2999 7.38306 14.2961 7.46096C14.2811 7.74977 14.1516 7.89798 13.8684 7.94358C13.8008 7.95498 13.722 8.06138 13.6939 8.13928C13.5157 8.639 13.2755 8.75111 12.8272 8.4984C12.6508 8.39959 12.5064 8.24569 12.3469 8.11838C13.6639 6.43873 16.2341 5.27019 17.2546 5.89531Z" fill="white"/>
<path d="M20.7461 5.89344C21.2282 5.57613 21.7235 5.66734 22.2057 5.80414C23.3031 6.11765 24.1793 6.81687 25.046 7.5256C25.243 7.6871 25.4287 7.86001 25.7101 8.10512C25.4081 8.28942 25.1642 8.48133 24.8884 8.58774C24.7589 8.63904 24.4513 8.56873 24.425 8.48513C24.3106 8.13552 24.1399 7.88091 23.7778 7.78591C23.8172 7.20259 23.2506 7.14749 22.9598 6.87388C22.352 6.30006 21.6916 5.76044 20.7461 5.89154V5.89344Z" fill="white"/>
<path d="M25.3442 25.3254C26.0027 25.3672 26.3178 25.6275 26.3235 26.1747C26.3329 26.8417 25.9032 27.2027 25.0403 27.1856C24.7607 27.1799 24.3349 27.3034 24.2842 26.8303C24.2411 26.435 24.1604 25.9467 24.3405 25.6541C24.4812 25.4242 24.9952 25.4261 25.3442 25.3254Z" fill="white"/>
<path d="M13.0861 27.1989C12.0467 27.1837 11.6002 26.7865 11.6678 26.0721C11.7034 25.7016 11.9023 25.428 12.2568 25.4204C12.694 25.4109 13.1348 25.4926 13.5663 25.5838C13.6432 25.599 13.7089 25.8403 13.7164 25.9809C13.7258 26.1348 13.6432 26.2925 13.632 26.4502C13.617 26.6478 13.7127 26.9424 13.617 27.026C13.4556 27.1666 13.1799 27.1723 13.0879 27.1989H13.0861Z" fill="white"/>
<path d="M12.9116 24.7268C11.7504 24.7971 10.6941 24.8598 9.6642 24.9225C9.60792 24.5596 9.56289 24.2651 9.51224 23.9402C10.3546 23.4671 11.7391 23.7407 12.9135 24.7287L12.9116 24.7268Z" fill="white"/>
<path d="M28.4715 23.9117C28.4227 24.2328 28.3796 24.514 28.3177 24.913C27.3253 24.856 26.2597 24.7971 25.1603 24.7344C25.8563 23.8547 27.2765 23.5222 28.4696 23.9117H28.4715Z" fill="white"/>
<path d="M8.53485 21.3143C8.23844 21.4378 7.95328 21.6069 7.64561 21.6734C7.04152 21.8045 6.42618 21.8767 5.81647 21.9736C5.52193 22.0211 5.42438 21.9204 5.46752 21.5993C5.58384 20.7633 5.57071 20.7462 6.42618 20.8431C7.11657 20.921 7.80507 21.0388 8.49358 21.1376C8.50671 21.1965 8.52172 21.2535 8.53485 21.3124V21.3143Z" fill="white"/>
<path d="M29.4771 21.13C30.3814 21.0141 31.2856 20.8925 32.1918 20.7861C32.43 20.7576 32.552 20.8792 32.4901 21.1395C32.475 21.2022 32.4657 21.2668 32.4657 21.3314C32.4769 22.0002 32.475 22.0097 31.7865 21.9109C31.2369 21.8311 30.6853 21.7437 30.145 21.6164C29.9011 21.5594 29.6797 21.4017 29.4471 21.2896C29.4565 21.2364 29.4659 21.1832 29.4753 21.1319L29.4771 21.13Z" fill="white"/>
<path d="M34.6774 12.9161C33.8951 13.1061 33.8819 13.1118 33.5443 12.4468C33.1615 11.6906 32.8032 10.921 32.4167 10.1192C33.1953 10.2465 34.4673 11.8502 34.6774 12.9161Z" fill="white"/>
<path d="M5.55746 10.1799C5.0922 11.0995 4.65508 12.0362 4.1373 12.9235C4.05663 13.0642 3.61576 12.99 3.33435 13.0148C3.36624 12.1293 4.50875 10.5732 5.41113 10.1039C5.45991 10.1286 5.50868 10.1533 5.55746 10.1799Z" fill="white"/>
<path d="M38 17.7327C37.6792 17.6814 37.4466 17.6453 37.1333 17.5959V14.3031C37.8687 15.3196 38.0019 16.4806 38 17.7327Z" fill="white"/>
<path d="M0.86926 17.5959C0.535325 17.6472 0.302696 17.6833 0.0100329 17.7289C-0.0406202 16.4939 0.1301 15.3387 0.86926 14.2974V17.5978V17.5959Z" fill="white"/>
<path d="M4.43383 26.5509C4.68335 26.6744 4.86532 26.7637 5.12985 26.8948C4.93849 27.9817 4.74338 29.0951 4.54827 30.2067C4.50325 30.2029 4.45635 30.1991 4.41132 30.1934C4.00985 29.0001 4.15993 27.805 4.43383 26.5509Z" fill="white"/>
<path d="M32.8445 26.9005C33.1016 26.7751 33.2948 26.6801 33.5406 26.5585C33.8557 27.7879 33.9345 28.9906 33.6006 30.201C33.5499 30.2086 33.4993 30.2143 33.4486 30.2219C33.246 29.1122 33.0453 28.0045 32.8445 26.9005Z" fill="white"/>
<path d="M2.94984 20.2505C3.50703 20.3018 4.07359 20.3113 4.61765 20.4253C4.82589 20.469 5.03788 20.7198 5.15607 20.9288C5.25362 21.1017 5.2161 21.3525 5.23674 21.5672C5.05852 21.5615 4.86904 21.5919 4.70207 21.5444C4.00793 21.3468 3.3607 21.0618 2.91232 20.4614C2.92358 20.3911 2.93671 20.3208 2.94797 20.2505H2.94984Z" fill="white"/>
<path d="M35.092 20.4081C34.5198 21.2099 33.6887 21.4588 32.7994 21.6697C32.5818 21.2384 32.76 20.9249 33.0152 20.6475C33.3773 20.2542 34.3641 20.1383 35.092 20.4081Z" fill="white"/>
<path d="M6.21795 18.8139C5.50881 18.2135 4.90847 17.5884 4.71899 16.6554C5.33434 16.6326 6.22546 17.1609 6.43182 17.6853C6.58378 18.071 6.63631 18.4643 6.21608 18.8139H6.21795Z" fill="white"/>
<path d="M33.2573 16.5869C33.0829 17.5939 32.4675 18.2019 31.7903 18.8043C31.4188 18.5782 31.4188 18.2437 31.4807 17.9074C31.5877 17.3222 32.2086 16.8567 33.2573 16.5869Z" fill="white"/>
<path d="M26.1528 27.3623C26.3386 26.8379 26.4999 26.3838 26.6781 25.8841C27.0683 25.8879 27.3404 26.1501 27.4511 26.5605C27.5599 26.9709 27.4285 27.3338 27.0364 27.5333C26.6612 27.7252 26.3423 27.6093 26.1547 27.3623H26.1528Z" fill="white"/>
<path d="M11.2963 25.8649C11.4858 26.3912 11.6453 26.832 11.8366 27.3602C11.6697 27.5978 11.362 27.7137 10.998 27.5598C10.6135 27.3964 10.4559 27.0619 10.5197 26.6534C10.5928 26.1841 10.8967 25.939 11.2963 25.8668V25.8649Z" fill="white"/>
<path d="M7.37354 24.5673C7.8538 24.2329 8.37159 24.117 8.92315 24.1303C9.16516 24.136 9.49346 24.1721 9.38841 24.4951C9.3265 24.6851 8.98693 24.915 8.78807 24.9017C8.32844 24.8675 7.88007 24.6965 7.37541 24.5673H7.37354Z" fill="white"/>
<path d="M30.6045 24.5711C30.1092 24.6984 29.6627 24.877 29.2068 24.9036C28.9986 24.915 28.7754 24.6262 28.5577 24.4742C28.7191 24.3583 28.8729 24.1588 29.0418 24.1455C29.6027 24.0999 30.1392 24.2253 30.6045 24.5711Z" fill="white"/>
<path d="M22.8677 26.3115C23.1904 26.0911 23.4493 25.7034 23.8752 25.9486C24.0159 26.0303 24.1134 26.3324 24.089 26.5167C24.0684 26.6706 23.8564 26.8948 23.7063 26.9138C23.2936 26.9689 23.0385 26.7029 22.8696 26.3115H22.8677Z" fill="white"/>
<path d="M15.1047 26.3039C14.964 26.7029 14.6976 26.948 14.2961 26.9138C14.1479 26.9005 13.9303 26.6915 13.9022 26.5395C13.8684 26.3571 13.9434 26.0474 14.0766 25.9619C14.51 25.6883 14.7895 26.0664 15.1047 26.302V26.3039Z" fill="white"/>
<path d="M22.5807 16.1861C22.7664 15.8745 22.8527 15.4678 23.318 15.6198C23.3855 15.6426 23.4324 15.9714 23.3724 16.1044C23.2017 16.4806 22.9259 16.5015 22.5807 16.188V16.1861Z" fill="white"/>
<path d="M15.403 16.1785C15.0953 16.4768 14.8214 16.5091 14.6413 16.1519C14.57 16.0094 14.6 15.6464 14.6638 15.6255C15.1235 15.4659 15.2173 15.8706 15.403 16.1804V16.1785Z" fill="white"/>
</svg>
