<svg width="38" height="39" viewBox="0 0 38 39" fill="none" xmlns="http://www.w3.org/2000/svg">
<g clip-path="url(#clip0_11479_197528)">
<path d="M31.0299 11.0887C31.0117 11.0931 30.9935 11.0976 30.9753 11.102C30.9594 11.5509 30.9093 11.9932 30.6567 12.3825C30.395 12.785 30.0012 12.9885 29.4937 13.0902C29.5984 12.9155 29.6803 12.7717 29.7714 12.6346C30.1036 12.1282 30.2948 11.5775 30.2265 10.9803C30.1401 10.224 30.0081 9.46984 29.892 8.71569C29.8806 8.6405 29.8419 8.57194 29.8169 8.49896C29.7759 8.57194 29.7714 8.63607 29.7691 8.698C29.7463 9.24868 29.7441 9.80379 29.6963 10.3523C29.5984 11.4691 28.9316 12.221 27.9871 12.7806C27.9325 12.8137 27.8619 12.8226 27.7504 12.8602C27.9347 12.4555 28.0986 12.1016 28.2579 11.7456C28.506 11.1882 28.7404 10.6221 28.7586 10.0095C28.7745 9.48311 28.7518 8.95233 28.704 8.42597C28.6152 7.43076 28.3876 6.46652 27.9575 5.55314C27.9393 5.51554 27.9142 5.48236 27.8938 5.44477C27.8551 5.53544 27.8505 5.61506 27.8551 5.69468C27.8801 6.04632 27.9074 6.39796 27.9347 6.7496C28.0144 7.86202 27.978 8.97002 27.7367 10.0648C27.6002 10.684 27.3953 11.2811 26.947 11.7632C26.8264 11.8937 26.6739 11.9977 26.5123 12.1326C26.5123 11.6681 26.5009 11.2568 26.5146 10.8477C26.5373 10.1355 26.5487 9.42118 26.3644 8.72675C26.0002 7.35778 25.4153 6.07728 24.637 4.88303C24.4708 4.62648 24.2455 4.40533 24.0498 4.16869C24.0293 4.18196 24.0111 4.19523 23.9906 4.2085C24.0248 4.29475 24.0544 4.381 24.0953 4.46504C24.6939 5.73006 25.1468 7.03932 25.363 8.42155C25.536 9.52734 25.5177 10.6265 25.1172 11.6903C24.8373 12.4289 24.4208 13.0836 23.779 13.5856C23.7175 13.6342 23.6447 13.6652 23.5628 13.7139C23.5605 11.0467 22.8846 8.6029 21.3939 6.38911C21.3734 6.41565 21.3711 6.43777 21.3779 6.45767C21.4234 6.6346 21.4599 6.81373 21.5168 6.98624C21.89 8.12741 22.113 9.29291 22.1654 10.4938C22.2177 11.7013 22.113 12.8867 21.758 14.05C21.7011 14.2336 21.6078 14.353 21.4234 14.4326C21.1185 14.5609 20.8272 14.7179 20.529 14.8595C20.4243 14.9103 20.3151 14.9545 20.1785 15.0121C20.1899 13.9815 20.0534 13.0106 19.6824 12.0773C19.3114 11.1462 18.7834 10.308 18.1462 9.52955C18.1348 9.57821 18.1393 9.61801 18.1507 9.65561C18.2873 10.0448 18.4125 10.4385 18.5627 10.8211C18.9018 11.6836 19.0542 12.5749 19.0315 13.4949C19.0065 14.5144 18.7516 15.492 18.4807 16.4695C18.4375 16.6265 18.3738 16.684 18.1985 16.6796C17.6341 16.6641 17.056 16.5801 16.5576 16.9538C16.4757 17.0157 16.4256 16.9671 16.3733 16.8897C15.9044 16.1975 15.2968 15.6357 14.5844 15.1868C14.0678 14.8617 13.7241 14.4238 13.5443 13.8554C13.3122 13.1167 13.3281 12.3582 13.3828 11.5996C13.4101 11.2325 13.4533 10.8698 13.4897 10.5026C12.7045 11.7433 12.6067 13.1167 12.6704 14.5255C12.6181 14.5211 12.5839 14.5211 12.5498 14.5144C11.6508 14.3043 10.7928 13.9903 9.99625 13.5303C9.58204 13.2914 9.25887 12.9619 9.04038 12.5417C8.75135 11.9844 8.79914 11.5222 9.22473 11.1639C9.41818 11.0002 9.64349 10.8543 9.87791 10.7592C10.4719 10.5137 11.075 10.2837 11.685 10.078C12.9754 9.64455 14.2726 9.23099 15.5653 8.80858C15.6336 8.78646 15.6973 8.7555 15.7633 8.72896C15.6359 8.70463 15.5221 8.71127 15.4106 8.73117C14.6277 8.88156 13.847 9.04522 13.0641 9.18455C12.6317 9.26195 12.1925 9.30176 11.7555 9.35705C11.6303 9.37253 11.5666 9.31724 11.5894 9.19781C11.6235 9.02089 11.6463 8.83512 11.7145 8.66925C11.9763 8.04779 12.3814 7.5148 12.8388 7.0172C13.4032 6.40459 14.127 6.01535 14.8621 5.6416C14.9099 5.61727 14.9554 5.58852 15.0032 5.56198C14.9281 5.53987 14.8666 5.53987 14.8075 5.54871C13.5557 5.7367 12.4883 6.2918 11.6281 7.17864C11.2343 7.58336 10.9476 8.0876 10.6198 8.55203C10.3285 8.96339 10.0577 9.39465 9.64804 9.70648C9.49328 9.8259 9.30666 9.90552 9.11093 10.0183C9.11093 9.70869 9.10183 9.45657 9.11093 9.20666C9.15873 8.12741 9.42501 7.0946 9.85742 6.10161C10.4059 4.84322 11.1706 3.71089 12.0127 2.62501C12.1379 2.46135 12.2403 2.28 12.3518 2.1075H12.3154C12.1606 2.20702 11.999 2.29991 11.8511 2.41048C10.5334 3.38579 9.48873 4.5911 8.69217 6.00209C8.04355 7.14989 7.49506 8.3353 7.22423 9.62686C7.17871 9.84138 7.14913 10.0559 7.11499 10.2726C7.03533 10.1842 6.97844 10.0935 6.94885 9.99398C6.76223 9.32609 6.67119 8.64492 6.7463 7.9527C6.84643 7.01056 7.11271 6.11045 7.54058 5.25678C7.6703 4.99582 7.77044 4.72158 7.88424 4.45177C7.82279 4.44292 7.7932 4.45177 7.77499 4.46946C7.65437 4.57562 7.52237 4.67293 7.41768 4.79456C5.9907 6.43113 5.20325 8.27116 5.48546 10.4562C5.62429 11.5443 5.97477 12.5616 6.53009 13.5104C6.76678 13.9151 7.11271 14.1982 7.57927 14.3265C8.13686 14.4791 8.69217 14.6427 9.25659 14.7754C10.6221 15.0961 11.8511 15.6689 12.9025 16.5823C12.9936 16.6619 13.0801 16.7437 13.1711 16.8233C13.1188 16.8499 13.0892 16.8432 13.0619 16.8366C11.9785 16.5336 10.8725 16.3943 9.74818 16.3899C9.30666 16.3899 8.86286 16.4076 8.44865 16.5867C8.17555 16.7039 8.13003 16.7924 8.27114 17.0489C8.39631 17.2745 8.54879 17.4912 8.72859 17.677C9.14962 18.1127 9.62983 18.4953 9.98487 18.9929C10.126 19.1897 10.2876 19.3755 10.4423 19.5635C10.9658 20.196 11.6372 20.499 12.4792 20.4149C12.6886 20.395 12.9003 20.3729 13.1119 20.3685C13.1757 20.3685 13.2872 20.4127 13.294 20.4525C13.3509 20.7798 13.4647 21.1116 13.2986 21.4367C13.1415 21.7463 12.9845 22.0603 12.8024 22.3567C12.5407 22.7813 12.3654 23.2347 12.279 23.719C12.0104 25.2362 12.0946 26.74 12.4838 28.2262C12.8616 29.6682 13.4397 31.0371 14.1543 32.3486C14.7028 33.3549 15.2945 34.339 15.8703 35.332C15.9386 35.4492 16.0251 35.5576 16.1047 35.6704C16.1411 34.9162 16.1798 34.1776 16.1297 33.4433C16.0797 32.7069 15.8726 31.997 15.5016 31.3269C15.6723 31.4131 15.8225 31.5104 15.9431 31.6365C16.5508 32.2712 16.9331 33.0386 17.2745 33.8237C17.7297 34.8698 18.0665 35.9557 18.3373 37.0593C18.3624 37.1566 18.3988 37.2517 18.4466 37.3932C18.722 36.9951 18.9609 36.6346 19.2158 36.2852C19.9965 35.217 20.7862 34.1555 21.5691 33.0873C21.9833 32.5211 22.4066 31.9594 22.5887 31.2716C22.6592 31.004 22.8117 30.8071 23.0325 30.6501C23.606 30.2476 24.2455 29.9734 24.9397 29.8783C25.5587 29.792 26.1914 29.7964 26.8195 29.7611C26.9288 29.7544 27.038 29.7456 27.1473 29.7389C27.0813 29.6527 27.0084 29.6018 26.9311 29.5576C26.1618 29.102 25.3266 28.7924 24.4595 28.569C23.8222 28.4054 23.1759 28.2771 22.5113 28.3014C22.3383 28.3081 22.245 28.2837 22.2382 28.1046C22.2382 28.0604 22.2223 28.0161 22.2086 27.9409C23.9929 27.8834 25.7021 28.0869 27.2929 28.9162C27.252 28.8543 27.2065 28.8167 27.1587 28.7835C25.5496 27.7242 23.7881 27.0298 21.8741 26.698C21.8058 26.687 21.733 26.6626 21.6806 26.6206C21.56 26.5233 21.4439 26.4172 21.3392 26.3066C21.2641 26.227 21.205 26.1297 21.139 26.0412C21.1503 26.0257 21.1617 26.008 21.1731 25.9925C21.4075 25.9771 21.6397 25.9505 21.8741 25.9505C22.7139 25.9505 23.5537 25.9638 24.3957 25.966C24.8168 25.966 25.1946 25.8488 25.4973 25.548C25.6589 25.3888 25.8204 25.2317 25.9798 25.0703C26.2415 24.8049 26.3644 24.4953 26.3211 24.1237C26.2847 23.8009 26.064 23.6062 25.8227 23.4205C25.0489 22.8256 24.2797 22.2284 23.5104 21.6291C23.3261 21.4875 23.21 21.3062 23.1964 21.074C23.1736 20.6914 23.1554 20.3066 23.1349 19.9085C23.1144 19.9151 23.1304 19.9063 23.1463 19.9063C23.1941 19.9063 23.2419 19.9063 23.2897 19.9129C24.0521 19.9859 24.6848 19.7581 25.1445 19.1411C25.2378 19.0172 25.3402 18.9022 25.4313 18.7762C25.6907 18.4223 25.9638 18.0795 26.3143 17.8008C26.4736 17.6726 26.5988 17.4979 26.7194 17.3276C26.8969 17.0777 26.9698 16.7968 26.9379 16.4916C26.9265 16.381 26.8833 16.3102 26.774 16.2881C26.5555 16.2461 26.3348 16.182 26.1163 16.1842C24.4253 16.2019 22.8299 16.6199 21.3096 17.3254C21.1594 17.3939 21.007 17.4581 20.859 17.5222C20.6496 17.1661 20.6428 17.1573 20.9205 16.9096C21.9355 15.9962 23.0621 15.2376 24.3593 14.7555C25.5177 14.3243 26.7171 14.1672 27.9552 14.3088C28.242 14.3419 28.5424 14.4127 28.8155 14.3596C29.694 14.1893 30.3881 13.705 30.9093 13.0084C31.0663 12.8005 31.1164 12.5174 31.2165 12.2697V11.5996C31.1551 11.4293 31.0937 11.259 31.0322 11.0909L31.0299 11.0887ZM11.4961 7.88193C11.512 7.88856 11.5256 7.8952 11.5416 7.90183C11.512 7.98808 11.4824 8.07654 11.4528 8.1628C11.3231 8.53434 11.1478 8.89704 11.0773 9.27743C11.0249 9.54945 10.9112 9.66667 10.6585 9.72859C10.4332 9.78388 10.217 9.87235 9.99853 9.94533C9.98715 9.93206 9.97577 9.91658 9.96211 9.90331C10.6472 9.35262 10.9294 8.51665 11.4961 7.88193ZM9.2748 5.80304C9.293 5.80747 9.31349 5.81189 9.33169 5.81852C9.30894 5.90699 9.28845 5.99987 9.25887 6.08613C8.86514 7.23615 8.66259 8.41934 8.61024 9.62907C8.59659 9.93648 8.49872 10.1864 8.21879 10.3788C8.04355 10.5004 7.92748 10.7017 7.7841 10.8676C7.73858 10.9206 7.69534 10.9759 7.64982 11.029C7.69079 9.12483 8.22562 7.38432 9.2748 5.80304ZM10.2034 14.5078C9.88473 14.4193 9.56839 14.3287 9.24976 14.2402C8.74452 14.1009 8.23927 13.9571 7.73175 13.8266C7.48596 13.7647 7.2834 13.6608 7.15595 13.4396C6.66436 12.5926 6.21374 11.7323 6.04077 10.7614C5.92015 10.0758 5.94974 9.39686 6.18415 8.72233C6.21829 8.91252 6.2456 9.10493 6.28657 9.29291C6.41174 9.85465 6.51871 10.4208 6.67802 10.9737C6.96933 11.9932 7.60885 12.7872 8.48507 13.391C8.98576 13.736 9.52514 14.0301 10.0463 14.3486C10.1055 14.384 10.1647 14.4216 10.2261 14.4569C10.2193 14.4746 10.2125 14.4901 10.2056 14.5078H10.2034ZM12.7546 19.9262C12.7478 19.9107 12.065 20.081 11.8352 19.8112C11.421 19.8819 10.8884 19.2605 10.7223 18.858C11.421 18.8779 11.6622 18.7209 11.7077 18.1967C11.6144 18.2454 11.5302 18.2852 11.4483 18.3294C11.1729 18.4798 10.8884 18.4887 10.6153 18.3405C10.2625 18.1503 9.99625 17.8672 9.83011 17.5111C9.64804 17.1197 9.80735 16.8875 10.2489 16.9007C10.8338 16.9184 11.3504 17.1484 11.8488 17.4249C12.2585 17.6527 12.5999 17.949 12.8752 18.3272C13.0027 18.5041 13.1939 18.639 13.3737 18.7739C13.467 18.8447 13.5603 18.8115 13.6103 18.6877C13.6855 18.5019 13.7719 18.3206 13.863 18.1414C13.888 18.095 13.9563 18.0242 13.9836 18.0331C14.0359 18.0485 14.0951 18.106 14.1133 18.1591C14.1748 18.3427 14.2157 18.5329 14.2704 18.7187C14.3113 18.8646 14.3477 19.015 14.4046 19.1565C14.4888 19.3711 14.6322 19.5303 14.9167 19.5458C14.6072 19.8178 14.3113 20.0744 14.0177 20.3309C14.0018 20.2911 13.9859 20.2513 13.9677 20.2137C13.8721 19.9969 13.7059 19.8797 13.4601 19.8908C13.2257 19.8996 12.9913 19.9151 12.7569 19.9262H12.7546ZM16.4916 21.2443C16.4142 21.6247 16.2754 21.994 16.1707 22.3456C16.1707 22.3456 16.0751 23.1573 15.8885 23.5266C15.7565 23.7876 15.6199 24.0463 15.4971 24.3117C14.787 25.8355 14.7938 27.3748 15.4106 28.9184C15.6609 29.5487 15.9408 30.1658 16.2048 30.7917C16.2299 30.8492 16.2458 30.9089 16.2663 30.9664C16.2549 30.9752 16.2413 30.9863 16.2299 30.9951C16.1388 30.9354 16.0319 30.8867 15.9545 30.8116C15.1989 30.0773 14.4752 29.3121 14.0314 28.3567C12.939 26.0036 12.9799 23.677 14.2999 21.4079C14.5753 20.9347 14.944 20.5255 15.3833 20.1849C15.6222 19.9992 15.8794 19.851 16.1866 19.7957C16.3983 19.7581 16.4393 19.778 16.4962 19.9837C16.61 20.4039 16.5758 20.8285 16.4916 21.2421V21.2443ZM17.5749 18.6346C17.0651 18.5882 16.5531 18.5506 16.0455 18.4886C15.7428 18.4511 15.5676 18.2719 15.5335 17.9623C15.4447 17.1772 15.0555 16.5181 14.5913 15.8923C14.5161 15.7905 14.4456 15.6844 14.3728 15.5804C14.8279 15.7662 15.1488 16.0802 15.4151 16.4518C15.868 17.0821 16.371 17.6615 17.0378 18.0928C17.2495 18.2299 17.427 18.4223 17.6182 18.5882C17.5931 18.6169 17.584 18.6324 17.5772 18.6324L17.5749 18.6346ZM22.245 17.9446C22.5409 17.6593 22.8504 17.3873 23.1668 17.1263C23.6265 16.7459 24.2046 16.6663 24.7713 16.5823C25.0853 16.5358 25.4085 16.5447 25.7271 16.5358C25.7954 16.5358 25.866 16.5624 25.9411 16.5756C25.9183 16.7747 25.7931 16.8853 25.6384 16.9538C25.4472 17.0379 25.2424 17.0976 25.0444 17.1683C24.9374 17.2059 24.8327 17.2435 24.6871 17.2966C24.8145 17.3696 24.9078 17.4227 25.0125 17.4824C24.8031 17.8407 24.4913 18.0441 24.1067 18.1658C24.6142 18.1879 25.0785 18.1083 25.3653 17.6505C25.4973 17.4404 25.6907 17.3983 25.9433 17.3718C25.891 17.4669 25.8614 17.5443 25.8113 17.6062C25.3789 18.1348 24.9465 18.6612 24.5073 19.1831C24.3184 19.4065 24.0566 19.4861 23.7721 19.4308C23.4831 19.3733 23.2009 19.2848 22.921 19.1986C22.6911 19.1278 22.4703 19.0327 22.2405 18.9619C22.0652 18.9088 22.0129 18.7828 21.9901 18.6302C21.9492 18.3582 22.0561 18.126 22.2473 17.9424L22.245 17.9446ZM18.6582 21.3703C18.92 21.3925 19.1817 21.4168 19.4411 21.4345C19.4912 21.4389 19.5436 21.4146 19.5936 21.4013C19.6027 21.3814 19.6141 21.3637 19.6232 21.3438C19.5436 21.2885 19.473 21.2133 19.3865 21.1824C19.2113 21.1204 19.0247 21.0895 18.8471 21.032C18.6059 20.9501 18.4033 20.8152 18.3009 20.5764C18.2759 20.5189 18.2713 20.457 18.2509 20.3773C18.7015 20.3641 19.1271 20.3508 19.5367 20.5056C19.9646 20.6671 20.1603 21.0165 20.3083 21.4345C19.7256 21.6048 19.1817 21.6844 18.656 21.3725L18.6582 21.3703ZM24.398 14.3154C23.5241 14.6405 22.6319 14.9258 21.783 15.304C20.9364 15.6822 20.133 16.1532 19.3091 16.5845L19.2705 16.5447C19.4503 16.3478 19.6187 16.1377 19.8121 15.9542C20.4107 15.3902 21.0502 14.8816 21.8422 14.5941C22.0152 14.5321 22.0971 14.4039 22.1335 14.2402C22.2837 13.5458 22.4317 12.8513 22.5841 12.1436C22.8003 12.4709 22.9801 12.8248 23.0894 13.2096C23.1463 13.4175 23.169 13.6364 23.2168 13.8488C23.2419 13.9571 23.2123 14.0257 23.1099 14.0766C23.0143 14.123 22.9255 14.1871 22.8345 14.2867H24.4026C24.4026 14.2867 24.4003 14.3066 24.398 14.3154ZM25.7567 12.4444C25.7385 12.7673 25.6975 13.088 25.668 13.4087C25.652 13.5922 25.5542 13.6763 25.3653 13.694C25.0922 13.7183 24.8191 13.7603 24.5027 13.8001C25.1058 12.869 25.5041 11.8937 25.7613 10.8609C25.7795 10.8609 25.7977 10.8653 25.8182 10.8653C25.8 11.3917 25.7863 11.9181 25.7567 12.4444ZM28.2716 13.6763C28.2078 13.7227 28.0986 13.7249 28.0098 13.7227C27.3817 13.7028 26.7558 13.6785 26.1277 13.6541C26.1118 13.6541 26.0958 13.6453 26.0594 13.632C26.3462 13.3202 26.6443 13.0437 26.8856 12.7231C27.1222 12.409 27.2975 12.053 27.5182 11.6881C27.4818 12.2564 27.2702 12.7562 27.12 13.287C27.912 13.2207 28.6243 12.9641 29.3071 12.5992C29.0089 13.0128 28.6789 13.3843 28.2693 13.6785L28.2716 13.6763Z" fill="white"/>
</g>
<defs>
<clipPath id="clip0_11479_197528">
<rect width="25.7857" height="35.2857" fill="white" transform="translate(5.42859 2.10715)"/>
</clipPath>
</defs>
</svg>
