<svg width="38" height="39" viewBox="0 0 38 39" fill="none" xmlns="http://www.w3.org/2000/svg">
<g clip-path="url(#clip0_11291_166160)">
<path d="M22.2399 11.8228C21.7878 12.7585 21.163 13.5465 20.3492 14.1975C19.3627 14.9908 18.1953 15.3572 16.954 15.5522C15.34 15.8052 14.0137 16.4615 13.2136 17.9164C13.0656 18.1878 12.808 18.4171 12.5587 18.6201C12.2243 18.8968 11.8407 19.1156 11.4927 19.3791C10.6295 20.0354 10.2541 20.8841 10.4596 21.9383C10.7364 23.351 11.7969 24.1338 12.9861 24.8085C12.8957 24.6504 12.7834 24.5081 12.671 24.3684C12.1997 23.778 11.7393 23.1823 11.542 22.4417C11.2872 21.4797 11.5585 20.8287 12.4326 20.3122C12.5422 20.2463 12.6546 20.1804 12.7697 20.1198C13.589 19.706 14.2439 19.1261 14.7152 18.3565C14.8029 18.2142 14.9125 18.0798 15.0221 17.9506C15.4414 17.4525 16.0251 17.2364 16.6307 17.0598C17.0773 18.0192 17.1102 19.6269 16.7293 20.5889C16.6334 20.8314 16.4416 20.8788 16.2087 20.9104C16.5485 19.4529 16.5978 18.5911 16.3676 18.1167C16.3868 19.0629 16.1511 19.9353 15.7182 20.776C15.4332 21.3295 14.907 21.3796 14.3809 21.4956C14.5097 21.3084 14.644 21.1239 14.8248 21.0001C15.5017 20.5362 15.8607 19.901 15.9922 19.1156C15.7675 19.4424 15.5537 19.756 15.34 20.0697C15.5291 19.3185 15.9566 18.6016 15.4222 17.8426C15.5181 18.3433 15.4688 18.6623 15.1564 19.1973C14.5974 20.1514 13.863 20.9711 13.0601 21.7407C12.7505 22.0385 12.4573 22.3495 12.1641 22.6473C12.5751 22.6473 13.0108 22.6869 13.4355 22.6394C14.5919 22.5103 15.6579 22.0754 16.7348 21.6748C17.1924 21.5035 17.4445 21.2214 17.5377 20.7787C17.5897 20.5335 17.6473 20.2884 17.6665 20.0407C17.7514 18.9548 17.5267 17.9322 16.891 16.9649C18.2584 16.6539 19.5216 16.2164 20.5355 15.2728C21.5713 14.3082 22.366 12.7242 22.2345 11.8149L22.2399 11.8228Z" fill="white"/>
<path d="M24.9474 12.993C24.7501 12.7058 24.4679 12.4685 24.1993 12.234C24.0678 12.118 23.8815 12.0627 23.7198 11.981C23.7088 11.9994 23.6979 12.0179 23.6869 12.0363C24.0897 12.3394 24.35 12.7427 24.5309 13.1881C24.8734 14.0262 25.1995 14.8696 25.5311 15.713C25.5859 15.8553 25.6325 16.0029 25.6955 16.1742C25.5311 16.1637 25.4105 16.1479 25.2899 16.1531C25.0406 16.1611 24.9611 16.0398 24.8899 15.8158C24.7118 15.2623 24.4788 14.722 24.2624 14.1791C24.2295 14.0947 24.1664 14.0209 24.1116 13.9445C24.0596 13.8707 23.9993 13.7995 23.9417 13.7284C24.2678 14.4743 24.4131 15.2386 24.3857 16.0425C23.8184 15.9766 23.8376 15.9739 23.739 15.4653C23.6595 15.0541 23.5307 14.6508 23.4238 14.245C23.4129 14.2502 23.3992 14.2555 23.3882 14.2634C23.3636 14.7932 23.3389 15.3256 23.3115 15.8817C23.095 15.8237 22.9553 15.7868 22.8018 15.7446C22.8922 15.033 22.8895 14.3451 22.5305 13.7047C22.6292 14.3583 22.525 14.975 22.2346 15.5997C22.0428 15.5074 21.8783 15.4284 21.7057 15.3493C21.9496 14.9039 22.0345 14.4716 21.8619 14.013C21.7989 14.4558 21.6235 14.8353 21.3001 15.1622C21.1248 15.3414 21.1385 15.5575 21.3495 15.7104C21.6509 15.9318 21.9605 16.1584 22.3031 16.3086C23.5965 16.8753 24.9721 17.0809 26.386 17.0545C26.5477 17.0519 26.7094 17.0387 26.8848 17.0282C26.8656 16.9438 26.8546 16.8964 26.8409 16.849C26.4408 15.4573 25.7667 14.1896 24.9474 12.993Z" fill="white"/>
<path d="M12.164 4.78834C12.164 4.78834 12.1421 4.80152 12.1284 4.80943C12.1448 4.79889 12.1558 4.79361 12.1695 4.78571L12.164 4.78834C12.2161 4.75672 12.2572 4.73563 12.2572 4.73563C11.6954 2.8617 10.1061 2.15536 8.33041 1.60715C8.38796 2.05257 8.47291 2.45582 8.48935 2.8617C8.53045 3.93704 8.1523 4.8885 7.48916 5.74771C6.37662 7.1894 5.67238 8.79185 5.4696 10.5814C5.3271 11.8518 5.54906 13.0563 6.26153 14.158C6.28893 14.2028 6.31359 14.2529 6.33003 14.3056C7.55492 8.02752 11.1474 5.42089 12.0489 4.85687C12.0599 4.8516 12.1476 4.79625 12.164 4.78571V4.78834ZM12.0489 4.85687C12.0626 4.84633 12.0763 4.84106 12.09 4.83051C12.0763 4.83842 12.0626 4.84633 12.0489 4.85687Z" fill="white"/>
<path d="M20.8342 31.0075C21.8947 30.5647 22.8538 29.9717 23.7252 29.2417C23.7032 29.21 23.6923 29.1863 23.6758 29.1705C21.944 27.5364 19.9025 26.4716 17.5048 26.042C16.6718 25.8918 15.8278 25.7811 15.0112 25.565L14.7235 25.4833C14.6522 25.4622 14.5782 25.4411 14.507 25.4174L14.4357 25.3937C14.3042 25.3488 14.1754 25.3014 14.0466 25.2487C14.0384 25.2461 14.0274 25.2487 14.0137 25.2513L13.6959 25.1459C13.6959 25.1459 12.0408 25.7126 12.0764 28.1769C12.0572 28.4193 12.0408 28.6645 12.0216 28.9069C11.9421 29.9902 12.0243 31.0602 12.3093 32.1092C12.671 33.4402 13.3232 34.6078 14.4686 35.4775C15.3784 36.1681 16.4553 36.5212 17.5267 36.8902C17.5349 36.8929 17.5541 36.8744 17.5733 36.8639C17.2664 35.1534 16.6087 33.5746 15.5209 32.075C16.0196 31.9959 16.4416 31.8905 16.8663 31.8667C18.2392 31.785 19.5682 31.5347 20.8342 31.0049V31.0075ZM14.4138 34.2098C14.4138 34.1914 14.4165 34.1729 14.4193 34.1518C14.4248 34.1755 14.4302 34.2045 14.4357 34.2362C14.4275 34.2283 14.422 34.2177 14.4138 34.2098ZM15.5236 32.1277C15.773 32.8577 15.9977 33.5193 16.247 34.2493C15.7209 34.0174 15.3181 33.7486 14.9509 33.4007C14.9838 33.4692 15.0139 33.5404 15.0523 33.6063C15.3345 34.0675 15.699 34.4576 16.1676 34.7422C16.321 34.8345 16.406 34.9399 16.4306 35.1086C16.4553 35.2799 16.5019 35.4486 16.5402 35.6172C16.5211 35.6383 16.5019 35.6568 16.4827 35.6779C16.0552 35.4248 15.6277 35.1692 15.1948 34.9241C14.6796 34.6315 14.507 34.2151 14.644 33.6563C14.7399 33.2557 14.8166 32.8525 15.0906 32.523C15.1975 32.3965 15.3373 32.2963 15.5181 32.1303L15.5236 32.1277Z" fill="white"/>
<path d="M30.4772 6.51994C30.8992 6.07979 31.1596 5.56057 31.2061 4.94911C31.2527 4.34028 30.9897 3.86587 30.3841 3.67347C29.7675 3.47843 29.1318 3.33084 28.4933 3.21223C27.1561 2.96449 25.8106 2.74837 24.4706 2.5217C24.4377 2.51643 24.4021 2.51643 24.3665 2.50852C24.0815 2.44 23.9061 2.5138 23.8239 2.81689C23.7691 3.01983 23.6266 3.20169 23.4704 3.38619V2.43209H22.3168C22.2401 3.19642 22.0318 3.9344 21.5687 4.53532C21.5249 4.04509 21.5139 3.51533 21.4207 3.00402C21.3906 2.83534 21.3632 2.71674 21.3303 2.6324C21.9633 2.47426 22.3168 2.43473 22.3168 2.43473C22.3168 2.43473 21.8455 2.39783 21.059 2.44263C20.9631 2.43736 20.8425 2.44263 20.6699 2.45845C20.352 2.4848 20.0342 2.53224 19.6341 2.57969C19.6341 2.58232 19.6341 2.58496 19.6368 2.58759C18.9627 2.68511 18.1927 2.83798 17.3624 3.07782C17.3186 3.08836 17.2775 3.10154 17.2336 3.11472C15.0305 3.76572 12.4245 5.015 10.098 7.40287C9.49792 8.01697 8.99098 8.65216 8.56076 9.29789C8.56076 9.29789 8.56076 9.29789 8.55802 9.29789C6.1055 12.993 6.23977 17.0993 7.19612 20.1408C7.21256 20.2805 7.25366 20.4255 7.33313 20.5783C7.34135 20.5942 7.34957 20.6073 7.35779 20.6205C7.62634 21.3743 7.93872 22.0517 8.27303 22.6289C8.57994 22.5445 8.87041 22.4628 9.16087 22.3837C9.17457 22.4101 9.18553 22.4391 9.19924 22.4655C9.14443 22.505 9.08689 22.5419 9.03482 22.5841C8.67585 22.8503 8.61008 23.1797 8.84848 23.5434C9.51162 24.5608 10.32 25.4648 11.2298 26.2845L11.997 26.9566L11.6161 25.2487C11.4216 23.72 10.1145 23.1454 9.83771 21.7327C9.63219 20.6785 10.0103 19.8298 10.8708 19.1736C11.2188 18.91 11.5997 18.6886 11.9367 18.4145C12.1834 18.2116 12.4409 17.9823 12.5917 17.7108C13.3918 16.2533 14.7154 15.597 16.3321 15.3466C17.5734 15.1516 18.7408 14.7853 19.7273 13.9919C20.5411 13.3383 21.1659 12.5529 21.618 11.6172C21.6537 11.3352 21.7523 11.1903 21.8729 11.1191C21.5495 10.7343 21.3385 10.2441 21.2728 9.67478C21.1851 8.90781 21.3139 8.15666 21.4098 7.40551C21.4728 6.90211 21.5413 6.39343 21.6591 5.90057C21.7276 5.60538 21.8756 5.32073 22.0291 5.05453C22.1606 4.82524 22.3771 4.6671 22.7388 4.59857C22.1633 4.93066 22.0263 5.41561 22.0071 5.92956C21.9715 6.94955 21.9441 7.96953 21.9688 8.98688C21.977 9.37695 22.0894 9.78284 22.2346 10.1518C22.4757 10.7765 22.9991 11.0875 23.6787 11.1349C25.0598 11.2272 26.2764 10.8028 27.2876 9.91726C27.8082 9.45866 28.3508 9.0475 28.9619 8.73913C29.3181 8.71278 29.8059 8.6179 29.8059 8.6179C30.5156 8.50193 30.9349 8.06178 30.8362 7.60845C30.5786 7.49249 29.9922 7.36334 29.762 7.55047C29.5236 7.74287 29.2661 7.91418 29.0167 8.09604C28.9509 8.14348 28.8084 8.24364 28.6906 8.33061C28.8249 8.17248 28.9345 8.03542 29.0578 7.91418C29.5291 7.44768 30.0251 7.00226 30.4855 6.52258L30.4772 6.51994ZM8.3525 20.8735C8.65119 21.0501 8.90055 21.2004 9.17183 21.3611C8.79642 21.4138 8.46211 21.4428 8.1415 21.514C8.05929 21.5324 7.99627 21.5562 7.95242 21.5852C7.88392 21.3269 7.80993 21.029 7.73869 20.6943C8.04285 20.5704 8.35524 20.465 8.67585 20.3859C8.84848 20.3438 9.0403 20.378 9.28692 20.378C8.93891 20.5625 8.66215 20.7075 8.3525 20.8709V20.8735ZM20.0643 7.43977C20.2205 7.74287 20.3822 8.04333 20.4973 8.37015C20.3301 8.13821 20.163 7.90628 19.9547 7.61899C19.8204 8.45712 19.6944 9.22145 19.3655 9.97261C19.3984 9.4692 19.4368 9.00533 19.4615 8.54146C19.4724 8.34906 19.4615 8.15666 19.456 7.96426C19.4176 6.91265 19.5546 7.19466 18.6777 6.54103C18.3791 6.317 18.042 6.14568 17.683 5.92429C17.705 6.25638 17.7461 6.53575 17.7378 6.81513C17.7159 7.67434 17.6748 8.53356 17.6474 9.39013C17.6474 9.47447 17.6721 9.56672 17.7132 9.64052C17.8365 9.87509 17.9735 10.1018 18.0612 10.3548C17.9187 10.1755 17.7735 9.99369 17.6036 9.7802C17.4529 10.5551 17.3213 11.2799 16.9706 11.9493C17.1569 11.1639 17.1843 10.3679 17.1542 9.56936C17.1514 9.48501 17.1268 9.37432 17.0692 9.32424C16.4554 8.81293 15.7621 8.4255 15.0688 8.09341C15.0688 8.86564 15.0688 9.62997 15.0688 10.3969C15.0688 10.5814 15.0606 10.7659 15.0305 10.9452C14.9757 11.2851 14.9949 11.5909 15.236 11.8782C15.3812 12.0521 15.4525 12.284 15.5182 12.5107C15.3401 12.2788 15.162 12.0442 14.9565 11.7754C14.8496 12.2261 14.7592 12.6109 14.666 12.9957C14.6496 12.9957 14.6359 12.9904 14.6194 12.9878C14.6386 12.682 14.6468 12.3763 14.6825 12.0732C14.7236 11.7306 14.6468 11.4644 14.3098 11.272C13.7234 10.9399 13.1534 10.5762 12.5095 10.1861C12.5095 10.3653 12.5095 10.4523 12.5095 10.5366C12.5122 11.4143 12.5259 12.2893 12.5095 13.167C12.5067 13.4016 12.5451 13.586 12.7369 13.7363C12.8273 13.8074 12.8958 13.8997 12.9424 14.013C12.8027 13.9234 12.6629 13.8338 12.4848 13.7205C12.4656 13.9577 12.4492 14.1659 12.43 14.3741H12.3752C12.3505 14.1764 12.3122 13.984 12.3067 13.7916C12.3039 13.6335 12.2272 13.5544 12.0875 13.4964C11.6655 13.3225 11.2462 13.1459 10.8215 12.9667C10.9557 13.8812 11.0873 14.7642 11.2106 15.5944C11.1585 15.8105 11.1147 15.9924 11.0681 16.1821C11.0626 16.1742 11.0489 16.1663 11.0489 16.1558C10.9667 15.5232 10.9694 15.5153 10.309 15.4468C9.9665 15.4099 9.62123 15.402 9.2376 15.3783C9.37461 15.6629 9.49244 15.9028 9.59931 16.1452C9.70344 16.3824 9.80483 16.6223 9.8843 16.87C9.96651 17.1257 9.97199 17.4103 10.0926 17.6423C10.2159 17.8795 10.0323 18.093 10.1611 18.3038C10.1391 18.3091 10.1145 18.3144 10.0926 18.317C10.0405 18.1773 9.99117 18.0402 9.91718 17.8399C9.52258 17.977 9.13073 18.114 8.70873 18.2616C9.05674 18.7545 9.37735 19.2078 9.29788 19.8008C9.13621 19.3633 8.85671 19.0207 8.46759 18.7492C8.28947 18.6254 8.1552 18.6095 8.00723 18.7809C7.85652 18.9522 7.6921 19.1129 7.53317 19.279C7.51947 19.2922 7.51124 19.3053 7.50028 19.3185C7.42082 18.7413 7.36053 18.1114 7.34135 17.4499C7.6373 17.5922 7.9305 17.7371 8.22645 17.8768C8.27029 17.8979 8.32784 17.9032 8.37442 17.8979C8.86493 17.8294 9.35269 17.7582 9.85964 17.6844C9.5171 16.9096 9.01564 16.2085 8.36894 15.6076C8.33058 15.5707 8.22645 15.5707 8.16342 15.5891C7.90036 15.6682 7.63456 15.7393 7.37697 15.8342C7.43178 15.1252 7.54139 14.4005 7.72498 13.673C8.08122 13.9524 8.40182 14.2713 8.68955 14.6271C8.73065 14.6798 8.80464 14.7299 8.87041 14.7404C9.57465 14.8485 10.2515 15.0435 10.8845 15.3914C10.89 15.3519 10.9009 15.3282 10.8954 15.3071C10.7009 14.4479 10.383 13.6308 9.9391 12.8639C9.90896 12.8138 9.84045 12.7637 9.78017 12.7532C9.20472 12.6557 8.632 12.6003 8.05107 12.6109C8.36072 11.7596 8.79094 10.9214 9.36913 10.1334C9.72262 10.563 10.0049 11.0242 10.2104 11.5303C10.4132 12.031 10.7009 12.3842 11.2188 12.6082C11.5805 12.7664 11.8929 13.0273 12.2519 13.2619C12.2299 13.0853 12.2135 12.9377 12.1916 12.7901C12.0601 11.8571 11.9039 10.9293 11.575 10.0385C11.5449 9.95943 11.4928 9.854 11.4243 9.83028C10.9393 9.65897 10.446 9.52719 9.93362 9.43494C10.2241 9.10549 10.5474 8.78921 10.9009 8.48348C11.2078 8.21992 11.512 7.9669 11.8134 7.72442C11.8847 7.89573 11.9559 8.06178 12.0189 8.23046C12.1477 8.57309 12.1477 8.98952 12.356 9.26889C12.5697 9.55881 12.978 9.70641 13.2822 9.94361C13.7426 10.3047 14.1837 10.6869 14.6331 11.0585C14.6359 11.0479 14.6468 11.0321 14.6441 11.0189C14.5646 9.90144 14.3673 8.80502 14.0248 7.73233C14.0056 7.67171 13.9371 7.60318 13.8768 7.58473C13.4329 7.44241 12.989 7.30272 12.5369 7.1604C13.2411 6.62537 13.9234 6.14568 14.5783 5.72398C14.677 6.17995 14.7756 6.628 14.8798 7.07079C14.8962 7.14195 14.9538 7.22102 15.014 7.26846C15.7183 7.80612 16.4253 8.34116 17.1295 8.87355C17.0665 7.9669 16.9349 7.02598 16.6445 6.11669C16.3705 5.26011 16.5924 5.44724 15.669 5.19949C15.6114 5.18368 15.5539 5.16787 15.4963 5.15469C16.1293 4.77779 16.7294 4.45361 17.2939 4.1716C17.3953 4.79361 17.6666 5.28383 18.2667 5.57639C18.2969 5.5922 18.3215 5.61856 18.3462 5.63964C18.6695 5.92429 18.9929 6.2063 19.3546 6.52258C19.3107 6.22739 19.2806 5.97437 19.234 5.72135C19.0997 4.98074 18.9353 4.2454 18.6147 3.5575C19.0806 3.35983 19.5053 3.19906 19.8944 3.062C19.9163 3.09363 19.9355 3.12789 19.9602 3.15689C20.3109 3.5944 20.5767 4.06354 20.6699 4.61439C20.6891 4.72508 20.6863 4.83841 20.6946 4.97547C20.4836 4.63811 20.289 4.33237 20.0945 4.02401L20.0177 4.04773C20.0177 4.10835 20.0177 4.16633 20.0177 4.22695C20.0095 5.22058 19.9985 6.21157 19.9958 7.2052C19.9958 7.28163 20.0259 7.36334 20.0616 7.4345L20.0643 7.43977ZM27.8165 5.71344C27.8548 5.61592 27.8795 5.50786 27.8795 5.39717C27.8795 4.89903 27.4602 4.49315 26.9396 4.49315C26.4189 4.49315 25.9997 4.8964 25.9997 5.39717C25.9997 5.89793 26.4189 6.30118 26.9396 6.30118C26.9971 6.30118 27.0519 6.29328 27.1067 6.28537C26.9588 6.33808 26.7998 6.36971 26.6327 6.36971C25.9038 6.36971 25.3146 5.82677 25.2653 5.13887C25.2626 5.11252 25.2571 5.08616 25.2571 5.05717C25.2571 5.0519 25.2571 5.04926 25.2571 5.04399C25.2571 5.03609 25.2571 5.03081 25.2571 5.02554C25.2571 4.95702 25.2626 4.88585 25.279 4.81206C25.3941 4.19005 25.9558 3.71827 26.6327 3.71827C27.3945 3.71827 28.011 4.31129 28.011 5.04399C28.011 5.28911 27.937 5.51577 27.8165 5.71344ZM28.57 8.46503C28.57 8.46503 28.57 8.46239 28.5728 8.45976C28.5728 8.45976 28.5728 8.46239 28.5728 8.46503C28.5728 8.46503 28.5728 8.46503 28.57 8.46503Z" fill="white"/>
</g>
<defs>
<clipPath id="clip0_11291_166160">
<rect width="25.7857" height="35.2857" fill="white" transform="translate(5.42859 1.60715)"/>
</clipPath>
</defs>
</svg>
