<svg width="14" height="14" viewBox="0 0 14 14" fill="none" xmlns="http://www.w3.org/2000/svg">
<path d="M7 14C10.866 14 14 10.866 14 7C14 3.13401 10.866 0 7 0C3.13401 0 0 3.13401 0 7C0 10.866 3.13401 14 7 14Z" fill="#F0F0F0"/>
<path d="M1.4471 2.73828C0.897242 3.45368 0.482629 4.27823 0.241211 5.17398H3.8828L1.4471 2.73828Z" fill="#0052B4"/>
<path d="M13.7587 5.17396C13.5173 4.27823 13.1027 3.45368 12.5528 2.73828L10.1172 5.17396H13.7587Z" fill="#0052B4"/>
<path d="M0.241211 8.82617C0.482656 9.7219 0.897269 10.5464 1.4471 11.2618L3.88271 8.82617H0.241211Z" fill="#0052B4"/>
<path d="M11.2618 1.44713C10.5464 0.89727 9.72193 0.482656 8.82617 0.241211V3.88277L11.2618 1.44713Z" fill="#0052B4"/>
<path d="M2.73828 12.5528C3.45368 13.1027 4.27823 13.5173 5.17395 13.7587V10.1172L2.73828 12.5528Z" fill="#0052B4"/>
<path d="M5.17393 0.241211C4.2782 0.482656 3.45365 0.897269 2.73828 1.4471L5.17393 3.88274V0.241211Z" fill="#0052B4"/>
<path d="M8.82617 13.7587C9.7219 13.5173 10.5464 13.1027 11.2618 12.5528L8.82617 10.1172V13.7587Z" fill="#0052B4"/>
<path d="M10.1172 8.82617L12.5528 11.2618C13.1027 10.5465 13.5173 9.7219 13.7587 8.82617H10.1172Z" fill="#0052B4"/>
<path d="M13.9407 6.08696H7.91309H7.91306V0.0592539C7.61417 0.0203438 7.30945 0 7 0C6.6905 0 6.38583 0.0203438 6.08696 0.0592539V6.08691V6.08694H0.0592539C0.0203438 6.38583 0 6.69055 0 7C0 7.3095 0.0203438 7.61417 0.0592539 7.91303H6.08691H6.08694V13.9407C6.38583 13.9797 6.6905 14 7 14C7.30945 14 7.61417 13.9797 7.91303 13.9407V7.91309V7.91306H13.9407C13.9797 7.61417 14 7.3095 14 7C14 6.69055 13.9797 6.38583 13.9407 6.08696Z" fill="#D80027"/>
<path d="M8.82617 8.8262L11.9498 11.9498C12.0935 11.8062 12.2305 11.6561 12.3613 11.5004L9.68701 8.82617H8.82617V8.8262Z" fill="#D80027"/>
<path d="M5.17396 8.82617H5.1739L2.05029 11.9498C2.1939 12.0934 2.34405 12.2305 2.49969 12.3613L5.17396 9.68693V8.82617Z" fill="#D80027"/>
<path d="M5.17378 5.17402V5.17396L2.05014 2.05029C1.90648 2.1939 1.76943 2.34405 1.63867 2.49969L4.31297 5.17399H5.17378V5.17402Z" fill="#D80027"/>
<path d="M8.82617 5.17381L11.9498 2.05011C11.8062 1.90645 11.6561 1.7694 11.5004 1.63867L8.82617 4.31297V5.17381Z" fill="#D80027"/>
</svg>
