<svg width="20" height="20" viewBox="0 0 20 20" fill="none" xmlns="http://www.w3.org/2000/svg">
<g clip-path="url(#clip0_1424_27352)">
<path d="M17.0714 17.0711C20.9766 13.1658 20.9766 6.83417 17.0714 2.92893C13.1661 -0.976311 6.83446 -0.97631 2.92922 2.92893C-0.976021 6.83418 -0.976021 13.1658 2.92922 17.0711C6.83446 20.9763 13.1661 20.9763 17.0714 17.0711Z" fill="#FEFEFE"/>
<path fill-rule="evenodd" clip-rule="evenodd" d="M3.90963 5.31096C3.89339 5.62426 3.86282 5.93566 3.81506 6.24037C3.79882 6.33875 3.77876 6.43714 3.76444 6.53362C3.95452 6.50974 4.14747 6.49636 4.34806 6.49636C4.54388 6.49636 4.7397 6.50974 4.92978 6.53362C4.91068 6.43714 4.89539 6.33875 4.8782 6.24037C4.83235 5.93566 4.79987 5.62522 4.78841 5.31096C5.20201 5.32911 5.60988 5.38069 6.00534 5.45615C5.98337 5.2632 5.97095 5.07025 5.97095 4.87443C5.97095 4.67861 5.98337 4.48184 6.00534 4.28985C5.60988 4.36531 5.20201 4.41593 4.78841 4.43504C4.80369 4.01953 4.85336 3.6107 4.92978 3.21143C4.74065 3.23626 4.54388 3.24772 4.34806 3.24772C4.14843 3.24772 3.95452 3.23626 3.76444 3.21143C3.83799 3.6107 3.8867 4.01953 3.90963 4.43504C3.49125 4.41498 3.08433 4.36531 2.68506 4.28985C2.7118 4.4828 2.72231 4.67479 2.72231 4.87443C2.72231 5.06929 2.71085 5.2632 2.68506 5.45615C3.08433 5.38069 3.49125 5.32911 3.90963 5.31096Z" fill="#D6253A"/>
<path fill-rule="evenodd" clip-rule="evenodd" d="M15.2153 5.31096C15.2 5.62426 15.1685 5.93566 15.1198 6.24037C15.1074 6.33875 15.0892 6.43714 15.0701 6.53362C15.2593 6.50974 15.456 6.49636 15.6518 6.49636C15.8486 6.49636 16.0444 6.50974 16.2355 6.53362C16.2173 6.43714 16.203 6.33875 16.1877 6.24037C16.1361 5.93566 16.1075 5.62522 16.0912 5.31096C16.5058 5.32911 16.9156 5.38069 17.3148 5.45615C17.2891 5.2632 17.2757 5.07025 17.2757 4.87443C17.2757 4.67861 17.2891 4.48184 17.3148 4.28985C16.9156 4.36531 16.5067 4.41593 16.0912 4.43504C16.1142 4.01953 16.161 3.6107 16.2345 3.21143C16.0444 3.23626 15.8477 3.24772 15.6509 3.24772C15.4551 3.24772 15.2593 3.23626 15.0692 3.21143C15.1446 3.6107 15.1953 4.01953 15.2144 4.43504C14.8008 4.41498 14.3919 4.36531 13.9917 4.28985C14.0156 4.4828 14.028 4.67479 14.028 4.87443C14.028 5.07407 14.0156 5.2632 13.9917 5.45615C14.391 5.38069 14.8008 5.32911 15.2144 5.31096H15.2153Z" fill="#D6253A"/>
<path fill-rule="evenodd" clip-rule="evenodd" d="M4.78841 14.6909C4.79987 14.3757 4.83235 14.0653 4.8782 13.7615C4.89635 13.6641 4.91068 13.5657 4.92978 13.4692C4.74065 13.4922 4.54388 13.5055 4.34806 13.5055C4.15225 13.5055 3.95452 13.4922 3.76444 13.4692C3.77972 13.5657 3.79882 13.6651 3.81506 13.7615C3.86282 14.0653 3.89339 14.3757 3.90963 14.6909C3.49125 14.6699 3.08433 14.6193 2.68506 14.5458C2.7118 14.7368 2.72231 14.9288 2.72231 15.1294C2.72231 15.3252 2.71085 15.521 2.68506 15.7111C3.08433 15.6356 3.49125 15.5869 3.90963 15.5678C3.8867 15.9814 3.83799 16.3893 3.76444 16.7886C3.95452 16.7647 4.14747 16.7532 4.34806 16.7532C4.54866 16.7532 4.7397 16.7656 4.92978 16.7886C4.85336 16.3893 4.80274 15.9814 4.78841 15.5678C5.20201 15.586 5.60988 15.6356 6.00534 15.7111C5.98337 15.522 5.97095 15.3252 5.97095 15.1294C5.97095 14.9336 5.98337 14.7377 6.00534 14.5458C5.60988 14.6193 5.20201 14.6699 4.78841 14.6909Z" fill="#D6253A"/>
<path fill-rule="evenodd" clip-rule="evenodd" d="M16.0922 14.6909C16.1075 14.3757 16.1399 14.0653 16.1877 13.7615C16.202 13.6641 16.2164 13.5657 16.2355 13.4692C16.0454 13.4922 15.8486 13.5055 15.6518 13.5055C15.4551 13.5055 15.2602 13.4922 15.0701 13.4692C15.0892 13.5657 15.1074 13.6651 15.1198 13.7615C15.1676 14.0653 15.2 14.3757 15.2144 14.6909C14.8008 14.6699 14.3919 14.6193 13.9917 14.5458C14.0156 14.7368 14.028 14.9288 14.028 15.1294C14.028 15.33 14.0156 15.521 13.9917 15.7111C14.391 15.6356 14.8008 15.5869 15.2144 15.5678C15.1962 15.9814 15.1446 16.3893 15.0692 16.7886C15.2583 16.7647 15.4551 16.7532 15.6509 16.7532C15.8467 16.7532 16.0435 16.7656 16.2345 16.7886C16.161 16.3893 16.1142 15.9814 16.0912 15.5678C16.5058 15.586 16.9156 15.6356 17.3148 15.7111C17.2891 15.522 17.2757 15.3252 17.2757 15.1294C17.2757 14.9336 17.2891 14.7377 17.3148 14.5458C16.9156 14.6193 16.5067 14.6699 16.0922 14.6909Z" fill="#D6253A"/>
<path fill-rule="evenodd" clip-rule="evenodd" d="M7.98462 19.7965V0.203458C8.63607 0.0697297 9.30948 0 10.0001 0C10.6907 0 11.366 0.0697297 12.0175 0.203458V19.7965C11.366 19.9303 10.6907 20 10.0001 20C9.30948 20 8.63511 19.9303 7.98462 19.7965Z" fill="#D6253A"/>
<path fill-rule="evenodd" clip-rule="evenodd" d="M0.204413 7.97803H19.7956C19.9293 8.63138 20 9.30767 20 10.0002C20 10.6927 19.9303 11.3652 19.7965 12.0176H0.203458C0.0697297 11.3661 0 10.6918 0 10.0002C0 9.30862 0.0706849 8.63138 0.204413 7.97803Z" fill="#D6253A"/>
</g>
<defs>
<clipPath id="clip0_1424_27352">
<rect width="20" height="20" fill="white"/>
</clipPath>
</defs>
</svg>
