<svg width="22" height="22" viewBox="0 0 22 22" fill="none" xmlns="http://www.w3.org/2000/svg">
<path fill-rule="evenodd" clip-rule="evenodd" d="M11 16.3333C13.9455 16.3333 16.3333 13.9455 16.3333 11C16.3333 8.05448 13.9455 5.66667 11 5.66667C8.05448 5.66667 5.66667 8.05448 5.66667 11C5.66667 13.9455 8.05448 16.3333 11 16.3333ZM11 19C15.4183 19 19 15.4183 19 11C19 6.58172 15.4183 3 11 3C6.58172 3 3 6.58172 3 11C3 15.4183 6.58172 19 11 19Z" stroke="#F2FFA5" stroke-width="2"/>
<path fill-rule="evenodd" clip-rule="evenodd" d="M11 17.6667C14.6819 17.6667 17.6667 14.6819 17.6667 11C17.6667 7.3181 14.6819 4.33333 11 4.33333C7.3181 4.33333 4.33333 7.3181 4.33333 11C4.33333 14.6819 7.3181 17.6667 11 17.6667ZM11 21C16.5228 21 21 16.5228 21 11C21 5.47715 16.5228 1 11 1C5.47715 1 1 5.47715 1 11C1 16.5228 5.47715 21 11 21Z" fill="#55BBFB" stroke="#F2FFA5"/>
</svg>
