<svg width="20" height="18" viewBox="0 0 20 18" fill="none" xmlns="http://www.w3.org/2000/svg">
<mask id="path-2-outside-1_14056_129553" maskUnits="userSpaceOnUse" x="0.720032" y="1.2124" width="19" height="16" fill="black">
<rect fill="white" x="0.720032" y="1.2124" width="19" height="16"/>
<path fill-rule="evenodd" clip-rule="evenodd" d="M16.8246 7.05449C17.6272 7.05449 18.28 7.70738 18.28 8.50996C18.28 8.88233 18.1398 9.22252 17.9086 9.4803C18.1398 9.73805 18.28 10.0782 18.28 10.4506C18.28 11.1205 17.8252 11.6867 17.2074 11.8549C17.2737 12.0212 17.3097 12.2022 17.3097 12.3912C17.3097 13.0612 16.8549 13.6274 16.2371 13.7955C16.3034 13.9619 16.3394 14.1428 16.3394 14.3319C16.3394 15.1344 15.6865 15.7873 14.884 15.7873H12.6136C10.9961 15.7873 9.37171 15.3491 7.86316 14.9255L7.54192 14.8356V7.05449H8.42811C10.2756 5.7799 10.5399 4.56871 10.7341 3.67865L10.7345 3.67686L10.7347 3.67598C10.8768 3.02327 11.0534 2.2124 12.099 2.2124H12.1114C12.7936 2.2124 13.3962 2.57863 13.7203 3.19219C14.2254 4.14782 14.0169 5.52654 13.1575 7.05449H16.8246ZM2.20519 6.08439H5.11613C5.9187 6.08439 6.57159 6.73725 6.57159 7.53986V14.3321C6.57159 15.1346 5.9187 15.7875 5.11613 15.7875H2.20519C1.93703 15.7875 1.72003 15.5705 1.72003 15.3024V6.56955C1.72003 6.30139 1.93703 6.08439 2.20519 6.08439Z"/>
</mask>
<path fill-rule="evenodd" clip-rule="evenodd" d="M16.8246 7.05449C17.6272 7.05449 18.28 7.70738 18.28 8.50996C18.28 8.88233 18.1398 9.22252 17.9086 9.4803C18.1398 9.73805 18.28 10.0782 18.28 10.4506C18.28 11.1205 17.8252 11.6867 17.2074 11.8549C17.2737 12.0212 17.3097 12.2022 17.3097 12.3912C17.3097 13.0612 16.8549 13.6274 16.2371 13.7955C16.3034 13.9619 16.3394 14.1428 16.3394 14.3319C16.3394 15.1344 15.6865 15.7873 14.884 15.7873H12.6136C10.9961 15.7873 9.37171 15.3491 7.86316 14.9255L7.54192 14.8356V7.05449H8.42811C10.2756 5.7799 10.5399 4.56871 10.7341 3.67865L10.7345 3.67686L10.7347 3.67598C10.8768 3.02327 11.0534 2.2124 12.099 2.2124H12.1114C12.7936 2.2124 13.3962 2.57863 13.7203 3.19219C14.2254 4.14782 14.0169 5.52654 13.1575 7.05449H16.8246ZM2.20519 6.08439H5.11613C5.9187 6.08439 6.57159 6.73725 6.57159 7.53986V14.3321C6.57159 15.1346 5.9187 15.7875 5.11613 15.7875H2.20519C1.93703 15.7875 1.72003 15.5705 1.72003 15.3024V6.56955C1.72003 6.30139 1.93703 6.08439 2.20519 6.08439Z" fill="#FF419C"/>
<path d="M17.9086 9.4803L17.1642 8.81263L16.5653 9.48034L17.1642 10.148L17.9086 9.4803ZM17.2074 11.8549L16.9447 10.89L15.8633 11.1844L16.2786 12.2254L17.2074 11.8549ZM16.2371 13.7955L15.9744 12.8307L14.893 13.125L15.3082 14.166L16.2371 13.7955ZM7.86316 14.9255L8.13349 13.9627L8.1327 13.9625L7.86316 14.9255ZM7.54192 14.8356H6.54192V15.5941L7.27238 15.7986L7.54192 14.8356ZM7.54192 7.05449V6.05449H6.54192V7.05449H7.54192ZM8.42811 7.05449V8.05449H8.73959L8.99598 7.87761L8.42811 7.05449ZM10.7341 3.67865L11.7111 3.89184L11.7112 3.89164L10.7341 3.67865ZM10.7345 3.67686L9.75752 3.46358L9.75745 3.46387L10.7345 3.67686ZM10.7347 3.67598L11.7117 3.88926L11.7118 3.88873L10.7347 3.67598ZM13.7203 3.19219L12.8361 3.65924L12.8362 3.65947L13.7203 3.19219ZM13.1575 7.05449L12.2859 6.56424L11.4477 8.05449H13.1575V7.05449ZM19.28 8.50996C19.28 7.15509 18.1794 6.05449 16.8246 6.05449V8.05449C17.0749 8.05449 17.28 8.25966 17.28 8.50996H19.28ZM18.6531 10.148C19.0424 9.7139 19.28 9.13825 19.28 8.50996H17.28C17.28 8.62641 17.2372 8.73114 17.1642 8.81263L18.6531 10.148ZM19.28 10.4506C19.28 9.82229 19.0424 9.24664 18.653 8.81258L17.1642 10.148C17.2372 10.2295 17.28 10.3341 17.28 10.4506H19.28ZM17.4701 12.8198C18.5119 12.5362 19.28 11.5832 19.28 10.4506H17.28C17.28 10.6579 17.1385 10.8373 16.9447 10.89L17.4701 12.8198ZM18.3097 12.3912C18.3097 12.0743 18.2492 11.7676 18.1362 11.4844L16.2786 12.2254C16.2983 12.2748 16.3097 12.3301 16.3097 12.3912H18.3097ZM16.4998 14.7604C17.5416 14.4768 18.3097 13.5238 18.3097 12.3912H16.3097C16.3097 12.5985 16.1682 12.7779 15.9744 12.8307L16.4998 14.7604ZM17.3394 14.3319C17.3394 14.0149 17.2789 13.7083 17.1659 13.4251L15.3082 14.166C15.328 14.2154 15.3394 14.2707 15.3394 14.3319H17.3394ZM14.884 16.7873C16.2388 16.7873 17.3394 15.6867 17.3394 14.3319H15.3394C15.3394 14.5822 15.1342 14.7873 14.884 14.7873V16.7873ZM12.6136 16.7873H14.884V14.7873H12.6136V16.7873ZM7.59283 15.8883C9.08663 16.3077 10.8384 16.7873 12.6136 16.7873V14.7873C11.1538 14.7873 9.65679 14.3904 8.13349 13.9627L7.59283 15.8883ZM7.27238 15.7986L7.59362 15.8885L8.1327 13.9625L7.81147 13.8726L7.27238 15.7986ZM6.54192 7.05449V14.8356H8.54192V7.05449H6.54192ZM8.42811 6.05449H7.54192V8.05449H8.42811V6.05449ZM9.75711 3.46546C9.66059 3.90778 9.57036 4.30229 9.32872 4.73354C9.09147 5.15693 8.67513 5.66917 7.86024 6.23137L8.99598 7.87761C10.0286 7.16521 10.6681 6.43456 11.0735 5.7112C11.4744 4.99569 11.6134 4.33958 11.7111 3.89184L9.75711 3.46546ZM9.75745 3.46387L9.75707 3.46566L11.7112 3.89164L11.7116 3.88985L9.75745 3.46387ZM9.75771 3.46269L9.75752 3.46358L11.7115 3.89015L11.7117 3.88926L9.75771 3.46269ZM12.099 1.2124C11.2569 1.2124 10.6357 1.56946 10.2501 2.13854C9.92989 2.61126 9.81958 3.17854 9.7576 3.46322L11.7118 3.88873C11.7489 3.71852 11.7776 3.58982 11.8146 3.47247C11.8508 3.35751 11.8832 3.29391 11.9059 3.2603C11.916 3.24539 11.9222 3.23943 11.9236 3.23819C11.9244 3.23745 11.9244 3.23737 11.926 3.23653C11.9278 3.2356 11.9386 3.23014 11.9636 3.22456C11.9894 3.21882 12.0329 3.2124 12.099 3.2124V1.2124ZM12.1114 1.2124H12.099V3.2124H12.1114V1.2124ZM14.6046 2.72514C14.1105 1.78971 13.171 1.2124 12.1114 1.2124V3.2124C12.4162 3.2124 12.682 3.36756 12.8361 3.65924L14.6046 2.72514ZM14.0291 7.54473C14.9443 5.91753 15.351 4.13745 14.6044 2.72491L12.8362 3.65947C13.0998 4.15819 13.0895 5.13555 12.2859 6.56424L14.0291 7.54473ZM16.8246 6.05449H13.1575V8.05449H16.8246V6.05449ZM5.11613 5.08439H2.20519V7.08439H5.11613V5.08439ZM7.57159 7.53986C7.57159 6.18495 6.47097 5.08439 5.11613 5.08439V7.08439C5.36643 7.08439 5.57159 7.28955 5.57159 7.53986H7.57159ZM7.57159 14.3321V7.53986H5.57159V14.3321H7.57159ZM5.11613 16.7875C6.47099 16.7875 7.57159 15.6869 7.57159 14.3321H5.57159C5.57159 14.5823 5.36642 14.7875 5.11613 14.7875V16.7875ZM2.20519 16.7875H5.11613V14.7875H2.20519V16.7875ZM0.720032 15.3024C0.720032 16.1228 1.38474 16.7875 2.20519 16.7875V14.7875C2.48931 14.7875 2.72003 15.0182 2.72003 15.3024H0.720032ZM0.720032 6.56955V15.3024H2.72003V6.56955H0.720032ZM2.20519 5.08439C1.38474 5.08439 0.720032 5.7491 0.720032 6.56955H2.72003C2.72003 6.85367 2.48931 7.08439 2.20519 7.08439V5.08439Z" fill="white" mask="url(#path-2-outside-1_14056_129553)"/>
</svg>
