<svg width="20" height="20" viewBox="0 0 20 20" fill="none" xmlns="http://www.w3.org/2000/svg">
<circle cx="10" cy="10" r="10" fill="#D82535"/>
<g clip-path="url(#clip0_1423_25170)">
<path d="M11.1505 4.01991L11.1706 4.00663C7.69132 3.83216 7.55705 7.15867 7.55705 7.15867C7.53692 9.25781 9.41758 10.0692 9.41758 10.0692C8.5644 9.17068 8.61815 8.87566 8.54427 8.23169C8.47039 7.58792 8.90704 6.87029 8.90704 6.87029C8.97407 6.79664 8.9942 6.91718 8.9942 6.91718C8.83294 7.13855 8.47039 7.93003 8.7188 8.82857C8.96743 9.72731 9.5315 10.0155 9.5315 10.0155C9.22911 9.74723 9.18222 9.35823 9.17558 9.14351C9.16895 8.92899 9.28994 8.23833 10.0288 7.87609C10.7676 7.51386 10.7742 7.15163 10.9222 6.62196C11.07 6.09209 10.7408 5.66969 10.6399 5.48173C10.5391 5.29397 10.4787 5.03236 10.5391 4.69709C10.5997 4.36182 11.1503 4.01971 11.1503 4.01971L11.1505 4.01991ZM9.4731 6.66684L9.25787 7.0665L9.1966 6.61693L8.74933 6.53603L9.15877 6.33881L9.0975 5.88924L9.4116 6.21726L9.82105 6.02005L9.60582 6.41971L9.91993 6.74753L9.47266 6.66684H9.4731Z" fill="white"/>
<path d="M15.9808 9.5864L16.0001 9.60089C15.0268 6.26109 11.8348 7.22262 11.8348 7.22262C9.84159 7.89034 9.68896 9.93032 9.68896 9.93032C10.2603 8.83154 10.5572 8.78566 11.1425 8.50533C11.7276 8.225 12.5496 8.4023 12.5496 8.4023C12.6414 8.44154 12.5336 8.4999 12.5336 8.4999C12.2715 8.42021 11.4037 8.33689 10.6346 8.86555C9.86526 9.39401 9.777 10.0207 9.777 10.0207C9.93207 9.64778 10.2847 9.47592 10.4857 9.39944C10.6866 9.32297 11.3798 9.21108 11.9643 9.78965C12.5487 10.3682 12.8937 10.2561 13.4434 10.2221C13.9931 10.1883 14.2853 9.73934 14.4302 9.58298C14.5749 9.42641 14.8027 9.28373 15.1398 9.23121C15.4769 9.17848 15.9808 9.5864 15.9808 9.5864ZM12.9271 8.86978L12.4785 8.79753L12.884 8.59267L12.8143 8.1443L13.1346 8.46609L13.5401 8.26123L13.3326 8.66491L13.6529 8.9869L13.2043 8.91445L12.9968 9.31814L12.9271 8.86978Z" fill="white"/>
<path d="M12.1258 15.9771L12.1174 15.9998C15.0242 14.0828 13.1595 11.3232 13.1595 11.3232C11.9307 9.61967 9.93392 10.0781 9.93392 10.0781C11.1543 10.2979 11.2859 10.5673 11.7274 11.0422C12.1687 11.5174 12.2426 12.3537 12.2426 12.3537C12.2322 12.4529 12.1444 12.3678 12.1444 12.3678C12.1431 12.0941 11.9659 11.2421 11.2326 10.6647C10.4993 10.0876 9.87354 10.189 9.87354 10.189C10.2763 10.2264 10.5449 10.512 10.6776 10.681C10.8103 10.8499 11.1227 11.4779 10.7422 12.2066C10.3617 12.9353 10.5712 13.2311 10.7663 13.7455C10.9614 14.2597 11.4773 14.4056 11.6697 14.4973C11.8621 14.5889 12.0661 14.764 12.2163 15.0699C12.3665 15.376 12.1256 15.9773 12.1256 15.9773L12.1258 15.9771ZM11.9073 12.8524L11.8436 12.403L12.1594 12.729L12.5678 12.5298L12.3548 12.9305L12.6709 13.2567L12.2231 13.1782L12.0101 13.5791L11.9464 13.1297L11.4987 13.0512L11.907 12.852L11.9073 12.8524Z" fill="white"/>
<path d="M4.84223 14.2994L4.81812 14.2986C7.53735 16.4726 9.59564 13.8536 9.59564 13.8536C10.8421 12.163 9.79229 10.4062 9.79229 10.4062C9.95753 11.6333 9.74097 11.8412 9.42377 12.4065C9.10634 12.9718 8.33191 13.2986 8.33191 13.2986C8.23414 13.3191 8.28856 13.2094 8.28856 13.2094C8.54891 13.1241 9.30675 12.6943 9.63192 11.8203C9.95686 10.9465 9.66842 10.3828 9.66842 10.3828C9.75623 10.7768 9.56644 11.12 9.44611 11.2979C9.32578 11.4758 8.82298 11.9654 8.01161 11.8273C7.20024 11.6895 6.98258 11.9793 6.55234 12.3224C6.1221 12.6657 6.14135 13.2008 6.11303 13.4119C6.08472 13.623 5.98053 13.8705 5.735 14.1072C5.48946 14.3436 4.84245 14.2992 4.84245 14.2992L4.84223 14.2994ZM7.75347 13.1328L8.16225 12.9343L7.94835 13.3348L8.26356 13.6618L7.81607 13.5823L7.60217 13.9828L7.53957 13.5332L7.09207 13.454L7.50086 13.2555L7.43826 12.806L7.75347 13.1328Z" fill="white"/>
<path d="M4.32352 6.81387L4.31733 6.79053C3.01887 10.0182 6.12477 11.2287 6.12477 11.2287C8.10586 11.9314 9.48683 10.4203 9.48683 10.4203C8.35803 10.9327 8.09613 10.786 7.46239 10.6459C6.82864 10.5058 6.29156 9.86006 6.29156 9.86006C6.24356 9.77272 6.36456 9.79304 6.36456 9.79304C6.52161 10.0174 7.1527 10.6175 8.08463 10.6757C9.01655 10.7338 9.47333 10.2951 9.47333 10.2951C9.12096 10.4932 8.73717 10.4109 8.5319 10.3473C8.3264 10.2837 7.7119 9.94458 7.60948 9.12915C7.50729 8.31372 7.16642 8.18935 6.71295 7.87723C6.25927 7.5651 5.75205 7.73817 5.54146 7.77198C5.33088 7.80599 5.06345 7.77802 4.76571 7.61159C4.46797 7.44537 4.32352 6.81387 4.32352 6.81387ZM6.28338 9.25955L6.59173 9.59281L6.14601 9.50406L5.9237 9.8999L5.87039 9.44932L5.42467 9.36058L5.83765 9.17081L5.78434 8.72003L6.0927 9.05348L6.50546 8.86371L6.28316 9.25955H6.28338Z" fill="white"/>
</g>
<defs>
<clipPath id="clip0_1423_25170">
<rect width="12" height="12" fill="white" transform="translate(4 4)"/>
</clipPath>
</defs>
</svg>
