<svg width="20" height="20" viewBox="0 0 20 20" fill="none" xmlns="http://www.w3.org/2000/svg">
<g clip-path="url(#clip0_1423_25126)">
<path d="M17.0714 17.0711C20.9766 13.1658 20.9766 6.83417 17.0714 2.92893C13.1661 -0.976311 6.83446 -0.97631 2.92922 2.92893C-0.976021 6.83418 -0.976021 13.1658 2.92922 17.0711C6.83446 20.9763 13.1661 20.9763 17.0714 17.0711Z" fill="#FEFEFE"/>
<path fill-rule="evenodd" clip-rule="evenodd" d="M0.570312 6.66348H19.4298C18.0562 2.78155 14.3529 0 10.0001 0C5.64721 0 1.94485 2.78155 0.570312 6.66348Z" fill="#EF9B39"/>
<path fill-rule="evenodd" clip-rule="evenodd" d="M19.4279 13.3394H0.572266C1.9468 17.2203 5.6482 20 10.0001 20C14.352 20 18.0534 17.2194 19.4279 13.3394Z" fill="#358C41"/>
<path fill-rule="evenodd" clip-rule="evenodd" d="M9.99805 7.29083L9.92163 8.801L10.0038 9.65973L10.0811 8.801L10.0038 7.29083C10.084 7.29083 10.1604 7.29465 10.2359 7.30324C10.2359 7.30707 10.2321 7.30707 10.2321 7.31184C10.2321 7.38348 10.2884 7.44366 10.3562 7.44366C10.4241 7.44366 10.4718 7.39112 10.4776 7.33095C10.553 7.34718 10.6256 7.3596 10.6992 7.38348L10.2359 8.82106L10.0878 9.67214L10.3878 8.85831L10.7078 7.38348C10.7794 7.40736 10.851 7.42742 10.9236 7.45512C10.9198 7.46754 10.9131 7.48378 10.9131 7.49906C10.9131 7.56784 10.9695 7.62419 11.0392 7.62419C11.0879 7.62419 11.1357 7.59171 11.1529 7.54778C11.2217 7.58025 11.2866 7.61655 11.3554 7.65667L10.5339 8.91849L10.17 9.71035L10.6724 9.00255L11.3611 7.66049C11.4223 7.69679 11.4872 7.73595 11.5502 7.77607C11.5321 7.79899 11.5225 7.82383 11.5225 7.85535C11.5225 7.92317 11.5779 7.97953 11.6486 7.97953C11.6888 7.97953 11.7241 7.96424 11.7461 7.92699C11.8072 7.97857 11.8626 8.03111 11.9151 8.08364L10.7966 9.09425L10.2426 9.76098L10.9074 9.20983L11.9199 8.08746C11.9724 8.14287 12.024 8.1954 12.0718 8.25558C12.0422 8.2785 12.0278 8.3148 12.0278 8.35014C12.0278 8.41892 12.0842 8.47528 12.1492 8.47528C12.1788 8.47528 12.2007 8.46668 12.2227 8.45044C12.2686 8.51444 12.3087 8.57844 12.344 8.64244L11.0029 9.32923L10.2961 9.83262L11.0803 9.47251L12.3488 8.64626C12.3908 8.7179 12.4252 8.79336 12.4586 8.85831C12.4166 8.87742 12.3832 8.92613 12.3832 8.97771C12.3832 9.04553 12.4386 9.10189 12.5045 9.10189C12.5236 9.10189 12.5389 9.09807 12.5523 9.08947C12.5761 9.16111 12.5971 9.22893 12.6153 9.30057L11.1395 9.61292L10.3305 9.9119L11.1815 9.76766L12.6201 9.30917C12.6382 9.37221 12.6554 9.4534 12.6697 9.52504C12.6077 9.53364 12.5609 9.5814 12.5609 9.64826C12.5609 9.71513 12.6191 9.77244 12.6869 9.77244H12.6994C12.707 9.84408 12.707 9.92527 12.707 9.99691L11.2006 9.92527L10.3371 10.0007L11.2006 10.0848L12.707 10.0046C12.707 10.0848 12.707 10.1603 12.6994 10.2319H12.6869C12.6201 10.2319 12.5609 10.2921 12.5609 10.3561C12.5609 10.4201 12.6067 10.4688 12.6678 10.4802C12.6535 10.5557 12.6382 10.6273 12.6201 10.699L12.1071 10.5356L11.1825 10.2357L10.3314 10.0924L11.1405 10.3924L12.6163 10.7076C12.5981 10.7792 12.5761 10.8556 12.5494 10.9196C12.5456 10.9196 12.537 10.9158 12.5332 10.9158C12.5207 10.9158 12.5121 10.9158 12.5054 10.9158C12.4357 10.9158 12.3794 10.9674 12.3794 11.039C12.3794 11.0591 12.3841 11.0715 12.3908 11.0868C12.3966 11.1078 12.409 11.1231 12.4252 11.1346C12.4252 11.1346 12.43 11.1384 12.4338 11.1384C12.4338 11.1384 12.4415 11.147 12.4453 11.147C12.4453 11.147 12.451 11.1508 12.4539 11.1556C12.4223 11.2224 12.3851 11.2903 12.3478 11.3552L11.0822 10.5356H11.0803L10.2961 10.1765H10.2989L10.7106 10.464L11.002 10.6722L12.344 11.359C12.3039 11.4268 12.2638 11.4956 12.2198 11.5548C12.2007 11.5434 12.174 11.5357 12.1482 11.5357C12.0785 11.5357 12.024 11.5873 12.024 11.6551C12.024 11.6943 12.0403 11.7306 12.0699 11.7516C12.0202 11.807 11.9696 11.8634 11.918 11.915L10.9055 10.7964L10.2426 10.2453L10.7937 10.912L11.9132 11.9236C11.8607 11.979 11.8082 12.0229 11.7499 12.0707C11.727 12.0506 11.7012 12.043 11.6725 12.043C11.6056 12.043 11.5483 12.1022 11.5483 12.1671C11.5483 12.1901 11.5522 12.2072 11.5588 12.2235C11.492 12.2636 11.4251 12.3075 11.3592 12.3515L10.6705 11.0085L10.1681 10.2978L10.5301 11.0849L11.3516 12.3563C11.2857 12.3916 11.2197 12.4279 11.151 12.4594C11.1338 12.4107 11.0898 12.384 11.0392 12.384C10.9695 12.384 10.9131 12.4432 10.9131 12.5081C10.9131 12.5244 10.917 12.5397 10.9208 12.5559C10.8482 12.5798 10.7784 12.6037 10.7049 12.6189L10.3849 11.1412L10.085 10.3379V10.3341L10.233 11.1852L10.6963 12.6237C10.6227 12.6438 10.5492 12.6638 10.4747 12.6715C10.4651 12.6151 10.4136 12.5683 10.3534 12.5683C10.2817 12.5683 10.2292 12.6237 10.2292 12.6877C10.2292 12.6963 10.2292 12.6992 10.2292 12.703C10.1537 12.7116 10.0783 12.7154 10.0009 12.7154L10.0783 11.2091L9.99709 10.3475L9.91972 11.2091L9.99614 12.7154C9.9159 12.7154 9.84235 12.7116 9.76402 12.703C9.76402 12.6992 9.76402 12.6963 9.76402 12.6877C9.76402 12.6237 9.70767 12.5683 9.63794 12.5683C9.57776 12.5683 9.52618 12.6151 9.51567 12.6715C9.44212 12.6591 9.36952 12.6438 9.29979 12.6237L9.76307 11.1852L9.9073 10.3379L9.60832 11.1412L9.29215 12.6189C9.22051 12.6037 9.14792 12.5788 9.07437 12.5559C9.08105 12.5397 9.08392 12.5244 9.08392 12.5081C9.08392 12.4432 9.02756 12.384 8.96261 12.384C8.91103 12.384 8.86613 12.4155 8.84416 12.4594C8.77921 12.4269 8.71139 12.3916 8.64453 12.3563L9.466 11.0849L9.8242 10.2978L9.32559 11.0046L8.63784 12.3515C8.57193 12.3075 8.50602 12.2674 8.44393 12.2235C8.45826 12.2072 8.46781 12.1834 8.46781 12.1557C8.46781 12.084 8.41241 12.0277 8.34555 12.0277C8.30448 12.0277 8.27009 12.0487 8.24907 12.0764C8.18985 12.0238 8.13349 11.9799 8.08191 11.9245L9.20523 10.9129L9.75638 10.2462L9.09156 10.7974L8.07809 11.9159C8.02269 11.8643 7.97207 11.8032 7.9224 11.7526C7.95105 11.7277 7.97111 11.6924 7.97111 11.6523C7.97111 11.5845 7.91475 11.5329 7.84693 11.5329C7.82019 11.5329 7.79249 11.5405 7.77338 11.552C7.7304 11.4928 7.68933 11.4288 7.65112 11.3609L8.99795 10.6694L9.69907 10.1784L8.91389 10.5376L7.64825 11.3562C7.61004 11.2922 7.57948 11.2282 7.54605 11.1575C7.59381 11.1412 7.62533 11.0973 7.62533 11.0448C7.62533 10.9731 7.57088 10.9168 7.49924 10.9168C7.48109 10.9168 7.46294 10.9206 7.4467 10.9292C7.42378 10.8614 7.39895 10.785 7.37698 10.7095L8.85563 10.3943L9.6685 10.0943L8.8136 10.2376L7.37506 10.7009C7.35501 10.6293 7.34163 10.5576 7.32444 10.4783C7.38748 10.4697 7.43333 10.422 7.43333 10.358C7.43333 10.2902 7.37698 10.2338 7.3082 10.2338H7.29483C7.29101 10.1622 7.28432 10.0867 7.28432 10.0065L8.79258 10.0867L9.65322 10.0026L8.79258 9.92718L7.28432 9.99882C7.28432 9.92718 7.29005 9.84694 7.29483 9.7753H7.31584C7.38462 9.7753 7.44002 9.72277 7.44002 9.65113C7.44002 9.58331 7.3913 9.53555 7.32444 9.52791C7.34163 9.45627 7.35405 9.37603 7.37506 9.31203L8.8136 9.77053L9.6685 9.91476L8.85563 9.61579L7.37793 9.29961C7.39894 9.22415 7.42378 9.15251 7.4467 9.08374C7.45912 9.08756 7.47918 9.09234 7.49255 9.09234C7.56324 9.09234 7.61673 9.03598 7.61673 8.96816C7.61673 8.91658 7.58425 8.87168 7.54318 8.8564C7.57566 8.78381 7.60813 8.71694 7.6473 8.64912L8.91389 9.47537L9.70289 9.83548L8.99795 9.33209L7.65112 8.6453C7.68933 8.5813 7.73135 8.5173 7.77529 8.44853C7.79344 8.46859 7.82305 8.47719 7.84884 8.47719C7.91475 8.47719 7.97302 8.42083 7.97302 8.35206C7.97302 8.31671 7.95296 8.28042 7.92717 8.25271C7.97398 8.19636 8.02269 8.14382 8.07618 8.08842L9.08965 9.21078L9.75638 9.76193L9.20523 9.0952L8.08191 8.0846C8.13827 8.03206 8.19272 7.98048 8.24907 7.93272C8.27009 7.96138 8.30543 7.98048 8.34555 7.98048C8.41623 7.98048 8.47164 7.92508 8.47164 7.85249C8.47164 7.82478 8.45922 7.79995 8.44584 7.77702C8.50984 7.74073 8.57193 7.69679 8.63689 7.66144L9.32463 9.0035L9.82324 9.70749L9.46504 8.91944L8.64357 7.65762C8.70948 7.61751 8.77539 7.58216 8.8413 7.54873C8.86136 7.59649 8.90434 7.62897 8.95688 7.62897C9.02661 7.62897 9.0801 7.57357 9.0801 7.50957C9.0801 7.48951 9.07628 7.46945 9.07246 7.45703C9.14219 7.42933 9.2186 7.41023 9.29024 7.38539L9.60928 8.86022L9.90921 9.67405L9.76402 8.82297L9.30075 7.38539C9.37239 7.36151 9.44403 7.34909 9.52045 7.33286C9.52809 7.39303 9.57967 7.44175 9.64271 7.44175C9.71244 7.44175 9.7688 7.38539 9.7688 7.31375C9.7688 7.30993 9.7688 7.30516 9.7688 7.30133C9.84235 7.29369 9.91781 7.29369 9.99423 7.29369L9.99805 7.29083ZM9.99996 6.99854C8.34173 6.99854 6.99585 8.34155 6.99585 9.99978C6.99585 11.6571 8.34173 13.0039 9.99996 13.0039C11.6591 13.0039 13.005 11.658 13.005 9.99978C13.0031 8.34155 11.6591 6.99854 9.99996 6.99854Z" fill="#2D2F77"/>
<path fill-rule="evenodd" clip-rule="evenodd" d="M10.0038 9.55225C10.2522 9.55225 10.4518 9.7557 10.4518 10.0002C10.4518 10.2476 10.2522 10.4511 10.0038 10.4511C9.75262 10.4511 9.55298 10.2476 9.55298 10.0002C9.55298 9.75284 9.75262 9.55225 10.0038 9.55225Z" fill="#FEFEFE"/>
<path fill-rule="evenodd" clip-rule="evenodd" d="M10.0039 9.65625C10.194 9.65625 10.3497 9.80813 10.3497 10.0001C10.3497 10.1921 10.194 10.3516 10.0039 10.3516C9.81379 10.3516 9.65332 10.195 9.65332 10.0001C9.65332 9.80717 9.81093 9.65625 10.0039 9.65625Z" fill="#2D2F77"/>
</g>
<defs>
<clipPath id="clip0_1423_25126">
<rect width="20" height="20" fill="white"/>
</clipPath>
</defs>
</svg>
