<svg width="20" height="20" viewBox="0 0 20 20" fill="none" xmlns="http://www.w3.org/2000/svg">
<g clip-path="url(#clip0_1756_25781)">
<g clip-path="url(#clip1_1756_25781)">
<path d="M17.0714 17.0711C20.9766 13.1658 20.9766 6.83417 17.0714 2.92893C13.1661 -0.976311 6.83446 -0.97631 2.92922 2.92893C-0.976021 6.83418 -0.976021 13.1658 2.92922 17.0711C6.83446 20.9763 13.1661 20.9763 17.0714 17.0711Z" fill="#D6253A"/>
<path fill-rule="evenodd" clip-rule="evenodd" d="M13.2753 10.3943C13.2552 10.5586 13.2256 10.7143 13.1846 10.87C13.2046 10.8738 13.2266 10.8776 13.2514 10.8824C13.2247 10.8862 13.1989 10.8948 13.1769 10.9034C13.1339 11.0591 13.0785 11.2101 13.0117 11.3543C13.0327 11.3667 13.0518 11.3743 13.0766 11.3772C13.0499 11.3772 13.0269 11.3772 13.0021 11.381C12.9324 11.5291 12.856 11.6724 12.7671 11.8042C12.7853 11.8166 12.8053 11.829 12.8273 11.8367C12.8034 11.8367 12.7767 11.8328 12.7509 11.8328C12.6621 11.9685 12.5627 12.0965 12.4538 12.2082C12.4691 12.2245 12.4873 12.2398 12.5083 12.256C12.4834 12.2474 12.4567 12.2398 12.4338 12.2359C12.3249 12.3553 12.2064 12.4604 12.0813 12.5645C12.0947 12.5836 12.1109 12.596 12.1291 12.6152C12.1052 12.6037 12.0813 12.5922 12.0584 12.5875C11.9313 12.683 11.7986 12.7756 11.6572 12.8559C11.6706 12.875 11.6839 12.8912 11.6973 12.9113C11.6763 12.895 11.6553 12.8788 11.6314 12.8711C11.491 12.9514 11.3468 13.024 11.1939 13.0784C11.2035 13.0985 11.2121 13.1195 11.2245 13.1348C11.2054 13.1195 11.1853 13.1033 11.1672 13.087C11.0163 13.1434 10.8625 13.1873 10.702 13.2236C10.7077 13.2437 10.7125 13.2637 10.7211 13.2876C10.7058 13.2628 10.6886 13.2475 10.6724 13.2313C10.5148 13.2628 10.3553 13.279 10.1938 13.2876C10.1938 13.3105 10.1957 13.3316 10.2015 13.3554C10.189 13.3344 10.1757 13.3115 10.1633 13.2914C10.1165 13.2914 10.0696 13.2943 10.0248 13.2943C9.90631 13.2943 9.79073 13.2876 9.67706 13.2752C9.67515 13.2943 9.67515 13.3153 9.67706 13.3392C9.66751 13.3153 9.657 13.2953 9.6484 13.2714C9.48602 13.2513 9.32746 13.2236 9.17176 13.1835C9.16889 13.1997 9.16221 13.2236 9.16125 13.2475C9.15456 13.2236 9.14979 13.1959 9.14501 13.1711C8.98645 13.131 8.83457 13.0717 8.68938 13.0077C8.67983 13.0278 8.6741 13.0517 8.66646 13.0717C8.66455 13.0469 8.66455 13.024 8.66073 12.9953C8.51458 12.9237 8.3713 12.8482 8.23662 12.7642C8.22611 12.7804 8.21751 12.8005 8.207 12.8205C8.20891 12.7957 8.21083 12.7728 8.21274 12.7479C8.07901 12.6562 7.95006 12.5607 7.83066 12.448C7.81728 12.4604 7.80391 12.4805 7.79054 12.5043C7.79818 12.4766 7.80582 12.4528 7.80869 12.4327C7.69024 12.3162 7.57848 12.2006 7.47723 12.0774C7.46195 12.0936 7.44571 12.1051 7.42852 12.1251C7.43998 12.1003 7.45144 12.0774 7.45908 12.0497C7.35974 11.9255 7.26804 11.7899 7.1878 11.6533C7.1687 11.6657 7.15055 11.6771 7.13145 11.6886C7.14769 11.6724 7.16106 11.6447 7.17348 11.6294C7.09228 11.4851 7.02447 11.3371 6.9662 11.189C6.94709 11.1976 6.92703 11.2043 6.90698 11.2206C6.92512 11.1967 6.94041 11.1766 6.9576 11.1604C6.90124 11.0133 6.8554 10.8528 6.82292 10.6923C6.80286 10.7009 6.78089 10.7086 6.75892 10.7124C6.77993 10.6962 6.79999 10.6809 6.81814 10.6608C6.78758 10.5089 6.76656 10.3456 6.75701 10.1851C6.73599 10.1851 6.71403 10.1889 6.68919 10.1928C6.71403 10.1803 6.736 10.1651 6.7551 10.1526C6.75319 10.1087 6.75223 10.0648 6.75223 10.017C6.75223 9.90142 6.75988 9.78202 6.77325 9.67313C6.75128 9.66835 6.72931 9.66931 6.70352 9.67313C6.72931 9.66167 6.75223 9.65403 6.77707 9.64161C6.79235 9.47827 6.82387 9.31875 6.8659 9.1621C6.84489 9.15732 6.82387 9.15828 6.79999 9.15446C6.82578 9.14968 6.84871 9.14682 6.87259 9.13822C6.91557 8.98252 6.97288 8.82587 7.03688 8.68354C7.01969 8.67113 6.99868 8.6673 6.97288 8.65871C7.00059 8.65871 7.02638 8.65393 7.0493 8.65011C7.11712 8.50683 7.19545 8.3626 7.28428 8.23078C7.26613 8.21836 7.24703 8.2069 7.2241 8.19926C7.25085 8.19926 7.27568 8.20308 7.29861 8.20308C7.38744 8.07126 7.48965 7.94326 7.59663 7.81909C7.58135 7.81049 7.56224 7.79521 7.54218 7.78374C7.56798 7.78756 7.59377 7.79521 7.61669 7.80285C7.72654 7.68249 7.84403 7.56691 7.97011 7.47139C7.95674 7.45038 7.93955 7.4351 7.92235 7.42363C7.94815 7.43223 7.97011 7.43987 7.99304 7.45133C8.11913 7.35199 8.25285 7.26029 8.39327 7.18006C8.38181 7.15904 8.3713 7.14471 8.35506 7.1237C8.37608 7.13994 8.399 7.15236 8.4181 7.16382C8.55852 7.08358 8.70657 7.01672 8.85845 6.96036C8.85177 6.9403 8.83935 6.92024 8.82789 6.89732C8.84699 6.91642 8.86609 6.93744 8.8852 6.9489C9.03612 6.8935 9.18991 6.84574 9.35038 6.8123C9.34465 6.7932 9.33987 6.77219 9.33128 6.74926C9.34465 6.76932 9.36375 6.78938 9.37999 6.80944C9.53664 6.77314 9.69712 6.7569 9.86046 6.74926C9.85759 6.72825 9.85473 6.70532 9.84995 6.68144C9.86237 6.70437 9.87765 6.72825 9.89102 6.74448C9.93592 6.74448 9.97986 6.74448 10.0257 6.74448C10.1432 6.74448 10.2597 6.74831 10.3724 6.76454C10.3744 6.73971 10.3744 6.7206 10.3724 6.69195C10.383 6.7206 10.3906 6.73971 10.4021 6.76454C10.5644 6.78365 10.723 6.81135 10.8777 6.85242C10.8835 6.83618 10.8854 6.81135 10.8892 6.78747C10.8949 6.81135 10.8997 6.84 10.9074 6.85911C11.0621 6.90782 11.2159 6.96323 11.3611 7.02722C11.3706 7.00717 11.3773 6.98329 11.384 6.96323C11.384 6.98711 11.3859 7.01576 11.3897 7.03869C11.5368 7.10746 11.6801 7.1877 11.8129 7.2708C11.8253 7.25456 11.8349 7.23546 11.8454 7.21444C11.8415 7.23737 11.8377 7.26602 11.8377 7.2899C11.9724 7.3816 12.0994 7.4819 12.2188 7.58602C12.2341 7.57073 12.2475 7.5545 12.2609 7.53062C12.2532 7.55832 12.2456 7.58124 12.2427 7.6099C12.3612 7.71688 12.471 7.83341 12.5742 7.96046C12.5885 7.94135 12.6057 7.92893 12.6229 7.90983C12.6114 7.93753 12.6009 7.96046 12.5923 7.98147C12.6926 8.10469 12.7824 8.24128 12.8646 8.38552C12.8808 8.36928 12.9009 8.36164 12.919 8.34445C12.9047 8.36451 12.8894 8.38839 12.877 8.4094C12.9572 8.54982 13.0269 8.6931 13.0824 8.84879C13.1024 8.8402 13.1234 8.82873 13.1435 8.81632C13.1272 8.83733 13.1081 8.85357 13.0929 8.87267C13.1492 9.02455 13.1941 9.18025 13.2275 9.33977C13.2476 9.33499 13.2696 9.32735 13.2944 9.31684C13.2715 9.33595 13.2524 9.35218 13.2333 9.36747C13.2657 9.52316 13.2849 9.68746 13.2944 9.8508C13.3145 9.84698 13.3374 9.8422 13.3613 9.83838C13.3374 9.8508 13.3154 9.86704 13.2963 9.8785C13.2973 9.92244 13.2973 9.9702 13.2973 10.0141C13.2973 10.1307 13.2925 10.2463 13.2791 10.3618C13.302 10.3666 13.3221 10.3666 13.3479 10.3666C13.3221 10.3704 13.3001 10.3828 13.2772 10.3905L13.2753 10.3943ZM16.0311 10.0189C15.2535 10.2109 14.4149 9.59098 13.6946 9.7228C13.6946 9.71421 13.6946 9.7037 13.6937 9.69892C14.3872 9.36747 15.5372 9.73522 15.9566 9.07518C15.222 9.39135 14.3021 8.91184 13.6125 9.15159C13.6106 9.13917 13.6077 9.13058 13.6039 9.11911C14.2381 8.69596 15.4264 8.87172 15.7349 8.16009C15.0625 8.58325 14.0824 8.26039 13.4377 8.59566C13.4348 8.58325 13.43 8.57178 13.4281 8.56701C13.986 8.04833 15.1809 8.03592 15.3739 7.28895C14.7769 7.8124 13.7653 7.64906 13.1788 8.07604C13.175 8.06744 13.1683 8.05598 13.1616 8.04451C13.6373 7.44847 14.8065 7.25265 14.88 6.48563C14.3747 7.09313 13.3536 7.09313 12.8407 7.60034C12.833 7.59175 12.8264 7.57933 12.8158 7.57264C13.197 6.9126 14.3155 6.53721 14.2697 5.76636C13.8618 6.44551 12.8579 6.60503 12.4309 7.18483C12.4214 7.17624 12.4099 7.16859 12.4022 7.16C12.6793 6.45315 13.7156 5.902 13.5533 5.15885C13.26 5.88576 12.2943 6.20193 11.959 6.83714C11.9504 6.82854 11.9399 6.8209 11.9266 6.81708C12.0947 6.07871 13.0269 5.37855 12.748 4.66788C12.5723 5.42631 11.6734 5.88958 11.4413 6.56491C11.4279 6.56109 11.4155 6.55727 11.4031 6.55344C11.4547 5.8017 12.2628 4.96303 11.8778 4.30395C11.8263 5.08721 11.0096 5.6823 10.8844 6.38628C10.8711 6.38246 10.8586 6.37769 10.8443 6.37769C10.7813 5.62594 11.4461 4.6717 10.9618 4.08521C11.0287 4.86369 10.3199 5.58201 10.3046 6.29841C10.2913 6.29459 10.2769 6.29459 10.2645 6.29459C10.083 5.55908 10.5902 4.51982 10.0209 4.00879C10.2101 4.76722 9.6207 5.59156 9.71909 6.29936C9.70667 6.30223 9.69139 6.30223 9.67992 6.30223C9.38286 5.60684 9.72291 4.4969 9.08101 4.08616C9.38668 4.80447 8.93105 5.70714 9.14119 6.39011C9.12782 6.39393 9.1154 6.3987 9.10203 6.40252C8.70084 5.75872 8.86418 4.60866 8.16402 4.3049C8.58049 4.96877 8.27005 5.93543 8.58622 6.57828C8.57476 6.58592 8.56138 6.5907 8.55088 6.59929C8.05131 6.02331 8.03125 4.85987 7.29288 4.66883C7.80869 5.25533 7.65203 6.26593 8.07041 6.85051C8.0599 6.85433 8.04844 6.86197 8.03602 6.87057C7.4524 6.38819 7.24989 5.23336 6.48764 5.16076C7.09324 5.66797 7.09324 6.68717 7.60045 7.20203C7.59377 7.20585 7.58517 7.21444 7.57562 7.22591C6.91844 6.84192 6.53922 5.72337 5.77315 5.76731C6.45134 6.17423 6.60895 7.19438 7.19449 7.61754C7.18876 7.62518 7.18112 7.63282 7.17348 7.64524C6.4609 7.37301 5.91166 6.32324 5.16182 6.48658C5.89637 6.78556 6.21159 7.76942 6.86017 8.09227C6.85444 8.09992 6.84871 8.10851 6.84393 8.11711C6.09601 7.96905 5.3863 7.01099 4.66798 7.2899C5.44361 7.46948 5.90879 8.39603 6.60418 8.6119C6.60036 8.6205 6.59845 8.6291 6.59176 8.64056C5.83142 8.61572 4.97747 7.76942 4.30787 8.16105C5.10451 8.21741 5.71011 9.06849 6.43415 9.16401C6.43224 9.17165 6.43033 9.18407 6.42842 9.19267C5.67095 9.29201 4.689 8.58516 4.08722 9.07613C4.88577 9.00831 5.62127 9.7591 6.35391 9.73617C6.35391 9.74382 6.352 9.75241 6.352 9.7591C5.61745 9.98739 4.53139 9.43624 4.01367 10.0189C4.79503 9.82787 5.64038 10.4507 6.36251 10.3103C6.36442 10.3179 6.36442 10.3265 6.36442 10.3351C5.67572 10.679 4.51038 10.295 4.08818 10.9627C4.83132 10.6436 5.77124 11.1384 6.46185 10.8748C6.46185 10.8824 6.46472 10.891 6.46472 10.8948C5.84288 11.3495 4.62309 11.1546 4.30883 11.8777C4.99562 11.446 6.00431 11.7899 6.64525 11.4221C6.65003 11.4259 6.65194 11.4307 6.65385 11.4345C6.11129 11.9895 4.86762 11.9819 4.66894 12.7489C5.28504 12.2101 6.33863 12.4012 6.91366 11.9226C6.91366 11.9293 6.91844 11.9341 6.92035 11.9379C6.47714 12.5731 5.23824 12.7651 5.16278 13.5512C5.68432 12.9246 6.76274 12.9447 7.2518 12.3859C7.25658 12.3859 7.2604 12.3859 7.26136 12.3935C6.92799 13.0956 5.72539 13.4758 5.77411 14.2676C6.19249 13.5637 7.26709 13.4204 7.65967 12.7814C7.66541 12.7842 7.66732 12.7842 7.66923 12.789C7.4524 13.5407 6.31953 14.1034 6.48764 14.8828C6.79617 14.1196 7.83448 13.8082 8.12295 13.1138C8.12581 13.1176 8.12772 13.1176 8.1325 13.1214C8.03602 13.8951 7.00154 14.6306 7.29288 15.3747C7.47723 14.5743 8.45631 14.1034 8.63111 13.3688C8.63302 13.3726 8.6378 13.3726 8.64067 13.3774C8.67123 14.1597 7.75997 15.0423 8.16402 15.7339C8.22133 14.9115 9.1154 14.2963 9.16985 13.5455C9.17367 13.5455 9.17844 13.5455 9.18035 13.5493C9.33414 14.3164 8.57285 15.3384 9.08006 15.9584C9.00842 15.135 9.79741 14.3842 9.73246 13.6363C9.73246 13.6363 9.73915 13.6363 9.74201 13.6363C10.0162 14.367 9.42202 15.4989 10.02 16.0252C9.82034 15.2305 10.4813 14.367 10.3008 13.6363C10.3008 13.6363 10.3084 13.6363 10.3113 13.6363C10.6953 14.3192 10.2846 15.5218 10.9599 15.9584C10.6389 15.1951 11.1528 14.2438 10.8663 13.5493C10.8682 13.5493 10.872 13.5455 10.8749 13.5455C11.3582 14.1645 11.1442 15.4148 11.8759 15.7339C11.4423 15.0395 11.7995 14.0126 11.4079 13.3774C11.4107 13.3726 11.4146 13.3688 11.4193 13.3688C11.9896 13.9037 11.9753 15.1694 12.748 15.3747C12.2103 14.7548 12.4042 13.6964 11.9189 13.1176C11.9227 13.1176 11.9246 13.1138 11.9285 13.1138C12.577 13.5522 12.7576 14.8035 13.5533 14.8828C12.9257 14.3593 12.9496 13.2771 12.3822 12.7852C12.386 12.7852 12.3898 12.7823 12.3937 12.7775C13.0976 13.1128 13.473 14.3154 14.2697 14.2676C13.5695 13.8474 13.4234 12.7842 12.792 12.3859C12.7958 12.3811 12.7996 12.3821 12.8034 12.3773C13.5456 12.6008 14.1073 13.7194 14.8791 13.5512C14.1273 13.2484 13.815 12.2254 13.1349 11.9265C13.1378 11.9226 13.1387 11.9188 13.1435 11.914C13.9115 12.0258 14.6384 13.0373 15.3729 12.7489C14.5839 12.5655 14.1159 11.6151 13.4033 11.4183C13.4052 11.4154 13.4081 11.4068 13.409 11.3992C14.1827 11.3992 15.0558 12.2741 15.734 11.8787C14.9288 11.8223 14.3203 10.9636 13.5886 10.871C13.5905 10.8633 13.5924 10.8595 13.5943 10.8509C14.3575 10.7353 15.3471 11.4584 15.9546 10.9627C15.1542 11.0305 14.4196 10.2835 13.687 10.3036C13.687 10.295 13.687 10.2873 13.6889 10.2787C14.4235 10.0514 15.5095 10.6025 16.0291 10.0189H16.0311Z" fill="#F7ED14"/>
<path fill-rule="evenodd" clip-rule="evenodd" d="M9.70684 8.13731C9.2493 7.94627 8.75451 7.83451 8.23392 7.81445C8.19476 7.85362 8.15273 7.88991 8.11548 7.93003C8.61027 7.95009 9.08214 8.06185 9.51676 8.24143C9.57885 8.20513 9.63998 8.16979 9.70684 8.13731Z" fill="#F7ED14"/>
<path fill-rule="evenodd" clip-rule="evenodd" d="M11.5884 7.63399C11.1509 7.30732 10.6093 7.11914 10.0228 7.11914C9.43727 7.11914 8.89663 7.30732 8.45532 7.63495C9.00934 7.65978 9.53757 7.77918 10.0228 7.98646C10.5071 7.77823 11.0363 7.65883 11.5884 7.63399Z" fill="#F7ED14"/>
<path fill-rule="evenodd" clip-rule="evenodd" d="M9.26059 8.40092C8.85845 8.23376 8.42193 8.12582 7.96439 8.09717C7.93382 8.13347 7.90612 8.16976 7.87842 8.20511C8.31303 8.24045 8.72568 8.34839 9.10681 8.51268C9.15743 8.47543 9.20901 8.44009 9.26059 8.39997V8.40092Z" fill="#F7ED14"/>
<path fill-rule="evenodd" clip-rule="evenodd" d="M10.3954 9.13281C10.3419 9.17293 10.2894 9.21687 10.2388 9.26081C10.9896 9.96861 11.4652 10.9668 11.4872 12.0815C11.5703 12.029 11.6506 11.9698 11.7251 11.9058C11.6582 10.8035 11.1586 9.82438 10.3945 9.13281H10.3954Z" fill="#F7ED14"/>
<path fill-rule="evenodd" clip-rule="evenodd" d="M10.5292 8.24143C10.9639 8.06185 11.4376 7.95009 11.9296 7.93003C11.8923 7.88991 11.8503 7.85457 11.8092 7.81445C11.2905 7.83451 10.7948 7.94627 10.3411 8.13731C10.4051 8.16979 10.4672 8.20609 10.5292 8.24143Z" fill="#F7ED14"/>
<path fill-rule="evenodd" clip-rule="evenodd" d="M10.8377 8.8335C10.7756 8.86884 10.7125 8.90896 10.6533 8.95385C11.4032 9.60434 11.9237 10.5204 12.0699 11.5587C12.1463 11.4708 12.2151 11.3753 12.28 11.2712C12.0785 10.3045 11.5608 9.45342 10.8377 8.83445V8.8335Z" fill="#F7ED14"/>
<path fill-rule="evenodd" clip-rule="evenodd" d="M8.89968 8.67712C8.55007 8.52046 8.16799 8.40966 7.77063 8.36572C7.50604 8.78506 7.35034 9.28845 7.35034 9.82431C7.35034 10.1472 7.4067 10.4557 7.50891 10.7423C7.77445 9.92748 8.26351 9.21681 8.89968 8.67712Z" fill="#F7ED14"/>
<path fill-rule="evenodd" clip-rule="evenodd" d="M10.937 8.51366C11.3181 8.34936 11.7317 8.24238 12.1664 8.20608C12.1387 8.17074 12.11 8.13444 12.0804 8.09814C11.6219 8.1268 11.1863 8.23474 10.7842 8.4019C10.8358 8.44106 10.8854 8.47736 10.937 8.51366Z" fill="#F7ED14"/>
<path fill-rule="evenodd" clip-rule="evenodd" d="M8.91404 12.1656C8.91404 12.2057 8.91595 12.2458 8.91595 12.285C9.25409 12.4369 9.62758 12.5257 10.0221 12.5257C10.4166 12.5257 10.7901 12.4378 11.1263 12.285C11.1282 12.2449 11.1282 12.2057 11.1282 12.1656C11.1282 11.111 10.7041 10.1558 10.0221 9.46045C9.3372 10.1558 8.91309 11.111 8.91309 12.1656H8.91404Z" fill="#F7ED14"/>
<path fill-rule="evenodd" clip-rule="evenodd" d="M10.0229 8.28613C9.95983 8.32243 9.89392 8.35395 9.83374 8.39025C9.89487 8.42559 9.95887 8.45807 10.0229 8.49341C10.0869 8.45807 10.1509 8.42655 10.2139 8.39025C10.1509 8.35395 10.0869 8.32148 10.0229 8.28613Z" fill="#F7ED14"/>
<path fill-rule="evenodd" clip-rule="evenodd" d="M11.1443 8.67712C11.7814 9.21585 12.2705 9.92748 12.536 10.7423C12.6373 10.4547 12.6946 10.1472 12.6946 9.82431C12.6946 9.28845 12.5389 8.78506 12.2743 8.36572C11.876 8.40966 11.4948 8.52142 11.1443 8.67712Z" fill="#F7ED14"/>
<path fill-rule="evenodd" clip-rule="evenodd" d="M9.80703 9.26081C9.75354 9.21687 9.70291 9.17293 9.64942 9.13281C8.88526 9.82438 8.38569 10.8035 8.31787 11.9058C8.39429 11.9698 8.47452 12.0299 8.55572 12.0815C8.57864 10.9668 9.05624 9.96861 9.80798 9.26081H9.80703Z" fill="#F7ED14"/>
<path fill-rule="evenodd" clip-rule="evenodd" d="M9.86523 8.9485C9.91968 8.98862 9.97031 9.02969 10.0228 9.06886C10.0744 9.02874 10.127 8.98766 10.1805 8.9485C10.1298 8.90456 10.0763 8.86444 10.0228 8.8291C9.96935 8.86444 9.91586 8.90456 9.86523 8.9485Z" fill="#F7ED14"/>
<path fill-rule="evenodd" clip-rule="evenodd" d="M9.39158 8.95288C9.33045 8.90894 9.2674 8.86882 9.20722 8.83252C8.48414 9.45245 7.96642 10.3035 7.76392 11.2692C7.82887 11.3734 7.89764 11.4689 7.97406 11.5568C8.12116 10.5184 8.64175 9.60337 9.39158 8.95192V8.95288Z" fill="#F7ED14"/>
<path fill-rule="evenodd" clip-rule="evenodd" d="M10.2798 8.66069C10.3361 8.69699 10.3858 8.73711 10.4383 8.77723C10.4995 8.73711 10.5644 8.69699 10.6275 8.66547C10.5769 8.62535 10.5243 8.59001 10.4718 8.55371C10.4078 8.58523 10.3438 8.62153 10.2798 8.66069Z" fill="#F7ED14"/>
<path fill-rule="evenodd" clip-rule="evenodd" d="M9.41821 8.66449C9.48221 8.69601 9.54621 8.73613 9.60543 8.77625C9.65988 8.73613 9.7105 8.69601 9.76304 8.66067C9.70095 8.62055 9.63886 8.58426 9.57296 8.55273C9.52137 8.58808 9.46884 8.62437 9.41821 8.66354V8.66449Z" fill="#F7ED14"/>
</g>
</g>
<defs>
<clipPath id="clip0_1756_25781">
<rect width="20" height="20" fill="white"/>
</clipPath>
<clipPath id="clip1_1756_25781">
<rect width="20" height="20" fill="white"/>
</clipPath>
</defs>
</svg>
