<svg width="20" height="20" viewBox="0 0 20 20" fill="none" xmlns="http://www.w3.org/2000/svg">
<g clip-path="url(#clip0_1423_25476)">
<path d="M17.0714 17.0711C20.9766 13.1658 20.9766 6.83417 17.0714 2.92893C13.1661 -0.976311 6.83446 -0.97631 2.92922 2.92893C-0.976021 6.83418 -0.976021 13.1658 2.92922 17.0711C6.83446 20.9763 13.1661 20.9763 17.0714 17.0711Z" fill="#2F3085"/>
<path fill-rule="evenodd" clip-rule="evenodd" d="M1.34015 15.0042H18.6599C19.5119 13.5323 20 11.8234 20 10.0009C20 8.17836 19.5119 6.46855 18.6599 4.99658H1.34015C0.488108 6.46759 0 8.17645 0 9.99993C0 11.8234 0.488108 13.5323 1.34015 15.0033V15.0042Z" fill="#C0282D"/>
<path d="M16.3645 9.98193H3.63452V12.0394H16.3645V9.98193Z" fill="#FEFEFE"/>
<path fill-rule="evenodd" clip-rule="evenodd" d="M16.3396 9.9818L3.63445 10.0009L3.6612 12.0393L16.3405 12.0106V9.9818H16.3396ZM16.3893 12.0632H3.63445L3.60962 9.9818L16.3644 9.9541L16.3902 12.0632H16.3893Z" fill="#C0282D"/>
<path fill-rule="evenodd" clip-rule="evenodd" d="M3.62696 12.0396L3.41968 12.5229H16.5785L16.3712 12.0396H3.62696Z" fill="#FEFEFE"/>
<path fill-rule="evenodd" clip-rule="evenodd" d="M3.45683 12.4951H16.5402L16.3511 12.0471L3.62781 12.0633L3.45683 12.4951ZM16.6195 12.5514H3.38232L3.60298 12.028L16.3721 12.0117L16.6195 12.5514Z" fill="#C0282D"/>
<path fill-rule="evenodd" clip-rule="evenodd" d="M13.6824 12.0396L13.4321 12.5229H16.4257L16.1755 12.0396H13.6824Z" fill="#FEFEFE"/>
<path fill-rule="evenodd" clip-rule="evenodd" d="M13.4723 12.4951H16.3828L16.1535 12.0509L13.6824 12.0633L13.4723 12.4951ZM16.4668 12.5514H13.3892L13.6604 12.0241L16.1755 12.0117L16.4668 12.5514Z" fill="#C0282D"/>
<path fill-rule="evenodd" clip-rule="evenodd" d="M14.4025 12.0396L14.2773 12.5229H15.7847L15.6586 12.0396H14.4025Z" fill="#FEFEFE"/>
<path fill-rule="evenodd" clip-rule="evenodd" d="M15.6347 12.0423L14.4025 12.0633L14.3012 12.5266L15.7541 12.4989L15.6356 12.0423H15.6347ZM15.8171 12.5504H14.2773L14.3776 12.0308L15.6586 12.0107L15.8171 12.5504Z" fill="#C0282D"/>
<path fill-rule="evenodd" clip-rule="evenodd" d="M14.6261 12.0396L14.5449 12.5229H15.5173L15.438 12.0396H14.6261Z" fill="#FEFEFE"/>
<path fill-rule="evenodd" clip-rule="evenodd" d="M15.4122 12.0423L14.6261 12.0633L14.5717 12.5227L15.4887 12.4989L15.4122 12.0423ZM15.5507 12.5504H14.5449L14.6013 12.0346L15.438 12.0107L15.5507 12.5504Z" fill="#C0282D"/>
<path fill-rule="evenodd" clip-rule="evenodd" d="M8.68848 12.0396L8.42676 12.5229H11.5722L11.3115 12.0396H8.68848Z" fill="#FEFEFE"/>
<path fill-rule="evenodd" clip-rule="evenodd" d="M8.46789 12.4951H11.5312L11.2876 12.0509L8.6895 12.0633L8.46884 12.4951H8.46789ZM11.6162 12.5514H8.38574L8.66562 12.0241L11.3115 12.0117L11.6162 12.5514Z" fill="#C0282D"/>
<path d="M16.437 9.9502H3.5647V10.4326H16.437V9.9502Z" fill="#FEFEFE"/>
<path fill-rule="evenodd" clip-rule="evenodd" d="M16.4114 9.95013L3.56485 9.97783L3.58969 10.4325L16.4114 10.4086V9.94917V9.95013ZM16.462 10.4612H3.56485L3.53906 9.95013L16.4371 9.92529L16.4629 10.4612H16.462Z" fill="#C0282D"/>
<path d="M16.1841 9.98584H13.6624V12.0357H16.1841V9.98584Z" fill="#FEFEFE"/>
<path fill-rule="evenodd" clip-rule="evenodd" d="M16.1601 9.98579L13.6623 10.0097L13.6871 12.0357L16.1601 12.007V9.98579ZM16.2098 12.0586H13.6623L13.6365 9.98579L16.184 9.96191L16.2098 12.0595V12.0586Z" fill="#C0282D"/>
<path d="M15.7207 10.9448H15.4675V12.0357H15.7207V10.9448Z" fill="#FEFEFE"/>
<path fill-rule="evenodd" clip-rule="evenodd" d="M15.6941 10.9448L15.4677 10.9734L15.4935 12.0356L15.6941 12.0117V10.9448ZM15.7437 12.0595H15.4677L15.4419 10.9448L15.7208 10.9209L15.7437 12.0585V12.0595Z" fill="#C0282D"/>
<path d="M14.6098 10.9448H14.3567V12.0357H14.6098V10.9448Z" fill="#FEFEFE"/>
<path fill-rule="evenodd" clip-rule="evenodd" d="M14.583 10.9448L14.3566 10.9734L14.3824 12.0356L14.583 12.0117V10.9448ZM14.6355 12.0595H14.3576L14.3318 10.9448L14.6098 10.9209L14.6355 12.0585V12.0595Z" fill="#C0282D"/>
<path fill-rule="evenodd" clip-rule="evenodd" d="M9.33323 12.0396L9.20142 12.5229H10.7813L10.6495 12.0396H9.33323Z" fill="#FEFEFE"/>
<path fill-rule="evenodd" clip-rule="evenodd" d="M10.6256 12.0423L9.33321 12.0633L9.22432 12.5266L10.7488 12.4989L10.6246 12.0423H10.6256ZM10.8147 12.5504H9.20044L9.30742 12.0308L10.6485 12.0107L10.8147 12.5504Z" fill="#C0282D"/>
<path fill-rule="evenodd" clip-rule="evenodd" d="M9.58536 12.0396L9.50513 12.5229H10.4957L10.4126 12.0396H9.58536Z" fill="#FEFEFE"/>
<path fill-rule="evenodd" clip-rule="evenodd" d="M10.3887 12.0423L9.58632 12.0633L9.52996 12.5266L10.4661 12.4989L10.3896 12.0423H10.3887ZM10.5272 12.5504H9.50513L9.56244 12.0308L10.4126 12.0107L10.5272 12.5504Z" fill="#C0282D"/>
<path d="M11.3153 9.98193H8.65796V12.0394H11.3153V9.98193Z" fill="#FEFEFE"/>
<path fill-rule="evenodd" clip-rule="evenodd" d="M11.2923 9.9818L8.65787 10.0009L8.68271 12.0393L11.2923 12.0106V9.9818ZM11.3401 12.0632H8.65787L8.63208 9.9818L11.3152 9.9541L11.3401 12.0632Z" fill="#C0282D"/>
<path d="M11.0278 10.9448H10.7756V12.0357H11.0278V10.9448Z" fill="#FEFEFE"/>
<path fill-rule="evenodd" clip-rule="evenodd" d="M11.0029 10.9448L10.7746 10.9734L10.8004 12.0356L11.0029 12.007V10.9448ZM11.0535 12.0595H10.7755L10.7498 10.9448L11.0277 10.9209L11.0535 12.0585V12.0595Z" fill="#C0282D"/>
<path d="M9.27315 10.9448H9.02002V12.0357H9.27315V10.9448Z" fill="#FEFEFE"/>
<path fill-rule="evenodd" clip-rule="evenodd" d="M9.24733 10.9448L9.01999 10.9734L9.04387 12.0356L9.24733 12.007V10.9448ZM9.29891 12.0595H9.02095L8.99707 10.9448L9.27408 10.9209L9.29987 12.0585L9.29891 12.0595Z" fill="#C0282D"/>
<path d="M10.6438 9.4834H9.35522V12.0405H10.6438V9.4834Z" fill="#FEFEFE"/>
<path fill-rule="evenodd" clip-rule="evenodd" d="M10.6179 9.48333L9.35611 9.51103L9.3819 12.0404L10.6179 12.0117V9.48333ZM10.6686 12.0633H9.35516L9.33032 9.48333L10.6437 9.4585L10.6686 12.0633Z" fill="#C0282D"/>
<path d="M10.5742 10.9448H10.3201V12.0357H10.5742V10.9448Z" fill="#FEFEFE"/>
<path fill-rule="evenodd" clip-rule="evenodd" d="M10.5493 10.9448L10.32 10.9734L10.3468 12.0356L10.5493 12.007V10.9448ZM10.5989 12.0595H10.321L10.2961 10.9448L10.5751 10.9209L10.5989 12.0585V12.0595Z" fill="#C0282D"/>
<path d="M9.72678 10.9448H9.47461V12.0357H9.72678V10.9448Z" fill="#FEFEFE"/>
<path fill-rule="evenodd" clip-rule="evenodd" d="M9.70188 10.9448L9.47454 10.9734L9.50129 12.0356L9.70188 12.007V10.9448ZM9.75251 12.0595H9.47454L9.44971 10.9448L9.72672 10.9209L9.75251 12.0585V12.0595Z" fill="#C0282D"/>
<path fill-rule="evenodd" clip-rule="evenodd" d="M9.44019 9.89404L9.98369 10.6773L10.5606 9.89404H9.44019Z" fill="#FEFEFE"/>
<path fill-rule="evenodd" clip-rule="evenodd" d="M9.48712 9.91786L9.98287 10.6362L10.5082 9.91786H9.48617H9.48712ZM9.98287 10.7212L9.3916 9.86914H10.6085L9.98287 10.7212Z" fill="#C0282D"/>
<path d="M15.3788 9.98193H14.6643V12.5228H15.3788V9.98193Z" fill="#FEFEFE"/>
<path fill-rule="evenodd" clip-rule="evenodd" d="M15.3549 9.9818L14.6642 10.0009L14.6881 12.5217L15.3549 12.4978V9.98085V9.9818ZM15.4045 12.5503H14.6642L14.6394 9.9818L15.3787 9.9541L15.4045 12.5503Z" fill="#C0282D"/>
<path d="M15.2584 9.98193H14.7827V12.5228H15.2584V9.98193Z" fill="#FEFEFE"/>
<path fill-rule="evenodd" clip-rule="evenodd" d="M15.2345 9.9818L14.7826 10.0009L14.8075 12.5217L15.2354 12.4978V9.98085L15.2345 9.9818ZM15.2832 12.5503H14.7826L14.7578 9.9818L15.2574 9.9541L15.2832 12.5503Z" fill="#C0282D"/>
<path fill-rule="evenodd" clip-rule="evenodd" d="M3.79787 12.0396L3.54761 12.5229H6.54121L6.29094 12.0396H3.79787Z" fill="#FEFEFE"/>
<path fill-rule="evenodd" clip-rule="evenodd" d="M3.58681 12.4951H6.49826L6.26901 12.0509L3.79791 12.0633L3.58681 12.4951ZM6.58232 12.5514H3.50562L3.77403 12.0241L6.29003 12.0117L6.58232 12.5514Z" fill="#C0282D"/>
<path fill-rule="evenodd" clip-rule="evenodd" d="M4.39583 12.0396L4.2793 12.5229H5.68535L5.56882 12.0396H4.39583Z" fill="#FEFEFE"/>
<path fill-rule="evenodd" clip-rule="evenodd" d="M5.54494 12.0423L4.39583 12.0633L4.30413 12.5266L5.65479 12.4989L5.54589 12.0423H5.54494ZM5.71783 12.5504H4.2793L4.37195 12.0308L5.56786 12.0107L5.71687 12.5504H5.71783Z" fill="#C0282D"/>
<path fill-rule="evenodd" clip-rule="evenodd" d="M4.60598 12.0396L4.53052 12.5229H5.42745L5.3539 12.0396H4.60598Z" fill="#FEFEFE"/>
<path fill-rule="evenodd" clip-rule="evenodd" d="M5.32811 12.0423L4.60598 12.0633L4.55535 12.5227L5.3988 12.4989L5.32811 12.0423ZM5.45802 12.5504H4.53052L4.58114 12.0346L5.3539 12.0107L5.45802 12.5504Z" fill="#C0282D"/>
<path d="M6.28141 9.98193H3.77783V12.0394H6.28141V9.98193Z" fill="#FEFEFE"/>
<path fill-rule="evenodd" clip-rule="evenodd" d="M6.25649 9.9818L3.77774 10.0009L3.80353 12.0393L6.25649 12.0106V9.9818ZM6.30807 12.0632H3.77774L3.75195 9.9818L6.28133 9.9541L6.30807 12.0632Z" fill="#C0282D"/>
<path d="M4.51997 10.9448H4.26685V12.0357H4.51997V10.9448Z" fill="#FEFEFE"/>
<path fill-rule="evenodd" clip-rule="evenodd" d="M4.49241 10.9448L4.26602 10.9734L4.29182 12.0356L4.49241 12.0117V10.9448ZM4.54303 12.0595H4.26602L4.24023 10.9448L4.51915 10.9209L4.54303 12.0585V12.0595Z" fill="#C0282D"/>
<path d="M5.6806 10.9448H5.42651V12.0357H5.6806V10.9448Z" fill="#FEFEFE"/>
<path fill-rule="evenodd" clip-rule="evenodd" d="M5.65472 10.9448L5.42643 10.9734L5.45222 12.0356L5.65472 12.0117V10.9448ZM5.70439 12.0595H5.42643L5.40063 10.9448L5.68051 10.9209L5.70439 12.0585V12.0595Z" fill="#C0282D"/>
<path d="M5.35196 9.98193H4.63843V12.5228H5.35196V9.98193Z" fill="#FEFEFE"/>
<path fill-rule="evenodd" clip-rule="evenodd" d="M5.32629 9.9818L4.63854 10.0009L4.66242 12.5217L5.32629 12.4978V9.98085V9.9818ZM5.37691 12.5503H4.63759L4.61084 9.9818L5.35112 9.9541L5.37691 12.5503Z" fill="#C0282D"/>
<path d="M5.23153 9.98193H4.75488V12.5228H5.23153V9.98193Z" fill="#FEFEFE"/>
<path fill-rule="evenodd" clip-rule="evenodd" d="M5.20398 9.9818L4.75408 10.0009L4.77987 12.5217L5.20398 12.4978V9.98085V9.9818ZM5.25652 12.5503H4.75408L4.72925 9.9818L5.23073 9.9541L5.25652 12.5503Z" fill="#C0282D"/>
<path d="M16.5785 9.49854H3.41968V9.98187H16.5785V9.49854Z" fill="#FEFEFE"/>
<path fill-rule="evenodd" clip-rule="evenodd" d="M16.5517 9.49851L3.41963 9.52335L3.44638 9.9828L16.5517 9.9551V9.49851ZM16.6043 10.0019H3.41963L3.39575 9.49851L16.5785 9.47559L16.6043 10.0019Z" fill="#C0282D"/>
<path d="M16.8927 12.4033H3.05566V13.0261H16.8927V12.4033Z" fill="#FEFEFE"/>
<path fill-rule="evenodd" clip-rule="evenodd" d="M16.8659 12.4032L3.05462 12.4271L3.07946 13.026L16.8659 12.9983V12.4032ZM16.9184 13.0508H3.05558L3.02979 12.4032L16.8917 12.3755L16.9184 13.0499V13.0508Z" fill="#C0282D"/>
<path d="M17.1037 12.5352H2.84546V13.1579H17.1037V12.5352Z" fill="#FEFEFE"/>
<path fill-rule="evenodd" clip-rule="evenodd" d="M17.0762 12.5351L2.84464 12.5628L2.86852 13.1579L17.0752 13.135V12.5351H17.0762ZM17.1306 13.1866H2.84559L2.81885 12.5351L17.1039 12.5122L17.1306 13.1875V13.1866Z" fill="#C0282D"/>
<path d="M17.5241 12.8906H2.47583V13.5134H17.5241V12.8906Z" fill="#FEFEFE"/>
<path fill-rule="evenodd" clip-rule="evenodd" d="M17.4994 12.8906L2.47599 12.9144L2.49987 13.5133L17.4994 13.4895V12.8906ZM17.5491 13.541H2.47599L2.4502 12.8906L17.5242 12.8657L17.5481 13.541H17.5491Z" fill="#C0282D"/>
<path d="M18.0505 13.3423H1.94678V13.9613H18.0505V13.3423Z" fill="#FEFEFE"/>
<path fill-rule="evenodd" clip-rule="evenodd" d="M18.0275 13.3421L1.94669 13.3583L1.97152 13.961L18.0275 13.9333V13.3421ZM18.0762 13.9849H1.94669L1.9209 13.3421L18.0504 13.3105L18.0762 13.9849Z" fill="#C0282D"/>
<path d="M18.5768 13.9648H1.42139V14.5809H18.5768V13.9648Z" fill="#FEFEFE"/>
<path fill-rule="evenodd" clip-rule="evenodd" d="M18.5538 13.9652L1.4213 13.9891L1.44804 14.5803L18.5538 14.5526V13.9642V13.9652ZM18.6015 14.6042H1.4213L1.39551 13.9652L18.5767 13.9375L18.6025 14.6042H18.6015Z" fill="#C0282D"/>
<path d="M5.35196 12.4033H4.63843V14.585H5.35196V12.4033Z" fill="#FEFEFE"/>
<path fill-rule="evenodd" clip-rule="evenodd" d="M5.32629 12.4032L4.63854 12.4271L4.66242 14.5849L5.32629 14.5572V12.4032ZM5.37691 14.6087H4.63759L4.61084 12.4032L5.35112 12.3755L5.37691 14.6078V14.6087Z" fill="#C0282D"/>
<path d="M5.23344 12.4033H4.75488V14.585H5.23344V12.4033Z" fill="#FEFEFE"/>
<path fill-rule="evenodd" clip-rule="evenodd" d="M5.20687 12.4032L4.75506 12.4271L4.78085 14.5849L5.20687 14.5572V12.4032ZM5.25941 14.6087H4.75506L4.73022 12.4032L5.23362 12.3755L5.25941 14.6078V14.6087Z" fill="#C0282D"/>
<path d="M15.3634 12.4033H14.647V14.585H15.3634V12.4033Z" fill="#FEFEFE"/>
<path fill-rule="evenodd" clip-rule="evenodd" d="M15.3387 12.4032L14.6471 12.4271L14.6748 14.5849L15.3387 14.5572V12.4032ZM15.3874 14.6087H14.6471L14.6213 12.4032L15.3626 12.3755L15.3865 14.6078L15.3874 14.6087Z" fill="#C0282D"/>
<path d="M15.244 12.4033H14.7673V14.585H15.244V12.4033Z" fill="#FEFEFE"/>
<path fill-rule="evenodd" clip-rule="evenodd" d="M15.2183 12.4032L14.7675 12.4271L14.7933 14.5849L15.2193 14.5572V12.4032H15.2183ZM15.268 14.6087H14.7665L14.7407 12.4032L15.2432 12.3755L15.268 14.6078V14.6087Z" fill="#C0282D"/>
<path d="M10.3114 9.98193H9.73633V14.5841H10.3114V9.98193Z" fill="#FEFEFE"/>
<path fill-rule="evenodd" clip-rule="evenodd" d="M10.2845 9.9818L9.73626 10.0009L9.76205 14.584L10.2845 14.5563V9.9818ZM10.3361 14.6078H9.73626L9.71143 9.9818L10.3113 9.9541L10.3361 14.6078Z" fill="#C0282D"/>
<path fill-rule="evenodd" clip-rule="evenodd" d="M13.8257 9.99689L13.8324 8.73889C13.8324 8.73889 13.9613 8.98629 14.9576 9.04265C15.9004 9.01113 16.057 8.85829 16.0991 8.72266L16.0618 10.0007L13.8266 9.99689H13.8257Z" fill="#FEFEFE"/>
<path fill-rule="evenodd" clip-rule="evenodd" d="M13.857 8.80689L13.8523 9.99708L16.0349 9.98179L16.0712 8.82791C15.9671 8.94253 15.7034 9.04378 14.9574 9.06671C14.2238 9.02659 13.9516 8.87949 13.857 8.80689ZM16.0836 10.0296L13.8265 10.0257L13.8074 8.73907L13.8093 8.64355L13.8542 8.72666C13.8542 8.72666 14.0003 8.96737 14.9593 9.01513C15.8725 8.9817 16.0349 8.84319 16.075 8.71519L16.1237 8.72188L16.0827 10.0286L16.0836 10.0296Z" fill="#C0282D"/>
<path fill-rule="evenodd" clip-rule="evenodd" d="M14.4694 8.52412L14.1589 8.27672C14.2631 8.21272 14.455 8.32544 14.455 8.32544C14.455 8.32544 14.5582 8.03792 14.9995 7.92139C15.438 8.03792 15.5421 8.32544 15.5421 8.32544C15.5421 8.32544 15.7312 8.21272 15.8334 8.27768L15.5268 8.52507H14.4694V8.52412Z" fill="#FEFEFE"/>
<path fill-rule="evenodd" clip-rule="evenodd" d="M14.2391 8.2843C14.2143 8.2843 14.1933 8.28812 14.1732 8.29576L14.4846 8.50399L15.5172 8.50017L15.7885 8.2843H15.756C15.6652 8.2843 15.5554 8.34734 15.5554 8.34734C15.5162 8.33206 15.4121 8.056 14.9918 7.94424C14.583 8.05505 14.4789 8.33206 14.4789 8.33206C14.4368 8.34734 14.3327 8.2843 14.2382 8.2843H14.2391ZM15.5344 8.55175H14.4684L14.1455 8.29576C14.1713 8.24036 14.2047 8.23176 14.2382 8.23176C14.3365 8.23176 14.4426 8.28812 14.4607 8.29576C14.4474 8.27188 14.5658 8.00824 14.9909 7.89648C15.4073 8.00347 15.5363 8.24418 15.5592 8.3034C15.5745 8.26806 15.7598 8.19642 15.8477 8.25564L15.5334 8.5508L15.5344 8.55175Z" fill="#C0282D"/>
<path fill-rule="evenodd" clip-rule="evenodd" d="M14.3118 9.16709L13.9097 8.81939C14.0434 8.7277 14.2898 8.88339 14.2898 8.88339C14.2898 8.88339 14.4255 8.48794 14.9986 8.31982C15.5708 8.48794 15.7045 8.88339 15.7045 8.88339C15.7045 8.88339 15.9519 8.72674 16.0847 8.81939L15.6844 9.16709H14.3109H14.3118Z" fill="#FEFEFE"/>
<path fill-rule="evenodd" clip-rule="evenodd" d="M14.0137 8.81553C13.9802 8.81553 13.9468 8.82795 13.9248 8.84418L14.3251 9.14698L15.6757 9.13934L16.0607 8.81075C16.0377 8.82221 16.0139 8.81457 15.9814 8.81457C15.8601 8.81457 15.7206 8.90245 15.7177 8.90627C15.6795 8.88717 15.542 8.50318 14.9918 8.3427C14.454 8.50318 14.3165 8.88717 14.3146 8.89003C14.2763 8.90627 14.1321 8.81457 14.0137 8.81457V8.81553ZM15.6939 9.19092H14.3107L13.8933 8.83941C13.9267 8.77541 13.9669 8.76299 14.0127 8.76299C14.1407 8.76299 14.2783 8.85087 14.3002 8.85947C14.2811 8.83559 14.4301 8.45637 14.9908 8.2959C15.5391 8.45255 15.6967 8.80407 15.7244 8.86329C15.7368 8.82795 15.9842 8.71905 16.0998 8.80024L15.6939 9.19092Z" fill="#C0282D"/>
<path fill-rule="evenodd" clip-rule="evenodd" d="M15.0052 6.59375C15.0176 6.59375 15.4818 7.42573 15.0052 7.43815C14.5228 7.45343 15.0052 6.61954 15.0052 6.59471V6.59375Z" fill="#FEFEFE"/>
<path fill-rule="evenodd" clip-rule="evenodd" d="M15.008 6.64614C15.008 6.64614 15.0052 6.64614 15.0033 6.64996C14.9383 6.79037 14.7434 7.18869 14.8437 7.34916C14.8714 7.3931 14.9211 7.41698 14.9947 7.41698V7.43704L15.0061 7.41698C15.0911 7.41316 15.1475 7.37687 15.1761 7.31669C15.2564 7.14189 15.0759 6.76076 15.009 6.64614H15.008ZM14.9937 7.4657C14.903 7.4657 14.838 7.43418 14.7988 7.37304C14.6871 7.19347 14.8829 6.7856 14.9565 6.63085C14.967 6.60984 14.9756 6.5936 14.9784 6.58691C14.9861 6.58691 14.9956 6.58978 15.0052 6.59456H15.03C15.03 6.59456 15.0281 6.59838 15.0233 6.61079C15.1102 6.69867 15.2421 7.01771 15.244 7.20206C15.2459 7.36922 15.1647 7.46188 15.0052 7.46665H14.9937V7.4657Z" fill="#C0282D"/>
<path fill-rule="evenodd" clip-rule="evenodd" d="M14.5992 7.64909L14.3633 7.5211C14.4426 7.48384 14.5887 7.54116 14.5887 7.54116C14.5887 7.54116 14.6651 7.39406 15.0061 7.3291C15.3452 7.3931 15.4245 7.54116 15.4245 7.54116C15.4245 7.54116 15.5707 7.4848 15.6499 7.5211L15.4111 7.64909H14.6002H14.5992Z" fill="#FEFEFE"/>
<path fill-rule="evenodd" clip-rule="evenodd" d="M14.4437 7.53254L14.6127 7.62423H15.4055L15.5698 7.53254C15.502 7.53636 15.4332 7.56883 15.4332 7.56883C15.4008 7.55355 15.3205 7.41696 15.0015 7.35678C14.6891 7.41696 14.6118 7.55355 14.6118 7.55737C14.5793 7.56883 14.5077 7.53731 14.4437 7.53254ZM15.4189 7.67677H14.5994L14.3042 7.51725L14.3529 7.49719C14.4226 7.46949 14.5659 7.51343 14.5927 7.52203C14.5831 7.50197 14.6825 7.37015 15.0015 7.30615C15.3167 7.36537 15.4189 7.49337 15.4409 7.52203C15.4504 7.50579 15.5918 7.47045 15.6596 7.49719L15.7064 7.51725L15.4189 7.67677Z" fill="#C0282D"/>
<path fill-rule="evenodd" clip-rule="evenodd" d="M14.7961 7.75223L14.7922 7.64907C14.7922 7.64907 14.8343 7.50101 15.0062 7.43701C15.18 7.50005 15.2202 7.64907 15.2202 7.64907L15.2163 7.75223H14.797H14.7961Z" fill="#FEFEFE"/>
<path fill-rule="evenodd" clip-rule="evenodd" d="M14.9975 7.46571C14.8562 7.51729 14.817 7.65388 14.8151 7.65675L14.8246 7.75322L15.1905 7.73316L15.1934 7.65006C15.1934 7.65006 15.1532 7.51824 14.9966 7.46571H14.9975ZM15.2411 7.78092H14.796L14.7673 7.65293C14.7692 7.63669 14.8113 7.48099 14.9975 7.41699C15.2 7.48099 15.243 7.63669 15.244 7.64529L15.2411 7.78092Z" fill="#C0282D"/>
<path fill-rule="evenodd" clip-rule="evenodd" d="M14.5879 8.07257L14.5754 7.93693C14.5754 7.93693 14.6585 7.73729 15.0053 7.64941C15.3549 7.73729 15.4342 7.93693 15.4342 7.93693L15.4237 8.07257H14.5879Z" fill="#FEFEFE"/>
<path fill-rule="evenodd" clip-rule="evenodd" d="M14.9995 7.67707C14.6834 7.75253 14.5993 7.9407 14.5993 7.94453L14.6127 8.07252L15.3998 8.04769L15.4103 7.93211H15.4084C15.4084 7.93211 15.3195 7.74871 14.9995 7.67707ZM15.4466 8.0964H14.5888L14.5535 7.93688C14.5573 7.91682 14.6442 7.71241 15.0005 7.62549C15.3683 7.71337 15.4542 7.91682 15.4609 7.92542L15.4475 8.0964H15.4466Z" fill="#C0282D"/>
<path fill-rule="evenodd" clip-rule="evenodd" d="M14.5879 8.2883L14.5754 8.14407C14.5754 8.14407 14.6585 7.94443 15.0053 7.86133C15.3549 7.94443 15.4342 8.14407 15.4342 8.14407L15.4237 8.2883H14.5879Z" fill="#FEFEFE"/>
<path fill-rule="evenodd" clip-rule="evenodd" d="M14.9995 7.88419C14.6834 7.96442 14.5993 8.1526 14.5993 8.1526L14.6127 8.28442L15.3998 8.25958L15.4103 8.144H15.4084C15.4084 8.144 15.3195 7.9606 14.9995 7.88419ZM15.4466 8.31212H14.5888L14.5535 8.14878C14.5573 8.12872 14.6442 7.92526 15.0005 7.83643C15.3683 7.9243 15.4542 8.12776 15.4609 8.13636L15.4475 8.31212H15.4466Z" fill="#C0282D"/>
<path fill-rule="evenodd" clip-rule="evenodd" d="M14.5992 8.91953L14.3633 8.57566C14.4426 8.48396 14.5887 8.63488 14.5887 8.63488C14.5887 8.63488 14.6651 8.24038 15.0061 8.07227C15.3452 8.24038 15.4245 8.63488 15.4245 8.63488C15.4245 8.63488 15.5707 8.483 15.6499 8.57566L15.4111 8.91953H14.6002H14.5992Z" fill="#FEFEFE"/>
<path fill-rule="evenodd" clip-rule="evenodd" d="M14.4225 8.57177C14.4063 8.57177 14.392 8.58037 14.3805 8.59183L14.6203 8.90704L15.3978 8.89463L15.6271 8.56699C15.6156 8.57463 15.6013 8.57177 15.5879 8.57177C15.5325 8.57177 15.4647 8.63481 15.4417 8.65583L15.4074 8.69212L15.3988 8.64436C15.3988 8.64436 15.3185 8.25655 14.9966 8.09703C14.6929 8.25655 14.6126 8.64054 14.6126 8.64436L14.6031 8.69212L14.5716 8.65583C14.5458 8.63577 14.477 8.57272 14.4225 8.57272V8.57177ZM15.4265 8.94716H14.6002L14.3433 8.59087C14.4044 8.43518 14.5181 8.54789 14.5744 8.59469C14.6059 8.47911 14.712 8.1916 14.9966 8.04736C15.2956 8.1916 15.4054 8.48294 15.436 8.59469C15.4914 8.54789 15.6099 8.49153 15.6681 8.55457L15.4255 8.94621L15.4265 8.94716Z" fill="#C0282D"/>
<path fill-rule="evenodd" clip-rule="evenodd" d="M14.5992 9.34298L14.3633 8.9991C14.4426 8.9074 14.5887 9.06692 14.5887 9.06692C14.5887 9.06692 14.6651 8.66383 15.0061 8.50049C15.3452 8.66383 15.4245 9.06692 15.4245 9.06692C15.4245 9.06692 15.5707 8.9074 15.6499 8.9991L15.4111 9.34298H14.6002H14.5992Z" fill="#FEFEFE"/>
<path fill-rule="evenodd" clip-rule="evenodd" d="M14.4225 8.99511C14.4063 8.99511 14.392 9.00371 14.3805 9.01612L14.6203 9.32656L15.3978 9.31797L15.6271 8.98651C15.6137 9.00275 15.6013 8.99511 15.586 8.99511C15.5325 8.99511 15.4647 9.05911 15.4417 9.07917L15.4074 9.11546L15.3988 9.0677C15.3988 9.0677 15.3185 8.67989 14.9966 8.52037C14.6929 8.67989 14.6126 9.0677 14.6126 9.0677L14.6031 9.11546L14.5716 9.07917C14.5458 9.06006 14.477 8.99511 14.4225 8.99511ZM15.4265 9.3705H14.6002L14.3433 9.01517C14.4044 8.85947 14.5181 8.96741 14.5744 9.01517C14.6059 8.90627 14.712 8.61494 14.9966 8.4707C15.2956 8.61494 15.4054 8.90627 15.436 9.01517C15.4914 8.96741 15.6118 8.91487 15.6681 8.98269L15.4255 9.3705H15.4265Z" fill="#C0282D"/>
<path fill-rule="evenodd" clip-rule="evenodd" d="M14.5879 9.98162L14.5754 9.6301C14.5754 9.6301 14.6585 9.12671 15.0053 8.91943C15.3549 9.12671 15.4342 9.6301 15.4342 9.6301L15.4237 9.98162H14.5879Z" fill="#FEFEFE"/>
<path fill-rule="evenodd" clip-rule="evenodd" d="M14.9937 8.94236C14.6852 9.14295 14.6031 9.62628 14.6011 9.6301L14.6145 9.98161L15.3987 9.95678L15.4092 9.62532C15.4092 9.62532 15.3261 9.14295 14.9947 8.94236H14.9937ZM15.4474 10.0007H14.5878L14.5496 9.62914C14.5553 9.60144 14.6384 9.10952 14.9937 8.89746C15.372 9.10856 15.457 9.60144 15.4599 9.62437L15.4474 9.99976V10.0007Z" fill="#C0282D"/>
<path fill-rule="evenodd" clip-rule="evenodd" d="M14.5992 9.9818L14.3633 9.72199C14.4426 9.65417 14.5887 9.76593 14.5887 9.76593C14.5887 9.76593 14.6651 9.46982 15.0061 9.34277C15.3452 9.47077 15.4245 9.76593 15.4245 9.76593C15.4245 9.76593 15.5707 9.65417 15.6499 9.72199L15.4111 9.9818H14.6002H14.5992Z" fill="#FEFEFE"/>
<path fill-rule="evenodd" clip-rule="evenodd" d="M14.4226 9.72683C14.4044 9.72683 14.392 9.73542 14.3777 9.73924L14.6184 9.96658L15.3998 9.95512L15.6118 9.72683C15.6032 9.73065 15.5956 9.72683 15.5879 9.72683C15.5325 9.72683 15.4618 9.77076 15.438 9.78987L15.4084 9.80993L15.3998 9.77459C15.3998 9.77459 15.3176 9.48611 14.9967 9.37054C14.692 9.48611 14.6127 9.77459 14.6127 9.77459L14.6031 9.80993L14.5716 9.78987C14.5716 9.78987 14.4904 9.72683 14.4226 9.72683ZM15.4236 10.0019H14.5993L14.3452 9.73924C14.3662 9.68671 14.3939 9.67524 14.4226 9.67524C14.4799 9.67524 14.541 9.70677 14.5745 9.7316C14.6079 9.64372 14.7139 9.42785 14.9976 9.32373C15.2937 9.42785 15.4055 9.64372 15.437 9.7316C15.4905 9.69626 15.6042 9.65136 15.6672 9.70295L15.4246 10.0029L15.4236 10.0019Z" fill="#C0282D"/>
<path fill-rule="evenodd" clip-rule="evenodd" d="M4.4733 8.43143L4.16382 8.18785C4.26602 8.12386 4.45707 8.23179 4.45707 8.23179C4.45707 8.23179 4.56118 7.94905 4.99962 7.83252C5.43901 7.94905 5.54408 8.23179 5.54408 8.23179C5.54408 8.23179 5.73321 8.12386 5.83733 8.18881L5.52976 8.43239H4.47235L4.4733 8.43143Z" fill="#FEFEFE"/>
<path fill-rule="evenodd" clip-rule="evenodd" d="M4.24489 8.19299C4.21719 8.19299 4.19522 8.19299 4.17707 8.20541L4.4856 8.41268L5.52104 8.40886L5.79327 8.19299H5.75697C5.66719 8.19299 5.55638 8.25221 5.55638 8.25221C5.51817 8.24075 5.41501 7.96469 4.99281 7.85294C4.58685 7.96469 4.48274 8.24075 4.48083 8.24075C4.4388 8.25221 4.33373 8.19299 4.24489 8.19299ZM5.5411 8.45662H4.47318L4.14746 8.20445C4.17707 8.14905 4.20764 8.14045 4.24489 8.14045C4.34041 8.14045 4.44453 8.19299 4.46841 8.20827C4.45121 8.18439 4.57157 7.92076 4.99377 7.80518C5.41215 7.91693 5.5411 8.15669 5.56307 8.21209C5.57644 8.18057 5.76366 8.11275 5.85058 8.16815L5.54014 8.45662H5.5411Z" fill="#C0282D"/>
<path fill-rule="evenodd" clip-rule="evenodd" d="M4.3138 9.07531L3.91357 8.72762C4.0473 8.63974 4.29565 8.79639 4.29565 8.79639C4.29565 8.79639 4.42843 8.40094 5.00059 8.229C5.57467 8.40094 5.7084 8.79639 5.7084 8.79639C5.7084 8.79639 5.95484 8.63974 6.08952 8.72762L5.68929 9.07531H4.3138Z" fill="#FEFEFE"/>
<path fill-rule="evenodd" clip-rule="evenodd" d="M4.01657 8.72651C3.98123 8.72651 3.95067 8.73511 3.92679 8.75135L4.32988 9.05892L5.67958 9.05032L6.06166 8.71505C6.04256 8.73033 6.0139 8.72269 5.98429 8.72651C5.86393 8.72651 5.72065 8.81057 5.7197 8.81439C5.68245 8.79911 5.54585 8.41129 4.99374 8.24796C4.45501 8.41129 4.32128 8.79911 4.31842 8.80293C4.28308 8.81439 4.13693 8.72651 4.01657 8.72651ZM5.69582 9.09904H4.31269L3.89526 8.74753C3.9287 8.68735 3.96881 8.67589 4.01562 8.67589C4.14362 8.67589 4.28308 8.75994 4.30505 8.77141C4.28594 8.74371 4.43304 8.36831 4.99279 8.2002C5.54203 8.35971 5.70346 8.71218 5.72638 8.77523C5.74167 8.73511 5.98811 8.63481 6.10178 8.70741L5.69582 9.09904Z" fill="#C0282D"/>
<path fill-rule="evenodd" clip-rule="evenodd" d="M3.91528 9.99689L3.92197 8.73889C3.92197 8.73889 4.04997 8.98629 5.04529 9.04265C5.98902 9.01113 6.14568 8.85829 6.18675 8.72266L6.14854 10.0007L3.91624 9.99689H3.91528Z" fill="#FEFEFE"/>
<path fill-rule="evenodd" clip-rule="evenodd" d="M3.94496 8.80689L3.94018 9.99708L6.12281 9.98179L6.16007 8.82791C6.0569 8.94253 5.79136 9.04378 5.04535 9.06671C4.31175 9.02659 4.04048 8.87949 3.94591 8.80689H3.94496ZM6.17153 10.0296L3.91534 10.0257L3.89624 8.73907V8.64355L3.94304 8.72666C3.94304 8.72666 4.08728 8.96737 5.0463 9.01513C5.96043 8.9817 6.12186 8.84319 6.16293 8.71519L6.21069 8.72188L6.17057 10.0286L6.17153 10.0296Z" fill="#C0282D"/>
<path fill-rule="evenodd" clip-rule="evenodd" d="M4.99199 6.59375C5.00536 6.59375 5.47245 7.42573 4.99199 7.43815C4.51343 7.45343 4.99199 6.61954 4.99199 6.59471V6.59375Z" fill="#FEFEFE"/>
<path fill-rule="evenodd" clip-rule="evenodd" d="M4.99565 6.64614C4.99565 6.64614 4.99183 6.64614 4.99088 6.64996C4.92974 6.79037 4.73202 7.18869 4.83136 7.34916C4.86001 7.3931 4.90873 7.41698 4.98132 7.41698V7.43704L4.99088 7.41698C5.07971 7.41316 5.13511 7.37687 5.16377 7.31669C5.24305 7.14189 5.06347 6.76076 4.99565 6.64614ZM4.98132 7.4657C4.89249 7.4657 4.82658 7.43418 4.79028 7.37304C4.67566 7.19347 4.87148 6.7856 4.94789 6.63085C4.95744 6.60984 4.96509 6.5936 4.967 6.58691C4.97368 6.58691 4.98323 6.58978 4.99183 6.59456H5.01858C5.01858 6.59456 5.01667 6.59838 5.01285 6.61079C5.09881 6.69867 5.23159 7.01771 5.2335 7.20206C5.23732 7.36922 5.15326 7.46188 4.99183 7.46665H4.98132V7.4657Z" fill="#C0282D"/>
<path fill-rule="evenodd" clip-rule="evenodd" d="M4.58774 7.64909L4.35181 7.5211C4.42918 7.48384 4.57723 7.54116 4.57723 7.54116C4.57723 7.54116 4.65461 7.39406 4.99466 7.3291C5.3328 7.3931 5.41303 7.54116 5.41303 7.54116C5.41303 7.54116 5.55823 7.4848 5.63942 7.5211L5.40157 7.64909H4.5887H4.58774Z" fill="#FEFEFE"/>
<path fill-rule="evenodd" clip-rule="evenodd" d="M4.43121 7.53254L4.60028 7.62423H5.39405L5.55739 7.53254C5.49148 7.53636 5.42271 7.56883 5.42271 7.56883C5.39023 7.55355 5.30999 7.41696 4.98904 7.35678C4.6786 7.41696 4.59837 7.55355 4.59837 7.55737C4.56971 7.56883 4.49807 7.53731 4.43121 7.53254ZM5.40742 7.67677H4.58786L4.29175 7.51725L4.34237 7.49719C4.41115 7.46949 4.55252 7.51343 4.58022 7.52203C4.57353 7.50197 4.67096 7.37015 4.98809 7.30615C5.30426 7.36537 5.40647 7.49337 5.42844 7.52203C5.43608 7.50579 5.57936 7.47045 5.64622 7.49719L5.69398 7.51725L5.40647 7.67677H5.40742Z" fill="#C0282D"/>
<path fill-rule="evenodd" clip-rule="evenodd" d="M4.78647 7.75223L4.77979 7.64907C4.77979 7.64907 4.82086 7.50101 4.99471 7.43701C5.1676 7.50005 5.20772 7.64907 5.20772 7.64907L5.20485 7.75223H4.78743H4.78647Z" fill="#FEFEFE"/>
<path fill-rule="evenodd" clip-rule="evenodd" d="M4.98529 7.46571C4.84296 7.51729 4.80571 7.65388 4.80571 7.65675L4.81049 7.75322L5.17919 7.73316L5.18492 7.65006C5.18492 7.65006 5.1429 7.51824 4.98624 7.46571H4.98529ZM5.226 7.78092H4.78565L4.75317 7.65293C4.75604 7.63669 4.80093 7.48099 4.98529 7.41699C5.18779 7.48099 5.23077 7.63669 5.23268 7.64529L5.226 7.78092Z" fill="#C0282D"/>
<path fill-rule="evenodd" clip-rule="evenodd" d="M4.57638 8.07257L4.56396 7.93693C4.56396 7.93693 4.64516 7.73729 4.99381 7.64941C5.34245 7.73729 5.42269 7.93693 5.42269 7.93693L5.41218 8.07257H4.57638Z" fill="#FEFEFE"/>
<path fill-rule="evenodd" clip-rule="evenodd" d="M4.989 7.67707C4.67188 7.75253 4.58973 7.9407 4.58782 7.94453L4.60215 8.07252L5.38828 8.04769L5.39688 7.93211C5.39688 7.93211 5.30995 7.74871 4.989 7.67707ZM5.43413 8.0964H4.57731L4.54102 7.93688C4.54675 7.91682 4.63272 7.71241 4.98996 7.62549C5.35676 7.71337 5.44368 7.91682 5.4475 7.92542L5.43413 8.0964Z" fill="#C0282D"/>
<path fill-rule="evenodd" clip-rule="evenodd" d="M4.57638 8.2883L4.56396 8.14407C4.56396 8.14407 4.64516 7.94443 4.99381 7.86133C5.34245 7.94443 5.42269 8.14407 5.42269 8.14407L5.41218 8.2883H4.57638Z" fill="#FEFEFE"/>
<path fill-rule="evenodd" clip-rule="evenodd" d="M4.989 7.88419C4.67188 7.96442 4.58973 8.1526 4.58973 8.1526L4.60215 8.28442L5.38828 8.25958L5.39688 8.144C5.39688 8.144 5.30995 7.9606 4.989 7.88419ZM5.43413 8.31212H4.57731L4.54102 8.14878C4.54675 8.12872 4.63272 7.92526 4.98996 7.83643C5.35676 7.9243 5.44368 8.12776 5.4475 8.13636L5.43413 8.31212Z" fill="#C0282D"/>
<path fill-rule="evenodd" clip-rule="evenodd" d="M4.58774 8.91953L4.35181 8.57566C4.42918 8.48396 4.57723 8.63488 4.57723 8.63488C4.57723 8.63488 4.65461 8.24038 4.99466 8.07227C5.3328 8.24038 5.41303 8.63488 5.41303 8.63488C5.41303 8.63488 5.55823 8.483 5.63942 8.57566L5.40157 8.91953H4.5887H4.58774Z" fill="#FEFEFE"/>
<path fill-rule="evenodd" clip-rule="evenodd" d="M4.41123 8.57177C4.39499 8.57177 4.38162 8.58037 4.37015 8.59183L4.60991 8.90704L5.3884 8.89463L5.61287 8.56699C5.60427 8.57463 5.59281 8.57177 5.57753 8.57177C5.52213 8.57177 5.45526 8.63481 5.43043 8.65583L5.39795 8.69212L5.38935 8.64436C5.38935 8.64436 5.30816 8.25655 4.9853 8.09703C4.68441 8.25655 4.60322 8.64054 4.60131 8.64436L4.59272 8.69212L4.56024 8.65583C4.53445 8.63577 4.46758 8.57272 4.41218 8.57272L4.41123 8.57177ZM5.41419 8.94716H4.58794L4.32812 8.59087C4.39212 8.43518 4.5077 8.54789 4.56215 8.59469C4.59367 8.47911 4.69874 8.1916 4.98339 8.04736C5.28428 8.1916 5.39604 8.48294 5.42661 8.59469C5.48201 8.54789 5.59854 8.49153 5.65681 8.55457L5.41419 8.94621V8.94716Z" fill="#C0282D"/>
<path fill-rule="evenodd" clip-rule="evenodd" d="M4.58774 9.34298L4.35181 8.9991C4.42918 8.9074 4.57723 9.06692 4.57723 9.06692C4.57723 9.06692 4.65461 8.66383 4.99466 8.50049C5.3328 8.66383 5.41303 9.06692 5.41303 9.06692C5.41303 9.06692 5.55823 8.9074 5.63942 8.9991L5.40157 9.34298H4.5887H4.58774Z" fill="#FEFEFE"/>
<path fill-rule="evenodd" clip-rule="evenodd" d="M4.41123 8.99511C4.39499 8.99511 4.38162 9.00371 4.37015 9.01612L4.60991 9.32656L5.3884 9.31797L5.61287 8.98651C5.60427 9.00275 5.58995 8.99511 5.57753 8.99511C5.52213 8.99511 5.45526 9.05911 5.43043 9.07917L5.39795 9.11546L5.38935 9.0677C5.38935 9.0677 5.30816 8.67989 4.9853 8.52037C4.68441 8.67989 4.60322 9.0677 4.60131 9.0677L4.59272 9.11546L4.56024 9.07917C4.53445 9.06006 4.46758 8.99511 4.41218 8.99511H4.41123ZM5.41419 9.3705H4.58794L4.32812 9.01517C4.39403 8.85947 4.5077 8.96741 4.56215 9.01517C4.59367 8.90627 4.69874 8.61494 4.98339 8.4707C5.28428 8.61494 5.39604 8.90627 5.42661 9.01517C5.48201 8.96741 5.59854 8.91487 5.65681 8.98269L5.41419 9.3705Z" fill="#C0282D"/>
<path fill-rule="evenodd" clip-rule="evenodd" d="M4.57638 9.98162L4.56396 9.6301C4.56396 9.6301 4.64516 9.12671 4.99381 8.91943C5.34245 9.12671 5.42269 9.6301 5.42269 9.6301L5.41218 9.98162H4.57638Z" fill="#FEFEFE"/>
<path fill-rule="evenodd" clip-rule="evenodd" d="M4.98128 8.94236C4.6737 9.14295 4.58965 9.62628 4.58965 9.6301L4.60206 9.98161L5.38628 9.95678L5.39679 9.62532C5.39679 9.62532 5.31655 9.14295 4.98128 8.94236ZM5.435 10.0007H4.57627L4.53711 9.62914C4.54284 9.60144 4.6269 9.10952 4.98128 8.89746C5.36049 9.10856 5.44455 9.60144 5.44837 9.62437L5.435 9.99976V10.0007Z" fill="#C0282D"/>
<path fill-rule="evenodd" clip-rule="evenodd" d="M4.58774 9.9818L4.35181 9.72199C4.42918 9.65417 4.57723 9.76593 4.57723 9.76593C4.57723 9.76593 4.65461 9.46982 4.99466 9.34277C5.3328 9.47077 5.41303 9.76593 5.41303 9.76593C5.41303 9.76593 5.55823 9.65417 5.63942 9.72199L5.40157 9.9818H4.5887H4.58774Z" fill="#FEFEFE"/>
<path fill-rule="evenodd" clip-rule="evenodd" d="M4.41107 9.72683C4.39292 9.72683 4.37859 9.73542 4.36808 9.73924L4.60593 9.96658L5.38919 9.95512L5.59934 9.72683C5.59361 9.73065 5.58501 9.72683 5.57641 9.72683C5.51051 9.72683 5.4274 9.78987 5.4274 9.78987L5.39684 9.80993L5.38824 9.77459C5.38824 9.77459 5.30705 9.48611 4.9861 9.37054C4.68139 9.48611 4.60306 9.77459 4.60115 9.77459L4.59065 9.80993L4.56104 9.78987C4.56104 9.78987 4.47984 9.72683 4.41107 9.72683ZM5.41212 10.0019H4.58778L4.33179 9.73924C4.35471 9.68671 4.3805 9.67524 4.41011 9.67524C4.46743 9.67524 4.52951 9.70677 4.56199 9.7316C4.59447 9.64372 4.70145 9.42785 4.98514 9.32373C5.28317 9.42785 5.39111 9.64372 5.42358 9.7316C5.47707 9.69626 5.5917 9.65136 5.65379 9.70295L5.41116 10.0029L5.41212 10.0019Z" fill="#C0282D"/>
<path fill-rule="evenodd" clip-rule="evenodd" d="M8.54424 9.41455H11.4547C11.598 9.41455 11.7155 9.53013 11.7155 9.67437C11.7155 9.81478 11.598 9.93418 11.4547 9.93418H8.54424C8.4 9.93418 8.28442 9.81478 8.28442 9.67437C8.28442 9.53395 8.4 9.41455 8.54424 9.41455Z" fill="#FEFEFE"/>
<path fill-rule="evenodd" clip-rule="evenodd" d="M8.54435 9.43928C8.41253 9.43928 8.30937 9.54244 8.30937 9.67521C8.30937 9.80321 8.41253 9.90732 8.54435 9.90732H11.4548C11.5848 9.90732 11.6898 9.80321 11.6898 9.67521C11.6898 9.54721 11.5848 9.43928 11.4548 9.43928H8.54435ZM11.4548 9.95795H8.54435C8.38674 9.95795 8.25684 9.83091 8.25684 9.67521C8.25684 9.51951 8.38674 9.3877 8.54435 9.3877H11.4548C11.6115 9.3877 11.7414 9.51951 11.7414 9.67521C11.7414 9.83091 11.6115 9.95891 11.4548 9.95891V9.95795Z" fill="#C0282D"/>
<path fill-rule="evenodd" clip-rule="evenodd" d="M11.7663 9.72223L11.7873 8C11.7873 8 11.7223 8.42315 11.5227 8.42315H8.4775C8.27882 8.42315 8.21387 8 8.21387 8L8.23297 9.72223H11.7663Z" fill="#FEFEFE"/>
<path fill-rule="evenodd" clip-rule="evenodd" d="M8.2405 8.20053L8.25961 9.71834L11.7413 9.69542L11.7614 8.20148C11.7165 8.3247 11.642 8.44888 11.5226 8.44888H8.47739C8.35895 8.44888 8.2854 8.3247 8.23955 8.20148L8.2405 8.20053ZM11.791 9.74222H8.23286L8.18701 8.00089L8.23573 7.99707C8.25579 8.10978 8.3322 8.40112 8.47739 8.40112H11.5226C11.6668 8.40112 11.7461 8.10978 11.7633 7.99707L11.8139 8.00089L11.791 9.74222Z" fill="#C0282D"/>
<path fill-rule="evenodd" clip-rule="evenodd" d="M11.0908 8.93891L11.0966 8.38012C11.0966 8.38012 11.4767 8.27696 11.4252 8.13272C11.3717 7.98466 10.9141 8.31707 10.9141 8.31707H9.08397C9.08397 8.31707 8.62738 7.98562 8.57389 8.13272C8.52231 8.276 8.90344 8.38012 8.90344 8.38012L8.91108 8.93891H11.0928H11.0908Z" fill="#FEFEFE"/>
<path fill-rule="evenodd" clip-rule="evenodd" d="M8.63787 8.12089C8.61113 8.12089 8.60158 8.12854 8.59776 8.14C8.59298 8.15242 8.59393 8.17152 8.60349 8.18871C8.64456 8.268 8.83751 8.33582 8.90915 8.35588L8.93208 8.93855L11.067 8.91467L11.0727 8.3788C11.1615 8.33486 11.3545 8.26704 11.3965 8.18776C11.406 8.17057 11.4051 8.15528 11.4003 8.13904C11.3965 8.12663 11.3879 8.11994 11.3602 8.11994C11.2532 8.11994 11.0115 8.27564 10.9284 8.33486L9.083 8.3425C8.98557 8.27468 8.74486 8.11994 8.63692 8.11994L8.63787 8.12089ZM11.1147 8.9672H8.90915L8.87572 8.38358C8.86808 8.39981 8.61781 8.32817 8.55764 8.20782C8.54235 8.18394 8.53949 8.15242 8.55095 8.12376C8.55764 8.09988 8.57961 8.06836 8.63787 8.06836C8.78402 8.06836 9.08586 8.28423 9.09924 8.2957L10.9141 8.29283C10.9122 8.28519 11.2141 8.06931 11.3612 8.06931C11.4223 8.06931 11.4414 8.10084 11.4481 8.12472C11.4595 8.15337 11.4576 8.18489 11.4404 8.20877C11.3803 8.32913 11.1147 8.40077 11.1032 8.40555L11.1166 8.94046L11.1147 8.96911V8.9672Z" fill="#C0282D"/>
<path fill-rule="evenodd" clip-rule="evenodd" d="M11.3105 9.42688L11.3181 8.83179C11.3181 8.83179 11.7728 8.76015 11.7097 8.61592C11.6476 8.46309 11.0984 8.80027 11.0984 8.80027H8.90336C8.90336 8.80027 8.35412 8.46404 8.29107 8.61592C8.22708 8.76015 8.68271 8.83179 8.68271 8.83179L8.69226 9.42688H11.3114H11.3105Z" fill="#FEFEFE"/>
<path fill-rule="evenodd" clip-rule="evenodd" d="M8.36558 8.60332C8.32259 8.60332 8.31399 8.61956 8.31304 8.62338C8.35698 8.73896 8.59769 8.79531 8.68461 8.80678L8.71613 9.42575L11.2837 9.39804L11.2914 8.83066C11.4022 8.79436 11.641 8.73896 11.6839 8.65872C11.683 8.45908 11.1146 8.81442 11.1099 8.81824L8.9024 8.82206C8.88616 8.81824 8.52509 8.60236 8.36558 8.60236V8.60332ZM11.3334 9.44963H8.69034L8.65691 8.83066C8.64354 8.84594 8.3331 8.80295 8.27101 8.6826C8.25668 8.6549 8.25477 8.63484 8.26623 8.60332C8.27674 8.57944 8.30253 8.55078 8.36558 8.55078C8.53751 8.55078 8.89953 8.76666 8.91386 8.77525H11.0975C11.0994 8.76666 11.4614 8.55078 11.6352 8.55078C11.6983 8.55078 11.7231 8.57944 11.7327 8.60332C11.746 8.63484 11.7441 8.6549 11.7288 8.6826C11.6677 8.79913 11.3554 8.85071 11.321 8.85836L11.3363 9.42575L11.3343 9.44963H11.3334Z" fill="#C0282D"/>
<path fill-rule="evenodd" clip-rule="evenodd" d="M10.3182 6.39412L10.3201 6.16201C10.0526 6.16201 10.1185 5.90601 10.1185 5.80667C10.1988 5.7102 10.2207 5.51056 10.0001 5.41504C9.78516 5.52584 9.8014 5.7102 9.88068 5.79903C9.88164 5.90601 9.97047 6.16201 9.67627 6.16201L9.67818 6.39412H10.3182Z" fill="#FEFEFE"/>
<path fill-rule="evenodd" clip-rule="evenodd" d="M9.98851 5.43894C9.9226 5.4867 9.86911 5.54783 9.85478 5.61469C9.84523 5.67487 9.85956 5.73505 9.89968 5.77803C9.90732 5.81433 9.90923 5.83439 9.91114 5.85923C9.91974 5.93851 9.93311 6.04644 9.87007 6.11904C9.82899 6.16585 9.76404 6.18208 9.6752 6.18208L9.70195 6.39414L10.2942 6.37408V6.16202C10.2416 6.18208 10.1824 6.16585 10.1413 6.12668C10.0754 6.05027 10.0859 5.93469 10.0898 5.85923L10.0936 5.80669C10.1327 5.74651 10.1614 5.67869 10.1423 5.60323C10.1261 5.53446 10.0726 5.47906 9.98756 5.43894H9.98851ZM10.3448 6.42184H9.67807L9.64941 6.16202C9.74971 6.13432 9.80129 6.12191 9.83186 6.08179C9.87962 6.02639 9.87007 5.93851 9.86147 5.86591C9.85765 5.83821 9.85669 5.81815 9.85478 5.79809C9.8118 5.75797 9.79174 5.67869 9.80511 5.60705C9.81657 5.54688 9.85765 5.459 9.98851 5.39404C10.1356 5.4504 10.1786 5.52968 10.1929 5.59081C10.212 5.66628 10.191 5.75797 10.1385 5.82197C10.1385 5.82197 10.1413 5.83821 10.1413 5.86305C10.1356 5.93469 10.127 6.03116 10.1805 6.08656C10.2073 6.12191 10.2541 6.13432 10.32 6.13432L10.3448 6.39414V6.42184Z" fill="#C0282D"/>
<path fill-rule="evenodd" clip-rule="evenodd" d="M10.7719 7.93685L10.7767 7.48504C10.7767 7.48504 11.0432 7.39812 11.0078 7.27776C10.9696 7.15836 10.6467 7.42582 10.6467 7.42582H9.35054C9.35054 7.42582 9.02481 7.15836 8.98947 7.27776C8.95317 7.39812 9.22063 7.486 9.22063 7.486L9.22541 7.93781H10.7709L10.7719 7.93685Z" fill="#FEFEFE"/>
<path fill-rule="evenodd" clip-rule="evenodd" d="M9.03534 7.26982C8.99045 7.36057 9.16621 7.4408 9.23116 7.46564L9.25217 7.93655L10.748 7.91172L10.7518 7.48474C10.8311 7.4408 11.0088 7.36152 10.9849 7.2851C10.8903 7.266 10.7222 7.39782 10.664 7.44462L9.35151 7.45226C9.27605 7.39686 9.10794 7.26982 9.03534 7.26982ZM10.7967 7.95948H9.22638L9.19582 7.48379C9.18626 7.50002 8.92167 7.40833 8.96561 7.26887C8.97516 7.23639 8.99809 7.21729 9.03534 7.21729C9.1385 7.21729 9.34292 7.38445 9.3668 7.40833L10.6477 7.39973C10.6554 7.38445 10.8598 7.21729 10.9648 7.21729C11.0002 7.21729 11.0241 7.23639 11.0336 7.26887C11.0776 7.40737 10.8158 7.50003 10.7872 7.51244L10.7977 7.94037V7.95948H10.7967Z" fill="#C0282D"/>
<path fill-rule="evenodd" clip-rule="evenodd" d="M10.9256 8.33524L10.9314 7.84809C10.9314 7.84809 11.2561 7.78791 11.2103 7.67233C11.1654 7.54815 10.7766 7.82325 10.7766 7.82325H9.2206C9.2206 7.82325 8.83183 7.54815 8.78789 7.67233C8.74204 7.78791 9.06586 7.84809 9.06586 7.84809L9.07063 8.33524H10.9237H10.9256Z" fill="#FEFEFE"/>
<path fill-rule="evenodd" clip-rule="evenodd" d="M8.84224 7.6683L8.81454 7.71606C8.84606 7.7686 8.98838 7.80872 9.07244 7.824L9.09919 8.33503L10.9036 8.30733L10.9074 7.84788C10.9895 7.81158 11.151 7.77242 11.1853 7.71606L11.1567 7.6683C11.0679 7.6683 10.8634 7.79248 10.7937 7.84406L9.22145 7.84788C9.13644 7.79152 8.93298 7.6683 8.84224 7.6683ZM10.9523 8.35987H9.07244L9.04092 7.84883C9.03805 7.86794 8.82313 7.8326 8.77155 7.73803C8.75818 7.71702 8.75436 7.68932 8.76582 7.66544C8.77155 7.64633 8.7897 7.61768 8.84224 7.61768C8.96737 7.61768 9.22432 7.79343 9.23673 7.80203L10.7775 7.79821C10.7775 7.79821 11.0335 7.61863 11.1567 7.61863C11.2102 7.61863 11.2274 7.64729 11.235 7.66639C11.2446 7.69027 11.2427 7.71893 11.2293 7.73899C11.1767 7.83355 10.9618 7.86985 10.9379 7.87749L10.9523 8.33599V8.36082V8.35987Z" fill="#C0282D"/>
<path fill-rule="evenodd" clip-rule="evenodd" d="M10.5005 7.21753L10.5034 6.92237C10.5034 6.92237 10.6772 6.84978 10.6533 6.77049C10.6294 6.68644 10.4203 6.87079 10.4203 6.87079H9.58064C9.58064 6.87079 9.37049 6.68644 9.34757 6.77049C9.32178 6.84978 9.49658 6.92237 9.49658 6.92237L9.5004 7.21753H10.4995H10.5005Z" fill="#FEFEFE"/>
<path fill-rule="evenodd" clip-rule="evenodd" d="M9.37725 6.77324C9.35528 6.821 9.45557 6.87831 9.50715 6.89742L9.52435 7.21741L10.4748 7.19353V6.91843C10.5435 6.87831 10.6419 6.82291 10.6305 6.77419C10.6047 6.78184 10.4901 6.84297 10.4366 6.88977L9.5807 6.89742C9.50811 6.84201 9.41354 6.77419 9.37725 6.77419V6.77324ZM10.5273 7.24415H9.50142L9.47086 6.9213C9.46608 6.93658 9.29414 6.8573 9.3228 6.75796L9.32853 6.74554L9.37725 6.7207C9.44602 6.7207 9.57115 6.83342 9.59694 6.85252L10.4203 6.84392C10.4261 6.83246 10.5521 6.7207 10.6238 6.7207H10.6419L10.6763 6.757C10.705 6.85634 10.5321 6.93562 10.512 6.94422L10.5264 7.21645V7.24415H10.5273Z" fill="#C0282D"/>
<path fill-rule="evenodd" clip-rule="evenodd" d="M10.6009 7.48857L10.6047 7.18863C10.6047 7.18863 10.8129 7.11699 10.7843 7.03676C10.7556 6.9527 10.5025 7.14087 10.5025 7.14087H9.49666C9.49666 7.14087 9.24449 6.9527 9.21583 7.03676C9.18718 7.11699 9.39636 7.18863 9.39636 7.18863L9.40019 7.48857H10.5999H10.6009Z" fill="#FEFEFE"/>
<path fill-rule="evenodd" clip-rule="evenodd" d="M9.25016 7.04192C9.25971 7.10497 9.35141 7.14986 9.40395 7.1661L9.42592 7.48514L10.575 7.46603L10.5779 7.18998C10.6476 7.14986 10.7393 7.10592 10.7584 7.0658C10.7011 7.04192 10.5808 7.11356 10.5187 7.16228L9.49756 7.1661C9.41923 7.11356 9.30079 7.04192 9.25112 7.04192H9.25016ZM10.6257 7.51379H9.40013L9.37052 7.18998C9.37243 7.21004 9.23106 7.15846 9.19571 7.08682L9.19189 7.0744V7.03046C9.19763 7.01518 9.21195 6.99512 9.25016 6.99512C9.33326 6.99512 9.49374 7.10688 9.51093 7.11929L10.5034 7.11452C10.5053 7.10688 10.6658 6.99512 10.7498 6.99512H10.7661L10.8071 7.03046C10.8138 7.05147 10.8129 7.06676 10.8033 7.08682C10.7689 7.16228 10.6285 7.21004 10.6123 7.21481L10.6266 7.48991V7.51475L10.6257 7.51379Z" fill="#C0282D"/>
<path fill-rule="evenodd" clip-rule="evenodd" d="M10.3544 6.69398L10.3563 6.42175C10.3563 6.42175 10.4785 6.36253 10.4623 6.28993C10.4442 6.22689 10.2942 6.38259 10.2942 6.38259H9.70101C9.70101 6.38259 9.552 6.22689 9.53577 6.28993C9.52048 6.36253 9.64084 6.42175 9.64084 6.42175L9.64275 6.65768L10.3534 6.69398H10.3544Z" fill="#FEFEFE"/>
<path fill-rule="evenodd" clip-rule="evenodd" d="M9.55683 6.30252C9.5511 6.33786 9.62083 6.39039 9.65331 6.39899L9.6705 6.6588L10.3277 6.67122L10.3296 6.42287C10.3793 6.38657 10.4461 6.33881 10.4366 6.29869C10.4213 6.30252 10.3582 6.35028 10.3134 6.39039L9.70107 6.39804C9.63707 6.35028 9.57785 6.30252 9.55588 6.30252H9.55683ZM10.3793 6.72185L9.64376 6.68555L9.61701 6.42574C9.61701 6.43815 9.49092 6.37033 9.51003 6.28628L9.51671 6.26526L9.55683 6.24902C9.61032 6.24902 9.69247 6.3369 9.72017 6.36174L10.2952 6.35314C10.3057 6.33595 10.3879 6.24902 10.4413 6.24902H10.4614L10.4862 6.28628C10.5063 6.37415 10.3831 6.43815 10.3678 6.4458L10.3793 6.69319V6.72089V6.72185Z" fill="#C0282D"/>
<path fill-rule="evenodd" clip-rule="evenodd" d="M10.4242 6.8822L10.4261 6.64627C10.4261 6.64627 10.5742 6.58227 10.5541 6.51445C10.535 6.44281 10.3564 6.59851 10.3564 6.59851H9.64187C9.64187 6.59851 9.46421 6.44281 9.44319 6.51445C9.42218 6.58227 9.57119 6.64627 9.57119 6.64627L9.57501 6.8822H10.4242Z" fill="#FEFEFE"/>
<path fill-rule="evenodd" clip-rule="evenodd" d="M9.46884 6.52228C9.45833 6.54998 9.52902 6.59775 9.58251 6.62258L9.60066 6.8824L10.4002 6.85374L10.4021 6.64646C10.4718 6.59775 10.5396 6.54998 10.531 6.52228C10.4985 6.52228 10.4202 6.57864 10.3725 6.61876L9.64173 6.62258C9.5806 6.57864 9.50036 6.52228 9.46884 6.52228ZM10.447 6.90628H9.57487L9.54717 6.64646C9.53379 6.64646 9.39338 6.59392 9.41917 6.50605L9.4249 6.49076L9.46884 6.4707C9.52902 6.4707 9.636 6.5624 9.65893 6.58342L10.3562 6.57482C10.3591 6.5624 10.4708 6.4707 10.5301 6.4707H10.5482L10.5788 6.50605C10.6046 6.59392 10.4642 6.6541 10.4365 6.66652L10.447 6.8824V6.90628Z" fill="#C0282D"/>
<path fill-rule="evenodd" clip-rule="evenodd" d="M9.77366 6.89382L9.64185 6.74672C9.68674 6.7066 9.76602 6.77442 9.76602 6.77442C9.76602 6.77442 9.81187 6.60249 10 6.53467C10.1892 6.60249 10.2322 6.77442 10.2322 6.77442C10.2322 6.77442 10.3143 6.7066 10.3582 6.74672L10.2264 6.89382H9.77271H9.77366Z" fill="#FEFEFE"/>
<path fill-rule="evenodd" clip-rule="evenodd" d="M9.67621 6.75899L9.79275 6.87839L10.214 6.86597L10.3372 6.72938C10.2952 6.75803 10.2589 6.78573 10.2474 6.79433L10.2169 6.81821L10.2073 6.78191C10.2054 6.77427 10.1643 6.61857 9.99048 6.55362C9.83573 6.61857 9.7937 6.77332 9.79179 6.78191L9.78129 6.81726L9.75263 6.79338C9.73926 6.78478 9.70201 6.75803 9.67621 6.75803V6.75899ZM10.236 6.91851H9.7746L9.58643 6.71791L9.67621 6.70645C9.70487 6.70645 9.73448 6.72173 9.75454 6.73415C9.77842 6.6778 9.84337 6.56222 9.99143 6.50586C10.1529 6.56222 10.2216 6.6778 10.2446 6.73415C10.2656 6.72173 10.2952 6.70645 10.3229 6.70645L10.3745 6.72556L10.236 6.91755V6.91851Z" fill="#C0282D"/>
<path fill-rule="evenodd" clip-rule="evenodd" d="M9.68289 7.1345L9.49854 6.98931C9.55967 6.95015 9.67525 7.01415 9.67525 7.01415C9.67525 7.01415 9.73543 6.84221 10 6.77344C10.2627 6.84126 10.3238 7.01415 10.3238 7.01415C10.3238 7.01415 10.4394 6.95015 10.4996 6.98931L10.3152 7.13355H9.68193L9.68289 7.1345Z" fill="#FEFEFE"/>
<path fill-rule="evenodd" clip-rule="evenodd" d="M9.55671 7.00553L9.69903 7.11251L10.3065 7.10869L10.4441 7.00553C10.3954 7.00553 10.3371 7.03705 10.3371 7.03705C10.2999 7.01699 10.2387 6.86129 9.99228 6.79729C9.75921 6.86034 9.70094 7.01603 9.69807 7.02463C9.66369 7.03609 9.60542 7.00457 9.55575 7.00457L9.55671 7.00553ZM10.3237 7.16123H9.68279L9.48315 7.00553C9.50226 6.95299 9.52423 6.94917 9.54715 6.94917C9.59969 6.94917 9.66082 6.97687 9.67802 6.98929C9.67037 6.96159 9.7487 6.81353 9.99228 6.75049C10.232 6.80876 10.317 6.94535 10.3409 6.99406C10.3562 6.96254 10.4622 6.93389 10.5138 6.96636L10.3237 7.16218V7.16123Z" fill="#C0282D"/>
<path fill-rule="evenodd" clip-rule="evenodd" d="M9.6369 7.55753L9.42676 7.36076C9.4984 7.30918 9.62831 7.39801 9.62831 7.39801C9.62831 7.39801 9.69899 7.16972 9.99988 7.07324C10.3017 7.16972 10.3705 7.39801 10.3705 7.39801C10.3705 7.39801 10.5014 7.30918 10.573 7.36076L10.36 7.55753H9.6369Z" fill="#FEFEFE"/>
<path fill-rule="evenodd" clip-rule="evenodd" d="M9.48135 7.36846C9.46511 7.36846 9.45365 7.37324 9.44219 7.38088L9.6552 7.5404L10.3506 7.53276L10.5263 7.36846C10.4814 7.36846 10.4069 7.40476 10.384 7.421C10.3468 7.40476 10.2751 7.18888 9.99047 7.09814C9.72397 7.18888 9.65329 7.40476 9.65329 7.40476C9.61317 7.421 9.54057 7.36942 9.48135 7.36942V7.36846ZM10.3706 7.58434H9.63705L9.41162 7.37706C9.43073 7.32452 9.45556 7.31688 9.48135 7.31688C9.5463 7.31688 9.61317 7.36082 9.63609 7.36942C9.62368 7.34172 9.7106 7.14208 9.99143 7.0542C10.2703 7.13444 10.3649 7.31688 10.3888 7.36942C10.405 7.34172 10.5302 7.29778 10.5875 7.34171L10.3706 7.58529V7.58434Z" fill="#C0282D"/>
<path fill-rule="evenodd" clip-rule="evenodd" d="M9.5481 8.08019L9.28638 7.83279C9.3733 7.76975 9.53473 7.88055 9.53473 7.88055C9.53473 7.88055 9.62356 7.59303 10.0009 7.47363C10.3763 7.59303 10.4661 7.88055 10.4661 7.88055C10.4661 7.88055 10.6265 7.76879 10.7154 7.83279L10.4508 8.08019H9.54906H9.5481Z" fill="#FEFEFE"/>
<path fill-rule="evenodd" clip-rule="evenodd" d="M9.3523 7.83663C9.33033 7.83663 9.31219 7.8414 9.29977 7.85287L9.5634 8.06014L10.4412 8.0525L10.6724 7.83281C10.6657 7.83663 10.6562 7.83663 10.6466 7.83663C10.5711 7.83663 10.4766 7.89681 10.4766 7.90063C10.4393 7.88439 10.3495 7.61216 9.98942 7.5004C9.64746 7.61216 9.55863 7.88439 9.55863 7.88439C9.51946 7.89681 9.42777 7.83663 9.35135 7.83663H9.3523ZM10.4613 8.10408H9.54716L9.26538 7.84809C9.29213 7.79173 9.31887 7.78409 9.35135 7.78409C9.43063 7.78409 9.52138 7.83663 9.54334 7.85287C9.52806 7.82421 9.63313 7.56535 9.98942 7.45264C10.3428 7.55675 10.4565 7.79173 10.4823 7.85669C10.4966 7.82039 10.6533 7.75639 10.7287 7.81275L10.4603 8.10408H10.4613Z" fill="#C0282D"/>
<path fill-rule="evenodd" clip-rule="evenodd" d="M9.48315 8.50439L9.98463 9.13101L10.5167 8.50439H9.48315Z" fill="#FEFEFE"/>
<path fill-rule="evenodd" clip-rule="evenodd" d="M9.53667 8.53547L9.98466 9.09139L10.4623 8.53547H9.53667ZM9.9837 9.17068L9.42969 8.48389H10.5721L9.9837 9.17068Z" fill="#C0282D"/>
<path fill-rule="evenodd" clip-rule="evenodd" d="M9.45944 8.57965L9.14136 8.29977C9.24738 8.22813 9.44225 8.35231 9.44225 8.35231C9.44225 8.35231 9.54732 8.03709 10.0001 7.90527C10.45 8.03709 10.556 8.35231 10.556 8.35231C10.556 8.35231 10.7537 8.22813 10.8579 8.29977L10.5407 8.57965H9.45848H9.45944Z" fill="#FEFEFE"/>
<path fill-rule="evenodd" clip-rule="evenodd" d="M9.22339 8.30353C9.19568 8.30353 9.17085 8.30735 9.15557 8.32454L9.47365 8.55952L10.532 8.55188L10.8167 8.2997C10.8062 8.30353 10.7928 8.30353 10.7746 8.30353C10.682 8.30353 10.5712 8.37612 10.5712 8.37612C10.5301 8.35511 10.4241 8.05231 9.99232 7.92813C9.5749 8.05135 9.46696 8.35511 9.46696 8.35988C9.42493 8.37612 9.31604 8.30353 9.22339 8.30353ZM10.5502 8.60346H9.45932L9.125 8.31976C9.15461 8.26341 9.18709 8.25099 9.22434 8.25099C9.32273 8.25099 9.42971 8.31594 9.45454 8.33218C9.43544 8.29493 9.55771 8.00359 9.99328 7.88037C10.4212 7.99977 10.5511 8.272 10.576 8.33218C10.5903 8.29493 10.7832 8.21565 10.8711 8.27965L10.5502 8.60346Z" fill="#C0282D"/>
<path fill-rule="evenodd" clip-rule="evenodd" d="M9.44019 9.19482L9.98369 9.98191L10.5606 9.19482H9.44019Z" fill="#FEFEFE"/>
<path fill-rule="evenodd" clip-rule="evenodd" d="M9.4871 9.22343L9.98285 9.93792L10.5082 9.22343H9.48615H9.4871ZM9.98285 10.022L9.39062 9.1709H10.6085L9.98285 10.022Z" fill="#C0282D"/>
<path fill-rule="evenodd" clip-rule="evenodd" d="M9.41345 9.28283L9.06958 8.93514C9.18516 8.84726 9.39626 9.00391 9.39626 9.00391C9.39626 9.00391 9.51088 8.60368 9.99995 8.43652C10.4881 8.60464 10.6046 9.00391 10.6046 9.00391C10.6046 9.00391 10.8147 8.84726 10.9294 8.93514L10.5874 9.28283H9.41441H9.41345Z" fill="#FEFEFE"/>
<path fill-rule="evenodd" clip-rule="evenodd" d="M9.1585 8.93214C9.12984 8.93214 9.105 8.93978 9.0859 8.95984L9.43168 9.26742L10.576 9.25978L10.9036 8.9245C10.8884 8.93978 10.8683 8.9331 10.8406 8.9331C10.7394 8.9331 10.618 9.02002 10.618 9.02002L10.5894 9.04486L10.5798 9.01333C10.5798 9.01333 10.4623 8.6217 9.99048 8.45836C9.53867 8.6217 9.41927 9.00951 9.41927 9.01333L9.41067 9.04486L9.3801 9.02002C9.3801 9.02002 9.25879 8.9331 9.15659 8.9331L9.1585 8.93214ZM10.5961 9.30754H9.41353L9.05151 8.95602C9.08112 8.89202 9.11838 8.88056 9.15754 8.88056C9.24255 8.88056 9.33712 8.9331 9.3801 8.96462C9.42118 8.8605 9.57019 8.55293 9.99048 8.40869C10.4241 8.55197 10.5751 8.85955 10.6152 8.96462C10.684 8.92068 10.8578 8.8519 10.9447 8.91686L10.5961 9.30849V9.30754Z" fill="#C0282D"/>
<path fill-rule="evenodd" clip-rule="evenodd" d="M9.41345 9.98194L9.06958 9.63425C9.18516 9.5416 9.39626 9.69825 9.39626 9.69825C9.39626 9.69825 9.51088 9.3028 9.99995 9.13086C10.4881 9.3028 10.6046 9.69825 10.6046 9.69825C10.6046 9.69825 10.8147 9.5416 10.9294 9.63425L10.5874 9.98194H9.41441H9.41345Z" fill="#FEFEFE"/>
<path fill-rule="evenodd" clip-rule="evenodd" d="M9.1585 9.63038C9.12984 9.63038 9.105 9.63898 9.0859 9.65426L9.43168 9.96566L10.576 9.9542L10.9036 9.62561C10.8884 9.6342 10.8683 9.63038 10.8406 9.63038C10.7394 9.63038 10.618 9.71826 10.618 9.72208L10.5894 9.73832L10.5798 9.70585C10.5798 9.70585 10.4623 9.31803 9.99048 9.15469C9.53676 9.31803 9.41927 9.70202 9.41927 9.70585L9.41067 9.73832L9.3801 9.72208C9.3801 9.72208 9.25879 9.63038 9.15659 9.63038H9.1585ZM10.5961 10.002H9.41353L9.05151 9.6514C9.08112 9.59122 9.11838 9.58262 9.15754 9.58262C9.24446 9.58262 9.33712 9.63134 9.3801 9.65808C9.42118 9.55874 9.57019 9.25499 9.99048 9.10693C10.4241 9.25499 10.5751 9.55874 10.6152 9.65808C10.682 9.61797 10.8578 9.54251 10.9447 9.61415L10.5961 10.002Z" fill="#C0282D"/>
<path d="M6.75242 10.9448H6.50024V12.0357H6.75242V10.9448Z" fill="#FEFEFE"/>
<path fill-rule="evenodd" clip-rule="evenodd" d="M6.72658 10.9448L6.5002 10.9734L6.52599 12.0356L6.72658 12.0117V10.9448ZM6.77816 12.0595H6.50115L6.47632 10.9448L6.75237 10.9209L6.77816 12.0585V12.0595Z" fill="#C0282D"/>
<path d="M7.60911 10.9448H7.35693V12.0357H7.60911V10.9448Z" fill="#FEFEFE"/>
<path fill-rule="evenodd" clip-rule="evenodd" d="M7.58614 10.9448L7.35689 10.9734L7.38268 12.0356L7.58614 12.007V10.9448ZM7.63676 12.0595H7.35784L7.33301 10.9448L7.61002 10.9209L7.63676 12.0585V12.0595Z" fill="#C0282D"/>
<path d="M7.20699 10.9448H6.95386V12.0357H7.20699V10.9448Z" fill="#FEFEFE"/>
<path fill-rule="evenodd" clip-rule="evenodd" d="M7.18017 10.9448L6.95379 10.9734L6.98054 12.0356L7.18017 12.007V10.9448ZM7.2308 12.0595H6.95379L6.92896 10.9448L7.20596 10.9209L7.22984 12.0585L7.2308 12.0595Z" fill="#C0282D"/>
<path d="M11.7891 10.9448H11.5388V12.0357H11.7891V10.9448Z" fill="#FEFEFE"/>
<path fill-rule="evenodd" clip-rule="evenodd" d="M11.7641 10.9448L11.5387 10.9734L11.5626 12.0356L11.7641 12.0117V10.9448ZM11.8148 12.0595H11.5387L11.512 10.9448L11.789 10.9209L11.8148 12.0585V12.0595Z" fill="#C0282D"/>
<path d="M13.5056 10.9448H13.2524V12.0357H13.5056V10.9448Z" fill="#FEFEFE"/>
<path fill-rule="evenodd" clip-rule="evenodd" d="M13.479 10.9448L13.2516 10.9734L13.2765 12.0356L13.479 12.007V10.9448ZM13.5305 12.0595H13.2526L13.2258 10.9448L13.5047 10.9209L13.5305 12.0585V12.0595Z" fill="#C0282D"/>
<path d="M12.6488 10.9448H12.3938V12.0357H12.6488V10.9448Z" fill="#FEFEFE"/>
<path fill-rule="evenodd" clip-rule="evenodd" d="M12.6201 10.9448L12.3937 10.9734L12.4195 12.0356L12.6201 12.007V10.9448ZM12.6717 12.0595H12.3947L12.3689 10.9448L12.6488 10.9209L12.6707 12.0585L12.6717 12.0595Z" fill="#C0282D"/>
<path d="M12.2427 10.9448H11.9924V12.0357H12.2427V10.9448Z" fill="#FEFEFE"/>
<path fill-rule="evenodd" clip-rule="evenodd" d="M12.217 10.9448L11.9916 10.9734L12.0174 12.0356L12.217 12.007V10.9448ZM12.2677 12.0595H11.9916L11.9658 10.9448L12.2419 10.9209L12.2677 12.0585V12.0595Z" fill="#C0282D"/>
<path d="M13.05 10.9448H12.7969V12.0357H13.05V10.9448Z" fill="#FEFEFE"/>
<path fill-rule="evenodd" clip-rule="evenodd" d="M13.0252 10.9448L12.7969 10.9734L12.8236 12.0356L13.0252 12.007V10.9448ZM13.0777 12.0595H12.7978L12.7759 10.9448L13.0519 10.9209L13.0787 12.0585L13.0777 12.0595Z" fill="#C0282D"/>
<path d="M8.46775 10.9448H8.21558V12.0357H8.46775V10.9448Z" fill="#FEFEFE"/>
<path fill-rule="evenodd" clip-rule="evenodd" d="M8.44211 10.9448L8.21478 10.9734L8.23961 12.0356L8.44211 12.0117V10.9448ZM8.49274 12.0595H8.21478L8.18994 10.9448L8.46695 10.9209L8.49274 12.0585V12.0595Z" fill="#C0282D"/>
<path d="M8.01409 10.9448H7.76001V12.0357H8.01409V10.9448Z" fill="#FEFEFE"/>
<path fill-rule="evenodd" clip-rule="evenodd" d="M7.98846 10.9448L7.76017 10.9734L7.78596 12.0356L7.98846 12.007V10.9448ZM8.03908 12.0595H7.76017L7.73438 10.9448L8.01329 10.9209L8.03908 12.0585V12.0595Z" fill="#C0282D"/>
<path d="M10.2588 5.97119H9.73633V6.17083H10.2588V5.97119Z" fill="#FEFEFE"/>
<path fill-rule="evenodd" clip-rule="evenodd" d="M10.233 5.97106L9.73626 5.99398L9.76205 6.16974L10.233 6.14586V5.9701V5.97106ZM10.2865 6.19076H9.73626L9.71143 5.97106L10.2597 5.94336L10.2874 6.19076H10.2865Z" fill="#C0282D"/>
<path d="M10.1911 5.7749H9.80615V5.96594H10.1911V5.7749Z" fill="#FEFEFE"/>
<path fill-rule="evenodd" clip-rule="evenodd" d="M10.1652 5.77524L9.80509 5.79912L9.83088 5.96628L10.1652 5.94335V5.77524ZM10.2168 5.99111H9.80604L9.7793 5.77524L10.1919 5.74658L10.2177 5.99111H10.2168Z" fill="#C0282D"/>
</g>
<defs>
<clipPath id="clip0_1423_25476">
<rect width="20" height="20" fill="white"/>
</clipPath>
</defs>
</svg>
