<svg width="20" height="20" viewBox="0 0 20 20" fill="none" xmlns="http://www.w3.org/2000/svg">
<g clip-path="url(#clip0_13905_354781)">
<path d="M10 20C15.5228 20 20 15.5228 20 10C20 4.47715 15.5228 0 10 0C4.47715 0 0 4.47715 0 10C0 15.5228 4.47715 20 10 20Z" fill="#FEFEFE"/>
<path fill-rule="evenodd" clip-rule="evenodd" d="M14.5611 4.48944L15.6041 6.05788L15.0358 6.43901L13.9918 4.87057L14.5611 4.48944Z" fill="#242222"/>
<path fill-rule="evenodd" clip-rule="evenodd" d="M15.7952 6.34351L16.8421 7.91195L16.2709 8.28925L15.2259 6.72368L15.7952 6.34351Z" fill="#242222"/>
<path d="M15.4176 3.91827L14.8461 4.29913L17.126 7.72025L17.6975 7.33938L15.4176 3.91827Z" fill="#242222"/>
<path fill-rule="evenodd" clip-rule="evenodd" d="M16.2709 3.34894L17.3168 4.92024L16.7456 5.29755L15.7006 3.72911L16.2709 3.34894Z" fill="#242222"/>
<path fill-rule="evenodd" clip-rule="evenodd" d="M17.5059 5.20584L18.55 6.77333L17.9807 7.15445L16.9366 5.58601L17.5059 5.20584Z" fill="#242222"/>
<path fill-rule="evenodd" clip-rule="evenodd" d="M3.73007 11.7108L6.01013 15.1285L5.43988 15.5096L3.16077 12.0909L3.73007 11.7108Z" fill="#242222"/>
<path fill-rule="evenodd" clip-rule="evenodd" d="M2.8761 12.282L3.91918 13.8466L3.35084 14.2268L2.30585 12.6622L2.8761 12.282Z" fill="#242222"/>
<path fill-rule="evenodd" clip-rule="evenodd" d="M4.11025 14.1351L5.15524 15.7035L4.58594 16.0846L3.54095 14.5162L4.11025 14.1351Z" fill="#242222"/>
<path fill-rule="evenodd" clip-rule="evenodd" d="M2.02122 12.8522L4.29938 16.2709L3.73008 16.652L1.45001 13.2334L2.02122 12.8522Z" fill="#242222"/>
<path fill-rule="evenodd" clip-rule="evenodd" d="M3.16077 7.91193L5.43988 4.48944L6.01013 4.87057L3.73007 8.28923L3.16077 7.91193Z" fill="#242222"/>
<path d="M4.58578 3.9194L2.30591 7.34052L2.87583 7.72032L5.1557 4.2992L4.58578 3.9194Z" fill="#242222"/>
<path fill-rule="evenodd" clip-rule="evenodd" d="M1.45001 6.77333L3.73008 3.34894L4.29938 3.72911L2.02122 7.15446L1.45001 6.77333Z" fill="#242222"/>
<path fill-rule="evenodd" clip-rule="evenodd" d="M13.9918 15.1285L15.0358 13.5648L15.6041 13.945L14.5611 15.5096L13.9918 15.1285Z" fill="#242222"/>
<path fill-rule="evenodd" clip-rule="evenodd" d="M15.2259 13.2821L16.2709 11.7108L16.8421 12.0909L15.7952 13.6594L15.2259 13.2821Z" fill="#242222"/>
<path fill-rule="evenodd" clip-rule="evenodd" d="M14.8458 15.7035L15.8908 14.1351L16.461 14.5162L15.417 16.0846L14.8458 15.7035Z" fill="#242222"/>
<path fill-rule="evenodd" clip-rule="evenodd" d="M16.0808 13.8466L17.1268 12.282L17.697 12.6622L16.652 14.2268L16.0808 13.8466Z" fill="#242222"/>
<path fill-rule="evenodd" clip-rule="evenodd" d="M15.7006 16.2709L16.7456 14.7053L17.3168 15.0836L16.2709 16.652L15.7006 16.2709Z" fill="#242222"/>
<path fill-rule="evenodd" clip-rule="evenodd" d="M16.9366 14.4207L17.9807 12.8522L18.55 13.2334L17.5059 14.798L16.9366 14.4207Z" fill="#242222"/>
<path fill-rule="evenodd" clip-rule="evenodd" d="M6.58135 7.72183C6.56512 7.74094 6.55079 7.76482 6.53741 7.79061C6.5527 7.76482 6.56512 7.74094 6.58135 7.72183Z" fill="#BC283D"/>
<path fill-rule="evenodd" clip-rule="evenodd" d="M12.282 6.58037C10.3926 5.32046 7.84029 5.83627 6.58133 7.72184C5.94994 8.66271 6.20689 9.94268 7.15159 10.5722C8.09628 11.2016 9.37052 10.9466 10 10.0019C10.6304 9.05721 11.9066 8.80408 12.8503 9.43069C13.796 10.0602 14.05 11.3401 13.4196 12.282C14.6795 10.3926 14.1704 7.84028 12.282 6.58037Z" fill="#BC283D"/>
<path fill-rule="evenodd" clip-rule="evenodd" d="M6.58136 7.72183C5.94997 8.66366 6.20692 9.94268 7.15161 10.5722C8.09631 11.2016 9.37055 10.9466 10 10.0019C10.6305 9.0572 11.9066 8.80408 12.8503 9.43069C13.796 10.0602 14.0501 11.3401 13.4196 12.282C12.1616 14.1752 9.6103 14.6833 7.71996 13.4234C5.83248 12.1635 5.32145 9.61122 6.58136 7.72183Z" fill="#293B78"/>
</g>
<defs>
<clipPath id="clip0_13905_354781">
<rect width="20" height="20" fill="white"/>
</clipPath>
</defs>
</svg>
