<svg width="20" height="20" viewBox="0 0 20 20" fill="none" xmlns="http://www.w3.org/2000/svg">
<g clip-path="url(#clip0_1756_25600)">
<g clip-path="url(#clip1_1756_25600)">
<path d="M17.0714 17.0711C20.9766 13.1658 20.9766 6.83417 17.0714 2.92893C13.1661 -0.976311 6.83446 -0.97631 2.92922 2.92893C-0.976021 6.83418 -0.976021 13.1658 2.92922 17.0711C6.83446 20.9763 13.1661 20.9763 17.0714 17.0711Z" fill="#53AFC7"/>
<path fill-rule="evenodd" clip-rule="evenodd" d="M1.69263 14.11C1.69263 13.7069 2.05465 13.5044 2.33834 13.5044C2.71756 13.5044 2.92293 13.7317 2.92293 14.0269C2.92293 14.1988 2.8914 14.3029 2.81308 14.4663C2.81308 14.4663 2.32688 15.4692 2.04319 16.0576C1.99352 15.9927 1.94384 15.9258 1.89608 15.8599C2.12056 15.3861 2.4864 14.6115 2.62108 14.3192C2.6612 14.2351 2.68604 14.152 2.68604 14.0565C2.68604 13.8158 2.46825 13.7365 2.34407 13.7365C2.19411 13.7365 2.04223 13.8483 2.04223 13.9925C2.04223 14.0766 2.09477 14.1329 2.16163 14.1329C2.32975 14.1329 2.31924 13.9925 2.2839 13.9008C2.38992 13.9486 2.45392 14.0288 2.43386 14.1167C2.49309 14.1253 2.54944 14.1568 2.60198 14.217C2.56186 14.2647 2.51028 14.3049 2.43386 14.3049C2.46825 14.4443 2.3756 14.4959 2.2839 14.5284C2.31542 14.4319 2.33357 14.3163 2.16163 14.3163C2.03841 14.3163 1.93811 14.2915 1.88271 14.216C1.8808 14.3192 1.86838 14.7423 1.86838 14.7423C1.86265 14.9028 2.08426 14.899 2.22181 14.855C2.17023 15.0384 2.06133 15.1387 1.81012 15.1149C1.87029 15.1387 1.9362 15.1951 1.9362 15.3059C1.9362 15.4435 1.83209 15.5972 1.7528 15.6574L1.7337 15.6297L1.69263 14.1109V14.11ZM2.50932 16.6241C2.56282 16.6852 2.61822 16.7454 2.67362 16.8046C2.74812 16.7148 2.78729 16.6078 2.78729 16.5075C2.78729 16.1885 2.65738 16.1073 2.65738 15.644C2.65738 15.5008 2.71565 15.3527 2.82645 15.2247C2.51601 15.2887 2.3947 15.5562 2.49309 15.7568C2.43004 15.7797 2.38228 15.7405 2.33548 15.7128C2.33166 15.8208 2.3756 15.8685 2.40521 15.9249C2.40521 15.9249 2.35363 15.9211 2.30396 15.9048C2.31255 15.9736 2.34407 16.0328 2.40521 16.0643C2.2753 16.0424 2.17309 16.0748 2.10432 16.1379C2.13489 16.177 2.16545 16.2153 2.19697 16.2544C2.22658 16.2353 2.27052 16.2258 2.32975 16.2258C2.43386 16.2258 2.53511 16.3136 2.53511 16.5095C2.53511 16.5505 2.52556 16.5897 2.50837 16.626L2.50932 16.6241ZM2.30109 16.3815C2.30587 16.3442 2.29822 16.3079 2.29822 16.3079C2.35458 16.3194 2.40139 16.3795 2.37655 16.4474C2.41667 16.4598 2.45392 16.4798 2.48258 16.5114C2.47016 16.5238 2.45583 16.5352 2.44055 16.5458C2.39374 16.4913 2.34694 16.4369 2.30109 16.3815Z" fill="#F6CF23"/>
<path fill-rule="evenodd" clip-rule="evenodd" d="M1.77483 14.11C1.77483 13.7069 1.41567 13.5044 1.12911 13.5044C0.93616 13.5044 0.78906 13.5636 0.690674 13.6601C0.726971 13.7527 0.76518 13.8444 0.804343 13.9361C0.861655 13.7881 1.02404 13.7356 1.12434 13.7356C1.27048 13.7356 1.42236 13.8473 1.42236 13.9915C1.42236 14.0756 1.3746 14.132 1.30487 14.132C1.13962 14.132 1.14726 13.9915 1.18069 13.8998C1.07753 13.9476 1.01735 14.0278 1.03359 14.1157C0.991562 14.1215 0.948578 14.1406 0.909415 14.173C0.927564 14.2132 0.945713 14.2523 0.964817 14.2915C0.984876 14.2991 1.0078 14.3039 1.03359 14.3039C0.999204 14.4434 1.0909 14.4949 1.18069 14.5274C1.15108 14.4309 1.13198 14.3154 1.30487 14.3154C1.43095 14.3154 1.52647 14.2905 1.58474 14.2151C1.58856 14.3182 1.59811 14.7414 1.59811 14.7414C1.60576 14.8961 1.39848 14.898 1.25711 14.8579C1.29532 14.9257 1.33352 14.9936 1.37269 15.0604C1.4386 15.1063 1.5303 15.1254 1.65734 15.1139C1.59525 15.1378 1.52934 15.1941 1.52934 15.3049V15.3193C1.5962 15.4243 1.66402 15.5285 1.73375 15.6307L1.77292 14.109L1.77483 14.11Z" fill="#F6CF23"/>
<path fill-rule="evenodd" clip-rule="evenodd" d="M1.69254 7.0953C1.69254 6.69507 2.05456 6.48779 2.33826 6.48779C2.71747 6.48779 2.92284 6.71991 2.92284 7.01506C2.92284 7.187 2.89132 7.29016 2.81299 7.45064C2.81299 7.45064 2.1816 8.7564 1.93803 9.25979C1.91033 9.32379 1.89791 9.4002 1.89791 9.49954C1.89791 9.66766 2.05647 9.79565 2.22172 9.79947C2.37169 9.8033 2.53503 9.66479 2.53503 9.49668C2.53503 9.29608 2.43378 9.21298 2.32966 9.21298C2.19593 9.21298 2.14244 9.26074 2.14244 9.35722C2.14244 9.42026 2.17492 9.44892 2.21981 9.44892C2.32966 9.44892 2.29718 9.29226 2.29718 9.29226C2.35354 9.3085 2.40035 9.36486 2.37551 9.4365C2.41563 9.4451 2.45288 9.4642 2.48154 9.5005C2.45288 9.52438 2.41945 9.55208 2.37551 9.56067C2.4013 9.64473 2.365 9.68867 2.28763 9.70491C2.30387 9.67625 2.30578 9.64473 2.30196 9.61321C2.18065 9.64855 1.9963 9.59315 1.9963 9.38492C1.9963 9.1805 2.14244 9.00952 2.40512 9.05346C2.34399 9.02576 2.31247 8.95794 2.30387 8.89012C2.3545 8.90923 2.40512 8.90923 2.40512 8.90923C2.37551 8.85383 2.33157 8.81371 2.33539 8.70099C2.38124 8.72583 2.42996 8.76595 2.493 8.74111C2.39461 8.5453 2.51593 8.27784 2.82637 8.21002C2.71461 8.34566 2.6573 8.48894 2.6573 8.63317C2.6573 9.09645 2.7872 9.17191 2.7872 9.49668C2.7872 9.63136 2.71556 9.78037 2.58183 9.88067V9.87589C2.67162 9.89595 2.72989 9.93989 2.76141 10.0001C2.55795 10.0593 2.2542 10.0593 2.09086 9.99147C1.90269 9.97141 1.77278 9.83195 1.73553 9.75936C1.6935 9.6839 1.62186 9.42408 1.73553 9.1891C1.85875 8.92929 2.44333 7.69517 2.62195 7.30736C2.66207 7.22712 2.68691 7.1402 2.68691 7.04372C2.68691 6.80874 2.46912 6.72468 2.34494 6.72468C2.19498 6.72468 2.0431 6.83644 2.0431 6.9759C2.0431 7.06378 2.09564 7.11536 2.1625 7.11536C2.33062 7.11536 2.32011 6.9759 2.28477 6.88802C2.39079 6.93578 2.45479 7.01984 2.43473 7.1039C2.49396 7.11249 2.55031 7.14402 2.60285 7.20324C2.56273 7.24718 2.51115 7.2873 2.43473 7.29112C2.46912 7.42676 2.37647 7.48693 2.28477 7.51463C2.31629 7.41434 2.33444 7.30258 2.1625 7.30258C2.03928 7.30258 1.93898 7.2787 1.88358 7.20228C1.88167 7.3064 1.86925 7.72955 1.86925 7.72955C1.86352 7.89289 2.08513 7.88525 2.22268 7.83654C2.1711 8.02471 2.0622 8.12119 1.81099 8.09635C1.87116 8.12501 1.93707 8.18041 1.93707 8.29312C1.93707 8.44022 1.81576 8.60834 1.73553 8.6561L1.6935 7.09435L1.69254 7.0953Z" fill="#F6CF23"/>
<path fill-rule="evenodd" clip-rule="evenodd" d="M1.77482 7.0953C1.77482 6.69507 1.41566 6.48779 1.1291 6.48779C0.749887 6.48779 0.54834 6.71991 0.54834 7.01506C0.54834 7.187 0.576041 7.29016 0.653412 7.45064C0.653412 7.45064 1.28576 8.7564 1.53124 9.25979C1.56085 9.32379 1.57136 9.4002 1.57136 9.49954C1.57136 9.66766 1.41375 9.79565 1.24755 9.79947C1.09567 9.8033 0.931375 9.66479 0.931375 9.49668C0.931375 9.29608 1.03358 9.21298 1.13961 9.21298C1.27143 9.21298 1.32396 9.26074 1.32396 9.35722C1.32396 9.42026 1.2934 9.44892 1.24755 9.44892C1.1377 9.44892 1.16731 9.29226 1.16731 9.29226C1.11382 9.3085 1.06797 9.36486 1.09185 9.4365C1.05173 9.4451 1.01639 9.4642 0.984867 9.5005C1.01639 9.52438 1.04791 9.55208 1.09185 9.56067C1.06892 9.64473 1.10236 9.68867 1.17782 9.70491C1.16253 9.67625 1.16253 9.64473 1.16635 9.61321C1.28671 9.64855 1.47011 9.59315 1.47011 9.38492C1.47011 9.1805 1.3316 9.00952 1.06128 9.05346C1.12433 9.02576 1.15967 8.95794 1.16349 8.89012C1.11764 8.90923 1.06128 8.90923 1.06128 8.90923C1.0928 8.85383 1.13865 8.81371 1.13483 8.70099C1.08516 8.72583 1.0374 8.76595 0.975315 8.74111C1.07561 8.5453 0.95239 8.27784 0.64195 8.21002C0.757529 8.34566 0.811975 8.48894 0.811975 8.63317C0.811975 9.09645 0.682068 9.17191 0.682068 9.49668C0.682068 9.63136 0.751798 9.78037 0.890302 9.88067V9.87589C0.800513 9.89595 0.740335 9.93989 0.705948 10.0001C0.916092 10.0593 1.21794 10.0593 1.37936 9.99147C1.56945 9.97141 1.69554 9.83195 1.73757 9.75936C1.77577 9.6839 1.84837 9.42408 1.73757 9.1891C1.60957 8.92929 1.02881 7.69517 0.846363 7.30736C0.81102 7.22712 0.786185 7.1402 0.786185 7.04372C0.786185 6.80874 1.00397 6.72468 1.12815 6.72468C1.27429 6.72468 1.42617 6.83644 1.42617 6.9759C1.42617 7.06378 1.37841 7.11536 1.30868 7.11536C1.14343 7.11536 1.15107 6.9759 1.1845 6.88802C1.08134 6.93578 1.02116 7.01984 1.0374 7.1039C0.979135 7.11249 0.920868 7.14402 0.868332 7.20324C0.911316 7.24718 0.960987 7.2873 1.0374 7.29112C1.00302 7.42676 1.09471 7.48693 1.1845 7.51463C1.15489 7.41434 1.13579 7.30258 1.30868 7.30258C1.43477 7.30258 1.53029 7.2787 1.58855 7.20228C1.59237 7.3064 1.60193 7.72955 1.60193 7.72955C1.60957 7.89289 1.38796 7.88525 1.24659 7.83654C1.29817 8.02471 1.40802 8.12119 1.6621 8.09635C1.60002 8.12501 1.53411 8.18041 1.53411 8.29312C1.53411 8.44022 1.65828 8.60834 1.73757 8.6561L1.77768 7.09435L1.77482 7.0953Z" fill="#F6CF23"/>
<path fill-rule="evenodd" clip-rule="evenodd" d="M1.77481 5.89266C1.77481 6.29671 1.41565 6.50017 1.12909 6.50017C0.935184 6.50017 0.787128 6.44095 0.689697 6.34352C0.72695 6.24991 0.765158 6.15726 0.804321 6.06556C0.861633 6.21361 1.02402 6.27188 1.12527 6.27188C1.27141 6.27188 1.42329 6.1563 1.42329 6.02066C1.42329 5.92896 1.37553 5.87356 1.3058 5.87356C1.14055 5.87356 1.14819 6.01684 1.18163 6.10472C1.07846 6.05983 1.01829 5.9729 1.03452 5.88884C0.991541 5.88311 0.948557 5.86592 0.907483 5.83344L0.962885 5.715C0.983899 5.7064 1.00778 5.70162 1.03452 5.70162C1.00014 5.56599 1.09184 5.50485 1.18163 5.47715C1.15201 5.57267 1.13291 5.68921 1.3058 5.68921C1.43189 5.68921 1.52741 5.70927 1.58568 5.79237C1.5895 5.68443 1.59905 5.25746 1.59905 5.25746C1.60669 5.10176 1.3975 5.10176 1.25613 5.1457C1.29338 5.07883 1.33159 5.01197 1.37076 4.94511C1.43666 4.89735 1.52932 4.87729 1.65923 4.8897C1.59714 4.86582 1.53123 4.8066 1.53123 4.69771V4.67956C1.59809 4.57449 1.66591 4.47037 1.73564 4.36816L1.77481 5.89171V5.89266Z" fill="#F6CF23"/>
<path fill-rule="evenodd" clip-rule="evenodd" d="M1.69263 5.89286C1.69263 6.29691 2.05465 6.50037 2.33834 6.50037C2.71756 6.50037 2.92293 6.2759 2.92293 5.9731C2.92293 5.80976 2.8914 5.70182 2.81308 5.54135C2.81308 5.54135 2.32593 4.53266 2.04223 3.94425C1.99256 4.00921 1.94384 4.07512 1.89513 4.14198C2.1196 4.61576 2.4864 5.39234 2.62108 5.68559C2.6612 5.76582 2.68604 5.85752 2.68604 5.94922C2.68604 6.1842 2.46825 6.27208 2.34407 6.27208C2.19411 6.27208 2.04223 6.1565 2.04223 6.02086C2.04223 5.92916 2.09477 5.87376 2.16163 5.87376C2.32975 5.87376 2.31924 6.01704 2.2839 6.10492C2.38992 6.06002 2.45392 5.9731 2.43386 5.88904C2.49309 5.8814 2.54944 5.8537 2.60198 5.79257C2.56186 5.74099 2.51028 5.70182 2.43386 5.70182C2.46825 5.56619 2.3756 5.50505 2.2839 5.47735C2.31542 5.57287 2.33357 5.68941 2.16163 5.68941C2.03841 5.68941 1.93811 5.70947 1.88271 5.79257C1.8808 5.68463 1.86838 5.25766 1.86838 5.25766C1.86265 5.09814 2.08426 5.10196 2.22181 5.14972C2.17023 4.96536 2.06133 4.86602 1.81012 4.8899C1.87029 4.86602 1.9362 4.8068 1.9362 4.69791C1.9362 4.56036 1.83018 4.40466 1.75089 4.34639L1.7337 4.37123L1.69263 5.89286ZM2.50837 3.37782C2.56186 3.31764 2.61631 3.25746 2.67075 3.19824C2.74717 3.28612 2.78729 3.39406 2.78729 3.49149C2.78729 3.8153 2.65738 3.89554 2.65738 4.35881C2.65738 4.50305 2.71565 4.64251 2.82645 4.77814C2.51601 4.71892 2.3947 4.44669 2.49309 4.25087C2.43004 4.22222 2.38228 4.26616 2.33548 4.29099C2.33166 4.17828 2.3756 4.13434 2.40521 4.07894C2.40521 4.07894 2.35363 4.08276 2.30396 4.099C2.31255 4.03118 2.34407 3.96622 2.40521 3.9347C2.27434 3.95858 2.17214 3.92706 2.10241 3.86402C2.13202 3.82581 2.16259 3.7876 2.19315 3.74939C2.22372 3.77136 2.26766 3.78283 2.32879 3.78283C2.43291 3.78283 2.53416 3.69495 2.53416 3.49053C2.53416 3.45137 2.52461 3.41221 2.50646 3.37686L2.50837 3.37782ZM2.30013 3.61949C2.30587 3.65769 2.29822 3.6959 2.29822 3.6959C2.35458 3.68348 2.40139 3.62713 2.37655 3.55549C2.41667 3.54307 2.45392 3.52779 2.48258 3.49149C2.46921 3.47812 2.45488 3.46665 2.43864 3.45615C2.39183 3.50964 2.34598 3.56408 2.30109 3.61853L2.30013 3.61949Z" fill="#F6CF23"/>
<path fill-rule="evenodd" clip-rule="evenodd" d="M1.77482 12.9085C1.77482 13.3068 1.41566 13.515 1.1291 13.515C0.749887 13.515 0.54834 13.2839 0.54834 12.9887C0.54834 12.8168 0.576041 12.7165 0.653412 12.5531C0.653412 12.5531 1.28576 11.2474 1.53124 10.743C1.56085 10.68 1.57136 10.6084 1.57136 10.5042C1.57136 10.3447 1.41375 10.2043 1.24755 10.2005C1.09567 10.1967 0.931375 10.3447 0.931375 10.5042C0.931375 10.7077 1.03358 10.7956 1.13961 10.7956C1.27143 10.7956 1.32396 10.743 1.32396 10.6485C1.32396 10.5845 1.2934 10.5568 1.24755 10.5568C1.1377 10.5568 1.16731 10.7125 1.16731 10.7125C1.11382 10.6962 1.06797 10.6408 1.09185 10.5682C1.05173 10.5606 1.01639 10.5405 0.984867 10.5052C1.01639 10.4775 1.04791 10.4527 1.09185 10.445C1.06892 10.361 1.10236 10.317 1.17782 10.297C1.16253 10.3333 1.16253 10.3648 1.16635 10.3934C1.28671 10.3562 1.47011 10.4125 1.47011 10.616C1.47011 10.8233 1.3316 10.9952 1.06128 10.9513C1.12433 10.9838 1.15967 11.0439 1.16349 11.1156C1.11764 11.0955 1.06128 11.0917 1.06128 11.0917C1.0928 11.1471 1.13865 11.1958 1.13483 11.3037C1.08516 11.2799 1.0374 11.2407 0.975315 11.2636C1.07561 11.4604 0.95239 11.7269 0.64195 11.7919C0.757529 11.66 0.811975 11.5158 0.811975 11.3725C0.811975 10.9083 0.682068 10.8328 0.682068 10.5052C0.682068 10.3734 0.751798 10.2253 0.890302 10.1298V10.1336C0.800513 10.1097 0.740335 10.0658 0.705948 10.0018C0.916092 9.94545 1.21794 9.94545 1.37936 10.0094C1.56945 10.0333 1.69554 10.1728 1.73757 10.2444C1.77577 10.3161 1.84837 10.5797 1.73757 10.8166C1.60957 11.0764 1.02881 12.3105 0.846363 12.6974C0.81102 12.7824 0.786185 12.8665 0.786185 12.961C0.786185 13.2017 1.00397 13.281 1.12815 13.281C1.27429 13.281 1.42617 13.1693 1.42617 13.0298C1.42617 12.9419 1.37841 12.8856 1.30868 12.8856C1.14343 12.8856 1.15107 13.0298 1.1845 13.1177C1.08134 13.0699 1.02116 12.9897 1.0374 12.898C0.979135 12.8894 0.920868 12.8665 0.868332 12.8053C0.911316 12.7528 0.960987 12.7174 1.0374 12.7174C1.00302 12.577 1.09471 12.5178 1.1845 12.4853C1.15489 12.5894 1.13579 12.7012 1.30868 12.7012C1.43477 12.7012 1.53029 12.7222 1.58855 12.8053C1.59237 12.6974 1.60193 12.2704 1.60193 12.2704C1.60957 12.1099 1.38796 12.1176 1.24659 12.1615C1.29817 11.9772 1.40802 11.8826 1.6621 11.9055C1.60002 11.8816 1.53411 11.8215 1.53411 11.7145C1.53411 11.5626 1.65828 11.3945 1.73757 11.342L1.77768 12.9085H1.77482Z" fill="#F6CF23"/>
<path fill-rule="evenodd" clip-rule="evenodd" d="M1.69254 12.9085C1.69254 13.3068 2.05456 13.515 2.33826 13.515C2.71747 13.515 2.92284 13.2839 2.92284 12.9887C2.92284 12.8168 2.89132 12.7165 2.81299 12.5531C2.81299 12.5531 2.1816 11.2474 1.93803 10.743C1.91033 10.68 1.89791 10.6084 1.89791 10.5042C1.89791 10.3447 2.05647 10.2043 2.22172 10.2005C2.37169 10.1967 2.53503 10.3447 2.53503 10.5042C2.53503 10.7077 2.43378 10.7956 2.32966 10.7956C2.19593 10.7956 2.14244 10.743 2.14244 10.6485C2.14244 10.5845 2.17492 10.5568 2.21981 10.5568C2.32966 10.5568 2.29718 10.7125 2.29718 10.7125C2.35354 10.6962 2.40035 10.6408 2.37551 10.5682C2.41563 10.5606 2.45288 10.5405 2.48154 10.5052C2.45288 10.4775 2.41945 10.4527 2.37551 10.445C2.4013 10.361 2.365 10.317 2.28763 10.297C2.30387 10.3333 2.30578 10.3648 2.30196 10.3934C2.18065 10.3562 1.9963 10.4125 1.9963 10.616C1.9963 10.8233 2.14244 10.9952 2.40512 10.9513C2.34399 10.9838 2.31247 11.0439 2.30387 11.1156C2.3545 11.0955 2.40512 11.0917 2.40512 11.0917C2.37551 11.1471 2.33157 11.1958 2.33539 11.3037C2.38124 11.2799 2.42996 11.2407 2.493 11.2636C2.39461 11.4604 2.51593 11.7269 2.82637 11.7919C2.71461 11.66 2.6573 11.5158 2.6573 11.3725C2.6573 10.9083 2.7872 10.8328 2.7872 10.5052C2.7872 10.3734 2.71556 10.2253 2.58183 10.1298V10.1336C2.67162 10.1097 2.72989 10.0658 2.76141 10.0018C2.55795 9.94545 2.2542 9.94545 2.09086 10.0094C1.90269 10.0333 1.77278 10.1728 1.73553 10.2444C1.6935 10.3161 1.62186 10.5797 1.73553 10.8166C1.85875 11.0764 2.44333 12.3105 2.62195 12.6974C2.66207 12.7824 2.68691 12.8665 2.68691 12.961C2.68691 13.2017 2.46912 13.281 2.34494 13.281C2.19498 13.281 2.0431 13.1693 2.0431 13.0298C2.0431 12.9419 2.09564 12.8856 2.1625 12.8856C2.33062 12.8856 2.32011 13.0298 2.28477 13.1177C2.39079 13.0699 2.45479 12.9897 2.43473 12.898C2.49396 12.8894 2.55031 12.8665 2.60285 12.8053C2.56273 12.7528 2.51115 12.7174 2.43473 12.7174C2.46912 12.577 2.37647 12.5178 2.28477 12.4853C2.31629 12.5894 2.33444 12.7012 2.1625 12.7012C2.03928 12.7012 1.93898 12.7222 1.88358 12.8053C1.88167 12.6974 1.86925 12.2704 1.86925 12.2704C1.86352 12.1099 2.08513 12.1176 2.22268 12.1615C2.1711 11.9772 2.0622 11.8826 1.81099 11.9055C1.87116 11.8816 1.93707 11.8215 1.93707 11.7145C1.93707 11.5626 1.81576 11.3945 1.73553 11.342L1.6935 12.9085H1.69254Z" fill="#F6CF23"/>
<path fill-rule="evenodd" clip-rule="evenodd" d="M1.35924 12.8714C1.35924 12.8437 1.2876 12.8609 1.23793 12.8714C1.18158 12.88 1.15006 12.9116 1.15388 12.944C1.15865 12.9756 1.2217 12.9593 1.27519 12.9479C1.32963 12.9316 1.36306 12.9077 1.35924 12.8714Z" fill="#53AFC7"/>
<path fill-rule="evenodd" clip-rule="evenodd" d="M1.18743 12.9802H1.16642L1.13299 12.9449C1.12821 12.9009 1.16451 12.8684 1.23137 12.8532C1.27149 12.8446 1.30492 12.8369 1.32976 12.8369H1.34695L1.37847 12.8723C1.38038 12.9162 1.34409 12.9525 1.28104 12.9687C1.24761 12.9764 1.21036 12.9811 1.18648 12.9811L1.18743 12.9802Z" fill="#53AFC7"/>
<path fill-rule="evenodd" clip-rule="evenodd" d="M11.7002 13.5946C9.01033 13.6032 7.1219 11.4502 6.95092 9.29236C6.95092 9.29236 6.84489 9.25224 6.82865 9.34872C6.79809 9.57605 6.89361 10.2791 6.85635 10.2313C6.79331 10.1396 6.30043 8.82909 6.21255 8.9695C6.09315 9.16054 6.76179 10.6554 6.72167 10.7032C6.58794 10.8637 5.82092 9.24173 5.75883 9.36113C5.5248 9.81581 6.70639 11.2868 6.69779 11.346C6.67295 11.5419 5.79895 10.5551 5.72539 10.6583C5.55823 10.899 6.66722 11.7692 6.72358 11.838C6.89743 12.0338 6.12085 11.4865 6.09697 11.6775C6.07691 11.8294 6.47236 12.1446 6.7083 12.2764C6.94614 12.413 7.0216 12.3729 7.09038 12.4885C7.13909 12.5763 6.6443 12.4331 6.66054 12.54C6.68442 12.7559 7.20309 12.712 7.27951 12.8085C7.35974 12.904 6.92799 12.8323 6.94805 12.9116C6.97671 13.0511 7.41419 13.0721 7.41992 13.1313C7.42756 13.1915 7.14387 13.1523 7.16202 13.2631C7.17826 13.3634 7.60619 13.3434 7.71126 13.416C7.81824 13.4876 7.32727 13.4226 7.70744 13.6108C8.08952 13.8038 8.52509 14.0149 9.12018 14.1305C9.71718 14.2499 10.019 14.118 10.0429 14.0779C10.0658 14.0416 9.76016 14.1094 9.33797 14.034C8.91481 13.9537 8.34933 13.6901 8.11913 13.5506C8.04558 13.5153 8.34265 13.4274 8.28151 13.3434C8.21751 13.2631 7.97967 13.3558 7.88797 13.2402C7.82779 13.1638 8.00164 13.1647 7.99495 13.116C7.99113 13.0721 7.66541 12.9957 7.60714 12.9116C7.54792 12.8314 7.75329 12.8476 7.76379 12.7913C7.77048 12.7511 7.55843 12.6795 7.5441 12.6279C7.52595 12.5716 7.77717 12.5878 7.66159 12.5209C7.53646 12.4483 7.19449 12.3643 7.13145 12.2411C7.0665 12.1255 7.39127 12.2573 7.30721 12.1455C7.24894 12.0653 6.93468 11.9335 6.86973 11.7549C6.82579 11.6307 7.0942 11.7386 7.09706 11.6584C7.10088 11.5342 6.93946 11.6145 6.88692 11.2582C6.86973 11.1426 7.0942 11.2228 7.0942 11.2228L7.12954 11.1626C7.12954 11.1626 7.39127 11.3069 7.73323 11.7062C8.07519 12.1006 8.16975 12.4732 8.49166 12.7406C8.64736 12.8725 8.65118 12.6938 8.99887 12.9087C9.34847 13.1275 9.49175 13.2794 9.85759 13.5908C9.90918 13.6347 10.147 13.5478 10.8472 13.6949C11.2274 13.7742 11.3038 13.9709 11.3038 13.9709C11.3038 13.9786 11.5158 13.8429 11.6152 13.6949C11.6553 13.6309 11.6964 13.6911 11.7069 13.6786C11.7451 13.6423 11.7011 13.5946 11.7011 13.5946H11.7002Z" fill="#F6CF23"/>
<path fill-rule="evenodd" clip-rule="evenodd" d="M6.76098 12.517C6.69985 12.517 6.68457 12.5256 6.68074 12.5323C6.69507 12.6555 6.8928 12.688 7.04945 12.7205C7.16981 12.7367 7.26151 12.752 7.29685 12.7959L7.30545 12.8083L7.30831 12.8437C7.29016 12.88 7.22616 12.88 7.123 12.8838C7.07142 12.8876 6.97686 12.8924 6.96635 12.9086C6.98068 12.9755 7.14593 13.0204 7.26628 13.0519C7.38091 13.0787 7.43631 13.0959 7.44013 13.1312C7.44586 13.1751 7.38473 13.1837 7.32073 13.1914C7.27106 13.2038 7.20897 13.2105 7.187 13.2353C7.18987 13.3022 7.34556 13.3232 7.45732 13.3347C7.56908 13.3509 7.67511 13.3633 7.72573 13.3948L7.74961 13.4388C7.74388 13.4627 7.7095 13.4665 7.66365 13.4789C7.64263 13.4827 7.59201 13.4913 7.58437 13.5037C7.58437 13.5037 7.58436 13.5314 7.72 13.5945C8.05528 13.7616 8.51282 13.9947 9.12606 14.1103C9.28558 14.1456 9.43554 14.1628 9.575 14.1628C9.86539 14.1628 10.0125 14.0912 10.0268 14.0663L9.93511 14.0912C9.89118 14.0912 9.83864 14.095 9.77942 14.095C9.62085 14.095 9.47757 14.0788 9.33525 14.0549C8.89777 13.9737 8.31891 13.6986 8.10877 13.5715C8.08871 13.5114 8.12405 13.4913 8.1699 13.4598C8.21193 13.4359 8.26447 13.3958 8.2702 13.3757C8.24441 13.328 8.18423 13.328 8.11737 13.328C8.02853 13.3241 7.93015 13.3241 7.87379 13.2516L7.8566 13.2C7.86424 13.1675 7.90054 13.156 7.93206 13.1398C7.94639 13.1312 7.976 13.1236 7.97791 13.1159C7.9674 13.1035 7.89194 13.0758 7.83558 13.0519C7.73242 13.0204 7.62353 12.9765 7.59201 12.9239L7.57959 12.8714C7.5901 12.8437 7.63212 12.8322 7.67606 12.816C7.69612 12.8122 7.74197 12.7997 7.74197 12.7873C7.73624 12.7759 7.68848 12.751 7.65409 12.7319C7.58245 12.6918 7.53278 12.6679 7.52228 12.6316C7.54043 12.58 7.57863 12.5714 7.62066 12.5648C7.63881 12.5609 7.66842 12.5523 7.67511 12.5485C7.61111 12.5122 7.54902 12.4922 7.48311 12.4645C7.3341 12.4081 7.1593 12.3403 7.11345 12.2524L7.10963 12.24V12.1922C7.13255 12.1559 7.18509 12.1684 7.23285 12.1722H7.2787C7.2701 12.1321 7.22234 12.0996 7.16312 12.0556C7.04563 11.9754 6.89949 11.8856 6.85268 11.7567C6.84504 11.7318 6.84504 11.7127 6.85459 11.6965C6.87274 11.6716 6.91095 11.6688 6.94629 11.6688L7.02366 11.6716C7.04659 11.6716 7.07333 11.6688 7.0762 11.6564C7.0762 11.621 7.05996 11.6086 7.02844 11.5847C6.97877 11.5437 6.90044 11.4844 6.86701 11.2609C6.8651 11.237 6.86892 11.2208 6.88229 11.2046C6.92432 11.1539 7.09626 11.2017 7.10008 11.2017L7.10867 11.1492C7.1507 11.1492 7.41052 11.2972 7.7477 11.6879C7.90054 11.8675 8.0037 12.0356 8.10113 12.1989C8.21671 12.3947 8.32942 12.5781 8.50422 12.7262C8.55294 12.7663 8.58351 12.7701 8.61694 12.7701H8.68667C8.75067 12.7701 8.83854 12.7854 9.01048 12.8895C9.28367 13.0615 9.43363 13.1895 9.65906 13.3881L9.86921 13.5725C9.87971 13.5849 9.9227 13.5849 9.9418 13.5849L10.0698 13.5811C10.2188 13.5811 10.4624 13.5926 10.8521 13.6737C11.238 13.753 11.3192 13.9527 11.324 13.9613C11.324 13.945 11.5083 13.8084 11.6019 13.6814C11.6153 13.6537 11.6354 13.6413 11.6554 13.6413L11.6975 13.6537L11.7013 13.5935L11.686 13.6145C8.92833 13.6145 7.10772 11.429 6.93101 9.30753H6.90331C6.8737 9.30753 6.85555 9.31612 6.85077 9.35147C6.83358 9.47469 6.85459 9.75456 6.86892 9.95897C6.88898 10.194 6.8928 10.2303 6.87752 10.2427C6.82116 10.2102 6.7734 10.0984 6.68934 9.89497C6.5623 9.59886 6.30153 8.98467 6.23085 8.98085C6.15729 9.09643 6.42953 9.81187 6.59 10.235C6.74283 10.6305 6.76003 10.6945 6.74188 10.7107L6.70176 10.7308C6.59764 10.7308 6.39992 10.407 6.11049 9.90739C5.97008 9.66382 5.80865 9.38394 5.76662 9.37152C5.60423 9.70393 6.24899 10.6391 6.56134 11.0899C6.69507 11.2886 6.72086 11.3259 6.71895 11.3497L6.71704 11.3698L6.6731 11.3937C6.59764 11.3937 6.43335 11.2494 6.17353 11.0183C5.99969 10.854 5.79814 10.6706 5.74369 10.6706C5.61856 10.855 6.37699 11.5054 6.62534 11.7165C6.68839 11.7729 6.73042 11.8092 6.74092 11.8207C6.7648 11.8484 6.77435 11.8694 6.76862 11.8856C6.71609 11.8971 6.66069 11.8732 6.55275 11.813C6.41902 11.749 6.23944 11.6535 6.15156 11.6535C6.121 11.6535 6.11718 11.6726 6.11431 11.6774C6.09903 11.813 6.46009 12.113 6.718 12.2572C6.81638 12.3164 6.89184 12.3451 6.94151 12.3603C7.01602 12.3842 7.06283 12.4043 7.10772 12.4769C7.08862 12.5963 6.99978 12.5399 6.90999 12.5285C6.85841 12.5208 6.80588 12.517 6.76003 12.517H6.76098ZM9.57309 14.202C9.43172 14.202 9.27794 14.1829 9.11555 14.1542C8.49658 14.031 8.03617 13.7998 7.69899 13.6317C7.5815 13.5715 7.53756 13.5352 7.54329 13.4961C7.5452 13.4598 7.60156 13.4483 7.65505 13.4397C7.67511 13.4359 7.70281 13.4321 7.7095 13.4235C7.65983 13.3996 7.5538 13.3881 7.44968 13.3767C7.29016 13.3566 7.15261 13.3356 7.14402 13.2687L7.1402 13.264L7.15643 13.2162C7.18414 13.1761 7.25673 13.1656 7.31404 13.157C7.34747 13.1484 7.39332 13.1407 7.40001 13.1322C7.39046 13.1207 7.31404 13.1045 7.25673 13.0882C7.11918 13.0529 6.94916 13.0127 6.92623 12.9125C6.9568 12.8532 7.01793 12.8485 7.12014 12.8485C7.17267 12.8446 7.26055 12.8446 7.26915 12.8284C7.23954 12.7883 7.13924 12.773 7.04468 12.7568C6.86319 12.7252 6.65877 12.6889 6.64063 12.5447C6.69316 12.4406 6.7925 12.4778 6.91477 12.4883C6.96062 12.4922 7.00456 12.496 7.03703 12.496C7.03703 12.4368 7.00074 12.4282 6.93101 12.4005C6.87561 12.3804 6.80301 12.3565 6.69985 12.2973C6.48015 12.1731 6.05413 11.8455 6.07801 11.6736C6.07992 11.6506 6.09425 11.6143 6.15252 11.6143C6.24804 11.6143 6.42953 11.7099 6.56994 11.7815C6.64158 11.8178 6.72564 11.8617 6.7457 11.8617C6.70176 11.8379 6.66164 11.8016 6.59955 11.7538C6.08852 11.3096 5.58322 10.8387 5.71026 10.6505C5.80865 10.6305 5.96148 10.7671 6.20123 10.9868C6.38081 11.1463 6.60719 11.3545 6.6731 11.3545C6.67788 11.3268 6.60337 11.2265 6.52791 11.1148C6.21365 10.6582 5.55934 9.70871 5.74274 9.35338C5.82202 9.33236 5.91276 9.48519 6.14392 9.88447C6.32923 10.2045 6.61388 10.6954 6.70176 10.6954C6.70749 10.663 6.62916 10.4519 6.5537 10.2484C6.31204 9.61701 6.12004 9.08114 6.19646 8.95792C6.29962 8.93786 6.45723 9.2569 6.72277 9.88447C6.78295 10.0163 6.83358 10.1366 6.85841 10.192C6.84408 10.1471 6.8374 10.0526 6.8288 9.9647C6.81447 9.74501 6.79346 9.47755 6.81065 9.34478C6.81734 9.29224 6.85268 9.2655 6.90235 9.2655C6.93005 9.2655 6.9568 9.27696 6.95871 9.27696C7.13638 11.3985 8.94362 13.5715 11.685 13.5715C11.7194 13.584 11.7424 13.6117 11.7424 13.647V13.6556L11.7194 13.6957L11.6879 13.6757L11.6554 13.6871C11.536 13.8505 11.3278 13.9947 11.3039 13.9947C11.28 13.9594 11.1874 13.7836 10.8445 13.712C10.4586 13.6346 10.2169 13.6241 10.0698 13.6241H9.9418C9.89022 13.6241 9.86252 13.6241 9.84151 13.6031L9.63423 13.4273C9.40784 13.2277 9.26265 13.0959 8.9866 12.9239C8.82708 12.8236 8.74111 12.8169 8.68667 12.8169H8.61694C8.57491 12.8169 8.53479 12.8083 8.47843 12.7606C8.29695 12.6049 8.1871 12.4215 8.06579 12.2218C7.97027 12.0575 7.8671 11.8933 7.71523 11.7146C7.38186 11.3268 7.11823 11.1749 7.11441 11.1749L7.1125 11.2313C7.08766 11.2428 7.01793 11.2189 6.96062 11.2189C6.93578 11.2189 6.91859 11.2227 6.91095 11.2313C6.93483 11.4663 7.00551 11.515 7.05232 11.5542C7.08957 11.579 7.11918 11.6019 7.11441 11.6583C7.1125 11.7099 7.04945 11.7099 7.02462 11.7099H6.94725C6.90522 11.7099 6.8928 11.7146 6.88898 11.7175C6.93101 11.8579 7.07715 11.9534 7.18509 12.0251C7.24909 12.069 7.30163 12.1005 7.32264 12.134L7.33124 12.1445L7.33697 12.1884C7.32646 12.2085 7.30067 12.2094 7.2787 12.2094L7.17936 12.2047C7.18891 12.3049 7.36085 12.3766 7.49649 12.4329C7.56813 12.4559 7.63021 12.4807 7.67224 12.5046C7.69135 12.5122 7.71618 12.5323 7.71236 12.5562C7.70663 12.5839 7.67415 12.5925 7.6283 12.6001C7.60633 12.6039 7.56813 12.6154 7.56239 12.624C7.56813 12.6402 7.63021 12.6717 7.67415 12.6956C7.74197 12.7319 7.78591 12.7596 7.78209 12.7921C7.77732 12.8322 7.73051 12.8446 7.68944 12.8571C7.66269 12.8647 7.62066 12.8762 7.61684 12.8848C7.65027 12.9411 7.76299 12.985 7.84896 13.0204C7.96262 13.0605 8.01325 13.0834 8.01707 13.1169C8.02089 13.1484 7.98077 13.1646 7.94734 13.1799C7.9311 13.1837 7.90149 13.2 7.89672 13.2114C7.94734 13.284 8.03426 13.284 8.11737 13.2878C8.19187 13.2878 8.26351 13.2878 8.2979 13.3347L8.31032 13.3786C8.30172 13.4225 8.24536 13.4598 8.19474 13.4913C8.16799 13.5066 8.13265 13.5352 8.13074 13.5438C8.33802 13.6594 8.90827 13.9383 9.34385 14.0109C9.48235 14.0377 9.62276 14.0549 9.77942 14.0549C9.83864 14.0549 9.89118 14.0511 9.9332 14.0511L10.001 14.0472C10.0373 14.0472 10.0526 14.0511 10.0631 14.0625C10.0411 14.1265 9.87494 14.2029 9.575 14.2029L9.57309 14.202Z" fill="#F6CF23"/>
<path fill-rule="evenodd" clip-rule="evenodd" d="M13.5084 14.3989C13.41 14.3788 13.4205 14.4543 13.4205 14.4543C13.4282 14.5498 13.3584 14.6578 13.2782 14.6778C13.2152 14.6902 13.2467 14.738 13.2276 14.7829L12.9659 14.7705C12.5513 14.994 12.0307 15.0742 11.407 15.0016C11.407 15.0016 11.2752 15.1019 11.1615 15.2022C11.044 15.3092 10.9628 15.334 10.9399 15.4133C10.916 15.5012 11.0001 15.5413 11.108 15.5451C11.2169 15.549 11.3563 15.4487 11.3563 15.4487C11.3563 15.4487 11.3754 15.5279 11.4738 15.5404C11.5732 15.548 11.7537 15.4802 11.7537 15.4802C11.7537 15.4802 11.9056 15.549 12.024 15.5327C12.1358 15.5165 12.2361 15.4448 12.2361 15.4448C12.2361 15.4448 12.2657 15.5767 12.3813 15.5805C12.4959 15.5881 12.6717 15.4401 12.6717 15.4401C12.6717 15.4401 12.7576 15.5404 12.8627 15.5241C12.9716 15.5117 13.0967 15.3837 13.0967 15.3837C13.0967 15.3837 13.2285 15.4439 13.3498 15.4038C13.474 15.3675 13.5934 15.2443 13.5934 15.2443C13.5934 15.2443 13.7004 15.336 13.8007 15.2997C13.8991 15.2681 13.9669 15.1277 13.9669 15.1277C13.9669 15.1277 14.2305 15.2404 14.4082 15.1478C14.5295 15.0914 14.4999 14.8966 14.4999 14.8966C14.4999 14.8966 15.2268 14.9997 15.1963 14.5259C15.1924 14.4744 14.0223 14.4887 13.5094 14.3979L13.5084 14.3989Z" fill="#F6CF23"/>
<path fill-rule="evenodd" clip-rule="evenodd" d="M12.2198 15.4284C12.2533 15.4485 12.2819 15.5612 12.3794 15.5612L12.3861 15.5813V15.565C12.4902 15.565 12.6583 15.4246 12.6602 15.4246C12.6879 15.4284 12.7557 15.5058 12.8446 15.5058C12.9582 15.4934 13.0814 15.374 13.0853 15.374C13.1025 15.374 13.1779 15.3969 13.261 15.3969C13.2906 15.3969 13.3183 15.3969 13.3432 15.3845C13.4635 15.3482 13.5762 15.2326 13.5762 15.2326C13.5925 15.2364 13.6784 15.2928 13.7539 15.2928C13.8819 15.2517 13.9469 15.1237 13.9469 15.1209C13.9784 15.1123 14.1064 15.1648 14.2401 15.1648C14.3041 15.1648 14.3538 15.1524 14.3977 15.1323C14.5085 15.0836 14.4779 14.9012 14.4779 14.8964C14.4999 14.8802 14.5677 14.884 14.6594 14.884C14.8056 14.884 15.0004 14.8639 15.1055 14.7522C15.1571 14.6929 15.1829 14.6242 15.1743 14.5248C15.1523 14.52 14.9001 14.5124 14.6566 14.5C14.2707 14.4837 13.7912 14.4685 13.5017 14.4159L13.4482 14.4197C13.4501 14.5554 13.3766 14.671 13.2849 14.691C13.2591 14.6977 13.2572 14.7063 13.2572 14.735C13.2553 14.7464 13.2553 14.7713 13.2448 14.7865L12.9659 14.7827C12.5637 15.011 12.0345 15.0865 11.4032 15.0234C11.407 15.0273 11.2857 15.1199 11.1768 15.2183C11.1328 15.2546 11.0965 15.2832 11.0641 15.3024C11.0067 15.3463 10.9733 15.3673 10.959 15.4151C10.9533 15.438 10.9523 15.4542 10.9657 15.4705C10.9876 15.4991 11.0411 15.5182 11.109 15.522H11.1109C11.215 15.522 11.3449 15.4303 11.3468 15.4256C11.3783 15.4418 11.3955 15.5058 11.4767 15.5135C11.4786 15.5135 11.4786 15.5135 11.4786 15.5135C11.5885 15.5135 11.7432 15.458 11.7451 15.458C11.7633 15.458 11.8808 15.5096 11.9877 15.5096C12.1272 15.4982 12.2208 15.4256 12.2208 15.4256L12.2198 15.4284ZM12.3861 15.6042H12.3794C12.2733 15.5956 12.2304 15.501 12.2189 15.4609C12.2074 15.4886 12.1234 15.5412 12.0231 15.5517C11.8855 15.5488 11.7508 15.5001 11.7422 15.5001C11.7508 15.5001 11.5932 15.5593 11.4901 15.5593C11.3888 15.5507 11.3516 15.4953 11.3392 15.4561C11.3277 15.4877 11.2092 15.5641 11.1128 15.5641C11.0249 15.5593 10.9618 15.5364 10.9332 15.5001C10.916 15.4714 10.9093 15.4399 10.9198 15.4036C10.937 15.3472 10.979 15.3157 11.044 15.2718C11.0717 15.2479 11.1051 15.224 11.1472 15.1877C11.2656 15.0874 11.3974 14.9843 11.3974 14.9843C11.555 14.9957 11.6954 15.0034 11.8301 15.0034C12.2638 15.0034 12.6411 14.9193 12.9573 14.7474L13.2276 14.7598C13.2171 14.7034 13.219 14.6719 13.2744 14.6557C13.347 14.6366 13.4081 14.5401 13.4043 14.4522C13.4024 14.4522 13.3967 14.4207 13.4167 14.3968C13.433 14.3806 13.453 14.3682 13.4807 14.3682C13.7959 14.4283 14.2754 14.4484 14.6585 14.4599C15.1781 14.4799 15.2115 14.4876 15.2163 14.52C15.223 14.627 15.1953 14.7111 15.1323 14.7799C15.0186 14.8993 14.8123 14.927 14.6585 14.927C14.5782 14.927 14.52 14.9184 14.5009 14.9145C14.5228 14.9308 14.541 15.1104 14.4149 15.1658C14.2707 15.2384 13.9956 15.1591 13.9612 15.1467C13.9698 15.1629 13.9039 15.2909 13.8036 15.3186C13.7157 15.3463 13.6001 15.2747 13.582 15.2584C13.5858 15.2785 13.474 15.3902 13.3575 15.4218C13.2486 15.4542 13.1025 15.4065 13.0872 15.4026C13.0958 15.4103 12.9735 15.5306 12.8637 15.5469C12.8617 15.5469 12.8617 15.5469 12.8617 15.5469C12.7462 15.5469 12.6707 15.4657 12.6583 15.4504C12.6621 15.4695 12.5007 15.6013 12.3861 15.6013V15.6042Z" fill="#F6CF23"/>
<path fill-rule="evenodd" clip-rule="evenodd" d="M11.9562 13.8904C11.9562 13.8904 12.1682 13.8064 12.5427 13.7347C13.2476 13.5876 13.4902 13.6344 13.5409 13.5905C14.0987 12.9715 14.5085 12.9238 14.9116 12.7642C15.2354 12.492 15.3414 12.1051 15.6824 11.7097C16.0225 11.3133 16.2259 11.2827 16.2259 11.2827L16.2699 11.3706C16.2699 11.3706 16.4542 11.234 16.4437 11.3505C16.4294 11.5263 16.2842 11.6944 16.2928 11.8138C16.2976 11.8931 16.5421 11.7823 16.5192 11.8492C16.4619 12.0373 16.2632 12.1491 16.2107 12.2255C16.1228 12.3449 16.4332 12.1844 16.3702 12.3057C16.3052 12.429 15.9948 12.5531 15.8725 12.6286C15.7961 12.6725 15.9547 12.685 15.9384 12.7375C15.9222 12.7929 15.6031 12.9123 15.607 12.9524C15.6137 13.0078 15.6929 13.0126 15.6547 13.0527C15.586 13.1282 15.3204 13.1368 15.3175 13.1845C15.3137 13.2361 15.3729 13.2762 15.3137 13.3526C15.2201 13.472 15.1475 13.3526 15.1074 13.4491C15.0883 13.5055 15.264 13.6125 15.1437 13.6363C14.9832 13.665 14.859 13.7366 14.7225 13.8207C14.6699 13.8522 14.4321 13.9009 14.2964 13.9363C14.2047 13.9563 13.7061 14.0203 13.729 14.0614C13.7491 14.1015 14.0643 14.0977 14.7272 13.9802C15.0119 13.9286 15.1809 13.8961 15.628 13.7529C16.1419 13.5886 15.4962 13.5771 15.6022 13.5083C15.7082 13.4405 16.1514 13.472 16.1696 13.3737C16.1849 13.2609 15.9212 13.2944 15.927 13.2332C15.9356 13.1692 16.4695 13.1731 16.501 13.0298C16.5163 12.9495 16.1973 13.0097 16.2727 12.9132C16.3492 12.8177 16.7761 12.7929 16.7924 12.6057C16.801 12.4968 16.4428 12.6334 16.4886 12.5417C16.5087 12.5063 16.652 12.4624 16.7943 12.3659C17.0207 12.2064 17.375 11.9389 17.354 11.7871C17.3359 11.5951 16.6147 12.2265 16.6797 11.9867C16.6997 11.8988 17.8479 10.9962 17.6626 10.7726C17.5327 10.6236 16.7131 11.5989 16.6844 11.4031C16.6797 11.3381 17.9606 9.8929 17.7275 9.43727C17.6654 9.31787 16.6988 11.171 16.565 11.0114C16.5287 10.9675 17.3884 9.18223 17.2499 9.00552C17.1869 8.91382 17.0484 9.21375 16.9022 9.53756C16.757 9.86902 16.5956 10.2282 16.5612 10.2759C16.5297 10.3237 16.5994 9.57673 16.565 9.34939C16.5517 9.25291 16.4475 9.29303 16.4475 9.29303C16.2985 11.6142 14.0691 13.3354 12.2915 13.5914C11.8311 13.6554 11.6859 13.8761 11.1787 14.1626C11.0115 14.2553 10.7488 14.2983 10.5234 14.4263C10.298 14.5495 10.1375 14.7415 10.062 14.8619C10.0267 14.9173 10.0783 15.0892 10.1232 15.1093C10.1738 15.1245 10.169 14.9851 10.2215 14.9536C10.2741 14.9325 10.2741 15.009 10.339 15.0051C10.4011 15.0004 10.4709 14.9421 10.4709 14.9421C10.4709 14.9421 11.725 14.9383 12.2609 14.9259C12.3593 14.9211 12.5188 14.8819 12.5876 14.8103C12.5675 14.7501 12.4214 14.7826 12.3297 14.7854C11.9524 14.7616 11.4538 14.7854 11.1013 14.7663C11.1013 14.7663 11.0449 14.7625 11.0487 14.7023C11.0487 14.6785 11.2742 14.4397 11.2742 14.4397H11.0975C11.0975 14.4397 10.9914 14.4989 10.937 14.5027C10.8864 14.5113 10.8634 14.475 10.8854 14.4588C11.1529 14.2553 11.9571 13.8914 11.9571 13.8914L11.9562 13.8904Z" fill="#F6CF23"/>
<path fill-rule="evenodd" clip-rule="evenodd" d="M16.4926 9.30823C16.4726 9.30823 16.4525 9.31682 16.4525 9.31682C16.3226 11.5386 14.1915 13.3354 12.2936 13.6076C11.9869 13.6515 11.8188 13.7671 11.5867 13.9238C11.4797 14.003 11.3536 14.0833 11.1884 14.175C11.1062 14.2227 11.005 14.259 10.897 14.2906C10.7757 14.3345 10.6497 14.3746 10.5322 14.4463C10.3249 14.5628 10.1625 14.7385 10.0775 14.8742C10.0622 14.8942 10.0641 14.9506 10.0842 15.006C10.1004 15.0538 10.1195 15.0853 10.1319 15.0901C10.1405 15.0862 10.1482 15.0547 10.152 15.0394C10.1654 14.9984 10.1778 14.9554 10.2131 14.9353C10.2676 14.9353 10.28 14.9477 10.2905 14.9592C10.3048 14.9793 10.3153 14.9879 10.3325 14.9879C10.387 14.9879 10.4557 14.9315 10.4557 14.9315C10.4691 14.9229 11.7233 14.9229 12.2592 14.9038C12.3451 14.9038 12.5066 14.8713 12.5687 14.7997C12.5581 14.8035 12.5371 14.7959 12.4932 14.7959C12.4645 14.7959 12.4263 14.7997 12.3967 14.8045L12.327 14.8121C11.9449 14.7844 11.4511 14.8083 11.0948 14.7854C11.0948 14.7854 11.0623 14.7854 11.0432 14.7605C11.0289 14.7443 11.0222 14.729 11.025 14.7013C11.0298 14.6803 11.1053 14.5886 11.2572 14.4252L11.0957 14.4606C11.0957 14.4606 10.9954 14.5217 10.9372 14.5255C10.8913 14.5294 10.8636 14.5131 10.855 14.4883L10.8493 14.473L10.8674 14.4482C11.1397 14.2409 11.9162 13.8932 11.9506 13.8779C11.9516 13.8731 12.1656 13.7939 12.5381 13.7184C12.9698 13.6267 13.2258 13.6057 13.3767 13.598C13.4608 13.5942 13.5124 13.5904 13.5286 13.5789C13.9881 13.0679 14.3472 12.9437 14.6911 12.8243C14.7637 12.7995 14.8353 12.7766 14.9051 12.7479C15.077 12.6008 15.1916 12.4165 15.311 12.213C15.4085 12.0525 15.5126 11.8815 15.6664 11.702C16.0102 11.3065 16.2127 11.2664 16.2213 11.2664L16.2863 11.3619C16.2825 11.338 16.3598 11.2864 16.4095 11.2864L16.4515 11.3017C16.4573 11.3103 16.4659 11.3304 16.464 11.3543C16.4582 11.4498 16.4162 11.5386 16.378 11.6179C16.3407 11.6934 16.3092 11.7621 16.3111 11.8175C16.3637 11.829 16.3914 11.8252 16.42 11.8175C16.4439 11.8128 16.4706 11.8089 16.4898 11.8089L16.5375 11.829C16.4955 11.9971 16.3875 12.0926 16.3054 12.1605C16.2739 12.192 16.2395 12.2168 16.2261 12.2407C16.2318 12.2569 16.251 12.2531 16.2739 12.2493C16.2987 12.2455 16.3245 12.2407 16.3407 12.2407H16.3522L16.3923 12.2608C16.4066 12.2837 16.3923 12.3085 16.3885 12.3162C16.3417 12.4126 16.1755 12.4957 16.0293 12.5693C15.9711 12.597 15.9185 12.6247 15.8851 12.6447C15.9271 12.6849 15.9711 12.7078 15.9606 12.7479C15.9501 12.7804 15.8918 12.8167 15.7657 12.8759C15.7122 12.9046 15.6358 12.9447 15.6253 12.96C15.6301 12.9724 15.6396 12.981 15.6559 12.9934L15.6836 13.0335C15.6301 13.1176 15.5336 13.1367 15.4514 13.1577C15.4075 13.1701 15.3483 13.1854 15.334 13.193C15.3607 13.2647 15.376 13.3124 15.3282 13.3688C15.2862 13.428 15.2423 13.4366 15.2107 13.4366L15.1649 13.4318C15.1506 13.4318 15.141 13.4366 15.1267 13.4605C15.1229 13.4719 15.1486 13.5044 15.1649 13.5283C15.1935 13.556 15.2146 13.5961 15.2031 13.6248C15.1964 13.6439 15.1773 13.6525 15.1496 13.6563C14.9853 13.6916 14.8659 13.7604 14.735 13.8445C14.693 13.8636 14.5774 13.8961 14.4494 13.9247C14.3969 13.9371 14.3434 13.9486 14.3014 13.961C14.2737 13.9648 14.2059 13.9773 14.1266 13.9925C14.0167 14.0088 13.8247 14.0365 13.7607 14.0613C13.8066 14.0651 13.9384 14.1014 14.7255 13.9648C15.0121 13.9123 15.1735 13.8808 15.6243 13.7404C15.8087 13.6764 15.8125 13.6487 15.8125 13.6487C15.8125 13.6296 15.7208 13.6009 15.6845 13.5961C15.6148 13.5722 15.5775 13.556 15.5708 13.5331L15.5689 13.5207L15.59 13.4968C15.6396 13.4653 15.7533 13.449 15.8717 13.4452C15.9797 13.4328 16.143 13.4137 16.1507 13.3736C16.1573 13.3296 16.1029 13.3172 16.0188 13.301C15.9606 13.2895 15.9052 13.278 15.909 13.2341C15.9128 13.194 15.972 13.1863 16.1182 13.1625C16.2567 13.1376 16.464 13.1061 16.4812 13.0345C16.4716 13.0135 16.4114 13.0096 16.3761 13.002C16.314 12.9991 16.2567 12.9905 16.2443 12.9581L16.2385 12.9466L16.2576 12.9026C16.293 12.8587 16.377 12.8348 16.4716 12.8071C16.6082 12.7632 16.7658 12.7107 16.7734 12.6113C16.762 12.5827 16.6894 12.5874 16.6139 12.5951C16.5528 12.5989 16.4926 12.6151 16.4716 12.5788C16.4859 12.5196 16.5213 12.4948 16.5843 12.4671C16.6388 12.4394 16.7142 12.4069 16.7859 12.3591C17.2854 12.0076 17.3475 11.8548 17.337 11.7956C17.251 11.7755 17.1154 11.8548 16.997 11.9274C16.8699 12.0029 16.762 12.0621 16.7037 12.0659L16.6617 12.0506C16.6531 12.0344 16.6531 12.0143 16.6617 11.9818C16.6665 11.958 16.7295 11.8978 16.9072 11.7306C17.209 11.4517 17.7659 10.9321 17.6446 10.7917C17.5357 10.7917 17.3026 10.9875 17.1192 11.1518C16.91 11.3352 16.7773 11.4555 16.7142 11.4555H16.6961L16.6665 11.4116C16.6626 11.3877 16.6903 11.3514 16.846 11.1518C17.1842 10.7076 17.8843 9.78487 17.7105 9.45342C17.6771 9.4687 17.4774 9.78869 17.2998 10.0762C16.9397 10.6589 16.6961 11.0429 16.5872 11.0429C16.5356 11.0028 16.549 10.9636 16.7467 10.4869C16.9607 9.97591 17.3189 9.12483 17.2367 9.01785C17.1708 9.01307 17.0247 9.3216 16.9225 9.54894L16.8766 9.65688C16.74 9.96445 16.6101 10.2481 16.5786 10.2921C16.5299 10.2797 16.5299 10.2357 16.5423 9.96445C16.5528 9.7438 16.5643 9.4773 16.548 9.35694C16.5423 9.32065 16.5251 9.313 16.4936 9.313L16.4926 9.30823ZM10.1319 15.1244H10.1166C10.0775 15.113 10.0536 15.0452 10.046 15.0213C10.0288 14.9649 10.0183 14.8933 10.0441 14.8541C10.13 14.7137 10.2953 14.5265 10.5111 14.41C10.6305 14.3421 10.7585 14.2982 10.8856 14.2543C10.9907 14.218 11.091 14.1864 11.1712 14.1425C11.3307 14.0508 11.4539 13.9667 11.5647 13.8903C11.7997 13.7346 11.9697 13.6152 12.2897 13.5713C14.1705 13.3029 16.2825 11.5176 16.4258 9.29199C16.463 9.24327 16.5738 9.26811 16.5843 9.34357C16.6044 9.47157 16.5881 9.73902 16.5824 9.95967C16.5748 10.0982 16.5662 10.2434 16.57 10.2634C16.57 10.2233 16.7085 9.92433 16.8384 9.63586L16.8852 9.52792C17.0571 9.14871 17.1469 8.96436 17.2281 8.96436H17.2348L17.2682 8.99206C17.3561 9.10859 17.1001 9.73998 16.784 10.4994C16.6789 10.7429 16.5824 10.9665 16.5843 11.0028C16.6808 10.9989 17.018 10.4516 17.2635 10.0523C17.5529 9.58428 17.6646 9.4133 17.7162 9.4133C17.9264 9.78392 17.2186 10.7191 16.8737 11.1747C16.7916 11.2826 16.7123 11.382 16.7056 11.403C16.7639 11.3944 16.9368 11.2511 17.0896 11.1193C17.2969 10.9311 17.5109 10.7391 17.6188 10.7391H17.6264L17.6742 10.7592C17.8041 10.9149 17.3781 11.3342 16.932 11.7583C16.8193 11.8615 16.7018 11.9704 16.6961 11.9895C16.7467 12.021 16.8632 11.9532 16.9759 11.8892C17.1794 11.7612 17.3638 11.6819 17.3743 11.7812C17.3886 11.9045 17.2004 12.1089 16.8059 12.3849C16.7314 12.4327 16.656 12.469 16.5967 12.4957C16.5576 12.512 16.5117 12.5397 16.5069 12.5521C16.5509 12.5559 16.5786 12.5521 16.6082 12.5483C16.6923 12.5397 16.7677 12.5397 16.7964 12.5674L16.8117 12.6084C16.8002 12.7364 16.6321 12.7871 16.4802 12.8358C16.3971 12.8644 16.3149 12.8874 16.2872 12.9237C16.2853 12.9485 16.3446 12.9552 16.377 12.96C16.4382 12.9638 16.4907 12.9724 16.5127 13.0001C16.4993 13.1319 16.2987 13.1682 16.1258 13.1921C16.0494 13.2074 15.9587 13.2236 15.9453 13.236C15.9539 13.2398 15.9969 13.2513 16.0274 13.2551C16.101 13.2675 16.2013 13.2924 16.1889 13.3755C16.1764 13.4433 16.0379 13.4595 15.8756 13.4748C15.7638 13.4872 15.6549 13.4949 15.6129 13.5226C15.6148 13.5264 15.6645 13.5426 15.6969 13.5503C15.7772 13.5703 15.8488 13.5942 15.8507 13.642C15.8507 13.6706 15.823 13.7108 15.6348 13.77C15.1821 13.9104 15.0187 13.9505 14.7322 14.0021C14.2173 14.0852 13.9671 14.1014 13.8639 14.1014C13.7455 14.1014 13.7197 14.0823 13.7101 14.0651C13.7264 14.0135 13.8085 13.9983 14.118 13.9457C14.1944 13.9333 14.2651 13.9218 14.2937 13.9133C14.3339 13.9008 14.3893 13.8894 14.4389 13.8779C14.5536 13.8493 14.6768 13.8216 14.7112 13.8024C14.8449 13.7174 14.9691 13.6458 15.1429 13.6143C15.1687 13.5933 15.1448 13.5617 15.1324 13.5426C15.1066 13.5102 15.078 13.4739 15.0923 13.4385C15.1066 13.3984 15.1257 13.3869 15.1639 13.3869L15.2098 13.407V13.386C15.2346 13.386 15.2642 13.3822 15.2958 13.3344C15.3301 13.2991 15.3187 13.2666 15.3082 13.2398C15.3043 13.2236 15.2958 13.1997 15.2958 13.1835C15.3024 13.1434 15.3521 13.1309 15.4419 13.1118C15.5154 13.0994 15.6071 13.0765 15.6387 13.0392C15.6138 13.0068 15.589 12.9877 15.5842 12.9552C15.5785 12.9237 15.6215 12.9007 15.7476 12.8358C15.8096 12.8081 15.9099 12.7517 15.9176 12.7326C15.9214 12.7202 15.8966 12.7126 15.8794 12.7001C15.8584 12.6887 15.8307 12.6724 15.8307 12.6533V12.6409L15.8612 12.6094C15.8956 12.5893 15.9472 12.5616 16.0064 12.5292C16.1421 12.4613 16.3083 12.3773 16.3503 12.298C16.3226 12.2779 16.3006 12.2818 16.2767 12.2856C16.2567 12.2894 16.2347 12.2942 16.2204 12.2942L16.1726 12.2703C16.165 12.2541 16.1784 12.234 16.1908 12.2139C16.2108 12.1891 16.2433 12.1614 16.2767 12.1299C16.3608 12.0573 16.4611 11.9704 16.5003 11.8452C16.4697 11.8491 16.4458 11.8491 16.4258 11.8529C16.3293 11.8729 16.272 11.8452 16.272 11.8175C16.2662 11.7535 16.2997 11.6771 16.3388 11.5931C16.3761 11.5128 16.4162 11.4297 16.4248 11.3457C16.3809 11.3218 16.314 11.3619 16.2806 11.3858L16.207 11.2941C16.2089 11.3065 16.0102 11.3543 15.696 11.722C15.546 11.8978 15.4429 12.0697 15.3426 12.2331C15.2193 12.4336 15.1057 12.6285 14.9251 12.7775C14.8497 12.8129 14.7742 12.8329 14.7026 12.8616C14.3654 12.9772 14.011 13.1013 13.5544 13.6038C13.5286 13.6286 13.4828 13.6324 13.3806 13.6401C13.2287 13.6477 12.9746 13.6639 12.5457 13.7528C12.1761 13.8282 11.964 13.9085 11.964 13.9123C11.9554 13.9161 11.1607 14.2724 10.8932 14.4759C10.9725 14.4759 11.0556 14.4396 11.0833 14.4233L11.2724 14.4186C11.1836 14.5628 11.0709 14.687 11.0671 14.7061L11.0996 14.7662V14.7414C11.4539 14.7662 11.9497 14.7385 12.3299 14.7701L12.3929 14.7615C12.4703 14.7538 12.5744 14.7261 12.6021 14.8054C12.5247 14.9009 12.3566 14.941 12.2582 14.941C11.73 14.9563 10.5016 14.9602 10.4701 14.9602C10.472 14.964 10.4023 15.0203 10.3363 15.0242C10.2943 15.0242 10.2752 15.0003 10.2628 14.984C10.2189 14.9802 10.1978 15.0203 10.1892 15.048C10.1749 15.0881 10.1644 15.1235 10.131 15.1235L10.1319 15.1244Z" fill="#F6CF23"/>
<path fill-rule="evenodd" clip-rule="evenodd" d="M10.7145 14.6509C10.7126 14.6261 10.6525 14.6423 10.6104 14.6509C10.5646 14.6624 10.5388 14.6786 10.5426 14.7063C10.5445 14.735 10.5999 14.7225 10.6419 14.7101C10.6878 14.6987 10.7165 14.6786 10.7145 14.6509Z" fill="#53AFC7"/>
<path fill-rule="evenodd" clip-rule="evenodd" d="M10.5702 14.7419H10.5502L10.5206 14.7103C10.5168 14.674 10.5483 14.6425 10.6046 14.6301C10.6428 14.6225 10.6686 14.6177 10.6887 14.6177H10.7087L10.7345 14.6502C10.7365 14.6817 10.704 14.718 10.6486 14.7304C10.619 14.738 10.5922 14.7419 10.5712 14.7419H10.5702Z" fill="#53AFC7"/>
<path fill-rule="evenodd" clip-rule="evenodd" d="M12.3182 5.55352C12.4691 5.58504 12.5436 5.50194 12.5675 5.39018C12.599 5.2383 12.5341 4.4751 12.5341 4.4751C12.5341 4.4751 12.1816 5.15425 12.1548 5.3023C12.131 5.4217 12.1682 5.52677 12.3182 5.55352Z" fill="#F6CF23"/>
<path fill-rule="evenodd" clip-rule="evenodd" d="M12.8714 5.7205C13.0156 5.78163 13.1044 5.71286 13.1484 5.60588C13.2066 5.46546 13.2926 4.70703 13.2926 4.70703C13.2926 4.70703 12.815 5.30212 12.7558 5.44636C12.7166 5.55334 12.729 5.6651 12.8714 5.72146V5.7205Z" fill="#F6CF23"/>
<path fill-rule="evenodd" clip-rule="evenodd" d="M13.3805 5.99663C13.5085 6.08068 13.6107 6.02815 13.6757 5.93263C13.7578 5.80941 13.99 5.08154 13.99 5.08154C13.99 5.08154 13.4082 5.57347 13.3204 5.70147C13.2592 5.79603 13.2525 5.90875 13.3805 5.99663Z" fill="#F6CF23"/>
<path fill-rule="evenodd" clip-rule="evenodd" d="M13.8264 6.35963C13.9353 6.47234 14.0452 6.43987 14.1244 6.35581C14.2352 6.25265 14.602 5.58496 14.602 5.58496C14.602 5.58496 13.9353 5.95271 13.8274 6.06065C13.7443 6.14471 13.7156 6.25265 13.8274 6.36058L13.8264 6.35963Z" fill="#F6CF23"/>
<path fill-rule="evenodd" clip-rule="evenodd" d="M14.1915 6.80859C14.2775 6.93659 14.3902 6.93277 14.4847 6.864C14.6147 6.77612 15.1047 6.19727 15.1047 6.19727C15.1047 6.19727 14.3797 6.42938 14.2517 6.51344C14.1581 6.57648 14.1055 6.68155 14.1915 6.80955V6.80859Z" fill="#F6CF23"/>
<path fill-rule="evenodd" clip-rule="evenodd" d="M14.4636 7.31484C14.5267 7.45812 14.6355 7.47436 14.7406 7.43042C14.8829 7.36929 15.4799 6.89551 15.4799 6.89551C15.4799 6.89551 14.7225 6.98339 14.5792 7.03879C14.4713 7.08273 14.4053 7.17443 14.4636 7.31484Z" fill="#F6CF23"/>
<path fill-rule="evenodd" clip-rule="evenodd" d="M14.6317 7.87094C14.6613 8.01804 14.7664 8.05816 14.881 8.03428C15.0329 8.00181 15.7092 7.65507 15.7092 7.65507C15.7092 7.65507 14.9479 7.59107 14.8008 7.61877C14.6842 7.64265 14.6021 7.71811 14.6307 7.86999L14.6317 7.87094Z" fill="#F6CF23"/>
<path fill-rule="evenodd" clip-rule="evenodd" d="M14.6873 8.44106C14.6892 8.59771 14.7847 8.65311 14.9003 8.65311C15.0569 8.65311 15.7857 8.44106 15.7857 8.44106C15.7857 8.44106 15.0569 8.229 14.9003 8.229C14.7847 8.229 14.6873 8.28536 14.6873 8.44106Z" fill="#F6CF23"/>
<path fill-rule="evenodd" clip-rule="evenodd" d="M14.6318 9.01726C14.6031 9.16819 14.6843 9.24078 14.8018 9.26466C14.9489 9.29618 15.7102 9.23314 15.7102 9.23314C15.7102 9.23314 15.0329 8.88163 14.882 8.84915C14.7674 8.82909 14.6604 8.86061 14.6327 9.01726H14.6318Z" fill="#F6CF23"/>
<path fill-rule="evenodd" clip-rule="evenodd" d="M14.4637 9.56822C14.4073 9.71245 14.4704 9.79938 14.5792 9.84332C14.7225 9.90732 15.48 9.98755 15.48 9.98755C15.48 9.98755 14.883 9.51186 14.7407 9.45264C14.6356 9.41252 14.5229 9.42398 14.4637 9.56822Z" fill="#F6CF23"/>
<path fill-rule="evenodd" clip-rule="evenodd" d="M14.1914 10.0802C14.1073 10.2043 14.158 10.3085 14.2516 10.3763C14.3796 10.4565 15.1046 10.6925 15.1046 10.6925C15.1046 10.6925 14.6145 10.1088 14.4846 10.02C14.3901 9.96077 14.2774 9.95218 14.1914 10.0802Z" fill="#F6CF23"/>
<path fill-rule="evenodd" clip-rule="evenodd" d="M13.8266 10.5227C13.7186 10.6307 13.7435 10.7424 13.8266 10.8265C13.9355 10.9306 14.6012 11.3022 14.6012 11.3022C14.6012 11.3022 14.2344 10.6316 14.1236 10.5275C14.0434 10.4435 13.9326 10.4158 13.8247 10.5237L13.8266 10.5227Z" fill="#F6CF23"/>
<path fill-rule="evenodd" clip-rule="evenodd" d="M13.3804 10.8866C13.2543 10.9744 13.2591 11.0862 13.3203 11.1827C13.4081 11.3145 13.9898 11.8016 13.9898 11.8016C13.9898 11.8016 13.7577 11.0786 13.6756 10.9506C13.6106 10.8512 13.5075 10.8035 13.3804 10.8875V10.8866Z" fill="#F6CF23"/>
<path fill-rule="evenodd" clip-rule="evenodd" d="M12.8713 11.1627C12.729 11.2267 12.7156 11.3317 12.7557 11.4387C12.8149 11.583 13.2925 12.178 13.2925 12.178C13.2925 12.178 13.2066 11.4225 13.1483 11.2792C13.1044 11.1741 13.0136 11.1034 12.8713 11.1627Z" fill="#F6CF23"/>
<path fill-rule="evenodd" clip-rule="evenodd" d="M10.1108 10.8866C9.98087 10.8063 9.87866 10.8512 9.81466 10.9496C9.7287 11.0776 9.49658 11.8007 9.49658 11.8007C9.49658 11.8007 10.0793 11.3135 10.1652 11.1817C10.2311 11.0852 10.2397 10.9744 10.1098 10.8856L10.1108 10.8866Z" fill="#F6CF23"/>
<path fill-rule="evenodd" clip-rule="evenodd" d="M9.66567 10.5224C9.55392 10.4154 9.44598 10.4431 9.36574 10.5272C9.25494 10.6313 8.88623 11.3018 8.88623 11.3018C8.88623 11.3018 9.55392 10.9303 9.66185 10.8262C9.744 10.7421 9.77457 10.6313 9.66567 10.5224Z" fill="#F6CF23"/>
<path fill-rule="evenodd" clip-rule="evenodd" d="M9.29787 10.0802C9.21191 9.95218 9.09919 9.96077 9.00367 10.02C8.87376 10.1079 8.38184 10.6925 8.38184 10.6925C8.38184 10.6925 9.10874 10.4565 9.23674 10.3763C9.33322 10.3085 9.38289 10.2043 9.29692 10.0802H9.29787Z" fill="#F6CF23"/>
<path fill-rule="evenodd" clip-rule="evenodd" d="M9.02579 9.56822C8.96657 9.42398 8.85385 9.41252 8.74592 9.45264C8.60455 9.51186 8.00659 9.98755 8.00659 9.98755C8.00659 9.98755 8.76502 9.90732 8.90926 9.84332C9.01433 9.79938 9.0831 9.71245 9.02484 9.56822H9.02579Z" fill="#F6CF23"/>
<path fill-rule="evenodd" clip-rule="evenodd" d="M8.85843 9.01726C8.82595 8.86061 8.72184 8.82909 8.60435 8.84915C8.4582 8.88067 7.77905 9.23314 7.77905 9.23314C7.77905 9.23314 8.53939 9.29618 8.69031 9.26466C8.80207 9.24078 8.88995 9.16819 8.85843 9.01726Z" fill="#F6CF23"/>
<path fill-rule="evenodd" clip-rule="evenodd" d="M8.80223 8.44106C8.80032 8.28536 8.7048 8.229 8.59018 8.229C8.43448 8.229 7.69897 8.44106 7.69897 8.44106C7.69897 8.44106 8.43448 8.65311 8.59018 8.65311C8.7048 8.65311 8.80223 8.59771 8.80223 8.44106Z" fill="#F6CF23"/>
<path fill-rule="evenodd" clip-rule="evenodd" d="M8.85843 7.87082C8.88613 7.71799 8.80207 7.64253 8.69031 7.6196C8.53939 7.59095 7.77905 7.6559 7.77905 7.6559C7.77905 7.6559 8.4582 8.0036 8.60435 8.03512C8.72184 8.05804 8.82595 8.0227 8.85843 7.87178V7.87082Z" fill="#F6CF23"/>
<path fill-rule="evenodd" clip-rule="evenodd" d="M9.02581 7.31484C9.08408 7.17443 9.01531 7.08273 8.91023 7.03879C8.766 6.98339 8.00757 6.89551 8.00757 6.89551C8.00757 6.89551 8.60457 7.37024 8.74689 7.43042C8.85483 7.47436 8.96755 7.45812 9.02581 7.31484Z" fill="#F6CF23"/>
<path fill-rule="evenodd" clip-rule="evenodd" d="M9.29787 6.80857C9.38289 6.68058 9.33322 6.57646 9.23674 6.51246C9.10874 6.4284 8.38184 6.19629 8.38184 6.19629C8.38184 6.19629 8.87376 6.77514 9.00367 6.86302C9.09919 6.93179 9.21382 6.94039 9.29692 6.80762L9.29787 6.80857Z" fill="#F6CF23"/>
<path fill-rule="evenodd" clip-rule="evenodd" d="M9.66565 6.35963C9.77168 6.25265 9.74302 6.14375 9.66088 6.06065C9.55389 5.95271 8.88525 5.58496 8.88525 5.58496C8.88525 5.58496 9.25396 6.25265 9.36477 6.35581C9.445 6.43987 9.55485 6.47234 9.6647 6.35963H9.66565Z" fill="#F6CF23"/>
<path fill-rule="evenodd" clip-rule="evenodd" d="M11.7423 5.85742C13.1732 5.85742 14.3319 7.01608 14.3319 8.44602C14.3319 9.87595 13.1732 11.0384 11.7423 11.0384C10.3105 11.0384 9.1499 9.88073 9.1499 8.44602C9.1499 7.01608 10.3105 5.85742 11.7423 5.85742Z" fill="#F6CF23"/>
<path fill-rule="evenodd" clip-rule="evenodd" d="M11.7422 5.50123C11.8988 5.49645 11.9562 5.40189 11.9562 5.28535C11.9562 5.13348 11.7422 4.39893 11.7422 4.39893C11.7422 4.39893 11.5349 5.13443 11.5349 5.28535C11.5349 5.40189 11.5913 5.50123 11.7422 5.50123Z" fill="#F6CF23"/>
<path fill-rule="evenodd" clip-rule="evenodd" d="M12.3183 11.327C12.1684 11.3624 12.1302 11.4665 12.154 11.583C12.1817 11.7301 12.5332 12.4093 12.5332 12.4093C12.5332 12.4093 12.5992 11.646 12.5667 11.4989C12.5438 11.3824 12.4683 11.3031 12.3174 11.327H12.3183Z" fill="#F6CF23"/>
<path fill-rule="evenodd" clip-rule="evenodd" d="M11.7422 11.3823C11.5913 11.3861 11.5349 11.4826 11.5349 11.5982C11.5349 11.7549 11.7422 12.4856 11.7422 12.4856C11.7422 12.4856 11.9562 11.7549 11.9562 11.5982C11.9562 11.4826 11.8988 11.3823 11.7422 11.3823Z" fill="#F6CF23"/>
<path fill-rule="evenodd" clip-rule="evenodd" d="M11.1721 11.327C11.0202 11.3031 10.9438 11.3824 10.9218 11.4989C10.8913 11.646 10.9553 12.4093 10.9553 12.4093C10.9553 12.4093 11.303 11.7301 11.3345 11.583C11.3584 11.4665 11.3202 11.3595 11.1712 11.327H11.1721Z" fill="#F6CF23"/>
<path fill-rule="evenodd" clip-rule="evenodd" d="M10.618 11.1624C10.4757 11.1023 10.383 11.1749 10.3401 11.279C10.2808 11.4223 10.1968 12.1778 10.1968 12.1778C10.1968 12.1778 10.6734 11.5827 10.7336 11.4385C10.7756 11.3315 10.7594 11.2226 10.618 11.1624Z" fill="#F6CF23"/>
<path fill-rule="evenodd" clip-rule="evenodd" d="M10.1108 5.99663C10.2369 5.90875 10.2321 5.79603 10.1662 5.70147C10.0802 5.57347 9.49756 5.08154 9.49756 5.08154C9.49756 5.08154 9.72967 5.80845 9.81564 5.93263C9.87868 6.02815 9.98089 6.08068 10.1108 5.99663Z" fill="#F6CF23"/>
<path fill-rule="evenodd" clip-rule="evenodd" d="M10.618 5.72048C10.7594 5.66126 10.7756 5.55332 10.7336 5.44538C10.6734 5.30114 10.1968 4.70605 10.1968 4.70605C10.1968 4.70605 10.2808 5.46448 10.3401 5.6049C10.384 5.71188 10.4757 5.78066 10.618 5.72048Z" fill="#F6CF23"/>
<path fill-rule="evenodd" clip-rule="evenodd" d="M11.172 5.55352C11.321 5.522 11.3592 5.4217 11.3353 5.3023C11.3038 5.15425 10.9561 4.4751 10.9561 4.4751C10.9561 4.4751 10.8912 5.23926 10.9227 5.39018C10.9447 5.50194 11.0201 5.58982 11.173 5.55352H11.172Z" fill="#F6CF23"/>
</g>
</g>
<defs>
<clipPath id="clip0_1756_25600">
<rect width="20" height="20" fill="white"/>
</clipPath>
<clipPath id="clip1_1756_25600">
<rect width="20" height="20" fill="white"/>
</clipPath>
</defs>
</svg>
