<svg width="20" height="20" viewBox="0 0 20 20" fill="none" xmlns="http://www.w3.org/2000/svg">
<g clip-path="url(#clip0_1424_27432)">
<path fill-rule="evenodd" clip-rule="evenodd" d="M13.3336 19.4297V0.570255C12.2905 0.201547 11.1691 0 9.99991 0C8.83075 0 7.70934 0.201547 6.66626 0.570255V19.4307C7.70934 19.7994 8.83075 20.001 9.99991 20.001C11.1691 20.001 12.2905 19.7994 13.3336 19.4307V19.4297Z" fill="#F2E00C"/>
<path fill-rule="evenodd" clip-rule="evenodd" d="M6.66635 19.4298V0.570312C2.7825 1.94294 0 5.64625 0 10.0001C0 14.3539 2.7825 18.0572 6.66635 19.4298Z" fill="#34358D"/>
<path fill-rule="evenodd" clip-rule="evenodd" d="M13.3337 0.570312V19.4308C17.2176 18.0581 20.0001 14.3548 20.0001 10.001C20.0001 5.64721 17.2176 1.94294 13.3337 0.570312Z" fill="#D2272D"/>
<path fill-rule="evenodd" clip-rule="evenodd" d="M9.17555 6.04344C9.12588 6.04344 9.08289 6.05776 9.0571 6.07782C9.09722 6.08929 9.12588 6.12654 9.12588 6.17334V6.28892H9.01125C8.96349 6.28892 8.92624 6.25931 8.91382 6.21824C8.89376 6.24498 8.88135 6.28892 8.88135 6.33955C8.88135 6.39017 8.89376 6.43507 8.91382 6.4599C8.92624 6.41883 8.96349 6.39017 9.01125 6.39017H9.12588V6.94897C9.12588 6.99291 9.10009 7.0292 9.06284 7.04162C9.11728 7.05117 9.16504 7.12472 9.17841 7.1658C9.19179 7.12472 9.23955 7.05117 9.29208 7.04162C9.25483 7.0292 9.22522 6.99291 9.22522 6.94897V6.39017H9.34271C9.39142 6.39017 9.42868 6.41883 9.44109 6.45799C9.4602 6.43316 9.47262 6.39017 9.47262 6.33764C9.47262 6.2851 9.4602 6.24307 9.44109 6.21728C9.42868 6.25931 9.39142 6.28797 9.34271 6.28797H9.22522V6.17239C9.22522 6.12558 9.25483 6.08833 9.29877 6.07687C9.27202 6.05585 9.22522 6.04248 9.17555 6.04248V6.04344Z" fill="#242222"/>
<path fill-rule="evenodd" clip-rule="evenodd" d="M9.17559 6.06836C9.1498 6.06836 9.12592 6.07314 9.10682 6.07982C9.13452 6.10275 9.1498 6.13522 9.1498 6.17343V6.28901V6.29283V6.31194H9.13166L9.12879 6.31385H9.0113C8.97118 6.31385 8.93966 6.29665 8.91865 6.27086C8.911 6.29092 8.90527 6.31289 8.90527 6.34059C8.90527 6.36734 8.911 6.39026 8.91865 6.41032C8.93966 6.38358 8.97118 6.36638 9.0113 6.36638H9.07912H9.09631H9.14885C9.14885 6.36638 9.14885 6.37116 9.14885 6.37498V6.38644C9.14885 6.38644 9.14885 6.39026 9.14885 6.39217V6.43611V6.79813V6.95096C9.14885 6.98726 9.1307 7.01687 9.10587 7.03789C9.12497 7.04935 9.14025 7.06463 9.15363 7.07896C9.16509 7.09425 9.17082 7.10666 9.17751 7.12099C9.1861 7.10666 9.18706 7.09425 9.20139 7.07896C9.21189 7.06463 9.22718 7.05126 9.24723 7.0398C9.22049 7.01687 9.20425 6.98822 9.20425 6.95096V6.68828V6.43611V6.36734H9.22431H9.27111H9.34275C9.38192 6.36734 9.41344 6.38549 9.43828 6.40937C9.44401 6.39026 9.44687 6.36734 9.44687 6.34059C9.44687 6.31385 9.44401 6.29092 9.43828 6.27182C9.4144 6.29761 9.38287 6.3148 9.34275 6.3148H9.22527V6.31289H9.20521V6.29474C9.20521 6.29474 9.20521 6.29188 9.20521 6.29092V6.17534C9.20521 6.13713 9.22144 6.10561 9.24532 6.08269C9.22527 6.076 9.20521 6.07027 9.17559 6.07027V6.06836Z" fill="#F5EC23"/>
<path fill-rule="evenodd" clip-rule="evenodd" d="M9.26638 8.10466L9.07247 8.06072L8.66747 7.84675L8.41243 7.83243L8.39714 7.33763L7.90522 6.94409L7.40374 7.48187L7.33496 7.64139L7.3598 12.5483L7.67979 12.1576L7.74952 12.1748L8.08097 11.8137L8.36467 11.0963L8.44968 10.8012L8.83081 11.252L8.68562 11.5195L8.81839 11.5099L8.83081 11.6208L8.95116 11.5711L8.98268 11.7239L9.25014 11.4555L9.6198 11.6379L8.91868 12.8883L8.66747 13.0736L9.11737 13.2436L9.58159 12.704L9.51569 13.0574L9.37527 13.4022L9.94075 13.726L10.554 13.365L10.2483 12.7336L10.3496 12.6896L10.7441 13.2618L11.1768 13.0488L10.617 12.3935L10.2455 11.6036L10.6352 11.4746L10.9017 11.7287L10.9408 11.5644L11.0813 11.6313L11.0622 11.4928L11.2054 11.5243L11.0325 11.2511L11.4691 10.8852L11.7442 11.7468L12.153 12.212L12.238 12.2015L12.5322 12.5664L12.5303 7.51148L11.9858 6.9374L11.4528 7.36915L11.4758 7.83338L11.2379 7.84198L10.8854 8.02442L10.6868 8.08938L10.5912 8.10752L10.4709 7.97571L10.3095 7.64998L10.298 7.32904L10.3992 7.11794L10.3811 6.92021L10.468 6.92212L10.4126 6.78935L10.4919 6.75591L10.3725 6.6518L10.4126 6.60308L9.96367 6.41013L9.62171 6.38721L9.52906 6.42828L9.48512 6.51043L9.57491 6.76642L9.47557 6.86481L9.57491 7.05298L9.57777 7.46372L9.5004 7.81046L9.34661 8.07314L9.26638 8.10466Z" fill="#8D6E37"/>
<path fill-rule="evenodd" clip-rule="evenodd" d="M8.74686 11.5274L8.40681 12.047L8.24347 12.0413L8.07249 12.1215L8.01709 12.3049L8.04384 12.3909L8.22628 12.5896L8.37816 12.5055L8.4966 12.3747L8.52526 12.26L8.95605 11.7022L8.93408 11.5627L8.84334 11.622L8.80609 11.5083L8.74686 11.5274Z" fill="#C62832"/>
<path fill-rule="evenodd" clip-rule="evenodd" d="M10.9141 11.682L11.3697 12.2953L11.4127 12.4147L11.6114 12.5942L11.6725 12.5799L11.8903 12.3258L11.8435 12.151L11.6352 12.0259L11.4815 12.0412L11.1404 11.5273L11.0784 11.5024L11.0554 11.6027L10.9542 11.5722L10.9141 11.682Z" fill="#C62832"/>
<path fill-rule="evenodd" clip-rule="evenodd" d="M11.5303 12.3992C11.5303 12.3992 11.535 12.3992 11.5408 12.3992C11.5465 12.3992 11.5532 12.4011 11.5561 12.4039L11.6678 12.4995C11.6841 12.5128 11.6841 12.5329 11.6678 12.5501C11.6554 12.5663 11.6344 12.5692 11.621 12.5558L11.5093 12.4603C11.4959 12.4488 11.4959 12.4259 11.5093 12.4087C11.5159 12.4039 11.5217 12.3992 11.5303 12.3982V12.3992ZM8.33894 12.3992C8.35136 12.3972 8.36282 12.4011 8.37237 12.4097C8.38574 12.4269 8.38288 12.4488 8.37046 12.4612L8.2587 12.5568C8.24628 12.5701 8.22431 12.5673 8.2119 12.551C8.19757 12.5338 8.19757 12.5138 8.2119 12.5004L8.32366 12.4049C8.32366 12.4049 8.33416 12.4001 8.33989 12.4001L8.33894 12.3992ZM11.6019 12.3266C11.5904 12.3266 11.5828 12.3304 11.5771 12.339C11.5647 12.3543 11.5647 12.3753 11.5799 12.3886L11.6888 12.4851C11.7012 12.4975 11.7251 12.4937 11.7385 12.4794C11.7528 12.4632 11.7528 12.4421 11.7356 12.4297L11.6277 12.3342C11.6277 12.3342 11.6143 12.3266 11.6086 12.3266C11.6067 12.3256 11.6038 12.3256 11.6019 12.3266ZM8.26825 12.3266C8.26825 12.3266 8.25488 12.3294 8.25106 12.3342L8.14217 12.4297C8.12784 12.4421 8.12784 12.4632 8.14217 12.4794C8.15554 12.4937 8.17655 12.4975 8.18897 12.4851L8.30073 12.3896C8.31315 12.3762 8.31601 12.3552 8.3036 12.3399C8.29213 12.3313 8.27972 12.3266 8.26825 12.3275V12.3266ZM11.6611 12.2511C11.6535 12.253 11.6449 12.2578 11.6411 12.2664C11.6239 12.2807 11.6277 12.3036 11.6411 12.3161L11.75 12.4097C11.7652 12.423 11.7863 12.4221 11.7996 12.4049C11.8159 12.3896 11.8159 12.3676 11.7996 12.3552L11.6907 12.2597C11.685 12.2549 11.6774 12.2511 11.6688 12.2521C11.6659 12.2521 11.664 12.2501 11.6611 12.2521V12.2511ZM8.20712 12.2511C8.20139 12.2511 8.19088 12.254 8.18802 12.2597L8.07626 12.3552C8.06384 12.3676 8.06384 12.3896 8.07626 12.4049C8.08963 12.4221 8.11351 12.423 8.12593 12.4097L8.23482 12.3161C8.24819 12.3036 8.2501 12.2807 8.23769 12.2664C8.22909 12.2568 8.21667 12.2501 8.20617 12.2511H8.20712ZM11.7175 12.2119C11.7175 12.2119 11.7242 12.2129 11.727 12.2158L11.7719 12.254C11.7777 12.2587 11.7805 12.2692 11.7719 12.2759C11.7691 12.2826 11.7586 12.2836 11.7547 12.2778L11.7089 12.2387C11.7003 12.2339 11.7003 12.2234 11.706 12.2186C11.7089 12.2138 11.7146 12.2129 11.7175 12.2119ZM8.16127 12.2119C8.16127 12.2119 8.167 12.2148 8.16987 12.2186C8.1756 12.2234 8.1756 12.2339 8.16987 12.2396L8.12497 12.2778C8.11733 12.2836 8.10873 12.2836 8.10396 12.2769C8.09632 12.2702 8.09823 12.2597 8.10396 12.2549L8.14885 12.2158C8.15458 12.2129 8.15554 12.2119 8.16127 12.2119ZM9.5807 11.6111C9.5807 11.6111 9.03719 12.8615 8.55386 13.0554C8.55386 13.0554 8.764 13.1442 9.02095 13.2798C9.06203 13.298 9.09832 13.319 9.13653 13.341C9.16996 13.3018 9.2034 13.2579 9.23778 13.212C9.39252 13.0067 9.54249 12.766 9.54249 12.766C9.55395 12.828 9.47085 13.021 9.33426 13.2569C9.30751 13.3037 9.27886 13.3524 9.24829 13.4031C9.28268 13.4212 9.31802 13.4422 9.35241 13.4642C9.60745 13.617 9.84816 13.7947 9.93508 13.9571C10.0249 13.7947 10.2665 13.617 10.5216 13.4642C10.556 13.4422 10.5903 13.4222 10.6266 13.4031C10.5932 13.3524 10.5665 13.3037 10.5397 13.2569C10.4031 13.021 10.32 12.828 10.3296 12.766C10.3296 12.766 10.4815 13.0057 10.6352 13.212C10.6696 13.2569 10.704 13.3018 10.7355 13.341C10.7757 13.32 10.812 13.298 10.8492 13.2798C11.11 13.1442 11.3201 13.0554 11.3201 13.0554C10.8368 12.8615 10.2904 11.6111 10.2904 11.6111L10.214 11.635C10.214 11.635 10.6467 12.7163 11.0699 13.043C10.9753 13.0716 10.8616 13.1127 10.7441 13.1643C10.6037 12.9971 10.4576 12.7736 10.3353 12.5749C10.2083 12.359 10.1051 11.9817 10.1051 11.9817C10.044 12.1269 10.1701 12.8548 10.428 13.3152C10.2169 13.426 10.0249 13.5454 9.93508 13.6428C9.84529 13.5444 9.65903 13.426 9.44506 13.3152C9.70297 12.8548 9.83001 12.1269 9.76887 11.9817C9.76887 11.9817 9.66571 12.359 9.53581 12.5749C9.41832 12.7736 9.27026 12.9971 9.12985 13.1643C9.01236 13.1136 8.89773 13.0726 8.80317 13.043C9.22632 12.7153 9.66189 11.635 9.66189 11.635L9.57974 11.6111H9.5807ZM11.0909 11.5452C11.0976 11.5509 11.1081 11.5538 11.1224 11.5567C11.1415 11.5834 11.3278 11.87 11.4395 12.0476C11.4701 12.0897 11.6067 12.0572 11.6229 12.061C11.6955 12.0734 11.8015 12.1518 11.812 12.1804C11.8168 12.1967 11.8044 12.2224 11.7882 12.2234C11.7614 12.2253 11.7404 12.19 11.6554 12.1632C11.5752 12.1384 11.5188 12.1651 11.451 12.1155C11.4538 12.1804 11.5408 12.2291 11.5408 12.275C11.4854 12.275 11.451 12.2377 11.451 12.2377C11.451 12.2377 11.4567 12.2807 11.4567 12.318C11.4567 12.3562 11.4137 12.3772 11.4137 12.3772C11.4137 12.3772 11.387 12.275 11.3574 12.2329C11.2361 12.0696 10.9915 11.7353 10.9457 11.677C10.9571 11.6312 10.9638 11.5997 10.9638 11.5997L11.0632 11.6675C11.0918 11.6359 11.0899 11.5452 11.0899 11.5452H11.0909ZM8.78406 11.5452C8.78406 11.5452 8.78406 11.6359 8.81081 11.6675L8.91301 11.5997C8.91301 11.5997 8.91684 11.6321 8.9283 11.677C8.8834 11.7353 8.63792 12.0706 8.51661 12.2329C8.48699 12.275 8.4612 12.3772 8.4612 12.3772C8.4612 12.3772 8.41822 12.3571 8.41822 12.318C8.41822 12.2788 8.42395 12.2377 8.42395 12.2377C8.42395 12.2377 8.39243 12.275 8.3313 12.275C8.3313 12.2291 8.42109 12.1804 8.42395 12.1155C8.35804 12.1642 8.29978 12.1384 8.2224 12.1632C8.13835 12.189 8.11447 12.2253 8.08677 12.2234C8.07339 12.2234 8.05811 12.1967 8.06384 12.1804C8.07339 12.1518 8.17655 12.0734 8.25106 12.061C8.27016 12.0572 8.4058 12.0906 8.43541 12.0476C8.54908 11.87 8.73439 11.5834 8.75254 11.5567C8.76687 11.5538 8.77642 11.5509 8.78406 11.5452ZM11.0708 11.2434L11.0183 11.2711C11.0183 11.2711 11.0947 11.4592 11.1596 11.4898C11.1596 11.4898 11.0851 11.4955 11.0422 11.4659C11.0336 11.5089 11.0231 11.5758 11.0231 11.5758C10.9868 11.5758 10.9228 11.5261 10.9228 11.5261C10.9094 11.5605 10.8855 11.6579 10.8855 11.6579C10.8311 11.6207 10.662 11.4248 10.662 11.4248L10.5865 11.4764C10.5865 11.4764 10.8654 11.699 10.9228 11.8174C10.9256 11.7974 10.9285 11.7821 10.9333 11.762C10.9839 11.8318 11.2065 12.1279 11.3211 12.2836C11.3526 12.3304 11.3555 12.3781 11.386 12.423C11.4405 12.5061 11.5045 12.5482 11.5694 12.6064C11.5924 12.6284 11.6659 12.616 11.6821 12.5997C11.7032 12.5768 11.8436 12.4011 11.8436 12.4011C11.8436 12.4011 11.8541 12.4097 11.8598 12.4326C11.8598 12.4326 11.9123 12.3629 11.9123 12.3122C11.9123 12.2673 11.8942 12.211 11.8636 12.1642C11.8426 12.1202 11.6869 12.0113 11.6181 12.0113C11.535 12.0113 11.4978 12.0534 11.4453 11.9607C11.387 11.8614 11.2055 11.5987 11.1816 11.5653C11.2189 11.5653 11.2533 11.5595 11.2533 11.5595C11.2036 11.5118 11.0699 11.2443 11.0699 11.2443L11.0708 11.2434ZM8.80412 11.2434C8.80412 11.2434 8.67135 11.5108 8.62263 11.5586C8.62263 11.5586 8.65606 11.5643 8.69427 11.5643C8.67135 11.5977 8.48699 11.8595 8.43255 11.9598C8.37715 12.0515 8.33989 12.0104 8.25679 12.0104C8.18802 12.0104 8.03423 12.1193 8.00844 12.1632C7.98169 12.21 7.96354 12.2664 7.96354 12.3113C7.96354 12.3629 8.01608 12.4316 8.01608 12.4316C8.02181 12.4078 8.03232 12.4001 8.03232 12.4001C8.03232 12.4001 8.17655 12.5768 8.19375 12.5988C8.21094 12.615 8.28545 12.6274 8.31028 12.6055C8.37524 12.5472 8.43637 12.5061 8.49082 12.4221C8.52138 12.3781 8.52329 12.3304 8.55768 12.2826C8.66944 12.1269 8.892 11.8308 8.94549 11.7611C8.94836 11.7811 8.95218 11.7964 8.95218 11.8165C9.0114 11.698 9.28936 11.4755 9.28936 11.4755L9.21295 11.4239C9.21295 11.4239 9.04579 11.6197 8.98943 11.657C8.98943 11.657 8.96651 11.5595 8.95218 11.5251C8.95218 11.5251 8.88913 11.5748 8.8557 11.5748C8.8557 11.5748 8.84424 11.508 8.83373 11.465C8.7917 11.4936 8.72006 11.4888 8.72006 11.4888C8.78311 11.4573 8.85952 11.2701 8.85952 11.2701L8.80508 11.2424L8.80412 11.2434ZM12.1989 8.45513L12.3345 8.58217L12.4711 8.45608V12.3925C12.3833 12.339 12.1999 12.105 12.1999 12.0047V8.45417L12.1989 8.45513ZM7.67794 8.45513V12.0056C7.67794 12.1059 7.49454 12.3399 7.40475 12.3934V8.45704L7.54039 8.58313L7.67698 8.45608L7.67794 8.45513ZM12.1206 8.45513V12.1231C12.1206 12.1231 11.8913 11.891 11.8302 11.8299C11.8388 11.7296 11.8483 11.5748 11.8483 11.5748V8.45608L11.9849 8.58313L12.1206 8.45513ZM7.75531 8.45513L7.89095 8.58313L8.03041 8.45608V11.5748C8.03041 11.5748 8.03996 11.7296 8.04378 11.8299C7.9836 11.891 7.75531 12.1231 7.75531 12.1231V8.45513ZM12.3097 8.03866V8.41405L12.2362 8.34624L12.1808 8.2937V8.15902L12.2362 8.10744L12.3097 8.03866ZM12.0088 8.03866L12.0833 8.10744L12.1378 8.15997V8.29274L12.0833 8.34624L12.0088 8.41405V8.03866ZM11.9601 8.03866V8.41405L11.8885 8.34719L11.8302 8.29274V8.15997L11.9611 8.03866H11.9601ZM11.6554 8.03866C11.6955 8.09024 11.7395 8.14087 11.7853 8.16857V8.2937L11.7299 8.34624L11.6564 8.41597V8.03771L11.6554 8.03866ZM8.21858 8.03866V8.41692L8.14503 8.34719L8.08963 8.29465V8.16857C8.13453 8.14087 8.17942 8.0912 8.21858 8.03866ZM7.91387 8.03866L8.04283 8.15997V8.29274L7.98838 8.34719L7.91387 8.41405V8.03866ZM7.86516 8.03866V8.41405L7.79352 8.34624L7.73716 8.29274V8.15997L7.79352 8.10744L7.86516 8.03866ZM7.56332 8.03866L7.63782 8.10744L7.69418 8.15902V8.2937L7.63782 8.34624L7.56332 8.41405V8.03866ZM12.3575 8.03675L12.4683 8.14278V8.30994L12.3575 8.41501V8.0358V8.03675ZM7.51747 8.03675V8.41597L7.4038 8.31089V8.14373L7.51747 8.03771V8.03675ZM11.8283 7.6327L11.9592 7.75879V7.89252L11.8283 8.01287V7.63366V7.6327ZM8.04187 7.6327V8.01192L7.91292 7.89156V7.75783L8.04187 7.63175V7.6327ZM11.7834 7.61169V8.02242C11.6974 7.97657 11.6191 7.87437 11.5895 7.83138C11.6755 7.79031 11.7652 7.64416 11.7834 7.61169ZM8.08772 7.61169C8.10587 7.64321 8.19852 7.79031 8.28163 7.83138C8.25201 7.87437 8.17369 7.97753 8.08772 8.02338V7.61169ZM12.1779 7.58207L12.3078 7.71676V7.89347L12.1779 8.01383V7.58303V7.58207ZM7.69227 7.58207V8.01287L7.56236 7.89252V7.7158L7.69227 7.58112V7.58207ZM12.1349 7.54769V8.01383L12.006 7.89347V7.74255L12.1349 7.54769ZM7.73716 7.54769L7.8642 7.74255V7.89347L7.73716 8.01383V7.54769ZM12.4282 7.51521C12.4539 7.56011 12.4683 7.60213 12.4683 7.63652V7.99568L12.3575 7.89156V7.64894L12.4282 7.51521ZM7.44296 7.51521L7.51651 7.64894V7.89156L7.40284 7.99568V7.63652C7.40284 7.60213 7.41908 7.56011 7.44296 7.51521ZM11.9687 7.03188C11.9687 7.03188 11.6439 7.32704 11.536 7.36524L11.5303 7.46554V7.75974C11.6095 7.733 11.7118 7.60213 11.7586 7.53336V7.49229C11.7586 7.45599 11.7375 7.42829 11.7194 7.413L11.7662 7.39581C11.7863 7.41683 11.8063 7.44644 11.8063 7.4856V7.50948L11.8206 7.52476L11.8273 7.53336L11.9477 7.66136L12.0852 7.45026V7.39868C12.0852 7.36333 12.0585 7.32513 12.0375 7.29934L12.0852 7.2831C12.1063 7.31271 12.1311 7.35378 12.1311 7.39295V7.43402C12.1655 7.46936 12.2925 7.59927 12.2925 7.59927C12.2925 7.59927 12.3575 7.46267 12.3756 7.42542C12.2734 7.28978 12.1187 7.13791 11.9697 7.03092L11.9687 7.03188ZM7.90146 7.03188C7.75244 7.14077 7.59675 7.28978 7.49836 7.42638C7.51651 7.46268 7.58146 7.60022 7.58146 7.60022C7.58146 7.60022 7.70564 7.47032 7.74003 7.43497V7.3939C7.74003 7.35569 7.76391 7.31366 7.78779 7.28405L7.83555 7.30029C7.81167 7.32704 7.78492 7.36429 7.78492 7.39963V7.45121L7.92343 7.66231L8.04187 7.53431L8.05047 7.52572L8.06575 7.51043V7.48655C8.06575 7.44739 8.08486 7.41683 8.103 7.39677L8.15172 7.41396C8.13548 7.42924 8.1116 7.45599 8.1116 7.49324V7.53431C8.15841 7.60309 8.25966 7.733 8.33703 7.7607V7.4665L8.33512 7.3662C8.22622 7.32895 7.90146 7.03283 7.90146 7.03283V7.03188ZM9.72685 6.41195C9.74499 6.41195 9.76123 6.41195 9.77174 6.41195C9.95514 6.41195 10.0793 6.4941 10.2493 6.57052C10.2933 6.59058 10.3334 6.60586 10.3735 6.61828C10.3506 6.63834 10.3305 6.65935 10.3258 6.67559C10.3258 6.67559 10.4022 6.69087 10.4375 6.75487C10.4375 6.75487 10.3649 6.76347 10.3515 6.8055C10.3945 6.80932 10.4346 6.85994 10.4346 6.90961L10.3296 6.87618C10.3296 6.87618 10.3535 6.99367 10.3535 7.11785C10.3535 7.1828 10.2608 7.25731 10.2608 7.3662C10.2608 7.70721 10.3496 7.83807 10.4069 7.94505C10.4337 7.98517 10.4518 8.03389 10.492 8.06923C10.3172 7.97562 10.1863 7.85813 10.1863 7.74924V7.33754H10.1385V7.74924C10.1385 7.82756 10.1605 7.86386 10.1605 7.86386C10.1863 7.95174 10.2417 8.08642 10.2761 8.14087C10.1147 8.05299 10.0316 7.9441 10.0316 7.90398V7.33659H9.98666V7.91162L9.9943 7.94983C9.97711 7.97848 9.95036 8.01287 9.93126 8.02624C9.91598 8.01287 9.89114 7.97848 9.87013 7.94983L9.88159 7.91162V7.33659H9.83287V7.90302C9.83287 7.94314 9.75455 8.05203 9.58834 8.13991C9.62464 8.08547 9.68004 7.95078 9.70774 7.8629C9.70774 7.8629 9.72685 7.82661 9.72685 7.74828V7.33659H9.68195V7.74828C9.68195 7.85622 9.54918 7.97466 9.37629 8.06827C9.41354 8.03293 9.43455 7.98517 9.45939 7.9441C9.52434 7.82756 9.6084 7.68142 9.6084 7.26399C9.6084 7.1083 9.58452 7.00227 9.5444 6.92585C9.53103 6.90102 9.51479 6.83606 9.6084 6.83606C9.65807 6.83606 9.76983 6.92203 9.76983 6.92203C9.76983 6.92203 9.76505 6.85421 9.7087 6.81409C9.69914 6.80741 9.68291 6.78926 9.68291 6.76824C9.68291 6.75392 9.7087 6.71857 9.7278 6.71093C9.74022 6.70425 9.53485 6.6689 9.53485 6.57625C9.53485 6.55523 9.54822 6.54377 9.5893 6.54377C9.64756 6.54377 9.73735 6.61064 9.81854 6.61064C9.87681 6.61064 9.90165 6.59631 9.96087 6.59631C10.0354 6.59631 10.193 6.73863 10.2427 6.7329C10.1844 6.69565 10.0898 6.55428 9.94463 6.55428C9.89305 6.55428 9.84911 6.5667 9.79944 6.5667C9.74117 6.5667 9.681 6.51129 9.61413 6.51129C9.5721 6.51129 9.52434 6.51416 9.51575 6.5027C9.50237 6.48264 9.51575 6.46927 9.52625 6.45494C9.54822 6.42342 9.60936 6.41577 9.6724 6.41291C9.69055 6.41291 9.7087 6.41291 9.72493 6.41291L9.72685 6.41195ZM9.72398 6.36133C9.66858 6.36133 9.58739 6.36228 9.53676 6.39381C9.49091 6.42437 9.49664 6.46258 9.48136 6.47595C9.44411 6.50747 9.37915 6.50652 9.3505 6.50652C9.15372 6.50652 9.14608 6.71571 9.14608 6.71571C9.14608 6.71571 9.19862 6.64025 9.28554 6.64025C9.43169 6.64025 9.54345 6.72048 9.54345 6.75105C9.54345 6.76251 9.52721 6.76442 9.52721 6.76442C9.43169 6.76442 9.28554 6.70998 9.20913 6.70807V6.73768C9.20913 6.73768 9.21199 6.73959 9.21199 6.74054C9.21199 6.74054 9.21199 6.74054 9.20913 6.74054V6.74532C9.38202 6.80645 9.55682 6.89051 9.55682 7.26304C9.55682 7.49706 9.52721 7.73682 9.41067 7.92595C9.3696 7.99281 9.30847 8.04821 9.23874 8.09979C9.20722 8.09024 9.0582 8.04439 8.95409 7.98517C8.76878 7.88296 8.6723 7.78076 8.45547 7.77121V7.60309C8.45547 7.51521 8.48413 7.43593 8.48413 7.34996C8.3953 7.32513 8.13835 7.01278 7.9005 6.87332C7.55281 7.09779 7.28535 7.46745 7.28535 7.63748C7.28535 7.63748 7.29586 11.2892 7.28535 12.5596C7.28535 12.6341 7.2395 12.7373 7.2395 12.7373C7.36654 12.6828 7.59866 12.3648 7.64833 12.2454V12.3027C7.84032 12.2158 7.98265 11.9856 8.04283 11.8671C8.04283 11.8843 8.04569 11.9273 8.04569 11.9273C8.21858 11.7773 8.43541 10.8909 8.43541 10.8909L8.42586 10.7037C8.42586 10.7037 8.27398 11.4277 8.10109 11.5767V8.45895L8.23769 8.58504L8.44497 8.39304V8.24594L8.26252 8.41597V7.97657C8.29118 7.93454 8.30933 7.90302 8.32079 7.87914C8.35231 7.92977 8.44688 8.08738 8.55768 8.18481C8.57869 8.10935 8.7 8.03771 8.7 8.03771C8.7 8.03771 8.74203 8.15615 8.80794 8.18576C8.83182 8.14564 8.96937 8.05203 8.96937 8.05203C8.96937 8.05203 8.85284 8.07209 8.80508 8.11603C8.764 8.10744 8.75254 7.94314 8.75254 7.94314C8.75254 7.94314 8.57869 8.02815 8.54526 8.08929C8.51087 8.08069 8.46025 7.94983 8.43923 7.89443C8.47076 7.89156 8.51374 7.88678 8.56914 7.88678C8.61881 7.88678 8.68568 7.91162 8.75254 7.94314C8.82609 7.97753 8.90442 8.02147 8.96937 8.05203C9.05916 8.09215 9.1948 8.1017 9.23205 8.10266C9.18716 8.13227 9.1394 8.16284 9.08591 8.18958C9.08591 8.18958 9.29509 8.18767 9.44315 8.11317C9.4976 8.08069 9.55013 8.0463 9.59789 8.00523C9.57974 8.06254 9.54822 8.12941 9.4976 8.18576C9.71538 8.16761 9.82428 8.04248 9.85293 8.00045C9.87013 8.03962 9.8921 8.09788 9.93221 8.15137C9.97615 8.09884 10.001 8.04057 10.0153 8.00045C10.0468 8.04248 10.1529 8.16761 10.3735 8.18576C10.3229 8.12845 10.2904 8.0635 10.2704 8.00523C10.3181 8.04535 10.3735 8.07974 10.4232 8.11317C10.5722 8.18767 10.7814 8.18958 10.7814 8.18958C10.7289 8.16284 10.682 8.13227 10.6362 8.10266C10.6734 8.1017 10.8072 8.09215 10.897 8.05203C10.9648 8.02147 11.045 7.97753 11.1195 7.94314C11.1854 7.91162 11.2494 7.88678 11.3001 7.88678C11.3555 7.88678 11.4004 7.89156 11.43 7.89443C11.4118 7.94983 11.3583 8.08069 11.3249 8.08929C11.2953 8.02815 11.1195 7.94314 11.1195 7.94314C11.1195 7.94314 11.1052 8.10744 11.0651 8.11603C11.0183 8.07209 10.897 8.05203 10.897 8.05203C10.897 8.05203 11.0364 8.14469 11.0603 8.18576C11.1262 8.15615 11.1692 8.03771 11.1692 8.03771C11.1692 8.03771 11.2905 8.10935 11.3096 8.18481C11.4233 8.08738 11.5169 7.92977 11.5484 7.87914C11.5627 7.90398 11.5818 7.93645 11.6067 7.97657V8.41597L11.4242 8.24594V8.39304L11.6315 8.58504L11.7662 8.45895V11.5767C11.5981 11.4277 11.4462 10.7037 11.4462 10.7037L11.4328 10.8899C11.4328 10.8899 11.6497 11.7764 11.8226 11.9263C11.8226 11.9263 11.8254 11.8833 11.8273 11.8662C11.8894 11.9846 12.0289 12.2148 12.2199 12.3017V12.2444C12.2696 12.3638 12.5017 12.6819 12.6287 12.7363C12.6287 12.7363 12.5829 12.6332 12.5829 12.5587C12.5733 11.2883 12.5829 7.63652 12.5829 7.63652C12.5829 7.4665 12.3164 7.09683 11.9687 6.87236C11.7318 7.01182 11.4749 7.32513 11.3832 7.34901C11.3832 7.43402 11.4166 7.51426 11.4166 7.60213V7.76929C11.1988 7.7798 11.1033 7.88201 10.918 7.98421C10.81 8.04344 10.662 8.0912 10.6305 8.09884C10.5626 8.04917 10.5006 7.99186 10.4604 7.92499C10.3601 7.76356 10.3172 7.56679 10.3172 7.3662C10.3172 7.28023 10.4127 7.18758 10.4127 7.11785C10.4127 7.01373 10.4022 6.95355 10.4022 6.95355C10.4385 6.95737 10.4967 7.01851 10.4967 7.01851C10.4967 7.01851 10.4939 6.84657 10.4394 6.816C10.4394 6.816 10.4604 6.79212 10.5407 6.79117C10.5168 6.73481 10.4089 6.66604 10.4089 6.66604C10.4136 6.65553 10.4241 6.64598 10.4385 6.63929C10.4643 6.62496 10.5034 6.6135 10.534 6.60873C10.5015 6.60204 10.4643 6.59153 10.4241 6.57911C10.3315 6.5495 10.2255 6.50556 10.1252 6.45685C9.94272 6.36706 9.8004 6.36228 9.72398 6.36228V6.36133Z" fill="#242222"/>
<path fill-rule="evenodd" clip-rule="evenodd" d="M8.44956 12.4565L8.7046 12.5941L8.64251 12.8778L8.38843 12.7393L8.44956 12.4565Z" fill="#242222"/>
<path fill-rule="evenodd" clip-rule="evenodd" d="M8.48696 12.4158L8.41246 12.4941L8.45735 12.5982L8.55001 12.5553L8.48696 12.4168V12.4158ZM7.26622 9.74219L7.17261 9.78422L8.20709 12.0519H8.31885L7.26622 9.74219Z" fill="#242222"/>
<path fill-rule="evenodd" clip-rule="evenodd" d="M8.4869 12.5361L8.64259 12.6221L8.60534 12.7988L8.44678 12.7119L8.4869 12.5361Z" fill="#F5EC23"/>
<path fill-rule="evenodd" clip-rule="evenodd" d="M7.58813 11.5283C7.58813 11.5283 7.67506 11.7098 7.74097 11.7337C7.70658 11.7251 7.59578 11.7643 7.59578 11.7643C7.59578 11.7643 7.79159 11.9419 7.95875 11.9524C8.09821 11.962 8.16603 11.8913 8.16603 11.8913L8.14024 11.7423C8.14024 11.7423 8.05141 11.6382 7.91481 11.5895C7.77344 11.5417 7.58909 11.5283 7.58909 11.5283H7.58813Z" fill="#242222"/>
<path fill-rule="evenodd" clip-rule="evenodd" d="M8.24345 11.207C8.24345 11.207 8.1231 11.3092 8.09157 11.4286C8.05719 11.548 8.11259 11.6856 8.11259 11.6856L8.2148 11.8747C8.2148 11.8747 8.35425 11.7983 8.41252 11.6885C8.47461 11.5767 8.45169 11.4267 8.45169 11.4267C8.45169 11.4267 8.33897 11.4678 8.3256 11.4859C8.34852 11.3627 8.2425 11.2089 8.24345 11.2089V11.207Z" fill="#242222"/>
<path fill-rule="evenodd" clip-rule="evenodd" d="M7.85459 11.1587C7.85459 11.1587 7.71896 11.2055 7.58809 11.1969C7.45914 11.1883 7.35693 11.0823 7.35693 11.0823C7.35693 11.0823 7.45914 11.0106 7.51454 11.0211C7.45627 11.0001 7.37222 10.8569 7.37222 10.8569C7.37222 10.8569 7.48875 10.8206 7.59287 10.8607C7.69985 10.8998 7.78868 11.0126 7.78868 11.0126L7.85555 11.1577L7.85459 11.1587Z" fill="#242222"/>
<path fill-rule="evenodd" clip-rule="evenodd" d="M7.90233 10.4897C7.90233 10.4897 7.97206 10.6311 7.95677 10.6808C7.9797 10.6473 8.05707 10.5977 8.05707 10.5977C8.05707 10.5977 8.10674 10.8269 8.0628 10.9664C8.01409 11.1087 7.87081 11.1622 7.87081 11.1622L7.71606 10.8594C7.71606 10.8594 7.69314 10.7467 7.73994 10.6578C7.79057 10.5681 7.90137 10.4888 7.90137 10.4888L7.90233 10.4897Z" fill="#242222"/>
<path fill-rule="evenodd" clip-rule="evenodd" d="M7.01298 10.1147C7.01298 10.1147 7.16199 10.0994 7.29476 10.1548C7.40843 10.2036 7.44377 10.2886 7.44377 10.2886L7.49918 10.4366C7.49918 10.4366 7.34061 10.4978 7.21071 10.451C7.08653 10.4051 6.99292 10.2523 6.99292 10.2523C6.99292 10.2523 7.07984 10.2188 7.11423 10.2322C7.06361 10.2102 7.01202 10.1157 7.01202 10.1157L7.01298 10.1147Z" fill="#242222"/>
<path fill-rule="evenodd" clip-rule="evenodd" d="M7.4783 9.8374C7.4783 9.8374 7.54229 9.92146 7.54803 10.017C7.56331 9.96444 7.64164 9.90904 7.64164 9.90904C7.64164 9.90904 7.7276 10.1115 7.7085 10.2548C7.69035 10.3981 7.57 10.4831 7.57 10.4831L7.41907 10.1985C7.41907 10.1985 7.37131 10.081 7.38469 9.99119C7.40188 9.90045 7.47734 9.8374 7.47734 9.8374H7.4783Z" fill="#242222"/>
<path fill-rule="evenodd" clip-rule="evenodd" d="M6.96625 9.29395C6.96625 9.29395 6.93855 9.44773 6.9844 9.53752C7.02738 9.6168 7.05031 9.63591 7.05031 9.63591C6.97485 9.58433 6.85449 9.57859 6.85449 9.57859C6.85449 9.57859 6.89748 9.74767 6.99968 9.82408C7.09902 9.9005 7.25377 9.88426 7.25377 9.88426C7.25377 9.88426 7.35406 9.74862 7.34833 9.60247C7.34164 9.45633 7.22415 9.30159 7.22415 9.30159C7.22415 9.30159 7.18022 9.39615 7.17735 9.46684C7.14583 9.39329 6.96721 9.29395 6.96721 9.29395H6.96625Z" fill="#242222"/>
<path fill-rule="evenodd" clip-rule="evenodd" d="M7.01202 9.3877C7.01202 9.3877 7.00916 9.50136 7.04354 9.56441C7.08366 9.62841 7.16485 9.65611 7.16485 9.65611C7.16485 9.65611 7.17058 9.54148 7.13047 9.47748C7.09608 9.41253 7.01202 9.3877 7.01202 9.3877Z" fill="#2A6640"/>
<path fill-rule="evenodd" clip-rule="evenodd" d="M6.93481 9.64355C6.93481 9.64355 7.03224 9.64929 7.08765 9.69323C7.14496 9.73812 7.16693 9.82886 7.16693 9.82886C7.16693 9.82886 7.10102 9.83364 7.04275 9.79066C6.98735 9.74767 6.93481 9.64451 6.93481 9.64451V9.64355Z" fill="#2A6640"/>
<path fill-rule="evenodd" clip-rule="evenodd" d="M7.24222 9.41455C7.24222 9.41455 7.20784 9.49097 7.21261 9.5712C7.21548 9.6524 7.26324 9.74123 7.26324 9.74123C7.26324 9.74123 7.30527 9.64571 7.30336 9.56452C7.29763 9.48333 7.25273 9.43748 7.24222 9.41455Z" fill="#2A6640"/>
<path fill-rule="evenodd" clip-rule="evenodd" d="M7.0752 10.1431C7.0752 10.1431 7.12296 10.2109 7.19937 10.2462C7.27388 10.2835 7.38277 10.2844 7.38277 10.2844C7.38277 10.2844 7.32832 10.2118 7.25382 10.1755C7.18027 10.1402 7.0752 10.1421 7.0752 10.1421V10.1431Z" fill="#2A6640"/>
<path fill-rule="evenodd" clip-rule="evenodd" d="M7.09912 10.2998C7.09912 10.2998 7.13637 10.3686 7.19942 10.4001C7.26724 10.4288 7.39619 10.4259 7.39619 10.4259C7.39619 10.4259 7.34747 10.3619 7.28252 10.3313C7.21948 10.3017 7.10008 10.2998 7.10008 10.2998H7.09912Z" fill="#2A6640"/>
<path fill-rule="evenodd" clip-rule="evenodd" d="M7.47351 9.9292C7.47351 9.9292 7.43626 9.99415 7.43912 10.0648C7.44103 10.1365 7.48879 10.2148 7.48879 10.2148C7.48879 10.2148 7.52031 10.125 7.51745 10.0524C7.51554 9.98269 7.47351 9.9292 7.47351 9.9292Z" fill="#2A6640"/>
<path fill-rule="evenodd" clip-rule="evenodd" d="M7.61676 10.021C7.61676 10.021 7.55085 10.1117 7.54034 10.2034C7.53175 10.2961 7.5795 10.3916 7.5795 10.3916C7.5795 10.3916 7.65974 10.3095 7.67025 10.2178C7.6798 10.1251 7.61676 10.022 7.61676 10.021Z" fill="#2A6640"/>
<path fill-rule="evenodd" clip-rule="evenodd" d="M7.43333 10.8747C7.43333 10.8747 7.44097 10.9081 7.46772 10.9425C7.49637 10.9788 7.54509 11.0151 7.54509 11.0151C7.54509 11.0151 7.59189 11.0008 7.64729 11.0123C7.70556 11.0247 7.78293 11.0763 7.78293 11.0763C7.78293 11.0763 7.69887 10.953 7.61291 10.9053C7.52885 10.8575 7.43237 10.8738 7.43237 10.8738L7.43333 10.8747Z" fill="#2A6640"/>
<path fill-rule="evenodd" clip-rule="evenodd" d="M7.42576 11.0867C7.42576 11.0867 7.53083 11.0409 7.61967 11.0514C7.70659 11.0628 7.78683 11.1316 7.78683 11.1316C7.78683 11.1316 7.67029 11.1746 7.57859 11.1612C7.49167 11.1498 7.4248 11.0867 7.4248 11.0867H7.42576Z" fill="#2A6640"/>
<path fill-rule="evenodd" clip-rule="evenodd" d="M7.87457 10.5913C7.87457 10.5913 7.78096 10.6906 7.77236 10.7776C7.76568 10.8655 7.84687 10.9457 7.84687 10.9457C7.84687 10.9457 7.84496 10.8903 7.86024 10.853C7.87362 10.8158 7.90514 10.7776 7.90514 10.7776C7.90514 10.7776 7.91946 10.7327 7.91373 10.6973C7.90514 10.6458 7.87362 10.5923 7.87362 10.5913H7.87457Z" fill="#2A6640"/>
<path fill-rule="evenodd" clip-rule="evenodd" d="M8.00924 10.7056C8.00924 10.7056 7.9204 10.7954 7.89748 10.8918C7.8736 10.9864 7.91563 11.0905 7.91563 11.0905C7.91563 11.0905 7.99777 11.0275 8.01879 10.9319C8.04267 10.8355 8.00828 10.7056 8.00828 10.7056H8.00924Z" fill="#2A6640"/>
<path fill-rule="evenodd" clip-rule="evenodd" d="M8.23389 11.2876C8.23389 11.2876 8.27401 11.3717 8.28452 11.4433C8.29216 11.5121 8.28452 11.5379 8.28452 11.5379C8.28452 11.5379 8.24249 11.578 8.22338 11.6028C8.1995 11.6324 8.19664 11.6897 8.19664 11.6897C8.19664 11.6897 8.11258 11.5656 8.12595 11.4739C8.14028 11.3831 8.23485 11.2876 8.23485 11.2876H8.23389Z" fill="#2A6640"/>
<path fill-rule="evenodd" clip-rule="evenodd" d="M8.40668 11.4814C8.40668 11.4814 8.30447 11.5512 8.25767 11.6237C8.2185 11.6963 8.23952 11.7699 8.23952 11.7699C8.23952 11.7699 8.31593 11.7632 8.35987 11.6916C8.4019 11.618 8.40668 11.4805 8.40668 11.4805V11.4814Z" fill="#2A6640"/>
<path fill-rule="evenodd" clip-rule="evenodd" d="M7.70654 11.7795C7.70654 11.7795 7.86129 11.7757 7.95394 11.7996C8.0485 11.8225 8.08289 11.8731 8.08289 11.8731C8.08289 11.8731 7.97686 11.9228 7.88326 11.8989C7.78869 11.877 7.70654 11.7805 7.70654 11.7805V11.7795Z" fill="#2A6640"/>
<path fill-rule="evenodd" clip-rule="evenodd" d="M7.67969 11.5969C7.67969 11.5969 7.74942 11.7049 7.84016 11.7431C7.96434 11.7975 8.10762 11.7698 8.10762 11.7698C8.10762 11.7698 8.02929 11.6762 7.92231 11.6342C7.81724 11.5912 7.68064 11.5969 7.68064 11.5969H7.67969Z" fill="#2A6640"/>
<path fill-rule="evenodd" clip-rule="evenodd" d="M8.17749 11.8843V11.9416C8.27206 11.9416 8.28543 11.9321 8.30931 11.9617C8.3265 11.9798 8.36375 11.998 8.40292 11.9798C8.43922 11.9626 8.45545 11.9177 8.43826 11.8814C8.42107 11.8442 8.38668 11.8346 8.35229 11.8423C8.33128 11.8461 8.3179 11.8623 8.29976 11.8709C8.26823 11.8881 8.17845 11.8853 8.17845 11.8843H8.17749Z" fill="#242222"/>
<path fill-rule="evenodd" clip-rule="evenodd" d="M8.40384 11.8939H8.40671C8.41435 11.9149 8.4067 11.9397 8.38569 11.9493C8.36468 11.9598 8.3408 11.9493 8.33029 11.9292C8.32265 11.9092 8.33029 11.8834 8.3513 11.8748C8.37232 11.8643 8.39715 11.8748 8.40384 11.8939Z" fill="#F5EC23"/>
<path fill-rule="evenodd" clip-rule="evenodd" d="M8.16495 11.8433L8.2108 11.8767C8.16208 11.956 8.14967 11.9627 8.16208 11.998C8.16781 12.0209 8.16208 12.062 8.1277 12.084C8.09426 12.1069 8.04746 12.0973 8.02549 12.062C8.00161 12.0276 8.01116 11.9942 8.036 11.9693C8.05128 11.9531 8.07229 11.9512 8.08853 11.9426C8.12005 11.9216 8.16495 11.8442 8.1659 11.8442L8.16495 11.8433Z" fill="#242222"/>
<path fill-rule="evenodd" clip-rule="evenodd" d="M8.05132 12.0448C8.06564 12.0639 8.09143 12.0677 8.10958 12.0562C8.12773 12.0438 8.13346 12.0171 8.12009 11.9989C8.10958 11.9798 8.08284 11.9731 8.06564 11.9865C8.04559 11.9999 8.04081 12.0257 8.05132 12.0448Z" fill="#F5EC23"/>
<path fill-rule="evenodd" clip-rule="evenodd" d="M7.85449 11.1843L7.85736 11.2397C7.95001 11.2397 7.96339 11.2301 7.98727 11.2597C8.0035 11.2788 8.0398 11.296 8.07705 11.2788C8.11717 11.2616 8.13246 11.2158 8.11431 11.1795C8.09807 11.1403 8.06464 11.1327 8.03025 11.1394C8.00828 11.1422 7.99395 11.1594 7.97867 11.168C7.94428 11.1862 7.85449 11.1843 7.85449 11.1843Z" fill="#242222"/>
<path fill-rule="evenodd" clip-rule="evenodd" d="M8.08278 11.1927C8.09424 11.2137 8.08278 11.2376 8.06559 11.2462C8.04362 11.2567 8.01974 11.2462 8.00923 11.2261C8.00159 11.2061 8.00923 11.1812 8.0312 11.1717C8.05126 11.1621 8.07514 11.1717 8.08278 11.1918V11.1927Z" fill="#F5EC23"/>
<path fill-rule="evenodd" clip-rule="evenodd" d="M7.87468 11.2036L7.91479 11.2428C7.85366 11.3125 7.83742 11.3173 7.84602 11.3545C7.84793 11.3784 7.83742 11.4195 7.7973 11.4357C7.76101 11.4529 7.7142 11.4357 7.70083 11.3985C7.68077 11.3622 7.69796 11.3287 7.72662 11.3087C7.7419 11.2944 7.76292 11.2944 7.78202 11.2877C7.81927 11.2733 7.87468 11.2036 7.87563 11.2036H7.87468Z" fill="#242222"/>
<path fill-rule="evenodd" clip-rule="evenodd" d="M7.7314 11.384C7.73809 11.405 7.76197 11.4127 7.78394 11.405C7.80495 11.3945 7.81259 11.3697 7.80495 11.3506C7.79349 11.3296 7.77056 11.3219 7.74955 11.3296C7.7314 11.3391 7.71994 11.363 7.7314 11.383V11.384Z" fill="#F5EC23"/>
<path fill-rule="evenodd" clip-rule="evenodd" d="M7.54517 10.5252L7.54803 10.5825C7.64069 10.5825 7.65406 10.5739 7.67603 10.6026C7.69418 10.6226 7.73143 10.6398 7.76773 10.6236C7.8088 10.6045 7.82313 10.5615 7.80785 10.5223C7.78874 10.4851 7.7534 10.4774 7.71901 10.4832C7.69895 10.487 7.68463 10.5042 7.66934 10.5128C7.63496 10.53 7.54517 10.5261 7.54517 10.5261V10.5252Z" fill="#242222"/>
<path fill-rule="evenodd" clip-rule="evenodd" d="M7.77245 10.5366C7.78391 10.5576 7.77531 10.5796 7.7543 10.591C7.73424 10.5996 7.7094 10.591 7.69985 10.57C7.69126 10.5509 7.69985 10.5251 7.71991 10.5146C7.74093 10.507 7.76481 10.5146 7.77245 10.5356V10.5366Z" fill="#F5EC23"/>
<path fill-rule="evenodd" clip-rule="evenodd" d="M7.56805 10.5146L7.60817 10.5547C7.5499 10.6245 7.53367 10.6283 7.5394 10.6655C7.54513 10.6894 7.5308 10.7286 7.49259 10.7458C7.4563 10.762 7.4114 10.7458 7.39325 10.7076C7.37415 10.6703 7.39325 10.6388 7.41904 10.6178C7.4391 10.6044 7.4582 10.6054 7.47635 10.5977C7.51361 10.5834 7.56805 10.5137 7.56805 10.5137V10.5146Z" fill="#242222"/>
<path fill-rule="evenodd" clip-rule="evenodd" d="M7.42575 10.6954C7.43625 10.7165 7.45918 10.7251 7.48115 10.7155C7.50216 10.7079 7.51172 10.6821 7.4993 10.662C7.49166 10.641 7.46778 10.6324 7.44676 10.641C7.42575 10.6505 7.41811 10.6754 7.42575 10.6964V10.6954Z" fill="#F5EC23"/>
<path fill-rule="evenodd" clip-rule="evenodd" d="M7.21265 9.83272L7.21838 9.88812C7.31008 9.88812 7.3244 9.87857 7.34733 9.90913C7.36261 9.92824 7.39891 9.94543 7.43903 9.92824C7.47628 9.91009 7.49156 9.86711 7.47628 9.8289C7.45622 9.78973 7.42183 9.78209 7.38745 9.78878C7.36739 9.79356 7.35593 9.80884 7.33682 9.81935C7.30339 9.83654 7.21265 9.83367 7.21265 9.83367V9.83272Z" fill="#242222"/>
<path fill-rule="evenodd" clip-rule="evenodd" d="M7.44373 9.84116C7.45519 9.86313 7.44373 9.88796 7.42272 9.89656C7.40361 9.90611 7.38069 9.89656 7.36923 9.8765C7.35967 9.85644 7.36923 9.83256 7.38833 9.82301C7.40934 9.8125 7.43705 9.82301 7.44373 9.84211V9.84116Z" fill="#F5EC23"/>
<path fill-rule="evenodd" clip-rule="evenodd" d="M7.23951 9.82227L7.27867 9.86143C7.2185 9.9302 7.19844 9.93402 7.20799 9.97319C7.21277 9.99802 7.19939 10.0362 7.16501 10.0534C7.12489 10.0725 7.08095 10.0534 7.06471 10.0171C7.04656 9.97892 7.06184 9.94644 7.09145 9.92543C7.10865 9.91301 7.12871 9.91396 7.14686 9.90632C7.18315 9.89295 7.23951 9.82227 7.24047 9.82227H7.23951Z" fill="#242222"/>
<path fill-rule="evenodd" clip-rule="evenodd" d="M7.09628 10.0008C7.10487 10.0209 7.1278 10.0314 7.14977 10.0209C7.17078 10.0123 7.17938 9.98841 7.17078 9.96644C7.16027 9.94638 7.13639 9.93682 7.11538 9.94829C7.09628 9.95593 7.08672 9.97981 7.09628 9.99987V10.0008Z" fill="#F5EC23"/>
<path fill-rule="evenodd" clip-rule="evenodd" d="M7.7962 11.018C7.76181 11.0314 7.7131 10.8881 7.67584 10.8098C7.6405 10.7276 7.566 10.6025 7.58797 10.5939C7.61089 10.5834 7.6405 10.6483 7.67871 10.7314C7.71596 10.8136 7.82772 11.0046 7.7962 11.017V11.018Z" fill="#F5EC23"/>
<path fill-rule="evenodd" clip-rule="evenodd" d="M7.45533 10.2617C7.4219 10.2751 7.38465 10.1805 7.35026 10.1022C7.31301 10.021 7.27862 9.96275 7.30059 9.95416C7.32447 9.94365 7.35886 10.0153 7.38751 10.0812C7.41808 10.1452 7.48685 10.2484 7.45533 10.2617Z" fill="#F5EC23"/>
<path fill-rule="evenodd" clip-rule="evenodd" d="M8.24345 11.98C8.2167 11.9867 8.10303 11.7498 8.01133 11.5473C7.92154 11.3476 7.8499 11.1862 7.87378 11.1757C7.8948 11.1652 7.9693 11.3543 8.06291 11.5549C8.15652 11.7565 8.26159 11.9723 8.24345 11.979V11.98Z" fill="#F5EC23"/>
<path fill-rule="evenodd" clip-rule="evenodd" d="M8.44116 9.70752L8.44689 10.9292L8.53764 11.0744L9.10407 11.3887L9.8348 11.723L9.9265 11.8214L10.555 11.4785L11.2934 11.1279L11.4338 10.9149V9.71325L8.44116 9.70752Z" fill="#2E569F"/>
<path fill-rule="evenodd" clip-rule="evenodd" d="M8.40667 8.23682L8.44393 8.34857L8.43629 9.75081L8.48787 9.80908L8.91771 9.86066L9.3848 9.79379C9.3848 9.79379 9.65799 9.83487 9.8433 9.86352C9.8433 9.86543 9.84903 9.89122 9.84903 9.89122C9.84903 9.89122 9.9178 9.88072 9.93882 9.87881C9.95983 9.88072 10.0257 9.89122 10.0257 9.89122C10.0257 9.89122 10.0315 9.86448 10.0315 9.86352C10.2206 9.83391 10.49 9.79379 10.49 9.79379L10.958 9.86066L11.3888 9.80908L11.4394 9.75081L11.4318 8.34857L11.469 8.23682L10.9542 8.24159C10.9542 8.24159 10.362 8.24828 9.93786 8.2521C9.51375 8.24732 8.92153 8.24159 8.92153 8.24159L8.40381 8.23682H8.40667Z" fill="#C62832"/>
<path fill-rule="evenodd" clip-rule="evenodd" d="M8.55859 9.80126L8.79166 9.71052L8.95309 9.58252L9.06485 9.70288L9.29028 9.79553L9.10688 9.89965L8.94641 10.041L8.80313 9.93403L8.55859 9.80126Z" fill="#F5EC23"/>
<path fill-rule="evenodd" clip-rule="evenodd" d="M10.9247 9.58936L10.8187 9.70302L10.5923 9.79568L10.8053 9.9275L10.9409 10.0488L11.0899 9.9275L11.3287 9.8081L11.0813 9.71067L10.9247 9.58936Z" fill="#F5EC23"/>
<path fill-rule="evenodd" clip-rule="evenodd" d="M9.93779 8.43311L9.86901 8.6442L9.6646 8.54582L9.75725 8.75023L9.55762 8.8276L9.75725 8.89924L9.67224 9.1027L9.86042 9.00432L9.93779 9.21542L10.0152 9.00432L10.2081 9.08837L10.1202 8.89924L10.3199 8.8276L10.1298 8.74355L10.2138 8.53818L10.0152 8.63752L9.93779 8.43311Z" fill="#F5EC23"/>
<path fill-rule="evenodd" clip-rule="evenodd" d="M10.4803 8.39812L10.5443 8.6245L10.6437 8.91297L10.6571 9.18807L10.5443 9.38484L10.3409 9.47081L10.2291 9.5052L10.0944 9.43451L9.94638 9.52525L9.78304 9.42782L9.64932 9.51857L9.56526 9.46317L9.4172 9.44215L9.24909 9.26448L9.21183 8.94736L9.4172 8.38379L9.16312 8.5882L8.94629 8.88336V9.27213L9.10008 9.5329L9.38282 9.7163L9.45732 9.73731L9.32455 9.98471L9.55762 10.0535L9.67797 10.1738L9.74197 10.4145L9.72764 10.9294L9.656 11.0488L9.50317 11.1558L9.49457 11.2523L9.6646 11.3592L9.81075 11.4796L10.0304 11.4853L10.2224 11.3526L10.3839 11.2609L10.3409 11.1195L10.1709 10.9858L10.1365 10.576L10.1852 10.1672L10.4307 10.0124L10.5577 9.96942L10.4269 9.7163L10.6294 9.64656L10.8557 9.44693L10.9608 9.05243L10.8987 8.81363L10.7411 8.6159L10.4803 8.39812Z" fill="#F5EC23"/>
<path fill-rule="evenodd" clip-rule="evenodd" d="M9.51563 10.1641L9.61498 10.2624L9.52328 10.3551L9.42871 10.2596L9.51563 10.1641Z" fill="#F5EC23"/>
<path fill-rule="evenodd" clip-rule="evenodd" d="M10.3647 10.1538L10.2664 10.256L10.3552 10.3515L10.4603 10.2598L10.3647 10.1538Z" fill="#F5EC23"/>
<path fill-rule="evenodd" clip-rule="evenodd" d="M10.4366 10.4146L10.258 10.4566L10.214 10.5588L10.2102 10.8415L10.2857 10.9991L10.3841 11.0412L10.3697 10.6715L10.4366 10.4146Z" fill="#F5EC23"/>
<path fill-rule="evenodd" clip-rule="evenodd" d="M9.44409 10.4175L9.50713 10.7308V11.0345L9.59692 10.9715L9.65615 10.8339L9.66761 10.5951L9.62176 10.449L9.44409 10.4175Z" fill="#F5EC23"/>
<path fill-rule="evenodd" clip-rule="evenodd" d="M11.0622 10.6677L10.8588 10.5693L10.662 10.6114L10.5579 10.7308L10.5483 10.9256L10.6935 11.0957L10.7279 11.1062L10.7251 10.9218L10.8798 10.7098L11.0622 10.6677Z" fill="#F5EC23"/>
<path fill-rule="evenodd" clip-rule="evenodd" d="M9.11743 10.6007L9.09737 10.5166L8.98561 10.4517L8.89391 10.488L8.84997 10.5844L8.87481 10.6675L8.77833 10.658L8.70191 10.7306L8.69141 10.829L8.74394 10.893L8.81845 10.9188L8.85952 10.9149L8.82322 11.0019L8.85284 11.0907L8.94071 11.1404L9.04197 11.1155L9.0945 11.0171L9.17569 11.0725L9.28077 11.0515L9.34667 10.9493L9.30082 10.8548L9.2502 10.8146L9.32184 10.7774L9.35145 10.6618L9.25593 10.552L9.16328 10.5663L9.11743 10.6007Z" fill="#F5EC23"/>
<path fill-rule="evenodd" clip-rule="evenodd" d="M10.1393 11.171C10.1097 11.171 10.0801 11.1863 10.0801 11.2236C10.0801 11.2608 10.1097 11.2761 10.1393 11.2761C10.2434 11.2761 10.3065 11.256 10.3065 11.2236C10.3065 11.193 10.2434 11.171 10.1393 11.171ZM9.74195 11.171C9.63688 11.171 9.57097 11.1939 9.57097 11.2236C9.57097 11.2551 9.63688 11.2761 9.741 11.2761C9.76679 11.2761 9.79926 11.2608 9.79926 11.2236C9.79926 11.1863 9.76679 11.171 9.741 11.171H9.74195ZM8.89946 10.8978C8.92907 10.9418 8.9797 10.9714 9.04083 10.9714C9.04752 10.9714 9.06185 10.9685 9.07427 10.9666C9.07427 10.9781 9.07713 10.9886 9.07713 11C9.07427 11.0115 9.07426 11.023 9.06949 11.0354C9.04465 11.0936 8.9797 11.1223 8.91952 11.0994C8.85839 11.0755 8.8326 11.0077 8.85457 10.9504C8.85839 10.9379 8.86699 10.9274 8.87558 10.9198C8.88036 10.9112 8.888 10.9055 8.89851 10.8997L8.89946 10.8978ZM9.20513 10.8195C9.21564 10.8214 9.22519 10.8252 9.23665 10.8281C9.24811 10.8329 9.25766 10.8376 9.26817 10.8453C9.31689 10.8873 9.32071 10.959 9.2825 11.0058C9.24238 11.0564 9.16787 11.0621 9.11916 11.021C9.10961 11.0125 9.10292 11.0019 9.09624 10.9924C9.0905 10.9819 9.08764 10.9733 9.08477 10.9637C9.14877 10.9456 9.19558 10.8873 9.20417 10.8176L9.20513 10.8195ZM9.04179 10.6934C8.97779 10.6934 8.92716 10.744 8.92716 10.8052C8.92716 10.8663 8.97779 10.916 9.04179 10.916C9.10197 10.916 9.14973 10.8663 9.14973 10.8052C9.14973 10.7431 9.10197 10.6934 9.04179 10.6934ZM8.84406 10.6762C8.78102 10.6714 8.72562 10.7192 8.72275 10.7832C8.71702 10.8462 8.76574 10.9007 8.82878 10.9055C8.84024 10.9055 8.85266 10.9055 8.86221 10.9026C8.87367 10.8997 8.88418 10.894 8.89182 10.8883C8.8794 10.8644 8.87081 10.8357 8.86985 10.8052C8.86985 10.766 8.88323 10.7288 8.90424 10.7011C8.89851 10.6953 8.888 10.6896 8.88036 10.6848C8.86699 10.681 8.85648 10.6781 8.84311 10.6762H8.84406ZM10.8204 10.6065C10.8786 10.6065 10.9379 10.6246 10.9847 10.6552C10.8022 10.6905 10.6685 10.8529 10.6876 11.044C10.6284 10.9943 10.5873 10.9293 10.5787 10.8568C10.5663 10.7163 10.6656 10.6065 10.8204 10.6065ZM9.21564 10.5797C9.25002 10.5817 9.28441 10.6008 9.30542 10.6342C9.33981 10.6886 9.32357 10.7593 9.27104 10.7937C9.26148 10.8004 9.25002 10.8042 9.23665 10.808C9.22519 10.8099 9.21564 10.8099 9.20513 10.8099C9.20513 10.808 9.20513 10.8071 9.20513 10.8052C9.20513 10.7364 9.16501 10.6781 9.10674 10.6514C9.10961 10.6418 9.11534 10.6313 9.12298 10.6237C9.12871 10.6141 9.13826 10.6055 9.14973 10.5988C9.17074 10.5883 9.1908 10.5797 9.21564 10.5807V10.5797ZM10.8204 10.5396C10.6312 10.5396 10.4946 10.6848 10.5128 10.8644C10.529 11.0125 10.6503 11.1404 10.8022 11.1777C10.7755 11.1338 10.7592 11.087 10.7545 11.0373C10.7363 10.8587 10.8729 10.7135 11.062 10.7135C11.0926 10.7135 11.1203 10.7182 11.149 10.724C11.084 10.6151 10.9598 10.5387 10.8204 10.5387V10.5396ZM8.98448 10.4928C9.03797 10.49 9.08764 10.5243 9.10101 10.5797C9.10292 10.5922 9.10292 10.6046 9.10292 10.618C9.10101 10.6285 9.0991 10.638 9.09624 10.6457C9.07713 10.6399 9.05898 10.6361 9.04083 10.6361C8.98734 10.6361 8.94531 10.659 8.91379 10.6934C8.90519 10.6858 8.89946 10.6781 8.89182 10.6695C8.88705 10.659 8.88036 10.6485 8.8794 10.6351C8.86221 10.5731 8.89946 10.5119 8.9606 10.4966C8.96824 10.4947 8.97683 10.4938 8.98448 10.4938V10.4928ZM10.3953 10.4479C10.3772 10.553 10.3399 10.6342 10.3399 10.9781C10.3399 10.9781 10.2339 10.9227 10.2339 10.7803C10.2339 10.639 10.2291 10.5387 10.2711 10.4756L10.3963 10.4479H10.3953ZM9.48309 10.4479L9.6044 10.4756C9.65025 10.5377 9.64165 10.639 9.64165 10.7803C9.64165 10.9227 9.53563 10.9781 9.53563 10.9781C9.53563 10.6342 9.50124 10.553 9.48309 10.4479ZM8.97301 10.4307C8.96537 10.4307 8.95678 10.4307 8.94722 10.4346C8.86699 10.4527 8.81732 10.5329 8.83833 10.6141C8.8412 10.6256 8.84502 10.6371 8.8517 10.6476C8.84215 10.6437 8.82782 10.6418 8.81732 10.6399H8.80108C8.72657 10.6428 8.66257 10.702 8.65684 10.7784C8.65207 10.8587 8.71511 10.9293 8.79535 10.9351C8.80776 10.9351 8.81827 10.9351 8.82878 10.9332C8.824 10.9418 8.81636 10.9532 8.81063 10.9656C8.78102 11.0411 8.81827 11.1271 8.89469 11.1576C8.96919 11.1863 9.05803 11.15 9.08668 11.0755C9.09241 11.064 9.09528 11.0526 9.09528 11.0411C9.10197 11.0497 9.11056 11.0583 9.12107 11.0679C9.18316 11.1185 9.27868 11.1108 9.32835 11.0478C9.38089 10.9857 9.37133 10.8921 9.3102 10.8405C9.3016 10.8329 9.2911 10.8271 9.28154 10.8205C9.2911 10.8166 9.3016 10.8119 9.31307 10.8061C9.38088 10.7622 9.40285 10.6705 9.35987 10.6008C9.33121 10.554 9.27868 10.5301 9.22328 10.5329C9.20035 10.5348 9.17647 10.5425 9.15546 10.5568C9.14495 10.5626 9.1354 10.5692 9.1268 10.5778C9.1268 10.5664 9.1268 10.554 9.12394 10.5415C9.1077 10.4728 9.04083 10.426 8.97206 10.4307H8.97301ZM10.4746 10.3801L10.2463 10.425C10.1622 10.4775 10.1804 10.7851 10.1966 10.8692C10.2301 11.0468 10.4049 11.0984 10.4049 11.0984C10.4049 11.0984 10.3915 11.0153 10.3915 10.8587C10.3915 10.6304 10.4498 10.4403 10.4746 10.3811V10.3801ZM9.40381 10.3801C9.42769 10.4403 9.485 10.6304 9.485 10.8587C9.485 11.0163 9.46876 11.0984 9.46876 11.0984C9.46876 11.0984 9.64834 11.0468 9.68177 10.8692C9.69515 10.7851 9.71616 10.4775 9.63019 10.425L9.40381 10.3801ZM10.3581 10.19L10.4259 10.255L10.3581 10.3209L10.2941 10.255L10.3581 10.19ZM9.51843 10.19L9.58148 10.255L9.51843 10.3209L9.45157 10.255L9.51843 10.19ZM10.3581 10.1308L10.4861 10.255L10.3581 10.3801L10.2367 10.255L10.3581 10.1308ZM9.51843 10.1308L9.64356 10.255L9.51843 10.3801L9.39426 10.255L9.51843 10.1308ZM10.934 9.63218C11.0487 9.74585 11.2368 9.81176 11.2368 9.81176C11.2368 9.81176 11.0401 9.91015 10.9398 9.99707V10.0085C10.9398 10.0085 10.934 10.0047 10.934 10.0018C10.934 10.0018 10.9321 10.0038 10.9321 10.0047V9.99707C10.8366 9.89009 10.6618 9.79935 10.6618 9.79935C10.6618 9.79935 10.829 9.7535 10.935 9.63218H10.934ZM8.94245 9.63218C9.04752 9.7535 9.21564 9.79935 9.21564 9.79935C9.21564 9.79935 9.04179 9.89104 8.94818 9.99803V10.0047L8.94531 10.0028C8.94245 10.0047 8.93958 10.0066 8.93958 10.0085V9.99707C8.83929 9.90919 8.63965 9.81176 8.63965 9.81176C8.63965 9.81176 8.83069 9.74681 8.94245 9.63218ZM9.93968 8.52606L9.99794 8.68845L10.1536 8.61394L10.0791 8.77059L10.2425 8.82886L10.0791 8.88617L10.1536 9.04283L9.99794 8.96928L9.93586 9.13166L9.88046 8.96928L9.72476 9.04283L9.79926 8.88617L9.63592 8.82886L9.79926 8.77059L9.72476 8.61394L9.88046 8.68845L9.93872 8.52606H9.93968ZM9.34745 8.47257C9.36942 8.51747 9.17456 8.80021 9.17456 9.03327C9.17456 9.31792 9.32548 9.48604 9.52799 9.48604C9.56715 9.48604 9.61013 9.53762 9.64834 9.53762C9.70565 9.53762 9.74482 9.47171 9.7792 9.47171C9.82792 9.47171 9.85657 9.54431 9.93586 9.54431C10.0151 9.54431 10.0505 9.47171 10.0944 9.47171C10.1307 9.47171 10.168 9.53762 10.2291 9.53762C10.2664 9.53762 10.3093 9.48604 10.3466 9.48604C10.551 9.48604 10.701 9.31792 10.701 9.03327C10.701 8.80021 10.5042 8.51651 10.5262 8.47257C10.5262 8.47257 10.9073 8.74289 10.9073 9.06575C10.9073 9.58347 10.3829 9.71147 10.3829 9.71147L10.4994 9.97701C10.4994 9.97701 10.338 10.0009 10.2406 10.0811C10.1049 10.1881 10.1049 10.4766 10.1049 10.6714C10.1049 10.9036 10.1116 11 10.1947 11.0621C10.2816 11.1271 10.3495 11.1424 10.3495 11.2083C10.3495 11.2684 10.2826 11.2914 10.1919 11.3305C10.0916 11.3745 10.083 11.4518 9.93395 11.4518C9.78493 11.4518 9.7792 11.3745 9.67986 11.3305C9.59103 11.2904 9.52321 11.2684 9.52321 11.2083C9.52321 11.1424 9.59007 11.1271 9.677 11.0621C9.76105 11 9.76679 10.9036 9.76679 10.6714C9.76679 10.4775 9.76679 10.1881 9.63306 10.0811C9.53276 10.0009 9.37038 9.97701 9.37038 9.97701L9.49073 9.71147C9.49073 9.71147 8.96346 9.58252 8.96346 9.06575C8.96346 8.74289 9.34459 8.47257 9.34459 8.47257H9.34745ZM9.93586 8.35222L9.84607 8.60916L9.60154 8.49263L9.71903 8.73907L9.46494 8.82791L9.71903 8.91865L9.60154 9.16414L9.84607 9.04665L9.93586 9.30264L10.0295 9.04665L10.274 9.16414L10.1565 8.91865L10.4115 8.82791L10.1565 8.73907L10.274 8.49263L10.0295 8.60916L9.93586 8.35222ZM9.38375 9.79075C9.38375 9.79075 9.06567 9.71338 8.94722 9.55481C8.73708 9.74299 8.48682 9.80603 8.48682 9.80603C8.48682 9.80603 8.74663 9.92352 8.94722 10.0744C9.03988 9.94167 9.38375 9.78979 9.38375 9.78979V9.79075ZM10.4899 9.79075C10.4899 9.79075 10.8395 9.94263 10.9302 10.0754C11.126 9.92448 11.3887 9.80699 11.3887 9.80699C11.3887 9.80699 11.1375 9.74299 10.9302 9.55577C10.808 9.71433 10.4899 9.7917 10.4899 9.7917V9.79075ZM9.42387 8.31592C9.47354 8.4955 9.24811 8.74194 9.24811 9.03423C9.24811 9.41153 9.52703 9.42968 9.52703 9.43064C9.59198 9.43064 9.61873 9.47649 9.64739 9.47649C9.69992 9.47171 9.72571 9.40103 9.77825 9.40103C9.83078 9.40103 9.86995 9.48126 9.9349 9.48126C9.99986 9.48126 10.0438 9.40103 10.0935 9.40103C10.146 9.40103 10.1727 9.47171 10.2281 9.47649C10.253 9.47649 10.2788 9.42968 10.3456 9.43064C10.3456 9.43064 10.6236 9.41153 10.6236 9.03423C10.6236 8.74194 10.401 8.4955 10.4507 8.31592C10.4641 8.42003 10.9847 8.634 10.9847 9.06671C10.9847 9.62168 10.4669 9.75254 10.4669 9.75254L10.488 9.7917L10.6121 10.021C10.6121 10.021 10.401 10.0315 10.2864 10.1279C10.1508 10.2454 10.1622 10.4928 10.1622 10.6724C10.1622 10.8147 10.1804 10.9647 10.252 11.0277C10.3514 11.1108 10.4163 11.1175 10.4163 11.214C10.4163 11.2961 10.3542 11.3114 10.252 11.3649C10.1221 11.4337 10.1279 11.5254 9.93299 11.5254C9.73813 11.5254 9.74673 11.4337 9.61682 11.3649C9.51557 11.3124 9.45061 11.2961 9.44966 11.214C9.44966 11.1185 9.51843 11.1118 9.61682 11.0277C9.68846 10.9656 9.70756 10.8147 9.70756 10.6724C9.70756 10.4928 9.72189 10.2454 9.58625 10.1279C9.46876 10.0315 9.25671 10.021 9.25671 10.021L9.38088 9.7917L9.40285 9.75254C9.40285 9.75254 8.88514 9.62168 8.88514 9.06671C8.88514 8.634 9.40572 8.42003 9.42196 8.31592H9.42387Z" fill="#242222"/>
<path fill-rule="evenodd" clip-rule="evenodd" d="M8.44675 8.27846H11.4308C11.4308 8.27846 11.3888 8.32526 11.3888 8.4055V10.8842C11.3888 10.9396 11.3353 11.0657 11.0096 11.2281C10.4737 11.4946 10.062 11.6198 9.93782 11.7707C9.81651 11.6188 9.40482 11.4937 8.86895 11.2281C8.54609 11.0667 8.48878 10.9396 8.48878 10.8852V8.4055C8.48878 8.32526 8.44675 8.27941 8.44675 8.27941V8.27846ZM8.271 8.19822C8.271 8.19822 8.4095 8.30043 8.4095 8.40454V10.8833C8.4095 10.9502 8.4286 10.9931 8.46299 11.0333C8.49356 11.0791 8.56233 11.1402 8.63588 11.1851C8.85367 11.3275 9.21951 11.4784 9.49556 11.6035C9.72672 11.7086 9.81842 11.7516 9.93782 11.8996C10.0591 11.7516 10.1556 11.7095 10.3868 11.6035C10.6628 11.4784 11.0287 11.3275 11.2455 11.1851C11.3171 11.1393 11.385 11.0791 11.4193 11.0333C11.4509 10.9922 11.469 10.9502 11.469 10.8833V10.5585V8.40359C11.469 8.29852 11.6046 8.19727 11.6046 8.19727H11.4623H11.3735H8.27195L8.271 8.19822Z" fill="#F5EC23"/>
<path fill-rule="evenodd" clip-rule="evenodd" d="M9.86348 6.68356C9.86348 6.73132 9.81286 6.77144 9.74886 6.77144C9.68582 6.77144 9.63232 6.73132 9.63232 6.68356C9.63232 6.6358 9.68677 6.59473 9.74886 6.59473C9.81095 6.59473 9.86348 6.63389 9.86348 6.68356Z" fill="#242222"/>
<path fill-rule="evenodd" clip-rule="evenodd" d="M9.19189 6.63257C9.19189 6.63257 9.23106 6.55997 9.32753 6.55997C9.36765 6.55997 9.50042 6.55615 9.50042 6.55615C9.51953 6.60391 9.59785 6.67937 9.59785 6.75866C9.59785 6.75866 9.51666 6.61251 9.28741 6.61251C9.23201 6.61251 9.19189 6.63257 9.19189 6.63257Z" fill="#C62832"/>
<path fill-rule="evenodd" clip-rule="evenodd" d="M9.48609 6.6519C9.48609 6.6519 9.43164 6.63471 9.43164 6.6156C9.43164 6.59077 9.45743 6.59077 9.47271 6.60987C9.48609 6.62325 9.48609 6.6519 9.48609 6.6519Z" fill="#242222"/>
<path fill-rule="evenodd" clip-rule="evenodd" d="M9.56338 6.78942C9.56338 6.78942 9.51657 6.83909 9.50606 6.86679C9.45544 6.84864 9.37329 6.76172 9.37329 6.76172C9.37329 6.76172 9.44398 6.80279 9.56338 6.78942Z" fill="#C62832"/>
<path fill-rule="evenodd" clip-rule="evenodd" d="M11.4623 12.5313C11.4413 12.5332 11.425 12.5485 11.4202 12.5571C11.4155 12.5705 11.4116 12.5896 11.4202 12.6058C11.4202 12.6058 11.3648 12.5877 11.3467 12.5972C11.3285 12.6058 11.3467 12.8714 11.3467 12.8714C11.3467 12.8714 11.5702 12.73 11.5664 12.709C11.5607 12.6889 11.5148 12.6526 11.5148 12.6526C11.532 12.6507 11.5482 12.6392 11.5549 12.6249C11.5607 12.6106 11.5635 12.5695 11.5119 12.5437C11.4919 12.5332 11.4756 12.5303 11.4623 12.5313ZM13.1386 9.34952L12.9619 9.47943L12.9801 9.52146C12.9801 9.52146 12.9486 9.53197 12.9333 9.56062C12.9189 9.59023 12.9438 9.63035 12.9438 9.63035C12.9438 9.63035 12.7728 9.61698 12.748 9.63322C12.7241 9.6485 12.7585 9.76695 12.7422 9.86533C12.7212 10.0038 12.6649 9.99237 12.662 10.0191C12.662 10.0459 12.683 10.086 12.683 10.086C12.683 10.086 12.6544 10.0965 12.6458 10.1099C12.6362 10.1299 12.6553 10.17 12.64 10.1958C12.5684 10.341 12.4576 10.555 12.3859 10.6954C12.3754 10.7145 12.3487 10.7221 12.3334 10.7498C12.3229 10.7728 12.3334 10.81 12.3334 10.81C12.3334 10.81 12.2857 10.8119 12.2675 10.8444C12.2503 10.8788 12.2618 10.9256 12.2618 10.9256C12.2618 10.9256 12.2302 10.9294 12.2159 10.959C12.2006 10.9906 12.2274 11.0068 12.2217 11.0202C12.1242 11.2093 12.0106 11.4357 11.9389 11.5713C11.9141 11.621 11.8243 11.6305 11.7698 11.7318C11.723 11.8321 11.7937 11.9047 11.7937 11.9047C11.7937 11.9047 11.7183 11.9114 11.6982 11.9496C11.681 11.9887 11.6944 12.0508 11.7498 12.0776C11.8023 12.1043 11.8615 12.0824 11.8806 12.0432C11.9007 12.004 11.8606 11.941 11.8606 11.941C11.8606 11.941 11.9637 11.9544 12.0134 11.855C12.065 11.7528 12.0192 11.6754 12.0469 11.6258C12.1185 11.4882 12.2322 11.2647 12.3296 11.0737C12.3344 11.0612 12.364 11.0737 12.3783 11.0412C12.3965 11.0116 12.3783 10.9858 12.3783 10.9858C12.3783 10.9858 12.4232 10.9657 12.4413 10.9313C12.4566 10.8989 12.4308 10.8587 12.4308 10.8587C12.4308 10.8587 12.4681 10.8444 12.4815 10.8215C12.492 10.7947 12.4843 10.769 12.492 10.7489C12.5665 10.6066 12.6744 10.3936 12.747 10.2484C12.7623 10.2226 12.8043 10.2149 12.8129 10.193C12.8215 10.1786 12.8101 10.1471 12.8101 10.1471C12.8101 10.1471 12.8588 10.1423 12.8788 10.1251C12.8989 10.1089 12.8588 10.0697 12.9552 9.97136C13.0269 9.89972 13.1386 9.85865 13.1386 9.82904C13.1386 9.79847 13.0278 9.67047 13.0278 9.67047C13.0278 9.67047 13.0727 9.66665 13.089 9.63608C13.1043 9.60934 13.0947 9.57304 13.0947 9.57304L13.1386 9.56444V9.3457V9.34952Z" fill="#242222"/>
<path fill-rule="evenodd" clip-rule="evenodd" d="M11.3696 12.6306V12.8198L11.5272 12.709C11.5272 12.709 11.5062 12.6727 11.4585 12.6478C11.4126 12.6249 11.3696 12.6306 11.3696 12.6306ZM11.4623 12.5571C11.4737 12.5571 11.4862 12.559 11.4995 12.5666C11.5263 12.581 11.5416 12.6029 11.5339 12.6163C11.5291 12.6316 11.4995 12.6335 11.4737 12.6201C11.446 12.6058 11.4308 12.5829 11.4374 12.5695C11.4403 12.5619 11.4518 12.5571 11.4613 12.5571H11.4623ZM11.7727 11.9419C11.7527 11.9419 11.7307 11.9505 11.7231 11.9687C11.7068 11.9983 11.725 12.0356 11.7622 12.0547C11.7966 12.0728 11.8367 12.0642 11.852 12.0346C11.8654 12.0069 11.8491 11.9687 11.8157 11.9496C11.7995 11.9419 11.7861 11.9391 11.7727 11.9419ZM12.2455 11.0546C12.2274 11.0574 12.2159 11.0756 12.2159 11.0756C12.2159 11.0756 12.0201 11.4596 11.9552 11.5962C11.9342 11.6382 11.8405 11.6659 11.8033 11.7366C11.766 11.8092 11.7928 11.876 11.8405 11.8999C11.8845 11.9248 11.9561 11.9076 11.9934 11.8359C12.0297 11.7624 11.9991 11.6735 12.0201 11.6296C12.0899 11.493 12.2828 11.11 12.2828 11.11C12.2828 11.11 12.3048 11.0746 12.2675 11.0565C12.2589 11.0527 12.2522 11.0527 12.2455 11.0536V11.0546ZM12.2723 10.9562C12.2589 10.9562 12.2484 10.9629 12.2436 10.9715C12.235 10.9906 12.2503 11.0173 12.2799 11.0326C12.3115 11.0479 12.3439 11.045 12.3516 11.0269C12.3621 11.0068 12.3458 10.9801 12.3172 10.9648C12.3019 10.9581 12.2857 10.9543 12.2723 10.9562ZM12.3334 10.8406C12.3458 10.8425 12.3602 10.8454 12.3726 10.8521C12.4098 10.8721 12.428 10.9056 12.4184 10.9294C12.4032 10.9543 12.364 10.959 12.3296 10.939C12.2895 10.9218 12.2713 10.8874 12.2847 10.8626C12.2924 10.8473 12.3105 10.8416 12.3325 10.8416L12.3334 10.8406ZM12.3793 10.7489C12.3649 10.7489 12.3544 10.7546 12.3487 10.7632C12.3382 10.7823 12.3573 10.81 12.386 10.8272C12.4194 10.8425 12.4509 10.8396 12.4595 10.8196C12.471 10.8005 12.4528 10.7728 12.4204 10.7594C12.407 10.7508 12.3917 10.7479 12.3783 10.7499L12.3793 10.7489ZM12.7136 10.1137C12.7241 10.1118 12.7308 10.1137 12.748 10.1204C12.7824 10.1376 12.7852 10.1653 12.7709 10.1863C12.7642 10.2044 12.7365 10.2169 12.663 10.3668C12.6286 10.4346 12.6152 10.4614 12.5789 10.534C12.5417 10.6066 12.4863 10.7126 12.4863 10.7126C12.4863 10.7126 12.4729 10.7479 12.4375 10.7308C12.4003 10.7126 12.4204 10.6792 12.4204 10.6792C12.4204 10.6792 12.4748 10.5722 12.5121 10.4996C12.5493 10.428 12.5636 10.4012 12.598 10.3343C12.6744 10.1815 12.6697 10.1576 12.6773 10.1376C12.6849 10.1242 12.6983 10.1146 12.7146 10.1137H12.7136ZM13.0059 9.6915C13.0059 9.6915 13.0393 9.78128 13.0393 9.79466C13.0422 9.80994 12.9132 9.90164 12.8664 9.98952C12.8292 10.065 12.8139 10.107 12.8139 10.107L12.8636 10.1137C12.8636 10.1137 12.8617 10.0602 12.8722 10.0373C12.8846 10.0096 12.8903 9.97901 12.9505 9.93125C13.0126 9.88063 13.0995 9.83669 13.0995 9.82331C13.0995 9.81089 13.0059 9.69245 13.0059 9.69245V9.6915ZM12.9744 9.68099C12.9744 9.68099 13.0126 9.76887 13.0088 9.78797C13.0078 9.80707 12.896 9.87967 12.8445 9.98379C12.8024 10.0678 12.7891 10.1013 12.7891 10.1013L12.7623 10.0889L12.7356 10.0755C12.7356 10.0755 12.7575 10.044 12.8005 9.95895C12.8511 9.8577 12.8454 9.72302 12.8617 9.71251C12.875 9.69723 12.9734 9.68099 12.9734 9.68099H12.9744ZM12.811 9.65806C12.8569 9.65711 12.9448 9.66284 12.9438 9.66284C12.9438 9.66284 12.8483 9.68576 12.8378 9.69245C12.8244 9.702 12.8244 9.86057 12.7824 9.94844C12.7423 10.021 12.7184 10.0592 12.7184 10.0592L12.6811 10.022C12.6811 10.022 12.7298 9.99334 12.7365 9.9685C12.7528 9.94271 12.7766 9.92074 12.7824 9.84433C12.7852 9.76313 12.768 9.66762 12.7824 9.66093C12.7824 9.65902 12.7948 9.65806 12.811 9.65806ZM13.0078 9.53484C12.9868 9.53675 12.9744 9.54726 12.9619 9.5635C12.9486 9.59024 12.9619 9.62463 12.9906 9.63991C13.0202 9.6552 13.0575 9.64565 13.0708 9.61985C13.0842 9.59215 13.0708 9.55777 13.0422 9.54248C13.0288 9.53675 13.0183 9.53389 13.0078 9.53484ZM13.1081 9.41162V9.53962L13.0556 9.51287L13.0059 9.48613L13.1081 9.41162Z" fill="#F5EC23"/>
<path fill-rule="evenodd" clip-rule="evenodd" d="M9.82893 6.68326C9.82893 6.7272 9.79168 6.76159 9.74869 6.76159C9.70571 6.76159 9.66846 6.7272 9.66846 6.68326C9.66846 6.63741 9.70475 6.60303 9.74869 6.60303C9.79263 6.60303 9.82893 6.63741 9.82893 6.68326Z" fill="#F5EC23"/>
<path fill-rule="evenodd" clip-rule="evenodd" d="M9.78309 6.68321C9.78309 6.70136 9.7678 6.72046 9.7487 6.72046C9.72769 6.72046 9.7124 6.70231 9.7124 6.68321C9.7124 6.66315 9.72769 6.64404 9.7487 6.64404C9.7678 6.64404 9.78309 6.66315 9.78309 6.68321Z" fill="#242222"/>
</g>
<defs>
<clipPath id="clip0_1424_27432">
<rect width="20" height="20" fill="white"/>
</clipPath>
</defs>
</svg>
