<svg width="20" height="20" viewBox="0 0 20 20" fill="none" xmlns="http://www.w3.org/2000/svg">
<g clip-path="url(#clip0_1423_25133)">
<path d="M17.0714 17.0711C20.9766 13.1658 20.9766 6.83417 17.0714 2.92893C13.1661 -0.976311 6.83446 -0.97631 2.92922 2.92893C-0.976021 6.83418 -0.976021 13.1658 2.92922 17.0711C6.83446 20.9763 13.1661 20.9763 17.0714 17.0711Z" fill="#F2BF16"/>
<path fill-rule="evenodd" clip-rule="evenodd" d="M19.4288 6.66357H0.57121C0.201547 7.70665 0 8.82997 0 10.0001C0 15.5231 4.47703 20.0001 10 20.0001C15.523 20.0001 20 15.5231 20 10.0001C20 8.82997 19.7985 7.70665 19.4288 6.66357Z" fill="#2D714B"/>
<path fill-rule="evenodd" clip-rule="evenodd" d="M19.4289 13.3374H0.571289C1.94582 17.2193 5.64723 19.9999 10.0001 19.9999C14.3529 19.9999 18.0543 17.2193 19.4289 13.3374Z" fill="#B7283A"/>
<path fill-rule="evenodd" clip-rule="evenodd" d="M12.2913 11.4176L16 8.58237H11.4192L10.0036 4L8.58622 8.58237H4L7.7105 11.4176L6.29311 16L10.0036 13.1742L13.7087 16L12.2913 11.4176Z" fill="white"/>
</g>
<defs>
<clipPath id="clip0_1423_25133">
<rect width="20" height="20" fill="white"/>
</clipPath>
</defs>
</svg>
