<svg width="20" height="20" viewBox="0 0 20 20" fill="none" xmlns="http://www.w3.org/2000/svg">
<g clip-path="url(#clip0_1423_25148)">
<path fill-rule="evenodd" clip-rule="evenodd" d="M4.86475 1.41847H15.136C13.6344 0.517719 11.8778 0 9.99991 0C8.12198 0 6.36537 0.517719 4.86475 1.41847Z" fill="#D82535"/>
<path fill-rule="evenodd" clip-rule="evenodd" d="M3.01074 2.84935H16.9892C16.4304 2.30393 15.8085 1.82251 15.1351 1.41846H4.86479C4.19137 1.82251 3.56953 2.30297 3.01074 2.84935Z" fill="#FEFEFE"/>
<path fill-rule="evenodd" clip-rule="evenodd" d="M1.79761 4.27857H18.2022C17.8431 3.76467 17.4362 3.28611 16.9891 2.84863H3.01071C2.56368 3.28611 2.15676 3.76467 1.79761 4.27857Z" fill="#D82535"/>
<path fill-rule="evenodd" clip-rule="evenodd" d="M0.96582 5.70826H19.0344C18.7956 5.20678 18.5167 4.72918 18.2024 4.27832H1.7978C1.48258 4.72918 1.20367 5.20678 0.96582 5.70826Z" fill="#FEFEFE"/>
<path fill-rule="evenodd" clip-rule="evenodd" d="M0.415527 7.13939H19.5845C19.4374 6.64555 19.253 6.16699 19.0353 5.7085H0.965723C0.746982 6.16699 0.563584 6.64555 0.416483 7.13939H0.415527Z" fill="#D82535"/>
<path fill-rule="evenodd" clip-rule="evenodd" d="M0.102295 8.5691H19.8979C19.8281 8.08003 19.7221 7.60243 19.5846 7.13916H0.415601C0.277097 7.60243 0.172025 8.08003 0.102295 8.5691Z" fill="#FEFEFE"/>
<path fill-rule="evenodd" clip-rule="evenodd" d="M0 10.0002H20C20 9.51403 19.9647 9.03643 19.8978 8.56934H0.102207C0.0353424 9.03643 0 9.51403 0 10.0002Z" fill="#D82535"/>
<path fill-rule="evenodd" clip-rule="evenodd" d="M0.102207 11.4299H19.8978C19.9647 10.9628 20 10.4862 20 10H0C0 10.4852 0.0353424 10.9628 0.102207 11.4299Z" fill="#FEFEFE"/>
<path fill-rule="evenodd" clip-rule="evenodd" d="M0.415601 12.8611H19.5846C19.7231 12.3978 19.8281 11.9192 19.8979 11.4302H0.102295C0.17298 11.9192 0.278052 12.3978 0.415601 12.8611Z" fill="#D82535"/>
<path fill-rule="evenodd" clip-rule="evenodd" d="M0.964768 14.2908H19.0353C19.253 13.8323 19.4374 13.3547 19.5845 12.8608H0.415527C0.562628 13.3547 0.746982 13.8323 0.964768 14.2908Z" fill="#FEFEFE"/>
<path fill-rule="evenodd" clip-rule="evenodd" d="M1.79778 15.7209H18.2024C18.5176 15.2701 18.7965 14.7915 19.0353 14.29H0.964844C1.20364 14.7915 1.48256 15.2691 1.79778 15.7209Z" fill="#D82535"/>
<path fill-rule="evenodd" clip-rule="evenodd" d="M3.01071 17.1506H16.9891C17.4362 16.7132 17.8421 16.2346 18.2022 15.7207H1.79761C2.15676 16.2346 2.56368 16.7132 3.01071 17.1506Z" fill="#FEFEFE"/>
<path fill-rule="evenodd" clip-rule="evenodd" d="M4.86288 18.5803H15.137C15.8095 18.1763 16.4313 17.6958 16.9892 17.1504H3.01074C3.56858 17.6958 4.19042 18.1763 4.86288 18.5803Z" fill="#D82535"/>
<path fill-rule="evenodd" clip-rule="evenodd" d="M15.1372 18.5806H4.86304C6.36461 19.4813 8.12218 20 10.0001 20C11.878 20 13.6356 19.4813 15.1372 18.5806Z" fill="#FEFEFE"/>
<path fill-rule="evenodd" clip-rule="evenodd" d="M0.102207 11.4299H11.9161V0.184354C11.2962 0.0639985 10.6553 0 10 0C4.47703 0 0 4.47703 0 10C0 10.4852 0.0353424 10.9628 0.102207 11.4299Z" fill="#313C91"/>
<path fill-rule="evenodd" clip-rule="evenodd" d="M2.51412 5.70817C2.51412 4.1082 3.8132 2.81009 5.4122 2.81009C5.96813 2.81009 6.48585 2.96769 6.92811 3.23897C6.34066 2.71361 5.5679 2.39648 4.72255 2.39648C4.06728 2.39648 3.45691 2.58657 2.94301 2.91516C2.44917 3.40709 2.00691 3.9506 1.62388 4.53709C1.48633 4.90102 1.40991 5.29647 1.40991 5.70817C1.40991 7.54024 2.89429 9.0208 4.72255 9.0208C5.5679 9.0208 6.34066 8.69986 6.92811 8.17832C6.48585 8.44959 5.96813 8.6072 5.4122 8.6072C3.8132 8.6072 2.51412 7.31004 2.51412 5.70912V5.70817Z" fill="#F5D716"/>
<path fill-rule="evenodd" clip-rule="evenodd" d="M9.13852 5.70831L10.7242 5.09507L9.02963 5.23071L10.1921 3.98894L8.72301 4.84576L9.23022 3.22383L8.27884 4.63275L8.03431 2.94873L7.8576 4.15515L7.80792 4.50284L7.78787 4.63275L6.83649 3.22383L7.34561 4.84576L5.87651 3.98894L7.03899 5.23071L5.34351 5.09507L6.93105 5.70831L5.34351 6.3225L7.03899 6.18686L5.87651 7.43244L7.34561 6.57181L6.83649 8.19469L7.78787 6.78577L7.80792 6.91759L7.8576 7.26337L8.03431 8.4717L8.27884 6.78577L9.23022 8.19469L8.72301 6.57181L10.1921 7.43244L9.02963 6.18686L10.7242 6.3225L9.13852 5.70831Z" fill="#F5D716"/>
</g>
<defs>
<clipPath id="clip0_1423_25148">
<rect width="20" height="20" fill="white"/>
</clipPath>
</defs>
</svg>
