<svg width="20" height="20" viewBox="0 0 20 20" fill="none" xmlns="http://www.w3.org/2000/svg">
<g clip-path="url(#clip0_1423_25108)">
<path fill-rule="evenodd" clip-rule="evenodd" d="M0 10H20C20 4.47703 15.523 0 10 0C4.47703 0 0 4.47703 0 10Z" fill="#313C91"/>
<path fill-rule="evenodd" clip-rule="evenodd" d="M20 10H0C0 15.523 4.47703 20 10 20C15.523 20 20 15.523 20 10Z" fill="#C12837"/>
<path fill-rule="evenodd" clip-rule="evenodd" d="M2.81975 16.9597L10.2655 10.0001L2.81975 3.04053C1.0746 4.84108 0 7.29499 0 10.0001C0 12.7053 1.0746 15.1592 2.81975 16.9597Z" fill="#FEFEFE"/>
<path fill-rule="evenodd" clip-rule="evenodd" d="M2.58956 9.28572L1.8254 8.85397L1.79388 8.60275L2.65834 9.19115L2.58956 9.28572ZM2.72998 9.12142L2.91146 8.91892L2.14444 7.979L1.76904 7.99238L1.80439 8.40789L2.72998 9.12142ZM3.0748 8.77564L2.63254 8.01626L2.37751 7.98665L2.98215 8.84537L3.07385 8.77564H3.0748Z" fill="#F5D71C"/>
<path fill-rule="evenodd" clip-rule="evenodd" d="M3.46145 8.63218L3.23315 7.78683L3.39172 7.58433L3.57607 8.61881L3.46145 8.63218ZM3.67732 8.61881L3.9486 8.60544L4.07946 7.39997L3.80819 7.14111L3.53404 7.45728L3.67732 8.61881ZM4.16352 8.61881L4.0489 8.60544L4.23612 7.57286L4.39468 7.77346L4.16352 8.61881Z" fill="#F5D71C"/>
<path fill-rule="evenodd" clip-rule="evenodd" d="M4.55151 8.80517L5.00141 8.05439L5.2555 8.02764L4.64226 8.8749L4.55151 8.80517ZM4.71103 8.94845L4.91067 9.13758L5.86683 8.39444L5.86396 8.01904L5.4494 8.04101L4.71103 8.94941V8.94845ZM5.04822 9.30188L5.8162 8.87777L5.85154 8.62655L4.97849 9.20731L5.04726 9.30188H5.04822Z" fill="#F5D71C"/>
<path fill-rule="evenodd" clip-rule="evenodd" d="M5.17236 9.65796L6.01867 9.42871L6.21831 9.58536L5.18669 9.77545L5.17236 9.65891V9.65796ZM5.18669 9.87383L5.20006 10.1442L6.40457 10.276L6.66343 10.0037L6.34917 9.73055L5.18574 9.87383H5.18669ZM5.18478 10.361L5.20006 10.2445L6.23073 10.4326L6.03204 10.5921L5.18478 10.36V10.361Z" fill="#F5D71C"/>
<path fill-rule="evenodd" clip-rule="evenodd" d="M5.02339 10.709L5.7866 11.136L5.82194 11.39L4.95366 10.8035L5.02435 10.709H5.02339ZM4.88489 10.8742L4.70244 11.0767L5.47329 12.0138L5.84773 11.9976L5.8143 11.5839L4.88489 10.8733V10.8742ZM4.54197 11.2229L4.98709 11.9765L5.23927 12.0052L4.63176 11.1493L4.54102 11.2229H4.54197Z" fill="#F5D71C"/>
<path fill-rule="evenodd" clip-rule="evenodd" d="M4.15797 11.3662L4.39008 12.2116L4.23439 12.4112L4.04335 11.3796L4.15797 11.3662ZM3.94114 11.3796L3.66891 11.3958L3.5476 12.6003L3.82365 12.8601L4.09206 12.5411L3.94209 11.3796H3.94114ZM3.45303 11.3824L3.56765 11.3958L3.38999 12.4303L3.23047 12.2307L3.45303 11.3824Z" fill="#F5D71C"/>
<path fill-rule="evenodd" clip-rule="evenodd" d="M3.07667 11.2063L2.63919 11.9686L2.3851 11.9953L2.98688 11.1366L3.07667 11.2063ZM2.9162 11.0659L2.71369 10.8816L1.76709 11.6381L1.77855 12.0135L2.1912 11.9839L2.91715 11.0659H2.9162ZM2.57137 10.7173L1.81007 11.1519L1.77855 11.406L2.6411 10.809L2.57041 10.7173H2.57137Z" fill="#F5D71C"/>
<path fill-rule="evenodd" clip-rule="evenodd" d="M2.43949 10.3523L1.59414 10.5845L1.39259 10.4278L2.42421 10.2368L2.43949 10.3523ZM2.42421 10.1365L2.40797 9.86424L1.20251 9.74293L0.945557 10.018L1.26268 10.2883L2.42325 10.1374L2.42421 10.1365ZM2.42134 9.65027L2.40797 9.76394L1.37349 9.58341L1.57503 9.42676L2.42134 9.65123V9.65027Z" fill="#F5D71C"/>
<path fill-rule="evenodd" clip-rule="evenodd" d="M3.80451 8.57275C4.5916 8.57275 5.23254 9.21083 5.23254 9.99887C5.23254 10.7879 4.59255 11.4307 3.80451 11.4307C3.01647 11.4307 2.37744 10.7879 2.37744 9.99887C2.37744 9.21083 3.01647 8.57275 3.80547 8.57275H3.80451Z" fill="#F5D71C"/>
<path fill-rule="evenodd" clip-rule="evenodd" d="M7.98826 10.4899L8.34742 10.0009L7.9873 9.5118L8.56234 9.70093L8.91576 9.20996L8.91385 9.81556L9.49175 9.998L8.91385 10.1824L8.91671 10.7899L8.5652 10.2979L7.98826 10.4899Z" fill="#F5D71C"/>
<path fill-rule="evenodd" clip-rule="evenodd" d="M2.83993 15.3569L2.31648 15.0512L1.86658 15.46L1.99553 14.8678L1.46826 14.5679L2.07195 14.5058L2.19517 13.9136L2.43875 14.4676L3.04052 14.4007L2.58776 14.8057L2.83993 15.3569Z" fill="#F5D71C"/>
<path fill-rule="evenodd" clip-rule="evenodd" d="M2.83993 4.64322L2.31648 4.94793L1.86658 4.54102L1.99553 5.1342L1.46826 5.43508L2.07195 5.49431L2.19517 6.08844L2.43875 5.53442L3.04052 5.59938L2.58776 5.19724L2.83993 4.64322Z" fill="#F5D71C"/>
</g>
<defs>
<clipPath id="clip0_1423_25108">
<rect width="20" height="20" fill="white"/>
</clipPath>
</defs>
</svg>
