<svg width="38" height="39" viewBox="0 0 38 39" fill="none" xmlns="http://www.w3.org/2000/svg">
<g clip-path="url(#clip0_11291_166270)">
<path d="M37.9999 27.3254C37.7645 27.0013 37.529 26.6756 37.262 26.3079C37.4378 26.3869 37.5655 26.4439 37.6948 26.5027C37.7263 26.4708 37.7595 26.4389 37.791 26.4087C37.4079 25.9235 37.0232 25.4383 36.6334 24.9446H36.8407C35.9071 24.1858 34.8656 23.5377 34.0265 22.6277C33.2835 21.8235 32.7313 20.9152 32.4145 19.8541C32.1227 18.8702 31.8142 17.8763 31.1326 17.0855C30.5588 16.419 30.0281 15.6769 29.1376 15.3797C29.0795 15.3596 29.0265 15.3025 28.985 15.2521C28.4659 14.6057 27.7479 14.3421 26.9767 14.1894C26.781 14.1507 26.5555 14.2162 26.3764 14.1474C25.66 13.867 24.9469 13.8888 24.2205 14.0785C24.0762 14.1155 23.927 14.1491 23.7794 14.1591C23.3681 14.1877 22.9552 14.1927 22.5456 14.228C21.9983 14.275 21.4494 14.4127 20.9071 14.3875C18.864 14.2918 16.8225 14.144 14.781 14.0164C14.7412 14.0131 14.6981 14.0114 14.66 14.0215C14.2669 14.134 13.8739 14.2515 13.4809 14.3656C13.1708 14.4546 12.8557 14.5335 12.5456 14.6259C12.1708 14.7367 11.8043 14.9012 11.4228 14.9633C10.7031 15.0809 9.97507 15.1413 9.25036 15.2253C9.24373 15.2488 9.23875 15.2706 9.23212 15.2941C9.84406 15.3848 10.4577 15.4771 11.0679 15.5678C10.9237 16.1487 10.9237 16.147 10.4046 16.335C10.1708 16.419 9.93029 16.4962 9.70973 16.6087C8.94356 17.0016 8.17408 17.3357 7.28187 16.9663C7.36313 17.0217 7.44605 17.0755 7.61686 17.1896C7.2686 17.1258 7.02482 17.0805 6.74953 17.0284C7.03311 17.2719 7.42615 17.1712 7.6434 17.5405C7.73958 17.7051 8.11935 17.7151 8.3764 17.7621C8.99331 17.8746 9.6152 17.9686 10.2404 18.0694C10.2222 18.1214 10.2205 18.1584 10.2039 18.1684C8.2487 19.3034 6.18237 19.9431 3.9021 19.6023C3.67822 19.5687 3.44771 19.4663 3.25865 19.3403C1.86064 18.4069 1.48419 16.3485 2.5157 14.829C3.64174 13.1686 5.2885 12.3207 7.25202 12.225C8.29348 12.1746 9.35152 12.2989 10.3897 12.4399C12.8258 12.7707 15.252 13.1753 17.6865 13.5195C18.7611 13.6706 19.8457 13.7495 20.9817 13.5312C16.8573 13.7008 12.9701 12.3392 8.9502 12.0856C9.1293 12.0319 9.30509 12.0218 9.47922 12.0336C11.5339 12.1646 13.587 12.3392 15.6417 12.4181C17.1293 12.4752 18.6218 12.4433 20.1094 12.3795C20.9038 12.3442 21.6633 12.0722 22.3731 11.6071C21.7777 11.7985 21.2288 12.0235 20.6583 12.1478C18.922 12.5289 17.1641 12.3828 15.4129 12.272C12.2454 12.0705 9.08618 11.7028 5.89879 12.0487C4.11769 12.2435 2.43278 12.6296 1.09282 13.9241C-0.590434 15.5527 -0.303535 18.0173 1.77938 19.0684C2.79763 19.5821 3.95185 19.9364 5.07955 20.0858C7.19729 20.3645 9.14754 19.6627 10.9469 18.558C11.3615 18.3028 11.7396 18.1584 12.2139 18.2692C12.9834 18.4488 13.7562 18.615 14.5273 18.788C14.519 18.8367 14.5107 18.887 14.5041 18.9357C13.98 19.0264 13.4477 19.0868 12.9336 19.2161C12.2686 19.3823 11.5986 19.567 11.116 20.121C10.9999 20.257 10.9038 20.4233 10.7611 20.524C10.4477 20.7473 10.1127 20.937 9.78602 21.1418C9.72631 21.1972 9.6749 21.2694 9.60525 21.3064C8.88552 21.6993 8.20227 22.119 8.21056 23.0928C8.21056 23.118 8.19232 23.1448 8.17905 23.17C7.89049 23.7022 7.97673 24.2764 7.96015 24.8389C8.19066 24.1925 8.37474 23.5343 8.6152 22.8997C8.71802 22.626 8.88884 22.3322 9.11272 22.1593C10.0547 21.4289 11.0016 20.6986 12.0049 20.0589C12.4311 19.7869 12.995 19.7399 13.4129 19.6157C12.3548 20.4921 11.2553 21.397 10.1625 22.3104C10.0497 22.4044 9.92532 22.527 9.8822 22.6613C9.66164 23.358 9.65832 24.0716 9.73958 24.8003C9.78104 24.7851 9.8026 24.7835 9.80426 24.7767C9.82416 24.6693 9.84572 24.5602 9.86064 24.451C9.98336 23.5545 10.1542 22.6982 10.9767 22.1257C11.5439 21.7312 12.0812 21.2829 12.5953 20.8161C13.1857 20.2805 13.9187 20.121 14.6467 19.928C14.5306 20.0438 14.4029 20.1362 14.262 20.2016C13.8308 20.4014 13.383 20.5693 12.9668 20.796C12.7711 20.9018 12.6616 21.1905 12.4643 21.2694C11.6965 21.5767 11.4179 22.2835 11.0779 22.935C10.9767 23.1297 10.9718 23.3765 10.922 23.5998C11.524 22.3809 12.514 21.6187 13.6334 20.9219C13.2305 21.3567 12.8424 21.7446 12.4941 22.1643C12.1343 22.5975 11.9004 23.0995 11.8606 23.7224C12.5008 22.5924 13.0099 21.9964 13.451 21.8101C13.3515 22.0804 13.2421 22.3775 13.131 22.6764C13.0845 22.804 13.0713 22.9669 12.985 23.0508C12.4013 23.6166 12.247 24.3537 12.0994 25.1629C12.4908 24.6491 12.6898 24.1069 13.1359 23.6603C13.6036 23.1918 14.126 22.8947 14.6351 22.4833C14.7081 22.856 14.6865 23.212 14.8441 23.442C15.0928 23.8013 15.0928 24.1471 15.063 24.5434C15.0149 25.173 15.2023 25.7405 15.6583 26.3398C15.456 25.5507 15.1857 24.8842 15.4593 24.169C15.7164 24.2865 15.9485 24.3923 16.1824 24.4964C16.116 24.3621 16.0248 24.2781 15.9253 24.2076C15.582 23.9675 15.3996 23.6636 15.6069 23.254C15.8689 22.7352 16.1509 22.2264 16.4477 21.7278C16.5058 21.6287 16.6699 21.5935 16.8192 21.5112C16.8457 21.6707 16.8789 21.7765 16.8805 21.8839C16.9004 22.8863 17.2885 23.7543 17.8175 24.5753C18.3067 25.3358 19.0762 25.6515 19.9635 25.4416C19.6019 25.3426 19.2271 25.2502 18.8606 25.131C18.7097 25.0823 18.5273 25.0084 18.4444 24.8859C17.781 23.902 17.2686 22.856 17.3184 21.622C17.3233 21.5062 17.4344 21.3584 17.5373 21.2929C17.6948 21.1939 17.8905 21.1536 18.0994 21.078C18.4693 21.8806 18.7528 22.6781 19.7014 23.0021C20.5439 23.2892 21.3184 23.5041 22.2172 22.9299C20.6799 23.2489 18.796 22.6227 18.5737 20.9135C19.6019 20.4468 20.6583 20.027 21.655 19.4931C22.3863 19.1019 23.1791 19.2446 23.9386 18.9676C23.8872 20.4602 23.7893 21.8923 24.6965 23.1666C24.5854 22.6495 24.4411 22.1643 24.388 21.669C24.3366 21.1889 24.3764 20.6986 24.3764 20.2319C24.6666 20.9991 24.9502 21.753 25.2338 22.5051C25.2819 22.4917 25.33 22.4766 25.3764 22.4632C25.0563 21.5045 24.7048 20.5492 25.1011 19.5183C25.0414 20.6264 25.3233 21.6321 25.9668 22.6613C25.796 21.711 25.383 20.9135 25.5704 20.0589C25.7661 20.7036 25.9635 21.3484 26.1592 21.9931C26.2006 21.9796 26.2437 21.9679 26.2852 21.9545C26.199 21.533 26.0829 21.115 26.0348 20.6885C25.9867 20.2688 25.8971 19.8138 26.3167 19.4965C26.3316 19.9179 26.2537 20.3309 26.2719 20.7406C26.2918 21.1469 26.3781 21.5565 26.4925 21.9477C26.6036 22.3289 26.786 22.6881 26.9369 23.0558C26.8341 22.171 26.4875 21.3332 26.6931 20.4988C26.8673 21.1251 27.0514 21.7933 27.2371 22.4615L27.3465 22.4313C27.2703 21.9796 27.1691 21.5297 27.1227 21.0747C27.0746 20.6079 27.1276 20.1479 27.4129 19.7517C27.4062 20.252 27.3051 20.749 27.3383 21.2359C27.3681 21.6707 27.5489 22.0938 27.6633 22.5219C27.7031 22.5119 27.7412 22.5018 27.781 22.4917C27.7329 22.218 27.6832 21.9427 27.6351 21.669L27.7014 21.6522C27.791 21.8336 27.8789 22.0166 27.9684 22.1979C27.8623 21.4843 27.6898 20.7775 28.1492 20.1059C27.8325 21.0058 28.2802 21.7261 28.6401 22.5219C28.6135 22.0434 28.4577 21.5649 28.6053 21.2191C28.7595 20.8581 29.2089 20.6247 29.5422 20.3225C29.6152 20.4199 29.6666 20.4585 29.6766 20.5072C29.8789 21.4944 30.5621 22.1979 31.1956 22.8728C31.922 23.6468 32.7877 24.2966 33.6384 24.9396C34.9668 25.9436 36.3333 26.8972 37.7147 27.8945C37.5223 27.547 37.3383 27.2179 37.1028 26.7948C37.4344 27.0332 37.6815 27.2112 37.9303 27.3909C37.9535 27.369 37.9767 27.3489 37.9999 27.3271V27.3254ZM0.553845 14.9214C0.807576 14.4865 1.16081 14.0802 1.54555 13.7595C2.73792 12.7656 4.15915 12.3677 5.68983 12.3022C5.59365 12.3425 5.49746 12.3879 5.39962 12.4231C4.56048 12.732 3.81421 13.1921 3.13925 13.7881C1.42615 15.2991 1.29845 17.8545 2.84904 19.3101C0.805918 18.9391 -0.50254 16.7329 0.553845 14.9214ZM8.40293 17.3676C8.86396 17.1896 9.32665 17.0117 9.78767 16.8337C9.8026 16.8723 9.81587 16.9109 9.83079 16.9495C9.36811 17.1225 8.90376 17.2954 8.44107 17.4683C8.42947 17.4347 8.4162 17.4012 8.40459 17.3676H8.40293ZM5.05965 19.8843C5.36976 19.8642 5.68154 19.8491 5.99166 19.8222C7.5953 19.6778 9.02482 19.0281 10.4195 18.2675C10.6119 18.1634 10.854 18.1533 11.0729 18.0996C9.95019 19.2833 6.83079 20.1731 5.05965 19.886V19.8843ZM9.54721 17.554C9.90542 17.4834 10.2636 17.418 10.6202 17.3424C10.9684 17.2685 11.3134 17.1863 11.6981 17.1006C11.0829 17.8108 10.2985 17.6094 9.54887 17.554H9.54721ZM31.3018 18.0778C31.4129 18.3162 31.4975 18.4891 31.5737 18.6637C31.7396 19.0398 31.8922 19.4226 32.0696 19.7937C32.2371 20.1429 32.131 20.4233 31.9253 20.7305C31.6019 20.1781 31.2985 19.6728 31.0066 19.159C30.9585 19.0751 30.9187 18.9458 30.9485 18.8635C31.0364 18.6184 31.1591 18.3867 31.3018 18.0778ZM29.8142 16.2377C30.0149 16.424 30.1774 16.6775 30.4096 16.7951C31.0994 17.1426 31.1757 17.8646 30.66 18.4304C30.529 18.1802 30.4195 17.9116 30.257 17.6799C30.1625 17.5456 29.9983 17.4213 29.8424 17.3777C29.4975 17.282 29.3416 17.0301 29.2752 16.7279C29.2106 16.4341 29.2172 16.1218 29.1807 15.6735C29.4477 15.9103 29.6351 16.0698 29.8159 16.2377H29.8142ZM27.5754 14.599C27.932 14.7367 28.3432 14.8593 28.5887 15.1245C28.8358 15.3915 28.9104 15.823 29.0116 16.2125C28.0082 16.0228 27.0945 15.7642 26.8557 14.4848C27.1127 14.5218 27.3615 14.5167 27.5754 14.599ZM22.3648 14.5235C22.7562 14.4832 23.1525 14.4412 23.5456 14.458C24.0099 14.4765 24.2454 14.7619 24.3499 15.3008C23.8009 15.4217 23.2553 15.5426 22.6417 15.6786C22.4543 15.4066 22.2139 15.0574 21.9419 14.6645C22.0729 14.6192 22.2155 14.5403 22.3648 14.5251V14.5235ZM12.9021 15.5711C12.6384 15.6584 12.3582 15.9892 12.0198 15.5224C12.3814 15.5426 12.6417 15.556 12.9021 15.5711ZM13.5439 22.5757C13.9104 21.842 14.3184 21.1637 15.3067 21.021C14.6981 21.6086 14.3631 22.3691 13.5439 22.5757ZM15.1492 23.2388C14.9303 22.3305 14.9883 22.1845 15.6417 21.9813C15.4776 22.3994 15.3184 22.809 15.1492 23.2388ZM22.3714 18.5949C21.4029 19.4394 20.2852 19.6459 19.0829 19.3907C18.1492 19.1926 17.2321 18.9693 16.2653 19.0163C15.8656 19.0365 15.3316 19.023 15.189 18.5714C15.0331 18.0744 15.6019 17.967 15.8656 17.6597C15.4742 17.8159 15.0746 17.9552 14.6931 18.1332C14.3416 18.2977 14.0514 18.2641 13.7247 18.0476C13.5538 17.9334 13.2968 17.92 13.0779 17.9166C12.7031 17.9132 12.33 17.9552 12.0514 17.972C12.1708 17.7873 12.3465 17.611 12.3996 17.4045C12.4477 17.2165 12.3598 16.9949 12.32 16.7061C13.0381 16.1285 13.9154 15.9825 14.849 16.3065C15.2454 16.4442 15.597 16.7145 15.9684 16.9243C16.1111 17.0049 16.2653 17.1611 16.3996 17.1476C17.1177 17.0738 17.8441 17.3155 18.5605 17.0083C19.2819 16.6994 19.5024 16.7867 20.0281 17.3777C20.4278 16.3602 21.7014 16.3535 22.5456 17.3642V16.832C23.0945 17.3038 22.9883 18.0576 22.3714 18.5949ZM24.6898 18.108C24.194 18.474 23.7048 18.8686 22.9104 18.7729C23.3266 18.2625 23.325 17.747 23.2786 17.2098C23.2686 17.0838 23.4162 16.8841 23.5422 16.8186C23.8242 16.6708 24.1392 16.5886 24.4394 16.4744C24.6218 16.4056 24.7562 16.4056 24.8109 16.6406C24.8524 16.8152 24.9187 16.9848 24.9817 17.1544C25.1276 17.5506 25.0165 17.8679 24.6898 18.108ZM24.9635 15.4519C24.7727 15.1178 24.5771 14.7736 24.3465 14.3707C24.9668 14.2347 25.6036 14.097 26.1558 14.3875C26.4626 14.5486 26.6119 15.0204 26.7827 15.42C26.1459 15.1715 25.5688 15.2118 24.9635 15.4519ZM27.121 17.9603C26.1442 18.6604 25.8573 18.699 25.1625 18.1836C25.8988 17.6513 25.2421 17.0855 25.184 16.377C25.5091 16.377 25.791 16.3804 26.0729 16.377C26.1774 16.377 26.2885 16.377 26.3863 16.3451C26.9369 16.1621 27.1028 16.2393 27.2769 16.7783C27.4693 17.376 27.4212 17.7487 27.1227 17.9636L27.121 17.9603ZM27.6517 18.6856C27.529 18.6251 27.4079 18.5596 27.2454 18.4757C27.7976 17.9233 27.8059 17.2769 27.7014 16.6205C27.9452 16.6792 28.1608 16.7296 28.3764 16.7833C28.7678 16.8807 28.9718 17.282 28.9485 17.9015C28.9203 18.6453 28.315 19.0113 27.6517 18.6839V18.6856ZM29.5339 19.9061C29.4145 19.891 29.2819 19.75 29.2072 19.6325C29.0746 19.4243 28.98 19.1892 28.9054 19.0398C29.058 18.521 29.1973 18.0492 29.3432 17.5556C29.398 17.5825 29.4941 17.5993 29.5339 17.6564C29.8109 18.0476 30.121 18.4236 30.3333 18.8501C30.5406 19.2681 29.995 19.9632 29.5339 19.9061ZM30.4062 21.2728C30.3316 21.1754 30.2951 21.0445 30.2122 20.9555C29.9087 20.6298 29.9004 20.3494 30.2504 20.0371C30.4295 19.8776 30.5356 19.6358 30.7213 19.3655C30.9436 19.8877 31.1525 20.3527 31.3416 20.8245C31.4776 21.1653 31.325 21.3786 30.864 21.5901C30.519 21.7479 30.524 21.4256 30.4079 21.2728H30.4062ZM32.5903 23.6216C32.3565 23.4974 32.1558 23.3077 31.9436 23.1398C31.8374 23.0558 31.7479 22.94 31.6301 22.8795C31.262 22.6865 31.0381 22.391 30.9336 21.9545C31.0331 21.8705 31.1177 21.8 31.2006 21.7261C31.5688 21.4021 31.7164 21.4306 32.0016 21.8352C32.3101 22.2734 32.65 22.6881 32.9485 23.1331C33.0248 23.2472 32.9999 23.4319 33.0215 23.583C32.8756 23.5998 32.6981 23.6787 32.5903 23.6216ZM33.4626 23.2523C33.2902 22.5387 32.7661 22.1022 32.2603 21.6573C31.8971 21.3383 31.9187 21.0965 32.3863 20.843C32.5273 21.0159 32.6898 21.1855 32.8159 21.3786C33.048 21.7345 33.2852 22.0938 33.466 22.4766C33.5688 22.6965 33.5638 22.9669 33.6069 23.2153C33.5588 23.2271 33.5107 23.2388 33.4626 23.2506V23.2523ZM36.9137 26.4574C35.8938 25.8294 34.8722 25.2015 33.8524 24.5753C33.8772 24.5283 33.9021 24.4796 33.927 24.4326C34.2338 24.6189 34.5406 24.8053 34.8474 24.9917C34.8606 24.9749 34.8739 24.9564 34.8872 24.9396C34.6003 24.6995 34.3134 24.4578 34.0265 24.2177C34.0646 24.1723 34.1028 24.127 34.1409 24.0817C35.0928 24.8338 36.0431 25.586 36.995 26.3398C36.9684 26.3801 36.9419 26.4188 36.9154 26.459L36.9137 26.4574ZM35.5323 24.9245C35.5472 24.8993 35.5621 24.8741 35.5771 24.8489C35.718 24.9195 35.859 24.9883 35.9999 25.0588C36.0116 25.042 36.0248 25.0236 36.0364 25.0068C35.8739 24.8859 35.7114 24.7633 35.529 24.6273C36.0762 24.6995 36.932 25.4013 37.2023 26.1048C36.6451 25.7119 36.0878 25.3174 35.5306 24.9245H35.5323Z" fill="white"/>
</g>
<defs>
<clipPath id="clip0_11291_166270">
<rect width="38" height="16.2857" fill="white" transform="translate(0 11.6071)"/>
</clipPath>
</defs>
</svg>
