<svg width="38" height="39" viewBox="0 0 38 39" fill="none" xmlns="http://www.w3.org/2000/svg">
<g clip-path="url(#clip0_11291_166258)">
<path d="M31.1612 15.9414C31.0554 15.2932 30.579 14.7198 30.285 14.1028C29.8381 13.1555 29.397 12.202 28.9736 11.2422C28.8854 11.0428 28.8795 10.806 28.8383 10.5878C28.7443 10.6128 28.656 10.6439 28.562 10.6688C28.8266 11.6598 29.0559 12.6632 29.3676 13.6354C29.5793 14.2898 29.9439 14.8881 30.1556 15.5425C30.2556 15.8479 30.1733 16.228 30.1733 16.7079C29.3441 15.1249 28.6149 13.7227 27.8857 12.3266C27.9562 12.5635 27.8974 12.9125 27.968 13.2303C28.115 13.9346 28.3444 14.6139 28.509 15.3119C28.6678 15.9912 28.7384 16.6705 27.9974 17.3249C28.4326 15.2309 27.0741 14.1091 26.1509 12.5697C26.3743 13.8909 27.28 14.9006 26.833 16.1408C26.045 14.7136 25.2629 13.2926 24.4807 11.8654C24.4454 11.8841 24.4102 11.9028 24.369 11.9215C24.4866 12.4575 24.6101 12.9997 24.7277 13.5357C23.5692 12.632 22.4342 11.747 21.5168 11.0428C21.6756 11.4416 21.9991 12.2331 22.3166 13.0246C22.2402 13.0807 22.1578 13.1431 22.0814 13.2054C20.67 11.9652 19.2527 10.7312 17.8414 9.49094C17.812 9.49094 17.7826 9.49717 17.759 9.50341C18.5882 10.7623 19.4115 12.015 20.2525 13.2926C18.3295 12.5635 16.824 11.1487 15.3303 9.72777C15.2715 9.79009 15.2127 9.85241 15.1598 9.92097C16.1948 11.1986 17.2298 12.47 18.2648 13.7476C18.2295 13.8037 18.1942 13.866 18.1589 13.9221C16.6535 12.9561 15.148 11.9963 13.6602 11.0428C14.0071 11.4728 14.3659 11.9776 14.7893 12.4201C15.2303 12.8875 15.7243 13.2926 16.2477 13.7663C14.4894 13.5606 12.5487 11.9839 9.99647 8.80539C11.2844 11.9278 13.6249 13.9595 16.477 15.5612C14.8246 16.6955 13.5955 18.0541 12.5428 19.8802C13.0662 19.5561 13.4132 19.338 13.766 19.1198C13.819 19.1946 13.866 19.2694 13.9189 19.3442C13.0839 20.1669 12.2488 20.9895 11.4137 21.8122C11.4902 19.6433 12.8427 18.2785 14.0365 16.8139C12.6487 17.7176 11.1079 19.6059 10.4022 21.2388C10.5257 21.2575 10.6434 21.2762 10.8315 21.3074C10.514 21.8683 10.2258 22.3793 9.86122 23.0275C9.79653 22.6785 9.76713 22.5102 9.73184 22.3357L9.54954 22.3045C9.24962 23.0462 8.94382 23.7816 8.6439 24.5232C8.70271 24.5606 8.76152 24.598 8.82033 24.6354C9.00851 24.3674 9.19669 24.0994 9.39076 23.8314C9.43192 23.8688 9.47309 23.9062 9.51425 23.9436C9.35547 24.6977 9.19669 25.4518 9.01439 26.287C9.30255 26.1374 9.47897 26.0439 9.65539 25.9504C9.70244 25.9878 9.75536 26.0252 9.80241 26.0626C9.35547 27.0037 8.90854 27.951 8.4616 28.8921L8.26754 28.8796C8.19697 27.8949 8.1264 26.9102 8.05583 25.913C7.456 27.3215 7.57949 30.6246 8.26754 32.0269C8.47336 31.2354 8.68507 30.4314 8.8909 29.6275C8.97323 29.6399 8.99087 33.8031 9.57894 35.8037C9.61423 35.4858 9.64363 35.168 9.69068 34.7068C10.1317 35.3612 10.4669 35.8535 10.7963 36.3521C9.80241 32.9056 9.55542 29.6649 10.2787 28.6989C10.3905 29.8768 10.5081 31.0734 10.6198 32.2762C10.8139 30.7306 10.8727 29.2037 11.4961 27.7515C11.4961 29.2785 11.4549 30.7368 11.5078 32.2014C11.5725 34.2269 11.9018 35.7912 12.3017 36.4394C12.3605 36.0779 12.4252 35.6915 12.4958 35.2428C13.0956 35.9096 13.6249 36.5079 14.16 37.1062C12.5605 33.3793 13.9601 34.0773 15.6655 37.2682V36.1402C16.1183 36.6575 16.4476 37.0252 16.7711 37.3929C15.2303 34.3266 16.3653 33.4852 16.4712 32.9181C16.8711 34.1209 17.2121 35.1306 17.5532 36.1464C17.6003 36.134 17.6473 36.1215 17.6944 36.109C17.7532 35.8348 17.8179 35.5606 17.9002 35.1991C18.2001 35.6105 18.4294 35.9532 18.6882 36.2649C18.9528 36.5765 19.2469 36.8569 19.5291 37.1498C18.1942 34.6694 20.5053 35.679 20.8876 36.6575C20.964 36.6326 21.0346 36.6076 21.1111 36.5827V35.4547C21.5521 35.866 21.9285 36.215 22.299 36.564C22.3225 36.5391 22.346 36.5141 22.3695 36.4954C21.8991 35.492 21.4286 34.4949 20.9582 33.4915L21.0758 33.4167C21.511 33.9527 21.9402 34.4824 22.3754 35.0184C22.4048 34.9872 22.4401 34.9623 22.4695 34.9311C22.3284 34.3453 23.1399 34.7566 23.628 35.5668C23.6633 35.5419 23.7045 35.5232 23.7397 35.4983C23.728 35.2241 23.7103 34.9498 23.6927 34.632C24.269 35.0994 24.7865 35.517 25.4452 36.053C25.2452 35.3051 25.1158 34.8003 24.9747 34.2705C25.651 34.5572 26.2449 34.8127 26.9565 35.1181C26.1861 33.7906 25.5157 32.619 24.7689 31.3289C26.1214 31.0921 27.2094 30.7368 28.0033 29.7583C28.7913 28.7923 29.0736 27.6705 28.9383 26.449C28.7031 27.1096 28.4561 27.7889 28.215 28.4683C28.1562 28.4433 28.0974 28.4246 28.0444 28.3997C28.2973 25.4518 28.2444 24.9283 27.6152 24.2552C27.6857 26.0938 27.5622 26.6297 26.9036 27.1159C27.3329 24.704 26.4978 22.9651 24.2278 21.8371C25.7157 21.6626 26.733 22.2796 27.8739 23.0212C27.6563 22.5787 27.5211 22.3045 27.2976 21.8371C28.4737 21.6377 29.5499 21.4569 30.6261 21.2762C29.5499 20.4099 28.2326 20.198 26.8389 20.0235C27.4623 19.1011 28.2268 19.4127 29.0618 19.5062C28.7266 19.2507 28.5149 19.0949 28.1503 18.8144C29.597 18.8144 30.238 19.849 31.0083 20.6405C31.0554 20.5906 31.1024 20.5408 31.1495 20.4909C30.7084 19.8739 30.2615 19.2569 29.791 18.5963C30.9907 18.1414 31.3671 17.1193 31.1671 15.9289L31.1612 15.9414ZM20.2584 15.262C19.4233 15.7419 18.4765 16.2841 17.565 16.8076C17.8414 15.6858 19.0469 15.019 20.2584 15.262ZM16.0948 19.9736C16.3418 19.6745 16.5947 19.3753 16.8887 19.0139C16.7828 20.0609 16.1889 21.0331 15.4185 21.513C15.0127 20.3912 15.8008 18.3782 16.7593 18.0354C16.5064 18.6524 16.2477 19.2756 15.9948 19.9051L16.0948 19.9674V19.9736ZM10.6904 27.3963C9.90238 26.0938 9.96707 23.6694 10.8433 22.5725C10.8257 23.015 10.808 23.3952 10.7845 23.9C11.1844 23.2394 11.5313 22.6722 11.9254 22.0241C11.4961 23.8938 11.0903 25.6388 10.6845 27.3963H10.6904ZM13.0486 28.3436C12.1723 27.0099 11.8783 25.751 12.3546 24.3487C12.4605 24.7725 12.5664 25.1963 12.7075 25.7323C13.0192 24.8909 13.3014 24.1306 13.5837 23.3765C13.6661 23.3952 13.7484 23.4139 13.8307 23.4326C13.5778 25.0093 13.3308 26.5861 13.0486 28.3436ZM16.9416 32.1266C15.4538 31.0983 14.607 27.5396 15.4773 26.4739C15.6773 27.3215 15.8831 28.219 16.136 29.3096C16.3653 28.6241 16.5182 28.1753 16.6711 27.7266C16.7358 27.7391 16.8064 27.7515 16.8769 27.764C17.0004 29.2037 17.3886 30.6309 16.9475 32.1266H16.9416ZM19.8467 25.0779C20.1819 25.832 20.4759 26.4864 20.7641 27.1408C19.8349 26.8042 19.488 25.9317 19.8467 25.0779ZM19.0352 28.5742C18.006 27.8887 17.5591 26.5487 17.9413 25.2773C18.1707 25.8819 18.3765 26.4303 18.6235 27.0847C18.7882 26.7918 18.8881 26.6235 19.0293 26.368C19.3468 27.1782 19.3821 27.8637 19.0352 28.5742ZM23.6574 33.5974C23.1811 32.862 22.7047 32.1328 22.2225 31.3974C22.299 31.3413 22.3813 31.2853 22.4577 31.2229C22.8459 32.0331 23.8103 32.4071 23.9279 33.4167L23.6574 33.5974ZM25.9685 26.7045C26.0156 26.6235 26.0862 26.5612 26.1509 26.4926C26.1626 26.4802 26.1979 26.4926 26.2802 26.4926C26.2508 28.1629 25.1158 28.6365 23.7868 28.998C25.257 29.8518 26.1803 28.9481 27.1506 28.0071C26.686 30.1447 24.2043 30.5124 23.0399 29.6088C21.7403 28.5991 20.9876 25.9068 21.6933 24.2739C21.7168 24.4921 21.7344 24.7164 21.7697 24.9346C21.8226 25.3023 21.852 25.6762 21.9579 26.0314C22.2343 26.9476 22.693 27.7266 23.6633 27.9074C24.6865 28.1006 25.4216 27.5833 25.9685 26.7045ZM23.5986 21.0207C23.8985 20.6966 24.0691 20.5221 24.2161 20.3351C24.3807 20.1295 24.5219 19.8989 24.6571 19.6184C23.2164 20.6904 21.7227 21.0768 20.1113 20.036C20.0761 20.0921 20.0349 20.1544 19.9996 20.2105C20.3466 20.5657 20.6876 20.921 21.017 21.2637C20.2995 21.4881 19.7056 21.1142 19.0234 19.9612C18.9293 21.3198 19.3645 21.7312 21.3639 22.1799C20.8288 22.7283 19.9702 22.7408 19.1351 22.2173C18.0648 21.5442 17.812 20.4972 18.3471 18.5963C18.0178 18.8456 17.7708 19.0326 17.5062 19.232C17.6826 16.5646 21.0523 14.8195 23.5339 16.2156C22.2578 16.1159 21.1052 15.9975 20.0702 16.8887C22.2284 16.2717 23.3399 16.4337 24.1749 17.5991C22.7871 16.9385 21.5933 16.9759 20.6053 17.9482C20.8053 18.2224 21.0052 18.4467 21.1522 18.7147C21.4639 19.2756 21.9461 19.4377 22.4754 19.2756C22.9517 19.1261 23.3869 18.8269 23.9456 18.5465C23.7868 18.883 23.6574 19.1572 23.528 19.4314C23.5633 19.4813 23.6045 19.5374 23.6457 19.5872C24.0926 19.1884 24.5395 18.7895 24.9806 18.3969C25.6275 19.3317 25.1394 20.4099 23.6045 21.0144L23.5986 21.0207ZM22.5695 19.0014C22.4813 19.045 22.3989 19.0949 22.3107 19.1385C22.0814 19.0139 21.7873 18.9453 21.6462 18.7521C21.5462 18.615 21.5815 18.1912 21.6991 18.1102C21.9108 17.9544 22.2225 17.9482 22.5871 17.9855C22.0696 18.2909 21.6639 18.5278 22.5695 19.0014ZM26.045 19.849C25.9862 19.8241 25.9274 19.7991 25.8627 19.7804V18.0229C26.1273 18.3657 26.4272 18.5776 26.4155 18.7646C26.3802 19.1385 26.1803 19.4875 26.045 19.849ZM29.2324 21.0207C28.4032 21.1516 27.674 21.2637 26.8565 21.3946C27.28 20.4847 27.9092 20.385 29.2324 21.0207Z" fill="white"/>
<path d="M15.9655 5.52092C15.9655 5.79514 15.9655 6.07559 15.9655 6.34982C15.9243 8.29429 15.383 9.24792 13.5717 8.89268C11.7252 8.53121 10.22 7.09146 9.10269 5.66426C10.42 6.2314 11.7902 6.94188 13.2251 7.40307C14.9011 7.94528 15.2069 7.67729 15.7126 5.88863C15.7538 5.75152 15.8126 5.61441 15.8597 5.47729L15.9655 5.52092Z" fill="white"/>
<path d="M21.0465 6.6303C21.0288 6.88582 21.0582 7.02916 21.0053 7.12265C20.6701 7.70848 20.429 8.53114 19.935 8.7742C19.6351 8.92378 18.6804 8.68172 18.3217 8.21429C17.2984 6.86189 16.5183 5.0286 15.5656 3.61387C15.6303 3.56401 15.7009 3.51415 15.7656 3.46429C16.6536 4.54871 17.518 5.66429 18.4354 6.71755C19.5469 7.99517 19.8057 7.97647 21.0406 6.6303H21.0465Z" fill="white"/>
<path d="M21.3933 5.22803C21.7756 6.08808 22.099 6.9606 22.5459 7.79573C23.2987 9.20423 23.9632 9.27278 25.3334 8.1759C25.1981 8.45635 25.0982 8.7555 24.9276 9.02349C24.2572 10.083 22.969 10.6493 22.3927 9.57115C21.7517 8.36832 21.505 6.56797 21.0581 5.29035L21.3874 5.23426L21.3933 5.22803Z" fill="white"/>
<path d="M7.39732 34.7255C6.63871 33.2609 6.66223 31.6903 7.06212 30.0699C7.24442 31.6031 7.43261 33.1425 7.61491 34.6756C7.54434 34.6943 7.46789 34.713 7.39732 34.7255Z" fill="white"/>
<path d="M28.2385 10.3385C28.0797 10.7124 28.0091 10.9493 27.8856 11.1549C27.4093 11.9402 26.3889 12.0212 26.0949 11.1549C25.6773 9.9147 25.798 8.53737 25.4922 7.25975C25.5804 7.23482 25.6627 7.20989 25.7509 7.19119C26.0097 8.00139 26.239 8.81782 26.5331 9.60932C26.8154 10.3634 27.2446 10.9181 28.2385 10.3447V10.3385Z" fill="white"/>
</g>
<defs>
<clipPath id="clip0_11291_166258">
<rect width="24.4286" height="33.9286" fill="white" transform="translate(6.78564 3.46429)"/>
</clipPath>
</defs>
</svg>
