<svg width="20" height="20" viewBox="0 0 20 20" fill="none" xmlns="http://www.w3.org/2000/svg">
<g clip-path="url(#clip0_1423_25138)">
<path fill-rule="evenodd" clip-rule="evenodd" d="M0 10.0019H20V10C20 4.47703 15.523 0 10 0C4.47703 0 0 4.47703 0 10V10.0019Z" fill="#DA2440"/>
<path fill-rule="evenodd" clip-rule="evenodd" d="M20 10.002H0C0 15.524 4.47798 20 10 20C15.522 20 19.999 15.524 20 10.002Z" fill="#FEFEFE"/>
<path fill-rule="evenodd" clip-rule="evenodd" d="M7.22221 8.54922C6.83249 8.68581 6.41411 8.76032 5.97758 8.76032C3.89906 8.76032 2.21313 7.07534 2.21313 4.99396C2.21313 4.34729 2.37647 3.73883 2.66399 3.20773C3.3269 2.49229 4.09393 1.87332 4.94023 1.37566C5.26978 1.28109 5.61843 1.23047 5.97854 1.23047C6.41506 1.23047 6.8344 1.30497 7.22412 1.44157C5.32805 1.51798 3.81119 3.08165 3.81119 4.99396C3.81119 6.90627 5.32805 8.4728 7.22412 8.55017L7.22221 8.54922Z" fill="#FEFEFE"/>
<path fill-rule="evenodd" clip-rule="evenodd" d="M6.44273 5.08363L5.9317 4.69295L5.41971 5.08363L5.61648 4.45224L5.10449 4.06061L5.73779 4.06538L5.9317 3.43018L6.12847 4.06538L6.75986 4.06061L6.24596 4.45224L6.44273 5.08363Z" fill="#FEFEFE"/>
<path fill-rule="evenodd" clip-rule="evenodd" d="M10.4566 5.08363L9.94461 4.69295L9.43358 5.08363L9.63131 4.45224L9.11646 4.06061L9.75071 4.06538L9.94461 3.43018L10.1395 4.06538L10.7728 4.06061L10.2598 4.45224L10.4566 5.08363Z" fill="#FEFEFE"/>
<path fill-rule="evenodd" clip-rule="evenodd" d="M8.44959 3.59722L7.93951 3.20272L7.42943 3.59722L7.62429 2.96201L7.1123 2.57515H7.74465L7.93951 1.93994L8.13628 2.57515L8.76862 2.57133L8.25568 2.96201L8.44959 3.59722Z" fill="#FEFEFE"/>
<path fill-rule="evenodd" clip-rule="evenodd" d="M7.1944 7.46878L6.68145 7.0781L6.17137 7.46878L6.36719 6.83357L5.85425 6.44576H6.48659L6.68145 5.81055L6.87536 6.44576H7.50866L6.99667 6.83357L7.1944 7.46878Z" fill="#FEFEFE"/>
<path fill-rule="evenodd" clip-rule="evenodd" d="M9.70565 7.46878L9.19175 7.0781L8.68167 7.46878L8.8794 6.83357L8.36646 6.44576H8.99975L9.19175 5.81055L9.38757 6.44576H10.0199L9.50792 6.83357L9.70565 7.46878Z" fill="#FEFEFE"/>
</g>
<defs>
<clipPath id="clip0_1423_25138">
<rect width="20" height="20" fill="white"/>
</clipPath>
</defs>
</svg>
