<svg width="239" height="51" viewBox="0 0 239 51" fill="none" xmlns="http://www.w3.org/2000/svg">
<g style="mix-blend-mode:screen">
<path d="M143.772 8.64L151.728 11.6915L150.475 19.9913L142.519 16.9355L143.772 8.64Z" fill="url(#paint0_linear_1464_21962)"/>
<path d="M143.772 8.64L151.728 11.6915L150.475 19.9913L142.519 16.9355L143.772 8.64Z" stroke="#949494"/>
</g>
<g style="mix-blend-mode:screen">
<path d="M131.077 33.3137L147.707 28.3964L148.873 45.4264L132.244 50.3437L131.077 33.3137Z" fill="url(#paint1_linear_1464_21962)"/>
<path d="M131.077 33.3137L147.707 28.3964L148.873 45.4264L132.244 50.3437L131.077 33.3137Z" stroke="#949494"/>
</g>
<g style="mix-blend-mode:screen">
<path d="M0.536299 15.5927L16.7413 10.3229L18.3558 27.0242L2.15083 32.294L0.536299 15.5927Z" fill="url(#paint2_linear_1464_21962)"/>
<path d="M0.536299 15.5927L16.7413 10.3229L18.3558 27.0242L2.15083 32.294L0.536299 15.5927Z" stroke="#949494"/>
</g>
<g style="mix-blend-mode:screen">
<path d="M13.2646 45.0162L15.1453 34.0877L26.4059 33.4585L24.5252 44.3827L13.2646 45.0162Z" fill="url(#paint3_linear_1464_21962)"/>
<path d="M13.2646 45.0162L15.1453 34.0877L26.4059 33.4585L24.5252 44.3827L13.2646 45.0162Z" stroke="#949494"/>
</g>
<g style="mix-blend-mode:screen">
<path d="M196.172 40.0948L196.171 40.0935C195.78 39.584 195.374 39.348 195.077 39.2247C194.931 39.1639 194.807 39.1288 194.702 39.0991L194.69 39.0957C194.687 39.095 194.685 39.0942 194.682 39.0935C194.639 39.0813 194.567 39.061 194.508 39.0356C194.48 39.0237 194.404 38.9902 194.332 38.9224C194.243 38.8396 194.127 38.6646 194.178 38.4313C194.219 38.2485 194.343 38.139 194.444 38.0869C194.53 38.0426 194.608 38.0329 194.642 38.0296C194.713 38.0229 194.778 38.0305 194.806 38.0339C194.852 38.0395 194.917 38.0504 194.976 38.0605C194.997 38.064 195.017 38.0674 195.035 38.0704C195.201 38.0978 195.424 38.1291 195.69 38.1291C196.216 38.1291 196.925 38.007 197.674 37.4512L196.172 40.0948ZM196.172 40.0948C196.401 40.3909 196.567 40.7282 196.662 41.0871C196.757 41.4461 196.779 41.8198 196.726 42.187C196.674 42.5541 196.548 42.9077 196.355 43.2273C196.162 43.5469 195.907 43.8264 195.603 44.0491L195.603 44.0491L195.599 44.0523C195.452 44.1625 195.294 44.2577 195.127 44.3364L195.105 44.3468L195.084 44.3592C194.761 44.5521 194.402 44.6807 194.027 44.7374C193.653 44.7941 193.271 44.7776 192.903 44.689C192.535 44.6004 192.189 44.4415 191.884 44.2216C191.58 44.0018 191.322 43.7255 191.127 43.4088C190.932 43.0921 190.802 42.7411 190.745 42.3758C190.688 42.0105 190.704 41.6377 190.794 41.2786C190.883 40.9195 191.044 40.5808 191.266 40.2818C191.489 39.9829 191.77 39.7296 192.093 39.5366L192.116 39.5229L192.138 39.5068C192.202 39.4588 192.267 39.4168 192.351 39.3634L193.24 38.7977L192.24 38.4669C192.087 38.4163 191.94 38.3498 191.801 38.2687L191.768 38.2494M196.172 40.0948L191.768 38.2494M191.768 38.2494L191.765 38.2388C191.723 38.0869 191.696 37.9311 191.687 37.7739L191.624 36.7763L190.863 37.4249C190.838 37.4465 190.816 37.4652 190.797 37.4819C190.749 37.5234 190.716 37.5523 190.674 37.5829L190.653 37.5983L190.634 37.6158C190.076 38.1251 189.333 38.3965 188.569 38.368C187.805 38.3396 187.086 38.0137 186.569 37.4648C186.052 36.9162 185.779 36.1897 185.807 35.4455C185.836 34.7012 186.164 33.9967 186.722 33.4878L186.739 33.4719L186.755 33.4544C186.88 33.3165 187.018 33.1902 187.167 33.0771C187.469 32.851 187.813 32.6855 188.181 32.5906C188.549 32.4957 188.932 32.4735 189.309 32.5254C189.686 32.5773 190.048 32.7022 190.375 32.8925C190.702 33.0829 190.986 33.3348 191.212 33.6333L191.212 33.6334L191.215 33.6366C191.588 34.1202 191.702 34.5605 191.739 34.8787C191.757 35.0289 191.759 35.153 191.76 35.2629C191.76 35.2729 191.76 35.2827 191.76 35.2924L191.76 35.2977C191.761 35.3447 191.761 35.4234 191.772 35.493C191.777 35.5266 191.791 35.6075 191.838 35.693C191.893 35.7943 192.019 35.9376 192.236 35.9631C192.404 35.983 192.545 35.9182 192.637 35.8365C192.714 35.768 192.752 35.6929 192.768 35.658C192.801 35.5871 192.814 35.5177 192.819 35.4894C192.829 35.4371 192.839 35.3659 192.847 35.3026C192.849 35.2865 192.851 35.2709 192.853 35.2562C192.875 35.0895 192.908 34.8701 192.984 34.6181C193.133 34.1205 193.449 33.4833 194.19 32.9328C194.493 32.7081 194.838 32.544 195.206 32.4501C195.574 32.3563 195.957 32.3346 196.334 32.3865C196.71 32.4383 197.072 32.5626 197.399 32.7519C197.727 32.9413 198.012 33.1918 198.24 33.4889C198.468 33.7859 198.633 34.1238 198.728 34.483C198.823 34.8422 198.844 35.2162 198.792 35.5835C198.74 35.9509 198.615 36.305 198.423 36.6254L198.852 36.882L198.423 36.6254C198.231 36.9458 197.977 37.2265 197.675 37.4512L191.768 38.2494ZM187.76 41.8878C187.67 42.0108 187.582 42.1372 187.501 42.2648L186.703 41.2311C186.842 41.1917 186.982 41.1459 187.119 41.0967C187.621 40.918 188.179 40.6638 188.729 40.388C188.955 40.2747 189.181 40.1569 189.403 40.0379C189.233 40.2082 189.063 40.3823 188.898 40.5574C188.477 41.002 188.074 41.4616 187.76 41.8878ZM194.679 39.026C194.679 39.0259 194.68 39.026 194.683 39.0264C194.68 39.0262 194.679 39.026 194.679 39.026ZM191.836 35.3081C191.836 35.308 191.836 35.3061 191.837 35.3029C191.836 35.3065 191.836 35.3081 191.836 35.3081Z" fill="url(#paint4_linear_1464_21962)"/>
<path d="M196.172 40.0948L196.171 40.0935C195.78 39.584 195.374 39.348 195.077 39.2247C194.931 39.1639 194.807 39.1288 194.702 39.0991L194.69 39.0957C194.687 39.095 194.685 39.0942 194.682 39.0935C194.639 39.0813 194.567 39.061 194.508 39.0356C194.48 39.0237 194.404 38.9902 194.332 38.9224C194.243 38.8396 194.127 38.6646 194.178 38.4313C194.219 38.2485 194.343 38.139 194.444 38.0869C194.53 38.0426 194.608 38.0329 194.642 38.0296C194.713 38.0229 194.778 38.0305 194.806 38.0339C194.852 38.0395 194.917 38.0504 194.976 38.0605C194.997 38.064 195.017 38.0674 195.035 38.0704C195.201 38.0978 195.424 38.1291 195.69 38.1291C196.216 38.1291 196.925 38.007 197.674 37.4512L196.172 40.0948ZM196.172 40.0948C196.401 40.3909 196.567 40.7282 196.662 41.0871C196.757 41.4461 196.779 41.8198 196.726 42.187C196.674 42.5541 196.548 42.9077 196.355 43.2273C196.162 43.5469 195.907 43.8264 195.603 44.0491L195.603 44.0491L195.599 44.0523C195.452 44.1625 195.294 44.2577 195.127 44.3364L195.105 44.3468L195.084 44.3592C194.761 44.5521 194.402 44.6807 194.027 44.7374C193.653 44.7941 193.271 44.7776 192.903 44.689C192.535 44.6004 192.189 44.4415 191.884 44.2216C191.58 44.0018 191.322 43.7255 191.127 43.4088C190.932 43.0921 190.802 42.7411 190.745 42.3758C190.688 42.0105 190.704 41.6377 190.794 41.2786C190.883 40.9195 191.044 40.5808 191.266 40.2818C191.489 39.9829 191.77 39.7296 192.093 39.5366L192.116 39.5229L192.138 39.5068C192.202 39.4588 192.267 39.4168 192.351 39.3634L193.24 38.7977L192.24 38.4669C192.087 38.4163 191.94 38.3498 191.801 38.2687L191.768 38.2494M196.172 40.0948L191.768 38.2494M191.768 38.2494L191.765 38.2388C191.723 38.0869 191.696 37.9311 191.687 37.7739L191.624 36.7763L190.863 37.4249C190.838 37.4465 190.816 37.4652 190.797 37.4819C190.749 37.5234 190.716 37.5523 190.674 37.5829L190.653 37.5983L190.634 37.6158C190.076 38.1251 189.333 38.3965 188.569 38.368C187.805 38.3396 187.086 38.0137 186.569 37.4648C186.052 36.9162 185.779 36.1897 185.807 35.4455C185.836 34.7012 186.164 33.9967 186.722 33.4878L186.739 33.4719L186.755 33.4544C186.88 33.3165 187.018 33.1902 187.167 33.0771C187.469 32.851 187.813 32.6855 188.181 32.5906C188.549 32.4957 188.932 32.4735 189.309 32.5254C189.686 32.5773 190.048 32.7022 190.375 32.8925C190.702 33.0829 190.986 33.3348 191.212 33.6333L191.212 33.6334L191.215 33.6366C191.588 34.1202 191.702 34.5605 191.739 34.8787C191.757 35.0289 191.759 35.153 191.76 35.2629C191.76 35.2729 191.76 35.2827 191.76 35.2924L191.76 35.2977C191.761 35.3447 191.761 35.4234 191.772 35.493C191.777 35.5266 191.791 35.6075 191.838 35.693C191.893 35.7943 192.019 35.9376 192.236 35.9631C192.404 35.983 192.545 35.9182 192.637 35.8365C192.714 35.768 192.752 35.6929 192.768 35.658C192.801 35.5871 192.814 35.5177 192.819 35.4894C192.829 35.4371 192.839 35.3659 192.847 35.3026C192.849 35.2865 192.851 35.2709 192.853 35.2562C192.875 35.0895 192.908 34.8701 192.984 34.6181C193.133 34.1205 193.449 33.4833 194.19 32.9328C194.493 32.7081 194.838 32.544 195.206 32.4501C195.574 32.3563 195.957 32.3346 196.334 32.3865C196.71 32.4383 197.072 32.5626 197.399 32.7519C197.727 32.9413 198.012 33.1918 198.24 33.4889C198.468 33.7859 198.633 34.1238 198.728 34.483C198.823 34.8422 198.844 35.2162 198.792 35.5835C198.74 35.9509 198.615 36.305 198.423 36.6254L198.852 36.882L198.423 36.6254C198.231 36.9458 197.977 37.2265 197.675 37.4512L191.768 38.2494ZM187.76 41.8878C187.67 42.0108 187.582 42.1372 187.501 42.2648L186.703 41.2311C186.842 41.1917 186.982 41.1459 187.119 41.0967C187.621 40.918 188.179 40.6638 188.729 40.388C188.955 40.2747 189.181 40.1569 189.403 40.0379C189.233 40.2082 189.063 40.3823 188.898 40.5574C188.477 41.002 188.074 41.4616 187.76 41.8878ZM194.679 39.026C194.679 39.0259 194.68 39.026 194.683 39.0264C194.68 39.0262 194.679 39.026 194.679 39.026ZM191.836 35.3081C191.836 35.308 191.836 35.3061 191.837 35.3029C191.836 35.3065 191.836 35.3081 191.836 35.3081Z" stroke="#949494"/>
</g>
<g style="mix-blend-mode:screen">
<path d="M108.901 36.2549C109.751 35.6355 110.8 35.3355 111.858 35.4106C111.981 35.425 112.104 35.4455 112.226 35.4721L113.282 35.7032L112.774 34.7489C112.658 34.5312 112.567 34.302 112.502 34.0651L112.461 33.9163L112.525 33.7999C112.644 33.5843 112.785 33.3813 112.947 33.1942L113.646 32.3847L112.576 32.3675C112.455 32.3655 112.335 32.3572 112.215 32.3426L112.211 32.3423C111.117 32.2166 110.11 31.6946 109.388 30.8803C108.665 30.0663 108.278 29.0182 108.299 27.9406C108.32 26.863 108.748 25.8302 109.501 25.0437C110.255 24.257 111.281 23.7733 112.38 23.6889L112.38 23.689L112.391 23.688C112.678 23.6598 112.968 23.6598 113.256 23.688L113.28 23.6904H113.305H113.312C114.47 23.8363 115.52 24.4241 116.238 25.3247C116.962 26.2325 117.288 27.3841 117.149 28.5268L117.149 28.5272C117.036 29.4508 116.686 30.0617 116.379 30.4585C116.236 30.6444 116.102 30.7842 115.99 30.9003C115.981 30.9104 115.971 30.9203 115.962 30.93L115.96 30.932C115.91 30.9841 115.841 31.0563 115.791 31.1252C115.767 31.158 115.718 31.2283 115.69 31.3232C115.657 31.432 115.639 31.6267 115.777 31.8045L116.172 31.4992L115.777 31.8045C115.884 31.9436 116.036 31.9996 116.164 32.0054C116.27 32.0103 116.353 31.9815 116.391 31.9667C116.469 31.9362 116.534 31.8916 116.566 31.8689C116.623 31.829 116.696 31.7709 116.769 31.7135C116.789 31.6977 116.809 31.6819 116.828 31.6665C117.026 31.5112 117.297 31.3053 117.652 31.1069C118.355 30.7128 119.394 30.3418 120.795 30.5091L120.795 30.5091L120.804 30.51C121.39 30.5696 121.957 30.7433 122.473 31.0207C122.989 31.2981 123.444 31.6735 123.81 32.1247C124.176 32.5758 124.447 33.0936 124.607 33.6479C124.767 34.2022 124.813 34.7822 124.743 35.3541C124.673 35.926 124.488 36.4788 124.199 36.9803C123.909 37.4818 123.52 37.9221 123.055 38.2752C122.59 38.6283 122.057 38.8871 121.488 39.036C120.919 39.185 120.326 39.221 119.743 39.1421L119.743 39.142L119.734 39.141C118.316 38.9736 117.401 38.3675 116.824 37.82C116.533 37.544 116.324 37.2798 116.175 37.0825C116.157 37.0585 116.139 37.0334 116.12 37.0084C116.069 36.9404 116.019 36.8724 115.979 36.8247C115.955 36.7952 115.906 36.737 115.843 36.6884C115.813 36.6652 115.743 36.6147 115.641 36.589C115.517 36.5578 115.348 36.566 115.2 36.6792C115.015 36.8202 114.987 37.0209 114.994 37.1371C115 37.2364 115.033 37.3158 115.048 37.3508C115.078 37.4233 115.126 37.5043 115.16 37.5625L115.165 37.57L115.174 37.5859C115.253 37.7214 115.352 37.8894 115.447 38.1094C115.643 38.5586 115.832 39.2415 115.715 40.2052C115.569 41.3439 114.971 42.3816 114.048 43.09C113.124 43.7989 111.95 44.1195 110.785 43.9796L110.755 43.9761H110.725H110.717C110.448 43.9423 110.183 43.8823 109.927 43.7969C108.94 43.4182 108.126 42.7052 107.629 41.7889C107.132 40.8699 106.986 39.8064 107.219 38.7917C107.452 37.7768 108.048 36.8762 108.901 36.2549ZM104.809 33.9956C104.476 34.0544 104.151 34.1257 103.856 34.2153L104.172 31.6416C104.439 31.7986 104.74 31.9444 105.053 32.08C105.749 32.3818 106.584 32.665 107.436 32.9193C108.399 33.2066 109.398 33.461 110.27 33.6666C109.372 33.6629 108.338 33.6775 107.332 33.7328C106.441 33.7819 105.56 33.8635 104.809 33.9956ZM115.198 37.4495C115.198 37.4492 115.198 37.4499 115.2 37.4517C115.199 37.4505 115.198 37.4497 115.198 37.4495ZM115.98 31.0584C115.98 31.0583 115.981 31.0576 115.983 31.0564C115.981 31.0578 115.98 31.0584 115.98 31.0584Z" fill="url(#paint5_linear_1464_21962)"/>
<path d="M108.901 36.2549C109.751 35.6355 110.8 35.3355 111.858 35.4106C111.981 35.425 112.104 35.4455 112.226 35.4721L113.282 35.7032L112.774 34.7489C112.658 34.5312 112.567 34.302 112.502 34.0651L112.461 33.9163L112.525 33.7999C112.644 33.5843 112.785 33.3813 112.947 33.1942L113.646 32.3847L112.576 32.3675C112.455 32.3655 112.335 32.3572 112.215 32.3426L112.211 32.3423C111.117 32.2166 110.11 31.6946 109.388 30.8803C108.665 30.0663 108.278 29.0182 108.299 27.9406C108.32 26.863 108.748 25.8302 109.501 25.0437C110.255 24.257 111.281 23.7733 112.38 23.6889L112.38 23.689L112.391 23.688C112.678 23.6598 112.968 23.6598 113.256 23.688L113.28 23.6904H113.305H113.312C114.47 23.8363 115.52 24.4241 116.238 25.3247C116.962 26.2325 117.288 27.3841 117.149 28.5268L117.149 28.5272C117.036 29.4508 116.686 30.0617 116.379 30.4585C116.236 30.6444 116.102 30.7842 115.99 30.9003C115.981 30.9104 115.971 30.9203 115.962 30.93L115.96 30.932C115.91 30.9841 115.841 31.0563 115.791 31.1252C115.767 31.158 115.718 31.2283 115.69 31.3232C115.657 31.432 115.639 31.6267 115.777 31.8045L116.172 31.4992L115.777 31.8045C115.884 31.9436 116.036 31.9996 116.164 32.0054C116.27 32.0103 116.353 31.9815 116.391 31.9667C116.469 31.9362 116.534 31.8916 116.566 31.8689C116.623 31.829 116.696 31.7709 116.769 31.7135C116.789 31.6977 116.809 31.6819 116.828 31.6665C117.026 31.5112 117.297 31.3053 117.652 31.1069C118.355 30.7128 119.394 30.3418 120.795 30.5091L120.795 30.5091L120.804 30.51C121.39 30.5696 121.957 30.7433 122.473 31.0207C122.989 31.2981 123.444 31.6735 123.81 32.1247C124.176 32.5758 124.447 33.0936 124.607 33.6479C124.767 34.2022 124.813 34.7822 124.743 35.3541C124.673 35.926 124.488 36.4788 124.199 36.9803C123.909 37.4818 123.52 37.9221 123.055 38.2752C122.59 38.6283 122.057 38.8871 121.488 39.036C120.919 39.185 120.326 39.221 119.743 39.1421L119.743 39.142L119.734 39.141C118.316 38.9736 117.401 38.3675 116.824 37.82C116.533 37.544 116.324 37.2798 116.175 37.0825C116.157 37.0585 116.139 37.0334 116.12 37.0084C116.069 36.9404 116.019 36.8724 115.979 36.8247C115.955 36.7952 115.906 36.737 115.843 36.6884C115.813 36.6652 115.743 36.6147 115.641 36.589C115.517 36.5578 115.348 36.566 115.2 36.6792C115.015 36.8202 114.987 37.0209 114.994 37.1371C115 37.2364 115.033 37.3158 115.048 37.3508C115.078 37.4233 115.126 37.5043 115.16 37.5625L115.165 37.57L115.174 37.5859C115.253 37.7214 115.352 37.8894 115.447 38.1094C115.643 38.5586 115.832 39.2415 115.715 40.2052C115.569 41.3439 114.971 42.3816 114.048 43.09C113.124 43.7989 111.95 44.1195 110.785 43.9796L110.755 43.9761H110.725H110.717C110.448 43.9423 110.183 43.8823 109.927 43.7969C108.94 43.4182 108.126 42.7052 107.629 41.7889C107.132 40.8699 106.986 39.8064 107.219 38.7917C107.452 37.7768 108.048 36.8762 108.901 36.2549ZM104.809 33.9956C104.476 34.0544 104.151 34.1257 103.856 34.2153L104.172 31.6416C104.439 31.7986 104.74 31.9444 105.053 32.08C105.749 32.3818 106.584 32.665 107.436 32.9193C108.399 33.2066 109.398 33.461 110.27 33.6666C109.372 33.6629 108.338 33.6775 107.332 33.7328C106.441 33.7819 105.56 33.8635 104.809 33.9956ZM115.198 37.4495C115.198 37.4492 115.198 37.4499 115.2 37.4517C115.199 37.4505 115.198 37.4497 115.198 37.4495ZM115.98 31.0584C115.98 31.0583 115.981 31.0576 115.983 31.0564C115.981 31.0578 115.98 31.0584 115.98 31.0584Z" stroke="#949494"/>
</g>
<g style="mix-blend-mode:screen">
<path d="M99.837 12.0151L99.8372 12.015C100.4 11.7345 101.015 11.5659 101.645 11.5193C102.275 11.4726 102.908 11.5489 103.508 11.7435C104.108 11.9381 104.663 12.2472 105.14 12.6526C105.618 13.0579 106.008 13.5516 106.291 14.1051L106.292 14.1071C106.431 14.3765 106.54 14.6597 106.618 14.9517C106.905 16.0651 106.767 17.2435 106.231 18.2648C105.694 19.287 104.794 20.0821 103.699 20.4977C102.603 20.9133 101.391 20.9195 100.291 20.5153C99.1924 20.1114 98.2842 19.3265 97.7362 18.311C97.6732 18.1909 97.6177 18.0694 97.5655 17.941L97.168 16.9633L96.6632 17.8902C96.5362 18.1233 96.3833 18.3421 96.2071 18.5424L96.1084 18.6548L95.9255 18.6735C95.6553 18.7011 95.383 18.7011 95.1128 18.6735L94.0962 18.5696L94.6381 19.436C94.7117 19.5537 94.7785 19.6651 94.8351 19.7759C95.3306 20.8111 95.4252 21.9878 95.1018 23.0863C94.7779 24.1868 94.0559 25.135 93.0693 25.7512C92.0825 26.3676 90.8998 26.6086 89.7438 26.4279C88.5886 26.2473 87.5419 25.6584 86.7993 24.7739C86.6081 24.5416 86.4429 24.2899 86.3066 24.0232L86.3064 24.023C85.7378 22.9123 85.6396 21.6262 86.0327 20.4451C86.4258 19.2639 87.2792 18.2815 88.4092 17.7149C89.3214 17.2598 90.0956 17.2028 90.6471 17.2359C90.9043 17.2514 91.1139 17.2862 91.2857 17.3148C91.301 17.3173 91.316 17.3198 91.3307 17.3222L91.3319 17.3224C91.4101 17.3353 91.5142 17.3525 91.603 17.3552C91.6449 17.3564 91.7309 17.3569 91.8254 17.3274C91.9323 17.294 92.1067 17.2003 92.1781 16.9839C92.2344 16.8131 92.1924 16.6532 92.1233 16.5438C92.0661 16.4532 91.9945 16.4013 91.9608 16.3787C91.891 16.332 91.816 16.3033 91.7765 16.2886C91.708 16.2633 91.6137 16.2343 91.5191 16.2052C91.492 16.1969 91.465 16.1886 91.4385 16.1804C91.1787 16.0995 90.8274 15.9831 90.4334 15.7893C89.6532 15.4055 88.6977 14.7148 88.0118 13.3885C87.5357 12.2928 87.5001 11.0606 87.9125 9.94009C88.3267 8.81461 89.1625 7.88461 90.252 7.34181C91.3417 6.7989 92.6017 6.68512 93.7743 7.02431C94.9419 7.36201 95.933 8.12263 96.5494 9.1495C97.2354 10.4901 97.2293 11.6496 97.0761 12.4819C96.9987 12.9029 96.8828 13.2443 96.792 13.4927C96.781 13.5227 96.7696 13.5535 96.7582 13.5843C96.7265 13.6696 96.6951 13.7544 96.6752 13.8174C96.6631 13.856 96.6401 13.9316 96.634 14.0137C96.6311 14.0529 96.6276 14.1417 96.6639 14.2432C96.7083 14.367 96.8115 14.5011 96.9858 14.5599C97.2013 14.6326 97.3819 14.55 97.4758 14.4805C97.5564 14.4208 97.6064 14.35 97.629 14.3166C97.6754 14.2479 97.7198 14.1593 97.7526 14.0939L97.7562 14.0867C97.7595 14.0802 97.7628 14.0736 97.7662 14.0669C97.8416 13.9165 97.9357 13.7289 98.0787 13.5129C98.3726 13.0688 98.8842 12.4892 99.837 12.0151ZM100.721 25.2982C100.983 25.5648 101.251 25.8137 101.517 26.0221L98.9075 27.322C98.8946 26.9826 98.8484 26.6179 98.7838 26.248C98.6456 25.4554 98.4064 24.5524 98.1294 23.6512C97.7905 22.5485 97.3898 21.4314 97.0345 20.496C97.5902 21.3337 98.2713 22.317 98.9781 23.2423C99.5535 23.9957 100.153 24.72 100.721 25.2982ZM91.4451 17.2327C91.445 17.2327 91.4441 17.2323 91.4425 17.2316C91.4444 17.2323 91.4452 17.2327 91.4451 17.2327ZM97.6245 14.1335C97.6245 14.1335 97.6247 14.1327 97.6252 14.1309C97.6248 14.1326 97.6245 14.1335 97.6245 14.1335Z" fill="url(#paint6_linear_1464_21962)"/>
<path d="M99.837 12.0151L99.8372 12.015C100.4 11.7345 101.015 11.5659 101.645 11.5193C102.275 11.4726 102.908 11.5489 103.508 11.7435C104.108 11.9381 104.663 12.2472 105.14 12.6526C105.618 13.0579 106.008 13.5516 106.291 14.1051L106.292 14.1071C106.431 14.3765 106.54 14.6597 106.618 14.9517C106.905 16.0651 106.767 17.2435 106.231 18.2648C105.694 19.287 104.794 20.0821 103.699 20.4977C102.603 20.9133 101.391 20.9195 100.291 20.5153C99.1924 20.1114 98.2842 19.3265 97.7362 18.311C97.6732 18.1909 97.6177 18.0694 97.5655 17.941L97.168 16.9633L96.6632 17.8902C96.5362 18.1233 96.3833 18.3421 96.2071 18.5424L96.1084 18.6548L95.9255 18.6735C95.6553 18.7011 95.383 18.7011 95.1128 18.6735L94.0962 18.5696L94.6381 19.436C94.7117 19.5537 94.7785 19.6651 94.8351 19.7759C95.3306 20.8111 95.4252 21.9878 95.1018 23.0863C94.7779 24.1868 94.0559 25.135 93.0693 25.7512C92.0825 26.3676 90.8998 26.6086 89.7438 26.4279C88.5886 26.2473 87.5419 25.6584 86.7993 24.7739C86.6081 24.5416 86.4429 24.2899 86.3066 24.0232L86.3064 24.023C85.7378 22.9123 85.6396 21.6262 86.0327 20.4451C86.4258 19.2639 87.2792 18.2815 88.4092 17.7149C89.3214 17.2598 90.0956 17.2028 90.6471 17.2359C90.9043 17.2514 91.1139 17.2862 91.2857 17.3148C91.301 17.3173 91.316 17.3198 91.3307 17.3222L91.3319 17.3224C91.4101 17.3353 91.5142 17.3525 91.603 17.3552C91.6449 17.3564 91.7309 17.3569 91.8254 17.3274C91.9323 17.294 92.1067 17.2003 92.1781 16.9839C92.2344 16.8131 92.1924 16.6532 92.1233 16.5438C92.0661 16.4532 91.9945 16.4013 91.9608 16.3787C91.891 16.332 91.816 16.3033 91.7765 16.2886C91.708 16.2633 91.6137 16.2343 91.5191 16.2052C91.492 16.1969 91.465 16.1886 91.4385 16.1804C91.1787 16.0995 90.8274 15.9831 90.4334 15.7893C89.6532 15.4055 88.6977 14.7148 88.0118 13.3885C87.5357 12.2928 87.5001 11.0606 87.9125 9.94009C88.3267 8.81461 89.1625 7.88461 90.252 7.34181C91.3417 6.7989 92.6017 6.68512 93.7743 7.02431C94.9419 7.36201 95.933 8.12263 96.5494 9.1495C97.2354 10.4901 97.2293 11.6496 97.0761 12.4819C96.9987 12.9029 96.8828 13.2443 96.792 13.4927C96.781 13.5227 96.7696 13.5535 96.7582 13.5843C96.7265 13.6696 96.6951 13.7544 96.6752 13.8174C96.6631 13.856 96.6401 13.9316 96.634 14.0137C96.6311 14.0529 96.6276 14.1417 96.6639 14.2432C96.7083 14.367 96.8115 14.5011 96.9858 14.5599C97.2013 14.6326 97.3819 14.55 97.4758 14.4805C97.5564 14.4208 97.6064 14.35 97.629 14.3166C97.6754 14.2479 97.7198 14.1593 97.7526 14.0939L97.7562 14.0867C97.7595 14.0802 97.7628 14.0736 97.7662 14.0669C97.8416 13.9165 97.9357 13.7289 98.0787 13.5129C98.3726 13.0688 98.8842 12.4892 99.837 12.0151ZM100.721 25.2982C100.983 25.5648 101.251 25.8137 101.517 26.0221L98.9075 27.322C98.8946 26.9826 98.8484 26.6179 98.7838 26.248C98.6456 25.4554 98.4064 24.5524 98.1294 23.6512C97.7905 22.5485 97.3898 21.4314 97.0345 20.496C97.5902 21.3337 98.2713 22.317 98.9781 23.2423C99.5535 23.9957 100.153 24.72 100.721 25.2982ZM91.4451 17.2327C91.445 17.2327 91.4441 17.2323 91.4425 17.2316C91.4444 17.2323 91.4452 17.2327 91.4451 17.2327ZM97.6245 14.1335C97.6245 14.1335 97.6247 14.1327 97.6252 14.1309C97.6248 14.1326 97.6245 14.1335 97.6245 14.1335Z" stroke="#949494"/>
</g>
<g style="mix-blend-mode:screen">
<path d="M132.275 16.4337C131.016 16.7314 129.69 16.5598 128.553 15.9529C128.417 15.8769 128.287 15.8003 128.166 15.7177L127.277 15.1149L127.388 16.1828C127.418 16.4745 127.418 16.7684 127.388 17.0601L127.367 17.2575L127.238 17.3622C127.009 17.5478 126.762 17.7102 126.499 17.8468L125.561 18.3354L126.534 18.7502C126.669 18.8078 126.8 18.8679 126.928 18.9352C128.062 19.5488 128.922 20.5524 129.345 21.7507C129.769 22.9498 129.726 24.2606 129.224 25.4304C128.723 26.6005 127.797 27.5483 126.624 28.0884C125.45 28.6287 124.115 28.7221 122.875 28.3501L122.874 28.3498C122.553 28.2542 122.243 28.126 121.948 27.9675L121.948 27.9673C120.73 27.3123 119.829 26.2097 119.44 24.9041C119.051 23.5992 119.204 22.1958 119.866 21.0012C120.411 20.0381 121.076 19.5172 121.596 19.2121C121.836 19.0711 122.046 18.9758 122.217 18.8979C122.234 18.8903 122.25 18.8828 122.266 18.8755C122.345 18.8395 122.448 18.7927 122.527 18.7421C122.565 18.7183 122.638 18.6686 122.701 18.5882C122.774 18.4958 122.861 18.3181 122.797 18.1004C122.746 17.931 122.624 17.8243 122.508 17.7726C122.41 17.7293 122.322 17.7254 122.28 17.7252C122.194 17.7249 122.113 17.7431 122.068 17.7537C121.991 17.7721 121.889 17.803 121.784 17.8343C121.756 17.8428 121.728 17.8513 121.7 17.8596C121.416 17.944 121.027 18.0524 120.551 18.1174C119.603 18.2467 118.301 18.2061 116.842 17.4236L116.842 17.4235L116.835 17.4199C116.219 17.1023 115.675 16.6677 115.233 16.1417C114.791 15.6158 114.46 15.009 114.26 14.3568C114.059 13.7047 113.993 13.02 114.064 12.3425C114.135 11.665 114.343 11.0079 114.675 10.4096C115.007 9.81123 115.458 9.2834 116 8.85719C116.543 8.43097 117.167 8.11498 117.836 7.92805C118.505 7.7411 119.205 7.68705 119.896 7.76912C120.586 7.85119 121.253 8.0677 121.857 8.4057L121.857 8.40577L121.865 8.41005C123.331 9.19642 124.06 10.2511 124.447 11.1C124.643 11.5275 124.753 11.9066 124.827 12.1853C124.837 12.2204 124.846 12.2564 124.855 12.2921C124.88 12.3863 124.904 12.4781 124.925 12.5444C124.938 12.586 124.963 12.6626 125.005 12.7342C125.025 12.7682 125.072 12.843 125.159 12.9059C125.264 12.9823 125.426 13.0371 125.606 12.9858C125.83 12.9221 125.932 12.7462 125.968 12.6343C126 12.5381 126 12.4499 125.999 12.4083C125.997 12.3224 125.982 12.2195 125.97 12.1408L125.969 12.1321L125.966 12.1119C125.939 11.9315 125.905 11.7039 125.898 11.4203C125.883 10.8406 125.98 10.0082 126.536 9.00342C127.201 7.81645 128.317 6.93369 129.643 6.55036C130.969 6.16708 132.396 6.31501 133.61 6.96108C133.906 7.12153 134.184 7.31033 134.441 7.52467C135.427 8.3487 136.065 9.50137 136.236 10.7591C136.406 12.0168 136.097 13.2928 135.367 14.3409C134.636 15.3892 133.535 16.1357 132.275 16.4337ZM132.245 20.4823C131.148 19.6158 129.971 18.7804 129.012 18.1257C130.088 18.5667 131.437 19.0933 132.768 19.5385C133.75 19.8671 134.734 20.1552 135.598 20.331C136.026 20.4182 136.446 20.4825 136.832 20.505L135.252 23.3486C135.026 23.0358 134.744 22.7186 134.439 22.4077C133.826 21.7826 133.052 21.1203 132.245 20.4823ZM122.32 18.7223C122.32 18.7223 122.319 18.7225 122.317 18.7227L122.32 18.7223ZM125.885 12.2641C125.885 12.2641 125.885 12.2637 125.885 12.2627L125.885 12.2641Z" fill="url(#paint7_linear_1464_21962)"/>
<path d="M132.275 16.4337C131.016 16.7314 129.69 16.5598 128.553 15.9529C128.417 15.8769 128.287 15.8003 128.166 15.7177L127.277 15.1149L127.388 16.1828C127.418 16.4745 127.418 16.7684 127.388 17.0601L127.367 17.2575L127.238 17.3622C127.009 17.5478 126.762 17.7102 126.499 17.8468L125.561 18.3354L126.534 18.7502C126.669 18.8078 126.8 18.8679 126.928 18.9352C128.062 19.5488 128.922 20.5524 129.345 21.7507C129.769 22.9498 129.726 24.2606 129.224 25.4304C128.723 26.6005 127.797 27.5483 126.624 28.0884C125.45 28.6287 124.115 28.7221 122.875 28.3501L122.874 28.3498C122.553 28.2542 122.243 28.126 121.948 27.9675L121.948 27.9673C120.73 27.3123 119.829 26.2097 119.44 24.9041C119.051 23.5992 119.204 22.1958 119.866 21.0012C120.411 20.0381 121.076 19.5172 121.596 19.2121C121.836 19.0711 122.046 18.9758 122.217 18.8979C122.234 18.8903 122.25 18.8828 122.266 18.8755C122.345 18.8395 122.448 18.7927 122.527 18.7421C122.565 18.7183 122.638 18.6686 122.701 18.5882C122.774 18.4958 122.861 18.3181 122.797 18.1004C122.746 17.931 122.624 17.8243 122.508 17.7726C122.41 17.7293 122.322 17.7254 122.28 17.7252C122.194 17.7249 122.113 17.7431 122.068 17.7537C121.991 17.7721 121.889 17.803 121.784 17.8343C121.756 17.8428 121.728 17.8513 121.7 17.8596C121.416 17.944 121.027 18.0524 120.551 18.1174C119.603 18.2467 118.301 18.2061 116.842 17.4236L116.842 17.4235L116.835 17.4199C116.219 17.1023 115.675 16.6677 115.233 16.1417C114.791 15.6158 114.46 15.009 114.26 14.3568C114.059 13.7047 113.993 13.02 114.064 12.3425C114.135 11.665 114.343 11.0079 114.675 10.4096C115.007 9.81123 115.458 9.2834 116 8.85719C116.543 8.43097 117.167 8.11498 117.836 7.92805C118.505 7.7411 119.205 7.68705 119.896 7.76912C120.586 7.85119 121.253 8.0677 121.857 8.4057L121.857 8.40577L121.865 8.41005C123.331 9.19642 124.06 10.2511 124.447 11.1C124.643 11.5275 124.753 11.9066 124.827 12.1853C124.837 12.2204 124.846 12.2564 124.855 12.2921C124.88 12.3863 124.904 12.4781 124.925 12.5444C124.938 12.586 124.963 12.6626 125.005 12.7342C125.025 12.7682 125.072 12.843 125.159 12.9059C125.264 12.9823 125.426 13.0371 125.606 12.9858C125.83 12.9221 125.932 12.7462 125.968 12.6343C126 12.5381 126 12.4499 125.999 12.4083C125.997 12.3224 125.982 12.2195 125.97 12.1408L125.969 12.1321L125.966 12.1119C125.939 11.9315 125.905 11.7039 125.898 11.4203C125.883 10.8406 125.98 10.0082 126.536 9.00342C127.201 7.81645 128.317 6.93369 129.643 6.55036C130.969 6.16708 132.396 6.31501 133.61 6.96108C133.906 7.12153 134.184 7.31033 134.441 7.52467C135.427 8.3487 136.065 9.50137 136.236 10.7591C136.406 12.0168 136.097 13.2928 135.367 14.3409C134.636 15.3892 133.535 16.1357 132.275 16.4337ZM132.245 20.4823C131.148 19.6158 129.971 18.7804 129.012 18.1257C130.088 18.5667 131.437 19.0933 132.768 19.5385C133.75 19.8671 134.734 20.1552 135.598 20.331C136.026 20.4182 136.446 20.4825 136.832 20.505L135.252 23.3486C135.026 23.0358 134.744 22.7186 134.439 22.4077C133.826 21.7826 133.052 21.1203 132.245 20.4823ZM122.32 18.7223C122.32 18.7223 122.319 18.7225 122.317 18.7227L122.32 18.7223ZM125.885 12.2641C125.885 12.2641 125.885 12.2637 125.885 12.2627L125.885 12.2641Z" stroke="#949494"/>
</g>
<path d="M165.973 24.5801L165.972 24.5805C164.835 25.2028 163.923 26.1245 163.414 27.1337C162.907 28.1382 162.809 29.2061 163.243 30.1779L162.396 30.694C161.727 29.8573 160.717 29.4367 159.572 29.4033C158.422 29.3698 157.164 29.7301 156.073 30.4248L156.072 30.4254C153.763 31.8897 152.693 34.8795 154.571 37.9616L165.973 24.5801ZM165.973 24.5801C168.374 23.2604 171.57 23.7391 173.457 26.8311L173.457 26.8312C174.303 28.2171 174.513 29.7561 174.346 31.4538C174.179 33.1622 173.633 34.9963 172.995 36.9525C172.224 39.2541 171.585 41.5961 171.079 43.9676M165.973 24.5801L171.079 43.9676M171.079 43.9676C168.714 43.2875 166.312 42.7411 163.883 42.3311C161.828 41.9641 159.923 41.5737 158.308 40.914C156.703 40.2578 155.418 39.3484 154.571 37.9617L171.079 43.9676Z" fill="url(#paint8_linear_1464_21962)" stroke="#949494"/>
<path d="M171.246 17.7951L172.033 17.7229C172.361 18.8033 173.445 19.6988 174.852 20.0537L171.246 17.7951ZM171.246 17.7951L170.589 17.3501C169.772 18.1501 168.382 18.4244 166.976 18.0703C166.065 17.8359 165.287 17.2575 164.809 16.4638C164.332 15.6702 164.193 14.7244 164.421 13.8316C164.703 12.7435 165.364 11.9 166.339 11.1274C167.327 10.3451 168.598 9.66345 170.066 8.88391L170.066 8.8839C171.911 7.90457 173.118 7.05876 173.871 6.44957C174.038 6.31418 174.183 6.19049 174.307 6.07963C174.362 6.23449 174.428 6.40981 174.508 6.60555C174.872 7.4962 175.519 8.80917 176.661 10.5404C177.57 11.9189 178.354 13.1152 178.837 14.2643C179.315 15.3985 179.482 16.4449 179.194 17.5269L179.193 17.5294C178.96 18.4266 178.373 19.1983 177.559 19.6728C176.744 20.1474 175.771 20.2848 174.853 20.0538L171.246 17.7951ZM171.06 22.0218L169.354 21.5905C169.37 21.5739 169.385 21.5571 169.4 21.5403C169.692 21.2169 169.959 20.8241 170.2 20.4128C170.473 19.9473 170.723 19.4406 170.945 18.9539C170.902 19.483 170.875 20.0439 170.888 20.5804C170.899 21.056 170.943 21.5285 171.043 21.9521C171.048 21.9753 171.054 21.9986 171.06 22.0218Z" fill="url(#paint9_linear_1464_21962)" stroke="#949494"/>
<path d="M50.5657 25.1767L50.566 25.1771C52.3902 27.364 53.9925 29.2982 55.0718 31.2175C56.1434 33.1232 56.6763 34.9757 56.3976 36.9979C56.2798 37.8308 55.9964 38.6332 55.5631 39.359C55.1297 40.0852 54.5548 40.7208 53.8708 41.2292C53.1868 41.7376 52.4072 42.1087 51.5766 42.321C50.7459 42.5333 49.8808 42.5825 49.0306 42.4657L49.0306 42.4657C46.4571 42.1124 44.2847 40.7235 43.4453 38.7724L42.486 38.9708C42.4884 40.3533 42.5121 42.1119 42.7338 43.7092C42.8447 44.5083 43.0072 45.2829 43.2488 45.9584C43.3345 46.1983 43.4319 46.4303 43.543 46.6492L39.2228 46.057C39.3889 45.8777 39.5457 45.6823 39.6937 45.4763C40.1135 44.8921 40.4852 44.1911 40.8142 43.452C41.4719 41.9749 41.984 40.2885 42.3692 38.9575L41.5015 38.5023C40.1516 40.156 37.6732 40.9063 35.0997 40.553L35.0989 40.5529C34.2488 40.4376 33.4304 40.1588 32.6905 39.7326C31.9506 39.3064 31.3038 38.7412 30.7868 38.0699C30.2699 37.3985 29.8927 36.6339 29.6765 35.82C29.4604 35.0062 29.4093 34.1587 29.5262 33.3256C29.8142 31.3032 30.8381 29.6625 32.3968 28.1157C33.9665 26.558 36.0451 25.1272 38.4079 23.5133C41.367 21.492 43.2581 19.8242 44.4149 18.6529C44.8639 18.1981 45.2023 17.8183 45.4495 17.5216C45.6061 17.8728 45.8273 18.328 46.1336 18.8847C46.9245 20.3219 48.2833 22.4348 50.5657 25.1767Z" fill="url(#paint10_linear_1464_21962)" stroke="#949494"/>
<path d="M236.082 35.3816L236.082 35.3822C236.942 36.8953 237.683 38.2133 238.113 39.4624C238.538 40.6965 238.644 41.822 238.27 42.9555C237.958 43.8927 237.28 44.6721 236.381 45.1204C235.482 45.5689 234.438 45.648 233.48 45.3398L233.479 45.3398C232.013 44.8691 230.924 43.8436 230.657 42.6703L229.841 42.6879L229.204 42.1935C228.276 42.9901 226.78 43.1827 225.314 42.7124C224.356 42.4028 223.566 41.7328 223.113 40.8525C222.66 39.9723 222.581 38.9521 222.892 38.0151L222.892 38.0146C223.269 36.8782 224.031 36.0276 225.117 35.2772C226.215 34.5185 227.606 33.887 229.209 33.1725L229.209 33.1725L229.211 33.1717C231.222 32.2651 232.553 31.4567 233.388 30.8673C233.59 30.7251 233.762 30.5956 233.909 30.4806C233.957 30.6572 234.018 30.8602 234.095 31.0896C234.415 32.0517 235.004 33.4791 236.082 35.3816ZM229.385 47.1654L227.538 46.5702C227.566 46.5445 227.594 46.5184 227.621 46.492C227.952 46.173 228.261 45.7782 228.544 45.3614C228.893 44.8465 229.215 44.2772 229.499 43.7382C229.406 44.3363 229.327 44.9803 229.3 45.5963C229.278 46.0968 229.29 46.5949 229.364 47.0446C229.37 47.085 229.378 47.1253 229.385 47.1654Z" fill="url(#paint11_linear_1464_21962)" stroke="#949494"/>
<path d="M210.812 11.9401L210.811 11.9399C207.989 10.0443 206.182 8.47489 205.075 7.37058C204.662 6.95888 204.347 6.61186 204.112 6.33673C203.968 6.66593 203.768 7.08625 203.494 7.59548C202.757 8.96642 201.486 10.9815 199.341 13.5983L199.341 13.5983C197.627 15.6885 196.123 17.5334 195.117 19.3595C194.118 21.1717 193.633 22.9262 193.919 24.8344L210.812 11.9401ZM210.812 11.9401C213.066 13.4521 215.047 14.7922 216.545 16.2537C218.032 17.7048 219.009 19.2441 219.291 21.1428L219.291 21.1448C219.411 21.9316 219.372 22.7339 219.177 23.506C218.981 24.2781 218.632 25.0049 218.15 25.6449C217.667 26.2849 217.061 26.8253 216.365 27.235C215.669 27.6446 214.897 27.9153 214.094 28.0311L214.092 28.0313C211.661 28.3878 209.329 27.6946 208.028 26.1449L207.166 26.6096C207.541 27.867 208.04 29.4657 208.676 30.8645C208.994 31.5643 209.352 32.2287 209.756 32.7814C209.888 32.9615 210.027 33.1332 210.173 33.2922M210.812 11.9401L210.173 33.2922M210.173 33.2922L206.208 33.8683C206.302 33.6735 206.385 33.4686 206.458 33.2577C206.682 32.6132 206.828 31.8747 206.926 31.1143C207.121 29.595 207.129 27.9215 207.129 26.6133L206.168 26.42C205.395 28.2649 203.353 29.5913 200.923 29.9486C199.302 30.182 197.654 29.7729 196.341 28.813C195.029 27.8532 194.159 26.4219 193.919 24.8346L210.173 33.2922Z" fill="url(#paint12_linear_1464_21962)" stroke="#949494"/>
<path d="M42.1648 4.40072L42.167 4.40135C44.7627 5.16187 46.6048 7.69693 45.6654 11.1179L45.6647 11.1205C45.2512 12.6587 44.2914 13.8634 42.9562 14.9162C41.6132 15.9751 39.9199 16.8576 38.076 17.76C35.9014 18.8063 33.788 19.9712 31.7456 21.2492C30.6099 19.1396 29.3524 17.0955 27.9792 15.1271C26.8316 13.4583 25.8039 11.8692 25.1688 10.2951C24.5374 8.73015 24.3078 7.21276 24.7212 5.67522L24.7212 5.67488C25.6396 2.24934 28.5294 0.934026 31.1672 1.53526L31.1685 1.53555C32.4168 1.8166 33.539 2.44313 34.3028 3.26186C35.0634 4.07713 35.4525 5.06079 35.3111 6.09302L36.2688 6.3512C36.6675 5.38265 37.5026 4.71408 38.5746 4.37451C39.6505 4.0337 40.9396 4.03576 42.1648 4.40072Z" fill="url(#paint13_linear_1464_21962)" stroke="#949494"/>
<path d="M93.7623 33.2391L93.7635 33.2386C95.3137 32.5891 97.2266 33.0784 98.1706 35.083C98.5945 35.9835 98.6253 36.9416 98.406 37.9932C98.1845 39.0554 97.7157 40.1779 97.1716 41.3908C96.5418 42.761 95.9868 44.1631 95.5091 45.5913C94.0912 45.026 92.6434 44.5359 91.1719 44.1232C89.8803 43.7462 88.7037 43.374 87.7335 42.8546C86.7719 42.3398 86.0475 41.6981 85.6261 40.7984L85.6256 40.7974C84.6781 38.786 85.5282 37.0487 87.0263 36.3077L87.0274 36.3071C87.746 35.9493 88.5423 35.8097 89.2382 35.9019C89.9301 35.9935 90.4945 36.3074 90.829 36.8333L91.726 36.409C91.5351 35.8274 91.6533 35.2085 92.0254 34.6341C92.4001 34.0557 93.0199 33.5479 93.7623 33.2391ZM90.6362 35.9132C89.6359 35.1894 88.0934 35.2178 86.8046 35.8595C85.0722 36.7164 84.105 38.7427 85.1733 41.0105L90.6362 35.9132Z" fill="url(#paint14_linear_1464_21962)" stroke="#949494"/>
<path d="M80.96 16.1447L80.9603 16.1449C83.4831 17.5118 84.8403 20.5764 83.1162 23.9613C82.3332 25.4795 81.0533 26.5282 79.4194 27.3343C77.7767 28.1446 75.8099 28.6937 73.6871 29.2289C71.1677 29.8413 68.6856 30.5936 66.253 31.4822C65.5419 29.0282 64.6919 26.615 63.7069 24.2542C62.8886 22.2508 62.1765 20.3667 61.8705 18.5867C61.5663 16.8173 61.6699 15.1851 62.4522 13.6672C64.1975 10.2997 67.5245 9.54039 70.1523 10.7527L70.154 10.7534C71.3933 11.3198 72.4241 12.22 73.0371 13.244C73.6476 14.2636 73.8336 15.3822 73.4482 16.4382L74.3276 16.8961C75.6253 15.0402 78.5166 14.8183 80.96 16.1447Z" fill="url(#paint15_linear_1464_21962)" stroke="#949494"/>
<g style="mix-blend-mode:screen">
<path d="M59.3527 7.2946L59.3527 7.29461L59.3563 7.29563C59.7222 7.39823 60.0632 7.57111 60.3598 7.80387C60.6564 8.03662 60.9026 8.32456 61.0844 8.65069C61.2663 8.9768 61.3804 9.3348 61.4204 9.70395C61.4604 10.0731 61.4255 10.4464 61.3177 10.8024L61.3177 10.8024L61.3164 10.807C61.2668 10.9766 61.1989 11.1407 61.1138 11.2963C60.7747 11.8976 60.2223 12.3578 59.5591 12.5876C58.8949 12.8178 58.1676 12.8001 57.516 12.538C56.8644 12.2761 56.3354 11.7888 56.0272 11.171C55.72 10.5549 55.6528 9.85036 55.8376 9.18963C55.8609 9.11396 55.8885 9.03963 55.9223 8.94958L56.2805 7.99285L55.3052 8.29689C55.1511 8.34491 54.9926 8.37797 54.8318 8.39555L54.7868 8.40048L54.7615 8.38064C54.6343 8.28103 54.5173 8.1698 54.4118 8.0485L53.755 7.29299L53.5455 8.27192C53.5255 8.36548 53.511 8.43122 53.491 8.4936L53.4909 8.49384C53.281 9.14903 52.8335 9.70783 52.2308 10.0628C51.6279 10.4179 50.9126 10.5435 50.2207 10.415C49.5289 10.2864 48.9109 9.91309 48.4826 9.36801C48.0556 8.82449 47.8463 8.14746 47.8923 7.4645C47.9086 7.28604 47.9425 7.10949 47.9935 6.93735L48.0141 6.86781V6.84802C48.2372 6.16705 48.7173 5.59231 49.3601 5.24462C50.0235 4.88581 50.8049 4.79884 51.5338 5.00339C52.1208 5.17551 52.475 5.46116 52.6952 5.69282C52.7989 5.80193 52.8739 5.89972 52.9404 5.98637C52.9466 5.99455 52.9528 6.00263 52.959 6.01062L52.962 6.01453C52.9906 6.05175 53.0383 6.11379 53.0883 6.16292C53.1126 6.18676 53.1707 6.24167 53.2567 6.28177C53.3564 6.3282 53.538 6.37155 53.7271 6.27003C53.8774 6.18937 53.9581 6.05265 53.9855 5.92709C54.0081 5.82325 53.9931 5.73784 53.9851 5.70021C53.9685 5.62327 53.9373 5.55921 53.9249 5.5338C53.9015 5.48609 53.8662 5.42378 53.8348 5.36846C53.8269 5.35452 53.8193 5.34102 53.8121 5.32831C53.7301 5.18235 53.6256 4.98778 53.535 4.7429C53.3561 4.25906 53.2277 3.56857 53.4883 2.70204L53.4925 2.68806L53.4959 2.67385C53.5847 2.30115 53.7501 1.94977 53.9824 1.6414C54.2148 1.33302 54.5092 1.0741 54.8479 0.880982C55.1867 0.68785 55.5625 0.564721 55.9521 0.519493C56.3417 0.474266 56.7366 0.507948 57.1123 0.618369C57.488 0.728787 57.8362 0.913499 58.1357 1.16073C58.4353 1.40794 58.6797 1.71237 58.8544 2.05499C59.0291 2.39759 59.1306 2.77136 59.1529 3.15334C59.1751 3.53533 59.1178 3.9179 58.9841 4.27763L58.9787 4.29231L58.9742 4.3073C58.7112 5.1787 58.22 5.68606 57.8013 5.99114C57.5896 6.14548 57.3939 6.24974 57.2449 6.32489C57.2294 6.33272 57.2126 6.34108 57.1953 6.3497C57.1411 6.37677 57.0816 6.40642 57.0397 6.43009C57.0159 6.44351 56.9568 6.477 56.902 6.52712C56.876 6.55083 56.815 6.61003 56.7726 6.70544C56.7209 6.82201 56.7013 6.98985 56.7883 7.15334C56.8935 7.35095 57.0787 7.41282 57.1907 7.42572C57.2856 7.43664 57.3642 7.41969 57.395 7.4126C57.4581 7.39808 57.5273 7.37241 57.5684 7.35713C57.5711 7.35616 57.5736 7.35523 57.5759 7.35435L57.5871 7.35021C57.6873 7.31309 57.8044 7.26973 57.9554 7.2336C58.2605 7.16057 58.7241 7.11319 59.3527 7.2946ZM57.5253 7.30444C57.5252 7.30445 57.5266 7.30358 57.5297 7.30179C57.527 7.30354 57.5254 7.30443 57.5253 7.30444ZM53.7657 13.6418C53.7673 13.785 53.7727 13.9292 53.784 14.0707L52.5199 13.7018C52.6046 13.5916 52.6863 13.4762 52.7645 13.3596C53.0554 12.9259 53.3475 12.3987 53.6199 11.86C53.7439 11.6149 53.8648 11.3652 53.9808 11.118C53.9421 11.3826 53.9062 11.6517 53.8752 11.9189C53.8058 12.5181 53.7599 13.1191 53.7657 13.6418Z" fill="url(#paint16_linear_1464_21962)"/>
<path d="M59.3527 7.2946L59.3527 7.29461L59.3563 7.29563C59.7222 7.39823 60.0632 7.57111 60.3598 7.80387C60.6564 8.03662 60.9026 8.32456 61.0844 8.65069C61.2663 8.9768 61.3804 9.3348 61.4204 9.70395C61.4604 10.0731 61.4255 10.4464 61.3177 10.8024L61.3177 10.8024L61.3164 10.807C61.2668 10.9766 61.1989 11.1407 61.1138 11.2963C60.7747 11.8976 60.2223 12.3578 59.5591 12.5876C58.8949 12.8178 58.1676 12.8001 57.516 12.538C56.8644 12.2761 56.3354 11.7888 56.0272 11.171C55.72 10.5549 55.6528 9.85036 55.8376 9.18963C55.8609 9.11396 55.8885 9.03963 55.9223 8.94958L56.2805 7.99285L55.3052 8.29689C55.1511 8.34491 54.9926 8.37797 54.8318 8.39555L54.7868 8.40048L54.7615 8.38064C54.6343 8.28103 54.5173 8.1698 54.4118 8.0485L53.755 7.29299L53.5455 8.27192C53.5255 8.36548 53.511 8.43122 53.491 8.4936L53.4909 8.49384C53.281 9.14903 52.8335 9.70783 52.2308 10.0628C51.6279 10.4179 50.9126 10.5435 50.2207 10.415C49.5289 10.2864 48.9109 9.91309 48.4826 9.36801C48.0556 8.82449 47.8463 8.14746 47.8923 7.4645C47.9086 7.28604 47.9425 7.10949 47.9935 6.93735L48.0141 6.86781V6.84802C48.2372 6.16705 48.7173 5.59231 49.3601 5.24462C50.0235 4.88581 50.8049 4.79884 51.5338 5.00339C52.1208 5.17551 52.475 5.46116 52.6952 5.69282C52.7989 5.80193 52.8739 5.89972 52.9404 5.98637C52.9466 5.99455 52.9528 6.00263 52.959 6.01062L52.962 6.01453C52.9906 6.05175 53.0383 6.11379 53.0883 6.16292C53.1126 6.18676 53.1707 6.24167 53.2567 6.28177C53.3564 6.3282 53.538 6.37155 53.7271 6.27003C53.8774 6.18937 53.9581 6.05265 53.9855 5.92709C54.0081 5.82325 53.9931 5.73784 53.9851 5.70021C53.9685 5.62327 53.9373 5.55921 53.9249 5.5338C53.9015 5.48609 53.8662 5.42378 53.8348 5.36846C53.8269 5.35452 53.8193 5.34102 53.8121 5.32831C53.7301 5.18235 53.6256 4.98778 53.535 4.7429C53.3561 4.25906 53.2277 3.56857 53.4883 2.70204L53.4925 2.68806L53.4959 2.67385C53.5847 2.30115 53.7501 1.94977 53.9824 1.6414C54.2148 1.33302 54.5092 1.0741 54.8479 0.880982C55.1867 0.68785 55.5625 0.564721 55.9521 0.519493C56.3417 0.474266 56.7366 0.507948 57.1123 0.618369C57.488 0.728787 57.8362 0.913499 58.1357 1.16073C58.4353 1.40794 58.6797 1.71237 58.8544 2.05499C59.0291 2.39759 59.1306 2.77136 59.1529 3.15334C59.1751 3.53533 59.1178 3.9179 58.9841 4.27763L58.9787 4.29231L58.9742 4.3073C58.7112 5.1787 58.22 5.68606 57.8013 5.99114C57.5896 6.14548 57.3939 6.24974 57.2449 6.32489C57.2294 6.33272 57.2126 6.34108 57.1953 6.3497C57.1411 6.37677 57.0816 6.40642 57.0397 6.43009C57.0159 6.44351 56.9568 6.477 56.902 6.52712C56.876 6.55083 56.815 6.61003 56.7726 6.70544C56.7209 6.82201 56.7013 6.98985 56.7883 7.15334C56.8935 7.35095 57.0787 7.41282 57.1907 7.42572C57.2856 7.43664 57.3642 7.41969 57.395 7.4126C57.4581 7.39808 57.5273 7.37241 57.5684 7.35713C57.5711 7.35616 57.5736 7.35523 57.5759 7.35435L57.5871 7.35021C57.6873 7.31309 57.8044 7.26973 57.9554 7.2336C58.2605 7.16057 58.7241 7.11319 59.3527 7.2946ZM57.5253 7.30444C57.5252 7.30445 57.5266 7.30358 57.5297 7.30179C57.527 7.30354 57.5254 7.30443 57.5253 7.30444ZM53.7657 13.6418C53.7673 13.785 53.7727 13.9292 53.784 14.0707L52.5199 13.7018C52.6046 13.5916 52.6863 13.4762 52.7645 13.3596C53.0554 12.9259 53.3475 12.3987 53.6199 11.86C53.7439 11.6149 53.8648 11.3652 53.9808 11.118C53.9421 11.3826 53.9062 11.6517 53.8752 11.9189C53.8058 12.5181 53.7599 13.1191 53.7657 13.6418Z" stroke="#949494"/>
</g>
<path d="M67.6478 45.351C66.5577 44.7807 65.4377 44.2674 64.2924 43.8132C63.2668 43.3963 62.3449 42.9924 61.6059 42.4882C60.8749 41.9896 60.3537 41.4132 60.0938 40.6625L67.6478 45.351ZM67.6478 45.351C68.1575 44.2471 68.7253 43.17 69.3491 42.1241C69.9054 41.1765 70.3863 40.3032 70.6597 39.4612C70.9299 38.6293 70.986 37.8618 70.7265 37.1119L70.7256 37.1092L70.7256 37.1092C70.1488 35.411 68.6756 34.8756 67.3847 35.2503C66.7635 35.4356 66.2259 35.7893 65.8791 36.217C65.5351 36.6413 65.3928 37.1159 65.4906 37.5849L64.5532 37.9091C64.3389 37.4772 63.9293 37.1841 63.3922 37.0553C62.8512 36.9255 62.2066 36.972 61.6016 37.2063L61.594 37.2093L61.594 37.2092C60.337 37.673 59.5129 38.98 60.0938 40.6623L67.6478 45.351Z" fill="url(#paint17_linear_1464_21962)" stroke="#949494"/>
<g style="mix-blend-mode:screen">
<path d="M222.974 8.17227L231.798 5.01388L232.963 14.1674L224.135 17.3258L222.974 8.17227Z" fill="url(#paint18_linear_1464_21962)"/>
<path d="M222.974 8.17227L231.798 5.01388L232.963 14.1674L224.135 17.3258L222.974 8.17227Z" stroke="#949494"/>
</g>
<g style="mix-blend-mode:screen">
<path d="M204.874 39.5715L211.438 42.5141L209.987 49.4564L203.424 46.5138L204.874 39.5715Z" fill="url(#paint19_linear_1464_21962)"/>
<path d="M204.874 39.5715L211.438 42.5141L209.987 49.4564L203.424 46.5138L204.874 39.5715Z" stroke="#949494"/>
</g>
<defs>
<linearGradient id="paint0_linear_1464_21962" x1="147.124" y1="7.95045" x2="147.124" y2="20.6812" gradientUnits="userSpaceOnUse">
<stop stop-color="white" stop-opacity="0.35"/>
<stop offset="1" stop-color="white" stop-opacity="0"/>
</linearGradient>
<linearGradient id="paint1_linear_1464_21962" x1="139.975" y1="27.7401" x2="139.975" y2="51" gradientUnits="userSpaceOnUse">
<stop stop-color="white" stop-opacity="0.35"/>
<stop offset="1" stop-color="white" stop-opacity="0"/>
</linearGradient>
<linearGradient id="paint2_linear_1464_21962" x1="9.44605" y1="9.65482" x2="9.44605" y2="32.9621" gradientUnits="userSpaceOnUse">
<stop stop-color="white" stop-opacity="0.35"/>
<stop offset="1" stop-color="white" stop-opacity="0"/>
</linearGradient>
<linearGradient id="paint3_linear_1464_21962" x1="19.8352" y1="32.9242" x2="19.8352" y2="45.5507" gradientUnits="userSpaceOnUse">
<stop stop-color="white" stop-opacity="0.35"/>
<stop offset="1" stop-color="white" stop-opacity="0"/>
</linearGradient>
<linearGradient id="paint4_linear_1464_21962" x1="192.313" y1="31.859" x2="192.313" y2="45.2704" gradientUnits="userSpaceOnUse">
<stop stop-color="white" stop-opacity="0.35"/>
<stop offset="1" stop-color="white" stop-opacity="0"/>
</linearGradient>
<linearGradient id="paint5_linear_1464_21962" x1="114.264" y1="23.1669" x2="114.264" y2="44.5117" gradientUnits="userSpaceOnUse">
<stop stop-color="white" stop-opacity="0.35"/>
<stop offset="1" stop-color="white" stop-opacity="0"/>
</linearGradient>
<linearGradient id="paint6_linear_1464_21962" x1="96.28" y1="6.33255" x2="96.28" y2="28.1662" gradientUnits="userSpaceOnUse">
<stop stop-color="white" stop-opacity="0.35"/>
<stop offset="1" stop-color="white" stop-opacity="0"/>
</linearGradient>
<linearGradient id="paint7_linear_1464_21962" x1="125.624" y1="5.84137" x2="125.624" y2="29.0743" gradientUnits="userSpaceOnUse">
<stop stop-color="white" stop-opacity="0.35"/>
<stop offset="1" stop-color="white" stop-opacity="0"/>
</linearGradient>
<linearGradient id="paint8_linear_1464_21962" x1="164.004" y1="23.39" x2="164.004" y2="44.5991" gradientUnits="userSpaceOnUse">
<stop stop-color="white" stop-opacity="0.35"/>
<stop offset="1" stop-color="white" stop-opacity="0"/>
</linearGradient>
<linearGradient id="paint9_linear_1464_21962" x1="171.825" y1="5.12823" x2="171.825" y2="22.7637" gradientUnits="userSpaceOnUse">
<stop stop-color="white" stop-opacity="0.35"/>
<stop offset="1" stop-color="white" stop-opacity="0"/>
</linearGradient>
<linearGradient id="paint10_linear_1464_21962" x1="42.968" y1="16.5102" x2="42.968" y2="47.3024" gradientUnits="userSpaceOnUse">
<stop stop-color="white" stop-opacity="0.35"/>
<stop offset="1" stop-color="white" stop-opacity="0"/>
</linearGradient>
<linearGradient id="paint11_linear_1464_21962" x1="230.602" y1="29.5439" x2="230.602" y2="47.9653" gradientUnits="userSpaceOnUse">
<stop stop-color="white" stop-opacity="0.35"/>
<stop offset="1" stop-color="white" stop-opacity="0"/>
</linearGradient>
<linearGradient id="paint12_linear_1464_21962" x1="206.599" y1="5.32761" x2="206.599" y2="34.5291" gradientUnits="userSpaceOnUse">
<stop stop-color="white" stop-opacity="0.35"/>
<stop offset="1" stop-color="white" stop-opacity="0"/>
</linearGradient>
<linearGradient id="paint13_linear_1464_21962" x1="35.2137" y1="0.894745" x2="35.2137" y2="21.9594" gradientUnits="userSpaceOnUse">
<stop stop-color="white" stop-opacity="0.35"/>
<stop offset="1" stop-color="white" stop-opacity="0"/>
</linearGradient>
<linearGradient id="paint14_linear_1464_21962" x1="91.8832" y1="32.4693" x2="91.8832" y2="46.2562" gradientUnits="userSpaceOnUse">
<stop stop-color="white" stop-opacity="0.35"/>
<stop offset="1" stop-color="white" stop-opacity="0"/>
</linearGradient>
<linearGradient id="paint15_linear_1464_21962" x1="72.8005" y1="9.71107" x2="72.8005" y2="32.1383" gradientUnits="userSpaceOnUse">
<stop stop-color="white" stop-opacity="0.35"/>
<stop offset="1" stop-color="white" stop-opacity="0"/>
</linearGradient>
<linearGradient id="paint16_linear_1464_21962" x1="54.6612" y1="0" x2="54.6612" y2="14.7869" gradientUnits="userSpaceOnUse">
<stop stop-color="white" stop-opacity="0.35"/>
<stop offset="1" stop-color="white" stop-opacity="0"/>
</linearGradient>
<linearGradient id="paint17_linear_1464_21962" x1="65.3991" y1="34.6371" x2="65.3991" y2="46.0431" gradientUnits="userSpaceOnUse">
<stop stop-color="white" stop-opacity="0.35"/>
<stop offset="1" stop-color="white" stop-opacity="0"/>
</linearGradient>
<linearGradient id="paint18_linear_1464_21962" x1="227.968" y1="4.3334" x2="227.968" y2="18.0062" gradientUnits="userSpaceOnUse">
<stop stop-color="white" stop-opacity="0.35"/>
<stop offset="1" stop-color="white" stop-opacity="0"/>
</linearGradient>
<linearGradient id="paint19_linear_1464_21962" x1="207.431" y1="38.8611" x2="207.431" y2="50.1668" gradientUnits="userSpaceOnUse">
<stop stop-color="white" stop-opacity="0.35"/>
<stop offset="1" stop-color="white" stop-opacity="0"/>
</linearGradient>
</defs>
</svg>
