<svg width="16" height="16" viewBox="0 0 16 16" fill="none" xmlns="http://www.w3.org/2000/svg">
<path d="M5.48899 5.45239L5.7522 5.4123L5.86585 5.17154L7.66243 1.36569C7.66245 1.36565 7.66247 1.3656 7.66249 1.36556C7.6625 1.36554 7.66251 1.36552 7.66252 1.36551C7.80411 1.06622 8.19379 1.06331 8.33776 1.36603C8.33782 1.36616 8.33788 1.36629 8.33794 1.36641L10.1342 5.17154L10.2478 5.4123L10.511 5.45239L14.5308 6.06469L14.5312 6.06475C14.8188 6.10834 14.9945 6.52698 14.7365 6.78944L14.7364 6.78958L11.8282 9.75047L11.6503 9.93153L11.6915 10.182L12.3793 14.3643C12.443 14.7529 12.0712 14.9427 11.8369 14.814L11.8368 14.8139L8.2407 12.8391L8.00002 12.7069L7.75933 12.8391L4.16325 14.8139L4.16166 14.8148C3.93087 14.9427 3.55657 14.7563 3.6207 14.3643C3.62071 14.3643 3.62071 14.3643 3.62072 14.3642L4.30851 10.182L4.3497 9.93153L4.17185 9.75047L1.26362 6.78958L1.26349 6.78944C1.00549 6.52698 1.1812 6.10834 1.46882 6.06475L1.4692 6.06469L5.48899 5.45239Z" stroke="url(#paint0_linear_1457_22740)"/>
<defs>
<linearGradient id="paint0_linear_1457_22740" x1="2.55384" y1="2.75505" x2="13.1965" y2="13.5284" gradientUnits="userSpaceOnUse">
<stop stop-color="#BE965D"/>
<stop offset="0.28" stop-color="#976F40"/>
<stop offset="0.43" stop-color="#C99B61"/>
<stop offset="0.56" stop-color="#F0BE7B"/>
<stop offset="0.63" stop-color="#FFCB85"/>
<stop offset="0.71" stop-color="#EEBC79"/>
<stop offset="0.87" stop-color="#C0935B"/>
<stop offset="1" stop-color="#976F40"/>
</linearGradient>
</defs>
</svg>
