<svg width="27" height="10" viewBox="0 0 27 10" fill="none" xmlns="http://www.w3.org/2000/svg">
<g filter="url(#filter0_d_205_48797)">
<path d="M0.256037 9L1.7049 0.272727H3.55007L2.95348 3.87358H6.69922L7.29581 0.272727H9.13672L7.68786 9H5.84695L6.44354 5.39489H2.6978L2.10121 9H0.256037ZM17.9364 4.75568C17.7773 5.6875 17.4691 6.47869 17.0117 7.12926C16.5572 7.77983 16.0018 8.27415 15.3455 8.61222C14.6921 8.95028 13.9876 9.11932 13.2319 9.11932C12.4393 9.11932 11.756 8.93892 11.1822 8.57812C10.6112 8.21733 10.1978 7.69602 9.94212 7.0142C9.68643 6.32955 9.63814 5.50426 9.79723 4.53835C9.95064 3.60369 10.256 2.81108 10.7134 2.16051C11.1708 1.5071 11.729 1.00994 12.3881 0.669034C13.0472 0.325284 13.756 0.153409 14.5146 0.153409C15.3015 0.153409 15.9805 0.335227 16.5515 0.698864C17.1254 1.0625 17.5387 1.58807 17.7915 2.27557C18.0472 2.96023 18.0955 3.78693 17.9364 4.75568ZM16.0998 4.53835C16.1992 3.93892 16.195 3.43608 16.087 3.02983C15.9819 2.62074 15.7887 2.31108 15.5075 2.10085C15.2262 1.89062 14.8711 1.78551 14.4421 1.78551C13.9762 1.78551 13.5487 1.90199 13.1594 2.13494C12.7731 2.3679 12.4464 2.70597 12.1793 3.14915C11.9151 3.58949 11.7319 4.125 11.6296 4.75568C11.5273 5.35795 11.5302 5.8608 11.6381 6.2642C11.7489 6.66761 11.9464 6.97301 12.2305 7.1804C12.5174 7.38494 12.8739 7.48722 13.3001 7.48722C13.7631 7.48722 14.1864 7.37358 14.57 7.14631C14.9563 6.91619 15.2816 6.58239 15.5458 6.14489C15.81 5.70455 15.9947 5.16903 16.0998 4.53835ZM19.0582 1.79403L19.3139 0.272727H26.4815L26.2259 1.79403H23.554L22.3608 9H20.5369L21.7301 1.79403H19.0582Z" fill="white"/>
</g>
<defs>
<filter id="filter0_d_205_48797" x="0.256042" y="0.15332" width="26.7255" height="9.46606" filterUnits="userSpaceOnUse" color-interpolation-filters="sRGB">
<feFlood flood-opacity="0" result="BackgroundImageFix"/>
<feColorMatrix in="SourceAlpha" type="matrix" values="0 0 0 0 0 0 0 0 0 0 0 0 0 0 0 0 0 0 127 0" result="hardAlpha"/>
<feOffset dx="0.5" dy="0.5"/>
<feComposite in2="hardAlpha" operator="out"/>
<feColorMatrix type="matrix" values="0 0 0 0 0 0 0 0 0 0 0 0 0 0 0 0 0 0 1 0"/>
<feBlend mode="normal" in2="BackgroundImageFix" result="effect1_dropShadow_205_48797"/>
<feBlend mode="normal" in="SourceGraphic" in2="effect1_dropShadow_205_48797" result="shape"/>
</filter>
</defs>
</svg>
