<svg width="20" height="20" viewBox="0 0 20 20" fill="none" xmlns="http://www.w3.org/2000/svg">
<g clip-path="url(#clip0_1423_25104)">
<path d="M17.0714 17.0711C20.9766 13.1658 20.9766 6.83417 17.0714 2.92893C13.1661 -0.976311 6.83446 -0.97631 2.92922 2.92893C-0.976021 6.83418 -0.976021 13.1658 2.92922 17.0711C6.83446 20.9763 13.1661 20.9763 17.0714 17.0711Z" fill="#D02730"/>
<path fill-rule="evenodd" clip-rule="evenodd" d="M2.55039 16.6704H17.4506C19.0362 14.9004 20.001 12.563 20.001 10.0002C20.001 7.43738 19.0352 5.09714 17.4477 3.32715H2.55325C0.965708 5.09714 0 7.43547 0 10.0002C0 12.5649 0.964753 14.9004 2.55039 16.6704Z" fill="#FEFEFE"/>
<path fill-rule="evenodd" clip-rule="evenodd" d="M0.57121 13.3385H19.4288C19.7985 12.2944 20 11.1711 20 10C20 8.82897 19.7985 7.70566 19.4288 6.66162H0.57121C0.201547 7.70566 0 8.82897 0 10C0 11.1711 0.201547 12.2944 0.57121 13.3385Z" fill="#2D3577"/>
</g>
<defs>
<clipPath id="clip0_1423_25104">
<rect width="20" height="20" fill="white"/>
</clipPath>
</defs>
</svg>
