<svg width="60" height="60" viewBox="0 0 60 60" fill="none" xmlns="http://www.w3.org/2000/svg">
<path d="M30 60C46.5685 60 60 46.5685 60 30C60 13.4315 46.5685 0 30 0C13.4315 0 0 13.4315 0 30C0 46.5685 13.4315 60 30 60Z" fill="url(#paint0_linear_1527_57274)"/>
<path d="M30 59.3087C46.1868 59.3087 59.3088 46.1867 59.3088 29.9999C59.3088 13.8131 46.1868 0.691101 30 0.691101C13.8132 0.691101 0.691162 13.8131 0.691162 29.9999C0.691162 46.1867 13.8132 59.3087 30 59.3087Z" fill="url(#paint1_linear_1527_57274)"/>
<path d="M30.0001 58.6742C45.8368 58.6742 58.675 45.836 58.675 29.9993C58.675 14.1626 45.8368 1.3244 30.0001 1.3244C14.1634 1.3244 1.3252 14.1626 1.3252 29.9993C1.3252 45.836 14.1634 58.6742 30.0001 58.6742Z" fill="url(#paint2_radial_1527_57274)"/>
<path d="M28.801 57.1209C28.6253 57.1133 28.4879 56.9643 28.4917 56.7887C28.5031 56.613 28.6483 56.4755 28.8239 56.4832C28.9996 56.4908 29.1371 56.6397 29.1332 56.8154C29.1256 56.9872 28.9843 57.1247 28.8125 57.1247C28.8048 57.1247 28.8048 57.1247 28.801 57.1209ZM33.2995 56.6321C33.2766 56.4564 33.3988 56.2922 33.5744 56.2693C33.7501 56.2464 33.9105 56.3686 33.9372 56.5443C33.9601 56.7199 33.8341 56.8803 33.6623 56.9032C33.647 56.907 33.6317 56.9071 33.6164 56.9071C33.4599 56.9071 33.3186 56.7925 33.2995 56.6321ZM23.9741 56.4832C23.8023 56.4412 23.6954 56.2731 23.7335 56.0975C23.7717 55.9256 23.9436 55.8149 24.1154 55.8531C24.2873 55.8913 24.398 56.0631 24.3598 56.2388C24.3255 56.3877 24.1918 56.4908 24.0467 56.4908C24.0238 56.487 24.0009 56.4832 23.9741 56.4832ZM38.0003 55.6201C37.9469 55.4483 38.0347 55.2688 38.2066 55.2153C38.3746 55.1619 38.5579 55.2497 38.6113 55.4216C38.6648 55.5896 38.5732 55.7691 38.4051 55.8263C38.3708 55.8378 38.3364 55.8416 38.3058 55.8416C38.1722 55.8416 38.0462 55.7538 38.0003 55.6201ZM19.3458 54.9824C19.1816 54.9137 19.1052 54.7227 19.1778 54.5585C19.2465 54.3981 19.4336 54.3218 19.5979 54.3905C19.7621 54.4592 19.8384 54.6464 19.7659 54.8106C19.7162 54.9328 19.5979 55.0053 19.4718 55.0053C19.4298 55.0053 19.384 54.9977 19.3458 54.9824ZM42.4415 53.7795C42.3575 53.6229 42.4148 53.432 42.5714 53.3442C42.7241 53.2602 42.9189 53.3174 43.0029 53.474C43.0869 53.6268 43.0296 53.8215 42.8731 53.9055C42.8234 53.9361 42.77 53.9437 42.7203 53.9437C42.6096 53.9437 42.4988 53.8826 42.4415 53.7795ZM15.0612 52.6721C14.9123 52.5728 14.8703 52.3742 14.9695 52.2253C15.0688 52.0763 15.2674 52.0382 15.4163 52.1336C15.5653 52.2329 15.6035 52.4315 15.5042 52.5804C15.4431 52.6721 15.34 52.7255 15.2369 52.7255C15.1758 52.7255 15.1147 52.7064 15.0612 52.6721ZM46.4856 51.1713C46.3748 51.0338 46.3939 50.8314 46.5352 50.7245C46.6727 50.6138 46.8751 50.6329 46.9858 50.7742C47.0966 50.9116 47.0775 51.114 46.9362 51.2248C46.8789 51.2744 46.8064 51.2935 46.7376 51.2935C46.6422 51.2935 46.5467 51.2515 46.4856 51.1713ZM11.2539 49.64C11.1241 49.5178 11.1203 49.3116 11.2425 49.1856C11.3647 49.0557 11.5709 49.0557 11.6969 49.1741C11.8229 49.2963 11.8267 49.5025 11.7083 49.6247C11.6434 49.6935 11.5594 49.724 11.4754 49.724C11.3952 49.7278 11.315 49.6973 11.2539 49.64ZM49.9988 47.891C49.869 47.7726 49.8499 47.5702 49.9683 47.4404C50.0828 47.3067 50.2852 47.2915 50.4189 47.4099C50.5525 47.5282 50.5678 47.7306 50.4494 47.8605C50.3845 47.933 50.3005 47.9712 50.2088 47.9712C50.1363 47.9712 50.0599 47.9407 49.9988 47.891ZM8.04617 45.9778C7.94307 45.8327 7.97362 45.6341 8.11491 45.5272C8.26002 45.4241 8.4586 45.4547 8.56552 45.5998C8.67245 45.7449 8.63808 45.9435 8.49679 46.0504C8.4395 46.0924 8.37459 46.1115 8.30585 46.1115C8.20656 46.1115 8.10727 46.0657 8.04617 45.9778ZM52.8743 44.0341C52.7216 43.9463 52.6719 43.7439 52.7636 43.5949C52.8552 43.446 53.05 43.3925 53.2027 43.4842C53.3517 43.5758 53.4051 43.7744 53.3135 43.9272C53.2562 44.0264 53.1455 44.0799 53.0385 44.0799C52.9813 44.0761 52.924 44.0646 52.8743 44.0341ZM5.54108 41.8039C5.46471 41.6474 5.52963 41.4526 5.69001 41.3762C5.8504 41.2999 6.04134 41.3648 6.11771 41.5252C6.19409 41.6856 6.12917 41.8765 5.96496 41.9529C5.91914 41.972 5.87331 41.9834 5.82749 41.9834C5.70911 41.9872 5.59836 41.9185 5.54108 41.8039ZM55.0166 39.7227C54.8486 39.6616 54.7684 39.4745 54.8257 39.3141C54.8906 39.1461 55.0739 39.0659 55.2381 39.127C55.4061 39.1881 55.4902 39.3752 55.4291 39.5394C55.3794 39.6693 55.261 39.7495 55.1274 39.7495C55.0892 39.7456 55.0548 39.7418 55.0166 39.7227ZM3.83029 37.252C3.78064 37.0802 3.87993 36.9007 4.05177 36.8587C4.22362 36.809 4.4031 36.9083 4.44511 37.0802C4.49475 37.252 4.39546 37.4277 4.22362 37.4735C4.19689 37.485 4.16634 37.485 4.13579 37.485C3.99449 37.485 3.86848 37.3933 3.83029 37.252ZM56.3494 35.1059C56.1737 35.0753 56.0592 34.9073 56.0897 34.7355C56.1203 34.5598 56.2883 34.4452 56.4601 34.4758C56.632 34.5063 56.7503 34.6744 56.7198 34.8462C56.6892 35.0028 56.5556 35.1135 56.4028 35.1135C56.3837 35.1097 56.3647 35.1059 56.3494 35.1059ZM2.9558 32.4633C2.94434 32.2877 3.07036 32.1349 3.24602 32.1158C3.42168 32.1005 3.57825 32.2266 3.59735 32.406C3.61262 32.5817 3.48278 32.7383 3.30712 32.7574C3.29567 32.7574 3.28803 32.7574 3.27657 32.7574C3.11237 32.7535 2.97489 32.6275 2.9558 32.4633ZM56.5098 30.0002C56.5098 29.9888 56.5098 29.9773 56.5098 29.9697C56.5098 29.9582 56.5098 29.9506 56.5098 29.9391C56.5098 29.7596 56.6549 29.6184 56.8305 29.6145C57.0062 29.6145 57.1513 29.7596 57.1513 29.9353C57.1513 29.9468 57.1513 29.9544 57.1513 29.9659C57.1513 29.9773 57.1513 29.9888 57.1513 30.0002C57.1513 30.1759 57.0062 30.321 56.8305 30.321C56.6511 30.321 56.5098 30.1759 56.5098 30.0002ZM3.24602 27.9457C3.07036 27.9305 2.9367 27.7739 2.9558 27.5982C2.97107 27.4226 3.12382 27.2927 3.3033 27.308C3.47896 27.3195 3.61262 27.476 3.59353 27.6555C3.57825 27.8235 3.44078 27.9457 3.27275 27.9457C3.26512 27.9457 3.25366 27.9457 3.24602 27.9457ZM56.0744 25.2077C56.0439 25.0321 56.1584 24.864 56.3341 24.8335C56.5059 24.8029 56.674 24.9175 56.7045 25.0932C56.7351 25.265 56.6205 25.433 56.4487 25.4636C56.4296 25.4674 56.4067 25.4712 56.3876 25.4712C56.2386 25.4712 56.105 25.3605 56.0744 25.2077ZM4.0365 23.1991C3.86466 23.1532 3.76537 22.9776 3.80738 22.8057C3.85702 22.6339 4.03268 22.5346 4.20071 22.5804C4.36873 22.6301 4.47184 22.8057 4.42601 22.9738C4.38782 23.1189 4.25799 23.2105 4.11669 23.2105C4.08996 23.2143 4.06323 23.2105 4.0365 23.1991ZM54.8066 20.629C54.7417 20.461 54.8257 20.2815 54.9937 20.2166C55.1617 20.1517 55.345 20.2357 55.4061 20.4037C55.4672 20.5718 55.3832 20.7551 55.219 20.8162C55.1808 20.8276 55.1427 20.8391 55.1045 20.8391C54.9746 20.8391 54.8524 20.7589 54.8066 20.629ZM5.6671 18.6777C5.50671 18.6013 5.43798 18.4065 5.51817 18.2462C5.59454 18.0858 5.7893 18.0209 5.94587 18.0972C6.10626 18.1736 6.17499 18.3645 6.0948 18.5249C6.03752 18.6395 5.92677 18.7082 5.80458 18.7082C5.75875 18.7082 5.70911 18.6968 5.6671 18.6777ZM52.733 16.3559C52.6452 16.2031 52.691 16.0084 52.8438 15.9129C52.9965 15.8213 53.1951 15.8709 53.2867 16.0237C53.3784 16.1726 53.3288 16.3712 53.176 16.4628C53.1264 16.4934 53.0691 16.5086 53.0118 16.5086C52.8972 16.5086 52.7941 16.4552 52.733 16.3559ZM8.08436 14.5152C7.93925 14.4121 7.9087 14.2098 8.01562 14.0646C8.11873 13.9233 8.3173 13.8928 8.46242 13.9959C8.60753 14.1028 8.63808 14.3014 8.53115 14.4465C8.47005 14.5343 8.37077 14.5763 8.27148 14.5763C8.20656 14.5763 8.13782 14.5573 8.08436 14.5152ZM49.9301 12.518C49.8117 12.3882 49.827 12.182 49.9606 12.0674C50.0905 11.9491 50.2967 11.9643 50.4112 12.098C50.5296 12.2316 50.5143 12.434 50.3807 12.5486C50.3196 12.6021 50.2432 12.6288 50.1707 12.6288C50.079 12.6288 49.995 12.5906 49.9301 12.518ZM11.2005 10.8531C11.0783 10.7232 11.0821 10.5209 11.2119 10.3987C11.3417 10.2765 11.5403 10.2803 11.6625 10.4101C11.7885 10.5399 11.7809 10.7385 11.6549 10.8645C11.59 10.9218 11.5098 10.9524 11.4296 10.9524C11.3456 10.9524 11.2654 10.918 11.2005 10.8531ZM46.4894 9.23775C46.3481 9.12701 46.3252 8.92844 46.4398 8.78714C46.5505 8.64967 46.7491 8.62676 46.8865 8.7375C47.024 8.84824 47.0469 9.04682 46.9362 9.18811C46.8713 9.2683 46.7796 9.31031 46.688 9.31031C46.6192 9.31031 46.5467 9.2874 46.4894 9.23775ZM14.9199 7.80191C14.8206 7.65298 14.8626 7.4544 15.0116 7.35894C15.1605 7.25965 15.3591 7.30165 15.4583 7.45059C15.5538 7.59952 15.5156 7.79809 15.3667 7.89356C15.3132 7.93175 15.2483 7.94702 15.1872 7.94702C15.0803 7.94702 14.981 7.89738 14.9199 7.80191ZM42.5217 6.62574C42.3652 6.54173 42.3079 6.34697 42.3919 6.19422C42.4759 6.03765 42.6668 5.98037 42.8234 6.06438C42.98 6.1484 43.0373 6.34315 42.9533 6.4959C42.896 6.60664 42.7852 6.66393 42.6707 6.66393C42.621 6.66393 42.5676 6.65247 42.5217 6.62574ZM19.1205 5.46484C19.048 5.30064 19.1243 5.11352 19.2885 5.04096C19.4527 4.97222 19.6399 5.0486 19.7086 5.21281C19.7812 5.37319 19.7048 5.56031 19.5406 5.63287C19.4986 5.65196 19.4566 5.6596 19.4146 5.6596C19.2924 5.6596 19.174 5.58322 19.1205 5.46484ZM38.1493 4.76219C37.9813 4.70873 37.8858 4.52925 37.9392 4.35741C37.9927 4.18938 38.1722 4.09773 38.344 4.1512C38.5121 4.20466 38.6037 4.38414 38.5502 4.55598C38.5082 4.68964 38.3822 4.77747 38.2447 4.77747C38.2142 4.78129 38.1798 4.77747 38.1493 4.76219ZM23.6724 3.91825C23.6343 3.74641 23.7412 3.57457 23.913 3.53256C24.0849 3.49437 24.2567 3.60512 24.2987 3.77314C24.3369 3.94498 24.2262 4.12065 24.0581 4.15883C24.0314 4.16647 24.0085 4.16647 23.9856 4.16647C23.8405 4.16647 23.7068 4.06337 23.6724 3.91825ZM33.5133 3.71968C33.3377 3.69295 33.2155 3.53256 33.2384 3.3569C33.2613 3.18124 33.4217 3.05904 33.5973 3.08195C33.773 3.10868 33.8952 3.26907 33.8723 3.44473C33.8532 3.60512 33.7157 3.71968 33.5553 3.71968C33.5401 3.71968 33.5286 3.71968 33.5133 3.71968ZM28.4306 3.21179C28.4191 3.03613 28.5604 2.88338 28.7361 2.87956C28.9118 2.8681 29.0645 3.00939 29.0683 3.18506C29.0798 3.36072 28.9423 3.51347 28.7628 3.51729C28.759 3.5211 28.7514 3.52111 28.7514 3.52111C28.5795 3.52111 28.4382 3.38363 28.4306 3.21179Z" fill="url(#paint3_linear_1527_57274)"/>
<path d="M30 54.6349C43.6054 54.6349 54.6347 43.6056 54.6347 30.0002C54.6347 16.3949 43.6054 5.36554 30 5.36554C16.3947 5.36554 5.36536 16.3949 5.36536 30.0002C5.36536 43.6056 16.3947 54.6349 30 54.6349Z" fill="url(#paint4_linear_1527_57274)"/>
<path d="M30.0001 54.1387C43.3312 54.1387 54.1383 43.3316 54.1383 30.0004C54.1383 16.6692 43.3312 5.86218 30.0001 5.86218C16.6689 5.86218 5.86182 16.6692 5.86182 30.0004C5.86182 43.3316 16.6689 54.1387 30.0001 54.1387Z" fill="url(#paint5_linear_1527_57274)"/>
<path d="M49.1853 29.9997C49.1853 40.5967 40.5969 49.1851 29.9999 49.1851C19.4029 49.1851 10.8146 40.5929 10.8146 29.9997C10.8146 19.4027 19.4029 10.8144 29.9999 10.8144C40.5969 10.8144 49.1853 19.4027 49.1853 29.9997Z" fill="url(#paint6_linear_1527_57274)"/>
<path d="M7.13708 30.0006C7.13708 17.372 17.3713 7.13782 29.9999 7.13782C42.6284 7.13782 52.8626 17.372 52.8626 30.0006C52.8626 42.6292 42.6284 52.8634 29.9999 52.8634C17.3713 52.8634 7.13708 42.6253 7.13708 30.0006Z" fill="url(#paint7_radial_1527_57274)"/>
<path d="M30.0001 8.5578C18.1582 8.5578 8.55786 18.1581 8.55786 30C8.55786 41.8419 18.1582 51.4422 30.0001 51.4422C41.842 51.4422 51.4423 41.8419 51.4423 30C51.4423 18.1581 41.842 8.5578 30.0001 8.5578ZM30.0001 50.9C18.456 50.9 9.10012 41.5441 9.10012 30C9.10012 18.456 18.456 9.10006 30.0001 9.10006C41.5441 9.10006 50.9 18.456 50.9 30C50.9 41.5402 41.5403 50.9 30.0001 50.9Z" fill="url(#paint8_linear_1527_57274)"/>
<path d="M16.3555 48.3452C22.3738 33.9905 34.0515 22.4159 48.4749 16.5351C44.3163 10.8375 37.5915 7.13336 29.9999 7.13336C17.3713 7.13336 7.13708 17.3676 7.13708 29.9961C7.13708 37.5114 10.7611 44.1789 16.3555 48.3452Z" fill="white" fill-opacity="0.15"/>
<path d="M31.5275 15.9463L30.3131 15.2284L29.1026 15.9463L29.4119 14.5716L28.3541 13.6398L29.7556 13.5099L30.3131 12.2154L30.8707 13.5099L32.2722 13.6398L31.2182 14.5716L31.5275 15.9463Z" fill="url(#paint9_linear_1527_57274)"/>
<path d="M34.8345 15.6482L34.0288 15.1709L33.223 15.6482L33.4292 14.7355L32.7266 14.1169L33.6583 14.0291L34.0288 13.1699L34.3992 14.0291L35.3309 14.1169L34.6283 14.7355L34.8345 15.6482Z" fill="url(#paint10_linear_1527_57274)"/>
<path d="M27.239 15.6482L26.4333 15.1709L25.6314 15.6482L25.8338 14.7355L25.1311 14.1169L26.0629 14.0291L26.4333 13.1699L26.8037 14.0291L27.7393 14.1169L27.0367 14.7355L27.239 15.6482Z" fill="url(#paint11_linear_1527_57274)"/>
<path d="M31.3595 44.2053L30.149 44.9232L28.9346 44.2053L29.2477 45.5801L28.1899 46.5118L29.5914 46.6417L30.149 47.9362L30.7065 46.6417L32.108 46.5118L31.0502 45.5801L31.3595 44.2053Z" fill="url(#paint12_linear_1527_57274)"/>
<path d="M27.239 44.5032L26.4333 44.9805L25.6275 44.5032L25.8338 45.4159L25.1311 46.0345L26.0629 46.1223L26.4333 46.9815L26.8037 46.1223L27.7393 46.0345L27.0367 45.4159L27.239 44.5032Z" fill="url(#paint13_linear_1527_57274)"/>
<path d="M34.6283 45.4159L34.8307 44.5032L34.0288 44.9805L33.223 44.5032L33.4292 45.4159L32.7228 46.0345L33.6584 46.1223L34.0288 46.9815L34.3992 46.1223L35.331 46.0345L34.6283 45.4159Z" fill="url(#paint14_linear_1527_57274)"/>
<path d="M18.2229 37.3431H14.7708L17.696 25.6463H12.7812L13.3655 23.2978H26.5669L25.9826 25.6463H21.1366L18.2229 37.3431Z" fill="url(#paint15_linear_1527_57274)"/>
<path d="M25.0814 37.3437L28.5908 23.3022H32.0315L28.5336 37.3437H25.0814Z" fill="url(#paint16_linear_1527_57274)"/>
<path d="M31.7338 37.3437L35.2317 23.3022H47.6579L47.0736 25.6507H38.0996L37.2977 28.8394H45.9738L45.3896 31.1879H36.7172L35.6671 34.999H45.4163L44.8206 37.3475H31.7338V37.3437Z" fill="url(#paint17_linear_1527_57274)"/>
<defs>
<linearGradient id="paint0_linear_1527_57274" x1="6.69536" y1="6.69516" x2="64.5701" y2="64.5699" gradientUnits="userSpaceOnUse">
<stop stop-color="#EEBE47"/>
<stop offset="0.1204" stop-color="#F8DB77"/>
<stop offset="0.2097" stop-color="#FFEE96"/>
<stop offset="0.4462" stop-color="#A2621E"/>
<stop offset="0.6667" stop-color="#EEA54C"/>
<stop offset="1" stop-color="#EEBE47"/>
</linearGradient>
<linearGradient id="paint1_linear_1527_57274" x1="52.7665" y1="52.7663" x2="-3.77504" y2="-3.77522" gradientUnits="userSpaceOnUse">
<stop stop-color="#EEBE47"/>
<stop offset="0.1204" stop-color="#F8DB77"/>
<stop offset="0.2097" stop-color="#FFEE96"/>
<stop offset="0.4462" stop-color="#A2621E"/>
<stop offset="0.6667" stop-color="#EEA54C"/>
<stop offset="1" stop-color="#EEBE47"/>
</linearGradient>
<radialGradient id="paint2_radial_1527_57274" cx="0" cy="0" r="1" gradientUnits="userSpaceOnUse" gradientTransform="translate(20.194 9.63951) scale(55.4773)">
<stop stop-color="#2C3C4F"/>
<stop offset="0.5161" stop-color="#0D1D30"/>
<stop offset="1" stop-color="#060D29"/>
</radialGradient>
<linearGradient id="paint3_linear_1527_57274" x1="10.3975" y1="7.92961" x2="54.8793" y2="57.8613" gradientUnits="userSpaceOnUse">
<stop stop-color="#EEBE47"/>
<stop offset="0.1204" stop-color="#F8DB77"/>
<stop offset="0.2097" stop-color="#FFEE96"/>
<stop offset="0.4462" stop-color="#A2621E"/>
<stop offset="0.6667" stop-color="#EEA54C"/>
<stop offset="1" stop-color="#EEBE47"/>
</linearGradient>
<linearGradient id="paint4_linear_1527_57274" x1="48.8148" y1="45.6475" x2="11.6316" y2="14.7236" gradientUnits="userSpaceOnUse">
<stop stop-color="#EEBE47"/>
<stop offset="0.1204" stop-color="#F8DB77"/>
<stop offset="0.2097" stop-color="#FFEE96"/>
<stop offset="0.4462" stop-color="#A2621E"/>
<stop offset="0.6667" stop-color="#EEA54C"/>
<stop offset="1" stop-color="#EEBE47"/>
</linearGradient>
<linearGradient id="paint5_linear_1527_57274" x1="11.5627" y1="14.6664" x2="47.9975" y2="44.9679" gradientUnits="userSpaceOnUse">
<stop stop-color="#EEBE47"/>
<stop offset="0.1204" stop-color="#F8DB77"/>
<stop offset="0.2097" stop-color="#FFEE96"/>
<stop offset="0.4462" stop-color="#A2621E"/>
<stop offset="0.6667" stop-color="#EEA54C"/>
<stop offset="1" stop-color="#EEBE47"/>
</linearGradient>
<linearGradient id="paint6_linear_1527_57274" x1="15.3454" y1="17.8118" x2="44.3044" y2="41.896" gradientUnits="userSpaceOnUse">
<stop stop-color="#EEBE47"/>
<stop offset="0.1204" stop-color="#F8DB77"/>
<stop offset="0.2097" stop-color="#FFEE96"/>
<stop offset="0.4462" stop-color="#A2621E"/>
<stop offset="0.6667" stop-color="#EEA54C"/>
<stop offset="1" stop-color="#EEBE47"/>
</linearGradient>
<radialGradient id="paint7_radial_1527_57274" cx="0" cy="0" r="1" gradientUnits="userSpaceOnUse" gradientTransform="translate(44.374 51.2178) scale(48.442)">
<stop offset="0.0591" stop-color="#2C3C4F"/>
<stop offset="0.5161" stop-color="#0D1D30"/>
<stop offset="1" stop-color="#060D29"/>
</radialGradient>
<linearGradient id="paint8_linear_1527_57274" x1="13.6212" y1="16.3781" x2="45.988" y2="43.2964" gradientUnits="userSpaceOnUse">
<stop stop-color="#EEBE47"/>
<stop offset="0.1204" stop-color="#F8DB77"/>
<stop offset="0.2097" stop-color="#FFEE96"/>
<stop offset="0.4462" stop-color="#A2621E"/>
<stop offset="0.6667" stop-color="#EEA54C"/>
<stop offset="1" stop-color="#EEBE47"/>
</linearGradient>
<linearGradient id="paint9_linear_1527_57274" x1="28.1718" y1="11.6589" x2="37.8144" y2="23.6684" gradientUnits="userSpaceOnUse">
<stop stop-color="#EEBE47"/>
<stop offset="0.1204" stop-color="#F8DB77"/>
<stop offset="0.2097" stop-color="#FFEE96"/>
<stop offset="0.4462" stop-color="#A2621E"/>
<stop offset="0.6667" stop-color="#EEA54C"/>
<stop offset="1" stop-color="#EEBE47"/>
</linearGradient>
<linearGradient id="paint10_linear_1527_57274" x1="30.3097" y1="9.94192" x2="39.9524" y2="21.9516" gradientUnits="userSpaceOnUse">
<stop stop-color="#EEBE47"/>
<stop offset="0.1204" stop-color="#F8DB77"/>
<stop offset="0.2097" stop-color="#FFEE96"/>
<stop offset="0.4462" stop-color="#A2621E"/>
<stop offset="0.6667" stop-color="#EEA54C"/>
<stop offset="1" stop-color="#EEBE47"/>
</linearGradient>
<linearGradient id="paint11_linear_1527_57274" x1="25.693" y1="13.649" x2="35.3359" y2="25.6588" gradientUnits="userSpaceOnUse">
<stop stop-color="#EEBE47"/>
<stop offset="0.1204" stop-color="#F8DB77"/>
<stop offset="0.2097" stop-color="#FFEE96"/>
<stop offset="0.4462" stop-color="#A2621E"/>
<stop offset="0.6667" stop-color="#EEA54C"/>
<stop offset="1" stop-color="#EEBE47"/>
</linearGradient>
<linearGradient id="paint12_linear_1527_57274" x1="25.7076" y1="40.8113" x2="37.3228" y2="53.799" gradientUnits="userSpaceOnUse">
<stop stop-color="#EEBE47"/>
<stop offset="0.1204" stop-color="#F8DB77"/>
<stop offset="0.2097" stop-color="#FFEE96"/>
<stop offset="0.4462" stop-color="#A2621E"/>
<stop offset="0.6667" stop-color="#EEA54C"/>
<stop offset="1" stop-color="#EEBE47"/>
</linearGradient>
<linearGradient id="paint13_linear_1527_57274" x1="23.7591" y1="42.5551" x2="35.3729" y2="55.5412" gradientUnits="userSpaceOnUse">
<stop stop-color="#EEBE47"/>
<stop offset="0.1204" stop-color="#F8DB77"/>
<stop offset="0.2097" stop-color="#FFEE96"/>
<stop offset="0.4462" stop-color="#A2621E"/>
<stop offset="0.6667" stop-color="#EEA54C"/>
<stop offset="1" stop-color="#EEBE47"/>
</linearGradient>
<linearGradient id="paint14_linear_1527_57274" x1="27.9777" y1="38.7819" x2="39.5916" y2="51.7682" gradientUnits="userSpaceOnUse">
<stop stop-color="#EEBE47"/>
<stop offset="0.1204" stop-color="#F8DB77"/>
<stop offset="0.2097" stop-color="#FFEE96"/>
<stop offset="0.4462" stop-color="#A2621E"/>
<stop offset="0.6667" stop-color="#EEA54C"/>
<stop offset="1" stop-color="#EEBE47"/>
</linearGradient>
<linearGradient id="paint15_linear_1527_57274" x1="12.7806" y1="30.3207" x2="26.5663" y2="30.3207" gradientUnits="userSpaceOnUse">
<stop stop-color="#EEBE47"/>
<stop offset="0.1204" stop-color="#F8DB77"/>
<stop offset="0.2097" stop-color="#FFEE96"/>
<stop offset="0.4462" stop-color="#A2621E"/>
<stop offset="0.6667" stop-color="#EEA54C"/>
<stop offset="1" stop-color="#EEBE47"/>
</linearGradient>
<linearGradient id="paint16_linear_1527_57274" x1="25.0803" y1="30.3213" x2="32.0302" y2="30.3213" gradientUnits="userSpaceOnUse">
<stop stop-color="#EEBE47"/>
<stop offset="0.1204" stop-color="#F8DB77"/>
<stop offset="0.2097" stop-color="#FFEE96"/>
<stop offset="0.4462" stop-color="#A2621E"/>
<stop offset="0.6667" stop-color="#EEA54C"/>
<stop offset="1" stop-color="#EEBE47"/>
</linearGradient>
<linearGradient id="paint17_linear_1527_57274" x1="31.7332" y1="30.3213" x2="47.6569" y2="30.3213" gradientUnits="userSpaceOnUse">
<stop stop-color="#EEBE47"/>
<stop offset="0.1204" stop-color="#F8DB77"/>
<stop offset="0.2097" stop-color="#FFEE96"/>
<stop offset="0.4462" stop-color="#A2621E"/>
<stop offset="0.6667" stop-color="#EEA54C"/>
<stop offset="1" stop-color="#EEBE47"/>
</linearGradient>
</defs>
</svg>
