<svg width="38" height="39" viewBox="0 0 38 39" fill="none" xmlns="http://www.w3.org/2000/svg">
<g clip-path="url(#clip0_11291_166219)">
<path d="M5.15407 21.4376C5.36043 22.0324 5.61231 22.609 5.84598 23.1917C5.81563 22.6272 5.73066 22.084 5.66997 21.5377C5.61231 21.0127 5.56982 20.4786 5.72459 19.9567C5.8217 19.6259 6.00075 19.374 6.31333 19.2921C6.44382 19.2587 6.56521 19.2648 6.67445 19.3012C6.61983 19.5106 6.54093 19.814 6.53486 19.8383C6.20711 21.1007 6.34367 22.2934 6.88385 23.4162C7.14787 23.9655 7.509 24.4116 7.95206 24.7758C8.19484 24.9761 8.1918 25.1187 7.94296 25.2856C7.74874 25.4131 7.54238 25.5162 7.31781 25.6437C8.14628 25.932 8.9869 25.929 9.89124 26.023C9.79716 25.7772 9.75771 25.5527 9.64543 25.3948C9.42693 25.0883 9.18415 24.8031 8.9262 24.5421C7.90047 23.5012 7.32388 22.4148 7.03558 20.6425C7.14787 20.3512 7.20553 20.1054 7.2116 19.896C7.23284 19.9445 7.25408 19.9961 7.27229 20.0447C7.40582 20.3542 7.50293 20.688 7.66984 20.9703C7.99455 21.5226 8.24339 22.1143 8.43155 22.7456C8.46796 22.8639 8.50438 22.9792 8.5408 23.0976C8.55597 23.0976 8.57418 23.0945 8.58935 23.0915C8.60452 23.0065 8.6288 22.9246 8.63487 22.8366C8.67736 22.2995 8.7077 21.7593 8.75929 21.2252C8.78964 20.8853 8.73805 20.5818 8.58935 20.2905C8.06738 19.2708 7.27533 18.6426 6.3285 18.236C5.95827 18.0752 5.95523 18.0812 6.12214 17.6715C6.66839 16.3363 7.0022 14.9282 7.29657 13.5049C7.36637 13.162 7.43009 12.816 7.50293 12.4427C7.46044 12.4701 7.44527 12.4731 7.4392 12.4822C7.39064 12.5641 7.33905 12.6461 7.29353 12.7341C6.42257 14.3637 5.47878 15.9357 4.38933 17.3893C4.07979 17.802 4.03427 18.1267 4.21938 18.6153C4.56837 19.5379 4.83239 20.5029 5.1571 21.4406L5.15407 21.4376Z" fill="white"/>
<path d="M32.8457 21.4376C32.6394 22.0324 32.3875 22.609 32.1538 23.1917C32.1842 22.6272 32.2691 22.084 32.3298 21.5377C32.3875 21.0127 32.43 20.4786 32.2752 19.9567C32.1781 19.6259 31.999 19.374 31.6865 19.2921C31.556 19.2587 31.4346 19.2648 31.3253 19.3012C31.38 19.5106 31.4589 19.814 31.4649 19.8383C31.7927 21.1007 31.6561 22.2934 31.1159 23.4162C30.8519 23.9655 30.4908 24.4116 30.0477 24.7758C29.8049 24.9761 29.808 25.1187 30.0568 25.2856C30.251 25.4131 30.4574 25.5162 30.682 25.6437C29.8535 25.932 29.0129 25.929 28.1086 26.023C28.2026 25.7772 28.2421 25.5527 28.3544 25.3948C28.5729 25.0883 28.8156 24.8031 29.0736 24.5421C30.0993 23.5012 30.6759 22.4148 30.9642 20.6425C30.8519 20.3512 30.7943 20.1054 30.7882 19.896C30.7669 19.9445 30.7457 19.9961 30.7275 20.0447C30.594 20.3542 30.4969 20.688 30.33 20.9703C30.0052 21.5226 29.7564 22.1143 29.5682 22.7456C29.5318 22.8639 29.4954 22.9792 29.459 23.0976C29.4438 23.0976 29.4256 23.0945 29.4104 23.0915C29.3953 23.0065 29.371 22.9246 29.3649 22.8366C29.3224 22.2995 29.2921 21.7593 29.2405 21.2252C29.2101 20.8853 29.2617 20.5818 29.4104 20.2905C29.9324 19.2708 30.7245 18.6426 31.6713 18.236C32.0415 18.0752 32.0446 18.0812 31.8776 17.6715C31.3314 16.3363 30.9976 14.9282 30.7032 13.5049C30.6334 13.162 30.5697 12.816 30.4969 12.4427C30.5393 12.4701 30.5545 12.4731 30.5606 12.4822C30.6091 12.5641 30.6607 12.6461 30.7063 12.7341C31.5772 14.3637 32.521 15.9357 33.6105 17.3893C33.92 17.802 33.9655 18.1267 33.7804 18.6153C33.4314 19.5379 33.1674 20.5029 32.8427 21.4406L32.8457 21.4376Z" fill="white"/>
<path d="M10.5442 23.4195C10.5442 23.6077 10.5533 23.7958 10.5655 23.984C10.5867 24.3208 10.6777 24.6334 10.9175 24.8944C10.9721 24.9551 11.0358 25.0097 11.1087 25.0492C11.1754 25.5469 11.3545 25.9414 11.6671 26.2418C12.7899 27.3191 13.9795 28.1992 15.2723 28.7363C15.858 28.9791 16.4558 29.1339 17.0688 29.0307C17.084 28.9821 17.1022 28.9305 17.1174 28.882C16.908 28.6878 16.6713 27.9048 16.4406 27.7986C16.0067 27.5983 15.6031 27.9443 15.1509 27.8684C13.5 27.5862 12.4591 26.524 12.1921 24.3421C12.5714 24.4361 13.1207 24.597 13.3179 24.6182C13.4727 24.6364 13.5759 24.5727 13.6366 24.4392C14.1191 23.4074 14.4377 22.3331 14.5955 21.1556C14.4317 21.1951 14.286 21.1981 14.1828 21.2619C13.9522 21.4015 13.7215 21.5502 13.5273 21.7292C13.324 21.9143 12.5228 21.887 12.3408 22.0934C12.0191 22.4515 11.6003 22.5425 11.1876 22.2845C10.9478 22.1328 10.7263 21.9204 10.5746 21.6867C10.2104 21.1283 9.87962 20.5487 9.56098 19.963C9.41531 19.696 9.29696 19.4077 9.22412 19.1194C9.05418 18.4548 9.61257 17.1468 10.2529 16.3669C10.2741 16.3851 10.2893 16.4063 10.3136 16.4245C10.5048 16.5611 10.696 16.7037 10.9053 16.813C10.6353 17.2348 10.262 17.7628 10.0799 18.127C9.77947 18.7309 9.8432 19.3348 10.1892 19.9114C10.6929 20.749 11.4668 21.277 12.4348 21.6533C12.1526 21.2861 11.8795 20.9705 11.658 20.6246C11.3514 20.1512 11.2027 19.6353 11.3423 19.0738C11.4243 18.7431 12.1374 18.2059 12.535 18.212C12.535 18.2089 12.5289 18.2029 12.5259 18.1998C12.7383 18.4335 13.0327 18.5579 13.3786 18.6035C13.6002 18.6338 13.8278 18.6824 14.0311 18.7673C14.6562 19.0253 14.9081 19.5108 14.7412 20.0723C14.7533 20.0692 14.7685 20.0662 14.7776 20.0601C14.8049 20.0389 14.8322 20.0176 14.8565 19.9934C15.4301 19.4198 15.6668 18.7461 15.4513 17.9753C15.2328 17.1954 14.6927 16.6734 13.8642 16.4731C13.4211 16.3669 12.9568 16.3335 12.5016 16.2607C11.9098 16.1666 11.3818 15.9663 11.1694 15.3745C11.0905 15.156 11.0632 14.9163 11.054 14.6826C11.0419 14.3943 11.0692 14.106 11.0874 13.8177C11.1026 13.6083 11.0783 13.405 11.0237 13.2108C11.7065 11.8391 11.051 11.038 10.5928 10.6343C10.347 11.1715 9.95549 11.478 9.73699 11.9544C9.82499 12.792 9.3182 13.2897 8.62325 13.6872C9.14219 13.9391 9.57615 14.276 9.90086 14.7312C9.9828 14.8465 10.0496 14.9649 10.0951 15.0862C9.94031 15.5323 9.15736 16.5763 9.03597 16.7917C8.79623 17.2196 8.65664 17.6506 8.60808 18.0815C8.52311 17.5443 8.03452 16.7705 8.47759 16.5156C8.63843 16.4215 8.83872 16.0968 8.98135 15.9784C9.29392 15.7175 9.15129 15.3442 8.99349 14.9649C8.93279 14.8222 8.8721 14.6796 8.82051 14.5309C8.69609 14.1789 8.47759 13.9027 8.08611 13.751C8.25909 14.2031 8.24695 14.5643 8.01631 15.0377C7.86761 15.3412 7.68857 15.6325 7.51559 15.9238C7.15142 16.5399 7.0179 17.2014 7.06645 17.9024C7.10287 18.4669 8.67181 19.5988 9.06936 20.0207C9.06936 20.0176 9.06632 20.0116 9.06329 20.0085C9.28178 20.397 9.53063 20.7733 9.76127 21.1556C10.1861 21.8627 10.5321 22.5941 10.5412 23.4286L10.5442 23.4195ZM13.5395 16.6491C13.3635 17.08 13.5395 17.3259 13.9795 17.2834C13.9461 17.1741 13.9127 17.0709 13.8794 16.9647C13.9522 16.9131 14.0311 16.8797 14.11 16.8676C14.2253 16.8494 14.3467 16.8737 14.4681 16.9374C14.4984 16.9526 14.5257 16.9708 14.5561 16.992C14.7867 17.1529 14.8747 17.4108 14.7837 17.6718C14.638 18.0906 14.1646 18.3273 13.6912 18.2059C13.1085 18.0572 12.8172 17.6475 12.6442 17.1377C12.6108 17.0376 12.1587 16.7766 12.1283 16.6491C12.447 16.6855 13.1965 16.7523 13.5395 16.6491Z" fill="white"/>
<path d="M6.78691 12.4067C7.70946 11.4417 8.72912 10.6435 9.81554 10.0184C8.41654 9.46 7.50006 8.19453 6.4713 7.05651C6.66552 7.17487 6.87491 7.26287 7.09948 7.32357C7.89154 7.54207 8.68663 7.72718 9.52421 7.74843C10.377 7.76967 11.1994 7.68773 11.9793 7.35391C12.2919 7.22039 12.5862 7.04438 12.8897 6.88657L12.8593 6.82588C12.8229 6.82891 12.7835 6.82891 12.7471 6.83802C12.1158 6.97458 11.4786 7.0292 10.8322 6.98672C9.60918 6.90478 8.5349 6.52241 7.70642 5.58772C7.48792 5.33887 7.2148 5.11431 6.92347 4.95347C6.35295 4.63179 5.77635 4.92312 5.6489 5.55434C5.55786 6.00651 5.72476 6.38281 6.02823 6.71056C6.39543 8.60725 6.88098 10.4463 6.78387 12.4128L6.78691 12.4067Z" fill="white"/>
<path d="M10.9053 27.9957C11.2057 28.0048 11.5031 28.023 11.8187 28.0382C11.8339 27.8015 11.8491 27.583 11.8642 27.3372C11.8005 27.3311 11.7611 27.3281 11.7216 27.3281C10.7444 27.2978 9.7794 27.404 8.82347 27.5921C7.13921 27.9229 5.54296 28.5086 3.97098 29.1641C3.55219 29.3401 3.13644 29.5161 2.71765 29.6952C2.79959 29.7043 2.86635 29.68 2.93312 29.6588C4.10147 29.2946 5.26073 28.9031 6.43819 28.5784C7.89485 28.1748 9.38489 27.9533 10.9053 27.9988V27.9957Z" fill="white"/>
<path d="M12.1827 13.8937C12.1372 13.9422 12.1159 14.0545 12.1372 14.1152C12.298 14.537 12.562 14.8557 13.0385 14.9831C13.5119 15.1106 13.9155 15.3655 14.2675 15.6993C14.2979 15.7297 14.3313 15.757 14.3647 15.7843C14.4921 15.9694 14.6196 16.1545 14.741 16.3366C14.741 16.0999 14.7167 15.8359 14.747 15.5749C14.8199 14.9285 15.3934 14.4247 16.2249 14.2578C16.5972 14.183 16.7793 14.0049 16.7712 13.7237C16.7712 13.6357 16.7651 13.5447 16.7439 13.4597C16.7014 13.2715 16.6043 13.1471 16.4586 13.0925C16.4252 13.0713 16.4161 13.0622 16.407 13.0622C16.3797 13.0622 16.3524 13.0622 16.3251 13.0622C16.5769 12.8467 16.7863 12.4765 16.9836 12.0364C17.0655 11.8513 17.2537 11.7299 17.2415 11.5084C16.9381 11.4477 16.6407 11.3931 16.3463 11.3324C16.0034 11.2626 15.6635 11.2899 15.3358 11.3931C14.8775 11.5387 14.4223 11.6905 13.9671 11.8452C13.5878 11.9727 13.2054 12.0971 12.8321 12.2367C12.5378 12.346 12.3405 12.5493 12.2343 12.877C12.38 12.8254 12.4862 12.786 12.5924 12.7496C13.3268 12.4947 14.0703 12.5372 14.8138 12.6919C15.0262 12.8983 15.2174 13.0439 15.3934 13.135C14.9868 13.1987 14.5892 13.308 14.2038 13.484C14.0157 13.5689 13.8093 13.6114 13.609 13.6752C13.5938 13.6509 13.5756 13.6266 13.5605 13.5993C13.7183 13.4233 13.8791 13.2473 14.0339 13.0773C13.4846 13.0925 12.5529 13.4992 12.1827 13.8997V13.8937Z" fill="white"/>
<path d="M6.59596 34.754C7.34857 33.6827 8.25898 32.7602 9.33933 31.9985C10.4258 31.2337 11.6154 30.6814 12.9263 30.3445C12.8444 30.1048 12.7685 29.8863 12.6866 29.6496C10.0009 30.6359 7.96764 32.3201 6.59293 34.754H6.59596Z" fill="white"/>
<path d="M11.8396 26.5334C11.8548 26.4181 11.8639 26.2997 11.876 26.1662C9.33596 25.972 6.81109 25.9963 4.28622 26.2542C6.80199 26.2542 9.29955 26.4666 11.788 26.8854C11.8062 26.7519 11.8244 26.6427 11.8396 26.5334Z" fill="white"/>
<path d="M11.9912 28.3905C9.61804 28.9944 7.4634 29.9838 5.51816 31.3949C7.57872 30.2356 9.78191 29.4648 12.149 29.1007C12.0944 28.8548 12.0458 28.6333 11.9912 28.3905Z" fill="white"/>
<path d="M10.6017 9.62079C10.6958 9.50547 10.7626 9.36588 10.8232 9.22932C10.9689 8.8955 11.1024 8.56168 11.4909 8.41298C11.5394 8.39477 11.5516 8.28856 11.5819 8.2218C11.5121 8.20662 11.4423 8.18234 11.3695 8.17628C11.3331 8.17324 11.2936 8.20055 11.2572 8.21269C10.7686 8.39477 10.2649 8.44333 9.75503 8.36139C9.28769 8.28552 8.82338 8.17628 8.35603 8.08827C8.26196 8.07006 8.16485 8.06703 8.06774 8.05792C8.06167 8.07917 8.0556 8.10344 8.04953 8.12469C8.10719 8.16414 8.15878 8.20966 8.21947 8.24304C8.66254 8.50099 9.10561 8.75894 9.54564 9.01689C9.88249 9.21414 10.1586 9.45995 10.2375 9.93033C10.3893 9.80287 10.5137 9.72397 10.6017 9.61776V9.62079Z" fill="white"/>
<path d="M17.0956 21.0188C17.3657 20.7669 17.5963 20.4725 17.8148 20.1782C17.9817 19.9506 18.0606 19.6896 17.8968 19.4286C17.3566 19.7594 16.8316 20.0841 16.3036 20.4058C15.5601 20.8579 15.2839 21.4285 15.4508 22.2691C15.5236 22.6393 15.6238 23.0065 15.7209 23.3707C15.7057 23.8562 16.0365 24.3873 16.6465 24.6847C16.5069 24.4267 16.3551 24.1749 16.2338 23.9108C16.1336 23.6863 16.0486 23.4526 15.994 23.2159C16.0062 23.1582 16.0213 23.1006 16.0304 23.0429C16.1397 22.2448 16.4978 21.5802 17.0956 21.0218V21.0188Z" fill="white"/>
<path d="M18.4463 16.0602C18.3522 16.6793 17.9851 17.1285 17.3053 17.4016C17.1596 17.4592 17.0139 17.5624 16.9259 17.6747C16.5861 18.1208 16.4525 18.6276 16.319 19.1314C16.3463 19.1465 16.3767 19.1617 16.404 19.1769C16.4859 19.1162 16.6073 19.0676 16.6437 18.9918C16.8895 18.4759 17.3902 18.1481 17.8697 17.8022C18.5222 17.3318 18.595 16.7218 18.4433 16.0602H18.4463Z" fill="white"/>
<path d="M28.2329 21.2073C28.4635 20.825 28.7123 20.4487 28.9308 20.0602C28.9308 20.0633 28.9278 20.0693 28.9248 20.0724C29.3223 19.6505 30.8882 18.5186 30.9277 17.9541C30.9732 17.2531 30.8427 16.5916 30.4785 15.9755C30.3056 15.6842 30.1265 15.3929 29.9778 15.0894C29.7441 14.619 29.735 14.2548 29.908 13.8027C29.5165 13.9544 29.3011 14.2275 29.1736 14.5826C29.122 14.7283 29.0613 14.8709 29.0006 15.0166C28.8428 15.3959 28.7002 15.7692 29.0128 16.0301C29.1554 16.1485 29.3557 16.4732 29.5165 16.5673C29.9596 16.8252 29.471 17.5991 29.386 18.1332C29.3405 17.7023 29.2009 17.2713 28.9581 16.8434C28.8368 16.628 28.0538 15.5871 27.899 15.1379C27.9446 15.0166 28.0113 14.8982 28.0933 14.7829C28.418 14.3277 28.8519 13.9908 29.3709 13.7389C28.679 13.3384 28.1691 12.8437 28.2571 12.0061C28.0386 11.5297 27.6472 11.2232 27.4013 10.686C26.9431 11.0927 26.2876 11.8908 26.9704 13.2625C26.9158 13.4567 26.8915 13.6631 26.9067 13.8694C26.9279 14.1577 26.9522 14.446 26.9401 14.7343C26.931 14.968 26.9037 15.2077 26.8247 15.4262C26.6123 16.018 26.0843 16.2183 25.4925 16.3124C25.0373 16.3852 24.576 16.4155 24.1299 16.5248C23.3015 16.7251 22.7613 17.2471 22.5428 18.027C22.3273 18.7978 22.5671 19.4715 23.1376 20.045C23.1619 20.0693 23.1892 20.0906 23.2165 20.1118C23.2256 20.1179 23.2408 20.1209 23.2529 20.1239C23.086 19.5625 23.3379 19.08 23.963 18.819C24.1664 18.7341 24.394 18.6855 24.6155 18.6552C24.9645 18.6096 25.2558 18.4852 25.4682 18.2515C25.4682 18.2546 25.4622 18.2606 25.4591 18.2637C25.8567 18.2576 26.5698 18.7948 26.6518 19.1255C26.7914 19.687 26.6427 20.2029 26.3362 20.6763C26.1116 21.0192 25.8385 21.3348 25.5593 21.705C26.5304 21.3287 27.3042 20.8037 27.805 19.9631C28.1509 19.3865 28.2177 18.7826 27.9142 18.1787C27.7321 17.8145 27.3589 17.2865 27.0888 16.8647C27.2982 16.7554 27.4893 16.6128 27.6805 16.4762C27.7048 16.458 27.72 16.4368 27.7412 16.4186C28.3785 17.1985 28.9399 18.5065 28.77 19.1711C28.6941 19.4624 28.5788 19.7507 28.4331 20.0147C28.1145 20.5974 27.7837 21.18 27.4196 21.7384C27.2678 21.969 27.0463 22.1845 26.8065 22.3362C26.3938 22.5942 25.975 22.5032 25.6534 22.1451C25.4713 21.9387 24.6701 21.966 24.4668 21.7809C24.2695 21.6018 24.0419 21.4501 23.8113 21.3136C23.7051 21.2498 23.5625 21.2468 23.3986 21.2073C23.5564 22.3848 23.875 23.4591 24.3575 24.4909C24.4213 24.6244 24.5214 24.6881 24.6762 24.6699C24.8734 24.6487 25.4227 24.4878 25.8021 24.3938C25.538 26.5757 24.4971 27.6379 22.8432 27.9201C22.3941 27.996 21.9874 27.65 21.5535 27.8503C21.3259 27.9565 21.0892 28.7395 20.8767 28.9337C20.8919 28.9822 20.9101 29.0338 20.9253 29.0824C21.5383 29.1886 22.1361 29.0338 22.7218 28.788C24.0146 28.2509 25.2042 27.3708 26.3271 26.2935C26.6396 25.9931 26.8187 25.6016 26.8854 25.1009C26.9583 25.0614 27.019 25.0068 27.0766 24.9461C27.3133 24.6881 27.4074 24.3725 27.4287 24.0357C27.4408 23.8475 27.4469 23.6594 27.4499 23.4712C27.459 22.6367 27.8019 21.9053 28.2298 21.1982L28.2329 21.2073ZM25.8688 16.6492C25.8385 16.7767 25.3893 17.0953 25.3529 17.1985C25.1799 17.7083 24.8856 18.118 24.306 18.2667C23.8325 18.3881 23.3591 18.1514 23.2135 17.7326C23.1224 17.4716 23.2074 17.2137 23.4411 17.0528C23.4714 17.0316 23.4987 17.0134 23.5291 16.9982C23.6505 16.9345 23.7718 16.9102 23.8872 16.9284C23.9661 16.9406 24.045 16.9739 24.1178 17.0255C24.0844 17.1287 24.051 17.2349 24.0177 17.3442C24.4577 17.3867 24.6337 17.1439 24.4577 16.7099C24.8006 16.8131 25.5502 16.6856 25.8688 16.6492Z" fill="white"/>
<path d="M15.6574 6.78334C16.6619 6.62554 18.0851 6.68016 18.5768 6.88652C18.4523 6.98363 18.3279 7.08074 18.2035 7.17785C18.8438 7.67858 19.3445 7.58147 19.821 7.16571C19.6996 7.07164 19.5782 6.9806 19.4204 6.85921C20.434 6.65285 21.4142 6.64071 22.3974 6.78941C23.3716 6.93507 24.2941 7.24765 25.1681 7.69071C24.9314 7.26282 24.5551 6.99577 24.109 6.85921C23.2472 6.59822 22.3792 6.34938 21.4992 6.15212C20.6919 5.97004 19.8665 5.92755 19.0502 6.14605C19.0229 6.15516 18.9864 6.14302 18.9531 6.13391C18.3795 5.98218 17.7968 5.98825 17.2142 6.04894C16.1945 6.15516 15.2143 6.42828 14.2493 6.74085C13.9185 6.8501 13.5998 7.02005 13.3024 7.20213C13.1204 7.31441 12.9899 7.50256 12.8381 7.65733C12.8533 7.67251 12.8685 7.68768 12.8806 7.70285C13.7516 7.23551 14.6802 6.93507 15.6574 6.7803V6.78334Z" fill="white"/>
<path d="M21.8604 10.2186C21.2504 9.99101 20.6587 10.0092 20.0881 10.3552C19.897 10.4705 19.6845 10.5767 19.4691 10.6222C18.9076 10.7406 18.3644 10.686 17.8667 10.3643C17.5724 10.1761 17.2507 10.0608 16.8835 10.0638C16.3281 10.0699 15.8487 10.3066 15.3601 10.5221C15.3237 10.5373 15.2963 10.5767 15.3085 10.5676C15.3479 10.5767 15.3874 10.5858 15.4238 10.5949C15.3844 10.6162 15.3449 10.6313 15.3055 10.6526C16.1248 10.6708 16.8471 10.9985 17.5966 11.2231C17.9062 11.3172 18.2279 11.3779 18.5647 11.4568C18.6072 11.6328 18.5222 11.83 18.4191 12.0364C18.3128 12.2549 18.2309 12.4946 18.1884 12.7313C18.1611 12.88 18.2248 13.0439 18.2491 13.2078C18.1945 13.2139 18.1399 13.2139 18.0883 13.223C17.5754 13.2988 17.1748 13.578 17.1809 14.1212C17.1809 14.2426 17.1414 14.367 17.105 14.4854C17.0018 14.801 16.8016 15.0438 16.5224 15.235C15.9185 15.6447 15.8153 16.4155 15.9913 16.9678C15.9609 17.2348 15.9488 17.508 15.9336 17.7811C15.9731 17.7568 15.9913 17.7507 15.9943 17.7416C16.0277 17.6658 16.0581 17.5899 16.0884 17.514C16.1127 17.4533 16.137 17.3926 16.1643 17.3319C16.1703 17.341 16.1734 17.3502 16.1764 17.3593C16.1825 17.3228 16.1916 17.2895 16.1977 17.2561C16.3949 16.8039 16.6377 16.3669 17.0656 16.0179C17.3326 15.7994 17.6361 15.6052 17.9456 15.4231C18.1702 15.2896 18.2612 15.1379 18.2734 14.9163C18.2946 14.5431 18.2582 14.1576 18.3948 13.7905C18.4524 13.7722 18.5131 13.7601 18.5738 13.751C18.8318 13.7207 18.8409 13.7115 18.8136 13.4597C18.7832 13.1926 18.7498 12.9286 18.7225 12.6615C18.7043 12.4825 18.7559 12.3277 18.8925 12.2003C18.9774 12.1183 19.0472 12.1244 19.1322 12.2033C19.1504 12.2215 19.1656 12.2428 19.1808 12.261C19.2445 12.3611 19.2688 12.4764 19.2536 12.6039C19.2263 12.8709 19.1929 13.135 19.1626 13.402C19.1443 13.5659 19.1443 13.6266 19.2141 13.6569C19.2415 13.7085 19.293 13.7389 19.3902 13.751C19.4478 13.7571 19.5024 13.7692 19.5571 13.7813C19.727 14.1698 19.6815 14.5764 19.7027 14.974C19.7149 15.1925 19.8029 15.3473 20.0305 15.4808C20.34 15.6629 20.6435 15.8571 20.9105 16.0756C21.4204 16.4944 21.6692 17.0315 21.8877 17.5747C21.9181 17.6506 21.9484 17.7265 21.9818 17.8023C21.9848 17.8114 22.003 17.8175 22.0425 17.8418C22.0273 17.5687 22.0152 17.2955 21.9848 17.0285C22.1396 16.5429 22.0789 15.8905 21.651 15.4595C21.5842 15.3837 21.5114 15.3169 21.4295 15.2562C21.2686 15.1409 21.1381 15.0134 21.0319 14.8708C21.0137 14.8435 20.9955 14.8192 20.9803 14.7889C20.9743 14.7828 20.9712 14.7737 20.9652 14.7676C20.9287 14.6978 20.8954 14.625 20.8711 14.5461C20.8316 14.4277 20.7922 14.3033 20.7952 14.1819C20.7952 13.9695 20.7376 13.7996 20.6344 13.663C20.5646 13.5446 20.4614 13.4506 20.3248 13.3838C20.1458 13.2988 19.9455 13.2533 19.7452 13.1926C19.7725 13.0561 19.815 12.9165 19.7938 12.792C19.7847 12.7344 19.7634 12.6767 19.7483 12.6191C19.727 12.4309 19.6572 12.2428 19.548 12.0637C19.4509 11.8634 19.3719 11.6753 19.4205 11.5023C20.0457 11.3141 20.6283 11.129 21.2201 10.9682C21.7087 10.8347 22.2033 10.7375 22.6798 10.6253C22.6889 10.6344 22.6767 10.6131 22.6525 10.5949C22.6616 10.5949 22.6737 10.5949 22.6828 10.5949C22.4097 10.4492 22.1366 10.3248 21.8513 10.2186H21.8604Z" fill="white"/>
<path d="M13.5361 9.58437C13.7425 9.20504 14.0672 8.95619 14.4526 8.765C14.9867 8.50098 15.5542 8.37049 16.146 8.3098C16.8197 8.24 17.457 8.07613 17.988 7.61182C17.9456 7.60575 17.9152 7.59968 17.8818 7.59664C17.193 7.55416 16.5041 7.52381 15.8152 7.46919C14.9746 7.40242 14.2098 7.58147 13.524 8.07309C12.7896 8.60113 12.04 9.10186 11.3087 9.63293C10.9172 9.91516 10.553 10.2308 10.1767 10.5312C10.1889 10.5494 10.201 10.5676 10.2131 10.5858C11.1387 10.3825 12.0643 10.1761 12.9929 9.97888C13.2418 9.92729 13.4208 9.80287 13.5392 9.58741L13.5361 9.58437Z" fill="white"/>
<path d="M17.0959 9.64201C17.4843 9.7027 17.8667 9.79981 18.2521 9.89085C18.4372 9.93637 18.5677 9.88782 18.6557 9.72698C18.944 9.20501 18.9683 8.64966 18.8621 8.06396C18.6496 8.18535 18.4554 8.29764 18.2612 8.40992C17.6209 8.77408 16.9411 8.98348 16.1885 8.89244C15.5998 8.81961 15.1203 9.01079 14.6924 9.4053C14.1613 9.89996 13.5453 10.2854 12.8928 10.6101C12.7047 10.7042 12.5104 10.7861 12.3192 10.8711C12.3192 10.8802 12.3253 10.8862 12.3283 10.8953C12.3648 10.8893 12.4042 10.8832 12.4406 10.8711C13.2084 10.6738 13.9489 10.4159 14.6469 10.0487C15.4177 9.64201 16.237 9.50545 17.0959 9.64201Z" fill="white"/>
<path d="M26.6915 9.68754C25.9602 9.1595 25.2076 8.65575 24.4762 8.12771C23.7903 7.63305 23.0256 7.45704 22.185 7.5238C21.4961 7.57843 20.8072 7.60877 20.1184 7.65126C20.085 7.65126 20.0546 7.66036 20.0121 7.66643C20.5402 8.13074 21.1805 8.29462 21.8542 8.36441C22.446 8.42511 23.0135 8.55863 23.5476 8.81962C23.933 9.0108 24.2607 9.25965 24.4641 9.63899C24.5794 9.85445 24.7615 9.97887 25.0103 10.0305C25.9389 10.2277 26.8645 10.4341 27.7901 10.6374C27.8022 10.6192 27.8144 10.601 27.8265 10.5828C27.4502 10.2823 27.083 9.96674 26.6946 9.68451L26.6915 9.68754Z" fill="white"/>
<path d="M23.3048 9.466C22.8799 9.07149 22.3974 8.8803 21.8087 8.95314C21.0561 9.04418 20.3763 8.83478 19.736 8.47062C19.5387 8.35834 19.3445 8.24605 19.1351 8.12466C19.0289 8.71036 19.0532 9.26571 19.3415 9.78768C19.4295 9.94852 19.56 9.99707 19.7451 9.95155C20.1275 9.86051 20.5129 9.7634 20.9013 9.70271C21.7632 9.56615 22.5825 9.70271 23.3503 10.1094C24.0483 10.4766 24.7918 10.7375 25.5565 10.9318C25.593 10.9409 25.6324 10.9469 25.6688 10.956C25.6688 10.9469 25.6749 10.9409 25.6779 10.9318C25.4867 10.8438 25.2925 10.7618 25.1044 10.6708C24.4489 10.3491 23.8359 9.96066 23.3048 9.466Z" fill="white"/>
<path d="M31.2133 12.467C30.2907 11.502 29.2711 10.7038 28.1847 10.0787C29.5837 9.5203 30.5001 8.25483 31.5289 7.11682C31.3347 7.23517 31.1253 7.32318 30.9007 7.38387C30.1087 7.60237 29.3136 7.78749 28.476 7.80873C27.6232 7.82997 26.8008 7.74803 26.0209 7.41422C25.7083 7.28069 25.414 7.10468 25.1105 6.94687L25.1409 6.88618C25.1773 6.88921 25.2167 6.88921 25.2531 6.89832C25.8844 7.03488 26.5216 7.0895 27.168 7.04702C28.391 6.96508 29.4653 6.58271 30.2938 5.64802C30.5123 5.39918 30.7854 5.17461 31.0767 5.01377C31.6472 4.69209 32.2238 4.98342 32.3513 5.61464C32.4423 6.06681 32.2754 6.44311 31.972 6.77086C31.6048 8.66755 31.1192 10.5066 31.2163 12.4731L31.2133 12.467Z" fill="white"/>
<path d="M27.0953 28.0534C26.7949 28.0625 26.4975 28.0807 26.1818 28.0959C26.1667 27.8592 26.1515 27.6407 26.1363 27.3949C26.2001 27.3888 26.2395 27.3858 26.279 27.3858C27.2561 27.3554 28.2212 27.4616 29.1771 27.6498C30.8613 27.9806 32.4576 28.5662 34.0296 29.2217C34.4484 29.3978 34.8641 29.5738 35.2829 29.7528C35.201 29.7619 35.1342 29.7376 35.0674 29.7164C33.8991 29.3522 32.7398 28.9608 31.5624 28.636C30.1057 28.2324 28.6157 28.0109 27.0953 28.0564V28.0534Z" fill="white"/>
<path d="M25.8176 13.954C25.8631 14.0025 25.8843 14.1148 25.8631 14.1755C25.7023 14.5973 25.4382 14.916 24.9618 15.0434C24.4884 15.1709 24.0848 15.4258 23.7327 15.7596C23.7024 15.79 23.669 15.8173 23.6356 15.8446C23.5082 16.0297 23.3807 16.2148 23.2593 16.3969C23.2593 16.1602 23.2836 15.8962 23.2533 15.6352C23.1804 14.9888 22.6069 14.485 21.7754 14.3181C21.4031 14.2433 21.221 14.0652 21.2291 13.784C21.2291 13.696 21.2352 13.605 21.2564 13.52C21.2989 13.3319 21.396 13.2074 21.5417 13.1528C21.5751 13.1316 21.5842 13.1225 21.5933 13.1225C21.6206 13.1225 21.6479 13.1225 21.6752 13.1225C21.4233 12.907 21.2139 12.5368 21.0167 12.0967C20.9348 11.9116 20.7466 11.7902 20.7587 11.5687C21.0622 11.508 21.3596 11.4534 21.654 11.3927C21.9969 11.3229 22.3368 11.3502 22.6645 11.4534C23.1228 11.599 23.578 11.7508 24.0332 11.9055C24.4125 12.033 24.7949 12.1574 25.1682 12.297C25.4625 12.4063 25.6598 12.6096 25.766 12.9373C25.6203 12.8858 25.5141 12.8463 25.4079 12.8099C24.6735 12.555 23.93 12.5975 23.1865 12.7522C22.9741 12.9586 22.7829 13.1042 22.6069 13.1953C23.0135 13.259 23.4111 13.3683 23.7965 13.5443C23.9846 13.6293 24.191 13.6717 24.3913 13.7355C24.4064 13.7112 24.4247 13.6869 24.4398 13.6596C24.282 13.4836 24.1212 13.3076 23.9664 13.1376C24.5157 13.1528 25.4473 13.5595 25.8176 13.96V13.954Z" fill="white"/>
<path d="M22.5128 31.8105C22.5128 31.8105 22.5067 31.7923 22.5037 31.7832C22.4855 31.7832 22.4642 31.7771 22.446 31.7832C21.6206 32.0867 20.8012 32.4205 19.9697 32.6876C19.9576 32.6906 19.9454 32.6967 19.9303 32.6997C19.7057 32.7634 19.4842 32.8211 19.2596 32.8696C19.2141 32.8787 19.1686 32.8848 19.123 32.8909C19.1109 32.8909 19.0988 32.8909 19.0866 32.8909C19.0563 32.8909 19.029 32.8909 18.9986 32.8909C18.9683 32.8909 18.9379 32.8909 18.9106 32.8909C18.8985 32.8909 18.8863 32.8909 18.8742 32.8909C18.8287 32.8878 18.7832 32.8818 18.7376 32.8696C18.5131 32.8211 18.2885 32.7634 18.067 32.6997C18.0548 32.6967 18.0427 32.6906 18.0275 32.6876C17.196 32.4175 16.3766 32.0867 15.5512 31.7832C15.533 31.7771 15.5117 31.7832 15.4935 31.7832C15.4935 31.7923 15.4875 31.8014 15.4844 31.8105C15.4571 31.7984 15.4298 31.7862 15.4025 31.7741C15.4511 31.8621 15.5057 31.9137 15.5633 31.9623C16.5405 32.7816 17.5602 33.4644 18.6162 34.0259C18.7376 34.0896 18.8165 34.3263 18.9774 34.2231C18.9834 34.217 18.9925 34.214 18.9986 34.211C19.0047 34.214 19.0138 34.2201 19.0199 34.2231C19.1807 34.3233 19.2596 34.0896 19.381 34.0259C20.4371 33.4644 21.4567 32.7816 22.4339 31.9623C22.4916 31.9137 22.5492 31.8621 22.5947 31.7741C22.5674 31.7862 22.5401 31.7984 22.5128 31.8105Z" fill="white"/>
<path d="M31.4011 34.8116C30.6485 33.7403 29.7381 32.8178 28.6578 32.0561C27.5713 31.2913 26.3817 30.739 25.0707 30.4022C25.1527 30.1624 25.2285 29.9439 25.3105 29.7072C27.9962 30.6935 30.0294 32.3778 31.4042 34.8116H31.4011Z" fill="white"/>
<path d="M26.1575 26.5911C26.1423 26.4758 26.1332 26.3574 26.1211 26.2239C28.6611 26.0297 31.186 26.0539 33.7108 26.3119C31.1951 26.3119 28.6975 26.5243 26.2091 26.9431C26.1909 26.8096 26.1727 26.7003 26.1575 26.5911Z" fill="white"/>
<path d="M26.0086 28.4508C28.3817 29.0547 30.5363 30.0441 32.4816 31.4552C30.421 30.2959 28.2178 29.5251 25.8508 29.161C25.9054 28.9151 25.954 28.6936 26.0086 28.4508Z" fill="white"/>
<path d="M27.3988 9.68177C27.3047 9.56645 27.238 9.42685 27.1773 9.29029C27.0316 8.95647 26.8981 8.62266 26.5097 8.47396C26.4611 8.45575 26.449 8.34953 26.4186 8.28277C26.4884 8.2676 26.5582 8.24332 26.631 8.23725C26.6675 8.23422 26.7069 8.26153 26.7433 8.27367C27.2319 8.45575 27.7357 8.5043 28.2455 8.42237C28.7128 8.3465 29.1772 8.23725 29.6445 8.14924C29.7386 8.13104 29.8357 8.128 29.9328 8.1189C29.9389 8.14014 29.9449 8.16442 29.951 8.18566C29.8933 8.22511 29.8418 8.27063 29.7811 8.30401C29.338 8.56196 28.8949 8.81991 28.4549 9.07786C28.118 9.27512 27.8419 9.52093 27.763 9.99131C27.6112 9.86385 27.4868 9.78495 27.3988 9.67873V9.68177Z" fill="white"/>
<path d="M20.9013 21.0764C20.6312 20.8245 20.4006 20.5302 20.1821 20.2358C20.0152 20.0082 19.9363 19.7472 20.1002 19.4862C20.6403 19.817 21.1653 20.1417 21.6934 20.4634C22.4369 20.9156 22.713 21.4861 22.5461 22.3267C22.4733 22.6969 22.3731 23.0641 22.276 23.4283C22.2912 23.9139 21.9604 24.4449 21.3505 24.7423C21.4901 24.4844 21.6418 24.2325 21.7632 23.9685C21.8633 23.7439 21.9483 23.5102 22.0029 23.2735C21.9908 23.2159 21.9756 23.1582 21.9665 23.1006C21.8573 22.3024 21.4992 21.6378 20.9013 21.0795V21.0764Z" fill="white"/>
<path d="M19.551 16.1212C19.645 16.7403 20.0122 17.1894 20.692 17.4626C20.8377 17.5202 20.9833 17.6234 21.0714 17.7357C21.4112 18.1818 21.5448 18.6886 21.6783 19.1923C21.651 19.2075 21.6206 19.2227 21.5933 19.2379C21.5114 19.1772 21.39 19.1286 21.3536 19.0527C21.1078 18.5368 20.607 18.2091 20.1276 17.8631C19.4751 17.3928 19.4023 16.7828 19.554 16.1212H19.551Z" fill="white"/>
<path d="M25.2897 27.7806C25.1744 27.8595 25.0378 27.9202 24.9438 28.0204C24.792 28.1843 24.6433 28.3603 24.5432 28.5545C24.2276 29.1614 23.6904 29.4012 23.041 29.4437C22.7284 29.4649 22.4128 29.4255 22.1002 29.4133C22.0213 29.4133 21.9394 29.3951 21.8605 29.4072C21.6966 29.4346 21.645 29.565 21.7361 29.6986C21.8059 29.8048 21.9606 29.9201 21.8484 30.0354C21.7634 30.1204 21.5813 30.1507 21.4478 30.1416C20.9015 30.0961 20.3796 29.9414 19.9092 29.6622C19.7362 29.562 19.5784 29.4103 19.4601 29.2525C19.2355 28.952 19.2355 28.6273 19.4631 28.3239C19.8576 27.7989 20.3007 27.3254 20.8803 26.9795C21.2778 26.7397 21.6723 26.4879 22.0304 26.1965C22.3916 25.9052 22.4098 25.5623 22.1791 25.1617C22.0547 24.9432 21.8605 24.8613 21.6026 24.8552C21.5995 25.2558 21.2627 25.2922 20.9592 25.5562C20.9106 25.5987 21.0715 25.9932 21.0806 26.0691C21.1049 26.3058 21.026 26.4059 20.7801 26.4272C20.6072 26.4423 20.2764 26.2117 20.1095 26.2451C19.6148 26.3452 19.5147 26.6973 19.5693 27.1798C19.5845 27.3072 19.6391 27.5288 19.6209 27.6532C19.5814 27.9142 19.3599 27.7867 19.1171 27.6653C19.0868 27.6502 19.0413 27.6532 19.0018 27.6653C18.9624 27.6562 18.9168 27.6532 18.8865 27.6653C18.6437 27.7867 18.4252 27.9142 18.3827 27.6532C18.3645 27.5288 18.4192 27.3072 18.4343 27.1798C18.4859 26.6973 18.3858 26.3452 17.8941 26.2451C17.7242 26.2117 17.3965 26.4393 17.2235 26.4272C16.9777 26.409 16.9018 26.3058 16.923 26.0691C16.9291 25.9932 17.093 25.5987 17.0444 25.5562C16.741 25.2952 16.4041 25.2588 16.4011 24.8552C16.1431 24.8643 15.9489 24.9462 15.8245 25.1617C15.5938 25.5623 15.6121 25.9022 15.9732 26.1965C16.3313 26.4879 16.7228 26.7428 17.1233 26.9795C17.703 27.3254 18.146 27.7989 18.5405 28.3239C18.7712 28.6273 18.7681 28.952 18.5436 29.2525C18.4252 29.4133 18.2674 29.562 18.0944 29.6622C17.6241 29.9383 17.1051 30.0931 16.5558 30.1416C16.4223 30.1538 16.2402 30.1204 16.1553 30.0354C16.043 29.9231 16.1978 29.8048 16.2675 29.6986C16.3586 29.565 16.304 29.4346 16.1431 29.4072C16.0673 29.3951 15.9823 29.4072 15.9034 29.4133C15.5908 29.4255 15.2752 29.4619 14.9626 29.4437C14.3102 29.4012 13.773 29.1614 13.4605 28.5545C13.3603 28.3603 13.2086 28.1843 13.0599 28.0204C12.9688 27.9202 12.8323 27.8595 12.7139 27.7806C12.6896 27.7958 12.6654 27.811 12.6411 27.8292C12.6927 28.0204 12.7291 28.2146 12.8019 28.3967C12.9628 28.8064 13.1388 29.207 13.3118 29.6106C13.5515 30.1811 13.858 30.7152 14.2646 31.1916C14.4801 31.4435 14.7259 31.6438 15.0385 31.7075C15.0385 31.5285 15.0203 31.3586 15.0415 31.1947C15.0779 30.9367 15.2145 30.7364 15.4937 30.6788C16.3829 30.4876 17.272 30.2964 18.1642 30.1204C18.4009 30.0749 18.6528 30.087 18.8986 30.087C18.9351 30.087 18.9715 30.087 19.0048 30.087C19.0413 30.087 19.0777 30.087 19.1111 30.087C19.3569 30.087 19.6057 30.0749 19.8455 30.1204C20.7377 30.2934 21.6268 30.4876 22.516 30.6788C22.7922 30.7395 22.9317 30.9367 22.9682 31.1947C22.9924 31.3586 22.9712 31.5285 22.9712 31.7075C23.2807 31.6438 23.5296 31.4435 23.7451 31.1916C24.1517 30.7152 24.4582 30.1811 24.6979 29.6106C24.8679 29.207 25.0469 28.8033 25.2078 28.3967C25.2806 28.2146 25.317 28.0174 25.3686 27.8292C25.3443 27.814 25.3201 27.7989 25.2958 27.7806H25.2897Z" fill="white"/>
</g>
<defs>
<clipPath id="clip0_11291_166219">
<rect width="32.5714" height="29.8571" fill="white" transform="translate(2.71429 4.82144)"/>
</clipPath>
</defs>
</svg>
