<svg width="20" height="20" viewBox="0 0 20 20" fill="none" xmlns="http://www.w3.org/2000/svg">
<g clip-path="url(#clip0_1606_25251)">
<g clip-path="url(#clip1_1606_25251)">
<path fill-rule="evenodd" clip-rule="evenodd" d="M19.0344 14.2925H0.96582C2.57247 17.6672 6.0131 19.9998 10.0001 19.9998C13.9871 19.9998 17.4278 17.6672 19.0344 14.2925Z" fill="#52B044"/>
<path fill-rule="evenodd" clip-rule="evenodd" d="M0.965708 14.2928H19.0333C19.6523 12.9918 19.999 11.537 19.999 10.0001C19.999 8.46319 19.6514 7.00555 19.0314 5.70361H0.967619C0.347693 7.00555 0 8.46223 0 10.0001C0 11.538 0.346738 12.9918 0.965708 14.2928Z" fill="#FEFEFE"/>
<path fill-rule="evenodd" clip-rule="evenodd" d="M0.967529 5.70351H19.0313C17.4247 2.33069 13.985 0 9.99991 0C6.01481 0 2.57513 2.33069 0.967529 5.70351Z" fill="#E42041"/>
<path fill-rule="evenodd" clip-rule="evenodd" d="M9.97128 9.62674C9.76305 9.26663 9.3418 9.13959 9.3418 9.13959C9.3418 9.13959 9.55959 8.78903 9.97414 8.78903C10.3877 8.78903 10.6027 9.13959 10.6027 9.13959C10.6027 9.13959 10.1795 9.26759 9.97032 9.62674H9.97128ZM9.97414 12.0358C10.1403 12.2364 10.744 12.4436 11.2627 12.1838C11.3439 12.4274 11.9906 12.819 12.5694 12.3997C11.938 12.308 11.5961 12.1045 11.2484 11.6365C10.9007 11.9154 10.3295 11.6642 10.2024 11.5285L10.211 9.90662L11.0411 9.09088C11.0411 8.91607 10.5081 8.4165 9.97319 8.4165C9.43828 8.4165 8.90432 8.91703 8.90432 9.09183L9.7363 9.90662L9.74108 11.5285C9.61499 11.6642 9.04473 11.9164 8.69704 11.6365C8.34935 12.1036 8.00834 12.308 7.37695 12.3997C7.95485 12.819 8.60343 12.4274 8.68271 12.1838C9.20043 12.4436 9.80603 12.2354 9.97032 12.0358H9.97319H9.97414Z" fill="#D3BC14"/>
<path fill-rule="evenodd" clip-rule="evenodd" d="M9.97415 12.1396C9.97415 12.1396 10.1757 12.5036 10.4995 12.5036C11.0335 12.5036 11.2484 12.2074 11.2484 12.2074C11.2484 12.2074 11.1013 12.3679 11.1672 12.5752C11.2341 12.8713 11.4929 12.9544 11.6849 13.1894L11.47 13.4215C11.2197 13.1369 10.7345 12.8704 9.97415 12.8704V12.1387V12.1396ZM9.97415 12.8713V12.1396C9.97415 12.1396 9.77356 12.5026 9.44688 12.5026C8.91292 12.5026 8.698 12.2065 8.698 12.2065C8.698 12.2065 8.84797 12.367 8.78015 12.5742C8.7152 12.8704 8.45347 12.9535 8.26147 13.1884L8.47735 13.4206C8.72761 13.1359 9.21381 12.8694 9.97606 12.8694L9.97415 12.8713Z" fill="#D3BC14"/>
<path fill-rule="evenodd" clip-rule="evenodd" d="M13.6489 10.2217L13.7951 10.6649H14.2622L13.883 10.9409L14.0272 11.3889L13.6489 11.1129L13.2716 11.3889L13.4159 10.9409L13.0386 10.6649H13.5047L13.6489 10.2217Z" fill="#D3BC14"/>
<path fill-rule="evenodd" clip-rule="evenodd" d="M13.1608 8.3999L13.3051 8.84312H13.7712L13.3939 9.11917L13.5391 9.56143L13.1608 9.28728L12.7807 9.56143L12.9259 9.11917L12.5476 8.84312H13.0166L13.1608 8.3999Z" fill="#D3BC14"/>
<path fill-rule="evenodd" clip-rule="evenodd" d="M11.8254 7.06201L11.9696 7.50522H12.4367L12.0594 7.7851L12.2027 8.22449L11.8254 7.95226L11.4462 8.22449L11.5904 7.7851L11.2112 7.50522H11.6811L11.8254 7.06201Z" fill="#D3BC14"/>
<path fill-rule="evenodd" clip-rule="evenodd" d="M9.99998 6.57373L10.1442 7.0179H10.6142L10.233 7.29395L10.3773 7.73717L9.99998 7.46111L9.62076 7.73717L9.765 7.29395L9.3877 7.0179H9.85574L9.99998 6.57373Z" fill="#D3BC14"/>
<path fill-rule="evenodd" clip-rule="evenodd" d="M8.17454 7.06201L8.32069 7.50522H8.78682L8.40761 7.7851L8.55376 8.22449L8.17454 7.95226L7.79724 8.22449L7.94052 7.7851L7.56226 7.50522H8.0303L8.17454 7.06201Z" fill="#D3BC14"/>
<path fill-rule="evenodd" clip-rule="evenodd" d="M6.84029 8.3999L6.98453 8.84312H7.45066L7.07431 9.11917L7.21664 9.56143L6.84029 9.28728L6.46012 9.56143L6.60722 9.11917L6.22705 8.84312H6.6951L6.84029 8.3999Z" fill="#D3BC14"/>
<path fill-rule="evenodd" clip-rule="evenodd" d="M6.35199 10.2217L6.49431 10.6649H6.96141L6.5841 10.9409L6.72834 11.3889L6.35199 11.1129L5.97182 11.3889L6.11605 10.9409L5.73779 10.6649H6.20489L6.35199 10.2217Z" fill="#D3BC14"/>
</g>
</g>
<defs>
<clipPath id="clip0_1606_25251">
<rect width="20" height="20" fill="white"/>
</clipPath>
<clipPath id="clip1_1606_25251">
<rect width="20" height="20" fill="white"/>
</clipPath>
</defs>
</svg>
