<svg width="20" height="20" viewBox="0 0 20 20" fill="none" xmlns="http://www.w3.org/2000/svg">
<g clip-path="url(#clip0_1756_25841)">
<g clip-path="url(#clip1_1756_25841)">
<path d="M10 20C15.5228 20 20 15.5228 20 10C20 4.47715 15.5228 0 10 0C4.47715 0 0 4.47715 0 10C0 15.5228 4.47715 20 10 20Z" fill="#2D795C"/>
<path fill-rule="evenodd" clip-rule="evenodd" d="M6.09509 19.2092V0.791016C3.62686 1.83887 1.66678 3.85052 0.685791 6.35315V13.6471C1.66678 16.1497 3.62686 18.1613 6.09509 19.2092Z" fill="#C6273B"/>
<path fill-rule="evenodd" clip-rule="evenodd" d="M0.685791 9.25593V9.10023L0.919815 8.71624L0.859638 8.636L0.998142 8.40484L0.958023 8.32461L0.859638 8.4803L0.824295 8.40484L1.13187 7.88139L1.19109 7.96067L1.13187 8.03805L1.23217 8.19279L1.46524 7.80593L1.23217 7.43818L1.13187 7.57286L1.19109 7.65405L1.13187 7.72951L0.824295 7.18601L0.859638 7.10577L0.958023 7.26242L0.998142 7.18601L0.859638 6.95485L0.919815 6.87461L0.685791 6.50686V6.35498L0.998142 6.87461L0.958023 6.95485L1.09653 7.18601L0.998142 7.34266L1.09653 7.4974L1.23217 7.26242L1.53974 7.80593L1.23217 8.32461L1.09653 8.11733L0.998142 8.2692L1.09653 8.40484L0.958023 8.636L0.998142 8.71624L0.685791 9.25593Z" fill="#E18A23"/>
<path fill-rule="evenodd" clip-rule="evenodd" d="M0.685791 7.34277L0.745969 7.49752V7.72963H0.884473L0.958023 7.80605L0.884473 7.88151H0.745969V8.11744L0.685791 8.26932V7.34277Z" fill="#E18A23"/>
<path fill-rule="evenodd" clip-rule="evenodd" d="M0.685791 12.9313V12.7784L0.919815 12.3916L0.859638 12.3113L0.998142 12.0802L0.958023 12.0038L0.859638 12.1595L0.824295 12.0802L1.13187 11.5567L1.19109 11.6169L1.13187 11.6924L1.23217 11.8481L1.46524 11.4813L1.23217 11.0935L1.13187 11.2491L1.19109 11.3246L1.13187 11.4048L0.824295 10.8613L0.859638 10.7859L0.958023 10.9368L0.998142 10.8613L0.859638 10.6302L0.919815 10.5499L0.685791 10.1669V10.0103L0.998142 10.5499L0.958023 10.6302L1.09653 10.8613L0.998142 11.0132L1.09653 11.1689L1.23217 10.9368L1.53974 11.4813L1.23217 12.0038L1.09653 11.7726L0.998142 11.9235L1.09653 12.0802L0.958023 12.3113L0.998142 12.3916L0.685791 12.9313Z" fill="#E18A23"/>
<path fill-rule="evenodd" clip-rule="evenodd" d="M0.685791 11.0137L0.745969 11.1694V11.4053H0.884473L0.958023 11.4817L0.884473 11.5572H0.745969V11.7731L0.685791 11.924V11.0137Z" fill="#E18A23"/>
<path fill-rule="evenodd" clip-rule="evenodd" d="M1.3726 15.0589L1.46526 14.9041L1.23219 14.5364L1.151 14.6615L1.11088 14.586L1.23123 14.3854L1.53785 14.9204L1.41463 15.1315L1.37165 15.0589H1.3726ZM0.98479 14.332L0.998163 14.3052L0.879718 14.1075L0.86348 14.0702L0.920792 13.9948L0.686768 13.6117V13.4551L0.998163 13.9948L0.958045 14.074L1.09655 14.3052L1.02586 14.4151L0.98479 14.332Z" fill="#E18A23"/>
<path fill-rule="evenodd" clip-rule="evenodd" d="M6.09518 5.58014V5.42445L5.86211 5.03664L5.92229 4.96117L5.78665 4.74912L5.82582 4.66984L5.92229 4.82554L5.95668 4.74912L5.64815 4.20561L5.59179 4.28585L5.64815 4.36131L5.55072 4.51319L5.33675 4.12919L5.55072 3.7624L5.64815 3.89421L5.59179 3.97445L5.64815 4.04991L5.95668 3.51118L5.92229 3.43094L5.82582 3.58664L5.78665 3.51118L5.92229 3.29912L5.86211 3.21889L6.09518 2.83203V2.6792L5.78665 3.21889L5.82582 3.29912L5.68827 3.51118L5.78665 3.66592L5.68827 3.82162L5.55072 3.58664L5.24219 4.12919L5.55072 4.66984L5.68827 4.43772L5.78665 4.59247L5.68827 4.74912L5.82582 4.96117L5.78665 5.03664L6.09518 5.58014Z" fill="#E18A23"/>
<path fill-rule="evenodd" clip-rule="evenodd" d="M6.09505 3.66602L6.05589 3.82171V4.05001H5.92216L5.82568 4.12929L5.92216 4.2057H6.05589V4.43782L6.09505 4.59256V3.66602Z" fill="#E18A23"/>
<path fill-rule="evenodd" clip-rule="evenodd" d="M6.09518 9.25593V9.10023L5.86211 8.71624L5.92229 8.636L5.78665 8.40484L5.82582 8.32461L5.92229 8.4803L5.95668 8.40484L5.64815 7.88139L5.59179 7.96067L5.64815 8.03805L5.55072 8.19279L5.33675 7.80593L5.55072 7.43818L5.64815 7.57286L5.59179 7.65405L5.64815 7.72951L5.95668 7.18601L5.92229 7.10577L5.82582 7.26242L5.78665 7.18601L5.92229 6.95485L5.86211 6.87461L6.09518 6.50686V6.35498L5.78665 6.87461L5.82582 6.95485L5.68827 7.18601L5.78665 7.34266L5.68827 7.4974L5.55072 7.26242L5.24219 7.80593L5.55072 8.32461L5.68827 8.11733L5.78665 8.2692L5.68827 8.40484L5.82582 8.636L5.78665 8.71624L6.09518 9.25593Z" fill="#E18A23"/>
<path fill-rule="evenodd" clip-rule="evenodd" d="M6.09505 7.34277L6.05589 7.49752V7.72963H5.92216L5.82568 7.80605L5.92216 7.88151H6.05589V8.11744L6.09505 8.26932V7.34277Z" fill="#E18A23"/>
<path fill-rule="evenodd" clip-rule="evenodd" d="M6.09518 12.9313V12.7784L5.86211 12.3916L5.92229 12.3113L5.78665 12.0802L5.82582 12.0038L5.92229 12.1595L5.95668 12.0802L5.64815 11.5567L5.59179 11.6169L5.64815 11.6924L5.55072 11.8481L5.33675 11.4813L5.55072 11.0935L5.64815 11.2491L5.59179 11.3246L5.64815 11.4048L5.95668 10.8613L5.92229 10.7859L5.82582 10.9368L5.78665 10.8613L5.92229 10.6302L5.86211 10.5499L6.09518 10.1669V10.0103L5.78665 10.5499L5.82582 10.6302L5.68827 10.8613L5.78665 11.0132L5.68827 11.1689L5.55072 10.9368L5.24219 11.4813L5.55072 12.0038L5.68827 11.7726L5.78665 11.9235L5.68827 12.0802L5.82582 12.3113L5.78665 12.3916L6.09518 12.9313Z" fill="#E18A23"/>
<path fill-rule="evenodd" clip-rule="evenodd" d="M6.09505 11.0137L6.05589 11.1694V11.4053H5.92216L5.82568 11.4817L5.92216 11.5572H6.05589V11.7731L6.09505 11.924V11.0137Z" fill="#E18A23"/>
<path fill-rule="evenodd" clip-rule="evenodd" d="M6.09518 16.3751V16.2194L5.86211 15.8364L5.92229 15.7552L5.78665 15.524L5.82582 15.4447L5.92229 15.5995L5.95668 15.524L5.64815 14.9805L5.59179 15.0607L5.64815 15.1362L5.55072 15.2919L5.33675 14.9041L5.55072 14.5373L5.64815 14.693L5.59179 14.7694L5.64815 14.8449L5.95668 14.3052L5.92229 14.2249L5.82582 14.3854L5.78665 14.3052L5.92229 14.074L5.86211 13.9938L6.09518 13.6108V13.4541L5.78665 13.9938L5.82582 14.074L5.68827 14.3052L5.78665 14.4571L5.68827 14.6128L5.55072 14.3854L5.24219 14.9203L5.55072 15.4447L5.68827 15.2164L5.78665 15.3683L5.68827 15.524L5.82582 15.7552L5.78665 15.8364L6.09518 16.3751Z" fill="#E18A23"/>
<path fill-rule="evenodd" clip-rule="evenodd" d="M6.09505 14.457L6.05589 14.6127V14.8448H5.92216L5.82568 14.9041L5.92216 14.9805H6.05589V15.2164L6.09505 15.3683V14.457Z" fill="#E18A23"/>
<path fill-rule="evenodd" clip-rule="evenodd" d="M6.09524 1.4616V1.3059L5.86217 0.918091L5.89178 0.879883C5.85835 0.895166 5.82491 0.911404 5.79053 0.926688L6.09428 1.46065L6.09524 1.4616Z" fill="#E18A23"/>
<path fill-rule="evenodd" clip-rule="evenodd" d="M5.07486 18.7047C5.0911 18.5776 5.09492 18.3073 5.02806 18.293C4.98412 18.293 4.92108 18.4315 4.89624 18.6015C4.95546 18.6368 5.01469 18.6712 5.07391 18.7047H5.07486ZM5.31366 18.8355C5.43402 18.7591 5.52858 18.676 5.50948 18.6407C5.44453 18.5375 5.24202 18.6473 5.11212 18.7257C5.17898 18.7629 5.24584 18.7992 5.31271 18.8355H5.31366Z" fill="#E18A23"/>
<path fill-rule="evenodd" clip-rule="evenodd" d="M5.26323 18.4075C5.28042 18.3082 5.24317 17.9404 5.16675 17.9404C5.08747 17.9605 5.01105 18.4075 5.16675 18.6597C5.31958 18.6396 5.72555 18.2919 5.68829 18.2165C5.61092 18.1162 5.37594 18.3091 5.26227 18.4075H5.26323Z" fill="#E18A23"/>
<path fill-rule="evenodd" clip-rule="evenodd" d="M5.39495 18.0408C5.39495 17.9406 5.31949 17.5967 5.24212 17.5967C5.16666 17.633 5.14278 18.06 5.33573 18.3093C5.49525 18.2682 5.83912 17.8297 5.80282 17.7686C5.70539 17.6932 5.49525 17.9214 5.394 18.0408H5.39495Z" fill="#E18A23"/>
<path fill-rule="evenodd" clip-rule="evenodd" d="M5.37598 17.613C5.37598 17.9798 5.45335 17.9798 5.59185 17.7095C5.6654 17.613 5.6654 17.1698 5.61 17.1698C5.53263 17.1507 5.37598 17.4611 5.37598 17.614V17.613Z" fill="#E18A23"/>
<path fill-rule="evenodd" clip-rule="evenodd" d="M5.26317 13.7665H4.98712V13.9938H4.73972V14.225H3.69282L3.51706 14.4571L3.61736 14.5774H4.04338L4.13794 14.4571H3.69282L3.79025 14.3463H4.38725L4.13794 14.693H3.51706L3.3413 14.5774L3.16746 14.693H2.57046L2.31446 14.3463H2.92006L2.99361 14.4571H2.57046L2.66216 14.5774H3.08913L3.16746 14.4571L2.99361 14.225H2.04223V13.9938H1.79101V13.7665H1.53979V12.7033H1.79101V12.4683H2.04223V12.2362H2.99361L3.16746 12.0041L3.08913 11.8847H2.66216L2.57046 12.0041H2.99361L2.92006 12.1197H2.31446L2.57046 11.7729H3.16746L3.3413 11.8847L3.51706 11.7729H4.13794L4.38725 12.1197H3.79025L3.69282 12.0041H4.13794L4.04338 11.8847H3.61736L3.51706 12.0041L3.69282 12.2362H4.73972V12.4683H4.98712V12.7033H5.26317V13.7665Z" fill="#C8432E" stroke="#36383A" stroke-width="0.0534913" stroke-miterlimit="10" stroke-linecap="square"/>
<path fill-rule="evenodd" clip-rule="evenodd" d="M1.61719 12.8349V13.6459H1.86936V13.8818H2.14064V14.113H2.99363L3.34133 14.4569L3.69284 14.113H4.6404V13.8818H4.91359V13.6459H5.16671V12.8149H4.91359V12.5837L4.6404 12.6028V12.3468H3.69284L3.34133 12.0039L2.99363 12.3468H2.14064V12.6028H1.86936V12.8349H1.61719Z" fill="#2D795C"/>
<path fill-rule="evenodd" clip-rule="evenodd" d="M1.56177 12.7787H1.61717V12.8351H1.56177V12.7787ZM1.86934 12.8953V12.7787H1.61621V12.8953H1.86934ZM1.92856 12.8953H1.86934V12.8351H1.92856V12.8953ZM1.92856 12.8351H1.81107V12.603H1.92856V12.8351ZM1.81107 12.5476V12.603H1.86934V12.5476H1.81107ZM2.14062 12.6593V12.5476H1.86934V12.6593H2.14062ZM2.19984 12.6593H2.14062V12.603H2.19984V12.6593ZM2.19984 12.603H2.08235V12.347H2.19984V12.603ZM2.08235 12.2925V12.3518H2.14157V12.2925H2.08235ZM2.99457 12.4119V12.2925H2.14157V12.4119H2.99457ZM3.05475 12.4119H2.99457V12.347L3.05475 12.4119ZM3.38429 12.0604L3.05475 12.4119L2.95636 12.3116L3.30596 11.9639L3.38334 12.0604H3.38429ZM3.30692 11.9639L3.34226 12.0041L3.38429 11.9639L3.34226 11.9238L3.30692 11.9639ZM3.65461 12.4119L3.73198 12.3116L3.38429 11.9639L3.30692 12.0604L3.65461 12.4119ZM3.69473 12.4119H3.65461L3.69473 12.347V12.4119ZM4.64134 12.4119H3.69473V12.2925H4.64134V12.4119ZM4.64134 12.2925V12.3518H4.70438V12.2925H4.64134ZM4.58498 12.3479V12.6039H4.70438V12.3479H4.58498ZM4.64134 12.6603H4.58498V12.6039H4.64134V12.6603ZM4.91452 12.644L4.64134 12.6603V12.5485L4.91452 12.5237V12.6431V12.644ZM4.91452 12.5246V12.5848H4.97088V12.5246H4.91452ZM4.85626 12.5848V12.816H4.97088V12.5848H4.85626ZM4.91452 12.8723H4.85626V12.816H4.91452V12.8723ZM5.16861 12.8723H4.91452V12.7568H5.16861V12.8723ZM5.16861 12.7568V12.8169H5.22305V12.7568H5.16861ZM5.10938 12.8169V13.648H5.22305V12.8169H5.10938ZM5.22305 13.7081H5.16861V13.648H5.22305V13.7081ZM4.91548 13.5916H5.16956V13.7081H4.91548V13.5916ZM4.85721 13.5916V13.648H4.91548V13.5916H4.85721ZM4.85721 13.648V13.8839H4.97184V13.648H4.85721ZM4.97184 13.9403H4.91548V13.8839H4.97184V13.9403ZM4.64229 13.8247H4.91548V13.9403H4.64229V13.8247ZM4.58593 13.8247V13.8839H4.64229V13.8247H4.58593ZM4.58593 13.8839V14.116H4.70533V13.8839H4.58593ZM4.70533 14.1724H4.64229V14.116H4.70533V14.1724ZM3.69473 14.0558H4.64134V14.1724H3.69473V14.0558ZM3.65461 14.0558L3.69473 14.116V14.0558H3.65461ZM3.30692 14.4035L3.38429 14.5L3.73198 14.1523L3.65461 14.0558L3.30692 14.4035ZM3.38429 14.5L3.34226 14.5401L3.30692 14.5L3.34226 14.4599L3.38429 14.5ZM3.05475 14.0558L3.38429 14.4035L3.30692 14.5L2.95732 14.1523L3.0557 14.0558H3.05475ZM2.99457 14.0558V14.116L3.05475 14.0558H2.99457ZM2.14157 14.0558V14.1724H2.99457V14.0558H2.14157ZM2.14157 14.1724H2.08235V14.116H2.14157V14.1724ZM2.2008 14.116H2.08331V13.8839H2.2008V14.116ZM2.14157 13.8247V13.8839H2.2008V13.8247H2.14157ZM1.8703 13.8247V13.9403H2.14157V13.8247H1.8703ZM1.8703 13.9403H1.81203V13.8839H1.8703V13.9403ZM1.92952 13.8839H1.81203V13.648H1.92952V13.8839ZM1.8703 13.5926V13.6489H1.92952V13.5926H1.8703ZM1.61717 13.5926V13.7091H1.8703V13.5926H1.61717ZM1.61717 13.7091H1.56177V13.6489H1.61717V13.7091ZM1.6783 13.6489V12.838H1.56272V13.6489H1.6783Z" fill="#E18A23"/>
<path fill-rule="evenodd" clip-rule="evenodd" d="M2.8379 12.4683L2.31445 13.0471V12.4683H2.8379Z" fill="#C8432E"/>
<path fill-rule="evenodd" clip-rule="evenodd" d="M3.86475 12.4683L4.38724 13.0471V12.4683H3.86475Z" fill="#C8432E"/>
<path fill-rule="evenodd" clip-rule="evenodd" d="M2.8379 13.994L2.31445 13.418V13.994H2.8379Z" fill="#C8432E"/>
<path fill-rule="evenodd" clip-rule="evenodd" d="M3.86475 13.994L4.38724 13.418V13.994H3.86475Z" fill="#C8432E"/>
<path fill-rule="evenodd" clip-rule="evenodd" d="M4.04337 12.8149L3.86475 13.0471H4.21244L4.04337 12.8149Z" fill="#C8432E"/>
<path fill-rule="evenodd" clip-rule="evenodd" d="M2.66213 12.8149L2.48828 13.0471H2.83788L2.66213 12.8149Z" fill="#C8432E"/>
<path fill-rule="evenodd" clip-rule="evenodd" d="M2.66213 13.6463L2.48828 13.418H2.83788L2.66213 13.6463Z" fill="#C8432E"/>
<path fill-rule="evenodd" clip-rule="evenodd" d="M4.04337 13.6463L3.86475 13.418H4.21244L4.04337 13.6463Z" fill="#C8432E"/>
<path fill-rule="evenodd" clip-rule="evenodd" d="M3.34133 14.2248L3.16748 13.9937H3.51708L3.34133 14.2248Z" fill="#E18A23"/>
<path fill-rule="evenodd" clip-rule="evenodd" d="M3.34133 13.0471L3.16748 12.8149H3.51708L3.34133 13.0471Z" fill="#E18A23"/>
<path fill-rule="evenodd" clip-rule="evenodd" d="M3.34133 12.2363L3.16748 12.4684H3.51708L3.34133 12.2363Z" fill="#E18A23"/>
<path fill-rule="evenodd" clip-rule="evenodd" d="M3.34133 13.418L3.16748 13.6463H3.51708L3.34133 13.418Z" fill="#E18A23"/>
<path d="M4.21244 13.0469H3.86475V13.1663H4.21244V13.0469Z" fill="#E18A23" stroke="#36383A" stroke-width="0.0534913" stroke-miterlimit="10" stroke-linecap="square"/>
<path d="M2.74249 13.1665H2.57056V13.2983H2.74249V13.1665Z" fill="#D2402B" stroke="#36383A" stroke-width="0.0534913" stroke-miterlimit="10" stroke-linecap="square"/>
<path d="M4.13787 13.1665H3.96021V13.2983H4.13787V13.1665Z" fill="#D2402B" stroke="#36383A" stroke-width="0.0534913" stroke-miterlimit="10" stroke-linecap="square"/>
<path d="M3.51708 12.4683H3.16748V12.5838H3.51708V12.4683Z" fill="#B54132" stroke="#36383A" stroke-width="0.0534913" stroke-miterlimit="10" stroke-linecap="square"/>
<path d="M3.51708 12.7031H3.16748V12.8149H3.51708V12.7031Z" fill="#B54132" stroke="#36383A" stroke-width="0.0534913" stroke-miterlimit="10" stroke-linecap="square"/>
<path d="M3.61638 12.584H3.08911V12.7034H3.61638V12.584Z" fill="#B54132" stroke="#36383A" stroke-width="0.0534913" stroke-miterlimit="10" stroke-linecap="square"/>
<path d="M3.51708 13.646H3.16748V13.7664H3.51708V13.646Z" fill="#B54132" stroke="#36383A" stroke-width="0.0534913" stroke-miterlimit="10" stroke-linecap="square"/>
<path d="M3.51708 13.8818H3.16748V13.9936H3.51708V13.8818Z" fill="#B54132" stroke="#36383A" stroke-width="0.0534913" stroke-miterlimit="10" stroke-linecap="square"/>
<path d="M3.61638 13.7666H3.08911V13.8822H3.61638V13.7666Z" fill="#B54132" stroke="#36383A" stroke-width="0.0534913" stroke-miterlimit="10" stroke-linecap="square"/>
<path d="M4.21244 13.2983H3.86475V13.4177H4.21244V13.2983Z" fill="#E18A23" stroke="#36383A" stroke-width="0.0534913" stroke-miterlimit="10" stroke-linecap="square"/>
<path d="M2.83788 13.0469H2.48828V13.1663H2.83788V13.0469Z" fill="#E18A23" stroke="#36383A" stroke-width="0.0534913" stroke-miterlimit="10" stroke-linecap="square"/>
<path d="M2.83788 13.2983H2.48828V13.4177H2.83788V13.2983Z" fill="#E18A23" stroke="#36383A" stroke-width="0.0534913" stroke-miterlimit="10" stroke-linecap="square"/>
<path d="M2.56951 13.1665H2.39185V13.2983H2.56951V13.1665Z" fill="#E18A23" stroke="#36383A" stroke-width="0.0534913" stroke-miterlimit="10" stroke-linecap="square"/>
<path d="M2.9201 13.1665H2.74243V13.2983H2.9201V13.1665Z" fill="#E18A23" stroke="#36383A" stroke-width="0.0534913" stroke-miterlimit="10" stroke-linecap="square"/>
<path d="M3.96031 13.1665H3.79028V13.2983H3.96031V13.1665Z" fill="#E18A23" stroke="#36383A" stroke-width="0.0534913" stroke-miterlimit="10" stroke-linecap="square"/>
<path d="M4.29459 13.1665H4.13794V13.2983H4.29459V13.1665Z" fill="#E18A23" stroke="#36383A" stroke-width="0.0534913" stroke-miterlimit="10" stroke-linecap="square"/>
<path fill-rule="evenodd" clip-rule="evenodd" d="M3.15025 13.822C3.15025 13.822 3.15025 13.8372 3.12923 13.8372L3.11108 13.822C3.11108 13.8019 3.12923 13.7866 3.12923 13.7866C3.15025 13.7866 3.14929 13.8019 3.14929 13.822H3.15025Z" fill="#FEFEFE"/>
<path fill-rule="evenodd" clip-rule="evenodd" d="M3.38342 13.822C3.38342 13.822 3.36527 13.8372 3.34139 13.8372L3.32324 13.822C3.32324 13.8019 3.34139 13.7866 3.34139 13.7866C3.36527 13.7866 3.38342 13.8019 3.38342 13.822Z" fill="#FEFEFE"/>
<path fill-rule="evenodd" clip-rule="evenodd" d="M3.5934 13.8019C3.5934 13.822 3.57525 13.8382 3.57525 13.8382C3.5571 13.8382 3.53418 13.8229 3.53418 13.8019C3.53418 13.8019 3.5571 13.7866 3.57525 13.7866L3.5934 13.8019Z" fill="#FEFEFE"/>
<path fill-rule="evenodd" clip-rule="evenodd" d="M3.24479 13.7061L3.2276 13.7262C3.2085 13.7262 3.2085 13.7071 3.2085 13.7071C3.2085 13.687 3.2085 13.666 3.22664 13.666C3.22664 13.666 3.24384 13.6861 3.24384 13.7071L3.24479 13.7061Z" fill="#FEFEFE"/>
<path fill-rule="evenodd" clip-rule="evenodd" d="M3.49699 13.6861C3.49699 13.7061 3.49699 13.7262 3.47884 13.7262C3.46069 13.7262 3.46069 13.7071 3.46069 13.6861C3.46069 13.6861 3.46069 13.666 3.47884 13.666C3.49699 13.666 3.49604 13.6861 3.49604 13.6861H3.49699Z" fill="#FEFEFE"/>
<path fill-rule="evenodd" clip-rule="evenodd" d="M3.24482 13.918C3.24482 13.9381 3.22762 13.9581 3.22762 13.9581C3.20947 13.9581 3.20947 13.9381 3.20947 13.918C3.20947 13.918 3.20947 13.8979 3.22762 13.8979L3.24482 13.918Z" fill="#FEFEFE"/>
<path fill-rule="evenodd" clip-rule="evenodd" d="M3.49699 13.9381C3.49699 13.9581 3.49699 13.9581 3.47884 13.9581C3.46069 13.9581 3.46069 13.9581 3.46069 13.9381C3.46069 13.918 3.46069 13.8979 3.47884 13.8979C3.49699 13.8979 3.49604 13.918 3.49604 13.9381H3.49699Z" fill="#FEFEFE"/>
<path fill-rule="evenodd" clip-rule="evenodd" d="M3.84656 13.2227C3.84656 13.2428 3.82841 13.2628 3.82841 13.2628C3.80835 13.2628 3.80835 13.2418 3.80835 13.2227C3.80835 13.2017 3.80835 13.2026 3.82841 13.2026C3.82841 13.2026 3.8456 13.2026 3.8456 13.2227H3.84656Z" fill="#FEFEFE"/>
<path fill-rule="evenodd" clip-rule="evenodd" d="M4.06063 13.2227C4.06063 13.2428 4.06063 13.2628 4.04343 13.2628C4.02146 13.2628 4.02051 13.2418 4.02051 13.2227C4.02051 13.2017 4.02051 13.2026 4.04343 13.2026C4.06063 13.2026 4.06063 13.2026 4.06063 13.2227Z" fill="#FEFEFE"/>
<path fill-rule="evenodd" clip-rule="evenodd" d="M4.27167 13.2227C4.27167 13.2428 4.27167 13.2628 4.25448 13.2628C4.23633 13.2628 4.23633 13.2418 4.23633 13.2227C4.23633 13.2017 4.23633 13.2026 4.25448 13.2026C4.27167 13.2026 4.27167 13.2026 4.27167 13.2227Z" fill="#FEFEFE"/>
<path fill-rule="evenodd" clip-rule="evenodd" d="M3.92395 13.1075C3.92395 13.1228 3.92395 13.1438 3.90389 13.1438C3.90389 13.1438 3.88574 13.1228 3.88574 13.1075C3.88574 13.0865 3.90389 13.0874 3.90389 13.0874C3.92395 13.0874 3.92299 13.0874 3.92299 13.1075H3.92395Z" fill="#FEFEFE"/>
<path fill-rule="evenodd" clip-rule="evenodd" d="M4.1943 13.1075C4.1943 13.1228 4.17615 13.1438 4.17615 13.1438C4.15704 13.1438 4.13794 13.1228 4.13794 13.1075C4.13794 13.0865 4.15609 13.0874 4.17615 13.0874C4.17615 13.0874 4.1943 13.0874 4.1943 13.1075Z" fill="#FEFEFE"/>
<path fill-rule="evenodd" clip-rule="evenodd" d="M3.92395 13.3385C3.92395 13.3595 3.92395 13.3748 3.90389 13.3748C3.90389 13.3748 3.88574 13.3595 3.88574 13.3394C3.88574 13.3194 3.90389 13.3203 3.90389 13.3203C3.92395 13.3203 3.92299 13.3203 3.92299 13.3394L3.92395 13.3385Z" fill="#FEFEFE"/>
<path fill-rule="evenodd" clip-rule="evenodd" d="M4.1943 13.3385C4.1943 13.3595 4.17615 13.3748 4.17615 13.3748C4.15704 13.3748 4.13794 13.3595 4.13794 13.3394C4.13794 13.3394 4.15609 13.3203 4.17615 13.3203L4.1943 13.3394V13.3385Z" fill="#FEFEFE"/>
<path fill-rule="evenodd" clip-rule="evenodd" d="M3.15025 12.6431C3.15025 12.6594 3.15025 12.6804 3.12923 12.6804C3.12923 12.6804 3.11108 12.6603 3.11108 12.6431L3.12923 12.624C3.15025 12.624 3.14929 12.6431 3.14929 12.6431H3.15025Z" fill="#FEFEFE"/>
<path fill-rule="evenodd" clip-rule="evenodd" d="M3.36429 12.6431C3.36429 12.6594 3.36429 12.6804 3.34041 12.6804C3.34041 12.6804 3.32227 12.6603 3.32227 12.6431L3.34041 12.624C3.36334 12.624 3.36334 12.6431 3.36334 12.6431H3.36429Z" fill="#FEFEFE"/>
<path fill-rule="evenodd" clip-rule="evenodd" d="M3.5934 12.6431C3.5934 12.6594 3.57525 12.6804 3.5571 12.6804C3.5571 12.6804 3.53418 12.6603 3.53418 12.6431C3.53418 12.624 3.5571 12.624 3.5571 12.624C3.57525 12.624 3.59245 12.624 3.59245 12.6431H3.5934Z" fill="#FEFEFE"/>
<path fill-rule="evenodd" clip-rule="evenodd" d="M3.24482 12.5225C3.24482 12.5474 3.22762 12.5626 3.22762 12.5626C3.20947 12.5626 3.20947 12.5474 3.20947 12.5225C3.20947 12.5225 3.20947 12.5034 3.22762 12.5034L3.24482 12.5225Z" fill="#FEFEFE"/>
<path fill-rule="evenodd" clip-rule="evenodd" d="M3.49699 12.5225C3.49699 12.5474 3.49699 12.5626 3.47884 12.5626C3.46069 12.5626 3.46069 12.5474 3.46069 12.5225C3.46069 12.5098 3.46674 12.5034 3.47884 12.5034C3.49699 12.5034 3.49604 12.5034 3.49604 12.5225H3.49699Z" fill="#FEFEFE"/>
<path fill-rule="evenodd" clip-rule="evenodd" d="M3.24485 12.756C3.24485 12.7789 3.22766 12.7999 3.22766 12.7999C3.20951 12.7999 3.18945 12.7799 3.18945 12.756C3.18945 12.7397 3.20856 12.7397 3.22766 12.7397C3.22766 12.7397 3.24485 12.7397 3.24485 12.756Z" fill="#FEFEFE"/>
<path fill-rule="evenodd" clip-rule="evenodd" d="M3.49699 12.7789C3.49699 12.7789 3.49699 12.7999 3.47884 12.7999C3.46069 12.7999 3.46069 12.7799 3.46069 12.7799C3.46069 12.756 3.46069 12.7397 3.47884 12.7397C3.49699 12.7397 3.49604 12.756 3.49604 12.7799L3.49699 12.7789Z" fill="#FEFEFE"/>
<path fill-rule="evenodd" clip-rule="evenodd" d="M2.47009 13.2418C2.47009 13.2618 2.45194 13.2628 2.45194 13.2628C2.43379 13.2628 2.40991 13.2628 2.40991 13.2418C2.40991 13.2217 2.43379 13.2017 2.45194 13.2017C2.45194 13.2017 2.46913 13.2217 2.46913 13.2418H2.47009Z" fill="#FEFEFE"/>
<path fill-rule="evenodd" clip-rule="evenodd" d="M2.6851 13.2418C2.6851 13.2618 2.66122 13.2628 2.66122 13.2628C2.64307 13.2628 2.64307 13.2628 2.64307 13.2418C2.64307 13.2217 2.64307 13.2017 2.66122 13.2017C2.66122 13.2017 2.6851 13.2217 2.6851 13.2418Z" fill="#FEFEFE"/>
<path fill-rule="evenodd" clip-rule="evenodd" d="M2.89723 13.2418L2.87717 13.2618C2.8552 13.2618 2.85425 13.2418 2.85425 13.2418C2.85425 13.2217 2.85425 13.2017 2.87622 13.2017C2.87622 13.2017 2.89532 13.2217 2.89532 13.2418H2.89723Z" fill="#FEFEFE"/>
<path fill-rule="evenodd" clip-rule="evenodd" d="M2.54846 13.1227C2.54846 13.1438 2.54846 13.1438 2.52936 13.1438C2.51025 13.1438 2.51025 13.1438 2.51025 13.1227C2.51025 13.1075 2.51025 13.0874 2.52936 13.0874C2.54846 13.0874 2.54751 13.1075 2.54751 13.1227H2.54846Z" fill="#FEFEFE"/>
<path fill-rule="evenodd" clip-rule="evenodd" d="M2.80064 13.1227C2.80064 13.1227 2.80064 13.1438 2.78249 13.1438L2.76147 13.1227C2.76147 13.1075 2.78249 13.0874 2.78249 13.0874C2.80064 13.0874 2.80064 13.1075 2.80064 13.1227Z" fill="#FEFEFE"/>
<path fill-rule="evenodd" clip-rule="evenodd" d="M2.54846 13.3595C2.54846 13.3595 2.54846 13.3747 2.52936 13.3747C2.51025 13.3747 2.51025 13.3595 2.51025 13.3595C2.51025 13.3384 2.51025 13.3193 2.52936 13.3193C2.54846 13.3193 2.54751 13.3384 2.54751 13.3595H2.54846Z" fill="#FEFEFE"/>
<path fill-rule="evenodd" clip-rule="evenodd" d="M2.80062 13.3595C2.80062 13.3747 2.80062 13.3747 2.78247 13.3747C2.78247 13.3747 2.7605 13.3747 2.7605 13.3595C2.7605 13.3384 2.78247 13.3193 2.78247 13.3193C2.80062 13.3193 2.80062 13.3384 2.80062 13.3595Z" fill="#FEFEFE"/>
<path fill-rule="evenodd" clip-rule="evenodd" d="M3.69287 10.6896L3.84666 10.6094L3.98039 10.6896H3.69287Z" fill="#FEFEFE"/>
<path fill-rule="evenodd" clip-rule="evenodd" d="M3.24487 10.6896L3.40153 10.6094L3.5343 10.6896H3.24487Z" fill="#FEFEFE"/>
<path fill-rule="evenodd" clip-rule="evenodd" d="M2.80054 10.6896L2.95528 10.6094L3.08901 10.6896H2.80054Z" fill="#FEFEFE"/>
<path fill-rule="evenodd" clip-rule="evenodd" d="M3.69287 8.65625L3.84666 8.73171L3.98039 8.65625H3.69287Z" fill="#FEFEFE"/>
<path fill-rule="evenodd" clip-rule="evenodd" d="M3.24487 8.65625L3.40153 8.73171L3.5343 8.65625H3.24487Z" fill="#FEFEFE"/>
<path fill-rule="evenodd" clip-rule="evenodd" d="M2.80054 8.65625L2.95528 8.73171L3.08901 8.65625H2.80054Z" fill="#FEFEFE"/>
<path fill-rule="evenodd" clip-rule="evenodd" d="M3.57523 10.6455L3.40138 10.8022L3.22753 10.6455L3.05369 10.8022L2.87793 10.6455V10.7248L2.99351 10.8022L2.93429 10.8614V10.9368H2.99351L3.05369 10.8614L3.111 10.9368H3.16736V10.8614L3.111 10.8022L3.22753 10.7248L3.3412 10.8022L3.28485 10.8614V10.9368H3.3412L3.40138 10.8614L3.4606 10.9368H3.51696V10.8614L3.4606 10.8022L3.57523 10.7248L3.69272 10.8022L3.6354 10.8614V10.9368H3.69272L3.73092 10.8614L3.79015 10.9368H3.8465V10.8614L3.79015 10.8022L3.90477 10.7248V10.6455L3.73092 10.8022L3.57523 10.6455Z" fill="#2D795C"/>
<path fill-rule="evenodd" clip-rule="evenodd" d="M3.57523 8.63611L3.40138 8.50143L3.22753 8.63611L3.05369 8.50143L2.87793 8.63611V8.58071L2.99351 8.50143L2.93429 8.44507V8.36865H2.99351L3.05369 8.44507L3.111 8.36865H3.16736V8.44507L3.111 8.50143L3.22753 8.58071L3.3412 8.50143L3.28485 8.44507V8.36865H3.3412L3.40138 8.44507L3.4606 8.36865H3.51696V8.44507L3.4606 8.50143L3.57523 8.58071L3.69272 8.50143L3.6354 8.44507V8.36865H3.69272L3.73092 8.44507L3.79015 8.36865H3.8465V8.44507L3.79015 8.50143L3.90477 8.58071V8.63611L3.73092 8.50143L3.57523 8.63611Z" fill="#2D795C"/>
<path fill-rule="evenodd" clip-rule="evenodd" d="M4.87354 9.7948L5.06553 9.64388L4.87354 9.50728L5.06553 9.35254L4.87354 9.19971H4.97001L5.06553 9.29618L5.16678 9.25606H5.26326V9.29618L5.16678 9.35254L5.26326 9.3917V9.45093H5.16678L5.06553 9.3917L4.97001 9.50728L5.06553 9.60376L5.16678 9.5474H5.26326V9.60376L5.16678 9.64388L5.26326 9.7031V9.75945H5.16678L5.06553 9.7031L4.97001 9.7948L5.06553 9.89509L5.16678 9.85498H5.26326V9.89509L5.16678 9.95527L5.26326 10.0107V10.0508H5.16678L5.06553 10.0107L4.97001 10.1062H4.87354L5.06553 9.95527L4.87354 9.7948Z" fill="#2D795C"/>
<path fill-rule="evenodd" clip-rule="evenodd" d="M1.91137 9.7948L1.71555 9.64388L1.91137 9.50728L1.71555 9.35254L1.91137 9.19971H1.81107L1.71555 9.29618L1.61717 9.25606H1.53979V9.29618L1.61717 9.35254L1.53979 9.3917V9.45093H1.61717L1.71555 9.3917L1.81107 9.50728L1.71555 9.60376L1.61717 9.5474H1.53979V9.60376L1.61717 9.64388L1.53979 9.7031V9.75945H1.61717L1.71555 9.7031L1.81107 9.7948L1.71555 9.89509L1.61717 9.85498H1.53979V9.89509L1.61717 9.95527L1.53979 10.0107V10.0508H1.61717L1.71555 10.0107L1.81107 10.1062H1.91137L1.71555 9.95527L1.91137 9.7948Z" fill="#2D795C"/>
<path d="M5.02903 10.3018H4.95166V10.3782H5.02903V10.3018Z" fill="#2D795C" stroke="#36383A" stroke-width="0.0534913" stroke-miterlimit="10" stroke-linecap="square"/>
<path d="M4.95186 10.3784H4.87354V10.4539H4.95186V10.3784Z" fill="#2D795C" stroke="#36383A" stroke-width="0.0534913" stroke-miterlimit="10" stroke-linecap="square"/>
<path d="M4.58299 10.7251H4.50562V10.8015H4.58299V10.7251Z" fill="#2D795C" stroke="#36383A" stroke-width="0.0534913" stroke-miterlimit="10" stroke-linecap="square"/>
<path d="M4.65753 10.6455H4.58398V10.7257H4.65753V10.6455Z" fill="#2D795C" stroke="#36383A" stroke-width="0.0534913" stroke-miterlimit="10" stroke-linecap="square"/>
<path d="M2.19971 10.6455H2.12329V10.7257H2.19971V10.6455Z" fill="#2D795C" stroke="#36383A" stroke-width="0.0534913" stroke-miterlimit="10" stroke-linecap="square"/>
<path d="M1.83201 10.3018H1.75464V10.3782H1.83201V10.3018Z" fill="#2D795C" stroke="#36383A" stroke-width="0.0534913" stroke-miterlimit="10" stroke-linecap="square"/>
<path d="M1.91133 10.3784H1.83301V10.4539H1.91133V10.3784Z" fill="#2D795C" stroke="#36383A" stroke-width="0.0534913" stroke-miterlimit="10" stroke-linecap="square"/>
<path d="M1.91133 8.84814H1.83301V8.92838H1.91133V8.84814Z" fill="#2D795C" stroke="#36383A" stroke-width="0.0534913" stroke-miterlimit="10" stroke-linecap="square"/>
<path d="M1.83201 8.92822H1.75464V8.98744H1.83201V8.92822Z" fill="#2D795C" stroke="#36383A" stroke-width="0.0534913" stroke-miterlimit="10" stroke-linecap="square"/>
<path d="M2.27826 8.50146H2.19897V8.5817H2.27826V8.50146Z" fill="#2D795C" stroke="#36383A" stroke-width="0.0534913" stroke-miterlimit="10" stroke-linecap="square"/>
<path d="M2.19971 8.58057H2.12329V8.63501H2.19971V8.58057Z" fill="#2D795C" stroke="#36383A" stroke-width="0.0534913" stroke-miterlimit="10" stroke-linecap="square"/>
<path d="M4.58299 8.50146H4.50562V8.5817H4.58299V8.50146Z" fill="#2D795C" stroke="#36383A" stroke-width="0.0534913" stroke-miterlimit="10" stroke-linecap="square"/>
<path d="M4.65753 8.58057H4.58398V8.63501H4.65753V8.58057Z" fill="#2D795C" stroke="#36383A" stroke-width="0.0534913" stroke-miterlimit="10" stroke-linecap="square"/>
<path d="M4.95186 8.84814H4.87354V8.92838H4.95186V8.84814Z" fill="#2D795C" stroke="#36383A" stroke-width="0.0534913" stroke-miterlimit="10" stroke-linecap="square"/>
<path d="M5.02903 8.92822H4.95166V8.98744H5.02903V8.92822Z" fill="#2D795C" stroke="#36383A" stroke-width="0.0534913" stroke-miterlimit="10" stroke-linecap="square"/>
<path d="M2.27826 10.7251H2.19897V10.8015H2.27826V10.7251Z" fill="#2D795C" stroke="#36383A" stroke-width="0.0534913" stroke-miterlimit="10" stroke-linecap="square"/>
<path fill-rule="evenodd" clip-rule="evenodd" d="M3.16738 9.64361H2.95532V9.50702H3.08905V9.39144H3.24475V9.2749H3.38325V9.40672C3.26385 9.40672 3.16738 9.50702 3.16738 9.64361Z" fill="#FEFEFE"/>
<path fill-rule="evenodd" clip-rule="evenodd" d="M3.59345 9.64361H3.82938V9.50702H3.67273V9.39144H3.53422V9.2749H3.3833V9.40672C3.49697 9.40672 3.59249 9.50702 3.59249 9.64361H3.59345Z" fill="#E18A23"/>
<path fill-rule="evenodd" clip-rule="evenodd" d="M3.59345 9.64355H3.82938V9.77919H3.67273V9.91388H3.53422V10.0266H3.3833V9.89477C3.49697 9.89477 3.59249 9.77919 3.59249 9.64355H3.59345Z" fill="#FEFEFE"/>
<path fill-rule="evenodd" clip-rule="evenodd" d="M3.16738 9.64355H2.95532V9.77919H3.08905V9.91388H3.24475V10.0266H3.38325V9.89477C3.26385 9.89477 3.16738 9.77919 3.16738 9.64355Z" fill="#E18A23"/>
<path fill-rule="evenodd" clip-rule="evenodd" d="M3.59345 9.64363H3.3833V9.40674C3.49697 9.40674 3.59249 9.52805 3.59249 9.64363H3.59345Z" fill="#2D795C"/>
<path fill-rule="evenodd" clip-rule="evenodd" d="M3.59345 9.64355H3.3833V9.89477C3.49697 9.89477 3.59249 9.77919 3.59249 9.64355H3.59345Z" fill="#C8432E"/>
<path fill-rule="evenodd" clip-rule="evenodd" d="M3.16748 9.64355H3.38336V9.89477C3.26396 9.89477 3.16748 9.77919 3.16748 9.64355Z" fill="#2D795C"/>
<path fill-rule="evenodd" clip-rule="evenodd" d="M3.16748 9.64363H3.38336V9.40674C3.26396 9.40674 3.16748 9.52805 3.16748 9.64363Z" fill="#C8432E"/>
<path fill-rule="evenodd" clip-rule="evenodd" d="M3.61744 10.514L3.40156 10.3783L3.16754 10.514L2.95548 10.3783L2.72241 10.514V10.4547L2.87811 10.3783L2.80074 10.3019V10.2427H2.87811L2.95548 10.3019L3.01566 10.2427H3.08921V10.3019L3.01566 10.3783L3.16754 10.4547L3.32228 10.3783L3.24491 10.3019V10.2427H3.32228L3.40156 10.3019L3.46078 10.2427H3.53433V10.3019L3.46078 10.3783L3.61744 10.4547L3.76931 10.3783L3.6929 10.3019V10.2427H3.76931L3.84668 10.3019L3.90495 10.2427H3.98041V10.3019L3.90495 10.3783L4.05587 10.4547V10.514L3.84668 10.3783L3.61744 10.514Z" fill="#2D795C"/>
<path fill-rule="evenodd" clip-rule="evenodd" d="M3.61744 8.78809L3.40156 8.9285L3.16754 8.78809L2.95548 8.9285L2.72241 8.78809V8.84826L2.87811 8.9285L2.80074 8.98772V9.06032H2.87811L2.95548 8.98772L3.01566 9.06032H3.08921V8.98772L3.01566 8.9285L3.16754 8.84826L3.32228 8.9285L3.24491 8.98772V9.06032H3.32228L3.40156 8.98772L3.46078 9.06032H3.53433V8.98772L3.46078 8.9285L3.61744 8.84826L3.76931 8.9285L3.6929 8.98772V9.06032H3.76931L3.84668 8.98772L3.90495 9.06032H3.98041V8.98772L3.90495 8.9285L4.05587 8.84826V8.78809L3.84668 8.9285L3.61744 8.78809Z" fill="#2D795C"/>
<path fill-rule="evenodd" clip-rule="evenodd" d="M4.42828 9.81451L4.3318 9.64353L4.42828 9.46682L4.3318 9.29583L4.42828 9.14014H4.37192L4.3318 9.25572L4.27163 9.19936H4.2124V9.25572L4.27163 9.29583L4.2124 9.35219V9.40664H4.27163L4.3318 9.35219L4.37192 9.46682L4.3318 9.58239L4.27163 9.52795H4.2124V9.58239L4.27163 9.64353L4.2124 9.70275V9.75911H4.27163L4.3318 9.70275L4.37192 9.81451L4.3318 9.93104L4.27163 9.87373H4.2124V9.93104L4.27163 9.99122L4.2124 10.0504V10.1058H4.27163L4.3318 10.0504L4.37192 10.167H4.42828L4.3318 9.99122L4.42828 9.81451Z" fill="#2D795C"/>
<path fill-rule="evenodd" clip-rule="evenodd" d="M2.64402 8.63623L1.91138 9.33544V9.97065L2.64402 10.645H4.13795L4.87346 9.97065V9.33544L4.13795 8.63623H2.64402ZM2.72234 8.84828H4.05962L4.34905 9.13962V10.1665L4.05962 10.454H2.72234L2.43387 10.1665V9.13962L2.72234 8.84828Z" fill="#2D795C" stroke="#36383A" stroke-width="0.0534913" stroke-miterlimit="10" stroke-linecap="square"/>
<path fill-rule="evenodd" clip-rule="evenodd" d="M3.03271 10.5137L3.1502 10.6455L3.26387 10.5137H3.03271Z" fill="#E18A23" stroke="#36383A" stroke-width="0.0534913" stroke-miterlimit="10" stroke-linecap="square"/>
<path fill-rule="evenodd" clip-rule="evenodd" d="M3.03271 8.78811L3.1502 8.63623L3.26387 8.78811H3.03271Z" fill="#E18A23" stroke="#36383A" stroke-width="0.0534913" stroke-miterlimit="10" stroke-linecap="square"/>
<path fill-rule="evenodd" clip-rule="evenodd" d="M3.51709 8.78811L3.63553 8.63623L3.74825 8.78811H3.51709Z" fill="#E18A23" stroke="#36383A" stroke-width="0.0534913" stroke-miterlimit="10" stroke-linecap="square"/>
<path fill-rule="evenodd" clip-rule="evenodd" d="M3.51709 10.5137L3.63553 10.6455L3.74825 10.5137H3.51709Z" fill="#E18A23" stroke="#36383A" stroke-width="0.0534913" stroke-miterlimit="10" stroke-linecap="square"/>
<path fill-rule="evenodd" clip-rule="evenodd" d="M2.80054 8.78811L2.91994 8.63623L3.03265 8.78811H2.80054Z" fill="#C8432E" stroke="#36383A" stroke-width="0.0534913" stroke-miterlimit="10" stroke-linecap="square"/>
<path fill-rule="evenodd" clip-rule="evenodd" d="M3.26392 8.78811L3.40147 8.63623L3.51704 8.78811H3.26392Z" fill="#C8432E" stroke="#36383A" stroke-width="0.0534913" stroke-miterlimit="10" stroke-linecap="square"/>
<path fill-rule="evenodd" clip-rule="evenodd" d="M3.74829 8.78811L3.86483 8.63623L3.9804 8.78811H3.74829Z" fill="#C8432E" stroke="#36383A" stroke-width="0.0534913" stroke-miterlimit="10" stroke-linecap="square"/>
<path fill-rule="evenodd" clip-rule="evenodd" d="M2.51123 10.3018L2.72233 10.5138H2.51123V10.3018Z" fill="#C8432E" stroke="#36383A" stroke-width="0.0534913" stroke-miterlimit="10" stroke-linecap="square"/>
<path fill-rule="evenodd" clip-rule="evenodd" d="M2.35449 9.81451L2.47007 9.64353L2.35449 9.46682L2.47007 9.29583L2.35449 9.14014H2.41085L2.47007 9.25572L2.51115 9.19936H2.57037V9.25572L2.51115 9.29583L2.57037 9.35219V9.40664H2.51115L2.47007 9.35219L2.41085 9.46682L2.47007 9.58239L2.51115 9.52795H2.57037V9.58239L2.51115 9.64353L2.57037 9.70275V9.75911H2.51115L2.47007 9.70275L2.41085 9.81451L2.47007 9.93104L2.51115 9.87373H2.57037V9.93104L2.51115 9.99122L2.57037 10.0504V10.1058H2.51115L2.47007 10.0504L2.41085 10.167H2.35449L2.47007 9.99122L2.35449 9.81451Z" fill="#2D795C"/>
<path fill-rule="evenodd" clip-rule="evenodd" d="M4.50562 9.4668H4.81701L4.87337 9.52793L4.81701 9.58238H4.50562V9.4668Z" fill="#C8432E" stroke="#36383A" stroke-width="0.0534913" stroke-miterlimit="10" stroke-linecap="square"/>
<path fill-rule="evenodd" clip-rule="evenodd" d="M2.51115 8.9873L2.35449 9.14014V10.167L2.51115 10.3017H2.27808V8.9873H2.51115Z" fill="#C8432E" stroke="#36383A" stroke-width="0.0534913" stroke-miterlimit="10" stroke-linecap="square"/>
<path fill-rule="evenodd" clip-rule="evenodd" d="M2.80054 10.5137L2.91994 10.6455L3.03265 10.5137H2.80054Z" fill="#C8432E" stroke="#36383A" stroke-width="0.0534913" stroke-miterlimit="10" stroke-linecap="square"/>
<path fill-rule="evenodd" clip-rule="evenodd" d="M3.26392 10.5137L3.40147 10.6455L3.51704 10.5137H3.26392Z" fill="#C8432E" stroke="#36383A" stroke-width="0.0534913" stroke-miterlimit="10" stroke-linecap="square"/>
<path fill-rule="evenodd" clip-rule="evenodd" d="M3.74829 10.5137L3.86483 10.6455L3.9804 10.5137H3.74829Z" fill="#C8432E" stroke="#36383A" stroke-width="0.0534913" stroke-miterlimit="10" stroke-linecap="square"/>
<path fill-rule="evenodd" clip-rule="evenodd" d="M4.29468 8.9873L4.42841 9.14014V10.167L4.29468 10.3017H4.50578V8.9873H4.29468Z" fill="#C8432E" stroke="#36383A" stroke-width="0.0534913" stroke-miterlimit="10" stroke-linecap="square"/>
<path fill-rule="evenodd" clip-rule="evenodd" d="M4.29446 10.3018L4.05566 10.5138H4.29446V10.3018Z" fill="#C8432E" stroke="#36383A" stroke-width="0.0534913" stroke-miterlimit="10" stroke-linecap="square"/>
<path fill-rule="evenodd" clip-rule="evenodd" d="M4.29446 8.98772L4.05566 8.78809H4.29446V8.98772Z" fill="#C8432E" stroke="#36383A" stroke-width="0.0534913" stroke-miterlimit="10" stroke-linecap="square"/>
<path fill-rule="evenodd" clip-rule="evenodd" d="M2.51123 8.98772L2.72233 8.78809H2.51123V8.98772Z" fill="#C8432E" stroke="#36383A" stroke-width="0.0534913" stroke-miterlimit="10" stroke-linecap="square"/>
<path fill-rule="evenodd" clip-rule="evenodd" d="M2.72222 8.78809L2.35352 9.1396V10.1664L2.72222 10.5132H4.0595L4.42726 10.1664V9.1396L4.0595 8.78809H2.72222ZM2.72222 8.84826H4.0595L4.34893 9.1396V10.1664L4.0595 10.454H2.72222L2.43375 10.1664V9.1396L2.72222 8.84826Z" fill="#2D795C" stroke="#36383A" stroke-width="0.0534913" stroke-miterlimit="10" stroke-linecap="square"/>
<path fill-rule="evenodd" clip-rule="evenodd" d="M4.50562 9.58252H4.81701L4.87337 9.64365L4.81701 9.71911H4.50562V9.58252Z" fill="#E18A23" stroke="#36383A" stroke-width="0.0534913" stroke-miterlimit="10" stroke-linecap="square"/>
<path fill-rule="evenodd" clip-rule="evenodd" d="M4.50562 9.71924H4.81701L4.87337 9.77942L4.81701 9.83482H4.50562V9.71924Z" fill="#C8432E" stroke="#36383A" stroke-width="0.0534913" stroke-miterlimit="10" stroke-linecap="square"/>
<path fill-rule="evenodd" clip-rule="evenodd" d="M4.50562 9.83496H4.81701L4.87337 9.89514L4.81701 9.9706H4.50562V9.83496Z" fill="#E18A23" stroke="#36383A" stroke-width="0.0534913" stroke-miterlimit="10" stroke-linecap="square"/>
<path fill-rule="evenodd" clip-rule="evenodd" d="M4.50562 9.33496H4.81701L4.87337 9.4066L4.81701 9.46678H4.50562V9.33496Z" fill="#E18A23" stroke="#36383A" stroke-width="0.0534913" stroke-miterlimit="10" stroke-linecap="square"/>
<path fill-rule="evenodd" clip-rule="evenodd" d="M2.27817 9.4668H1.98875L1.91138 9.52793L1.98875 9.58238H2.27817V9.4668Z" fill="#C8432E" stroke="#36383A" stroke-width="0.0534913" stroke-miterlimit="10" stroke-linecap="square"/>
<path fill-rule="evenodd" clip-rule="evenodd" d="M2.27817 9.58252H1.98875L1.91138 9.64365L1.98875 9.71911H2.27817V9.58252Z" fill="#E18A23" stroke="#36383A" stroke-width="0.0534913" stroke-miterlimit="10" stroke-linecap="square"/>
<path fill-rule="evenodd" clip-rule="evenodd" d="M2.27817 9.71924H1.98875L1.91138 9.77942L1.98875 9.83482H2.27817V9.71924Z" fill="#C8432E" stroke="#36383A" stroke-width="0.0534913" stroke-miterlimit="10" stroke-linecap="square"/>
<path fill-rule="evenodd" clip-rule="evenodd" d="M2.27817 9.83496H1.98875L1.91138 9.89514L1.98875 9.9706H2.27817V9.83496Z" fill="#E18A23" stroke="#36383A" stroke-width="0.0534913" stroke-miterlimit="10" stroke-linecap="square"/>
<path fill-rule="evenodd" clip-rule="evenodd" d="M2.27817 9.33496H1.98875L1.91138 9.4066L1.98875 9.46678H2.27817V9.33496Z" fill="#E18A23" stroke="#36383A" stroke-width="0.0534913" stroke-miterlimit="10" stroke-linecap="square"/>
<path fill-rule="evenodd" clip-rule="evenodd" d="M1.91133 8.9875V10.3019H2.27813V10.6448H4.50566V10.3019H4.87246V8.9875H4.50566V8.63599H2.27813V8.9875H1.91133ZM1.83301 8.92828H2.19981V8.58154H4.58399V8.92828H4.95174V10.3783H4.58399V10.725H2.19981V10.3783H1.83301V8.92828Z" fill="#B44033" stroke="#36383A" stroke-width="0.0534913" stroke-miterlimit="10" stroke-linecap="square"/>
<path fill-rule="evenodd" clip-rule="evenodd" d="M5.26324 1.8094L5.02921 1.4617V1.32129C4.07783 1.86766 3.22484 2.56592 2.50366 3.38261L2.80073 3.58607H3.9804L4.35007 3.33485H4.81811L5.03017 3.08268V2.83146L5.26419 2.48759V1.80844L5.26324 1.8094Z" fill="#C8432E" stroke="#36383A" stroke-width="0.0534913" stroke-miterlimit="10" stroke-linecap="square"/>
<path fill-rule="evenodd" clip-rule="evenodd" d="M2.57422 3.30305L2.87797 3.51128H3.40142V2.4873C3.11009 2.7433 2.83403 3.01553 2.57422 3.30305Z" fill="#E18A23"/>
<path fill-rule="evenodd" clip-rule="evenodd" d="M5.1858 2.13659V1.8806L4.95178 1.53672V1.3667C4.55728 1.59786 4.17998 1.85481 3.82178 2.13659H5.1858Z" fill="#E18A23"/>
<path fill-rule="evenodd" clip-rule="evenodd" d="M3.4014 3.51122H3.24475L3.08905 3.33546H2.83783L2.7041 3.25905L2.78147 3.16353L2.91998 3.25905H3.05371L3.18934 2.98682L3.4014 3.08329V3.25905H3.18934L3.4014 3.51122Z" fill="#C8432E"/>
<path fill-rule="evenodd" clip-rule="evenodd" d="M5.18568 2.13672V2.38889L4.95166 2.73658V2.9878L4.7396 3.26004H4.29448L3.90476 3.51125H3.40137V2.48728C3.53796 2.36692 3.67838 2.24943 3.82166 2.13672H5.18568Z" fill="#FEFEFE"/>
<path fill-rule="evenodd" clip-rule="evenodd" d="M3.40137 3.51122H3.53414L3.6927 3.33546H3.94201L4.08052 3.25905L4.02034 3.16353L3.86464 3.25905H3.73091L3.59336 2.98682L3.40137 3.08329V3.25905H3.59336L3.40137 3.51122Z" fill="#C8432E"/>
<path fill-rule="evenodd" clip-rule="evenodd" d="M3.40159 2.48631V3.33453H3.32326L3.40159 3.41381V3.51028L3.18954 3.25906V3.16259H3.24494V3.25906H3.32231V3.16259L2.94214 2.91424C3.09019 2.76618 3.24303 2.62386 3.40064 2.48535L3.40159 2.48631Z" fill="#FEFEFE"/>
<path fill-rule="evenodd" clip-rule="evenodd" d="M3.40144 2.48633V3.16261L2.98975 2.86936C3.12347 2.73755 3.26102 2.60955 3.40144 2.48633Z" fill="#2D795C"/>
<path fill-rule="evenodd" clip-rule="evenodd" d="M4.73486 1.49783H4.75779L4.75015 1.48828L4.73486 1.49783Z" fill="#C8432E"/>
<path fill-rule="evenodd" clip-rule="evenodd" d="M4.46757 2.05674L4.7398 1.82845H4.89168L4.85538 1.77018L4.95185 1.61353L4.89168 1.53711L4.7398 1.61353L4.68058 1.53711L4.65765 1.73006L4.34912 1.96026L4.46757 2.05674Z" fill="#C8432E"/>
<path fill-rule="evenodd" clip-rule="evenodd" d="M5.05112 2.13672H4.96897L4.91262 2.05743L4.83143 2.13672H3.82178C4.0367 1.96765 4.25926 1.80813 4.48755 1.65625V1.86448L4.69961 2.05648H4.83238L4.91357 1.96L4.83238 1.88072H4.91357L5.05208 2.13672H5.05112Z" fill="#FEFEFE"/>
<path fill-rule="evenodd" clip-rule="evenodd" d="M4.73973 2.13662H3.82178C4.01855 1.98187 4.2201 1.83477 4.42833 1.69531V1.88062L4.73973 2.13662Z" fill="#2D795C"/>
<path fill-rule="evenodd" clip-rule="evenodd" d="M4.02036 2.73584L4.29451 2.95172H4.44829L4.41009 3.02718L4.50561 3.18001L4.44829 3.25929L4.29451 3.18001L4.23624 3.25929L4.21236 3.06252L3.90479 2.83232L4.02036 2.73584Z" fill="#C8432E"/>
<path fill-rule="evenodd" clip-rule="evenodd" d="M4.31174 2.56006L4.58398 2.79599H4.75782L4.69956 2.85522L4.81704 3.00805L4.75782 3.08351L4.58398 3.00805L4.54386 3.08351L4.50565 2.89151L4.2124 2.6594L4.31174 2.56006Z" fill="#C8432E"/>
<path fill-rule="evenodd" clip-rule="evenodd" d="M4.46757 2.23242L4.7398 2.4483H4.89168L4.85538 2.52471L4.95185 2.6594L4.89168 2.73581L4.7398 2.6594L4.68058 2.73581L4.65765 2.54382L4.34912 2.31266L4.46757 2.23242Z" fill="#C8432E"/>
<path fill-rule="evenodd" clip-rule="evenodd" d="M5.051 2.13672H4.96885L4.9125 2.23319L4.8313 2.13672H3.82166C3.67838 2.24943 3.53796 2.36692 3.40137 2.48728V3.3355H3.46059L3.40137 3.41478V3.51125L3.59336 3.26004V3.16356H3.53414V3.26004H3.46059V3.16356L4.02034 2.79676H4.48743V2.42805L4.69949 2.23319H4.83226L4.91345 2.31343L4.83226 2.38889H4.91345L5.05195 2.13672H5.051Z" fill="#E18A23"/>
<path fill-rule="evenodd" clip-rule="evenodd" d="M4.7396 2.1367H3.82166C3.67838 2.24941 3.53796 2.3669 3.40137 2.48726V3.16354L3.98022 2.73561H4.42821V2.38792L4.7396 2.13574V2.1367Z" fill="#C8432E"/>
<path fill-rule="evenodd" clip-rule="evenodd" d="M3.68989 2.24268L3.90481 2.38882H4.13788L4.05573 2.48912L4.21239 2.66105L4.13788 2.73747L3.90481 2.66105L3.84655 2.73747L3.80834 2.50536L3.56763 2.34488C3.60775 2.3105 3.64882 2.27706 3.68989 2.24363V2.24268Z" fill="#2D795C"/>
<path fill-rule="evenodd" clip-rule="evenodd" d="M3.83511 2.12549L3.84657 2.136L3.40145 2.55915L3.36133 2.5219C3.51512 2.3853 3.67272 2.25253 3.83511 2.12549Z" fill="#FEFEFE"/>
<path fill-rule="evenodd" clip-rule="evenodd" d="M4.83128 2.31248L4.77492 2.38794L4.83128 2.48823H4.91343L5.10733 2.13672H5.05098L4.91343 2.38794H4.83128L4.91343 2.31248L4.83128 2.23224H4.69946V2.31248H4.83128Z" fill="#C8432E"/>
<path fill-rule="evenodd" clip-rule="evenodd" d="M4.83128 1.96L4.77492 1.88072L4.83128 1.80908H4.91343L5.10733 2.13672H5.05098L4.91343 1.88072H4.83128L4.91343 1.96L4.83128 2.05648H4.69946V1.96H4.83128Z" fill="#C8432E"/>
<path fill-rule="evenodd" clip-rule="evenodd" d="M3.39966 2.48855H3.46079V2.43506L3.39966 2.48855Z" fill="#C8432E"/>
<path fill-rule="evenodd" clip-rule="evenodd" d="M3.60498 2.31273H3.6728V2.25732L3.60498 2.31273Z" fill="#C8432E"/>
<path fill-rule="evenodd" clip-rule="evenodd" d="M2.78152 15.5239L1.98584 15.9824C2.59335 16.7943 3.32121 17.5107 4.14364 18.1058L5.26313 17.4611V16.2394L4.02042 15.5239H2.78152Z" fill="#2D795C" stroke="#36383A" stroke-width="0.0534913" stroke-miterlimit="10" stroke-linecap="square"/>
<path fill-rule="evenodd" clip-rule="evenodd" d="M2.29732 16.3771V16.1631H2.21899V16.2796C2.24478 16.3121 2.27153 16.3446 2.29732 16.3771Z" fill="#D2402B"/>
<path fill-rule="evenodd" clip-rule="evenodd" d="M3.92206 17.9407H3.96027V17.7688H4.12074V17.9407H4.19429V17.5376H4.12074V17.7095H3.96027V17.5376H3.88672V17.9139L3.92206 17.9407Z" fill="#D2402B"/>
<path fill-rule="evenodd" clip-rule="evenodd" d="M4.48755 16.5662H4.56492V16.3942H4.71775V16.5662H4.79512V16.1631H4.71775V16.335H4.56492V16.1631H4.48755V16.5662Z" fill="#D2402B"/>
<path fill-rule="evenodd" clip-rule="evenodd" d="M4.48755 17.2663H4.56492V17.0896H4.71775V17.2663H4.79512V16.8384H4.71775V17.0332H4.56492V16.8384H4.48755V17.2663Z" fill="#D2402B"/>
<path fill-rule="evenodd" clip-rule="evenodd" d="M3.40137 17.5137V16.8384H5.18568V17.4211L4.08911 18.0658C3.85222 17.892 3.62202 17.7067 3.40137 17.5128V17.5137Z" fill="#E18A23"/>
<path fill-rule="evenodd" clip-rule="evenodd" d="M3.40157 15.583V16.8381H2.70427C2.46356 16.5821 2.23718 16.3128 2.02417 16.0329L2.79979 15.584H3.40061L3.40157 15.583Z" fill="#E18A23"/>
<path fill-rule="evenodd" clip-rule="evenodd" d="M3.40137 15.583V16.8381H5.18568V16.2784L4.00219 15.583H3.40137Z" fill="#FEFEFE"/>
<path fill-rule="evenodd" clip-rule="evenodd" d="M3.4014 17.5137V16.8384H2.7041C2.92571 17.0743 3.15782 17.2997 3.4014 17.5137Z" fill="#FEFEFE"/>
<path fill-rule="evenodd" clip-rule="evenodd" d="M5.18568 16.2784V16.8381H4.05568V16.394H3.80828L3.51695 16.2192V15.8151L3.6927 15.6394H3.46059V16.2192H3.40137V15.583H4.00219L5.18568 16.2784ZM4.34988 16.3348H5.06628L4.34988 15.9871V16.3348Z" fill="#E18A23" stroke="#36383A" stroke-width="0.0534913" stroke-miterlimit="10" stroke-linecap="square"/>
<path fill-rule="evenodd" clip-rule="evenodd" d="M2.80054 16.4504V16.9395C2.96101 17.1057 3.12626 17.2661 3.29724 17.4209L3.40136 17.4772L3.80827 17.2451H4.00218V16.4504H3.80827L3.40136 16.2192L2.97438 16.4504H2.80054Z" fill="#C8432E"/>
<path fill-rule="evenodd" clip-rule="evenodd" d="M2.7041 16.8384H2.74231V16.8795L2.7041 16.8384ZM3.36128 17.4774H3.4014V17.5137L3.36128 17.4774Z" fill="#E18A23" stroke="#36383A" stroke-width="0.0534913" stroke-miterlimit="10" stroke-linecap="square"/>
<path fill-rule="evenodd" clip-rule="evenodd" d="M2.70405 16.8381H2.74226V16.394H2.97437L3.2638 16.2192V15.8151L3.08995 15.6394H3.32302V16.2192H3.40135V15.583H2.80053L2.0249 16.032C2.05356 16.0692 2.08126 16.1065 2.11087 16.1437L2.43468 15.9871V16.3348H2.2637C2.40507 16.5076 2.55313 16.6748 2.70501 16.8381H2.70405Z" fill="#FEFEFE" stroke="#36383A" stroke-width="0.0534913" stroke-miterlimit="10" stroke-linecap="square"/>
<path fill-rule="evenodd" clip-rule="evenodd" d="M5.18568 17.4211V16.8384H4.05568V17.3055H3.80828L3.51695 17.4774V17.613C3.70226 17.7707 3.89234 17.9216 4.08911 18.0658L5.18568 17.4211ZM3.46059 17.5653V17.4774H3.40137V17.5137L3.46059 17.5662V17.5653ZM4.34893 17.3618H5.06533L4.34893 17.7095V17.3618Z" fill="#FEFEFE" stroke="#36383A" stroke-width="0.0534913" stroke-miterlimit="10" stroke-linecap="square"/>
<path fill-rule="evenodd" clip-rule="evenodd" d="M2.66211 15.8154H2.74235V15.9874H2.89709V15.8154H2.97446V16.2195H2.89709V16.0475H2.74235V16.2195H2.66211V15.8154Z" fill="#C8432E"/>
<path fill-rule="evenodd" clip-rule="evenodd" d="M4.52295 16.7981H4.60128V16.6262H4.75793V16.7981H4.83148V16.394H4.75793V16.566H4.60128V16.394H4.52295V16.7981Z" fill="#C8432E"/>
<path fill-rule="evenodd" clip-rule="evenodd" d="M3.84847 17.8845H3.88668V17.7097H4.04333V17.8845H4.1207V17.4775H4.04333V17.6495H3.88668V17.4775H3.80835V17.8529L3.84847 17.8845Z" fill="#C8432E"/>
<path fill-rule="evenodd" clip-rule="evenodd" d="M4.52295 17.3054H4.60128V17.1296H4.75793V17.3054H4.83148V16.8984H4.75793V17.0704H4.60128V16.8984H4.52295V17.3054Z" fill="#C8432E"/>
<path fill-rule="evenodd" clip-rule="evenodd" d="M3.80835 16.2195H3.88668V16.0475H4.04333V16.2195H4.1207V15.8154H4.04333V15.9874H3.88668V15.8154H3.80835V16.2195Z" fill="#C8432E"/>
<path fill-rule="evenodd" clip-rule="evenodd" d="M3.46081 16.8381L3.69292 16.6461H3.8085V16.7416H3.69292V16.7979H3.86486V16.5859H3.69292V16.4312H3.46081V16.5859H3.51717V16.4703H3.63561V16.5859L3.40159 16.7979L3.15037 16.5859V16.4703H3.26404V16.5859H3.32231V16.4312H3.08924V16.5859H2.92017V16.7979H3.08924V16.7416H2.97461V16.6461H3.08924L3.32231 16.8381L3.08924 17.0539H2.97461V16.9536H3.08924V16.8982H2.92017V17.0616L2.96888 17.1103H3.08924V17.2278L3.12935 17.266H3.32231V17.1103H3.26404V17.2297H3.15037V17.1103L3.40159 16.8982L3.63561 17.1103V17.2297H3.51717V17.1103H3.46081V17.266H3.69292V17.1103H3.86486V16.8982H3.69292V16.9536H3.8085V17.0539H3.69292L3.46081 16.8381Z" fill="#2D795C"/>
<path fill-rule="evenodd" clip-rule="evenodd" d="M1.71558 6.13909L1.83307 5.98817H2.53036L3.05381 5.32812H3.74824L4.27169 5.98817H4.9518L5.06547 6.13909L4.9518 6.29479H4.27169L3.74824 6.97394H3.05381L2.53036 6.29479H1.83307L1.71558 6.13909Z" fill="#C8432E"/>
<path fill-rule="evenodd" clip-rule="evenodd" d="M1.77393 5.96736L1.83315 5.90814H2.54859L3.08924 5.27197H3.69292L4.23643 5.90814H4.95188L5.0111 5.96736L4.95188 6.02467H4.23643L3.74833 6.58728H3.03288L2.54859 6.02467H1.83315L1.77393 5.96736Z" fill="#C8432E" stroke="#36383A" stroke-width="0.0534913" stroke-miterlimit="10" stroke-linecap="square"/>
<path fill-rule="evenodd" clip-rule="evenodd" d="M3.40148 5.67588L3.16745 5.94811L3.40148 6.21939L3.6355 5.94811L3.40148 5.67588ZM3.69281 6.02357L3.4607 6.27479L3.69281 6.54702V6.62248H3.63455L3.40052 6.35502L3.1665 6.62248H3.11014V6.54702L3.34034 6.27479L3.11014 6.02357L2.87707 6.27479L2.99265 6.41043L3.05283 6.35407H3.11014V6.41043L3.05283 6.49066H2.93343L2.81689 6.35502V6.21939L3.05283 5.94811L2.81689 5.67588V5.5603L2.93343 5.4237H3.05283L3.11014 5.48293V5.55934H3.05283L2.99265 5.48293L2.87707 5.61856L3.11014 5.88698L3.34034 5.61856L3.11014 5.34729V5.28711H3.1665L3.40052 5.55934L3.63455 5.28711H3.69281V5.34729L3.4607 5.61856L3.69281 5.88698L3.92397 5.61856L3.80839 5.48293L3.74822 5.55934H3.69281V5.48293L3.74822 5.4237H3.86475L3.97937 5.5603V5.67588L3.74726 5.94811L3.97937 6.21939V6.35502L3.86475 6.49066H3.74822L3.69281 6.41043V6.35407H3.74822L3.80839 6.41043L3.92397 6.27479L3.69281 6.02357Z" fill="#E18A23" stroke="#36383A" stroke-width="0.0534913" stroke-miterlimit="10" stroke-linecap="square"/>
<path fill-rule="evenodd" clip-rule="evenodd" d="M3.05371 6.68262V7.20225L3.11102 7.14589L3.16738 7.20225L3.22756 7.14589L3.28487 7.20225L3.34123 7.14589L3.4014 7.20225L3.46063 7.14589L3.51698 7.20225L3.57525 7.14589L3.63543 7.20225L3.69274 7.14589L3.74814 7.20225V6.68262H3.05371Z" fill="#E18A23"/>
<path fill-rule="evenodd" clip-rule="evenodd" d="M3.74814 5.21241V4.68896L3.69274 4.74914L3.63543 4.68896L3.57525 4.74914L3.51698 4.68896L3.46063 4.74914L3.4014 4.68896L3.34123 4.74914L3.28487 4.68896L3.22756 4.74914L3.16738 4.68896L3.11102 4.74914L3.05371 4.68896V5.21241H3.74814Z" fill="#E18A23"/>
<path fill-rule="evenodd" clip-rule="evenodd" d="M4.71781 5.81249V5.28809L4.65763 5.34922L4.60127 5.28809L4.54396 5.34922L4.4876 5.28809L4.44844 5.34922L4.38731 5.28809L4.33191 5.34922L4.27173 5.28809V5.81249H4.71781Z" fill="#E18A23"/>
<path fill-rule="evenodd" clip-rule="evenodd" d="M2.53041 5.81249V5.28809L2.47023 5.34922L2.41101 5.28809L2.35465 5.34922L2.29734 5.28809L2.24099 5.34922L2.18081 5.28809L2.1235 5.34922L2.06714 5.28809V5.81249H2.53041Z" fill="#E18A23"/>
<path fill-rule="evenodd" clip-rule="evenodd" d="M4.71781 6.08252V6.62316L4.65763 6.5477L4.60127 6.62316L4.54396 6.5477L4.4876 6.62316L4.44844 6.5477L4.38731 6.62316L4.33191 6.5477L4.27173 6.62316V6.08252H4.71781Z" fill="#E18A23"/>
<path fill-rule="evenodd" clip-rule="evenodd" d="M2.53041 6.08252V6.62316L2.47023 6.5477L2.41101 6.62316L2.35465 6.5477L2.29734 6.62316L2.24099 6.5477L2.18081 6.62316L2.1235 6.5477L2.06714 6.62316V6.08252H2.53041Z" fill="#E18A23"/>
<path fill-rule="evenodd" clip-rule="evenodd" d="M3.74829 6.68239V7.01098L3.80847 6.95462L3.86483 7.01098L3.92405 6.95462L3.9804 7.01098L4.04345 6.95462L4.09789 7.01098L4.15616 6.95462L4.21252 7.01098L4.27174 6.95462V6.08252L3.74829 6.68239Z" fill="#2D795C"/>
<path fill-rule="evenodd" clip-rule="evenodd" d="M3.05372 6.68239V7.01098L2.99355 6.95462L2.93432 7.01098L2.87797 6.95462L2.81779 7.01098L2.76048 6.95462L2.70412 7.01098L2.64394 6.95462L2.59045 7.01098L2.53027 6.95462V6.08252L3.05372 6.68239Z" fill="#2D795C"/>
<path fill-rule="evenodd" clip-rule="evenodd" d="M3.05372 5.21242V4.88574L2.99355 4.9612L2.93432 4.88574L2.87797 4.9612L2.81779 4.88574L2.76048 4.9612L2.70412 4.88574L2.64394 4.9612L2.59045 4.88574L2.53027 4.9612V5.81229L3.05372 5.21242Z" fill="#2D795C"/>
<path fill-rule="evenodd" clip-rule="evenodd" d="M3.74829 5.21242V4.88574L3.80847 4.9612L3.86483 4.88574L3.92405 4.9612L3.9804 4.88574L4.04345 4.9612L4.09789 4.88574L4.15616 4.9612L4.21252 4.88574L4.27174 4.9612V5.81229L3.74829 5.21242Z" fill="#2D795C"/>
<path fill-rule="evenodd" clip-rule="evenodd" d="M2.06695 6.49176L2.00677 6.41153L1.94659 6.49176L1.89023 6.41153L1.83292 6.49176L1.7737 6.41153L1.71543 6.49176L1.65908 6.41153L1.59985 6.49176V5.4248L1.65908 5.48403L1.71543 5.4248L1.7737 5.48403L1.83292 5.4248L1.89023 5.48403L1.94659 5.4248L2.00677 5.48403L2.06695 5.4248V5.81262H1.83292L1.71543 5.94825L1.83292 6.08294H2.06695V6.49176Z" fill="#2D795C"/>
<path fill-rule="evenodd" clip-rule="evenodd" d="M4.71777 6.49176L4.77509 6.41153L4.83144 6.49176L4.89162 6.41153L4.9518 6.49176L5.01102 6.41153L5.06547 6.49176L5.12469 6.41153L5.18582 6.49176V5.4248L5.12469 5.48403L5.06547 5.4248L5.01102 5.48403L4.9518 5.4248L4.89162 5.48403L4.83144 5.4248L4.77509 5.48403L4.71777 5.4248V5.81262H4.9518L5.06547 5.94825L4.9518 6.08294H4.71777V6.49176Z" fill="#2D795C"/>
<path fill-rule="evenodd" clip-rule="evenodd" d="M2.76058 6.72259C2.76058 6.72259 2.70422 6.77895 2.70422 6.79901C2.70422 6.81811 2.76058 6.87447 2.78159 6.87447C2.81789 6.87447 2.85514 6.83435 2.85514 6.79901C2.85514 6.77895 2.79974 6.72259 2.79974 6.72259V6.62325C2.79974 6.62325 2.91914 6.79901 2.91914 6.72259C2.91914 6.66337 2.79974 6.56689 2.79974 6.56689H2.76058C2.76058 6.56689 2.64404 6.68247 2.64404 6.72259C2.64404 6.79901 2.76058 6.62325 2.76058 6.62325V6.72259Z" fill="#FEFEFE"/>
<path fill-rule="evenodd" clip-rule="evenodd" d="M3.36412 6.93093C3.36412 6.93093 3.30489 6.99015 3.30489 7.03027C3.30489 7.07039 3.36412 7.14585 3.40137 7.14585C3.41856 7.14585 3.47874 7.07039 3.47874 7.03027C3.47874 6.99015 3.41856 6.93093 3.41856 6.93093V6.7781C3.41856 6.7781 3.51599 7.01021 3.51599 6.91469C3.51599 6.83445 3.41856 6.70264 3.41856 6.70264H3.36412C3.36412 6.70264 3.24472 6.87457 3.26286 6.91469C3.26286 7.01021 3.36412 6.77905 3.36412 6.77905V6.93093Z" fill="#C8432E"/>
<path fill-rule="evenodd" clip-rule="evenodd" d="M2.87807 5.94787C2.87807 5.98799 2.81789 6.02333 2.76058 6.02333C2.68607 6.02333 2.64404 5.98799 2.64404 5.94787C2.64404 5.90775 2.68607 5.8877 2.76058 5.8877C2.81789 5.8877 2.87807 5.90775 2.87807 5.94787Z" fill="#2D795C"/>
<path fill-rule="evenodd" clip-rule="evenodd" d="M3.51703 5.94787C3.51703 5.98799 3.46067 6.02333 3.40145 6.02333C3.32312 6.02333 3.28491 5.98799 3.28491 5.94787C3.28491 5.90775 3.32312 5.8877 3.40145 5.8877C3.46067 5.8877 3.51703 5.90775 3.51703 5.94787Z" fill="#2D795C"/>
<path fill-rule="evenodd" clip-rule="evenodd" d="M4.15619 5.94787C4.15619 5.98799 4.09792 6.02333 4.04252 6.02333C3.95941 6.02333 3.92407 5.98799 3.92407 5.94787C3.92407 5.90775 3.96037 5.8877 4.04252 5.8877C4.09792 5.8877 4.15619 5.90775 4.15619 5.94787Z" fill="#2D795C"/>
<path fill-rule="evenodd" clip-rule="evenodd" d="M2.74243 5.19244C2.74243 5.19244 2.70422 5.13322 2.70422 5.09788C2.70422 5.07686 2.74243 5.02051 2.76058 5.02051C2.8007 5.02051 2.83795 5.07686 2.83795 5.09788C2.83795 5.13322 2.79974 5.19244 2.79974 5.19244V5.28796C2.79974 5.28796 2.89717 5.11603 2.89717 5.19244C2.89717 5.25262 2.79974 5.3491 2.79974 5.3491H2.74243C2.74243 5.3491 2.64404 5.23256 2.64404 5.19244C2.64404 5.11698 2.74243 5.28892 2.74243 5.28892V5.19244Z" fill="#FEFEFE"/>
<path fill-rule="evenodd" clip-rule="evenodd" d="M3.34141 4.9767C3.34141 4.9767 3.28505 4.90506 3.28505 4.86494C3.28505 4.84393 3.36529 4.76465 3.38344 4.76465C3.41974 4.76465 3.46081 4.82483 3.46081 4.86494C3.46081 4.90506 3.40159 4.9767 3.40159 4.9767V5.13336C3.40159 5.13336 3.51717 4.88596 3.51717 4.99772C3.51717 5.077 3.40159 5.19258 3.40159 5.19258H3.34141C3.34141 5.19258 3.22774 5.03784 3.24493 4.99772C3.24493 4.88596 3.34046 5.13336 3.34046 5.13336V4.9767H3.34141Z" fill="#C8432E"/>
<path fill-rule="evenodd" clip-rule="evenodd" d="M4.00226 6.72259C4.00226 6.72259 3.94208 6.77895 3.94208 6.79901C3.94208 6.81811 4.0013 6.87447 4.01945 6.87447C4.04237 6.87447 4.09682 6.83435 4.09682 6.79901C4.09682 6.77895 4.04142 6.72259 4.04142 6.72259V6.62325C4.04142 6.62325 4.15509 6.79901 4.15509 6.72259C4.15509 6.66337 4.04142 6.56689 4.04142 6.56689H4.0013C4.0013 6.56689 3.88477 6.68247 3.88477 6.72259C3.88477 6.79901 4.00035 6.62325 4.00035 6.62325V6.72259H4.00226Z" fill="#FEFEFE"/>
<path fill-rule="evenodd" clip-rule="evenodd" d="M3.98031 5.19244C3.98031 5.19244 3.9421 5.13322 3.9421 5.09788C3.92395 5.07686 3.98031 5.02051 4.00132 5.02051C4.0424 5.02051 4.07965 5.07686 4.07965 5.09788C4.07965 5.13322 4.0424 5.19244 4.0424 5.19244V5.28796C4.0424 5.28796 4.13696 5.11603 4.13696 5.19244C4.13696 5.25262 4.0424 5.3491 4.0424 5.3491H3.97935C3.97935 5.3491 3.88574 5.23256 3.88574 5.19244C3.88574 5.11698 3.97935 5.28892 3.97935 5.28892V5.19244H3.98031Z" fill="#FEFEFE"/>
<path fill-rule="evenodd" clip-rule="evenodd" d="M2.25814 6.35494C2.25814 6.35494 2.17981 6.41129 2.17981 6.4304C2.17981 6.45046 2.25814 6.50586 2.27819 6.50586C2.31449 6.50586 2.37467 6.45046 2.37467 6.4304C2.37467 6.41129 2.31449 6.35494 2.31449 6.35494V6.25846C2.31449 6.25846 2.43389 6.41129 2.43389 6.33488C2.43389 6.29476 2.31449 6.2002 2.31449 6.2002H2.25814C2.25814 6.2002 2.1225 6.311 2.13969 6.33488C2.13969 6.41129 2.25718 6.25846 2.25718 6.25846V6.35494H2.25814Z" fill="#C8432E"/>
<path fill-rule="evenodd" clip-rule="evenodd" d="M2.24102 5.6005C2.24102 5.6005 2.18084 5.56038 2.18084 5.52026C2.18084 5.5002 2.24102 5.44385 2.27923 5.44385C2.31744 5.44385 2.3757 5.5002 2.3757 5.52026C2.3757 5.56038 2.29833 5.6005 2.29833 5.6005V5.69507C2.29833 5.69507 2.412 5.53937 2.412 5.6196C2.412 5.6559 2.29833 5.75142 2.29833 5.75142H2.24197C2.24197 5.75142 2.10347 5.63966 2.12448 5.6196C2.12448 5.53937 2.24197 5.69507 2.24197 5.69507V5.59955L2.24102 5.6005Z" fill="#C8432E"/>
<path fill-rule="evenodd" clip-rule="evenodd" d="M4.48759 6.33488C4.48759 6.33488 4.42836 6.39124 4.42836 6.41129C4.41021 6.4304 4.48759 6.49058 4.52388 6.49058C4.5449 6.49058 4.6194 6.4304 4.6194 6.41129C4.6194 6.39028 4.54394 6.33488 4.54394 6.33488V6.23936C4.54394 6.23936 4.65761 6.39028 4.65761 6.33488C4.65761 6.27566 4.54394 6.2002 4.54394 6.2002H4.48759C4.48759 6.2002 4.35004 6.29476 4.37201 6.33488C4.37201 6.39124 4.48759 6.23936 4.48759 6.23936V6.33488Z" fill="#C8432E"/>
<path fill-rule="evenodd" clip-rule="evenodd" d="M4.46736 5.58044C4.46736 5.58044 4.4091 5.54032 4.4091 5.5002C4.4091 5.48397 4.46736 5.44385 4.50462 5.44385C4.54187 5.44385 4.60014 5.48397 4.60014 5.5002C4.60014 5.54032 4.52277 5.58044 4.52277 5.58044V5.67692C4.52277 5.67692 4.6393 5.52122 4.6393 5.60146C4.6393 5.64062 4.52277 5.73709 4.52277 5.73709H4.46736C4.46736 5.73709 4.33173 5.62056 4.34892 5.60146C4.34892 5.52122 4.46736 5.67692 4.46736 5.67692V5.58044Z" fill="#C8432E"/>
<path fill-rule="evenodd" clip-rule="evenodd" d="M1.77369 6.35496C1.75554 6.29478 1.77369 6.27567 1.77369 6.25848C1.75554 6.23938 1.83291 6.1792 1.85202 6.1792C1.87112 6.1792 1.9122 6.23938 1.9122 6.25848V6.35496L1.87017 6.27472C1.84597 6.35177 1.82655 6.35177 1.8119 6.27472L1.77465 6.354L1.77369 6.35496Z" fill="#FEFEFE"/>
<path fill-rule="evenodd" clip-rule="evenodd" d="M1.77369 5.58008C1.75554 5.6202 1.77369 5.65554 1.77369 5.67655C1.77369 5.69566 1.83291 5.75201 1.85202 5.75201C1.87017 5.75201 1.9122 5.69566 1.9122 5.65554V5.58008L1.87017 5.65554C1.84597 5.57849 1.82655 5.57849 1.8119 5.65554L1.77465 5.58008H1.77369Z" fill="#FEFEFE"/>
<path fill-rule="evenodd" clip-rule="evenodd" d="M4.91357 6.3349C4.8916 6.29478 4.8916 6.27567 4.8916 6.23938C4.8916 6.21932 4.95082 6.1792 4.96993 6.1792C5.01196 6.1792 5.05208 6.21932 5.05208 6.25848C5.05208 6.27472 5.05208 6.29478 5.02915 6.35496L5.01196 6.27472C4.98457 6.33904 4.96452 6.33362 4.95178 6.25848L4.91453 6.3349H4.91357Z" fill="#FEFEFE"/>
<path fill-rule="evenodd" clip-rule="evenodd" d="M4.91357 5.58012C4.8916 5.62024 4.8916 5.6403 4.8916 5.65558C4.8916 5.69474 4.95082 5.73677 4.96993 5.73677C5.01196 5.73677 5.05208 5.67659 5.05208 5.65558V5.56006L5.01196 5.63934C4.98457 5.55974 4.96452 5.55974 4.95178 5.63934L4.91453 5.57916L4.91357 5.58012Z" fill="#FEFEFE"/>
<path fill-rule="evenodd" clip-rule="evenodd" d="M2.97449 7.28161V7.10585H2.43384V6.72186H1.94669V6.58718H1.53882V5.32822H1.94669V5.21264H2.43384V4.82578H2.97449V4.63379H3.80933V4.82578H4.34998V5.21264H4.83235V5.32822H5.26315V6.58718H4.83235V6.72186H4.34998V7.10585H3.80933V7.28161H2.97449ZM3.03371 7.22238H3.74915V7.03039H4.29553V6.66359H4.77599V6.527H5.18673V5.38458H4.77599V5.27186H4.29553V4.88501H3.74915V4.70925H3.03371V4.88501H2.48924V5.27186H2.00687V5.38458H1.59995V6.527H2.00687V6.66359H2.48924V7.03039H3.03371V7.22238Z" fill="#C8432E" stroke="#36383A" stroke-width="0.0534913" stroke-miterlimit="10" stroke-linecap="square"/>
<path fill-rule="evenodd" clip-rule="evenodd" d="M13.5162 4.47815C13.5162 3.39591 12.8198 2.47032 11.8512 2.12549C12.4492 2.57443 12.837 3.28797 12.837 4.09034C12.837 5.46487 11.7328 6.56717 10.3745 6.56717C10.0173 6.56717 9.67625 6.4898 9.36963 6.3513C9.80711 6.74006 10.3821 6.97409 11.0164 6.97409C12.3938 6.97409 13.5171 5.87179 13.5171 4.47815H13.5162Z" fill="#FEFEFE"/>
<path fill-rule="evenodd" clip-rule="evenodd" d="M11.3468 3.08315H10.9934L10.8978 3.43084L10.7832 3.08315H10.4346L10.7039 2.87109L10.5903 2.54346L10.8835 2.73545L11.171 2.54346L11.0765 2.87109L11.3468 3.08315Z" fill="#FDFEFE"/>
<path fill-rule="evenodd" clip-rule="evenodd" d="M10.0849 2.44829L9.73724 2.46835L9.64076 2.79599L9.52614 2.46835L9.17749 2.44829L9.44781 2.23242L9.32937 1.90479L9.62166 2.09678L9.89294 1.90479L9.81556 2.23242L10.0849 2.44829Z" fill="#FDFEFE"/>
<path fill-rule="evenodd" clip-rule="evenodd" d="M10.0849 3.72237H9.73724L9.64076 4.05L9.52614 3.72237H9.17749L9.44781 3.51127L9.32937 3.16357L9.62166 3.37467L9.89294 3.16357L9.81556 3.51127L10.0849 3.72237Z" fill="#FDFEFE"/>
<path fill-rule="evenodd" clip-rule="evenodd" d="M10.0849 4.99678H9.73724L9.64076 5.32824L9.52614 4.99678H9.17749L9.44781 4.78568L9.32937 4.43799L9.62166 4.65291L9.89294 4.43799L9.81556 4.78568L10.0849 4.99678Z" fill="#FDFEFE"/>
<path fill-rule="evenodd" clip-rule="evenodd" d="M8.82612 4.34136H8.47652L8.381 4.68905L8.26542 4.34136H7.91772L8.18709 4.12931L8.07342 3.79785L8.36285 3.99367L8.65036 3.79785L8.5558 4.12931L8.82612 4.34136Z" fill="#FDFEFE"/>
<path fill-rule="evenodd" clip-rule="evenodd" d="M3.84847 17.8845H3.88668V17.7097H4.04333V17.8845H4.1207V17.4775H4.04333V17.6495H3.88668V17.4775H3.80835V17.8529L3.84847 17.8845Z" fill="#C8432E"/>
</g>
</g>
<defs>
<clipPath id="clip0_1756_25841">
<rect width="20" height="20" fill="white"/>
</clipPath>
<clipPath id="clip1_1756_25841">
<rect width="20" height="20" fill="white"/>
</clipPath>
</defs>
</svg>
