<svg width="20" height="20" viewBox="0 0 20 20" fill="none" xmlns="http://www.w3.org/2000/svg">
<path d="M20 10C20 15.5228 15.5228 20 10 20C4.47719 20 0 15.5228 0 10C3.43477 6.56523 6.34781 3.65219 10 0C15.5228 0 20 4.47719 20 10Z" fill="#D80027"/>
<path d="M10 10C10 4.47719 10 3.82609 10 0C4.47719 0 0 4.47719 0 10H10Z" fill="#0052B4"/>
<path d="M8.69551 5.85248L7.47422 6.42701L8.12453 7.60979L6.7984 7.35604L6.63031 8.69576L5.70664 7.71045L4.78289 8.69576L4.61488 7.35604L3.28871 7.60971L3.93902 6.42693L2.71777 5.85248L3.93906 5.27807L3.28871 4.09525L4.61484 4.34897L4.78293 3.00928L5.70664 3.99459L6.63035 3.00928L6.7984 4.34897L8.12457 4.09525L7.47422 5.27811L8.69551 5.85248Z" fill="#F0F0F0"/>
<path d="M5.7069 7.71312C6.73495 7.71312 7.56835 6.87973 7.56835 5.85168C7.56835 4.82363 6.73495 3.99023 5.7069 3.99023C4.67886 3.99023 3.84546 4.82363 3.84546 5.85168C3.84546 6.87973 4.67886 7.71312 5.7069 7.71312Z" fill="#0052B4"/>
<path d="M5.70717 6.8441C5.16025 6.8441 4.71533 6.39914 4.71533 5.85223C4.71533 5.30531 5.16029 4.86035 5.70717 4.86035C6.25408 4.86035 6.69904 5.30531 6.69904 5.85223C6.699 6.39914 6.254 6.8441 5.70717 6.8441Z" fill="#F0F0F0"/>
</svg>
