<svg width="20" height="20" viewBox="0 0 20 20" fill="none" xmlns="http://www.w3.org/2000/svg">
<g clip-path="url(#clip0_1423_25089)">
<path d="M17.0714 17.0711C20.9766 13.1658 20.9766 6.83417 17.0714 2.92893C13.1661 -0.976311 6.83446 -0.97631 2.92922 2.92893C-0.976021 6.83418 -0.976021 13.1658 2.92922 17.0711C6.83446 20.9763 13.1661 20.9763 17.0714 17.0711Z" fill="#FEFEFE"/>
<path fill-rule="evenodd" clip-rule="evenodd" d="M15.0978 7.22877L18.6407 4.96399C18.4515 4.64114 18.2462 4.32878 18.0236 4.03076L13.0203 7.22877H15.0978Z" fill="#C3283A"/>
<path fill-rule="evenodd" clip-rule="evenodd" d="M14.6289 13.1733L18.3274 15.5365C18.5338 15.2261 18.7239 14.9042 18.8958 14.5718L16.7074 13.1733H14.6289Z" fill="#C3283A"/>
<path fill-rule="evenodd" clip-rule="evenodd" d="M1.09375 5.44758L3.8667 7.22903H5.94617L1.66209 4.479C1.45577 4.7904 1.26569 5.11326 1.09471 5.44758H1.09375Z" fill="#C3283A"/>
<path fill-rule="evenodd" clip-rule="evenodd" d="M5.47428 13.1733L1.7041 15.5852C1.91425 15.8966 2.14158 16.1956 2.38516 16.4802L7.55566 13.1724H5.47428V13.1733Z" fill="#C3283A"/>
<path fill-rule="evenodd" clip-rule="evenodd" d="M12.4482 0.301758V6.71975L17.5586 3.45201C16.2385 1.92942 14.4647 0.809925 12.4482 0.301758Z" fill="#2D3577"/>
<path fill-rule="evenodd" clip-rule="evenodd" d="M2.53979 3.34232L7.80104 6.72087V0.243652C5.73112 0.70788 3.90382 1.814 2.53979 3.34232Z" fill="#2D3577"/>
<path fill-rule="evenodd" clip-rule="evenodd" d="M19.3017 6.32129L17.8918 7.22873H19.6112C19.5224 6.9202 19.4192 6.6174 19.3017 6.32129Z" fill="#2D3577"/>
<path fill-rule="evenodd" clip-rule="evenodd" d="M19.4861 13.1733H17.8918L19.1728 13.9881C19.2883 13.7226 19.3934 13.4503 19.4861 13.1733Z" fill="#2D3577"/>
<path fill-rule="evenodd" clip-rule="evenodd" d="M7.80124 19.7573V13.6841L2.76733 16.905C4.10462 18.3053 5.84499 19.3179 7.80124 19.7573Z" fill="#2D3577"/>
<path fill-rule="evenodd" clip-rule="evenodd" d="M17.3322 16.799L12.4482 13.6841V19.698C14.352 19.2185 16.0388 18.1936 17.3322 16.799Z" fill="#2D3577"/>
<path fill-rule="evenodd" clip-rule="evenodd" d="M0.885511 14.1199L2.35748 13.1733H0.514893C0.62283 13.4962 0.747006 13.8124 0.885511 14.1199Z" fill="#2D3577"/>
<path fill-rule="evenodd" clip-rule="evenodd" d="M0.389648 7.22882H2.35736L0.750714 6.19434C0.61221 6.53057 0.4909 6.87539 0.389648 7.22882Z" fill="#2D3577"/>
<path fill-rule="evenodd" clip-rule="evenodd" d="M8.73054 0.0802369V8.41819H0.125131C0.042984 8.934 0 9.46222 0 10C0 10.6801 0.0678193 11.3449 0.197727 11.9868H8.73054V19.9198C9.14605 19.9723 9.57016 20 10 20C10.5158 20 11.023 19.9608 11.5188 19.8854V11.9868H19.8032C19.9331 11.3449 20.001 10.6801 20.001 10C20.001 9.46127 19.958 8.93304 19.8758 8.41819H11.5188V0.114624C11.024 0.0391632 10.5168 0 10 0C9.57016 0 9.14605 0.0277008 8.73054 0.0802369Z" fill="#C3283A"/>
</g>
<defs>
<clipPath id="clip0_1423_25089">
<rect width="20" height="20" fill="white"/>
</clipPath>
</defs>
</svg>
