<svg width="50" height="50" viewBox="0 0 50 50" fill="none" xmlns="http://www.w3.org/2000/svg">
<path d="M25 50C38.8071 50 50 38.8071 50 25C50 11.1929 38.8071 0 25 0C11.1929 0 0 11.1929 0 25C0 38.8071 11.1929 50 25 50Z" fill="url(#paint0_linear_1464_23993)"/>
<path d="M25 49.4242C38.489 49.4242 49.424 38.4892 49.424 25.0002C49.424 11.5112 38.489 0.576172 25 0.576172C11.511 0.576172 0.575989 11.5112 0.575989 25.0002C0.575989 38.4892 11.511 49.4242 25 49.4242Z" fill="url(#paint1_linear_1464_23993)"/>
<path d="M25.0001 48.8958C38.1973 48.8958 48.8958 38.1973 48.8958 25.0001C48.8958 11.8028 38.1973 1.10434 25.0001 1.10434C11.8028 1.10434 1.10431 11.8028 1.10431 25.0001C1.10431 38.1973 11.8028 48.8958 25.0001 48.8958Z" fill="url(#paint2_radial_1464_23993)"/>
<path d="M24.0007 47.6007C23.8544 47.5944 23.7398 47.4703 23.743 47.3239C23.7525 47.1775 23.8735 47.0629 24.0198 47.0693C24.1662 47.0757 24.2808 47.1998 24.2776 47.3462C24.2712 47.4894 24.1535 47.6039 24.0103 47.6039C24.0039 47.6039 24.0039 47.6039 24.0007 47.6007ZM27.7495 47.1934C27.7304 47.047 27.8322 46.9102 27.9786 46.8911C28.125 46.872 28.2586 46.9738 28.2809 47.1202C28.3 47.2666 28.195 47.4003 28.0518 47.4193C28.0391 47.4225 28.0263 47.4225 28.0136 47.4225C27.8831 47.4225 27.7654 47.3271 27.7495 47.1934ZM19.9783 47.0693C19.8351 47.0343 19.746 46.8943 19.7779 46.7479C19.8097 46.6047 19.9529 46.5124 20.0961 46.5442C20.2393 46.576 20.3316 46.7192 20.2997 46.8656C20.2711 46.9897 20.1597 47.0757 20.0388 47.0757C20.0197 47.0725 20.0006 47.0693 19.9783 47.0693ZM31.6669 46.3501C31.6223 46.2069 31.6955 46.0573 31.8387 46.0128C31.9787 45.9682 32.1315 46.0414 32.176 46.1846C32.2206 46.3246 32.1442 46.4742 32.0042 46.5219C31.9755 46.5315 31.9469 46.5347 31.9214 46.5347C31.8101 46.5347 31.705 46.4615 31.6669 46.3501ZM16.1214 45.8187C15.9846 45.7614 15.9209 45.6023 15.9814 45.4654C16.0387 45.3318 16.1946 45.2681 16.3314 45.3254C16.4683 45.3827 16.5319 45.5386 16.4715 45.6755C16.4301 45.7773 16.3314 45.8378 16.2264 45.8378C16.1914 45.8378 16.1532 45.8314 16.1214 45.8187ZM35.3678 44.8162C35.2978 44.6858 35.3456 44.5267 35.476 44.4535C35.6033 44.3835 35.7656 44.4312 35.8356 44.5617C35.9057 44.6889 35.8579 44.8512 35.7274 44.9213C35.6861 44.9467 35.6415 44.9531 35.6002 44.9531C35.5079 44.9531 35.4156 44.9022 35.3678 44.8162ZM12.5509 43.8934C12.4268 43.8106 12.3918 43.6452 12.4745 43.5211C12.5573 43.3969 12.7227 43.3651 12.8468 43.4447C12.971 43.5274 13.0028 43.6929 12.92 43.817C12.8691 43.8934 12.7832 43.9379 12.6973 43.9379C12.6464 43.9379 12.5954 43.922 12.5509 43.8934ZM38.7379 42.6427C38.6456 42.5282 38.6615 42.3595 38.7793 42.2704C38.8938 42.1781 39.0625 42.194 39.1548 42.3118C39.2471 42.4263 39.2311 42.595 39.1134 42.6873C39.0657 42.7287 39.0052 42.7446 38.9479 42.7446C38.8684 42.7446 38.7888 42.7096 38.7379 42.6427ZM9.37816 41.3667C9.26996 41.2648 9.26678 41.093 9.36861 40.988C9.47045 40.8798 9.64229 40.8798 9.7473 40.9784C9.85232 41.0802 9.8555 41.2521 9.75685 41.3539C9.70275 41.4112 9.63274 41.4367 9.56273 41.4367C9.4959 41.4398 9.42908 41.4144 9.37816 41.3667ZM41.6656 39.9092C41.5574 39.8105 41.5415 39.6419 41.6401 39.5337C41.7356 39.4223 41.9043 39.4095 42.0156 39.5082C42.127 39.6068 42.1397 39.7755 42.0411 39.8837C41.987 39.9442 41.917 39.976 41.8406 39.976C41.7801 39.976 41.7165 39.9505 41.6656 39.9092ZM6.70504 38.3148C6.61912 38.1939 6.64458 38.0284 6.76232 37.9393C6.88325 37.8534 7.04873 37.8789 7.13783 37.9998C7.22694 38.1207 7.1983 38.2862 7.08055 38.3753C7.03282 38.4103 6.97872 38.4262 6.92144 38.4262C6.8387 38.4262 6.75596 38.388 6.70504 38.3148ZM44.0618 36.6951C43.9345 36.6219 43.8932 36.4532 43.9696 36.3291C44.0459 36.205 44.2082 36.1604 44.3355 36.2368C44.4596 36.3132 44.5042 36.4787 44.4278 36.606C44.3801 36.6887 44.2878 36.7332 44.1987 36.7332C44.1509 36.7301 44.1032 36.7205 44.0618 36.6951ZM4.61747 34.8366C4.55382 34.7061 4.60792 34.5438 4.74158 34.4802C4.87523 34.4165 5.03435 34.4706 5.09799 34.6043C5.16164 34.738 5.10754 34.8971 4.9707 34.9607C4.93251 34.9766 4.89433 34.9862 4.85614 34.9862C4.75749 34.9894 4.6652 34.9321 4.61747 34.8366ZM45.8471 33.1023C45.7071 33.0513 45.6403 32.8954 45.688 32.7618C45.7421 32.6217 45.8948 32.5549 46.0317 32.6058C46.1717 32.6567 46.2417 32.8127 46.1908 32.9495C46.1494 33.0577 46.0508 33.1245 45.9394 33.1245C45.9076 33.1214 45.8789 33.1182 45.8471 33.1023ZM3.19181 31.0433C3.15044 30.9001 3.23317 30.7506 3.37638 30.7156C3.51958 30.6742 3.66915 30.7569 3.70415 30.9001C3.74552 31.0433 3.66278 31.1897 3.51958 31.2279C3.4973 31.2374 3.47185 31.2375 3.44639 31.2375C3.32864 31.2375 3.22363 31.1611 3.19181 31.0433ZM46.9577 29.2549C46.8113 29.2294 46.7159 29.0894 46.7413 28.9462C46.7668 28.7998 46.9068 28.7044 47.05 28.7298C47.1932 28.7553 47.2919 28.8953 47.2664 29.0385C47.2409 29.169 47.1296 29.2613 47.0023 29.2613C46.9864 29.2581 46.9704 29.2549 46.9577 29.2549ZM2.46306 27.0528C2.45352 26.9064 2.55853 26.7791 2.70492 26.7632C2.8513 26.7504 2.98177 26.8554 2.99769 27.005C3.01042 27.1514 2.90222 27.2819 2.75583 27.2978C2.74629 27.2978 2.73992 27.2978 2.73037 27.2978C2.59354 27.2946 2.47897 27.1896 2.46306 27.0528ZM47.0914 25.0002C47.0914 24.9906 47.0914 24.9811 47.0914 24.9747C47.0914 24.9652 47.0914 24.9588 47.0914 24.9493C47.0914 24.7997 47.2123 24.682 47.3587 24.6788C47.5051 24.6788 47.626 24.7997 47.626 24.9461C47.626 24.9556 47.626 24.962 47.626 24.9715C47.626 24.9811 47.626 24.9906 47.626 25.0002C47.626 25.1466 47.5051 25.2675 47.3587 25.2675C47.2091 25.2675 47.0914 25.1466 47.0914 25.0002ZM2.70492 23.2881C2.55853 23.2754 2.44715 23.1449 2.46306 22.9985C2.47579 22.8521 2.60308 22.7439 2.75265 22.7567C2.89904 22.7662 3.01042 22.8967 2.9945 23.0463C2.98177 23.1863 2.86721 23.2881 2.72719 23.2881C2.72083 23.2881 2.71128 23.2881 2.70492 23.2881ZM46.7286 21.0064C46.7031 20.86 46.7986 20.72 46.945 20.6946C47.0882 20.6691 47.2282 20.7646 47.2537 20.9109C47.2791 21.0542 47.1837 21.1942 47.0405 21.2196C47.0245 21.2228 47.0054 21.226 46.9895 21.226C46.8654 21.226 46.754 21.1337 46.7286 21.0064ZM3.36365 19.3325C3.22045 19.2943 3.13771 19.148 3.17271 19.0048C3.21408 18.8616 3.36047 18.7788 3.50049 18.817C3.64051 18.8584 3.72643 19.0048 3.68824 19.1448C3.65642 19.2657 3.54822 19.3421 3.43048 19.3421C3.4082 19.3453 3.38592 19.3421 3.36365 19.3325ZM45.6721 17.1909C45.618 17.0508 45.688 16.9013 45.828 16.8472C45.968 16.7931 46.1208 16.8631 46.1717 17.0031C46.2226 17.1431 46.1526 17.2959 46.0158 17.3468C45.9839 17.3563 45.9521 17.3659 45.9203 17.3659C45.8121 17.3659 45.7103 17.2991 45.6721 17.1909ZM4.72248 15.5647C4.58883 15.5011 4.53155 15.3388 4.59837 15.2051C4.66202 15.0715 4.82432 15.0174 4.95479 15.081C5.08844 15.1447 5.14573 15.3038 5.0789 15.4374C5.03116 15.5329 4.93888 15.5902 4.83704 15.5902C4.79886 15.5902 4.75749 15.5806 4.72248 15.5647ZM43.9441 13.6299C43.8709 13.5026 43.9091 13.3403 44.0364 13.2607C44.1637 13.1844 44.3291 13.2257 44.4055 13.353C44.4819 13.4771 44.4405 13.6426 44.3132 13.719C44.2719 13.7445 44.2241 13.7572 44.1764 13.7572C44.0809 13.7572 43.995 13.7126 43.9441 13.6299ZM6.73687 12.096C6.61594 12.0101 6.59048 11.8414 6.67958 11.7205C6.76551 11.6028 6.93099 11.5773 7.05191 11.6632C7.17284 11.7523 7.1983 11.9178 7.10919 12.0388C7.05828 12.1119 6.97554 12.1469 6.8928 12.1469C6.8387 12.1469 6.78142 12.131 6.73687 12.096ZM41.6083 10.4317C41.5097 10.3235 41.5224 10.1517 41.6338 10.0562C41.742 9.95754 41.9138 9.97027 42.0093 10.0816C42.1079 10.193 42.0952 10.3617 41.9838 10.4572C41.9329 10.5017 41.8693 10.524 41.8088 10.524C41.7324 10.524 41.6624 10.4922 41.6083 10.4317ZM9.33361 9.04422C9.23177 8.93603 9.23496 8.76736 9.34315 8.66553C9.45135 8.5637 9.61683 8.56688 9.71866 8.67508C9.82368 8.78328 9.81731 8.94876 9.7123 9.05377C9.6582 9.1015 9.59137 9.12696 9.52454 9.12696C9.45453 9.12696 9.38771 9.09832 9.33361 9.04422ZM38.7411 7.69812C38.6233 7.60583 38.6042 7.44035 38.6997 7.32261C38.792 7.20805 38.9575 7.18895 39.072 7.28124C39.1866 7.37353 39.2057 7.539 39.1134 7.65675C39.0593 7.72358 38.9829 7.75858 38.9065 7.75858C38.8493 7.75858 38.7888 7.73949 38.7411 7.69812ZM12.4331 6.50158C12.3504 6.37747 12.3854 6.21199 12.5095 6.13244C12.6336 6.0497 12.7991 6.0847 12.8819 6.20881C12.9614 6.33292 12.9296 6.4984 12.8055 6.57796C12.7609 6.60978 12.7068 6.62251 12.6559 6.62251C12.5668 6.62251 12.4841 6.58114 12.4331 6.50158ZM35.4347 5.52144C35.3042 5.45143 35.2565 5.28913 35.3265 5.16184C35.3965 5.03137 35.5556 4.98363 35.6861 5.05364C35.8166 5.12365 35.8643 5.28595 35.7943 5.41324C35.7465 5.50553 35.6543 5.55326 35.5588 5.55326C35.5174 5.55326 35.4729 5.54371 35.4347 5.52144ZM15.9337 4.55402C15.8732 4.41719 15.9368 4.26126 16.0737 4.20079C16.2105 4.14351 16.3664 4.20716 16.4237 4.34399C16.4842 4.47765 16.4205 4.63358 16.2837 4.69405C16.2487 4.70996 16.2137 4.71632 16.1787 4.71632C16.0769 4.71632 15.9782 4.65268 15.9337 4.55402ZM31.791 3.96849C31.6509 3.92393 31.5714 3.77437 31.6159 3.63116C31.6605 3.49114 31.8101 3.41477 31.9533 3.45932C32.0933 3.50387 32.1697 3.65344 32.1251 3.79664C32.0901 3.90802 31.9851 3.98121 31.8705 3.98121C31.8451 3.9844 31.8164 3.98121 31.791 3.96849ZM19.7269 3.2652C19.6951 3.122 19.7842 2.9788 19.9274 2.94379C20.0706 2.91197 20.2138 3.00425 20.2488 3.14427C20.2807 3.28748 20.1884 3.43386 20.0483 3.46568C20.0261 3.47205 20.007 3.47205 19.9879 3.47205C19.867 3.47205 19.7556 3.38613 19.7269 3.2652ZM27.9277 3.09972C27.7813 3.07745 27.6795 2.94379 27.6986 2.79741C27.7176 2.65102 27.8513 2.54919 27.9977 2.56828C28.1441 2.59056 28.2459 2.72421 28.2268 2.8706C28.2109 3.00425 28.0963 3.09972 27.9627 3.09972C27.95 3.09972 27.9404 3.09972 27.9277 3.09972ZM23.6921 2.67648C23.6825 2.53009 23.8003 2.4028 23.9466 2.39962C24.093 2.39007 24.2203 2.50782 24.2235 2.6542C24.233 2.80059 24.1185 2.92788 23.9689 2.93106C23.9657 2.93424 23.9594 2.93424 23.9594 2.93424C23.8162 2.93424 23.6984 2.81968 23.6921 2.67648Z" fill="url(#paint3_linear_1464_23993)"/>
<path d="M25 45.5288C36.3378 45.5288 45.5289 36.3377 45.5289 24.9999C45.5289 13.6621 36.3378 4.47104 25 4.47104C13.6622 4.47104 4.47113 13.6621 4.47113 24.9999C4.47113 36.3377 13.6622 45.5288 25 45.5288Z" fill="url(#paint4_linear_1464_23993)"/>
<path d="M25 45.1149C36.1093 45.1149 45.1152 36.109 45.1152 24.9997C45.1152 13.8903 36.1093 4.88446 25 4.88446C13.8906 4.88446 4.88477 13.8903 4.88477 24.9997C4.88477 36.109 13.8906 45.1149 25 45.1149Z" fill="url(#paint5_linear_1464_23993)"/>
<path d="M40.9878 24.9998C40.9878 33.8307 33.8309 40.9876 25.0001 40.9876C16.1692 40.9876 9.01227 33.8275 9.01227 24.9998C9.01227 16.169 16.1692 9.01205 25.0001 9.01205C33.8309 9.01205 40.9878 16.169 40.9878 24.9998Z" fill="url(#paint6_linear_1464_23993)"/>
<path d="M5.94769 24.9996C5.94769 14.4758 14.4762 5.94727 25 5.94727C35.5238 5.94727 44.0523 14.4758 44.0523 24.9996C44.0523 35.5234 35.5238 44.0519 25 44.0519C14.4762 44.0519 5.94769 35.5202 5.94769 24.9996Z" fill="url(#paint7_radial_1464_23993)"/>
<path d="M25 7.13135C15.1317 7.13135 7.13147 15.1316 7.13147 24.9999C7.13147 34.8681 15.1317 42.8684 25 42.8684C34.8682 42.8684 42.8685 34.8681 42.8685 24.9999C42.8685 15.1316 34.8682 7.13135 25 7.13135ZM25 42.4165C15.3799 42.4165 7.58335 34.6199 7.58335 24.9999C7.58335 15.3798 15.3799 7.58323 25 7.58323C34.62 7.58323 42.4166 15.3798 42.4166 24.9999C42.4166 34.6167 34.6168 42.4165 25 42.4165Z" fill="url(#paint8_linear_1464_23993)"/>
<path d="M13.6297 40.288C18.645 28.3258 28.3764 18.6803 40.3959 13.7796C36.9304 9.03164 31.3264 5.94482 25 5.94482C14.4762 5.94482 5.94769 14.4733 5.94769 24.9971C5.94769 31.2599 8.96768 36.8161 13.6297 40.288Z" fill="white" fill-opacity="0.15"/>
<path d="M26.2728 13.2896L25.2608 12.6914L24.252 13.2896L24.5098 12.144L23.6283 11.3675L24.7962 11.2593L25.2608 10.1805L25.7254 11.2593L26.8933 11.3675L26.015 12.144L26.2728 13.2896Z" fill="url(#paint9_linear_1464_23993)"/>
<path d="M29.0286 13.0417L28.3571 12.644L27.6857 13.0417L27.8575 12.2812L27.272 11.7656L28.0485 11.6925L28.3571 10.9764L28.6658 11.6925L29.4423 11.7656L28.8568 12.2812L29.0286 13.0417Z" fill="url(#paint10_linear_1464_23993)"/>
<path d="M22.6991 13.0417L22.0276 12.644L21.3593 13.0417L21.528 12.2812L20.9424 11.7656L21.7189 11.6925L22.0276 10.9764L22.3363 11.6925L23.1159 11.7656L22.5304 12.2812L22.6991 13.0417Z" fill="url(#paint11_linear_1464_23993)"/>
<path d="M26.1328 36.8383L25.124 37.4366L24.112 36.8383L24.3729 37.9839L23.4915 38.7604L24.6594 38.8686L25.124 39.9474L25.5886 38.8686L26.7565 38.7604L25.875 37.9839L26.1328 36.8383Z" fill="url(#paint12_linear_1464_23993)"/>
<path d="M22.699 37.0865L22.0275 37.4843L21.3561 37.0865L21.5279 37.8471L20.9424 38.3626L21.7189 38.4358L22.0275 39.1519L22.3362 38.4358L23.1159 38.3626L22.5303 37.8471L22.699 37.0865Z" fill="url(#paint13_linear_1464_23993)"/>
<path d="M28.8568 37.8471L29.0254 37.0865L28.3571 37.4843L27.6857 37.0865L27.8575 37.8471L27.2688 38.3626L28.0485 38.4358L28.3571 39.1519L28.6658 38.4358L29.4423 38.3626L28.8568 37.8471Z" fill="url(#paint14_linear_1464_23993)"/>
<path d="M19.8796 31.1194H17.4452L17.1842 22.5622L12.92 31.1194H10.4378L9.99866 19.4181H12.3535L12.4586 27.6093L16.4746 19.4181H19.0841L19.3546 27.5202L23.2115 19.4181H25.5409L19.8796 31.1194Z" fill="url(#paint15_linear_1464_23993)"/>
<path d="M24.0803 31.1195L26.5307 19.4182H28.9333L26.4925 31.1195H24.0803Z" fill="url(#paint16_linear_1464_23993)"/>
<path d="M38.0823 31.1195H35.8388L32.6788 23.256L31.0335 31.1195H28.79L31.2308 19.4182H33.4807L36.6503 27.2498L38.286 19.4182H40.5199L38.0823 31.1195Z" fill="url(#paint17_linear_1464_23993)"/>
<defs>
<linearGradient id="paint0_linear_1464_23993" x1="5.57946" y1="5.5793" x2="53.8084" y2="53.8083" gradientUnits="userSpaceOnUse">
<stop stop-color="#EEBE47"/>
<stop offset="0.1204" stop-color="#F8DB77"/>
<stop offset="0.2097" stop-color="#FFEE96"/>
<stop offset="0.4462" stop-color="#A2621E"/>
<stop offset="0.6667" stop-color="#EEA54C"/>
<stop offset="1" stop-color="#EEBE47"/>
</linearGradient>
<linearGradient id="paint1_linear_1464_23993" x1="43.9721" y1="43.9722" x2="-3.14584" y2="-3.14577" gradientUnits="userSpaceOnUse">
<stop stop-color="#EEBE47"/>
<stop offset="0.1204" stop-color="#F8DB77"/>
<stop offset="0.2097" stop-color="#FFEE96"/>
<stop offset="0.4462" stop-color="#A2621E"/>
<stop offset="0.6667" stop-color="#EEA54C"/>
<stop offset="1" stop-color="#EEBE47"/>
</linearGradient>
<radialGradient id="paint2_radial_1464_23993" cx="0" cy="0" r="1" gradientUnits="userSpaceOnUse" gradientTransform="translate(16.8283 8.0336) scale(46.2311)">
<stop stop-color="#2C3C4F"/>
<stop offset="0.5161" stop-color="#0D1D30"/>
<stop offset="1" stop-color="#060D29"/>
</radialGradient>
<linearGradient id="paint3_linear_1464_23993" x1="8.6645" y1="6.608" x2="45.7326" y2="48.2178" gradientUnits="userSpaceOnUse">
<stop stop-color="#EEBE47"/>
<stop offset="0.1204" stop-color="#F8DB77"/>
<stop offset="0.2097" stop-color="#FFEE96"/>
<stop offset="0.4462" stop-color="#A2621E"/>
<stop offset="0.6667" stop-color="#EEA54C"/>
<stop offset="1" stop-color="#EEBE47"/>
</linearGradient>
<linearGradient id="paint4_linear_1464_23993" x1="40.679" y1="38.0394" x2="9.69301" y2="12.2694" gradientUnits="userSpaceOnUse">
<stop stop-color="#EEBE47"/>
<stop offset="0.1204" stop-color="#F8DB77"/>
<stop offset="0.2097" stop-color="#FFEE96"/>
<stop offset="0.4462" stop-color="#A2621E"/>
<stop offset="0.6667" stop-color="#EEA54C"/>
<stop offset="1" stop-color="#EEBE47"/>
</linearGradient>
<linearGradient id="paint5_linear_1464_23993" x1="9.63553" y1="12.2213" x2="39.9978" y2="37.4726" gradientUnits="userSpaceOnUse">
<stop stop-color="#EEBE47"/>
<stop offset="0.1204" stop-color="#F8DB77"/>
<stop offset="0.2097" stop-color="#FFEE96"/>
<stop offset="0.4462" stop-color="#A2621E"/>
<stop offset="0.6667" stop-color="#EEA54C"/>
<stop offset="1" stop-color="#EEBE47"/>
</linearGradient>
<linearGradient id="paint6_linear_1464_23993" x1="12.7879" y1="14.8432" x2="36.9205" y2="34.9134" gradientUnits="userSpaceOnUse">
<stop stop-color="#EEBE47"/>
<stop offset="0.1204" stop-color="#F8DB77"/>
<stop offset="0.2097" stop-color="#FFEE96"/>
<stop offset="0.4462" stop-color="#A2621E"/>
<stop offset="0.6667" stop-color="#EEA54C"/>
<stop offset="1" stop-color="#EEBE47"/>
</linearGradient>
<radialGradient id="paint7_radial_1464_23993" cx="0" cy="0" r="1" gradientUnits="userSpaceOnUse" gradientTransform="translate(36.9784 42.6806) scale(40.3683)">
<stop offset="0.0591" stop-color="#2C3C4F"/>
<stop offset="0.5161" stop-color="#0D1D30"/>
<stop offset="1" stop-color="#060D29"/>
</radialGradient>
<linearGradient id="paint8_linear_1464_23993" x1="11.351" y1="13.6482" x2="38.3233" y2="36.0801" gradientUnits="userSpaceOnUse">
<stop stop-color="#EEBE47"/>
<stop offset="0.1204" stop-color="#F8DB77"/>
<stop offset="0.2097" stop-color="#FFEE96"/>
<stop offset="0.4462" stop-color="#A2621E"/>
<stop offset="0.6667" stop-color="#EEA54C"/>
<stop offset="1" stop-color="#EEBE47"/>
</linearGradient>
<linearGradient id="paint9_linear_1464_23993" x1="23.4763" y1="9.71676" x2="31.5119" y2="19.7247" gradientUnits="userSpaceOnUse">
<stop stop-color="#EEBE47"/>
<stop offset="0.1204" stop-color="#F8DB77"/>
<stop offset="0.2097" stop-color="#FFEE96"/>
<stop offset="0.4462" stop-color="#A2621E"/>
<stop offset="0.6667" stop-color="#EEA54C"/>
<stop offset="1" stop-color="#EEBE47"/>
</linearGradient>
<linearGradient id="paint10_linear_1464_23993" x1="25.2579" y1="8.28649" x2="33.2935" y2="18.2945" gradientUnits="userSpaceOnUse">
<stop stop-color="#EEBE47"/>
<stop offset="0.1204" stop-color="#F8DB77"/>
<stop offset="0.2097" stop-color="#FFEE96"/>
<stop offset="0.4462" stop-color="#A2621E"/>
<stop offset="0.6667" stop-color="#EEA54C"/>
<stop offset="1" stop-color="#EEBE47"/>
</linearGradient>
<linearGradient id="paint11_linear_1464_23993" x1="21.4107" y1="11.3758" x2="29.4464" y2="21.3839" gradientUnits="userSpaceOnUse">
<stop stop-color="#EEBE47"/>
<stop offset="0.1204" stop-color="#F8DB77"/>
<stop offset="0.2097" stop-color="#FFEE96"/>
<stop offset="0.4462" stop-color="#A2621E"/>
<stop offset="0.6667" stop-color="#EEA54C"/>
<stop offset="1" stop-color="#EEBE47"/>
</linearGradient>
<linearGradient id="paint12_linear_1464_23993" x1="21.4229" y1="34.0099" x2="31.1022" y2="44.8331" gradientUnits="userSpaceOnUse">
<stop stop-color="#EEBE47"/>
<stop offset="0.1204" stop-color="#F8DB77"/>
<stop offset="0.2097" stop-color="#FFEE96"/>
<stop offset="0.4462" stop-color="#A2621E"/>
<stop offset="0.6667" stop-color="#EEA54C"/>
<stop offset="1" stop-color="#EEBE47"/>
</linearGradient>
<linearGradient id="paint13_linear_1464_23993" x1="19.7991" y1="35.4632" x2="29.4772" y2="46.2849" gradientUnits="userSpaceOnUse">
<stop stop-color="#EEBE47"/>
<stop offset="0.1204" stop-color="#F8DB77"/>
<stop offset="0.2097" stop-color="#FFEE96"/>
<stop offset="0.4462" stop-color="#A2621E"/>
<stop offset="0.6667" stop-color="#EEA54C"/>
<stop offset="1" stop-color="#EEBE47"/>
</linearGradient>
<linearGradient id="paint14_linear_1464_23993" x1="23.3145" y1="32.3188" x2="32.9928" y2="43.1408" gradientUnits="userSpaceOnUse">
<stop stop-color="#EEBE47"/>
<stop offset="0.1204" stop-color="#F8DB77"/>
<stop offset="0.2097" stop-color="#FFEE96"/>
<stop offset="0.4462" stop-color="#A2621E"/>
<stop offset="0.6667" stop-color="#EEA54C"/>
<stop offset="1" stop-color="#EEBE47"/>
</linearGradient>
<linearGradient id="paint15_linear_1464_23993" x1="9.99913" y1="25.2673" x2="25.5404" y2="25.2673" gradientUnits="userSpaceOnUse">
<stop stop-color="#EEBE47"/>
<stop offset="0.1204" stop-color="#F8DB77"/>
<stop offset="0.2097" stop-color="#FFEE96"/>
<stop offset="0.4462" stop-color="#A2621E"/>
<stop offset="0.6667" stop-color="#EEA54C"/>
<stop offset="1" stop-color="#EEBE47"/>
</linearGradient>
<linearGradient id="paint16_linear_1464_23993" x1="24.0799" y1="25.2674" x2="28.9328" y2="25.2674" gradientUnits="userSpaceOnUse">
<stop stop-color="#EEBE47"/>
<stop offset="0.1204" stop-color="#F8DB77"/>
<stop offset="0.2097" stop-color="#FFEE96"/>
<stop offset="0.4462" stop-color="#A2621E"/>
<stop offset="0.6667" stop-color="#EEA54C"/>
<stop offset="1" stop-color="#EEBE47"/>
</linearGradient>
<linearGradient id="paint17_linear_1464_23993" x1="28.7896" y1="25.2674" x2="40.5234" y2="25.2674" gradientUnits="userSpaceOnUse">
<stop stop-color="#EEBE47"/>
<stop offset="0.1204" stop-color="#F8DB77"/>
<stop offset="0.2097" stop-color="#FFEE96"/>
<stop offset="0.4462" stop-color="#A2621E"/>
<stop offset="0.6667" stop-color="#EEA54C"/>
<stop offset="1" stop-color="#EEBE47"/>
</linearGradient>
</defs>
</svg>
