<?xml version="1.0" encoding="UTF-8"?>
<!DOCTYPE svg PUBLIC "-//W3C//DTD SVG 1.1//EN" "http://www.w3.org/Graphics/SVG/1.1/DTD/svg11.dtd">
<svg xmlns="http://www.w3.org/2000/svg" version="1.1" width="1200px" height="1200px" style="shape-rendering:geometricPrecision; text-rendering:geometricPrecision; image-rendering:optimizeQuality; fill-rule:evenodd; clip-rule:evenodd" xmlns:xlink="http://www.w3.org/1999/xlink">
<g><path style="opacity:0.996" fill="#741a2f" d="M 550.5,-0.5 C 559.5,-0.5 568.5,-0.5 577.5,-0.5C 600.176,4.42783 618.676,16.0945 633,34.5C 662.19,7.21415 695.69,0.380816 733.5,14C 757.027,22.859 772.194,39.359 779,63.5C 814.125,43.543 847.959,45.3763 880.5,69C 897.377,84.7491 907.71,104.082 911.5,127C 920.096,126.12 928.763,125.62 937.5,125.5C 978.835,126.023 1006.33,145.69 1020,184.5C 1023.37,197.366 1024.21,210.366 1022.5,223.5C 1068.75,225.606 1098.92,248.606 1113,292.5C 1117.93,311.428 1115.77,329.428 1106.5,346.5C 1155.53,362.555 1177.36,396.221 1172,447.5C 1169,461.67 1163.16,474.503 1154.5,486C 1171.15,496.316 1183.98,510.15 1193,527.5C 1195.3,533.571 1197.47,539.571 1199.5,545.5C 1199.5,557.5 1199.5,569.5 1199.5,581.5C 1195.52,596.788 1188.35,610.455 1178,622.5C 1173.65,626.682 1169.48,631.015 1165.5,635.5C 1195.61,668.422 1200.44,704.755 1180,744.5C 1168.5,760 1154,771.833 1136.5,780C 1146.26,792.598 1151.26,806.932 1151.5,823C 1149.37,862.742 1130.37,890.742 1094.5,907C 1086.66,909.628 1078.66,911.628 1070.5,913C 1081.64,954.606 1069.64,987.606 1034.5,1012C 1015.35,1021.75 995.02,1025.91 973.5,1024.5C 973.472,1059.41 958.806,1085.91 929.5,1104C 904.26,1115.78 878.593,1116.62 852.5,1106.5C 847.006,1135.83 830.339,1156 802.5,1167C 770.116,1179.27 739.783,1175.44 711.5,1155.5C 698.15,1178.2 678.817,1192.87 653.5,1199.5C 641.833,1199.5 630.167,1199.5 618.5,1199.5C 597.623,1193.72 580.289,1182.39 566.5,1165.5C 531.815,1196.44 493.815,1200.94 452.5,1179C 436.628,1169.3 426.295,1155.46 421.5,1137.5C 411.389,1141.55 401.055,1145.05 390.5,1148C 334.238,1153.42 300.238,1128.42 288.5,1073C 279.893,1073.82 271.226,1074.32 262.5,1074.5C 221.536,1074 194.036,1054.67 180,1016.5C 176.603,1003.1 175.769,989.603 177.5,976C 126.61,973.324 95.7767,947.157 85,897.5C 82.8329,881.663 85.6662,866.829 93.5,853C 46.0976,838.259 23.9309,806.092 27,756.5C 29.9421,741.119 35.7755,726.953 44.5,714C 32.9493,705.633 22.7826,695.8 14,684.5C 6.89972,673.681 2.06639,662.014 -0.5,649.5C -0.5,640.5 -0.5,631.5 -0.5,622.5C 4.98582,599.544 16.6525,580.21 34.5,564.5C 7.72872,536.073 0.895386,503.406 14,466.5C 19.5539,453.949 27.7205,443.449 38.5,435C 46.3299,429.584 54.3299,424.417 62.5,419.5C 47.2983,396.705 44.4649,372.372 54,346.5C 67.1768,312.161 92.0101,292.494 128.5,287.5C 118.111,246.482 129.778,213.649 163.5,189C 183.152,178.436 204.152,173.936 226.5,175.5C 226.499,136.633 243.832,108.8 278.5,92C 292.407,86.8771 306.74,85.2104 321.5,87C 330.547,88.6791 339.547,90.5124 348.5,92.5C 350.923,73.5607 359.59,58.0607 374.5,46C 412.024,19.306 449.858,18.806 488,44.5C 502.355,20.2848 523.189,5.28485 550.5,-0.5 Z"/></g>
<g><path style="opacity:1" fill="#fefdfd" d="M 573.5,128.5 C 740.531,124.781 875.364,188.114 978,318.5C 1066.03,441.353 1091.7,576.353 1055,723.5C 1013.94,861.888 928.771,963.054 799.5,1027C 667.297,1085.93 534.963,1086.26 402.5,1028C 269.562,963.045 183.062,859.212 143,716.5C 106.48,555.255 141.48,411.921 248,286.5C 335.608,191.449 444.108,138.783 573.5,128.5 Z"/></g>
<g><path style="opacity:1" fill="#741a2f" d="M 489.5,170.5 C 491.493,204.484 492.16,238.817 491.5,273.5C 458.165,273.333 424.832,273.5 391.5,274C 290.574,335.267 228.74,424.1 206,540.5C 191.735,638.649 212.235,728.649 267.5,810.5C 256.167,811.167 244.833,811.833 233.5,812.5C 242.03,827.717 251.696,842.217 262.5,856C 276.833,856.333 291.167,856.667 305.5,857C 313.697,865.531 322.197,873.698 331,881.5C 331.333,897.167 331.667,912.833 332,928.5C 345.805,939.804 360.305,950.137 375.5,959.5C 376.333,945.178 376.833,930.845 377,916.5C 397.546,930.359 419.379,942.026 442.5,951.5C 449.09,938.653 455.423,925.653 461.5,912.5C 431.789,898.815 403.789,882.315 377.5,863C 376.594,861.301 376.261,859.467 376.5,857.5C 524.001,857.167 671.334,857.5 818.5,858.5C 784.016,889.173 744.516,911.507 700,925.5C 705.392,938.627 711.392,951.627 718,964.5C 720.147,965.476 722.314,965.309 724.5,964C 786.685,942.107 839.352,906.44 882.5,857C 895.18,856.833 907.846,856.333 920.5,855.5C 931.304,841.701 941.304,827.368 950.5,812.5C 939.5,811.833 928.5,811.167 917.5,810.5C 960.971,738.045 977.971,659.712 968.5,575.5C 948.497,575.667 928.497,575.5 908.5,575C 876.696,571.202 853.196,555.369 838,527.5C 828.45,501.914 832.784,478.914 851,458.5C 864.959,445.101 881.459,436.268 900.5,432C 919.143,430.929 937.81,430.095 956.5,429.5C 948.628,414.641 939.961,400.308 930.5,386.5C 799.168,385.5 667.835,385.167 536.5,385.5C 536.5,363.167 536.5,340.833 536.5,318.5C 647.169,318.833 757.835,318.5 868.5,317.5C 868.376,316.893 868.043,316.56 867.5,316.5C 848.922,300.872 829.255,286.706 808.5,274C 717.834,273.5 627.167,273.333 536.5,273.5C 536.5,235.833 536.5,198.167 536.5,160.5C 655.106,145.652 763.106,172.485 860.5,241C 979.249,331.492 1040.25,451.825 1043.5,602C 1040.01,735.277 989.014,846.277 890.5,935C 783.525,1024.09 660.858,1058.09 522.5,1037C 402.592,1013.33 307.092,952.167 236,853.5C 161.445,741.898 139.445,620.565 170,489.5C 203.344,369.862 273.178,278.362 379.5,215C 414.081,194.974 450.747,180.141 489.5,170.5 Z"/></g>
<g><path style="opacity:1" fill="#ddc7cc" d="M 489.5,170.5 C 490.209,169.596 491.209,169.263 492.5,169.5C 492.832,204.337 492.498,239.004 491.5,273.5C 492.16,238.817 491.493,204.484 489.5,170.5 Z"/></g>
<g><path style="opacity:1" fill="#ab7581" d="M 867.5,316.5 C 868.043,316.56 868.376,316.893 868.5,317.5C 757.835,318.5 647.169,318.833 536.5,318.5C 646.833,317.833 757.167,317.167 867.5,316.5 Z"/></g>
<g><path style="opacity:1" fill="#741a2f" d="M 404.5,318.5 C 433.5,318.5 462.5,318.5 491.5,318.5C 491.5,340.833 491.5,363.167 491.5,385.5C 436.664,385.832 381.997,385.499 327.5,384.5C 349.88,358.505 375.547,336.505 404.5,318.5 Z"/></g>
<g><path style="opacity:1" fill="#ccaab2" d="M 404.5,318.5 C 433.662,317.502 462.995,317.169 492.5,317.5C 492.831,340.339 492.497,363.006 491.5,385.5C 491.5,363.167 491.5,340.833 491.5,318.5C 462.5,318.5 433.5,318.5 404.5,318.5 Z"/></g>
<g><path style="opacity:1" fill="#d0b2b9" d="M 327.5,384.5 C 381.997,385.499 436.664,385.832 491.5,385.5C 436.665,386.831 381.665,386.831 326.5,385.5C 326.624,384.893 326.957,384.56 327.5,384.5 Z"/></g>
<g><path style="opacity:1" fill="#741a2f" d="M 293.5,430.5 C 306.167,430.5 318.833,430.5 331.5,430.5C 331.5,557.5 331.5,684.5 331.5,811.5C 328.813,811.664 326.146,811.497 323.5,811C 253.872,724.637 231.372,627.137 256,518.5C 264.397,487.378 276.897,458.045 293.5,430.5 Z"/></g>
<g><path style="opacity:1" fill="#741a2f" d="M 376.5,430.5 C 414.833,430.5 453.167,430.5 491.5,430.5C 491.5,478.833 491.5,527.167 491.5,575.5C 453.167,575.5 414.833,575.5 376.5,575.5C 376.5,527.167 376.5,478.833 376.5,430.5 Z"/></g>
<g><path style="opacity:1" fill="#741a2f" d="M 815.5,573.5 C 722.668,574.499 629.668,574.833 536.5,574.5C 536.5,526.5 536.5,478.5 536.5,430.5C 629.834,430.333 723.167,430.5 816.5,431C 783.428,471.099 779.594,513.932 805,559.5C 808.332,564.327 811.832,568.993 815.5,573.5 Z"/></g>
<g><path style="opacity:1" fill="#a26674" d="M 815.5,573.5 C 816.043,573.56 816.376,573.893 816.5,574.5C 723.001,575.832 629.668,575.832 536.5,574.5C 629.668,574.833 722.668,574.499 815.5,573.5 Z"/></g>
<g><path style="opacity:1" fill="#741a2f" d="M 376.5,619.5 C 414.833,619.5 453.167,619.5 491.5,619.5C 491.5,683.5 491.5,747.5 491.5,811.5C 453.167,811.5 414.833,811.5 376.5,811.5C 376.5,747.5 376.5,683.5 376.5,619.5 Z"/></g>
<g><path style="opacity:1" fill="#741a2f" d="M 536.5,619.5 C 666.5,619.5 796.5,619.5 926.5,619.5C 926.456,690.296 905.456,753.962 863.5,810.5C 754.502,811.5 645.502,811.833 536.5,811.5C 536.5,747.5 536.5,683.5 536.5,619.5 Z"/></g>
<g><path style="opacity:1" fill="#be949e" d="M 267.5,810.5 C 268.043,810.56 268.376,810.893 268.5,811.5C 256.852,812.499 245.186,812.832 233.5,812.5C 244.833,811.833 256.167,811.167 267.5,810.5 Z"/></g>
<g><path style="opacity:1" fill="#bd929c" d="M 917.5,810.5 C 928.5,811.167 939.5,811.833 950.5,812.5C 939.147,812.832 927.814,812.499 916.5,811.5C 916.624,810.893 916.957,810.56 917.5,810.5 Z"/></g>
<g><path style="opacity:1" fill="#86384a" d="M 376.5,857.5 C 524.333,856.334 672.333,856.167 820.5,857C 819.956,857.717 819.289,858.217 818.5,858.5C 671.334,857.5 524.001,857.167 376.5,857.5 Z"/></g>
</svg>
