<?xml version="1.0" encoding="UTF-8"?>
<!DOCTYPE svg PUBLIC "-//W3C//DTD SVG 1.1//EN" "http://www.w3.org/Graphics/SVG/1.1/DTD/svg11.dtd">
<svg xmlns="http://www.w3.org/2000/svg" version="1.1" width="1200px" height="1421px" style="shape-rendering:geometricPrecision; text-rendering:geometricPrecision; image-rendering:optimizeQuality; fill-rule:evenodd; clip-rule:evenodd" xmlns:xlink="http://www.w3.org/1999/xlink">
<g><path style="opacity:0.995" fill="#f2b129" d="M 332.5,11.5 C 333.552,11.3505 334.552,11.5172 335.5,12C 348.167,24.6667 360.833,37.3333 373.5,50C 427.382,91.4173 488.382,115.417 556.5,122C 639.222,130.988 717.222,115.988 790.5,77C 800.338,70.9154 810.004,64.582 819.5,58C 835.916,43.2556 852.083,28.089 868,12.5C 958.434,78.6339 1048.6,145.134 1138.5,212C 1155.62,224.785 1172.45,237.952 1189,251.5C 1192.12,413.208 1171.79,571.875 1128,727.5C 1074.42,913.758 982.417,1077.42 852,1218.5C 791.788,1282.09 724.622,1336.59 650.5,1382C 633.505,1392.25 615.672,1400.75 597,1407.5C 565.558,1393.37 535.724,1376.53 507.5,1357C 402.249,1283.08 313.082,1193.25 240,1087.5C 137.342,935.29 70.0089,768.29 38,586.5C 17.8117,474.052 9.14502,360.719 12,246.5C 118.634,167.779 225.468,89.4457 332.5,11.5 Z"/></g>
<g><path style="opacity:1" fill="#113f78" d="M 326.5,84.5 C 393.735,140.66 471.402,172.16 559.5,179C 652.053,187.106 739.053,169.106 820.5,125C 839.732,113.885 857.732,101.052 874.5,86.5C 961.011,149.923 1047.34,213.589 1133.5,277.5C 1135.46,451.484 1107.63,620.484 1050,784.5C 988.307,956.413 891.14,1104.58 758.5,1229C 709.348,1274.33 655.515,1313.16 597,1345.5C 539.133,1313.15 485.966,1274.31 437.5,1229C 307.622,1106.18 212.122,960.352 151,791.5C 102.299,653.992 74.632,512.326 68,366.5C 66.7819,335.841 66.4486,305.174 67,274.5C 153.682,211.303 240.182,147.97 326.5,84.5 Z"/></g>
<g><path style="opacity:1" fill="#edaf2b" d="M 841.5,169.5 C 849.5,168.833 857.5,168.167 865.5,167.5C 867.234,159.557 869.734,151.89 873,144.5C 875.806,152.416 878.306,160.416 880.5,168.5C 888.507,168.334 896.507,168.5 904.5,169C 897.76,173.699 891.427,178.865 885.5,184.5C 887.731,191.692 890.064,198.859 892.5,206C 892.167,206.5 891.833,207 891.5,207.5C 885.421,203.044 879.254,198.71 873,194.5C 866.667,198.833 860.333,203.167 854,207.5C 855.141,199.443 857.307,191.609 860.5,184C 854.29,178.951 847.957,174.117 841.5,169.5 Z"/></g>
<g><path style="opacity:1" fill="#edaf2b" d="M 335.5,167.5 C 343.167,168.167 350.833,168.833 358.5,169.5C 352.082,174.036 346.082,179.036 340.5,184.5C 343.412,192.388 345.579,200.388 347,208.5C 340.588,203.711 334.088,199.044 327.5,194.5C 320.912,199.044 314.412,203.711 308,208.5C 309.354,201.423 311.354,194.423 314,187.5C 314.667,185.833 314.667,184.167 314,182.5C 308.289,177.949 302.456,173.616 296.5,169.5C 304.167,168.833 311.833,168.167 319.5,167.5C 322.134,159.937 324.8,152.27 327.5,144.5C 330.571,152.046 333.237,159.713 335.5,167.5 Z"/></g>
<g><path style="opacity:1" fill="#5b645f" d="M 319.5,167.5 C 311.833,168.167 304.167,168.833 296.5,169.5C 295.957,169.44 295.624,169.107 295.5,168.5C 303.472,167.502 311.472,167.169 319.5,167.5 Z"/></g>
<g><path style="opacity:1" fill="#5e665e" d="M 335.5,167.5 C 343.528,167.169 351.528,167.502 359.5,168.5C 359.376,169.107 359.043,169.44 358.5,169.5C 350.833,168.833 343.167,168.167 335.5,167.5 Z"/></g>
<g><path style="opacity:1" fill="#5d655e" d="M 865.5,167.5 C 857.5,168.167 849.5,168.833 841.5,169.5C 840.957,169.44 840.624,169.107 840.5,168.5C 848.807,167.502 857.14,167.169 865.5,167.5 Z"/></g>
<g><path style="opacity:1" fill="#ecae2c" d="M 977.5,221.5 C 981.138,229.079 983.804,237.079 985.5,245.5C 993.84,245.334 1002.17,245.5 1010.5,246C 1003.61,250.936 996.947,256.103 990.5,261.5C 993.76,269.573 996.093,277.573 997.5,285.5C 991.241,280.789 984.741,276.455 978,272.5C 971.677,276.818 965.344,281.152 959,285.5C 960.325,277.513 962.492,269.679 965.5,262C 959.521,256.363 953.188,251.03 946.5,246C 954.493,245.5 962.493,245.334 970.5,245.5C 972.833,237.501 975.166,229.501 977.5,221.5 Z"/></g>
<g><path style="opacity:1" fill="#ecae2c" d="M 221.5,221.5 C 222.117,221.611 222.617,221.944 223,222.5C 225.639,230.058 227.806,237.725 229.5,245.5C 237.84,245.334 246.173,245.5 254.5,246C 248.333,250.833 242.167,255.667 236,260.5C 237.212,268.677 239.379,276.677 242.5,284.5C 241.998,285.521 241.332,285.688 240.5,285C 234.869,280.035 228.703,275.869 222,272.5C 215.677,276.818 209.344,281.152 203,285.5C 204.727,277.639 206.893,269.805 209.5,262C 209.241,260.739 208.574,259.739 207.5,259C 201.833,254.667 196.167,250.333 190.5,246C 198.521,245.832 206.521,245.332 214.5,244.5C 217.301,236.958 219.635,229.292 221.5,221.5 Z"/></g>
<g><path style="opacity:1" fill="#ecae2c" d="M 299.5,251.5 C 307.5,250.833 315.5,250.167 323.5,249.5C 325.308,241.908 327.808,234.575 331,227.5C 333.603,235.141 336.103,242.808 338.5,250.5C 346.479,251.332 354.479,251.832 362.5,252C 355.812,257.03 349.479,262.363 343.5,268C 346.107,275.805 348.273,283.639 350,291.5C 343.656,287.152 337.323,282.818 331,278.5C 324.184,282.242 317.517,286.242 311,290.5C 312.864,282.4 315.364,274.4 318.5,266.5C 312.46,261.126 306.126,256.126 299.5,251.5 Z"/></g>
<g><path style="opacity:1" fill="#edaf2c" d="M 444.5,250.5 C 452.097,252.467 460.097,253.134 468.5,252.5C 462.335,257.499 456.335,262.666 450.5,268C 452.734,275.536 455.068,283.036 457.5,290.5C 457.167,290.833 456.833,291.167 456.5,291.5C 450.441,286.776 444.108,282.443 437.5,278.5C 430.916,282.375 424.416,286.375 418,290.5C 419.823,282.512 421.99,274.512 424.5,266.5C 418.993,260.831 412.993,255.664 406.5,251C 414.167,250.667 421.833,250.333 429.5,250C 432.262,242.549 434.928,235.049 437.5,227.5C 440.44,234.985 442.773,242.652 444.5,250.5 Z"/></g>
<g><path style="opacity:1" fill="#eeaf2b" d="M 762.5,227.5 C 765.334,234.658 768,241.992 770.5,249.5C 778.479,250.332 786.479,250.832 794.5,251C 787.997,256.008 781.664,261.174 775.5,266.5C 777.731,273.692 780.064,280.859 782.5,288C 782.15,289.257 781.483,289.591 780.5,289C 774.755,284.711 768.921,280.544 763,276.5C 755.728,280.774 748.728,285.441 742,290.5C 743.423,282.382 745.59,274.382 748.5,266.5C 742.573,260.865 736.24,255.699 729.5,251C 737.521,250.832 745.521,250.332 753.5,249.5C 756.515,242.141 759.515,234.808 762.5,227.5 Z"/></g>
<g><path style="opacity:1" fill="#ecae2c" d="M 838.5,251.5 C 846.5,250.833 854.5,250.167 862.5,249.5C 864.308,241.908 866.808,234.575 870,227.5C 872.2,235.265 874.7,242.932 877.5,250.5C 885.479,251.332 893.479,251.832 901.5,252C 894.812,257.03 888.479,262.363 882.5,268C 885.107,275.805 887.273,283.639 889,291.5C 882.636,286.971 876.136,282.637 869.5,278.5C 862.916,282.375 856.416,286.375 850,290.5C 851.511,283.468 853.511,276.468 856,269.5C 856.667,267.833 856.667,266.167 856,264.5C 850.226,260.036 844.393,255.702 838.5,251.5 Z"/></g>
<g><path style="opacity:1" fill="#edaf2b" d="M 545.5,233.5 C 548.936,240.803 551.602,248.47 553.5,256.5C 561.507,256.334 569.507,256.5 577.5,257C 570.997,262.008 564.664,267.174 558.5,272.5C 561.64,280.069 563.64,287.735 564.5,295.5C 558.402,291.369 552.235,287.369 546,283.5C 539.259,287.455 532.759,291.789 526.5,296.5C 528.144,288.642 530.477,280.642 533.5,272.5C 527.336,267.174 521.003,262.008 514.5,257C 522.493,256.5 530.493,256.334 538.5,256.5C 540.631,248.774 542.964,241.107 545.5,233.5 Z"/></g>
<g><path style="opacity:1" fill="#edaf2c" d="M 653.5,234.5 C 654.497,234.47 655.164,234.97 655.5,236C 657.641,242.759 659.975,249.425 662.5,256C 670.5,256.333 678.5,256.667 686.5,257C 680.243,261.713 674.076,266.546 668,271.5C 669.801,279.898 671.801,288.231 674,296.5C 667.612,291.935 661.112,287.602 654.5,283.5C 647.888,287.602 641.388,291.935 635,296.5C 636.727,288.639 638.893,280.805 641.5,273C 635.821,266.979 629.488,261.646 622.5,257C 630.521,256.832 638.521,256.332 646.5,255.5C 649.039,248.55 651.372,241.55 653.5,234.5 Z"/></g>
<g><path style="opacity:1" fill="#425767" d="M 323.5,249.5 C 315.5,250.167 307.5,250.833 299.5,251.5C 298.957,251.44 298.624,251.107 298.5,250.5C 306.807,249.502 315.14,249.169 323.5,249.5 Z"/></g>
<g><path style="opacity:1" fill="#435867" d="M 862.5,249.5 C 854.5,250.167 846.5,250.833 838.5,251.5C 837.957,251.44 837.624,251.107 837.5,250.5C 845.807,249.502 854.14,249.169 862.5,249.5 Z"/></g>
<g><path style="opacity:1" fill="#a98d42" d="M 444.5,250.5 C 453.171,251.111 461.171,251.778 468.5,252.5C 460.097,253.134 452.097,252.467 444.5,250.5 Z"/></g>
<g><path style="opacity:1" fill="#edaf2c" d="M 115.5,327.5 C 123.167,326.833 130.833,326.167 138.5,325.5C 141.74,318.309 144.906,310.975 148,303.5C 150.811,311.414 153.311,319.414 155.5,327.5C 163.84,327.334 172.173,327.5 180.5,328C 173.437,332.861 166.77,338.195 160.5,344C 163.061,351.739 164.894,359.572 166,367.5C 159.59,362.379 153.09,357.379 146.5,352.5C 139.912,357.044 133.412,361.711 127,366.5C 128.827,358.502 130.994,350.502 133.5,342.5C 128.115,336.783 122.115,331.783 115.5,327.5 Z"/></g>
<g><path style="opacity:1" fill="#ecae2c" d="M 217.5,327.5 C 225.167,326.833 232.833,326.167 240.5,325.5C 243.217,318.193 246.05,310.86 249,303.5C 251.346,311.22 253.846,318.887 256.5,326.5C 264.479,327.332 272.479,327.832 280.5,328C 273.812,333.03 267.479,338.363 261.5,344C 264.107,351.805 266.273,359.639 268,367.5C 261.643,362.309 255.143,357.309 248.5,352.5C 241.912,357.044 235.412,361.711 229,366.5C 230.354,359.423 232.354,352.423 235,345.5C 235.667,343.833 235.667,342.167 235,340.5C 229.289,335.949 223.456,331.616 217.5,327.5 Z"/></g>
<g><path style="opacity:1" fill="#edaf2c" d="M 316.5,327.5 C 324.5,326.833 332.5,326.167 340.5,325.5C 343.043,318.077 345.876,310.743 349,303.5C 352.196,311.257 354.696,319.257 356.5,327.5C 364.84,327.334 373.173,327.5 381.5,328C 375.333,332.833 369.167,337.667 363,342.5C 364.017,350.732 366.184,358.732 369.5,366.5C 369.167,366.833 368.833,367.167 368.5,367.5C 361.755,362.378 354.922,357.378 348,352.5C 341.667,356.833 335.333,361.167 329,365.5C 330.141,357.443 332.307,349.609 335.5,342C 329.29,336.951 322.957,332.117 316.5,327.5 Z"/></g>
<g><path style="opacity:1" fill="#ecae2c" d="M 821.5,327.5 C 829.167,326.833 836.833,326.167 844.5,325.5C 846.646,318.268 848.812,310.935 851,303.5C 854.121,311.321 856.621,319.321 858.5,327.5C 866.84,327.334 875.173,327.5 883.5,328C 876.437,332.861 869.77,338.195 863.5,344C 866.897,351.322 868.897,358.822 869.5,366.5C 863.833,361.833 858.167,357.167 852.5,352.5C 845.912,357.044 839.412,361.711 833,366.5C 834.354,359.423 836.354,352.423 839,345.5C 839.667,343.833 839.667,342.167 839,340.5C 833.289,335.949 827.456,331.616 821.5,327.5 Z"/></g>
<g><path style="opacity:1" fill="#edaf2c" d="M 920.5,327.5 C 928.5,326.833 936.5,326.167 944.5,325.5C 946.308,317.908 948.808,310.575 952,303.5C 954.603,311.141 957.103,318.808 959.5,326.5C 967.479,327.332 975.479,327.832 983.5,328C 976.812,333.03 970.479,338.363 964.5,344C 967.388,351.726 969.554,359.559 971,367.5C 964.643,362.309 958.143,357.309 951.5,352.5C 945.421,356.956 939.254,361.29 933,365.5C 934.141,357.443 936.307,349.609 939.5,342C 933.29,336.951 926.957,332.117 920.5,327.5 Z"/></g>
<g><path style="opacity:1" fill="#ecae2c" d="M 1051.5,304.5 C 1052.79,305.058 1053.62,306.058 1054,307.5C 1056.09,314.053 1058.26,320.553 1060.5,327C 1068.5,327.333 1076.5,327.667 1084.5,328C 1078.33,332.833 1072.17,337.667 1066,342.5C 1067.8,350.898 1069.8,359.231 1072,367.5C 1065.59,362.379 1059.09,357.379 1052.5,352.5C 1045.91,357.379 1039.41,362.379 1033,367.5C 1034.11,359.572 1035.94,351.739 1038.5,344C 1032.23,338.195 1025.56,332.861 1018.5,328C 1026.85,327.832 1035.19,327.332 1043.5,326.5C 1046.37,319.22 1049.04,311.886 1051.5,304.5 Z"/></g>
<g><path style="opacity:1" fill="#edaf2b" d="M 457.5,333.5 C 465.167,334.167 472.833,334.833 480.5,335.5C 474.316,340.094 468.316,344.927 462.5,350C 465.508,357.679 467.675,365.513 469,373.5C 462.656,369.152 456.323,364.818 450,360.5C 443.677,364.818 437.344,369.152 431,373.5C 432.325,365.513 434.492,357.679 437.5,350C 431.684,344.927 425.684,340.094 419.5,335.5C 427.167,334.833 434.833,334.167 442.5,333.5C 444.694,325.416 447.194,317.416 450,309.5C 452.806,317.416 455.306,325.416 457.5,333.5 Z"/></g>
<g><path style="opacity:1" fill="#ecae2c" d="M 558.5,333.5 C 566.167,334.167 573.833,334.833 581.5,335.5C 575.025,339.815 569.025,344.648 563.5,350C 565.734,357.536 568.068,365.036 570.5,372.5C 570.167,372.833 569.833,373.167 569.5,373.5C 563.34,368.92 557.007,364.586 550.5,360.5C 544.34,365.08 538.007,369.414 531.5,373.5C 532.162,367.949 533.662,362.282 536,356.5C 536.995,353.874 537.328,351.207 537,348.5C 530.833,343.667 524.667,338.833 518.5,334C 526.827,333.5 535.16,333.334 543.5,333.5C 545.304,325.257 547.804,317.257 551,309.5C 553.411,317.564 555.911,325.564 558.5,333.5 Z"/></g>
<g><path style="opacity:1" fill="#edaf2b" d="M 657.5,333.5 C 665.167,334.167 672.833,334.833 680.5,335.5C 674.066,339.765 668.066,344.598 662.5,350C 665.107,357.805 667.273,365.639 669,373.5C 662.636,368.971 656.136,364.637 649.5,360.5C 643.638,364.862 637.638,369.028 631.5,373C 630.833,373.667 630.167,373.667 629.5,373C 631.961,365.286 634.627,357.619 637.5,350C 631.645,344.916 625.645,340.083 619.5,335.5C 627.167,334.833 634.833,334.167 642.5,333.5C 644.306,325.251 646.806,317.251 650,309.5C 652.504,317.519 655.004,325.519 657.5,333.5 Z"/></g>
<g><path style="opacity:1" fill="#ecae2c" d="M 719.5,334.5 C 727.903,335.134 735.903,334.467 743.5,332.5C 745.029,324.914 747.362,317.58 750.5,310.5C 753.608,317.935 755.942,325.601 757.5,333.5C 765.84,333.334 774.173,333.5 782.5,334C 776.333,338.833 770.167,343.667 764,348.5C 765.212,356.677 767.379,364.677 770.5,372.5C 770.167,372.833 769.833,373.167 769.5,373.5C 763.34,368.92 757.007,364.586 750.5,360.5C 743.993,364.586 737.66,368.92 731.5,373.5C 732.323,366.481 734.156,359.481 737,352.5C 737.667,351.167 737.667,349.833 737,348.5C 730.979,343.969 725.146,339.303 719.5,334.5 Z"/></g>
<g><path style="opacity:1" fill="#5d655e" d="M 138.5,325.5 C 130.833,326.167 123.167,326.833 115.5,327.5C 114.957,327.44 114.624,327.107 114.5,326.5C 122.472,325.502 130.472,325.169 138.5,325.5 Z"/></g>
<g><path style="opacity:1" fill="#5b645f" d="M 240.5,325.5 C 232.833,326.167 225.167,326.833 217.5,327.5C 216.957,327.44 216.624,327.107 216.5,326.5C 224.472,325.502 232.472,325.169 240.5,325.5 Z"/></g>
<g><path style="opacity:1" fill="#5d655e" d="M 340.5,325.5 C 332.5,326.167 324.5,326.833 316.5,327.5C 315.957,327.44 315.624,327.107 315.5,326.5C 323.807,325.502 332.14,325.169 340.5,325.5 Z"/></g>
<g><path style="opacity:1" fill="#5b645f" d="M 844.5,325.5 C 836.833,326.167 829.167,326.833 821.5,327.5C 820.957,327.44 820.624,327.107 820.5,326.5C 828.472,325.502 836.472,325.169 844.5,325.5 Z"/></g>
<g><path style="opacity:1" fill="#5d655e" d="M 944.5,325.5 C 936.5,326.167 928.5,326.833 920.5,327.5C 919.957,327.44 919.624,327.107 919.5,326.5C 927.807,325.502 936.14,325.169 944.5,325.5 Z"/></g>
<g><path style="opacity:1" fill="#968349" d="M 442.5,333.5 C 434.833,334.167 427.167,334.833 419.5,335.5C 418.711,335.217 418.044,334.717 417.5,334C 425.827,333.5 434.16,333.334 442.5,333.5 Z"/></g>
<g><path style="opacity:1" fill="#968349" d="M 457.5,333.5 C 465.84,333.334 474.173,333.5 482.5,334C 481.956,334.717 481.289,335.217 480.5,335.5C 472.833,334.833 465.167,334.167 457.5,333.5 Z"/></g>
<g><path style="opacity:1" fill="#958249" d="M 558.5,333.5 C 566.528,333.169 574.528,333.502 582.5,334.5C 582.376,335.107 582.043,335.44 581.5,335.5C 573.833,334.833 566.167,334.167 558.5,333.5 Z"/></g>
<g><path style="opacity:1" fill="#998448" d="M 642.5,333.5 C 634.833,334.167 627.167,334.833 619.5,335.5C 618.711,335.217 618.044,334.717 617.5,334C 625.827,333.5 634.16,333.334 642.5,333.5 Z"/></g>
<g><path style="opacity:1" fill="#968349" d="M 657.5,333.5 C 665.528,333.169 673.528,333.502 681.5,334.5C 681.376,335.107 681.043,335.44 680.5,335.5C 672.833,334.833 665.167,334.167 657.5,333.5 Z"/></g>
<g><path style="opacity:1" fill="#9a8548" d="M 743.5,332.5 C 735.903,334.467 727.903,335.134 719.5,334.5C 726.829,333.778 734.829,333.111 743.5,332.5 Z"/></g>
<g><path style="opacity:1" fill="#eeaf2b" d="M 169.5,412.5 C 177.167,413.167 184.833,413.833 192.5,414.5C 186.316,419.094 180.316,423.927 174.5,429C 176.941,436.897 178.608,444.731 179.5,452.5C 173.34,447.92 167.007,443.586 160.5,439.5C 153.993,443.586 147.66,447.92 141.5,452.5C 141.167,452.167 140.833,451.833 140.5,451.5C 142.932,444.036 145.266,436.536 147.5,429C 141.665,423.666 135.665,418.499 129.5,413.5C 137.903,414.134 145.903,413.467 153.5,411.5C 155.757,403.647 158.59,395.98 162,388.5C 164.805,396.415 167.305,404.415 169.5,412.5 Z"/></g>
<g><path style="opacity:1" fill="#eeaf2b" d="M 364.5,412.5 C 372.167,413.167 379.833,413.833 387.5,414.5C 381.316,419.094 375.316,423.927 369.5,429C 372.508,436.679 374.675,444.513 376,452.5C 369.656,448.152 363.323,443.818 357,439.5C 350.319,443.904 343.485,447.737 336.5,451C 339.461,443.284 342.128,435.451 344.5,427.5C 338.336,422.174 332.003,417.008 325.5,412C 333.493,411.5 341.493,411.334 349.5,411.5C 351.494,403.686 353.994,396.019 357,388.5C 359.811,396.414 362.311,404.414 364.5,412.5 Z"/></g>
<g><path style="opacity:1" fill="#edaf2c" d="M 454.5,388.5 C 457.334,395.658 460,402.992 462.5,410.5C 470.479,411.332 478.479,411.832 486.5,412C 481.167,416 475.833,420 470.5,424C 469.101,425.062 468.101,426.395 467.5,428C 470.388,435.726 472.554,443.559 474,451.5C 467.891,446.532 461.391,442.199 454.5,438.5C 447.888,442.602 441.388,446.935 435,451.5C 436.755,443.656 438.922,435.823 441.5,428C 441.167,427.167 440.833,426.333 440.5,425.5C 434.833,421 429.167,416.5 423.5,412C 431.493,411.5 439.493,411.334 447.5,411.5C 449.23,403.644 451.563,395.977 454.5,388.5 Z"/></g>
<g><path style="opacity:1" fill="#eeaf2b" d="M 559.5,412.5 C 567.167,413.167 574.833,413.833 582.5,414.5C 576.355,419.083 570.355,423.916 564.5,429C 567.914,436.564 570.081,444.398 571,452.5C 564.746,448.29 558.579,443.956 552.5,439.5C 545.892,443.443 539.559,447.776 533.5,452.5C 533.167,452 532.833,451.5 532.5,451C 534.988,443.714 537.321,436.38 539.5,429C 533.934,423.598 527.934,418.765 521.5,414.5C 529.167,413.833 536.833,413.167 544.5,412.5C 546.691,404.426 549.191,396.426 552,388.5C 555.21,396.294 557.71,404.294 559.5,412.5 Z"/></g>
<g><path style="opacity:1" fill="#eeaf2b" d="M 655.5,412.5 C 663.167,413.167 670.833,413.833 678.5,414.5C 672.355,419.083 666.355,423.916 660.5,429C 663.914,436.564 666.081,444.398 667,452.5C 661.096,447.798 654.929,443.464 648.5,439.5C 641.892,443.443 635.559,447.776 629.5,452.5C 629.167,452 628.833,451.5 628.5,451C 630.988,443.714 633.321,436.38 635.5,429C 629.934,423.598 623.934,418.765 617.5,414.5C 625.167,413.833 632.833,413.167 640.5,412.5C 642.691,404.426 645.191,396.426 648,388.5C 651.194,396.251 653.694,404.251 655.5,412.5 Z"/></g>
<g><path style="opacity:1" fill="#eeaf2b" d="M 753.5,412.5 C 761.167,413.167 768.833,413.833 776.5,414.5C 770.066,418.765 764.066,423.598 758.5,429C 761.388,436.726 763.554,444.559 765,452.5C 758.636,447.971 752.136,443.637 745.5,439.5C 739.421,443.956 733.254,448.29 727,452.5C 727.919,444.398 730.086,436.564 733.5,429C 727.684,423.927 721.684,419.094 715.5,414.5C 723.167,413.833 730.833,413.167 738.5,412.5C 740.306,404.251 742.806,396.251 746,388.5C 748.809,396.426 751.309,404.426 753.5,412.5 Z"/></g>
<g><path style="opacity:1" fill="#edaf2c" d="M 842.5,389.5 C 843.79,390.058 844.623,391.058 845,392.5C 847.349,398.711 849.182,405.044 850.5,411.5C 858.84,411.334 867.173,411.5 875.5,412C 868.475,416.655 862.141,421.989 856.5,428C 859.078,435.823 861.245,443.656 863,451.5C 856.612,446.935 850.112,442.602 843.5,438.5C 836.609,442.199 830.109,446.532 824,451.5C 825.446,443.559 827.612,435.726 830.5,428C 824.821,421.979 818.488,416.646 811.5,412C 819.521,411.832 827.521,411.332 835.5,410.5C 838.039,403.55 840.372,396.55 842.5,389.5 Z"/></g>
<g><path style="opacity:1" fill="#eeaf2b" d="M 948.5,412.5 C 956.167,413.167 963.833,413.833 971.5,414.5C 965.066,418.765 959.066,423.598 953.5,429C 956.513,436.69 958.679,444.524 960,452.5C 953.667,447.5 947.333,442.5 941,437.5C 934.746,441.71 928.579,446.044 922.5,450.5C 922.167,450 921.833,449.5 921.5,449C 923.641,441.578 925.974,434.245 928.5,427C 922.167,422 915.833,417 909.5,412C 917.493,411.5 925.493,411.334 933.5,411.5C 935.494,403.686 937.994,396.019 941,388.5C 943.805,396.415 946.305,404.415 948.5,412.5 Z"/></g>
<g><path style="opacity:1" fill="#eeaf2b" d="M 1045.5,411.5 C 1053.1,413.467 1061.1,414.134 1069.5,413.5C 1063.85,418.303 1058.02,422.969 1052,427.5C 1053.42,435.618 1055.59,443.618 1058.5,451.5C 1058.17,451.833 1057.83,452.167 1057.5,452.5C 1051.34,447.92 1045.01,443.586 1038.5,439.5C 1031.92,443.375 1025.42,447.375 1019,451.5C 1020.5,443.509 1022.33,435.509 1024.5,427.5C 1018.34,422.174 1012,417.008 1005.5,412C 1013.52,411.832 1021.52,411.332 1029.5,410.5C 1032.24,403.354 1035.24,396.354 1038.5,389.5C 1041.64,396.58 1043.97,403.914 1045.5,411.5 Z"/></g>
<g><path style="opacity:1" fill="#eeaf2b" d="M 266.5,411.5 C 274.097,413.467 282.097,414.134 290.5,413.5C 284.854,418.303 279.021,422.969 273,427.5C 274.423,435.618 276.59,443.618 279.5,451.5C 279.167,451.833 278.833,452.167 278.5,452.5C 272.66,447.088 266.326,442.422 259.5,438.5C 252.888,442.602 246.388,446.935 240,451.5C 241.823,443.512 243.99,435.512 246.5,427.5C 240.613,421.876 234.28,416.709 227.5,412C 235.5,411.667 243.5,411.333 251.5,411C 254.066,403.802 256.733,396.635 259.5,389.5C 262.638,396.58 264.971,403.914 266.5,411.5 Z"/></g>
<g><path style="opacity:1" fill="#9a8548" d="M 153.5,411.5 C 145.903,413.467 137.903,414.134 129.5,413.5C 136.829,412.778 144.829,412.111 153.5,411.5 Z"/></g>
<g><path style="opacity:1" fill="#968349" d="M 169.5,412.5 C 177.84,412.334 186.173,412.5 194.5,413C 193.956,413.717 193.289,414.217 192.5,414.5C 184.833,413.833 177.167,413.167 169.5,412.5 Z"/></g>
<g><path style="opacity:1" fill="#9a8548" d="M 266.5,411.5 C 275.171,412.111 283.171,412.778 290.5,413.5C 282.097,414.134 274.097,413.467 266.5,411.5 Z"/></g>
<g><path style="opacity:1" fill="#978349" d="M 364.5,412.5 C 372.84,412.334 381.173,412.5 389.5,413C 388.956,413.717 388.289,414.217 387.5,414.5C 379.833,413.833 372.167,413.167 364.5,412.5 Z"/></g>
<g><path style="opacity:1" fill="#968349" d="M 544.5,412.5 C 536.833,413.167 529.167,413.833 521.5,414.5C 520.957,414.44 520.624,414.107 520.5,413.5C 528.472,412.502 536.472,412.169 544.5,412.5 Z"/></g>
<g><path style="opacity:1" fill="#998448" d="M 559.5,412.5 C 567.84,412.334 576.173,412.5 584.5,413C 583.956,413.717 583.289,414.217 582.5,414.5C 574.833,413.833 567.167,413.167 559.5,412.5 Z"/></g>
<g><path style="opacity:1" fill="#968249" d="M 640.5,412.5 C 632.833,413.167 625.167,413.833 617.5,414.5C 616.957,414.44 616.624,414.107 616.5,413.5C 624.472,412.502 632.472,412.169 640.5,412.5 Z"/></g>
<g><path style="opacity:1" fill="#998448" d="M 655.5,412.5 C 663.84,412.334 672.173,412.5 680.5,413C 679.956,413.717 679.289,414.217 678.5,414.5C 670.833,413.833 663.167,413.167 655.5,412.5 Z"/></g>
<g><path style="opacity:1" fill="#998448" d="M 738.5,412.5 C 730.833,413.167 723.167,413.833 715.5,414.5C 714.711,414.217 714.044,413.717 713.5,413C 721.827,412.5 730.16,412.334 738.5,412.5 Z"/></g>
<g><path style="opacity:1" fill="#968349" d="M 753.5,412.5 C 761.528,412.169 769.528,412.502 777.5,413.5C 777.376,414.107 777.043,414.44 776.5,414.5C 768.833,413.833 761.167,413.167 753.5,412.5 Z"/></g>
<g><path style="opacity:1" fill="#968249" d="M 948.5,412.5 C 956.84,412.334 965.173,412.5 973.5,413C 972.956,413.717 972.289,414.217 971.5,414.5C 963.833,413.833 956.167,413.167 948.5,412.5 Z"/></g>
<g><path style="opacity:1" fill="#998448" d="M 1045.5,411.5 C 1054.17,412.111 1062.17,412.778 1069.5,413.5C 1061.1,414.134 1053.1,413.467 1045.5,411.5 Z"/></g>
<g><path style="opacity:1" fill="#f2b129" d="M 305.5,571.5 C 299.355,570.51 293.022,570.177 286.5,570.5C 286.827,560.652 286.494,550.986 285.5,541.5C 284.094,538.586 282.094,536.086 279.5,534C 268.167,533.333 256.833,533.333 245.5,534C 243,536.5 240.5,539 238,541.5C 237.333,579.833 237.333,618.167 238,656.5C 240.124,657.622 241.957,659.122 243.5,661C 255.063,662.749 266.73,663.416 278.5,663C 280.667,660.833 282.833,658.667 285,656.5C 285.5,647.173 285.666,637.839 285.5,628.5C 306.833,628.5 328.167,628.5 349.5,628.5C 349.667,645.503 349.5,662.503 349,679.5C 336.833,691.667 324.667,703.833 312.5,716C 278.167,716.667 243.833,716.667 209.5,716C 197.696,703.196 185.53,690.696 173,678.5C 172.723,624.825 173.39,571.158 175,517.5C 186.833,505.667 198.667,493.833 210.5,482C 245.167,481.333 279.833,481.333 314.5,482C 325.97,494.471 337.804,506.638 350,518.5C 350.471,536.505 350.305,554.505 349.5,572.5C 334.82,572.611 320.153,572.277 305.5,571.5 Z"/></g>
<g><path style="opacity:1" fill="#f2b129" d="M 615.5,714.5 C 585.833,714.5 556.167,714.5 526.5,714.5C 526.5,697.167 526.5,679.833 526.5,662.5C 528.833,662.5 531.167,662.5 533.5,662.5C 532.801,658.904 531.801,655.404 530.5,652C 509.833,651.333 489.167,651.333 468.5,652C 466.375,655.082 464.375,658.249 462.5,661.5C 464.743,662.474 467.076,662.808 469.5,662.5C 469.5,679.833 469.5,697.167 469.5,714.5C 439.833,714.5 410.167,714.5 380.5,714.5C 380.5,697.167 380.5,679.833 380.5,662.5C 385.648,663.074 390.482,662.407 395,660.5C 412.069,618.46 429.236,576.46 446.5,534.5C 443.232,533.513 439.898,533.18 436.5,533.5C 436.5,516.167 436.5,498.833 436.5,481.5C 478.167,481.5 519.833,481.5 561.5,481.5C 561.5,498.833 561.5,516.167 561.5,533.5C 557.445,533.176 553.445,533.509 549.5,534.5C 566.333,576.833 583.167,619.167 600,661.5C 605.072,662.471 610.238,662.805 615.5,662.5C 615.5,679.833 615.5,697.167 615.5,714.5 Z"/></g>
<g><path style="opacity:1" fill="#f2b129" d="M 658.5,662.5 C 659.499,619.67 659.832,576.67 659.5,533.5C 654.833,533.5 650.167,533.5 645.5,533.5C 645.5,516.167 645.5,498.833 645.5,481.5C 692.168,481.333 738.835,481.5 785.5,482C 796.651,493.985 807.984,505.818 819.5,517.5C 820.666,537.825 820.833,558.158 820,578.5C 814.833,583.667 809.667,588.833 804.5,594C 809.667,599.167 814.833,604.333 820,609.5C 820.667,632.5 820.667,655.5 820,678.5C 808.137,690.029 796.637,701.862 785.5,714C 738.835,714.5 692.168,714.667 645.5,714.5C 645.5,697.167 645.5,679.833 645.5,662.5C 649.833,662.5 654.167,662.5 658.5,662.5 Z"/></g>
<g><path style="opacity:1" fill="#f2b129" d="M 1027.5,481.5 C 1026.77,498.824 1026.44,516.157 1026.5,533.5C 1021.83,533.5 1017.17,533.5 1012.5,533.5C 1012.67,582.168 1012.5,630.834 1012,679.5C 999.833,691.667 987.667,703.833 975.5,716C 946.167,716.667 916.833,716.667 887.5,716C 875,703.5 862.5,691 850,678.5C 849.5,659.836 849.333,641.17 849.5,622.5C 871.167,622.5 892.833,622.5 914.5,622.5C 914.333,633.838 914.5,645.172 915,656.5C 917.46,657.958 919.627,659.791 921.5,662C 927.801,663.179 934.135,663.513 940.5,663C 942.706,660.963 944.706,658.797 946.5,656.5C 947.499,615.67 947.832,574.67 947.5,533.5C 940.833,533.5 934.167,533.5 927.5,533.5C 927.5,516.167 927.5,498.833 927.5,481.5C 960.833,481.5 994.167,481.5 1027.5,481.5 Z"/></g>
<g><path style="opacity:1" fill="#706f57" d="M 645.5,533.5 C 650.167,533.5 654.833,533.5 659.5,533.5C 659.832,576.67 659.499,619.67 658.5,662.5C 658.5,619.833 658.5,577.167 658.5,534.5C 653.968,534.818 649.634,534.485 645.5,533.5 Z"/></g>
<g><path style="opacity:1" fill="#174078" d="M 719.5,533.5 C 729.839,533.334 740.172,533.5 750.5,534C 753,536.5 755.5,539 758,541.5C 758.667,547.833 758.667,554.167 758,560.5C 755.833,562.667 753.667,564.833 751.5,567C 740.839,567.5 730.172,567.667 719.5,567.5C 719.5,556.167 719.5,544.833 719.5,533.5 Z"/></g>
<g><path style="opacity:1" fill="#686b59" d="M 1027.5,481.5 C 994.167,481.5 960.833,481.5 927.5,481.5C 927.5,498.833 927.5,516.167 927.5,533.5C 934.167,533.5 940.833,533.5 947.5,533.5C 947.832,574.67 947.499,615.67 946.5,656.5C 946.5,615.833 946.5,575.167 946.5,534.5C 939.833,534.5 933.167,534.5 926.5,534.5C 926.5,516.5 926.5,498.5 926.5,480.5C 960.337,480.168 994.004,480.502 1027.5,481.5 Z"/></g>
<g><path style="opacity:1" fill="#a78b44" d="M 285.5,541.5 C 286.494,550.986 286.827,560.652 286.5,570.5C 293.022,570.177 299.355,570.51 305.5,571.5C 298.833,571.5 292.167,571.5 285.5,571.5C 285.5,561.5 285.5,551.5 285.5,541.5 Z"/></g>
<g><path style="opacity:1" fill="#194077" d="M 511.5,607.5 C 501.985,607.827 492.652,607.494 483.5,606.5C 487.048,594.856 491.381,583.523 496.5,572.5C 502.082,583.91 507.082,595.577 511.5,607.5 Z"/></g>
<g><path style="opacity:1" fill="#6b6d58" d="M 483.5,606.5 C 492.652,607.494 501.985,607.827 511.5,607.5C 501.992,608.823 492.325,608.823 482.5,607.5C 482.624,606.893 482.957,606.56 483.5,606.5 Z"/></g>
<g><path style="opacity:1" fill="#154078" d="M 719.5,620.5 C 729.839,620.334 740.172,620.5 750.5,621C 757.419,625.761 760.086,632.428 758.5,641C 758.333,645.5 758.167,650 758,654.5C 755.5,657 753,659.5 750.5,662C 740.172,662.5 729.839,662.666 719.5,662.5C 719.5,648.5 719.5,634.5 719.5,620.5 Z"/></g>
<g><path style="opacity:1" fill="#837950" d="M 469.5,662.5 C 470.497,679.992 470.83,697.659 470.5,715.5C 440.329,715.831 410.329,715.498 380.5,714.5C 410.167,714.5 439.833,714.5 469.5,714.5C 469.5,697.167 469.5,679.833 469.5,662.5 Z"/></g>
<g><path style="opacity:1" fill="#837950" d="M 526.5,662.5 C 526.5,679.833 526.5,697.167 526.5,714.5C 556.167,714.5 585.833,714.5 615.5,714.5C 585.671,715.498 555.671,715.831 525.5,715.5C 525.17,697.659 525.503,679.992 526.5,662.5 Z"/></g>
<g><path style="opacity:1" fill="#eeaf2b" d="M 553.5,768.5 C 561.5,769.167 569.5,769.833 577.5,770.5C 571.043,775.117 564.71,779.951 558.5,785C 561.167,792.333 563.833,799.667 566.5,807C 565.833,807.667 565.167,807.667 564.5,807C 558.576,802.456 552.409,798.289 546,794.5C 539.336,798.333 533.003,802.667 527,807.5C 528.427,800.041 530.594,792.708 533.5,785.5C 527.336,780.174 521.003,775.008 514.5,770C 522.493,769.5 530.493,769.334 538.5,769.5C 540.494,761.686 542.994,754.019 546,746.5C 548.804,753.745 551.304,761.078 553.5,768.5 Z"/></g>
<g><path style="opacity:1" fill="#eeaf2b" d="M 243.5,768.5 C 251.5,769.167 259.5,769.833 267.5,770.5C 261.607,774.702 255.774,779.036 250,783.5C 250.924,791.614 253.09,799.447 256.5,807C 256.167,807.167 255.833,807.333 255.5,807.5C 249.398,802.563 242.898,798.23 236,794.5C 229.677,798.818 223.344,803.152 217,807.5C 218.526,799.911 220.692,792.411 223.5,785C 217.684,779.927 211.684,775.094 205.5,770.5C 213.167,769.833 220.833,769.167 228.5,768.5C 231.09,761.232 233.59,753.899 236,746.5C 239.192,753.575 241.692,760.908 243.5,768.5 Z"/></g>
<g><path style="opacity:1" fill="#eeaf2b" d="M 330.5,746.5 C 333.334,753.658 336,760.992 338.5,768.5C 346.479,769.332 354.479,769.832 362.5,770C 356.243,774.713 350.076,779.546 344,784.5C 345.188,791.917 347.021,799.251 349.5,806.5C 349.167,806.833 348.833,807.167 348.5,807.5C 342.241,802.789 335.741,798.455 329,794.5C 322.677,798.818 316.344,803.152 310,807.5C 311.427,800.041 313.594,792.708 316.5,785.5C 310.573,779.865 304.24,774.699 297.5,770C 305.521,769.832 313.521,769.332 321.5,768.5C 324.508,761.138 327.508,753.804 330.5,746.5 Z"/></g>
<g><path style="opacity:1" fill="#edaf2c" d="M 446.5,768.5 C 454.5,769.167 462.5,769.833 470.5,770.5C 464.043,775.117 457.71,779.951 451.5,785C 454.167,792.333 456.833,799.667 459.5,807C 458.833,807.667 458.167,807.667 457.5,807C 451.576,802.456 445.409,798.289 439,794.5C 432.677,798.818 426.344,803.152 420,807.5C 421.427,800.041 423.594,792.708 426.5,785.5C 420.573,779.865 414.24,774.699 407.5,770C 415.493,769.5 423.493,769.334 431.5,769.5C 433.494,761.686 435.994,754.019 439,746.5C 442.192,753.575 444.692,760.908 446.5,768.5 Z"/></g>
<g><path style="opacity:1" fill="#edaf2b" d="M 662.5,768.5 C 670.167,769.167 677.833,769.833 685.5,770.5C 678.885,774.783 672.885,779.783 667.5,785.5C 669.634,792.568 671.967,799.568 674.5,806.5C 674.167,806.833 673.833,807.167 673.5,807.5C 667.398,802.563 660.898,798.23 654,794.5C 647.677,798.818 641.344,803.152 635,807.5C 636.826,800.176 638.993,792.843 641.5,785.5C 636.115,779.783 630.115,774.783 623.5,770.5C 631.167,769.833 638.833,769.167 646.5,768.5C 648.775,761.339 651.442,754.339 654.5,747.5C 657.192,754.589 659.859,761.589 662.5,768.5 Z"/></g>
<g><path style="opacity:1" fill="#eeaf2b" d="M 768.5,768.5 C 776.5,769.167 784.5,769.833 792.5,770.5C 786.607,774.702 780.774,779.036 775,783.5C 775.924,791.614 778.09,799.447 781.5,807C 781.167,807.167 780.833,807.333 780.5,807.5C 774.398,802.563 767.898,798.23 761,794.5C 754.677,798.818 748.344,803.152 742,807.5C 743.526,799.911 745.692,792.411 748.5,785C 742.684,779.927 736.684,775.094 730.5,770.5C 738.167,769.833 745.833,769.167 753.5,768.5C 756.09,761.232 758.59,753.899 761,746.5C 764.192,753.575 766.692,760.908 768.5,768.5 Z"/></g>
<g><path style="opacity:1" fill="#edaf2b" d="M 877.5,768.5 C 885.167,769.167 892.833,769.833 900.5,770.5C 894.122,775.026 888.122,780.026 882.5,785.5C 885.406,792.708 887.573,800.041 889,807.5C 882.656,803.152 876.323,798.818 870,794.5C 863.259,798.455 856.759,802.789 850.5,807.5C 851.734,801.265 853.567,794.932 856,788.5C 856.667,786.833 856.667,785.167 856,783.5C 850.289,778.949 844.456,774.616 838.5,770.5C 846.5,769.833 854.5,769.167 862.5,768.5C 864.308,760.908 866.808,753.575 870,746.5C 872.41,753.899 874.91,761.232 877.5,768.5 Z"/></g>
<g><path style="opacity:1" fill="#edaf2c" d="M 971.5,768.5 C 979.5,769.167 987.5,769.833 995.5,770.5C 989.043,775.117 982.71,779.951 976.5,785C 979.167,792.333 981.833,799.667 984.5,807C 983.833,807.667 983.167,807.667 982.5,807C 976.576,802.456 970.409,798.289 964,794.5C 957.677,798.818 951.344,803.152 945,807.5C 946.427,800.041 948.594,792.708 951.5,785.5C 945.573,779.865 939.24,774.699 932.5,770C 940.493,769.5 948.493,769.334 956.5,769.5C 958.494,761.686 960.994,754.019 964,746.5C 967.192,753.575 969.692,760.908 971.5,768.5 Z"/></g>
<g><path style="opacity:1" fill="#5e665e" d="M 228.5,768.5 C 220.833,769.167 213.167,769.833 205.5,770.5C 204.957,770.44 204.624,770.107 204.5,769.5C 212.472,768.502 220.472,768.169 228.5,768.5 Z"/></g>
<g><path style="opacity:1" fill="#5e665e" d="M 243.5,768.5 C 251.86,768.169 260.193,768.502 268.5,769.5C 268.376,770.107 268.043,770.44 267.5,770.5C 259.5,769.833 251.5,769.167 243.5,768.5 Z"/></g>
<g><path style="opacity:1" fill="#5c655e" d="M 446.5,768.5 C 454.86,768.169 463.193,768.502 471.5,769.5C 471.376,770.107 471.043,770.44 470.5,770.5C 462.5,769.833 454.5,769.167 446.5,768.5 Z"/></g>
<g><path style="opacity:1" fill="#5b645f" d="M 553.5,768.5 C 561.86,768.169 570.193,768.502 578.5,769.5C 578.376,770.107 578.043,770.44 577.5,770.5C 569.5,769.833 561.5,769.167 553.5,768.5 Z"/></g>
<g><path style="opacity:1" fill="#5d655e" d="M 646.5,768.5 C 638.833,769.167 631.167,769.833 623.5,770.5C 622.957,770.44 622.624,770.107 622.5,769.5C 630.472,768.502 638.472,768.169 646.5,768.5 Z"/></g>
<g><path style="opacity:1" fill="#5c655e" d="M 662.5,768.5 C 670.528,768.169 678.528,768.502 686.5,769.5C 686.376,770.107 686.043,770.44 685.5,770.5C 677.833,769.833 670.167,769.167 662.5,768.5 Z"/></g>
<g><path style="opacity:1" fill="#5e665e" d="M 753.5,768.5 C 745.833,769.167 738.167,769.833 730.5,770.5C 729.957,770.44 729.624,770.107 729.5,769.5C 737.472,768.502 745.472,768.169 753.5,768.5 Z"/></g>
<g><path style="opacity:1" fill="#5e665e" d="M 768.5,768.5 C 776.86,768.169 785.193,768.502 793.5,769.5C 793.376,770.107 793.043,770.44 792.5,770.5C 784.5,769.833 776.5,769.167 768.5,768.5 Z"/></g>
<g><path style="opacity:1" fill="#5e665e" d="M 862.5,768.5 C 854.5,769.167 846.5,769.833 838.5,770.5C 837.957,770.44 837.624,770.107 837.5,769.5C 845.807,768.502 854.14,768.169 862.5,768.5 Z"/></g>
<g><path style="opacity:1" fill="#5e665e" d="M 877.5,768.5 C 885.528,768.169 893.528,768.502 901.5,769.5C 901.376,770.107 901.043,770.44 900.5,770.5C 892.833,769.833 885.167,769.167 877.5,768.5 Z"/></g>
<g><path style="opacity:1" fill="#5c655e" d="M 971.5,768.5 C 979.86,768.169 988.193,768.502 996.5,769.5C 996.376,770.107 996.043,770.44 995.5,770.5C 987.5,769.833 979.5,769.167 971.5,768.5 Z"/></g>
<g><path style="opacity:1" fill="#ecae2c" d="M 607.5,833.5 C 615.5,834.167 623.5,834.833 631.5,835.5C 625.043,840.117 618.71,844.951 612.5,850C 615.167,857.333 617.833,864.667 620.5,872C 613.817,868.822 607.151,865.322 600.5,861.5C 594.036,865.235 587.703,869.235 581.5,873.5C 581.167,873.167 580.833,872.833 580.5,872.5C 583.406,865.292 585.573,857.959 587,850.5C 580.833,845.667 574.667,840.833 568.5,836C 576.521,835.832 584.521,835.332 592.5,834.5C 594.897,826.808 597.397,819.141 600,811.5C 603.192,818.575 605.692,825.908 607.5,833.5 Z"/></g>
<g><path style="opacity:1" fill="#eeaf2b" d="M 488.5,817.5 C 491.334,824.658 494,831.992 496.5,839.5C 504.479,840.332 512.479,840.832 520.5,841C 514.333,845.833 508.167,850.667 502,855.5C 503.209,863.208 504.542,870.875 506,878.5C 499.746,874.29 493.579,869.956 487.5,865.5C 480.864,869.637 474.364,873.971 468,878.5C 469.427,871.041 471.594,863.708 474.5,856.5C 468.336,851.174 462.003,846.008 455.5,841C 463.521,840.832 471.521,840.332 479.5,839.5C 482.515,832.141 485.515,824.808 488.5,817.5 Z"/></g>
<g><path style="opacity:1" fill="#eeaf2b" d="M 711.5,817.5 C 714.334,824.658 717,831.992 719.5,839.5C 727.479,840.332 735.479,840.832 743.5,841C 737.333,845.833 731.167,850.667 725,855.5C 726.801,863.234 728.801,870.9 731,878.5C 724.586,874.043 718.086,869.709 711.5,865.5C 704.993,869.586 698.66,873.92 692.5,878.5C 692.167,878.333 691.833,878.167 691.5,878C 694.228,871.151 696.561,864.151 698.5,857C 692.859,850.989 686.525,845.655 679.5,841C 687.827,840.5 696.16,840.334 704.5,840.5C 706.23,832.644 708.563,824.977 711.5,817.5 Z"/></g>
<g><path style="opacity:1" fill="#edaf2b" d="M 266.5,824.5 C 270.122,831.354 272.788,838.687 274.5,846.5C 282.84,846.334 291.173,846.5 299.5,847C 292.653,851.925 285.986,857.092 279.5,862.5C 282.807,869.578 284.973,876.912 286,884.5C 279.746,880.29 273.579,875.956 267.5,871.5C 261.326,875.42 255.326,879.587 249.5,884C 248.668,884.688 248.002,884.521 247.5,883.5C 249.932,876.704 252.265,869.871 254.5,863C 248.521,857.363 242.188,852.03 235.5,847C 243.521,846.832 251.521,846.332 259.5,845.5C 262.039,838.55 264.372,831.55 266.5,824.5 Z"/></g>
<g><path style="opacity:1" fill="#edaf2b" d="M 378.5,823.5 C 381.334,830.658 384,837.992 386.5,845.5C 394.479,846.332 402.479,846.832 410.5,847C 404.333,851.833 398.167,856.667 392,861.5C 393.209,869.208 394.542,876.875 396,884.5C 389.746,880.29 383.579,875.956 377.5,871.5C 370.993,875.586 364.66,879.92 358.5,884.5C 358.167,884.167 357.833,883.833 357.5,883.5C 360.406,876.292 362.573,868.959 364,861.5C 357.833,856.667 351.667,851.833 345.5,847C 353.521,846.832 361.521,846.332 369.5,845.5C 372.515,838.141 375.515,830.808 378.5,823.5 Z"/></g>
<g><path style="opacity:1" fill="#edae2c" d="M 790.5,849.5 C 798.167,848.833 805.833,848.167 813.5,847.5C 816.134,839.937 818.8,832.27 821.5,824.5C 824.55,831.31 827.216,838.31 829.5,845.5C 837.479,846.332 845.479,846.832 853.5,847C 847.333,851.833 841.167,856.667 835,861.5C 836.427,868.959 838.594,876.292 841.5,883.5C 841.167,883.833 840.833,884.167 840.5,884.5C 834.34,879.92 828.007,875.586 821.5,871.5C 815.5,876.167 809.5,880.833 803.5,885.5C 803.167,884.833 802.833,884.167 802.5,883.5C 805.441,876.733 807.274,869.733 808,862.5C 802.289,857.949 796.456,853.616 790.5,849.5 Z"/></g>
<g><path style="opacity:1" fill="#ecae2c" d="M 932.5,824.5 C 936.122,831.354 938.788,838.687 940.5,846.5C 948.84,846.334 957.173,846.5 965.5,847C 958.653,851.925 951.986,857.092 945.5,862.5C 948.807,869.578 950.973,876.912 952,884.5C 945.667,880.167 939.333,875.833 933,871.5C 927.079,875.544 921.245,879.711 915.5,884C 914.517,884.591 913.85,884.257 913.5,883C 915.633,876.269 917.966,869.602 920.5,863C 920.241,861.739 919.574,860.739 918.5,860C 912.653,855.909 906.987,851.576 901.5,847C 909.521,846.832 917.521,846.332 925.5,845.5C 928.039,838.55 930.372,831.55 932.5,824.5 Z"/></g>
<g><path style="opacity:1" fill="#4f5e63" d="M 607.5,833.5 C 615.86,833.169 624.193,833.502 632.5,834.5C 632.376,835.107 632.043,835.44 631.5,835.5C 623.5,834.833 615.5,834.167 607.5,833.5 Z"/></g>
<g><path style="opacity:1" fill="#5b645f" d="M 813.5,847.5 C 805.833,848.167 798.167,848.833 790.5,849.5C 789.957,849.44 789.624,849.107 789.5,848.5C 797.472,847.502 805.472,847.169 813.5,847.5 Z"/></g>
<g><path style="opacity:1" fill="#eeaf2b" d="M 550.5,903.5 C 558.167,904.167 565.833,904.833 573.5,905.5C 567.316,910.094 561.316,914.927 555.5,920C 558.564,927.113 560.564,934.279 561.5,941.5C 555.071,937.536 548.904,933.202 543,928.5C 536.667,933.5 530.333,938.5 524,943.5C 525.427,936.041 527.594,928.708 530.5,921.5C 524.336,916.174 518.003,911.008 511.5,906C 519.493,905.5 527.493,905.334 535.5,905.5C 537.29,897.294 539.79,889.294 543,881.5C 545.804,888.745 548.304,896.078 550.5,903.5 Z"/></g>
<g><path style="opacity:1" fill="#edaf2b" d="M 664.5,902.5 C 672.281,904.154 680.281,905.154 688.5,905.5C 682.544,909.616 676.711,913.949 671,918.5C 672.597,926.621 674.597,934.621 677,942.5C 670.612,937.935 664.112,933.602 657.5,929.5C 650.888,933.602 644.388,937.935 638,942.5C 640.403,934.621 642.403,926.621 644,918.5C 637.979,913.969 632.146,909.303 626.5,904.5C 634.903,905.134 642.903,904.467 650.5,902.5C 652.232,895.304 654.565,888.304 657.5,881.5C 660.435,888.304 662.768,895.304 664.5,902.5 Z"/></g>
<g><path style="opacity:1" fill="#eeaf2b" d="M 437.5,917.5 C 445.167,918.167 452.833,918.833 460.5,919.5C 454.066,923.765 448.066,928.598 442.5,934C 444.735,940.871 447.068,947.704 449.5,954.5C 449.167,954.833 448.833,955.167 448.5,955.5C 442.071,951.536 435.904,947.202 430,942.5C 423,947.167 416,951.833 409,956.5C 410.526,948.911 412.692,941.411 415.5,934C 409.975,928.648 403.975,923.815 397.5,919.5C 405.167,918.833 412.833,918.167 420.5,917.5C 423.394,910.046 426.561,902.712 430,895.5C 432.804,902.745 435.304,910.078 437.5,917.5 Z"/></g>
<g><path style="opacity:1" fill="#ebae2d" d="M 777.5,916.5 C 785.097,918.467 793.097,919.134 801.5,918.5C 795.335,923.499 789.335,928.666 783.5,934C 786.308,941.411 788.474,948.911 790,956.5C 783.891,951.532 777.391,947.199 770.5,943.5C 763.888,947.602 757.388,951.935 751,956.5C 753.403,948.621 755.403,940.621 757,932.5C 750.833,927.667 744.667,922.833 738.5,918C 746.827,917.5 755.16,917.334 763.5,917.5C 765.027,909.92 767.36,902.586 770.5,895.5C 773.435,902.304 775.768,909.304 777.5,916.5 Z"/></g>
<g><path style="opacity:1" fill="#eeaf2b" d="M 322.5,923.5 C 330.5,924.167 338.5,924.833 346.5,925.5C 340.043,930.117 333.71,934.951 327.5,940C 330.025,946.575 332.359,953.241 334.5,960C 334.167,960.5 333.833,961 333.5,961.5C 327.727,956.894 321.56,952.894 315,949.5C 308.677,953.818 302.344,958.152 296,962.5C 297.526,954.911 299.692,947.411 302.5,940C 296.934,934.598 290.934,929.765 284.5,925.5C 292.167,924.833 299.833,924.167 307.5,923.5C 310.09,916.232 312.59,908.899 315,901.5C 318.192,908.575 320.692,915.908 322.5,923.5 Z"/></g>
<g><path style="opacity:1" fill="#887b4e" d="M 550.5,903.5 C 558.84,903.334 567.173,903.5 575.5,904C 574.956,904.717 574.289,905.217 573.5,905.5C 565.833,904.833 558.167,904.167 550.5,903.5 Z"/></g>
<g><path style="opacity:1" fill="#8b7d4d" d="M 650.5,902.5 C 642.903,904.467 634.903,905.134 626.5,904.5C 633.829,903.778 641.829,903.111 650.5,902.5 Z"/></g>
<g><path style="opacity:1" fill="#8a7c4e" d="M 664.5,902.5 C 672.776,903.139 681.109,903.805 689.5,904.5C 689.376,905.107 689.043,905.44 688.5,905.5C 680.281,905.154 672.281,904.154 664.5,902.5 Z"/></g>
<g><path style="opacity:1" fill="#edaf2b" d="M 854.5,925.5 C 862.167,924.833 869.833,924.167 877.5,923.5C 879.696,916.078 882.196,908.745 885,901.5C 888.397,908.857 890.897,916.523 892.5,924.5C 900.507,924.334 908.507,924.5 916.5,925C 910.167,930 903.833,935 897.5,940C 900.025,946.575 902.359,953.241 904.5,960C 904.167,960.5 903.833,961 903.5,961.5C 897.402,957.369 891.235,953.369 885,949.5C 878.336,953.333 872.003,957.667 866,962.5C 867.526,954.911 869.692,947.411 872.5,940C 866.684,934.927 860.684,930.094 854.5,925.5 Z"/></g>
<g><path style="opacity:1" fill="#95824a" d="M 420.5,917.5 C 412.833,918.167 405.167,918.833 397.5,919.5C 396.957,919.44 396.624,919.107 396.5,918.5C 404.472,917.502 412.472,917.169 420.5,917.5 Z"/></g>
<g><path style="opacity:1" fill="#968349" d="M 437.5,917.5 C 445.528,917.169 453.528,917.502 461.5,918.5C 461.376,919.107 461.043,919.44 460.5,919.5C 452.833,918.833 445.167,918.167 437.5,917.5 Z"/></g>
<g><path style="opacity:1" fill="#9a8548" d="M 777.5,916.5 C 786.171,917.111 794.171,917.778 801.5,918.5C 793.097,919.134 785.097,918.467 777.5,916.5 Z"/></g>
<g><path style="opacity:1" fill="#6c6d58" d="M 307.5,923.5 C 299.833,924.167 292.167,924.833 284.5,925.5C 283.957,925.44 283.624,925.107 283.5,924.5C 291.472,923.502 299.472,923.169 307.5,923.5 Z"/></g>
<g><path style="opacity:1" fill="#6b6d59" d="M 322.5,923.5 C 330.86,923.169 339.193,923.502 347.5,924.5C 347.376,925.107 347.043,925.44 346.5,925.5C 338.5,924.833 330.5,924.167 322.5,923.5 Z"/></g>
<g><path style="opacity:1" fill="#6b6d58" d="M 877.5,923.5 C 869.833,924.167 862.167,924.833 854.5,925.5C 853.711,925.217 853.044,924.717 852.5,924C 860.827,923.5 869.16,923.334 877.5,923.5 Z"/></g>
<g><path style="opacity:1" fill="#eeaf2b" d="M 607.5,974.5 C 615.5,975.167 623.5,975.833 631.5,976.5C 625.043,981.117 618.71,985.951 612.5,991C 615.167,998.333 617.833,1005.67 620.5,1013C 619.833,1013.67 619.167,1013.67 618.5,1013C 612.576,1008.46 606.409,1004.29 600,1000.5C 593.677,1004.82 587.344,1009.15 581,1013.5C 582.427,1006.04 584.594,998.708 587.5,991.5C 581.573,985.865 575.24,980.699 568.5,976C 576.521,975.832 584.521,975.332 592.5,974.5C 595.099,967.204 597.599,959.871 600,952.5C 603.192,959.575 605.692,966.908 607.5,974.5 Z"/></g>
<g><path style="opacity:1" fill="#edaf2b" d="M 450.5,984.5 C 458.167,983.833 465.833,983.167 473.5,982.5C 475.915,974.587 478.915,966.92 482.5,959.5C 485.267,966.635 487.934,973.802 490.5,981C 498.5,981.333 506.5,981.667 514.5,982C 508.243,986.713 502.076,991.546 496,996.5C 497.427,1003.96 499.594,1011.29 502.5,1018.5C 502.167,1018.83 501.833,1019.17 501.5,1019.5C 495.34,1014.92 489.007,1010.59 482.5,1006.5C 475.184,1011.7 467.851,1016.54 460.5,1021C 463.162,1013.68 465.828,1006.35 468.5,999C 462.684,993.927 456.684,989.094 450.5,984.5 Z"/></g>
<g><path style="opacity:1" fill="#edaf2b" d="M 718.5,959.5 C 719.497,959.47 720.164,959.97 720.5,961C 722.641,967.759 724.975,974.425 727.5,981C 735.5,981.333 743.5,981.667 751.5,982C 745.243,986.713 739.076,991.546 733,996.5C 734.427,1003.96 736.594,1011.29 739.5,1018.5C 739.167,1018.83 738.833,1019.17 738.5,1019.5C 732.34,1014.92 726.007,1010.59 719.5,1006.5C 713.326,1010.42 707.326,1014.59 701.5,1019C 700.668,1019.69 700.002,1019.52 699.5,1018.5C 701.932,1011.7 704.265,1004.87 706.5,998C 705.561,996.056 704.227,994.389 702.5,993C 697.5,989.333 692.5,985.667 687.5,982C 695.5,981.667 703.5,981.333 711.5,981C 714.33,974.009 716.664,966.843 718.5,959.5 Z"/></g>
<g><path style="opacity:1" fill="#eeaf2b" d="M 362.5,964.5 C 365.936,971.803 368.602,979.47 370.5,987.5C 378.84,987.334 387.173,987.5 395.5,988C 388.653,992.925 381.986,998.092 375.5,1003.5C 378.807,1010.58 380.973,1017.91 382,1025.5C 375.746,1021.29 369.579,1016.96 363.5,1012.5C 357.326,1016.42 351.326,1020.59 345.5,1025C 344.668,1025.69 344.002,1025.52 343.5,1024.5C 345.932,1017.7 348.265,1010.87 350.5,1004C 344.521,998.363 338.188,993.03 331.5,988C 339.521,987.832 347.521,987.332 355.5,986.5C 358.241,979.277 360.575,971.943 362.5,964.5 Z"/></g>
<g><path style="opacity:1" fill="#edaf2c" d="M 836.5,964.5 C 839.936,971.803 842.602,979.47 844.5,987.5C 852.84,987.334 861.173,987.5 869.5,988C 862.653,992.925 855.986,998.092 849.5,1003.5C 852.807,1010.58 854.973,1017.91 856,1025.5C 849.746,1021.29 843.579,1016.96 837.5,1012.5C 830.857,1017.31 824.357,1022.31 818,1027.5C 819.427,1020.04 821.594,1012.71 824.5,1005.5C 818.573,999.865 812.24,994.699 805.5,990C 813.493,989.5 821.493,989.334 829.5,989.5C 831.989,981.211 834.322,972.878 836.5,964.5 Z"/></g>
<g><path style="opacity:1" fill="#4f5e63" d="M 607.5,974.5 C 615.86,974.169 624.193,974.502 632.5,975.5C 632.376,976.107 632.043,976.44 631.5,976.5C 623.5,975.833 615.5,975.167 607.5,974.5 Z"/></g>
<g><path style="opacity:1" fill="#897c4e" d="M 473.5,982.5 C 465.833,983.167 458.167,983.833 450.5,984.5C 449.711,984.217 449.044,983.717 448.5,983C 456.827,982.5 465.16,982.334 473.5,982.5 Z"/></g>
<g><path style="opacity:1" fill="#edaf2b" d="M 537.5,1020.5 C 541.325,1027.64 543.992,1035.3 545.5,1043.5C 553.507,1043.33 561.507,1043.5 569.5,1044C 562.997,1049.01 556.664,1054.17 550.5,1059.5C 553.27,1066.64 555.937,1073.81 558.5,1081C 557.833,1081.67 557.167,1081.67 556.5,1081C 550.674,1076.59 544.674,1072.42 538.5,1068.5C 531.864,1072.64 525.364,1076.97 519,1081.5C 520.423,1074.05 522.59,1066.72 525.5,1059.5C 519.336,1054.17 513.003,1049.01 506.5,1044C 514.521,1043.83 522.521,1043.33 530.5,1042.5C 533.241,1035.28 535.575,1027.94 537.5,1020.5 Z"/></g>
<g><path style="opacity:1" fill="#eeaf2b" d="M 661.5,1020.5 C 664.936,1027.8 667.602,1035.47 669.5,1043.5C 677.507,1043.33 685.507,1043.5 693.5,1044C 687.167,1049 680.833,1054 674.5,1059C 677.167,1066.33 679.833,1073.67 682.5,1081C 681.833,1081.67 681.167,1081.67 680.5,1081C 674.576,1076.46 668.409,1072.29 662,1068.5C 655.677,1072.82 649.344,1077.15 643,1081.5C 644.427,1074.04 646.594,1066.71 649.5,1059.5C 643.336,1054.17 637.003,1049.01 630.5,1044C 638.521,1043.83 646.521,1043.33 654.5,1042.5C 657.241,1035.28 659.575,1027.94 661.5,1020.5 Z"/></g>
<g><path style="opacity:1" fill="#eeaf2b" d="M 420.5,1058.5 C 428.167,1059.17 435.833,1059.83 443.5,1060.5C 437.066,1064.77 431.066,1069.6 425.5,1075C 427.735,1081.87 430.068,1088.7 432.5,1095.5C 432.167,1095.83 431.833,1096.17 431.5,1096.5C 425.071,1092.54 418.904,1088.2 413,1083.5C 406.746,1087.71 400.579,1092.04 394.5,1096.5C 395.31,1089.21 397.31,1082.04 400.5,1075C 394.684,1069.93 388.684,1065.09 382.5,1060.5C 390.167,1059.83 397.833,1059.17 405.5,1058.5C 407.308,1050.91 409.808,1043.57 413,1036.5C 415.804,1043.75 418.304,1051.08 420.5,1058.5 Z"/></g>
<g><path style="opacity:1" fill="#edaf2c" d="M 794.5,1057.5 C 802.097,1059.47 810.097,1060.13 818.5,1059.5C 812.335,1064.5 806.335,1069.67 800.5,1075C 803.308,1082.41 805.474,1089.91 807,1097.5C 800.588,1092.71 794.088,1088.04 787.5,1083.5C 781.139,1088.36 774.639,1093.03 768,1097.5C 770.403,1089.62 772.403,1081.62 774,1073.5C 768.313,1069.3 762.813,1064.97 757.5,1060.5C 764.833,1059.83 772.167,1059.17 779.5,1058.5C 781.939,1051.19 784.606,1043.86 787.5,1036.5C 790.435,1043.3 792.768,1050.3 794.5,1057.5 Z"/></g>
<g><path style="opacity:1" fill="#a68b43" d="M 405.5,1058.5 C 397.833,1059.17 390.167,1059.83 382.5,1060.5C 381.711,1060.22 381.044,1059.72 380.5,1059C 388.827,1058.5 397.16,1058.33 405.5,1058.5 Z"/></g>
<g><path style="opacity:1" fill="#a58a43" d="M 420.5,1058.5 C 428.528,1058.17 436.528,1058.5 444.5,1059.5C 444.376,1060.11 444.043,1060.44 443.5,1060.5C 435.833,1059.83 428.167,1059.17 420.5,1058.5 Z"/></g>
<g><path style="opacity:1" fill="#a78c42" d="M 779.5,1058.5 C 772.167,1059.17 764.833,1059.83 757.5,1060.5C 756.711,1060.22 756.044,1059.72 755.5,1059C 763.493,1058.5 771.493,1058.33 779.5,1058.5 Z"/></g>
<g><path style="opacity:1" fill="#a98d42" d="M 794.5,1057.5 C 803.171,1058.11 811.171,1058.78 818.5,1059.5C 810.097,1060.13 802.097,1059.47 794.5,1057.5 Z"/></g>
<g><path style="opacity:1" fill="#edaf2c" d="M 607.5,1101.5 C 615.5,1102.17 623.5,1102.83 631.5,1103.5C 625.043,1108.12 618.71,1112.95 612.5,1118C 615.167,1125.33 617.833,1132.67 620.5,1140C 613.525,1136.75 606.691,1132.92 600,1128.5C 593.746,1132.71 587.579,1137.04 581.5,1141.5C 581.167,1141.17 580.833,1140.83 580.5,1140.5C 583.406,1133.29 585.573,1125.96 587,1118.5C 580.833,1113.67 574.667,1108.83 568.5,1104C 576.521,1103.83 584.521,1103.33 592.5,1102.5C 594.897,1094.81 597.397,1087.14 600,1079.5C 603.192,1086.57 605.692,1093.91 607.5,1101.5 Z"/></g>
<g><path style="opacity:1" fill="#edaf2c" d="M 474.5,1093.5 C 477.334,1100.66 480,1107.99 482.5,1115.5C 490.479,1116.33 498.479,1116.83 506.5,1117C 499.76,1121.7 493.427,1126.87 487.5,1132.5C 490.406,1139.71 492.573,1147.04 494,1154.5C 487.667,1150.5 481.333,1146.5 475,1142.5C 468.667,1146.83 462.333,1151.17 456,1155.5C 457.027,1147.91 459.193,1140.58 462.5,1133.5C 456.014,1128.09 449.347,1122.92 442.5,1118C 450.827,1117.5 459.16,1117.33 467.5,1117.5C 469.432,1109.37 471.765,1101.37 474.5,1093.5 Z"/></g>
<g><path style="opacity:1" fill="#ecae2c" d="M 733.5,1115.5 C 741.167,1116.17 748.833,1116.83 756.5,1117.5C 750.316,1122.09 744.316,1126.93 738.5,1132C 741.308,1139.41 743.474,1146.91 745,1154.5C 738.584,1150.37 732.084,1146.37 725.5,1142.5C 719.421,1146.96 713.254,1151.29 707,1155.5C 708.667,1147.83 710.333,1140.17 712,1132.5C 705.833,1127.67 699.667,1122.83 693.5,1118C 701.827,1117.5 710.16,1117.33 718.5,1117.5C 720.077,1109.19 722.577,1101.19 726,1093.5C 728.41,1100.9 730.91,1108.23 733.5,1115.5 Z"/></g>
<g><path style="opacity:1" fill="#4f5e63" d="M 607.5,1101.5 C 615.86,1101.17 624.193,1101.5 632.5,1102.5C 632.376,1103.11 632.043,1103.44 631.5,1103.5C 623.5,1102.83 615.5,1102.17 607.5,1101.5 Z"/></g>
<g><path style="opacity:1" fill="#5e665e" d="M 733.5,1115.5 C 741.528,1115.17 749.528,1115.5 757.5,1116.5C 757.376,1117.11 757.043,1117.44 756.5,1117.5C 748.833,1116.83 741.167,1116.17 733.5,1115.5 Z"/></g>
<g><path style="opacity:1" fill="#ebad2d" d="M 542.5,1150.5 C 545.936,1157.8 548.602,1165.47 550.5,1173.5C 558.507,1173.33 566.507,1173.5 574.5,1174C 567.997,1179.01 561.664,1184.17 555.5,1189.5C 558.406,1196.71 560.573,1204.04 562,1211.5C 555.746,1207.29 549.579,1202.96 543.5,1198.5C 536.807,1202.85 530.474,1207.68 524.5,1213C 523.833,1213.67 523.167,1213.67 522.5,1213C 525.167,1205.67 527.833,1198.33 530.5,1191C 523.833,1185.67 517.167,1180.33 510.5,1175C 518.827,1174.5 527.16,1174.33 535.5,1174.5C 537.833,1166.5 540.166,1158.5 542.5,1150.5 Z"/></g>
<g><path style="opacity:1" fill="#edaf2c" d="M 656.5,1151.5 C 657.497,1151.47 658.164,1151.97 658.5,1153C 660.641,1159.76 662.975,1166.43 665.5,1173C 673.5,1173.33 681.5,1173.67 689.5,1174C 683.333,1178.83 677.167,1183.67 671,1188.5C 672.427,1195.96 674.594,1203.29 677.5,1210.5C 677.167,1210.83 676.833,1211.17 676.5,1211.5C 670.34,1206.92 664.007,1202.59 657.5,1198.5C 651.326,1202.42 645.326,1206.59 639.5,1211C 638.668,1211.69 638.002,1211.52 637.5,1210.5C 639.932,1203.7 642.265,1196.87 644.5,1190C 638.821,1183.98 632.488,1178.65 625.5,1174C 633.5,1173.67 641.5,1173.33 649.5,1173C 652.334,1166 654.667,1158.83 656.5,1151.5 Z"/></g>
<g><path style="opacity:1" fill="#eeaf2b" d="M 607.5,1233.5 C 615.167,1234.17 622.833,1234.83 630.5,1235.5C 624.355,1240.08 618.355,1244.92 612.5,1250C 615.69,1257.04 617.69,1264.21 618.5,1271.5C 612.5,1267.83 606.5,1264.17 600.5,1260.5C 593.892,1264.44 587.559,1268.78 581.5,1273.5C 581.167,1273 580.833,1272.5 580.5,1272C 582.735,1265.13 585.068,1258.3 587.5,1251.5C 581.336,1246.17 575.003,1241.01 568.5,1236C 576.521,1235.83 584.521,1235.33 592.5,1234.5C 594.901,1226.8 597.401,1219.13 600,1211.5C 603.192,1218.57 605.692,1225.91 607.5,1233.5 Z"/></g>
<g><path style="opacity:1" fill="#998448" d="M 607.5,1233.5 C 615.84,1233.33 624.173,1233.5 632.5,1234C 631.956,1234.72 631.289,1235.22 630.5,1235.5C 622.833,1234.83 615.167,1234.17 607.5,1233.5 Z"/></g>
</svg>
