<?xml version="1.0" encoding="UTF-8"?>
<!DOCTYPE svg PUBLIC "-//W3C//DTD SVG 1.1//EN" "http://www.w3.org/Graphics/SVG/1.1/DTD/svg11.dtd">
<svg xmlns="http://www.w3.org/2000/svg" version="1.1" width="1200px" height="1890px" style="shape-rendering:geometricPrecision; text-rendering:geometricPrecision; image-rendering:optimizeQuality; fill-rule:evenodd; clip-rule:evenodd" xmlns:xlink="http://www.w3.org/1999/xlink">
<g><path style="opacity:0.991" fill="#dba627" d="M 600.5,-0.5 C 600.833,-0.5 601.167,-0.5 601.5,-0.5C 617.196,48.7537 633.196,97.9203 649.5,147C 701.833,147.333 754.167,147.667 806.5,148C 764.113,179.387 721.447,210.387 678.5,241C 695.809,290.094 712.143,339.261 727.5,388.5C 684.833,358.833 642.167,329.167 599.5,299.5C 557.657,328.921 515.991,358.588 474.5,388.5C 474.167,388.167 473.833,387.833 473.5,387.5C 489.599,339.037 505.599,290.537 521.5,242C 478.993,210.666 436.326,179.499 393.5,148.5C 446.496,147.5 499.496,147.167 552.5,147.5C 568.304,98.0896 584.304,48.7563 600.5,-0.5 Z"/></g>
<g><path style="opacity:0.984" fill="#e2e3e5" d="M -0.5,492.5 C 399.5,492.5 799.5,492.5 1199.5,492.5C 1199.5,880.5 1199.5,1268.5 1199.5,1656.5C 1183.97,1736.53 1135.63,1781.03 1054.5,1790C 939.5,1790.33 824.5,1790.67 709.5,1791C 676.145,1794.41 650.312,1809.91 632,1837.5C 624.474,1851.74 619.141,1866.74 616,1882.5C 613.604,1885.07 611.104,1887.4 608.5,1889.5C 602.833,1889.5 597.167,1889.5 591.5,1889.5C 586.463,1886.96 582.963,1882.96 581,1877.5C 572.467,1826.63 542.634,1797.8 491.5,1791C 376.167,1790.67 260.833,1790.33 145.5,1790C 61.5942,1780.93 12.9275,1734.76 -0.5,1651.5C -0.5,1265.17 -0.5,878.833 -0.5,492.5 Z"/></g>
<g><path style="opacity:0.999" fill="#ed2a3c" d="M 1180.5,856.5 C 1044.17,856.5 907.833,856.5 771.5,856.5C 771.5,1161.17 771.5,1465.83 771.5,1770.5C 747.67,1771.33 723.67,1771.83 699.5,1772C 645.171,1781.33 612.004,1812.83 600,1866.5C 585.545,1807.72 548.045,1775.89 487.5,1771C 469.17,1770.5 450.836,1770.33 432.5,1770.5C 432.5,1465.83 432.5,1161.17 432.5,856.5C 294.833,856.5 157.167,856.5 19.5,856.5C 18.5005,742.001 18.1672,627.335 18.5,512.5C 405.833,512.5 793.167,512.5 1180.5,512.5C 1180.5,627.167 1180.5,741.833 1180.5,856.5 Z"/></g>
<g><path style="opacity:1" fill="#fffefe" d="M 547.5,721.5 C 547.5,704.167 547.5,686.833 547.5,669.5C 582.833,669.5 618.167,669.5 653.5,669.5C 654.885,691.986 652.385,713.986 646,735.5C 630.17,771.682 602.67,792.848 563.5,799C 507.729,803.037 467.895,779.87 444,729.5C 426.256,679.315 436.423,635.815 474.5,599C 511.383,569.491 552.05,563.158 596.5,580C 617.475,590.638 635.142,605.305 649.5,624C 636.317,636.683 622.984,649.183 609.5,661.5C 601.731,649.563 592.064,639.397 580.5,631C 550.096,616.644 523.93,622.144 502,647.5C 489.798,666.466 487.131,686.799 494,708.5C 505.898,734.409 526.065,747.242 554.5,747C 571.146,744.683 583.813,736.349 592.5,722C 577.504,721.5 562.504,721.333 547.5,721.5 Z"/></g>
<g><path style="opacity:1" fill="#fefefe" d="M 913.5,794.5 C 887.339,795.498 861.005,795.831 834.5,795.5C 817.486,775.817 800.82,755.817 784.5,735.5C 784.44,734.957 784.107,734.624 783.5,734.5C 782.5,754.822 782.167,775.156 782.5,795.5C 761.167,795.5 739.833,795.5 718.5,795.5C 718.5,721.833 718.5,648.167 718.5,574.5C 742.169,574.333 765.836,574.5 789.5,575C 809.91,575.347 829.243,580.014 847.5,589C 880.533,611.625 888.367,641.125 871,677.5C 862.513,690.655 851.013,700.155 836.5,706C 862.056,735.625 887.723,765.125 913.5,794.5 Z"/></g>
<g><path style="opacity:1" fill="#fcd8dc" d="M 952.5,575.5 C 996.997,574.501 1041.66,574.168 1086.5,574.5C 1086.5,592.167 1086.5,609.833 1086.5,627.5C 1060.17,627.5 1033.83,627.5 1007.5,627.5C 1033.33,626.502 1059.33,626.169 1085.5,626.5C 1085.5,609.5 1085.5,592.5 1085.5,575.5C 1041.17,575.5 996.833,575.5 952.5,575.5 Z"/></g>
<g><path style="opacity:1" fill="#fefefe" d="M 213.5,627.5 C 212.501,683.331 212.168,739.331 212.5,795.5C 194.833,795.5 177.167,795.5 159.5,795.5C 159.832,739.331 159.499,683.331 158.5,627.5C 143.5,627.5 128.5,627.5 113.5,627.5C 113.5,609.833 113.5,592.167 113.5,574.5C 161.833,574.5 210.167,574.5 258.5,574.5C 258.5,592.167 258.5,609.833 258.5,627.5C 243.5,627.5 228.5,627.5 213.5,627.5 Z"/></g>
<g><path style="opacity:1" fill="#fefefe" d="M 321.5,574.5 C 339.5,574.5 357.5,574.5 375.5,574.5C 375.5,648.5 375.5,722.5 375.5,796.5C 357.5,796.5 339.5,796.5 321.5,796.5C 321.5,722.5 321.5,648.5 321.5,574.5 Z"/></g>
<g><path style="opacity:1" fill="#fffefe" d="M 952.5,575.5 C 996.833,575.5 1041.17,575.5 1085.5,575.5C 1085.5,592.5 1085.5,609.5 1085.5,626.5C 1059.33,626.169 1033.33,626.502 1007.5,627.5C 1007.5,634.833 1007.5,642.167 1007.5,649.5C 1032.66,650.498 1057.99,650.831 1083.5,650.5C 1083.5,667.833 1083.5,685.167 1083.5,702.5C 1058.17,702.5 1032.83,702.5 1007.5,702.5C 1007.5,716.167 1007.5,729.833 1007.5,743.5C 1033.33,744.498 1059.33,744.831 1085.5,744.5C 1085.5,761.5 1085.5,778.5 1085.5,795.5C 1041.17,795.5 996.833,795.5 952.5,795.5C 952.5,722.167 952.5,648.833 952.5,575.5 Z"/></g>
<g><path style="opacity:1" fill="#fdd7d9" d="M 158.5,627.5 C 159.499,683.331 159.832,739.331 159.5,795.5C 177.167,795.5 194.833,795.5 212.5,795.5C 212.168,739.331 212.501,683.331 213.5,627.5C 213.5,683.833 213.5,740.167 213.5,796.5C 195.167,796.5 176.833,796.5 158.5,796.5C 158.5,740.167 158.5,683.833 158.5,627.5 Z"/></g>
<g><path style="opacity:1" fill="#ed2b3d" d="M 783.5,627.5 C 792.519,627.097 801.186,628.597 809.5,632C 814.211,635.088 816.211,639.422 815.5,645C 815.218,655.292 809.885,661.292 799.5,663C 794.233,664.191 788.899,664.691 783.5,664.5C 783.5,652.167 783.5,639.833 783.5,627.5 Z"/></g>
<g><path style="opacity:1" fill="#f7a4ac" d="M 1007.5,649.5 C 1033.17,649.5 1058.83,649.5 1084.5,649.5C 1084.83,667.341 1084.5,685.008 1083.5,702.5C 1083.5,685.167 1083.5,667.833 1083.5,650.5C 1057.99,650.831 1032.66,650.498 1007.5,649.5 Z"/></g>
<g><path style="opacity:1" fill="#f5848d" d="M 653.5,669.5 C 618.167,669.5 582.833,669.5 547.5,669.5C 547.5,686.833 547.5,704.167 547.5,721.5C 546.503,704.008 546.17,686.341 546.5,668.5C 582.337,668.168 618.004,668.502 653.5,669.5 Z"/></g>
<g><path style="opacity:1" fill="#fbced2" d="M 784.5,735.5 C 783.503,755.66 783.17,775.993 783.5,796.5C 761.66,796.831 739.994,796.497 718.5,795.5C 739.994,796.497 761.66,796.831 783.5,796.5C 783.17,775.993 783.503,755.66 784.5,735.5 Z"/></g>
<g><path style="opacity:1" fill="#f8b7bd" d="M 913.5,794.5 C 914.043,794.56 914.376,794.893 914.5,795.5C 887.67,796.829 861.003,796.829 834.5,795.5C 861.005,795.831 887.339,795.498 913.5,794.5 Z"/></g>
<g><path style="opacity:1" fill="#fbd7da" d="M 1007.5,743.5 C 1033.83,743.5 1060.17,743.5 1086.5,743.5C 1086.5,761.167 1086.5,778.833 1086.5,796.5C 1041.66,796.832 996.997,796.499 952.5,795.5C 996.833,795.5 1041.17,795.5 1085.5,795.5C 1085.5,778.5 1085.5,761.5 1085.5,744.5C 1059.33,744.831 1033.33,744.498 1007.5,743.5 Z"/></g>
<g><path style="opacity:1" fill="#1b3269" d="M 19.5,856.5 C 157.167,856.5 294.833,856.5 432.5,856.5C 432.5,1161.17 432.5,1465.83 432.5,1770.5C 429.5,1770.5 426.5,1770.5 423.5,1770.5C 423.5,1468.83 423.5,1167.17 423.5,865.5C 288.833,865.5 154.167,865.5 19.5,865.5C 19.5,862.5 19.5,859.5 19.5,856.5 Z"/></g>
<g><path style="opacity:0.999" fill="#1b3269" d="M 1180.5,856.5 C 1180.5,859.5 1180.5,862.5 1180.5,865.5C 1047.17,865.5 913.833,865.5 780.5,865.5C 780.5,1167.17 780.5,1468.83 780.5,1770.5C 777.5,1770.5 774.5,1770.5 771.5,1770.5C 771.5,1465.83 771.5,1161.17 771.5,856.5C 907.833,856.5 1044.17,856.5 1180.5,856.5 Z"/></g>
<g><path style="opacity:1" fill="#1e448d" d="M 19.5,866.5 C 153.833,866.5 288.167,866.5 422.5,866.5C 422.5,1167.83 422.5,1469.17 422.5,1770.5C 329.166,1770.67 235.833,1770.5 142.5,1770C 71.0961,1759.93 30.2628,1719.1 20,1647.5C 19.5,1387.17 19.3333,1126.83 19.5,866.5 Z"/></g>
<g><path style="opacity:1" fill="#193978" d="M 19.5,866.5 C 19.5,866.167 19.5,865.833 19.5,865.5C 154.167,865.5 288.833,865.5 423.5,865.5C 423.5,1167.17 423.5,1468.83 423.5,1770.5C 423.167,1770.5 422.833,1770.5 422.5,1770.5C 422.5,1469.17 422.5,1167.83 422.5,866.5C 288.167,866.5 153.833,866.5 19.5,866.5 Z"/></g>
<g><path style="opacity:1" fill="#1b3d80" d="M 1180.5,865.5 C 1180.5,865.833 1180.5,866.167 1180.5,866.5C 1047.5,866.5 914.5,866.5 781.5,866.5C 781.5,1167.83 781.5,1469.17 781.5,1770.5C 781.167,1770.5 780.833,1770.5 780.5,1770.5C 780.5,1468.83 780.5,1167.17 780.5,865.5C 913.833,865.5 1047.17,865.5 1180.5,865.5 Z"/></g>
<g><path style="opacity:1" fill="#1e448d" d="M 1180.5,866.5 C 1180.67,1125.5 1180.5,1384.5 1180,1643.5C 1176.68,1683.74 1159.84,1716.91 1129.5,1743C 1107.47,1758.9 1082.8,1767.9 1055.5,1770C 964.167,1770.5 872.834,1770.67 781.5,1770.5C 781.5,1469.17 781.5,1167.83 781.5,866.5C 914.5,866.5 1047.5,866.5 1180.5,866.5 Z"/></g>
</svg>
